M48
; DRILL file {KiCad (5.1.8-0-10_14)} date Thursday, October 21, 2021 at 10:23:05 PM
; FORMAT={-:-/ absolute / metric / decimal}
; #@! TF.CreationDate,2021-10-21T22:23:05-07:00
; #@! TF.GenerationSoftware,Kicad,Pcbnew,(5.1.8-0-10_14)
; #@! TF.FileFunction,Plated,1,4,PTH
FMAT,2
METRIC
T1C0.381
T2C0.800
T3C1.000
T4C1.200
%
G90
G05
T1
X204.927Y-84.531
X204.927Y-85.954
X205.537Y-110.642
X205.74Y-116.535
X206.146Y-85.954
X207.366Y-90.018
X207.366Y-104.699
X207.416Y-103.429
X208.686Y-89.967
X210.007Y-89.967
X210.16Y-104.851
X210.21Y-103.429
X211.328Y-89.967
X211.455Y-122.174
X211.48Y-103.429
X211.48Y-104.851
X211.48Y-123.571
X211.531Y-124.841
X211.633Y-84.125
X211.836Y-120.65
X212.598Y-89.916
X212.734Y-112.455
X213.157Y-104.14
X213.157Y-105.562
X213.157Y-107.086
X213.919Y-79.045
X213.919Y-84.125
X213.919Y-120.625
X213.97Y-86.004
X214.02Y-89.916
X214.071Y-88.24
X214.224Y-92.304
X214.782Y-124.638
X217.018Y-120.371
X217.043Y-118.821
X217.602Y-124.536
X217.856Y-114.3
X217.983Y-110.033
X218.821Y-120.472
X218.846Y-118.796
X218.897Y-122.58
X219.685Y-114.884
X219.71Y-108.407
X219.735Y-116.688
X219.812Y-106.883
X219.862Y-105.054
X219.913Y-103.48
X220.65Y-118.796
X220.751Y-124.282
X220.777Y-120.574
X220.98Y-122.428
X221.651Y-90.109
X221.92Y-114.249
X222.656Y-125.12
X223.012Y-119.456
X223.012Y-121.615
X223.571Y-86.944
X223.596Y-88.468
X223.799Y-123.571
X224.333Y-126.162
X225.771Y-92.878
X225.781Y-122.453
X225.806Y-119.964
X225.882Y-124.612
X225.882Y-127.711
X226.517Y-96.114
X227.964Y-94.566
X228.727Y-119.863
X229.895Y-93.066
X230.215Y-85.609
X230.254Y-96.066
X230.332Y-84.07
X230.433Y-89.277
X230.53Y-98.577
X231.038Y-97.333
X231.038Y-109.753
X231.267Y-117.221
X231.343Y-115.545
X232.55Y-97.879
X232.867Y-117.17
X232.918Y-115.545
X234.01Y-97.307
X234.544Y-98.527
X234.626Y-103.08
X234.793Y-84.07
X234.798Y-85.496
X234.994Y-96.07
X235.153Y-117.272
X235.204Y-115.824
X236.271Y-84.074
X236.271Y-85.471
X237.058Y-117.297
X237.109Y-115.824
X237.49Y-85.522
X237.508Y-89.273
X237.515Y-84.353
X238.989Y-117.272
X239.014Y-115.722
X239.947Y-100.286
X240.335Y-93.142
X240.386Y-111.938
X241.097Y-113.716
X241.122Y-115.646
X241.173Y-105.029
X241.198Y-117.272
X241.833Y-87.046
X242.341Y-106.832
X242.367Y-108.56
X242.443Y-110.287
X242.773Y-104.978
X242.773Y-112.192
X243.637Y-110.312
X243.688Y-108.534
X243.789Y-106.705
X245.897Y-99.797
X247.859Y-87.066
T2
X214.314Y-116.586
X216.814Y-116.586
X222.747Y-116.434
X225.247Y-116.434
T3
X254.965Y-85.242
X254.965Y-87.782
X254.965Y-90.322
X254.965Y-92.862
X254.965Y-95.402
X254.965Y-97.942
X221.666Y-95.148
X224.206Y-95.148
T4
X228.727Y-126.67
X233.727Y-126.67
X240.97Y-126.67
X245.97Y-126.67
X213.44Y-126.644
X218.44Y-126.644
X253.594Y-113.821
X253.594Y-118.821
X253.619Y-103.28
X253.619Y-108.28
T0
M30
