G04 #@! TF.GenerationSoftware,KiCad,Pcbnew,(5.1.8-0-10_14)*
G04 #@! TF.CreationDate,2021-10-21T22:22:27-07:00*
G04 #@! TF.ProjectId,ESP8266_12v_Relay,45535038-3236-4365-9f31-32765f52656c,rev?*
G04 #@! TF.SameCoordinates,Original*
G04 #@! TF.FileFunction,Copper,L2,Inr*
G04 #@! TF.FilePolarity,Positive*
%FSLAX46Y46*%
G04 Gerber Fmt 4.6, Leading zero omitted, Abs format (unit mm)*
G04 Created by KiCad (PCBNEW (5.1.8-0-10_14)) date 2021-10-21 22:22:27*
%MOMM*%
%LPD*%
G01*
G04 APERTURE LIST*
G04 #@! TA.AperFunction,WasherPad*
%ADD10C,2.700000*%
G04 #@! TD*
G04 #@! TA.AperFunction,ComponentPad*
%ADD11C,1.800000*%
G04 #@! TD*
G04 #@! TA.AperFunction,ComponentPad*
%ADD12R,1.800000X1.800000*%
G04 #@! TD*
G04 #@! TA.AperFunction,ComponentPad*
%ADD13O,1.700000X1.700000*%
G04 #@! TD*
G04 #@! TA.AperFunction,ComponentPad*
%ADD14R,1.700000X1.700000*%
G04 #@! TD*
G04 #@! TA.AperFunction,ComponentPad*
%ADD15C,1.600000*%
G04 #@! TD*
G04 #@! TA.AperFunction,ComponentPad*
%ADD16R,1.600000X1.600000*%
G04 #@! TD*
G04 #@! TA.AperFunction,ViaPad*
%ADD17C,0.762000*%
G04 #@! TD*
G04 #@! TA.AperFunction,Conductor*
%ADD18C,0.254000*%
G04 #@! TD*
G04 #@! TA.AperFunction,Conductor*
%ADD19C,0.100000*%
G04 #@! TD*
G04 APERTURE END LIST*
D10*
X252730000Y-125730000D03*
D11*
X218440000Y-126644400D03*
D12*
X213440000Y-126644400D03*
D13*
X254965200Y-97942400D03*
X254965200Y-95402400D03*
X254965200Y-92862400D03*
X254965200Y-90322400D03*
X254965200Y-87782400D03*
D14*
X254965200Y-85242400D03*
D15*
X214314400Y-116586000D03*
D16*
X216814400Y-116586000D03*
X222747200Y-116433600D03*
D15*
X225247200Y-116433600D03*
D10*
X207772000Y-80772000D03*
D11*
X245969800Y-126669800D03*
D12*
X240969800Y-126669800D03*
X228727000Y-126669800D03*
D11*
X233727000Y-126669800D03*
X253619000Y-103280200D03*
D12*
X253619000Y-108280200D03*
X253593600Y-118821200D03*
D11*
X253593600Y-113821200D03*
D14*
X224205800Y-95148400D03*
D13*
X221665800Y-95148400D03*
D17*
X210007200Y-89966800D03*
X211328000Y-89966800D03*
X212598000Y-89916000D03*
X208686400Y-89966800D03*
X207365600Y-90017600D03*
X214020400Y-89916000D03*
X214071200Y-88239600D03*
X214223600Y-92303600D03*
X230331600Y-84069600D03*
X234793200Y-84069600D03*
X234797600Y-85496400D03*
X236270800Y-84074000D03*
X236270800Y-85471000D03*
X237515400Y-84353400D03*
X237490000Y-85521800D03*
X241833400Y-87045800D03*
X225771200Y-92878400D03*
X240334800Y-93141800D03*
X226517200Y-96113600D03*
X213918800Y-79044800D03*
X230530400Y-98577400D03*
X205536800Y-110642400D03*
X205740000Y-116535200D03*
X207416400Y-103428800D03*
X207365600Y-104698800D03*
X206146400Y-85953600D03*
X204927200Y-85953600D03*
X204927200Y-84531200D03*
X211632800Y-84124800D03*
X213918800Y-84124800D03*
X213969600Y-86004400D03*
X219913200Y-103479600D03*
X219862400Y-105054400D03*
X219811600Y-106883200D03*
X219710000Y-108407200D03*
X217982800Y-110032800D03*
X234994000Y-96069600D03*
X232550000Y-97879200D03*
X230253800Y-96065600D03*
X221651000Y-90108600D03*
X245897400Y-99796600D03*
X239947200Y-100285800D03*
X234626400Y-103079800D03*
X231038400Y-109753400D03*
X231343200Y-115544600D03*
X232918000Y-115544600D03*
X231267000Y-117221000D03*
X232867200Y-117170200D03*
X235204000Y-115824000D03*
X235153200Y-117271800D03*
X237109000Y-115824000D03*
X237058200Y-117297200D03*
X239014000Y-115722400D03*
X238988600Y-117271800D03*
X241122200Y-115646200D03*
X241198400Y-117271800D03*
X241096800Y-113715800D03*
X240385600Y-111937800D03*
X242443000Y-110286800D03*
X243636800Y-110312200D03*
X242366800Y-108559600D03*
X243687600Y-108534200D03*
X242341400Y-106832400D03*
X243789200Y-106705400D03*
X241173000Y-105029000D03*
X242773200Y-104978200D03*
X242773200Y-112191800D03*
X223596200Y-88468200D03*
X223570800Y-86944200D03*
X237507600Y-89273200D03*
X230432700Y-89277100D03*
X234010200Y-97307400D03*
X231038400Y-97332800D03*
X234543600Y-98526600D03*
X212734400Y-112455200D03*
X210210400Y-103428800D03*
X211480400Y-103428800D03*
X210159600Y-104851200D03*
X211480400Y-104851200D03*
X213156800Y-104140000D03*
X213156800Y-105562400D03*
X213156800Y-107086400D03*
X217017600Y-120370600D03*
X217043000Y-118821200D03*
X218846400Y-118795800D03*
X218821000Y-120472200D03*
X220649800Y-118795800D03*
X220776800Y-120573800D03*
X218897200Y-122580400D03*
X220980000Y-122428000D03*
X219735400Y-116687600D03*
X219684600Y-114884200D03*
X223012000Y-119456200D03*
X223012000Y-121615200D03*
X222656400Y-125120400D03*
X228727000Y-119862600D03*
X225806000Y-119964200D03*
X225882200Y-124612400D03*
X225882200Y-127711200D03*
X225780600Y-122453400D03*
X223799400Y-123571000D03*
X224332800Y-126161800D03*
X220751400Y-124282200D03*
X221919800Y-114249200D03*
X217855800Y-114300000D03*
X217601800Y-124536200D03*
X230215000Y-85608600D03*
X247858800Y-87065600D03*
X227963600Y-94565600D03*
X229895400Y-93065600D03*
X213918800Y-120624600D03*
X211836000Y-120650000D03*
X211455000Y-122174000D03*
X211480400Y-123571000D03*
X214782400Y-124637800D03*
X211531200Y-124841000D03*
D18*
X222872300Y-83026191D02*
X222869167Y-83058000D01*
X222881673Y-83184971D01*
X222918709Y-83307063D01*
X222978852Y-83419583D01*
X223059792Y-83518208D01*
X223158417Y-83599148D01*
X223270937Y-83659291D01*
X223393029Y-83696327D01*
X223520000Y-83708833D01*
X223551808Y-83705700D01*
X229382622Y-83705700D01*
X229354644Y-83773244D01*
X229315600Y-83969533D01*
X229315600Y-84169667D01*
X229354644Y-84365956D01*
X229431232Y-84550856D01*
X229542421Y-84717262D01*
X229613641Y-84788482D01*
X229567338Y-84819421D01*
X229425821Y-84960938D01*
X229314632Y-85127344D01*
X229238044Y-85312244D01*
X229199000Y-85508533D01*
X229199000Y-85708667D01*
X229238044Y-85904956D01*
X229314632Y-86089856D01*
X229425821Y-86256262D01*
X229567338Y-86397779D01*
X229733744Y-86508968D01*
X229918644Y-86585556D01*
X230114933Y-86624600D01*
X230315067Y-86624600D01*
X230511356Y-86585556D01*
X230696256Y-86508968D01*
X230862662Y-86397779D01*
X231004179Y-86256262D01*
X231115368Y-86089856D01*
X231191956Y-85904956D01*
X231231000Y-85708667D01*
X231231000Y-85508533D01*
X231191956Y-85312244D01*
X231115368Y-85127344D01*
X231004179Y-84960938D01*
X230932959Y-84889718D01*
X230979262Y-84858779D01*
X231120779Y-84717262D01*
X231231968Y-84550856D01*
X231308556Y-84365956D01*
X231347600Y-84169667D01*
X231347600Y-83969533D01*
X231308556Y-83773244D01*
X231280578Y-83705700D01*
X233844222Y-83705700D01*
X233816244Y-83773244D01*
X233777200Y-83969533D01*
X233777200Y-84169667D01*
X233816244Y-84365956D01*
X233892832Y-84550856D01*
X234004021Y-84717262D01*
X234071959Y-84785200D01*
X234008421Y-84848738D01*
X233897232Y-85015144D01*
X233820644Y-85200044D01*
X233781600Y-85396333D01*
X233781600Y-85596467D01*
X233820644Y-85792756D01*
X233897232Y-85977656D01*
X234008421Y-86144062D01*
X234149938Y-86285579D01*
X234316344Y-86396768D01*
X234501244Y-86473356D01*
X234697533Y-86512400D01*
X234897667Y-86512400D01*
X235093956Y-86473356D01*
X235278856Y-86396768D01*
X235445262Y-86285579D01*
X235546900Y-86183941D01*
X235623138Y-86260179D01*
X235789544Y-86371368D01*
X235974444Y-86447956D01*
X236170733Y-86487000D01*
X236370867Y-86487000D01*
X236567156Y-86447956D01*
X236752056Y-86371368D01*
X236842386Y-86311011D01*
X237008744Y-86422168D01*
X237193644Y-86498756D01*
X237389933Y-86537800D01*
X237590067Y-86537800D01*
X237786356Y-86498756D01*
X237971256Y-86422168D01*
X238137662Y-86310979D01*
X238279179Y-86169462D01*
X238390368Y-86003056D01*
X238466956Y-85818156D01*
X238506000Y-85621867D01*
X238506000Y-85421733D01*
X238466956Y-85225444D01*
X238390368Y-85040544D01*
X238334283Y-84956607D01*
X238415768Y-84834656D01*
X238492356Y-84649756D01*
X238531400Y-84453467D01*
X238531400Y-84392400D01*
X253477128Y-84392400D01*
X253477128Y-86092400D01*
X253489388Y-86216882D01*
X253525698Y-86336580D01*
X253584663Y-86446894D01*
X253664015Y-86543585D01*
X253760706Y-86622937D01*
X253871020Y-86681902D01*
X253951666Y-86706366D01*
X253867612Y-86782131D01*
X253693559Y-87015480D01*
X253568375Y-87278301D01*
X253523724Y-87425510D01*
X253645045Y-87655400D01*
X254838200Y-87655400D01*
X254838200Y-87635400D01*
X255092200Y-87635400D01*
X255092200Y-87655400D01*
X256285355Y-87655400D01*
X256406676Y-87425510D01*
X256362025Y-87278301D01*
X256236841Y-87015480D01*
X256062788Y-86782131D01*
X255978734Y-86706366D01*
X256059380Y-86681902D01*
X256169694Y-86622937D01*
X256266385Y-86543585D01*
X256345737Y-86446894D01*
X256404702Y-86336580D01*
X256441012Y-86216882D01*
X256453272Y-86092400D01*
X256453272Y-84392400D01*
X256441012Y-84267918D01*
X256404702Y-84148220D01*
X256345737Y-84037906D01*
X256266385Y-83941215D01*
X256169694Y-83861863D01*
X256059380Y-83802898D01*
X255939682Y-83766588D01*
X255815200Y-83754328D01*
X254115200Y-83754328D01*
X253990718Y-83766588D01*
X253871020Y-83802898D01*
X253760706Y-83861863D01*
X253664015Y-83941215D01*
X253584663Y-84037906D01*
X253525698Y-84148220D01*
X253489388Y-84267918D01*
X253477128Y-84392400D01*
X238531400Y-84392400D01*
X238531400Y-84253333D01*
X238492356Y-84057044D01*
X238415768Y-83872144D01*
X238304579Y-83705738D01*
X238304541Y-83705700D01*
X256654300Y-83705700D01*
X256654301Y-124868330D01*
X256592629Y-124558284D01*
X256289820Y-123827237D01*
X255850208Y-123169311D01*
X255290689Y-122609792D01*
X254632763Y-122170180D01*
X253901716Y-121867371D01*
X253125640Y-121713000D01*
X252334360Y-121713000D01*
X251558284Y-121867371D01*
X250827237Y-122170180D01*
X250169311Y-122609792D01*
X249609792Y-123169311D01*
X249170180Y-123827237D01*
X248867371Y-124558284D01*
X248713000Y-125334360D01*
X248713000Y-126125640D01*
X248867371Y-126901716D01*
X249170180Y-127632763D01*
X249609792Y-128290689D01*
X250169311Y-128850208D01*
X250827237Y-129289820D01*
X251558284Y-129592629D01*
X251868325Y-129654300D01*
X210705700Y-129654300D01*
X210705700Y-126968191D01*
X210702793Y-126938676D01*
X210702948Y-126916473D01*
X210702065Y-126907473D01*
X210629522Y-126217265D01*
X210617714Y-126159738D01*
X210606717Y-126102093D01*
X210604105Y-126093444D01*
X210604104Y-126093437D01*
X210604101Y-126093431D01*
X210398879Y-125430464D01*
X210376131Y-125376348D01*
X210354140Y-125321919D01*
X210349894Y-125313934D01*
X210019807Y-124703449D01*
X209986965Y-124654758D01*
X209954835Y-124605658D01*
X209949119Y-124598650D01*
X209506740Y-124063906D01*
X209465084Y-124022540D01*
X209424012Y-123980598D01*
X209417044Y-123974834D01*
X208879225Y-123536200D01*
X208830330Y-123503714D01*
X208781892Y-123470548D01*
X208773940Y-123466248D01*
X208773932Y-123466244D01*
X208161163Y-123140429D01*
X208106904Y-123118065D01*
X208052931Y-123094932D01*
X208044292Y-123092258D01*
X207379903Y-122891667D01*
X207322328Y-122880267D01*
X207264895Y-122868059D01*
X207255901Y-122867114D01*
X206565204Y-122799391D01*
X206565191Y-122799391D01*
X206533809Y-122796300D01*
X203847700Y-122796300D01*
X203847700Y-122073933D01*
X210439000Y-122073933D01*
X210439000Y-122274067D01*
X210478044Y-122470356D01*
X210554632Y-122655256D01*
X210665821Y-122821662D01*
X210729359Y-122885200D01*
X210691221Y-122923338D01*
X210580032Y-123089744D01*
X210503444Y-123274644D01*
X210464400Y-123470933D01*
X210464400Y-123671067D01*
X210503444Y-123867356D01*
X210580032Y-124052256D01*
X210691221Y-124218662D01*
X210711530Y-124238971D01*
X210630832Y-124359744D01*
X210554244Y-124544644D01*
X210515200Y-124740933D01*
X210515200Y-124941067D01*
X210554244Y-125137356D01*
X210630832Y-125322256D01*
X210742021Y-125488662D01*
X210883538Y-125630179D01*
X211049944Y-125741368D01*
X211234844Y-125817956D01*
X211431133Y-125857000D01*
X211631267Y-125857000D01*
X211827556Y-125817956D01*
X211901928Y-125787150D01*
X211901928Y-127544400D01*
X211914188Y-127668882D01*
X211950498Y-127788580D01*
X212009463Y-127898894D01*
X212088815Y-127995585D01*
X212185506Y-128074937D01*
X212295820Y-128133902D01*
X212415518Y-128170212D01*
X212540000Y-128182472D01*
X214340000Y-128182472D01*
X214464482Y-128170212D01*
X214584180Y-128133902D01*
X214694494Y-128074937D01*
X214791185Y-127995585D01*
X214870537Y-127898894D01*
X214929502Y-127788580D01*
X214953800Y-127708480D01*
X217555525Y-127708480D01*
X217639208Y-127962661D01*
X217911775Y-128093558D01*
X218204642Y-128168765D01*
X218506553Y-128185391D01*
X218805907Y-128142797D01*
X219091199Y-128042622D01*
X219240792Y-127962661D01*
X219324475Y-127708480D01*
X219227128Y-127611133D01*
X224866200Y-127611133D01*
X224866200Y-127811267D01*
X224905244Y-128007556D01*
X224981832Y-128192456D01*
X225093021Y-128358862D01*
X225234538Y-128500379D01*
X225400944Y-128611568D01*
X225585844Y-128688156D01*
X225782133Y-128727200D01*
X225982267Y-128727200D01*
X226178556Y-128688156D01*
X226363456Y-128611568D01*
X226529862Y-128500379D01*
X226671379Y-128358862D01*
X226782568Y-128192456D01*
X226859156Y-128007556D01*
X226898200Y-127811267D01*
X226898200Y-127611133D01*
X226859156Y-127414844D01*
X226782568Y-127229944D01*
X226671379Y-127063538D01*
X226529862Y-126922021D01*
X226363456Y-126810832D01*
X226178556Y-126734244D01*
X225982267Y-126695200D01*
X225782133Y-126695200D01*
X225585844Y-126734244D01*
X225400944Y-126810832D01*
X225234538Y-126922021D01*
X225093021Y-127063538D01*
X224981832Y-127229944D01*
X224905244Y-127414844D01*
X224866200Y-127611133D01*
X219227128Y-127611133D01*
X218440000Y-126824005D01*
X217555525Y-127708480D01*
X214953800Y-127708480D01*
X214965812Y-127668882D01*
X214978072Y-127544400D01*
X214978072Y-126710953D01*
X216899009Y-126710953D01*
X216941603Y-127010307D01*
X217041778Y-127295599D01*
X217121739Y-127445192D01*
X217375920Y-127528875D01*
X218260395Y-126644400D01*
X218619605Y-126644400D01*
X219504080Y-127528875D01*
X219758261Y-127445192D01*
X219889158Y-127172625D01*
X219964365Y-126879758D01*
X219980991Y-126577847D01*
X219938397Y-126278493D01*
X219838222Y-125993201D01*
X219758261Y-125843608D01*
X219504080Y-125759925D01*
X218619605Y-126644400D01*
X218260395Y-126644400D01*
X217375920Y-125759925D01*
X217121739Y-125843608D01*
X216990842Y-126116175D01*
X216915635Y-126409042D01*
X216899009Y-126710953D01*
X214978072Y-126710953D01*
X214978072Y-125744400D01*
X214967483Y-125636889D01*
X215078756Y-125614756D01*
X215263656Y-125538168D01*
X215430062Y-125426979D01*
X215571579Y-125285462D01*
X215682768Y-125119056D01*
X215759356Y-124934156D01*
X215798400Y-124737867D01*
X215798400Y-124537733D01*
X215778191Y-124436133D01*
X216585800Y-124436133D01*
X216585800Y-124636267D01*
X216624844Y-124832556D01*
X216701432Y-125017456D01*
X216812621Y-125183862D01*
X216954138Y-125325379D01*
X217120544Y-125436568D01*
X217305444Y-125513156D01*
X217501733Y-125552200D01*
X217564783Y-125552200D01*
X217555525Y-125580320D01*
X218440000Y-126464795D01*
X219324475Y-125580320D01*
X219240792Y-125326139D01*
X218968225Y-125195242D01*
X218675358Y-125120035D01*
X218442206Y-125107196D01*
X218502168Y-125017456D01*
X218578756Y-124832556D01*
X218617800Y-124636267D01*
X218617800Y-124436133D01*
X218578756Y-124239844D01*
X218502168Y-124054944D01*
X218390979Y-123888538D01*
X218249462Y-123747021D01*
X218083056Y-123635832D01*
X217898156Y-123559244D01*
X217701867Y-123520200D01*
X217501733Y-123520200D01*
X217305444Y-123559244D01*
X217120544Y-123635832D01*
X216954138Y-123747021D01*
X216812621Y-123888538D01*
X216701432Y-124054944D01*
X216624844Y-124239844D01*
X216585800Y-124436133D01*
X215778191Y-124436133D01*
X215759356Y-124341444D01*
X215682768Y-124156544D01*
X215571579Y-123990138D01*
X215430062Y-123848621D01*
X215263656Y-123737432D01*
X215078756Y-123660844D01*
X214882467Y-123621800D01*
X214682333Y-123621800D01*
X214486044Y-123660844D01*
X214301144Y-123737432D01*
X214134738Y-123848621D01*
X213993221Y-123990138D01*
X213882032Y-124156544D01*
X213805444Y-124341444D01*
X213766400Y-124537733D01*
X213766400Y-124737867D01*
X213805444Y-124934156D01*
X213876760Y-125106328D01*
X212540000Y-125106328D01*
X212513815Y-125108907D01*
X212547200Y-124941067D01*
X212547200Y-124740933D01*
X212508156Y-124544644D01*
X212431568Y-124359744D01*
X212320379Y-124193338D01*
X212300070Y-124173029D01*
X212380768Y-124052256D01*
X212457356Y-123867356D01*
X212496400Y-123671067D01*
X212496400Y-123470933D01*
X212457356Y-123274644D01*
X212380768Y-123089744D01*
X212269579Y-122923338D01*
X212206041Y-122859800D01*
X212244179Y-122821662D01*
X212355368Y-122655256D01*
X212427823Y-122480333D01*
X217881200Y-122480333D01*
X217881200Y-122680467D01*
X217920244Y-122876756D01*
X217996832Y-123061656D01*
X218108021Y-123228062D01*
X218249538Y-123369579D01*
X218415944Y-123480768D01*
X218600844Y-123557356D01*
X218797133Y-123596400D01*
X218997267Y-123596400D01*
X219193556Y-123557356D01*
X219378456Y-123480768D01*
X219544862Y-123369579D01*
X219686379Y-123228062D01*
X219797568Y-123061656D01*
X219874156Y-122876756D01*
X219913200Y-122680467D01*
X219913200Y-122480333D01*
X219874156Y-122284044D01*
X219797568Y-122099144D01*
X219686379Y-121932738D01*
X219544862Y-121791221D01*
X219378456Y-121680032D01*
X219193556Y-121603444D01*
X218997267Y-121564400D01*
X218797133Y-121564400D01*
X218600844Y-121603444D01*
X218415944Y-121680032D01*
X218249538Y-121791221D01*
X218108021Y-121932738D01*
X217996832Y-122099144D01*
X217920244Y-122284044D01*
X217881200Y-122480333D01*
X212427823Y-122480333D01*
X212431956Y-122470356D01*
X212471000Y-122274067D01*
X212471000Y-122073933D01*
X212431956Y-121877644D01*
X212355368Y-121692744D01*
X212272596Y-121568867D01*
X212317256Y-121550368D01*
X212483662Y-121439179D01*
X212625179Y-121297662D01*
X212736368Y-121131256D01*
X212812956Y-120946356D01*
X212852000Y-120750067D01*
X212852000Y-120549933D01*
X212846948Y-120524533D01*
X212902800Y-120524533D01*
X212902800Y-120724667D01*
X212941844Y-120920956D01*
X213018432Y-121105856D01*
X213129621Y-121272262D01*
X213271138Y-121413779D01*
X213437544Y-121524968D01*
X213622444Y-121601556D01*
X213818733Y-121640600D01*
X214018867Y-121640600D01*
X214215156Y-121601556D01*
X214400056Y-121524968D01*
X214566462Y-121413779D01*
X214707979Y-121272262D01*
X214819168Y-121105856D01*
X214895756Y-120920956D01*
X214934800Y-120724667D01*
X214934800Y-120524533D01*
X214895756Y-120328244D01*
X214819168Y-120143344D01*
X214707979Y-119976938D01*
X214566462Y-119835421D01*
X214400056Y-119724232D01*
X214215156Y-119647644D01*
X214018867Y-119608600D01*
X213818733Y-119608600D01*
X213622444Y-119647644D01*
X213437544Y-119724232D01*
X213271138Y-119835421D01*
X213129621Y-119976938D01*
X213018432Y-120143344D01*
X212941844Y-120328244D01*
X212902800Y-120524533D01*
X212846948Y-120524533D01*
X212812956Y-120353644D01*
X212736368Y-120168744D01*
X212625179Y-120002338D01*
X212483662Y-119860821D01*
X212317256Y-119749632D01*
X212132356Y-119673044D01*
X211936067Y-119634000D01*
X211735933Y-119634000D01*
X211539644Y-119673044D01*
X211354744Y-119749632D01*
X211188338Y-119860821D01*
X211046821Y-120002338D01*
X210935632Y-120168744D01*
X210859044Y-120353644D01*
X210820000Y-120549933D01*
X210820000Y-120750067D01*
X210859044Y-120946356D01*
X210935632Y-121131256D01*
X211018404Y-121255133D01*
X210973744Y-121273632D01*
X210807338Y-121384821D01*
X210665821Y-121526338D01*
X210554632Y-121692744D01*
X210478044Y-121877644D01*
X210439000Y-122073933D01*
X203847700Y-122073933D01*
X203847700Y-117578702D01*
X213501303Y-117578702D01*
X213572886Y-117822671D01*
X213828396Y-117943571D01*
X214102584Y-118012300D01*
X214384912Y-118026217D01*
X214664530Y-117984787D01*
X214930692Y-117889603D01*
X215055914Y-117822671D01*
X215127497Y-117578702D01*
X214314400Y-116765605D01*
X213501303Y-117578702D01*
X203847700Y-117578702D01*
X203847700Y-116656512D01*
X212874183Y-116656512D01*
X212915613Y-116936130D01*
X213010797Y-117202292D01*
X213077729Y-117327514D01*
X213321698Y-117399097D01*
X214134795Y-116586000D01*
X214494005Y-116586000D01*
X215307102Y-117399097D01*
X215376328Y-117378785D01*
X215376328Y-117386000D01*
X215388588Y-117510482D01*
X215424898Y-117630180D01*
X215483863Y-117740494D01*
X215563215Y-117837185D01*
X215659906Y-117916537D01*
X215770220Y-117975502D01*
X215889918Y-118011812D01*
X216014400Y-118024072D01*
X216407235Y-118024072D01*
X216395338Y-118032021D01*
X216253821Y-118173538D01*
X216142632Y-118339944D01*
X216066044Y-118524844D01*
X216027000Y-118721133D01*
X216027000Y-118921267D01*
X216066044Y-119117556D01*
X216142632Y-119302456D01*
X216253821Y-119468862D01*
X216368159Y-119583200D01*
X216228421Y-119722938D01*
X216117232Y-119889344D01*
X216040644Y-120074244D01*
X216001600Y-120270533D01*
X216001600Y-120470667D01*
X216040644Y-120666956D01*
X216117232Y-120851856D01*
X216228421Y-121018262D01*
X216369938Y-121159779D01*
X216536344Y-121270968D01*
X216721244Y-121347556D01*
X216917533Y-121386600D01*
X217117667Y-121386600D01*
X217313956Y-121347556D01*
X217498856Y-121270968D01*
X217665262Y-121159779D01*
X217806779Y-121018262D01*
X217893633Y-120888275D01*
X217920632Y-120953456D01*
X218031821Y-121119862D01*
X218173338Y-121261379D01*
X218339744Y-121372568D01*
X218524644Y-121449156D01*
X218720933Y-121488200D01*
X218921067Y-121488200D01*
X219117356Y-121449156D01*
X219302256Y-121372568D01*
X219468662Y-121261379D01*
X219610179Y-121119862D01*
X219721368Y-120953456D01*
X219785579Y-120798438D01*
X219799844Y-120870156D01*
X219876432Y-121055056D01*
X219987621Y-121221462D01*
X220129138Y-121362979D01*
X220295544Y-121474168D01*
X220470377Y-121546586D01*
X220332338Y-121638821D01*
X220190821Y-121780338D01*
X220079632Y-121946744D01*
X220003044Y-122131644D01*
X219964000Y-122327933D01*
X219964000Y-122528067D01*
X220003044Y-122724356D01*
X220079632Y-122909256D01*
X220190821Y-123075662D01*
X220332338Y-123217179D01*
X220462051Y-123303850D01*
X220455044Y-123305244D01*
X220270144Y-123381832D01*
X220103738Y-123493021D01*
X219962221Y-123634538D01*
X219851032Y-123800944D01*
X219774444Y-123985844D01*
X219735400Y-124182133D01*
X219735400Y-124382267D01*
X219774444Y-124578556D01*
X219851032Y-124763456D01*
X219962221Y-124929862D01*
X220103738Y-125071379D01*
X220270144Y-125182568D01*
X220455044Y-125259156D01*
X220651333Y-125298200D01*
X220851467Y-125298200D01*
X221047756Y-125259156D01*
X221232656Y-125182568D01*
X221399062Y-125071379D01*
X221450108Y-125020333D01*
X221640400Y-125020333D01*
X221640400Y-125220467D01*
X221679444Y-125416756D01*
X221756032Y-125601656D01*
X221867221Y-125768062D01*
X222008738Y-125909579D01*
X222175144Y-126020768D01*
X222360044Y-126097356D01*
X222556333Y-126136400D01*
X222756467Y-126136400D01*
X222952756Y-126097356D01*
X223137656Y-126020768D01*
X223304062Y-125909579D01*
X223361251Y-125852390D01*
X223355844Y-125865444D01*
X223316800Y-126061733D01*
X223316800Y-126261867D01*
X223355844Y-126458156D01*
X223432432Y-126643056D01*
X223543621Y-126809462D01*
X223685138Y-126950979D01*
X223851544Y-127062168D01*
X224036444Y-127138756D01*
X224232733Y-127177800D01*
X224432867Y-127177800D01*
X224629156Y-127138756D01*
X224814056Y-127062168D01*
X224980462Y-126950979D01*
X225121979Y-126809462D01*
X225233168Y-126643056D01*
X225309756Y-126458156D01*
X225348800Y-126261867D01*
X225348800Y-126061733D01*
X225309756Y-125865444D01*
X225270140Y-125769800D01*
X227188928Y-125769800D01*
X227188928Y-127569800D01*
X227201188Y-127694282D01*
X227237498Y-127813980D01*
X227296463Y-127924294D01*
X227375815Y-128020985D01*
X227472506Y-128100337D01*
X227582820Y-128159302D01*
X227702518Y-128195612D01*
X227827000Y-128207872D01*
X229627000Y-128207872D01*
X229751482Y-128195612D01*
X229871180Y-128159302D01*
X229981494Y-128100337D01*
X230078185Y-128020985D01*
X230157537Y-127924294D01*
X230216502Y-127813980D01*
X230252812Y-127694282D01*
X230265072Y-127569800D01*
X230265072Y-126518616D01*
X232192000Y-126518616D01*
X232192000Y-126820984D01*
X232250989Y-127117543D01*
X232366701Y-127396895D01*
X232534688Y-127648305D01*
X232748495Y-127862112D01*
X232999905Y-128030099D01*
X233279257Y-128145811D01*
X233575816Y-128204800D01*
X233878184Y-128204800D01*
X234174743Y-128145811D01*
X234454095Y-128030099D01*
X234705505Y-127862112D01*
X234919312Y-127648305D01*
X235087299Y-127396895D01*
X235203011Y-127117543D01*
X235262000Y-126820984D01*
X235262000Y-126518616D01*
X235203011Y-126222057D01*
X235087299Y-125942705D01*
X234971768Y-125769800D01*
X239431728Y-125769800D01*
X239431728Y-127569800D01*
X239443988Y-127694282D01*
X239480298Y-127813980D01*
X239539263Y-127924294D01*
X239618615Y-128020985D01*
X239715306Y-128100337D01*
X239825620Y-128159302D01*
X239945318Y-128195612D01*
X240069800Y-128207872D01*
X241869800Y-128207872D01*
X241994282Y-128195612D01*
X242113980Y-128159302D01*
X242224294Y-128100337D01*
X242320985Y-128020985D01*
X242400337Y-127924294D01*
X242459302Y-127813980D01*
X242495612Y-127694282D01*
X242507872Y-127569800D01*
X242507872Y-126518616D01*
X244434800Y-126518616D01*
X244434800Y-126820984D01*
X244493789Y-127117543D01*
X244609501Y-127396895D01*
X244777488Y-127648305D01*
X244991295Y-127862112D01*
X245242705Y-128030099D01*
X245522057Y-128145811D01*
X245818616Y-128204800D01*
X246120984Y-128204800D01*
X246417543Y-128145811D01*
X246696895Y-128030099D01*
X246948305Y-127862112D01*
X247162112Y-127648305D01*
X247330099Y-127396895D01*
X247445811Y-127117543D01*
X247504800Y-126820984D01*
X247504800Y-126518616D01*
X247445811Y-126222057D01*
X247330099Y-125942705D01*
X247162112Y-125691295D01*
X246948305Y-125477488D01*
X246696895Y-125309501D01*
X246417543Y-125193789D01*
X246120984Y-125134800D01*
X245818616Y-125134800D01*
X245522057Y-125193789D01*
X245242705Y-125309501D01*
X244991295Y-125477488D01*
X244777488Y-125691295D01*
X244609501Y-125942705D01*
X244493789Y-126222057D01*
X244434800Y-126518616D01*
X242507872Y-126518616D01*
X242507872Y-125769800D01*
X242495612Y-125645318D01*
X242459302Y-125525620D01*
X242400337Y-125415306D01*
X242320985Y-125318615D01*
X242224294Y-125239263D01*
X242113980Y-125180298D01*
X241994282Y-125143988D01*
X241869800Y-125131728D01*
X240069800Y-125131728D01*
X239945318Y-125143988D01*
X239825620Y-125180298D01*
X239715306Y-125239263D01*
X239618615Y-125318615D01*
X239539263Y-125415306D01*
X239480298Y-125525620D01*
X239443988Y-125645318D01*
X239431728Y-125769800D01*
X234971768Y-125769800D01*
X234919312Y-125691295D01*
X234705505Y-125477488D01*
X234454095Y-125309501D01*
X234174743Y-125193789D01*
X233878184Y-125134800D01*
X233575816Y-125134800D01*
X233279257Y-125193789D01*
X232999905Y-125309501D01*
X232748495Y-125477488D01*
X232534688Y-125691295D01*
X232366701Y-125942705D01*
X232250989Y-126222057D01*
X232192000Y-126518616D01*
X230265072Y-126518616D01*
X230265072Y-125769800D01*
X230252812Y-125645318D01*
X230216502Y-125525620D01*
X230157537Y-125415306D01*
X230078185Y-125318615D01*
X229981494Y-125239263D01*
X229871180Y-125180298D01*
X229751482Y-125143988D01*
X229627000Y-125131728D01*
X227827000Y-125131728D01*
X227702518Y-125143988D01*
X227582820Y-125180298D01*
X227472506Y-125239263D01*
X227375815Y-125318615D01*
X227296463Y-125415306D01*
X227237498Y-125525620D01*
X227201188Y-125645318D01*
X227188928Y-125769800D01*
X225270140Y-125769800D01*
X225233168Y-125680544D01*
X225121979Y-125514138D01*
X224980462Y-125372621D01*
X224814056Y-125261432D01*
X224629156Y-125184844D01*
X224432867Y-125145800D01*
X224232733Y-125145800D01*
X224036444Y-125184844D01*
X223851544Y-125261432D01*
X223685138Y-125372621D01*
X223627949Y-125429810D01*
X223633356Y-125416756D01*
X223672400Y-125220467D01*
X223672400Y-125020333D01*
X223633356Y-124824044D01*
X223556768Y-124639144D01*
X223493081Y-124543829D01*
X223503044Y-124547956D01*
X223699333Y-124587000D01*
X223899467Y-124587000D01*
X224095756Y-124547956D01*
X224181757Y-124512333D01*
X224866200Y-124512333D01*
X224866200Y-124712467D01*
X224905244Y-124908756D01*
X224981832Y-125093656D01*
X225093021Y-125260062D01*
X225234538Y-125401579D01*
X225400944Y-125512768D01*
X225585844Y-125589356D01*
X225782133Y-125628400D01*
X225982267Y-125628400D01*
X226178556Y-125589356D01*
X226363456Y-125512768D01*
X226529862Y-125401579D01*
X226671379Y-125260062D01*
X226782568Y-125093656D01*
X226859156Y-124908756D01*
X226898200Y-124712467D01*
X226898200Y-124512333D01*
X226859156Y-124316044D01*
X226782568Y-124131144D01*
X226671379Y-123964738D01*
X226529862Y-123823221D01*
X226363456Y-123712032D01*
X226178556Y-123635444D01*
X225982267Y-123596400D01*
X225782133Y-123596400D01*
X225585844Y-123635444D01*
X225400944Y-123712032D01*
X225234538Y-123823221D01*
X225093021Y-123964738D01*
X224981832Y-124131144D01*
X224905244Y-124316044D01*
X224866200Y-124512333D01*
X224181757Y-124512333D01*
X224280656Y-124471368D01*
X224447062Y-124360179D01*
X224588579Y-124218662D01*
X224699768Y-124052256D01*
X224776356Y-123867356D01*
X224815400Y-123671067D01*
X224815400Y-123470933D01*
X224776356Y-123274644D01*
X224699768Y-123089744D01*
X224588579Y-122923338D01*
X224447062Y-122781821D01*
X224280656Y-122670632D01*
X224095756Y-122594044D01*
X223899467Y-122555000D01*
X223699333Y-122555000D01*
X223503044Y-122594044D01*
X223318144Y-122670632D01*
X223151738Y-122781821D01*
X223010221Y-122923338D01*
X222899032Y-123089744D01*
X222822444Y-123274644D01*
X222783400Y-123470933D01*
X222783400Y-123671067D01*
X222822444Y-123867356D01*
X222899032Y-124052256D01*
X222962719Y-124147571D01*
X222952756Y-124143444D01*
X222756467Y-124104400D01*
X222556333Y-124104400D01*
X222360044Y-124143444D01*
X222175144Y-124220032D01*
X222008738Y-124331221D01*
X221867221Y-124472738D01*
X221756032Y-124639144D01*
X221679444Y-124824044D01*
X221640400Y-125020333D01*
X221450108Y-125020333D01*
X221540579Y-124929862D01*
X221651768Y-124763456D01*
X221728356Y-124578556D01*
X221767400Y-124382267D01*
X221767400Y-124182133D01*
X221728356Y-123985844D01*
X221651768Y-123800944D01*
X221540579Y-123634538D01*
X221399062Y-123493021D01*
X221269349Y-123406350D01*
X221276356Y-123404956D01*
X221461256Y-123328368D01*
X221627662Y-123217179D01*
X221769179Y-123075662D01*
X221880368Y-122909256D01*
X221956956Y-122724356D01*
X221996000Y-122528067D01*
X221996000Y-122327933D01*
X221956956Y-122131644D01*
X221880368Y-121946744D01*
X221769179Y-121780338D01*
X221627662Y-121638821D01*
X221461256Y-121527632D01*
X221431081Y-121515133D01*
X221996000Y-121515133D01*
X221996000Y-121715267D01*
X222035044Y-121911556D01*
X222111632Y-122096456D01*
X222222821Y-122262862D01*
X222364338Y-122404379D01*
X222530744Y-122515568D01*
X222715644Y-122592156D01*
X222911933Y-122631200D01*
X223112067Y-122631200D01*
X223308356Y-122592156D01*
X223493256Y-122515568D01*
X223659662Y-122404379D01*
X223710708Y-122353333D01*
X224764600Y-122353333D01*
X224764600Y-122553467D01*
X224803644Y-122749756D01*
X224880232Y-122934656D01*
X224991421Y-123101062D01*
X225132938Y-123242579D01*
X225299344Y-123353768D01*
X225484244Y-123430356D01*
X225680533Y-123469400D01*
X225880667Y-123469400D01*
X226076956Y-123430356D01*
X226261856Y-123353768D01*
X226428262Y-123242579D01*
X226569779Y-123101062D01*
X226680968Y-122934656D01*
X226757556Y-122749756D01*
X226796600Y-122553467D01*
X226796600Y-122353333D01*
X226757556Y-122157044D01*
X226680968Y-121972144D01*
X226569779Y-121805738D01*
X226428262Y-121664221D01*
X226261856Y-121553032D01*
X226076956Y-121476444D01*
X225880667Y-121437400D01*
X225680533Y-121437400D01*
X225484244Y-121476444D01*
X225299344Y-121553032D01*
X225132938Y-121664221D01*
X224991421Y-121805738D01*
X224880232Y-121972144D01*
X224803644Y-122157044D01*
X224764600Y-122353333D01*
X223710708Y-122353333D01*
X223801179Y-122262862D01*
X223912368Y-122096456D01*
X223988956Y-121911556D01*
X224028000Y-121715267D01*
X224028000Y-121515133D01*
X223988956Y-121318844D01*
X223912368Y-121133944D01*
X223801179Y-120967538D01*
X223659662Y-120826021D01*
X223493256Y-120714832D01*
X223308356Y-120638244D01*
X223112067Y-120599200D01*
X222911933Y-120599200D01*
X222715644Y-120638244D01*
X222530744Y-120714832D01*
X222364338Y-120826021D01*
X222222821Y-120967538D01*
X222111632Y-121133944D01*
X222035044Y-121318844D01*
X221996000Y-121515133D01*
X221431081Y-121515133D01*
X221286423Y-121455214D01*
X221424462Y-121362979D01*
X221565979Y-121221462D01*
X221677168Y-121055056D01*
X221753756Y-120870156D01*
X221792800Y-120673867D01*
X221792800Y-120473733D01*
X221753756Y-120277444D01*
X221677168Y-120092544D01*
X221565979Y-119926138D01*
X221424462Y-119784621D01*
X221258056Y-119673432D01*
X221200662Y-119649659D01*
X221297462Y-119584979D01*
X221438979Y-119443462D01*
X221497330Y-119356133D01*
X221996000Y-119356133D01*
X221996000Y-119556267D01*
X222035044Y-119752556D01*
X222111632Y-119937456D01*
X222222821Y-120103862D01*
X222364338Y-120245379D01*
X222530744Y-120356568D01*
X222715644Y-120433156D01*
X222911933Y-120472200D01*
X223112067Y-120472200D01*
X223308356Y-120433156D01*
X223493256Y-120356568D01*
X223659662Y-120245379D01*
X223801179Y-120103862D01*
X223912368Y-119937456D01*
X223942739Y-119864133D01*
X224790000Y-119864133D01*
X224790000Y-120064267D01*
X224829044Y-120260556D01*
X224905632Y-120445456D01*
X225016821Y-120611862D01*
X225158338Y-120753379D01*
X225324744Y-120864568D01*
X225509644Y-120941156D01*
X225705933Y-120980200D01*
X225906067Y-120980200D01*
X226102356Y-120941156D01*
X226287256Y-120864568D01*
X226453662Y-120753379D01*
X226595179Y-120611862D01*
X226706368Y-120445456D01*
X226782956Y-120260556D01*
X226822000Y-120064267D01*
X226822000Y-119864133D01*
X226801791Y-119762533D01*
X227711000Y-119762533D01*
X227711000Y-119962667D01*
X227750044Y-120158956D01*
X227826632Y-120343856D01*
X227937821Y-120510262D01*
X228079338Y-120651779D01*
X228245744Y-120762968D01*
X228430644Y-120839556D01*
X228626933Y-120878600D01*
X228827067Y-120878600D01*
X229023356Y-120839556D01*
X229208256Y-120762968D01*
X229374662Y-120651779D01*
X229516179Y-120510262D01*
X229627368Y-120343856D01*
X229703956Y-120158956D01*
X229743000Y-119962667D01*
X229743000Y-119762533D01*
X229703956Y-119566244D01*
X229627368Y-119381344D01*
X229516179Y-119214938D01*
X229374662Y-119073421D01*
X229208256Y-118962232D01*
X229023356Y-118885644D01*
X228827067Y-118846600D01*
X228626933Y-118846600D01*
X228430644Y-118885644D01*
X228245744Y-118962232D01*
X228079338Y-119073421D01*
X227937821Y-119214938D01*
X227826632Y-119381344D01*
X227750044Y-119566244D01*
X227711000Y-119762533D01*
X226801791Y-119762533D01*
X226782956Y-119667844D01*
X226706368Y-119482944D01*
X226595179Y-119316538D01*
X226453662Y-119175021D01*
X226287256Y-119063832D01*
X226102356Y-118987244D01*
X225906067Y-118948200D01*
X225705933Y-118948200D01*
X225509644Y-118987244D01*
X225324744Y-119063832D01*
X225158338Y-119175021D01*
X225016821Y-119316538D01*
X224905632Y-119482944D01*
X224829044Y-119667844D01*
X224790000Y-119864133D01*
X223942739Y-119864133D01*
X223988956Y-119752556D01*
X224028000Y-119556267D01*
X224028000Y-119356133D01*
X223988956Y-119159844D01*
X223912368Y-118974944D01*
X223801179Y-118808538D01*
X223659662Y-118667021D01*
X223493256Y-118555832D01*
X223308356Y-118479244D01*
X223112067Y-118440200D01*
X222911933Y-118440200D01*
X222715644Y-118479244D01*
X222530744Y-118555832D01*
X222364338Y-118667021D01*
X222222821Y-118808538D01*
X222111632Y-118974944D01*
X222035044Y-119159844D01*
X221996000Y-119356133D01*
X221497330Y-119356133D01*
X221550168Y-119277056D01*
X221626756Y-119092156D01*
X221665800Y-118895867D01*
X221665800Y-118695733D01*
X221626756Y-118499444D01*
X221550168Y-118314544D01*
X221438979Y-118148138D01*
X221297462Y-118006621D01*
X221169621Y-117921200D01*
X252055528Y-117921200D01*
X252055528Y-119721200D01*
X252067788Y-119845682D01*
X252104098Y-119965380D01*
X252163063Y-120075694D01*
X252242415Y-120172385D01*
X252339106Y-120251737D01*
X252449420Y-120310702D01*
X252569118Y-120347012D01*
X252693600Y-120359272D01*
X254493600Y-120359272D01*
X254618082Y-120347012D01*
X254737780Y-120310702D01*
X254848094Y-120251737D01*
X254944785Y-120172385D01*
X255024137Y-120075694D01*
X255083102Y-119965380D01*
X255119412Y-119845682D01*
X255131672Y-119721200D01*
X255131672Y-117921200D01*
X255119412Y-117796718D01*
X255083102Y-117677020D01*
X255024137Y-117566706D01*
X254944785Y-117470015D01*
X254848094Y-117390663D01*
X254737780Y-117331698D01*
X254618082Y-117295388D01*
X254493600Y-117283128D01*
X252693600Y-117283128D01*
X252569118Y-117295388D01*
X252449420Y-117331698D01*
X252339106Y-117390663D01*
X252242415Y-117470015D01*
X252163063Y-117566706D01*
X252104098Y-117677020D01*
X252067788Y-117796718D01*
X252055528Y-117921200D01*
X221169621Y-117921200D01*
X221131056Y-117895432D01*
X220946156Y-117818844D01*
X220749867Y-117779800D01*
X220549733Y-117779800D01*
X220353444Y-117818844D01*
X220168544Y-117895432D01*
X220002138Y-118006621D01*
X219860621Y-118148138D01*
X219749432Y-118314544D01*
X219748100Y-118317760D01*
X219746768Y-118314544D01*
X219635579Y-118148138D01*
X219494062Y-118006621D01*
X219327656Y-117895432D01*
X219142756Y-117818844D01*
X218946467Y-117779800D01*
X218746333Y-117779800D01*
X218550044Y-117818844D01*
X218365144Y-117895432D01*
X218198738Y-118006621D01*
X218057221Y-118148138D01*
X217946032Y-118314544D01*
X217938518Y-118332685D01*
X217832179Y-118173538D01*
X217690662Y-118032021D01*
X217670497Y-118018547D01*
X217738882Y-118011812D01*
X217858580Y-117975502D01*
X217968894Y-117916537D01*
X218065585Y-117837185D01*
X218144937Y-117740494D01*
X218203902Y-117630180D01*
X218240212Y-117510482D01*
X218252472Y-117386000D01*
X218252472Y-115786000D01*
X218240212Y-115661518D01*
X218203902Y-115541820D01*
X218144937Y-115431506D01*
X218065585Y-115334815D01*
X218025727Y-115302104D01*
X218152156Y-115276956D01*
X218337056Y-115200368D01*
X218503462Y-115089179D01*
X218644979Y-114947662D01*
X218668600Y-114912311D01*
X218668600Y-114984267D01*
X218707644Y-115180556D01*
X218784232Y-115365456D01*
X218895421Y-115531862D01*
X219036938Y-115673379D01*
X219203344Y-115784568D01*
X219237165Y-115798577D01*
X219087738Y-115898421D01*
X218946221Y-116039938D01*
X218835032Y-116206344D01*
X218758444Y-116391244D01*
X218719400Y-116587533D01*
X218719400Y-116787667D01*
X218758444Y-116983956D01*
X218835032Y-117168856D01*
X218946221Y-117335262D01*
X219087738Y-117476779D01*
X219254144Y-117587968D01*
X219439044Y-117664556D01*
X219635333Y-117703600D01*
X219835467Y-117703600D01*
X220031756Y-117664556D01*
X220216656Y-117587968D01*
X220383062Y-117476779D01*
X220524579Y-117335262D01*
X220635768Y-117168856D01*
X220712356Y-116983956D01*
X220751400Y-116787667D01*
X220751400Y-116587533D01*
X220712356Y-116391244D01*
X220635768Y-116206344D01*
X220524579Y-116039938D01*
X220383062Y-115898421D01*
X220216656Y-115787232D01*
X220182835Y-115773223D01*
X220332262Y-115673379D01*
X220473779Y-115531862D01*
X220584968Y-115365456D01*
X220661556Y-115180556D01*
X220700600Y-114984267D01*
X220700600Y-114784133D01*
X220661556Y-114587844D01*
X220584968Y-114402944D01*
X220473779Y-114236538D01*
X220386374Y-114149133D01*
X220903800Y-114149133D01*
X220903800Y-114349267D01*
X220942844Y-114545556D01*
X221019432Y-114730456D01*
X221130621Y-114896862D01*
X221272138Y-115038379D01*
X221438544Y-115149568D01*
X221503337Y-115176406D01*
X221496015Y-115182415D01*
X221416663Y-115279106D01*
X221357698Y-115389420D01*
X221321388Y-115509118D01*
X221309128Y-115633600D01*
X221309128Y-117233600D01*
X221321388Y-117358082D01*
X221357698Y-117477780D01*
X221416663Y-117588094D01*
X221496015Y-117684785D01*
X221592706Y-117764137D01*
X221703020Y-117823102D01*
X221822718Y-117859412D01*
X221947200Y-117871672D01*
X223547200Y-117871672D01*
X223671682Y-117859412D01*
X223791380Y-117823102D01*
X223901694Y-117764137D01*
X223998385Y-117684785D01*
X224077737Y-117588094D01*
X224136702Y-117477780D01*
X224152317Y-117426302D01*
X224434103Y-117426302D01*
X224505686Y-117670271D01*
X224761196Y-117791171D01*
X225035384Y-117859900D01*
X225317712Y-117873817D01*
X225597330Y-117832387D01*
X225863492Y-117737203D01*
X225988714Y-117670271D01*
X226060297Y-117426302D01*
X225247200Y-116613205D01*
X224434103Y-117426302D01*
X224152317Y-117426302D01*
X224173012Y-117358082D01*
X224185272Y-117233600D01*
X224185272Y-117226385D01*
X224254498Y-117246697D01*
X225067595Y-116433600D01*
X225426805Y-116433600D01*
X226239902Y-117246697D01*
X226483871Y-117175114D01*
X226604771Y-116919604D01*
X226673500Y-116645416D01*
X226687417Y-116363088D01*
X226645987Y-116083470D01*
X226550803Y-115817308D01*
X226483871Y-115692086D01*
X226239902Y-115620503D01*
X225426805Y-116433600D01*
X225067595Y-116433600D01*
X224254498Y-115620503D01*
X224185272Y-115640815D01*
X224185272Y-115633600D01*
X224173012Y-115509118D01*
X224152318Y-115440898D01*
X224434103Y-115440898D01*
X225247200Y-116253995D01*
X226060297Y-115440898D01*
X225988714Y-115196929D01*
X225733204Y-115076029D01*
X225459016Y-115007300D01*
X225176688Y-114993383D01*
X224897070Y-115034813D01*
X224630908Y-115129997D01*
X224505686Y-115196929D01*
X224434103Y-115440898D01*
X224152318Y-115440898D01*
X224136702Y-115389420D01*
X224077737Y-115279106D01*
X223998385Y-115182415D01*
X223901694Y-115103063D01*
X223791380Y-115044098D01*
X223671682Y-115007788D01*
X223547200Y-114995528D01*
X222610313Y-114995528D01*
X222708979Y-114896862D01*
X222820168Y-114730456D01*
X222896756Y-114545556D01*
X222935800Y-114349267D01*
X222935800Y-114149133D01*
X222896756Y-113952844D01*
X222820168Y-113767944D01*
X222754735Y-113670016D01*
X252058600Y-113670016D01*
X252058600Y-113972384D01*
X252117589Y-114268943D01*
X252233301Y-114548295D01*
X252401288Y-114799705D01*
X252615095Y-115013512D01*
X252866505Y-115181499D01*
X253145857Y-115297211D01*
X253442416Y-115356200D01*
X253744784Y-115356200D01*
X254041343Y-115297211D01*
X254320695Y-115181499D01*
X254572105Y-115013512D01*
X254785912Y-114799705D01*
X254953899Y-114548295D01*
X255069611Y-114268943D01*
X255128600Y-113972384D01*
X255128600Y-113670016D01*
X255069611Y-113373457D01*
X254953899Y-113094105D01*
X254785912Y-112842695D01*
X254572105Y-112628888D01*
X254320695Y-112460901D01*
X254041343Y-112345189D01*
X253744784Y-112286200D01*
X253442416Y-112286200D01*
X253145857Y-112345189D01*
X252866505Y-112460901D01*
X252615095Y-112628888D01*
X252401288Y-112842695D01*
X252233301Y-113094105D01*
X252117589Y-113373457D01*
X252058600Y-113670016D01*
X222754735Y-113670016D01*
X222708979Y-113601538D01*
X222567462Y-113460021D01*
X222401056Y-113348832D01*
X222216156Y-113272244D01*
X222019867Y-113233200D01*
X221819733Y-113233200D01*
X221623444Y-113272244D01*
X221438544Y-113348832D01*
X221272138Y-113460021D01*
X221130621Y-113601538D01*
X221019432Y-113767944D01*
X220942844Y-113952844D01*
X220903800Y-114149133D01*
X220386374Y-114149133D01*
X220332262Y-114095021D01*
X220165856Y-113983832D01*
X219980956Y-113907244D01*
X219784667Y-113868200D01*
X219584533Y-113868200D01*
X219388244Y-113907244D01*
X219203344Y-113983832D01*
X219036938Y-114095021D01*
X218895421Y-114236538D01*
X218871800Y-114271889D01*
X218871800Y-114199933D01*
X218832756Y-114003644D01*
X218756168Y-113818744D01*
X218644979Y-113652338D01*
X218503462Y-113510821D01*
X218337056Y-113399632D01*
X218152156Y-113323044D01*
X217955867Y-113284000D01*
X217755733Y-113284000D01*
X217559444Y-113323044D01*
X217374544Y-113399632D01*
X217208138Y-113510821D01*
X217066621Y-113652338D01*
X216955432Y-113818744D01*
X216878844Y-114003644D01*
X216839800Y-114199933D01*
X216839800Y-114400067D01*
X216878844Y-114596356D01*
X216955432Y-114781256D01*
X217066621Y-114947662D01*
X217208138Y-115089179D01*
X217296062Y-115147928D01*
X216014400Y-115147928D01*
X215889918Y-115160188D01*
X215770220Y-115196498D01*
X215659906Y-115255463D01*
X215563215Y-115334815D01*
X215483863Y-115431506D01*
X215424898Y-115541820D01*
X215388588Y-115661518D01*
X215376328Y-115786000D01*
X215376328Y-115793215D01*
X215307102Y-115772903D01*
X214494005Y-116586000D01*
X214134795Y-116586000D01*
X213321698Y-115772903D01*
X213077729Y-115844486D01*
X212956829Y-116099996D01*
X212888100Y-116374184D01*
X212874183Y-116656512D01*
X203847700Y-116656512D01*
X203847700Y-115593298D01*
X213501303Y-115593298D01*
X214314400Y-116406395D01*
X215127497Y-115593298D01*
X215055914Y-115349329D01*
X214800404Y-115228429D01*
X214526216Y-115159700D01*
X214243888Y-115145783D01*
X213964270Y-115187213D01*
X213698108Y-115282397D01*
X213572886Y-115349329D01*
X213501303Y-115593298D01*
X203847700Y-115593298D01*
X203847700Y-112355133D01*
X211718400Y-112355133D01*
X211718400Y-112555267D01*
X211757444Y-112751556D01*
X211834032Y-112936456D01*
X211945221Y-113102862D01*
X212086738Y-113244379D01*
X212253144Y-113355568D01*
X212438044Y-113432156D01*
X212634333Y-113471200D01*
X212834467Y-113471200D01*
X213030756Y-113432156D01*
X213215656Y-113355568D01*
X213382062Y-113244379D01*
X213523579Y-113102862D01*
X213634768Y-112936456D01*
X213711356Y-112751556D01*
X213750400Y-112555267D01*
X213750400Y-112355133D01*
X213711356Y-112158844D01*
X213634768Y-111973944D01*
X213523579Y-111807538D01*
X213382062Y-111666021D01*
X213215656Y-111554832D01*
X213030756Y-111478244D01*
X212834467Y-111439200D01*
X212634333Y-111439200D01*
X212438044Y-111478244D01*
X212253144Y-111554832D01*
X212086738Y-111666021D01*
X211945221Y-111807538D01*
X211834032Y-111973944D01*
X211757444Y-112158844D01*
X211718400Y-112355133D01*
X203847700Y-112355133D01*
X203847700Y-104751133D01*
X209143600Y-104751133D01*
X209143600Y-104951267D01*
X209182644Y-105147556D01*
X209259232Y-105332456D01*
X209370421Y-105498862D01*
X209511938Y-105640379D01*
X209678344Y-105751568D01*
X209863244Y-105828156D01*
X210059533Y-105867200D01*
X210259667Y-105867200D01*
X210455956Y-105828156D01*
X210640856Y-105751568D01*
X210807262Y-105640379D01*
X210820000Y-105627641D01*
X210832738Y-105640379D01*
X210999144Y-105751568D01*
X211184044Y-105828156D01*
X211380333Y-105867200D01*
X211580467Y-105867200D01*
X211776756Y-105828156D01*
X211961656Y-105751568D01*
X212128062Y-105640379D01*
X212140800Y-105627641D01*
X212140800Y-105662467D01*
X212179844Y-105858756D01*
X212256432Y-106043656D01*
X212367621Y-106210062D01*
X212481959Y-106324400D01*
X212367621Y-106438738D01*
X212256432Y-106605144D01*
X212179844Y-106790044D01*
X212140800Y-106986333D01*
X212140800Y-107186467D01*
X212179844Y-107382756D01*
X212256432Y-107567656D01*
X212367621Y-107734062D01*
X212509138Y-107875579D01*
X212675544Y-107986768D01*
X212860444Y-108063356D01*
X213056733Y-108102400D01*
X213256867Y-108102400D01*
X213453156Y-108063356D01*
X213638056Y-107986768D01*
X213804462Y-107875579D01*
X213945979Y-107734062D01*
X214057168Y-107567656D01*
X214133756Y-107382756D01*
X214134264Y-107380200D01*
X252080928Y-107380200D01*
X252080928Y-109180200D01*
X252093188Y-109304682D01*
X252129498Y-109424380D01*
X252188463Y-109534694D01*
X252267815Y-109631385D01*
X252364506Y-109710737D01*
X252474820Y-109769702D01*
X252594518Y-109806012D01*
X252719000Y-109818272D01*
X254519000Y-109818272D01*
X254643482Y-109806012D01*
X254763180Y-109769702D01*
X254873494Y-109710737D01*
X254970185Y-109631385D01*
X255049537Y-109534694D01*
X255108502Y-109424380D01*
X255144812Y-109304682D01*
X255157072Y-109180200D01*
X255157072Y-107380200D01*
X255144812Y-107255718D01*
X255108502Y-107136020D01*
X255049537Y-107025706D01*
X254970185Y-106929015D01*
X254873494Y-106849663D01*
X254763180Y-106790698D01*
X254643482Y-106754388D01*
X254519000Y-106742128D01*
X252719000Y-106742128D01*
X252594518Y-106754388D01*
X252474820Y-106790698D01*
X252364506Y-106849663D01*
X252267815Y-106929015D01*
X252188463Y-107025706D01*
X252129498Y-107136020D01*
X252093188Y-107255718D01*
X252080928Y-107380200D01*
X214134264Y-107380200D01*
X214172800Y-107186467D01*
X214172800Y-106986333D01*
X214133756Y-106790044D01*
X214057168Y-106605144D01*
X213945979Y-106438738D01*
X213831641Y-106324400D01*
X213945979Y-106210062D01*
X214057168Y-106043656D01*
X214133756Y-105858756D01*
X214172800Y-105662467D01*
X214172800Y-105462333D01*
X214133756Y-105266044D01*
X214057168Y-105081144D01*
X213945979Y-104914738D01*
X213882441Y-104851200D01*
X213945979Y-104787662D01*
X214057168Y-104621256D01*
X214133756Y-104436356D01*
X214172800Y-104240067D01*
X214172800Y-104039933D01*
X214133756Y-103843644D01*
X214057168Y-103658744D01*
X213945979Y-103492338D01*
X213804462Y-103350821D01*
X213638056Y-103239632D01*
X213453156Y-103163044D01*
X213282085Y-103129016D01*
X252084000Y-103129016D01*
X252084000Y-103431384D01*
X252142989Y-103727943D01*
X252258701Y-104007295D01*
X252426688Y-104258705D01*
X252640495Y-104472512D01*
X252891905Y-104640499D01*
X253171257Y-104756211D01*
X253467816Y-104815200D01*
X253770184Y-104815200D01*
X254066743Y-104756211D01*
X254346095Y-104640499D01*
X254597505Y-104472512D01*
X254811312Y-104258705D01*
X254979299Y-104007295D01*
X255095011Y-103727943D01*
X255154000Y-103431384D01*
X255154000Y-103129016D01*
X255095011Y-102832457D01*
X254979299Y-102553105D01*
X254811312Y-102301695D01*
X254597505Y-102087888D01*
X254346095Y-101919901D01*
X254066743Y-101804189D01*
X253770184Y-101745200D01*
X253467816Y-101745200D01*
X253171257Y-101804189D01*
X252891905Y-101919901D01*
X252640495Y-102087888D01*
X252426688Y-102301695D01*
X252258701Y-102553105D01*
X252142989Y-102832457D01*
X252084000Y-103129016D01*
X213282085Y-103129016D01*
X213256867Y-103124000D01*
X213056733Y-103124000D01*
X212860444Y-103163044D01*
X212675544Y-103239632D01*
X212509138Y-103350821D01*
X212496400Y-103363559D01*
X212496400Y-103328733D01*
X212457356Y-103132444D01*
X212380768Y-102947544D01*
X212269579Y-102781138D01*
X212128062Y-102639621D01*
X211961656Y-102528432D01*
X211776756Y-102451844D01*
X211580467Y-102412800D01*
X211380333Y-102412800D01*
X211184044Y-102451844D01*
X210999144Y-102528432D01*
X210845400Y-102631161D01*
X210691656Y-102528432D01*
X210506756Y-102451844D01*
X210310467Y-102412800D01*
X210110333Y-102412800D01*
X209914044Y-102451844D01*
X209729144Y-102528432D01*
X209562738Y-102639621D01*
X209421221Y-102781138D01*
X209310032Y-102947544D01*
X209233444Y-103132444D01*
X209194400Y-103328733D01*
X209194400Y-103528867D01*
X209233444Y-103725156D01*
X209310032Y-103910056D01*
X209421221Y-104076462D01*
X209459359Y-104114600D01*
X209370421Y-104203538D01*
X209259232Y-104369944D01*
X209182644Y-104554844D01*
X209143600Y-104751133D01*
X203847700Y-104751133D01*
X203847700Y-95505291D01*
X220224319Y-95505291D01*
X220321643Y-95779652D01*
X220470622Y-96029755D01*
X220665531Y-96245988D01*
X220898880Y-96420041D01*
X221161701Y-96545225D01*
X221308910Y-96589876D01*
X221538800Y-96468555D01*
X221538800Y-95275400D01*
X220344986Y-95275400D01*
X220224319Y-95505291D01*
X203847700Y-95505291D01*
X203847700Y-94791509D01*
X220224319Y-94791509D01*
X220344986Y-95021400D01*
X221538800Y-95021400D01*
X221538800Y-93828245D01*
X221792800Y-93828245D01*
X221792800Y-95021400D01*
X221812800Y-95021400D01*
X221812800Y-95275400D01*
X221792800Y-95275400D01*
X221792800Y-96468555D01*
X222022690Y-96589876D01*
X222169899Y-96545225D01*
X222432720Y-96420041D01*
X222666069Y-96245988D01*
X222741834Y-96161934D01*
X222766298Y-96242580D01*
X222825263Y-96352894D01*
X222904615Y-96449585D01*
X223001306Y-96528937D01*
X223111620Y-96587902D01*
X223231318Y-96624212D01*
X223355800Y-96636472D01*
X225055800Y-96636472D01*
X225180282Y-96624212D01*
X225299980Y-96587902D01*
X225410294Y-96528937D01*
X225506985Y-96449585D01*
X225540100Y-96409234D01*
X225540244Y-96409956D01*
X225616832Y-96594856D01*
X225728021Y-96761262D01*
X225869538Y-96902779D01*
X226035944Y-97013968D01*
X226220844Y-97090556D01*
X226417133Y-97129600D01*
X226617267Y-97129600D01*
X226813556Y-97090556D01*
X226998456Y-97013968D01*
X227164862Y-96902779D01*
X227306379Y-96761262D01*
X227417568Y-96594856D01*
X227494156Y-96409956D01*
X227533200Y-96213667D01*
X227533200Y-96013533D01*
X227494156Y-95817244D01*
X227417568Y-95632344D01*
X227306379Y-95465938D01*
X227164862Y-95324421D01*
X226998456Y-95213232D01*
X226813556Y-95136644D01*
X226617267Y-95097600D01*
X226417133Y-95097600D01*
X226220844Y-95136644D01*
X226035944Y-95213232D01*
X225869538Y-95324421D01*
X225728021Y-95465938D01*
X225693872Y-95517046D01*
X225693872Y-94465533D01*
X226947600Y-94465533D01*
X226947600Y-94665667D01*
X226986644Y-94861956D01*
X227063232Y-95046856D01*
X227174421Y-95213262D01*
X227315938Y-95354779D01*
X227482344Y-95465968D01*
X227667244Y-95542556D01*
X227863533Y-95581600D01*
X228063667Y-95581600D01*
X228259956Y-95542556D01*
X228444856Y-95465968D01*
X228611262Y-95354779D01*
X228752779Y-95213262D01*
X228863968Y-95046856D01*
X228940556Y-94861956D01*
X228979600Y-94665667D01*
X228979600Y-94465533D01*
X228940556Y-94269244D01*
X228863968Y-94084344D01*
X228752779Y-93917938D01*
X228611262Y-93776421D01*
X228444856Y-93665232D01*
X228259956Y-93588644D01*
X228063667Y-93549600D01*
X227863533Y-93549600D01*
X227667244Y-93588644D01*
X227482344Y-93665232D01*
X227315938Y-93776421D01*
X227174421Y-93917938D01*
X227063232Y-94084344D01*
X226986644Y-94269244D01*
X226947600Y-94465533D01*
X225693872Y-94465533D01*
X225693872Y-94298400D01*
X225681612Y-94173918D01*
X225645302Y-94054220D01*
X225586337Y-93943906D01*
X225521240Y-93864585D01*
X225671133Y-93894400D01*
X225871267Y-93894400D01*
X226067556Y-93855356D01*
X226252456Y-93778768D01*
X226418862Y-93667579D01*
X226560379Y-93526062D01*
X226671568Y-93359656D01*
X226748156Y-93174756D01*
X226787200Y-92978467D01*
X226787200Y-92965533D01*
X228879400Y-92965533D01*
X228879400Y-93165667D01*
X228918444Y-93361956D01*
X228995032Y-93546856D01*
X229106221Y-93713262D01*
X229247738Y-93854779D01*
X229414144Y-93965968D01*
X229599044Y-94042556D01*
X229795333Y-94081600D01*
X229995467Y-94081600D01*
X230191756Y-94042556D01*
X230376656Y-93965968D01*
X230543062Y-93854779D01*
X230684579Y-93713262D01*
X230795768Y-93546856D01*
X230872356Y-93361956D01*
X230911400Y-93165667D01*
X230911400Y-93041733D01*
X239318800Y-93041733D01*
X239318800Y-93241867D01*
X239357844Y-93438156D01*
X239434432Y-93623056D01*
X239545621Y-93789462D01*
X239687138Y-93930979D01*
X239853544Y-94042168D01*
X240038444Y-94118756D01*
X240234733Y-94157800D01*
X240434867Y-94157800D01*
X240631156Y-94118756D01*
X240816056Y-94042168D01*
X240982462Y-93930979D01*
X241123979Y-93789462D01*
X241235168Y-93623056D01*
X241311756Y-93438156D01*
X241350800Y-93241867D01*
X241350800Y-93041733D01*
X241311756Y-92845444D01*
X241235168Y-92660544D01*
X241123979Y-92494138D01*
X240982462Y-92352621D01*
X240816056Y-92241432D01*
X240631156Y-92164844D01*
X240434867Y-92125800D01*
X240234733Y-92125800D01*
X240038444Y-92164844D01*
X239853544Y-92241432D01*
X239687138Y-92352621D01*
X239545621Y-92494138D01*
X239434432Y-92660544D01*
X239357844Y-92845444D01*
X239318800Y-93041733D01*
X230911400Y-93041733D01*
X230911400Y-92965533D01*
X230872356Y-92769244D01*
X230795768Y-92584344D01*
X230684579Y-92417938D01*
X230543062Y-92276421D01*
X230376656Y-92165232D01*
X230191756Y-92088644D01*
X229995467Y-92049600D01*
X229795333Y-92049600D01*
X229599044Y-92088644D01*
X229414144Y-92165232D01*
X229247738Y-92276421D01*
X229106221Y-92417938D01*
X228995032Y-92584344D01*
X228918444Y-92769244D01*
X228879400Y-92965533D01*
X226787200Y-92965533D01*
X226787200Y-92778333D01*
X226748156Y-92582044D01*
X226671568Y-92397144D01*
X226560379Y-92230738D01*
X226418862Y-92089221D01*
X226252456Y-91978032D01*
X226067556Y-91901444D01*
X225871267Y-91862400D01*
X225671133Y-91862400D01*
X225474844Y-91901444D01*
X225289944Y-91978032D01*
X225123538Y-92089221D01*
X224982021Y-92230738D01*
X224870832Y-92397144D01*
X224794244Y-92582044D01*
X224755200Y-92778333D01*
X224755200Y-92978467D01*
X224794244Y-93174756D01*
X224870832Y-93359656D01*
X224982021Y-93526062D01*
X225122895Y-93666936D01*
X225055800Y-93660328D01*
X223355800Y-93660328D01*
X223231318Y-93672588D01*
X223111620Y-93708898D01*
X223001306Y-93767863D01*
X222904615Y-93847215D01*
X222825263Y-93943906D01*
X222766298Y-94054220D01*
X222741834Y-94134866D01*
X222666069Y-94050812D01*
X222432720Y-93876759D01*
X222169899Y-93751575D01*
X222022690Y-93706924D01*
X221792800Y-93828245D01*
X221538800Y-93828245D01*
X221308910Y-93706924D01*
X221161701Y-93751575D01*
X220898880Y-93876759D01*
X220665531Y-94050812D01*
X220470622Y-94267045D01*
X220321643Y-94517148D01*
X220224319Y-94791509D01*
X203847700Y-94791509D01*
X203847700Y-92203533D01*
X213207600Y-92203533D01*
X213207600Y-92403667D01*
X213246644Y-92599956D01*
X213323232Y-92784856D01*
X213434421Y-92951262D01*
X213575938Y-93092779D01*
X213742344Y-93203968D01*
X213927244Y-93280556D01*
X214123533Y-93319600D01*
X214323667Y-93319600D01*
X214519956Y-93280556D01*
X214704856Y-93203968D01*
X214871262Y-93092779D01*
X215012779Y-92951262D01*
X215123968Y-92784856D01*
X215200556Y-92599956D01*
X215239600Y-92403667D01*
X215239600Y-92203533D01*
X215200556Y-92007244D01*
X215123968Y-91822344D01*
X215012779Y-91655938D01*
X214871262Y-91514421D01*
X214704856Y-91403232D01*
X214519956Y-91326644D01*
X214323667Y-91287600D01*
X214123533Y-91287600D01*
X213927244Y-91326644D01*
X213742344Y-91403232D01*
X213575938Y-91514421D01*
X213434421Y-91655938D01*
X213323232Y-91822344D01*
X213246644Y-92007244D01*
X213207600Y-92203533D01*
X203847700Y-92203533D01*
X203847700Y-89917533D01*
X206349600Y-89917533D01*
X206349600Y-90117667D01*
X206388644Y-90313956D01*
X206465232Y-90498856D01*
X206576421Y-90665262D01*
X206717938Y-90806779D01*
X206884344Y-90917968D01*
X207069244Y-90994556D01*
X207265533Y-91033600D01*
X207465667Y-91033600D01*
X207661956Y-90994556D01*
X207846856Y-90917968D01*
X208013262Y-90806779D01*
X208053919Y-90766122D01*
X208205144Y-90867168D01*
X208390044Y-90943756D01*
X208586333Y-90982800D01*
X208786467Y-90982800D01*
X208982756Y-90943756D01*
X209167656Y-90867168D01*
X209334062Y-90755979D01*
X209346800Y-90743241D01*
X209359538Y-90755979D01*
X209525944Y-90867168D01*
X209710844Y-90943756D01*
X209907133Y-90982800D01*
X210107267Y-90982800D01*
X210303556Y-90943756D01*
X210488456Y-90867168D01*
X210654862Y-90755979D01*
X210667600Y-90743241D01*
X210680338Y-90755979D01*
X210846744Y-90867168D01*
X211031644Y-90943756D01*
X211227933Y-90982800D01*
X211428067Y-90982800D01*
X211624356Y-90943756D01*
X211809256Y-90867168D01*
X211975662Y-90755979D01*
X211995971Y-90735670D01*
X212116744Y-90816368D01*
X212301644Y-90892956D01*
X212497933Y-90932000D01*
X212698067Y-90932000D01*
X212894356Y-90892956D01*
X213079256Y-90816368D01*
X213245662Y-90705179D01*
X213309200Y-90641641D01*
X213372738Y-90705179D01*
X213539144Y-90816368D01*
X213724044Y-90892956D01*
X213920333Y-90932000D01*
X214120467Y-90932000D01*
X214316756Y-90892956D01*
X214501656Y-90816368D01*
X214668062Y-90705179D01*
X214809579Y-90563662D01*
X214920768Y-90397256D01*
X214997356Y-90212356D01*
X215004559Y-90176140D01*
X253480200Y-90176140D01*
X253480200Y-90468660D01*
X253537268Y-90755558D01*
X253649210Y-91025811D01*
X253811725Y-91269032D01*
X254018568Y-91475875D01*
X254192960Y-91592400D01*
X254018568Y-91708925D01*
X253811725Y-91915768D01*
X253649210Y-92158989D01*
X253537268Y-92429242D01*
X253480200Y-92716140D01*
X253480200Y-93008660D01*
X253537268Y-93295558D01*
X253649210Y-93565811D01*
X253811725Y-93809032D01*
X254018568Y-94015875D01*
X254192960Y-94132400D01*
X254018568Y-94248925D01*
X253811725Y-94455768D01*
X253649210Y-94698989D01*
X253537268Y-94969242D01*
X253480200Y-95256140D01*
X253480200Y-95548660D01*
X253537268Y-95835558D01*
X253649210Y-96105811D01*
X253811725Y-96349032D01*
X254018568Y-96555875D01*
X254192960Y-96672400D01*
X254018568Y-96788925D01*
X253811725Y-96995768D01*
X253649210Y-97238989D01*
X253537268Y-97509242D01*
X253480200Y-97796140D01*
X253480200Y-98088660D01*
X253537268Y-98375558D01*
X253649210Y-98645811D01*
X253811725Y-98889032D01*
X254018568Y-99095875D01*
X254261789Y-99258390D01*
X254532042Y-99370332D01*
X254818940Y-99427400D01*
X255111460Y-99427400D01*
X255398358Y-99370332D01*
X255668611Y-99258390D01*
X255911832Y-99095875D01*
X256118675Y-98889032D01*
X256281190Y-98645811D01*
X256393132Y-98375558D01*
X256450200Y-98088660D01*
X256450200Y-97796140D01*
X256393132Y-97509242D01*
X256281190Y-97238989D01*
X256118675Y-96995768D01*
X255911832Y-96788925D01*
X255737440Y-96672400D01*
X255911832Y-96555875D01*
X256118675Y-96349032D01*
X256281190Y-96105811D01*
X256393132Y-95835558D01*
X256450200Y-95548660D01*
X256450200Y-95256140D01*
X256393132Y-94969242D01*
X256281190Y-94698989D01*
X256118675Y-94455768D01*
X255911832Y-94248925D01*
X255737440Y-94132400D01*
X255911832Y-94015875D01*
X256118675Y-93809032D01*
X256281190Y-93565811D01*
X256393132Y-93295558D01*
X256450200Y-93008660D01*
X256450200Y-92716140D01*
X256393132Y-92429242D01*
X256281190Y-92158989D01*
X256118675Y-91915768D01*
X255911832Y-91708925D01*
X255737440Y-91592400D01*
X255911832Y-91475875D01*
X256118675Y-91269032D01*
X256281190Y-91025811D01*
X256393132Y-90755558D01*
X256450200Y-90468660D01*
X256450200Y-90176140D01*
X256393132Y-89889242D01*
X256281190Y-89618989D01*
X256118675Y-89375768D01*
X255911832Y-89168925D01*
X255729666Y-89047205D01*
X255846555Y-88977578D01*
X256062788Y-88782669D01*
X256236841Y-88549320D01*
X256362025Y-88286499D01*
X256406676Y-88139290D01*
X256285355Y-87909400D01*
X255092200Y-87909400D01*
X255092200Y-87929400D01*
X254838200Y-87929400D01*
X254838200Y-87909400D01*
X253645045Y-87909400D01*
X253523724Y-88139290D01*
X253568375Y-88286499D01*
X253693559Y-88549320D01*
X253867612Y-88782669D01*
X254083845Y-88977578D01*
X254200734Y-89047205D01*
X254018568Y-89168925D01*
X253811725Y-89375768D01*
X253649210Y-89618989D01*
X253537268Y-89889242D01*
X253480200Y-90176140D01*
X215004559Y-90176140D01*
X215036400Y-90016067D01*
X215036400Y-89815933D01*
X214997356Y-89619644D01*
X214920768Y-89434744D01*
X214809579Y-89268338D01*
X214668062Y-89126821D01*
X214620097Y-89094772D01*
X214718862Y-89028779D01*
X214860379Y-88887262D01*
X214971568Y-88720856D01*
X215048156Y-88535956D01*
X215087200Y-88339667D01*
X215087200Y-88139533D01*
X215048156Y-87943244D01*
X214971568Y-87758344D01*
X214860379Y-87591938D01*
X214718862Y-87450421D01*
X214552456Y-87339232D01*
X214367556Y-87262644D01*
X214171267Y-87223600D01*
X213971133Y-87223600D01*
X213774844Y-87262644D01*
X213589944Y-87339232D01*
X213423538Y-87450421D01*
X213282021Y-87591938D01*
X213170832Y-87758344D01*
X213094244Y-87943244D01*
X213055200Y-88139533D01*
X213055200Y-88339667D01*
X213094244Y-88535956D01*
X213170832Y-88720856D01*
X213282021Y-88887262D01*
X213423538Y-89028779D01*
X213471503Y-89060828D01*
X213372738Y-89126821D01*
X213309200Y-89190359D01*
X213245662Y-89126821D01*
X213079256Y-89015632D01*
X212894356Y-88939044D01*
X212698067Y-88900000D01*
X212497933Y-88900000D01*
X212301644Y-88939044D01*
X212116744Y-89015632D01*
X211950338Y-89126821D01*
X211930029Y-89147130D01*
X211809256Y-89066432D01*
X211624356Y-88989844D01*
X211428067Y-88950800D01*
X211227933Y-88950800D01*
X211031644Y-88989844D01*
X210846744Y-89066432D01*
X210680338Y-89177621D01*
X210667600Y-89190359D01*
X210654862Y-89177621D01*
X210488456Y-89066432D01*
X210303556Y-88989844D01*
X210107267Y-88950800D01*
X209907133Y-88950800D01*
X209710844Y-88989844D01*
X209525944Y-89066432D01*
X209359538Y-89177621D01*
X209346800Y-89190359D01*
X209334062Y-89177621D01*
X209167656Y-89066432D01*
X208982756Y-88989844D01*
X208786467Y-88950800D01*
X208586333Y-88950800D01*
X208390044Y-88989844D01*
X208205144Y-89066432D01*
X208038738Y-89177621D01*
X207998081Y-89218278D01*
X207846856Y-89117232D01*
X207661956Y-89040644D01*
X207465667Y-89001600D01*
X207265533Y-89001600D01*
X207069244Y-89040644D01*
X206884344Y-89117232D01*
X206717938Y-89228421D01*
X206576421Y-89369938D01*
X206465232Y-89536344D01*
X206388644Y-89721244D01*
X206349600Y-89917533D01*
X203847700Y-89917533D01*
X203847700Y-86945733D01*
X240817400Y-86945733D01*
X240817400Y-87145867D01*
X240856444Y-87342156D01*
X240933032Y-87527056D01*
X241044221Y-87693462D01*
X241185738Y-87834979D01*
X241352144Y-87946168D01*
X241537044Y-88022756D01*
X241733333Y-88061800D01*
X241933467Y-88061800D01*
X242129756Y-88022756D01*
X242314656Y-87946168D01*
X242481062Y-87834979D01*
X242622579Y-87693462D01*
X242733768Y-87527056D01*
X242810356Y-87342156D01*
X242849400Y-87145867D01*
X242849400Y-86965533D01*
X246842800Y-86965533D01*
X246842800Y-87165667D01*
X246881844Y-87361956D01*
X246958432Y-87546856D01*
X247069621Y-87713262D01*
X247211138Y-87854779D01*
X247377544Y-87965968D01*
X247562444Y-88042556D01*
X247758733Y-88081600D01*
X247958867Y-88081600D01*
X248155156Y-88042556D01*
X248340056Y-87965968D01*
X248506462Y-87854779D01*
X248647979Y-87713262D01*
X248759168Y-87546856D01*
X248835756Y-87361956D01*
X248874800Y-87165667D01*
X248874800Y-86965533D01*
X248835756Y-86769244D01*
X248759168Y-86584344D01*
X248647979Y-86417938D01*
X248506462Y-86276421D01*
X248340056Y-86165232D01*
X248155156Y-86088644D01*
X247958867Y-86049600D01*
X247758733Y-86049600D01*
X247562444Y-86088644D01*
X247377544Y-86165232D01*
X247211138Y-86276421D01*
X247069621Y-86417938D01*
X246958432Y-86584344D01*
X246881844Y-86769244D01*
X246842800Y-86965533D01*
X242849400Y-86965533D01*
X242849400Y-86945733D01*
X242810356Y-86749444D01*
X242733768Y-86564544D01*
X242622579Y-86398138D01*
X242481062Y-86256621D01*
X242314656Y-86145432D01*
X242129756Y-86068844D01*
X241933467Y-86029800D01*
X241733333Y-86029800D01*
X241537044Y-86068844D01*
X241352144Y-86145432D01*
X241185738Y-86256621D01*
X241044221Y-86398138D01*
X240933032Y-86564544D01*
X240856444Y-86749444D01*
X240817400Y-86945733D01*
X203847700Y-86945733D01*
X203847700Y-81633675D01*
X203909371Y-81943716D01*
X204212180Y-82674763D01*
X204651792Y-83332689D01*
X205211311Y-83892208D01*
X205869237Y-84331820D01*
X206600284Y-84634629D01*
X207376360Y-84789000D01*
X208167640Y-84789000D01*
X208943716Y-84634629D01*
X209674763Y-84331820D01*
X210332689Y-83892208D01*
X210892208Y-83332689D01*
X211331820Y-82674763D01*
X211634629Y-81943716D01*
X211789000Y-81167640D01*
X211789000Y-80376360D01*
X211634629Y-79600284D01*
X211363092Y-78944733D01*
X212902800Y-78944733D01*
X212902800Y-79144867D01*
X212941844Y-79341156D01*
X213018432Y-79526056D01*
X213129621Y-79692462D01*
X213271138Y-79833979D01*
X213437544Y-79945168D01*
X213622444Y-80021756D01*
X213818733Y-80060800D01*
X214018867Y-80060800D01*
X214215156Y-80021756D01*
X214400056Y-79945168D01*
X214566462Y-79833979D01*
X214707979Y-79692462D01*
X214819168Y-79526056D01*
X214895756Y-79341156D01*
X214934800Y-79144867D01*
X214934800Y-78944733D01*
X214895756Y-78748444D01*
X214819168Y-78563544D01*
X214707979Y-78397138D01*
X214566462Y-78255621D01*
X214400056Y-78144432D01*
X214215156Y-78067844D01*
X214018867Y-78028800D01*
X213818733Y-78028800D01*
X213622444Y-78067844D01*
X213437544Y-78144432D01*
X213271138Y-78255621D01*
X213129621Y-78397138D01*
X213018432Y-78563544D01*
X212941844Y-78748444D01*
X212902800Y-78944733D01*
X211363092Y-78944733D01*
X211331820Y-78869237D01*
X210892208Y-78211311D01*
X210332689Y-77651792D01*
X209674763Y-77212180D01*
X208943716Y-76909371D01*
X208633675Y-76847700D01*
X222872301Y-76847700D01*
X222872300Y-83026191D01*
G04 #@! TA.AperFunction,Conductor*
D19*
G36*
X222872300Y-83026191D02*
G01*
X222869167Y-83058000D01*
X222881673Y-83184971D01*
X222918709Y-83307063D01*
X222978852Y-83419583D01*
X223059792Y-83518208D01*
X223158417Y-83599148D01*
X223270937Y-83659291D01*
X223393029Y-83696327D01*
X223520000Y-83708833D01*
X223551808Y-83705700D01*
X229382622Y-83705700D01*
X229354644Y-83773244D01*
X229315600Y-83969533D01*
X229315600Y-84169667D01*
X229354644Y-84365956D01*
X229431232Y-84550856D01*
X229542421Y-84717262D01*
X229613641Y-84788482D01*
X229567338Y-84819421D01*
X229425821Y-84960938D01*
X229314632Y-85127344D01*
X229238044Y-85312244D01*
X229199000Y-85508533D01*
X229199000Y-85708667D01*
X229238044Y-85904956D01*
X229314632Y-86089856D01*
X229425821Y-86256262D01*
X229567338Y-86397779D01*
X229733744Y-86508968D01*
X229918644Y-86585556D01*
X230114933Y-86624600D01*
X230315067Y-86624600D01*
X230511356Y-86585556D01*
X230696256Y-86508968D01*
X230862662Y-86397779D01*
X231004179Y-86256262D01*
X231115368Y-86089856D01*
X231191956Y-85904956D01*
X231231000Y-85708667D01*
X231231000Y-85508533D01*
X231191956Y-85312244D01*
X231115368Y-85127344D01*
X231004179Y-84960938D01*
X230932959Y-84889718D01*
X230979262Y-84858779D01*
X231120779Y-84717262D01*
X231231968Y-84550856D01*
X231308556Y-84365956D01*
X231347600Y-84169667D01*
X231347600Y-83969533D01*
X231308556Y-83773244D01*
X231280578Y-83705700D01*
X233844222Y-83705700D01*
X233816244Y-83773244D01*
X233777200Y-83969533D01*
X233777200Y-84169667D01*
X233816244Y-84365956D01*
X233892832Y-84550856D01*
X234004021Y-84717262D01*
X234071959Y-84785200D01*
X234008421Y-84848738D01*
X233897232Y-85015144D01*
X233820644Y-85200044D01*
X233781600Y-85396333D01*
X233781600Y-85596467D01*
X233820644Y-85792756D01*
X233897232Y-85977656D01*
X234008421Y-86144062D01*
X234149938Y-86285579D01*
X234316344Y-86396768D01*
X234501244Y-86473356D01*
X234697533Y-86512400D01*
X234897667Y-86512400D01*
X235093956Y-86473356D01*
X235278856Y-86396768D01*
X235445262Y-86285579D01*
X235546900Y-86183941D01*
X235623138Y-86260179D01*
X235789544Y-86371368D01*
X235974444Y-86447956D01*
X236170733Y-86487000D01*
X236370867Y-86487000D01*
X236567156Y-86447956D01*
X236752056Y-86371368D01*
X236842386Y-86311011D01*
X237008744Y-86422168D01*
X237193644Y-86498756D01*
X237389933Y-86537800D01*
X237590067Y-86537800D01*
X237786356Y-86498756D01*
X237971256Y-86422168D01*
X238137662Y-86310979D01*
X238279179Y-86169462D01*
X238390368Y-86003056D01*
X238466956Y-85818156D01*
X238506000Y-85621867D01*
X238506000Y-85421733D01*
X238466956Y-85225444D01*
X238390368Y-85040544D01*
X238334283Y-84956607D01*
X238415768Y-84834656D01*
X238492356Y-84649756D01*
X238531400Y-84453467D01*
X238531400Y-84392400D01*
X253477128Y-84392400D01*
X253477128Y-86092400D01*
X253489388Y-86216882D01*
X253525698Y-86336580D01*
X253584663Y-86446894D01*
X253664015Y-86543585D01*
X253760706Y-86622937D01*
X253871020Y-86681902D01*
X253951666Y-86706366D01*
X253867612Y-86782131D01*
X253693559Y-87015480D01*
X253568375Y-87278301D01*
X253523724Y-87425510D01*
X253645045Y-87655400D01*
X254838200Y-87655400D01*
X254838200Y-87635400D01*
X255092200Y-87635400D01*
X255092200Y-87655400D01*
X256285355Y-87655400D01*
X256406676Y-87425510D01*
X256362025Y-87278301D01*
X256236841Y-87015480D01*
X256062788Y-86782131D01*
X255978734Y-86706366D01*
X256059380Y-86681902D01*
X256169694Y-86622937D01*
X256266385Y-86543585D01*
X256345737Y-86446894D01*
X256404702Y-86336580D01*
X256441012Y-86216882D01*
X256453272Y-86092400D01*
X256453272Y-84392400D01*
X256441012Y-84267918D01*
X256404702Y-84148220D01*
X256345737Y-84037906D01*
X256266385Y-83941215D01*
X256169694Y-83861863D01*
X256059380Y-83802898D01*
X255939682Y-83766588D01*
X255815200Y-83754328D01*
X254115200Y-83754328D01*
X253990718Y-83766588D01*
X253871020Y-83802898D01*
X253760706Y-83861863D01*
X253664015Y-83941215D01*
X253584663Y-84037906D01*
X253525698Y-84148220D01*
X253489388Y-84267918D01*
X253477128Y-84392400D01*
X238531400Y-84392400D01*
X238531400Y-84253333D01*
X238492356Y-84057044D01*
X238415768Y-83872144D01*
X238304579Y-83705738D01*
X238304541Y-83705700D01*
X256654300Y-83705700D01*
X256654301Y-124868330D01*
X256592629Y-124558284D01*
X256289820Y-123827237D01*
X255850208Y-123169311D01*
X255290689Y-122609792D01*
X254632763Y-122170180D01*
X253901716Y-121867371D01*
X253125640Y-121713000D01*
X252334360Y-121713000D01*
X251558284Y-121867371D01*
X250827237Y-122170180D01*
X250169311Y-122609792D01*
X249609792Y-123169311D01*
X249170180Y-123827237D01*
X248867371Y-124558284D01*
X248713000Y-125334360D01*
X248713000Y-126125640D01*
X248867371Y-126901716D01*
X249170180Y-127632763D01*
X249609792Y-128290689D01*
X250169311Y-128850208D01*
X250827237Y-129289820D01*
X251558284Y-129592629D01*
X251868325Y-129654300D01*
X210705700Y-129654300D01*
X210705700Y-126968191D01*
X210702793Y-126938676D01*
X210702948Y-126916473D01*
X210702065Y-126907473D01*
X210629522Y-126217265D01*
X210617714Y-126159738D01*
X210606717Y-126102093D01*
X210604105Y-126093444D01*
X210604104Y-126093437D01*
X210604101Y-126093431D01*
X210398879Y-125430464D01*
X210376131Y-125376348D01*
X210354140Y-125321919D01*
X210349894Y-125313934D01*
X210019807Y-124703449D01*
X209986965Y-124654758D01*
X209954835Y-124605658D01*
X209949119Y-124598650D01*
X209506740Y-124063906D01*
X209465084Y-124022540D01*
X209424012Y-123980598D01*
X209417044Y-123974834D01*
X208879225Y-123536200D01*
X208830330Y-123503714D01*
X208781892Y-123470548D01*
X208773940Y-123466248D01*
X208773932Y-123466244D01*
X208161163Y-123140429D01*
X208106904Y-123118065D01*
X208052931Y-123094932D01*
X208044292Y-123092258D01*
X207379903Y-122891667D01*
X207322328Y-122880267D01*
X207264895Y-122868059D01*
X207255901Y-122867114D01*
X206565204Y-122799391D01*
X206565191Y-122799391D01*
X206533809Y-122796300D01*
X203847700Y-122796300D01*
X203847700Y-122073933D01*
X210439000Y-122073933D01*
X210439000Y-122274067D01*
X210478044Y-122470356D01*
X210554632Y-122655256D01*
X210665821Y-122821662D01*
X210729359Y-122885200D01*
X210691221Y-122923338D01*
X210580032Y-123089744D01*
X210503444Y-123274644D01*
X210464400Y-123470933D01*
X210464400Y-123671067D01*
X210503444Y-123867356D01*
X210580032Y-124052256D01*
X210691221Y-124218662D01*
X210711530Y-124238971D01*
X210630832Y-124359744D01*
X210554244Y-124544644D01*
X210515200Y-124740933D01*
X210515200Y-124941067D01*
X210554244Y-125137356D01*
X210630832Y-125322256D01*
X210742021Y-125488662D01*
X210883538Y-125630179D01*
X211049944Y-125741368D01*
X211234844Y-125817956D01*
X211431133Y-125857000D01*
X211631267Y-125857000D01*
X211827556Y-125817956D01*
X211901928Y-125787150D01*
X211901928Y-127544400D01*
X211914188Y-127668882D01*
X211950498Y-127788580D01*
X212009463Y-127898894D01*
X212088815Y-127995585D01*
X212185506Y-128074937D01*
X212295820Y-128133902D01*
X212415518Y-128170212D01*
X212540000Y-128182472D01*
X214340000Y-128182472D01*
X214464482Y-128170212D01*
X214584180Y-128133902D01*
X214694494Y-128074937D01*
X214791185Y-127995585D01*
X214870537Y-127898894D01*
X214929502Y-127788580D01*
X214953800Y-127708480D01*
X217555525Y-127708480D01*
X217639208Y-127962661D01*
X217911775Y-128093558D01*
X218204642Y-128168765D01*
X218506553Y-128185391D01*
X218805907Y-128142797D01*
X219091199Y-128042622D01*
X219240792Y-127962661D01*
X219324475Y-127708480D01*
X219227128Y-127611133D01*
X224866200Y-127611133D01*
X224866200Y-127811267D01*
X224905244Y-128007556D01*
X224981832Y-128192456D01*
X225093021Y-128358862D01*
X225234538Y-128500379D01*
X225400944Y-128611568D01*
X225585844Y-128688156D01*
X225782133Y-128727200D01*
X225982267Y-128727200D01*
X226178556Y-128688156D01*
X226363456Y-128611568D01*
X226529862Y-128500379D01*
X226671379Y-128358862D01*
X226782568Y-128192456D01*
X226859156Y-128007556D01*
X226898200Y-127811267D01*
X226898200Y-127611133D01*
X226859156Y-127414844D01*
X226782568Y-127229944D01*
X226671379Y-127063538D01*
X226529862Y-126922021D01*
X226363456Y-126810832D01*
X226178556Y-126734244D01*
X225982267Y-126695200D01*
X225782133Y-126695200D01*
X225585844Y-126734244D01*
X225400944Y-126810832D01*
X225234538Y-126922021D01*
X225093021Y-127063538D01*
X224981832Y-127229944D01*
X224905244Y-127414844D01*
X224866200Y-127611133D01*
X219227128Y-127611133D01*
X218440000Y-126824005D01*
X217555525Y-127708480D01*
X214953800Y-127708480D01*
X214965812Y-127668882D01*
X214978072Y-127544400D01*
X214978072Y-126710953D01*
X216899009Y-126710953D01*
X216941603Y-127010307D01*
X217041778Y-127295599D01*
X217121739Y-127445192D01*
X217375920Y-127528875D01*
X218260395Y-126644400D01*
X218619605Y-126644400D01*
X219504080Y-127528875D01*
X219758261Y-127445192D01*
X219889158Y-127172625D01*
X219964365Y-126879758D01*
X219980991Y-126577847D01*
X219938397Y-126278493D01*
X219838222Y-125993201D01*
X219758261Y-125843608D01*
X219504080Y-125759925D01*
X218619605Y-126644400D01*
X218260395Y-126644400D01*
X217375920Y-125759925D01*
X217121739Y-125843608D01*
X216990842Y-126116175D01*
X216915635Y-126409042D01*
X216899009Y-126710953D01*
X214978072Y-126710953D01*
X214978072Y-125744400D01*
X214967483Y-125636889D01*
X215078756Y-125614756D01*
X215263656Y-125538168D01*
X215430062Y-125426979D01*
X215571579Y-125285462D01*
X215682768Y-125119056D01*
X215759356Y-124934156D01*
X215798400Y-124737867D01*
X215798400Y-124537733D01*
X215778191Y-124436133D01*
X216585800Y-124436133D01*
X216585800Y-124636267D01*
X216624844Y-124832556D01*
X216701432Y-125017456D01*
X216812621Y-125183862D01*
X216954138Y-125325379D01*
X217120544Y-125436568D01*
X217305444Y-125513156D01*
X217501733Y-125552200D01*
X217564783Y-125552200D01*
X217555525Y-125580320D01*
X218440000Y-126464795D01*
X219324475Y-125580320D01*
X219240792Y-125326139D01*
X218968225Y-125195242D01*
X218675358Y-125120035D01*
X218442206Y-125107196D01*
X218502168Y-125017456D01*
X218578756Y-124832556D01*
X218617800Y-124636267D01*
X218617800Y-124436133D01*
X218578756Y-124239844D01*
X218502168Y-124054944D01*
X218390979Y-123888538D01*
X218249462Y-123747021D01*
X218083056Y-123635832D01*
X217898156Y-123559244D01*
X217701867Y-123520200D01*
X217501733Y-123520200D01*
X217305444Y-123559244D01*
X217120544Y-123635832D01*
X216954138Y-123747021D01*
X216812621Y-123888538D01*
X216701432Y-124054944D01*
X216624844Y-124239844D01*
X216585800Y-124436133D01*
X215778191Y-124436133D01*
X215759356Y-124341444D01*
X215682768Y-124156544D01*
X215571579Y-123990138D01*
X215430062Y-123848621D01*
X215263656Y-123737432D01*
X215078756Y-123660844D01*
X214882467Y-123621800D01*
X214682333Y-123621800D01*
X214486044Y-123660844D01*
X214301144Y-123737432D01*
X214134738Y-123848621D01*
X213993221Y-123990138D01*
X213882032Y-124156544D01*
X213805444Y-124341444D01*
X213766400Y-124537733D01*
X213766400Y-124737867D01*
X213805444Y-124934156D01*
X213876760Y-125106328D01*
X212540000Y-125106328D01*
X212513815Y-125108907D01*
X212547200Y-124941067D01*
X212547200Y-124740933D01*
X212508156Y-124544644D01*
X212431568Y-124359744D01*
X212320379Y-124193338D01*
X212300070Y-124173029D01*
X212380768Y-124052256D01*
X212457356Y-123867356D01*
X212496400Y-123671067D01*
X212496400Y-123470933D01*
X212457356Y-123274644D01*
X212380768Y-123089744D01*
X212269579Y-122923338D01*
X212206041Y-122859800D01*
X212244179Y-122821662D01*
X212355368Y-122655256D01*
X212427823Y-122480333D01*
X217881200Y-122480333D01*
X217881200Y-122680467D01*
X217920244Y-122876756D01*
X217996832Y-123061656D01*
X218108021Y-123228062D01*
X218249538Y-123369579D01*
X218415944Y-123480768D01*
X218600844Y-123557356D01*
X218797133Y-123596400D01*
X218997267Y-123596400D01*
X219193556Y-123557356D01*
X219378456Y-123480768D01*
X219544862Y-123369579D01*
X219686379Y-123228062D01*
X219797568Y-123061656D01*
X219874156Y-122876756D01*
X219913200Y-122680467D01*
X219913200Y-122480333D01*
X219874156Y-122284044D01*
X219797568Y-122099144D01*
X219686379Y-121932738D01*
X219544862Y-121791221D01*
X219378456Y-121680032D01*
X219193556Y-121603444D01*
X218997267Y-121564400D01*
X218797133Y-121564400D01*
X218600844Y-121603444D01*
X218415944Y-121680032D01*
X218249538Y-121791221D01*
X218108021Y-121932738D01*
X217996832Y-122099144D01*
X217920244Y-122284044D01*
X217881200Y-122480333D01*
X212427823Y-122480333D01*
X212431956Y-122470356D01*
X212471000Y-122274067D01*
X212471000Y-122073933D01*
X212431956Y-121877644D01*
X212355368Y-121692744D01*
X212272596Y-121568867D01*
X212317256Y-121550368D01*
X212483662Y-121439179D01*
X212625179Y-121297662D01*
X212736368Y-121131256D01*
X212812956Y-120946356D01*
X212852000Y-120750067D01*
X212852000Y-120549933D01*
X212846948Y-120524533D01*
X212902800Y-120524533D01*
X212902800Y-120724667D01*
X212941844Y-120920956D01*
X213018432Y-121105856D01*
X213129621Y-121272262D01*
X213271138Y-121413779D01*
X213437544Y-121524968D01*
X213622444Y-121601556D01*
X213818733Y-121640600D01*
X214018867Y-121640600D01*
X214215156Y-121601556D01*
X214400056Y-121524968D01*
X214566462Y-121413779D01*
X214707979Y-121272262D01*
X214819168Y-121105856D01*
X214895756Y-120920956D01*
X214934800Y-120724667D01*
X214934800Y-120524533D01*
X214895756Y-120328244D01*
X214819168Y-120143344D01*
X214707979Y-119976938D01*
X214566462Y-119835421D01*
X214400056Y-119724232D01*
X214215156Y-119647644D01*
X214018867Y-119608600D01*
X213818733Y-119608600D01*
X213622444Y-119647644D01*
X213437544Y-119724232D01*
X213271138Y-119835421D01*
X213129621Y-119976938D01*
X213018432Y-120143344D01*
X212941844Y-120328244D01*
X212902800Y-120524533D01*
X212846948Y-120524533D01*
X212812956Y-120353644D01*
X212736368Y-120168744D01*
X212625179Y-120002338D01*
X212483662Y-119860821D01*
X212317256Y-119749632D01*
X212132356Y-119673044D01*
X211936067Y-119634000D01*
X211735933Y-119634000D01*
X211539644Y-119673044D01*
X211354744Y-119749632D01*
X211188338Y-119860821D01*
X211046821Y-120002338D01*
X210935632Y-120168744D01*
X210859044Y-120353644D01*
X210820000Y-120549933D01*
X210820000Y-120750067D01*
X210859044Y-120946356D01*
X210935632Y-121131256D01*
X211018404Y-121255133D01*
X210973744Y-121273632D01*
X210807338Y-121384821D01*
X210665821Y-121526338D01*
X210554632Y-121692744D01*
X210478044Y-121877644D01*
X210439000Y-122073933D01*
X203847700Y-122073933D01*
X203847700Y-117578702D01*
X213501303Y-117578702D01*
X213572886Y-117822671D01*
X213828396Y-117943571D01*
X214102584Y-118012300D01*
X214384912Y-118026217D01*
X214664530Y-117984787D01*
X214930692Y-117889603D01*
X215055914Y-117822671D01*
X215127497Y-117578702D01*
X214314400Y-116765605D01*
X213501303Y-117578702D01*
X203847700Y-117578702D01*
X203847700Y-116656512D01*
X212874183Y-116656512D01*
X212915613Y-116936130D01*
X213010797Y-117202292D01*
X213077729Y-117327514D01*
X213321698Y-117399097D01*
X214134795Y-116586000D01*
X214494005Y-116586000D01*
X215307102Y-117399097D01*
X215376328Y-117378785D01*
X215376328Y-117386000D01*
X215388588Y-117510482D01*
X215424898Y-117630180D01*
X215483863Y-117740494D01*
X215563215Y-117837185D01*
X215659906Y-117916537D01*
X215770220Y-117975502D01*
X215889918Y-118011812D01*
X216014400Y-118024072D01*
X216407235Y-118024072D01*
X216395338Y-118032021D01*
X216253821Y-118173538D01*
X216142632Y-118339944D01*
X216066044Y-118524844D01*
X216027000Y-118721133D01*
X216027000Y-118921267D01*
X216066044Y-119117556D01*
X216142632Y-119302456D01*
X216253821Y-119468862D01*
X216368159Y-119583200D01*
X216228421Y-119722938D01*
X216117232Y-119889344D01*
X216040644Y-120074244D01*
X216001600Y-120270533D01*
X216001600Y-120470667D01*
X216040644Y-120666956D01*
X216117232Y-120851856D01*
X216228421Y-121018262D01*
X216369938Y-121159779D01*
X216536344Y-121270968D01*
X216721244Y-121347556D01*
X216917533Y-121386600D01*
X217117667Y-121386600D01*
X217313956Y-121347556D01*
X217498856Y-121270968D01*
X217665262Y-121159779D01*
X217806779Y-121018262D01*
X217893633Y-120888275D01*
X217920632Y-120953456D01*
X218031821Y-121119862D01*
X218173338Y-121261379D01*
X218339744Y-121372568D01*
X218524644Y-121449156D01*
X218720933Y-121488200D01*
X218921067Y-121488200D01*
X219117356Y-121449156D01*
X219302256Y-121372568D01*
X219468662Y-121261379D01*
X219610179Y-121119862D01*
X219721368Y-120953456D01*
X219785579Y-120798438D01*
X219799844Y-120870156D01*
X219876432Y-121055056D01*
X219987621Y-121221462D01*
X220129138Y-121362979D01*
X220295544Y-121474168D01*
X220470377Y-121546586D01*
X220332338Y-121638821D01*
X220190821Y-121780338D01*
X220079632Y-121946744D01*
X220003044Y-122131644D01*
X219964000Y-122327933D01*
X219964000Y-122528067D01*
X220003044Y-122724356D01*
X220079632Y-122909256D01*
X220190821Y-123075662D01*
X220332338Y-123217179D01*
X220462051Y-123303850D01*
X220455044Y-123305244D01*
X220270144Y-123381832D01*
X220103738Y-123493021D01*
X219962221Y-123634538D01*
X219851032Y-123800944D01*
X219774444Y-123985844D01*
X219735400Y-124182133D01*
X219735400Y-124382267D01*
X219774444Y-124578556D01*
X219851032Y-124763456D01*
X219962221Y-124929862D01*
X220103738Y-125071379D01*
X220270144Y-125182568D01*
X220455044Y-125259156D01*
X220651333Y-125298200D01*
X220851467Y-125298200D01*
X221047756Y-125259156D01*
X221232656Y-125182568D01*
X221399062Y-125071379D01*
X221450108Y-125020333D01*
X221640400Y-125020333D01*
X221640400Y-125220467D01*
X221679444Y-125416756D01*
X221756032Y-125601656D01*
X221867221Y-125768062D01*
X222008738Y-125909579D01*
X222175144Y-126020768D01*
X222360044Y-126097356D01*
X222556333Y-126136400D01*
X222756467Y-126136400D01*
X222952756Y-126097356D01*
X223137656Y-126020768D01*
X223304062Y-125909579D01*
X223361251Y-125852390D01*
X223355844Y-125865444D01*
X223316800Y-126061733D01*
X223316800Y-126261867D01*
X223355844Y-126458156D01*
X223432432Y-126643056D01*
X223543621Y-126809462D01*
X223685138Y-126950979D01*
X223851544Y-127062168D01*
X224036444Y-127138756D01*
X224232733Y-127177800D01*
X224432867Y-127177800D01*
X224629156Y-127138756D01*
X224814056Y-127062168D01*
X224980462Y-126950979D01*
X225121979Y-126809462D01*
X225233168Y-126643056D01*
X225309756Y-126458156D01*
X225348800Y-126261867D01*
X225348800Y-126061733D01*
X225309756Y-125865444D01*
X225270140Y-125769800D01*
X227188928Y-125769800D01*
X227188928Y-127569800D01*
X227201188Y-127694282D01*
X227237498Y-127813980D01*
X227296463Y-127924294D01*
X227375815Y-128020985D01*
X227472506Y-128100337D01*
X227582820Y-128159302D01*
X227702518Y-128195612D01*
X227827000Y-128207872D01*
X229627000Y-128207872D01*
X229751482Y-128195612D01*
X229871180Y-128159302D01*
X229981494Y-128100337D01*
X230078185Y-128020985D01*
X230157537Y-127924294D01*
X230216502Y-127813980D01*
X230252812Y-127694282D01*
X230265072Y-127569800D01*
X230265072Y-126518616D01*
X232192000Y-126518616D01*
X232192000Y-126820984D01*
X232250989Y-127117543D01*
X232366701Y-127396895D01*
X232534688Y-127648305D01*
X232748495Y-127862112D01*
X232999905Y-128030099D01*
X233279257Y-128145811D01*
X233575816Y-128204800D01*
X233878184Y-128204800D01*
X234174743Y-128145811D01*
X234454095Y-128030099D01*
X234705505Y-127862112D01*
X234919312Y-127648305D01*
X235087299Y-127396895D01*
X235203011Y-127117543D01*
X235262000Y-126820984D01*
X235262000Y-126518616D01*
X235203011Y-126222057D01*
X235087299Y-125942705D01*
X234971768Y-125769800D01*
X239431728Y-125769800D01*
X239431728Y-127569800D01*
X239443988Y-127694282D01*
X239480298Y-127813980D01*
X239539263Y-127924294D01*
X239618615Y-128020985D01*
X239715306Y-128100337D01*
X239825620Y-128159302D01*
X239945318Y-128195612D01*
X240069800Y-128207872D01*
X241869800Y-128207872D01*
X241994282Y-128195612D01*
X242113980Y-128159302D01*
X242224294Y-128100337D01*
X242320985Y-128020985D01*
X242400337Y-127924294D01*
X242459302Y-127813980D01*
X242495612Y-127694282D01*
X242507872Y-127569800D01*
X242507872Y-126518616D01*
X244434800Y-126518616D01*
X244434800Y-126820984D01*
X244493789Y-127117543D01*
X244609501Y-127396895D01*
X244777488Y-127648305D01*
X244991295Y-127862112D01*
X245242705Y-128030099D01*
X245522057Y-128145811D01*
X245818616Y-128204800D01*
X246120984Y-128204800D01*
X246417543Y-128145811D01*
X246696895Y-128030099D01*
X246948305Y-127862112D01*
X247162112Y-127648305D01*
X247330099Y-127396895D01*
X247445811Y-127117543D01*
X247504800Y-126820984D01*
X247504800Y-126518616D01*
X247445811Y-126222057D01*
X247330099Y-125942705D01*
X247162112Y-125691295D01*
X246948305Y-125477488D01*
X246696895Y-125309501D01*
X246417543Y-125193789D01*
X246120984Y-125134800D01*
X245818616Y-125134800D01*
X245522057Y-125193789D01*
X245242705Y-125309501D01*
X244991295Y-125477488D01*
X244777488Y-125691295D01*
X244609501Y-125942705D01*
X244493789Y-126222057D01*
X244434800Y-126518616D01*
X242507872Y-126518616D01*
X242507872Y-125769800D01*
X242495612Y-125645318D01*
X242459302Y-125525620D01*
X242400337Y-125415306D01*
X242320985Y-125318615D01*
X242224294Y-125239263D01*
X242113980Y-125180298D01*
X241994282Y-125143988D01*
X241869800Y-125131728D01*
X240069800Y-125131728D01*
X239945318Y-125143988D01*
X239825620Y-125180298D01*
X239715306Y-125239263D01*
X239618615Y-125318615D01*
X239539263Y-125415306D01*
X239480298Y-125525620D01*
X239443988Y-125645318D01*
X239431728Y-125769800D01*
X234971768Y-125769800D01*
X234919312Y-125691295D01*
X234705505Y-125477488D01*
X234454095Y-125309501D01*
X234174743Y-125193789D01*
X233878184Y-125134800D01*
X233575816Y-125134800D01*
X233279257Y-125193789D01*
X232999905Y-125309501D01*
X232748495Y-125477488D01*
X232534688Y-125691295D01*
X232366701Y-125942705D01*
X232250989Y-126222057D01*
X232192000Y-126518616D01*
X230265072Y-126518616D01*
X230265072Y-125769800D01*
X230252812Y-125645318D01*
X230216502Y-125525620D01*
X230157537Y-125415306D01*
X230078185Y-125318615D01*
X229981494Y-125239263D01*
X229871180Y-125180298D01*
X229751482Y-125143988D01*
X229627000Y-125131728D01*
X227827000Y-125131728D01*
X227702518Y-125143988D01*
X227582820Y-125180298D01*
X227472506Y-125239263D01*
X227375815Y-125318615D01*
X227296463Y-125415306D01*
X227237498Y-125525620D01*
X227201188Y-125645318D01*
X227188928Y-125769800D01*
X225270140Y-125769800D01*
X225233168Y-125680544D01*
X225121979Y-125514138D01*
X224980462Y-125372621D01*
X224814056Y-125261432D01*
X224629156Y-125184844D01*
X224432867Y-125145800D01*
X224232733Y-125145800D01*
X224036444Y-125184844D01*
X223851544Y-125261432D01*
X223685138Y-125372621D01*
X223627949Y-125429810D01*
X223633356Y-125416756D01*
X223672400Y-125220467D01*
X223672400Y-125020333D01*
X223633356Y-124824044D01*
X223556768Y-124639144D01*
X223493081Y-124543829D01*
X223503044Y-124547956D01*
X223699333Y-124587000D01*
X223899467Y-124587000D01*
X224095756Y-124547956D01*
X224181757Y-124512333D01*
X224866200Y-124512333D01*
X224866200Y-124712467D01*
X224905244Y-124908756D01*
X224981832Y-125093656D01*
X225093021Y-125260062D01*
X225234538Y-125401579D01*
X225400944Y-125512768D01*
X225585844Y-125589356D01*
X225782133Y-125628400D01*
X225982267Y-125628400D01*
X226178556Y-125589356D01*
X226363456Y-125512768D01*
X226529862Y-125401579D01*
X226671379Y-125260062D01*
X226782568Y-125093656D01*
X226859156Y-124908756D01*
X226898200Y-124712467D01*
X226898200Y-124512333D01*
X226859156Y-124316044D01*
X226782568Y-124131144D01*
X226671379Y-123964738D01*
X226529862Y-123823221D01*
X226363456Y-123712032D01*
X226178556Y-123635444D01*
X225982267Y-123596400D01*
X225782133Y-123596400D01*
X225585844Y-123635444D01*
X225400944Y-123712032D01*
X225234538Y-123823221D01*
X225093021Y-123964738D01*
X224981832Y-124131144D01*
X224905244Y-124316044D01*
X224866200Y-124512333D01*
X224181757Y-124512333D01*
X224280656Y-124471368D01*
X224447062Y-124360179D01*
X224588579Y-124218662D01*
X224699768Y-124052256D01*
X224776356Y-123867356D01*
X224815400Y-123671067D01*
X224815400Y-123470933D01*
X224776356Y-123274644D01*
X224699768Y-123089744D01*
X224588579Y-122923338D01*
X224447062Y-122781821D01*
X224280656Y-122670632D01*
X224095756Y-122594044D01*
X223899467Y-122555000D01*
X223699333Y-122555000D01*
X223503044Y-122594044D01*
X223318144Y-122670632D01*
X223151738Y-122781821D01*
X223010221Y-122923338D01*
X222899032Y-123089744D01*
X222822444Y-123274644D01*
X222783400Y-123470933D01*
X222783400Y-123671067D01*
X222822444Y-123867356D01*
X222899032Y-124052256D01*
X222962719Y-124147571D01*
X222952756Y-124143444D01*
X222756467Y-124104400D01*
X222556333Y-124104400D01*
X222360044Y-124143444D01*
X222175144Y-124220032D01*
X222008738Y-124331221D01*
X221867221Y-124472738D01*
X221756032Y-124639144D01*
X221679444Y-124824044D01*
X221640400Y-125020333D01*
X221450108Y-125020333D01*
X221540579Y-124929862D01*
X221651768Y-124763456D01*
X221728356Y-124578556D01*
X221767400Y-124382267D01*
X221767400Y-124182133D01*
X221728356Y-123985844D01*
X221651768Y-123800944D01*
X221540579Y-123634538D01*
X221399062Y-123493021D01*
X221269349Y-123406350D01*
X221276356Y-123404956D01*
X221461256Y-123328368D01*
X221627662Y-123217179D01*
X221769179Y-123075662D01*
X221880368Y-122909256D01*
X221956956Y-122724356D01*
X221996000Y-122528067D01*
X221996000Y-122327933D01*
X221956956Y-122131644D01*
X221880368Y-121946744D01*
X221769179Y-121780338D01*
X221627662Y-121638821D01*
X221461256Y-121527632D01*
X221431081Y-121515133D01*
X221996000Y-121515133D01*
X221996000Y-121715267D01*
X222035044Y-121911556D01*
X222111632Y-122096456D01*
X222222821Y-122262862D01*
X222364338Y-122404379D01*
X222530744Y-122515568D01*
X222715644Y-122592156D01*
X222911933Y-122631200D01*
X223112067Y-122631200D01*
X223308356Y-122592156D01*
X223493256Y-122515568D01*
X223659662Y-122404379D01*
X223710708Y-122353333D01*
X224764600Y-122353333D01*
X224764600Y-122553467D01*
X224803644Y-122749756D01*
X224880232Y-122934656D01*
X224991421Y-123101062D01*
X225132938Y-123242579D01*
X225299344Y-123353768D01*
X225484244Y-123430356D01*
X225680533Y-123469400D01*
X225880667Y-123469400D01*
X226076956Y-123430356D01*
X226261856Y-123353768D01*
X226428262Y-123242579D01*
X226569779Y-123101062D01*
X226680968Y-122934656D01*
X226757556Y-122749756D01*
X226796600Y-122553467D01*
X226796600Y-122353333D01*
X226757556Y-122157044D01*
X226680968Y-121972144D01*
X226569779Y-121805738D01*
X226428262Y-121664221D01*
X226261856Y-121553032D01*
X226076956Y-121476444D01*
X225880667Y-121437400D01*
X225680533Y-121437400D01*
X225484244Y-121476444D01*
X225299344Y-121553032D01*
X225132938Y-121664221D01*
X224991421Y-121805738D01*
X224880232Y-121972144D01*
X224803644Y-122157044D01*
X224764600Y-122353333D01*
X223710708Y-122353333D01*
X223801179Y-122262862D01*
X223912368Y-122096456D01*
X223988956Y-121911556D01*
X224028000Y-121715267D01*
X224028000Y-121515133D01*
X223988956Y-121318844D01*
X223912368Y-121133944D01*
X223801179Y-120967538D01*
X223659662Y-120826021D01*
X223493256Y-120714832D01*
X223308356Y-120638244D01*
X223112067Y-120599200D01*
X222911933Y-120599200D01*
X222715644Y-120638244D01*
X222530744Y-120714832D01*
X222364338Y-120826021D01*
X222222821Y-120967538D01*
X222111632Y-121133944D01*
X222035044Y-121318844D01*
X221996000Y-121515133D01*
X221431081Y-121515133D01*
X221286423Y-121455214D01*
X221424462Y-121362979D01*
X221565979Y-121221462D01*
X221677168Y-121055056D01*
X221753756Y-120870156D01*
X221792800Y-120673867D01*
X221792800Y-120473733D01*
X221753756Y-120277444D01*
X221677168Y-120092544D01*
X221565979Y-119926138D01*
X221424462Y-119784621D01*
X221258056Y-119673432D01*
X221200662Y-119649659D01*
X221297462Y-119584979D01*
X221438979Y-119443462D01*
X221497330Y-119356133D01*
X221996000Y-119356133D01*
X221996000Y-119556267D01*
X222035044Y-119752556D01*
X222111632Y-119937456D01*
X222222821Y-120103862D01*
X222364338Y-120245379D01*
X222530744Y-120356568D01*
X222715644Y-120433156D01*
X222911933Y-120472200D01*
X223112067Y-120472200D01*
X223308356Y-120433156D01*
X223493256Y-120356568D01*
X223659662Y-120245379D01*
X223801179Y-120103862D01*
X223912368Y-119937456D01*
X223942739Y-119864133D01*
X224790000Y-119864133D01*
X224790000Y-120064267D01*
X224829044Y-120260556D01*
X224905632Y-120445456D01*
X225016821Y-120611862D01*
X225158338Y-120753379D01*
X225324744Y-120864568D01*
X225509644Y-120941156D01*
X225705933Y-120980200D01*
X225906067Y-120980200D01*
X226102356Y-120941156D01*
X226287256Y-120864568D01*
X226453662Y-120753379D01*
X226595179Y-120611862D01*
X226706368Y-120445456D01*
X226782956Y-120260556D01*
X226822000Y-120064267D01*
X226822000Y-119864133D01*
X226801791Y-119762533D01*
X227711000Y-119762533D01*
X227711000Y-119962667D01*
X227750044Y-120158956D01*
X227826632Y-120343856D01*
X227937821Y-120510262D01*
X228079338Y-120651779D01*
X228245744Y-120762968D01*
X228430644Y-120839556D01*
X228626933Y-120878600D01*
X228827067Y-120878600D01*
X229023356Y-120839556D01*
X229208256Y-120762968D01*
X229374662Y-120651779D01*
X229516179Y-120510262D01*
X229627368Y-120343856D01*
X229703956Y-120158956D01*
X229743000Y-119962667D01*
X229743000Y-119762533D01*
X229703956Y-119566244D01*
X229627368Y-119381344D01*
X229516179Y-119214938D01*
X229374662Y-119073421D01*
X229208256Y-118962232D01*
X229023356Y-118885644D01*
X228827067Y-118846600D01*
X228626933Y-118846600D01*
X228430644Y-118885644D01*
X228245744Y-118962232D01*
X228079338Y-119073421D01*
X227937821Y-119214938D01*
X227826632Y-119381344D01*
X227750044Y-119566244D01*
X227711000Y-119762533D01*
X226801791Y-119762533D01*
X226782956Y-119667844D01*
X226706368Y-119482944D01*
X226595179Y-119316538D01*
X226453662Y-119175021D01*
X226287256Y-119063832D01*
X226102356Y-118987244D01*
X225906067Y-118948200D01*
X225705933Y-118948200D01*
X225509644Y-118987244D01*
X225324744Y-119063832D01*
X225158338Y-119175021D01*
X225016821Y-119316538D01*
X224905632Y-119482944D01*
X224829044Y-119667844D01*
X224790000Y-119864133D01*
X223942739Y-119864133D01*
X223988956Y-119752556D01*
X224028000Y-119556267D01*
X224028000Y-119356133D01*
X223988956Y-119159844D01*
X223912368Y-118974944D01*
X223801179Y-118808538D01*
X223659662Y-118667021D01*
X223493256Y-118555832D01*
X223308356Y-118479244D01*
X223112067Y-118440200D01*
X222911933Y-118440200D01*
X222715644Y-118479244D01*
X222530744Y-118555832D01*
X222364338Y-118667021D01*
X222222821Y-118808538D01*
X222111632Y-118974944D01*
X222035044Y-119159844D01*
X221996000Y-119356133D01*
X221497330Y-119356133D01*
X221550168Y-119277056D01*
X221626756Y-119092156D01*
X221665800Y-118895867D01*
X221665800Y-118695733D01*
X221626756Y-118499444D01*
X221550168Y-118314544D01*
X221438979Y-118148138D01*
X221297462Y-118006621D01*
X221169621Y-117921200D01*
X252055528Y-117921200D01*
X252055528Y-119721200D01*
X252067788Y-119845682D01*
X252104098Y-119965380D01*
X252163063Y-120075694D01*
X252242415Y-120172385D01*
X252339106Y-120251737D01*
X252449420Y-120310702D01*
X252569118Y-120347012D01*
X252693600Y-120359272D01*
X254493600Y-120359272D01*
X254618082Y-120347012D01*
X254737780Y-120310702D01*
X254848094Y-120251737D01*
X254944785Y-120172385D01*
X255024137Y-120075694D01*
X255083102Y-119965380D01*
X255119412Y-119845682D01*
X255131672Y-119721200D01*
X255131672Y-117921200D01*
X255119412Y-117796718D01*
X255083102Y-117677020D01*
X255024137Y-117566706D01*
X254944785Y-117470015D01*
X254848094Y-117390663D01*
X254737780Y-117331698D01*
X254618082Y-117295388D01*
X254493600Y-117283128D01*
X252693600Y-117283128D01*
X252569118Y-117295388D01*
X252449420Y-117331698D01*
X252339106Y-117390663D01*
X252242415Y-117470015D01*
X252163063Y-117566706D01*
X252104098Y-117677020D01*
X252067788Y-117796718D01*
X252055528Y-117921200D01*
X221169621Y-117921200D01*
X221131056Y-117895432D01*
X220946156Y-117818844D01*
X220749867Y-117779800D01*
X220549733Y-117779800D01*
X220353444Y-117818844D01*
X220168544Y-117895432D01*
X220002138Y-118006621D01*
X219860621Y-118148138D01*
X219749432Y-118314544D01*
X219748100Y-118317760D01*
X219746768Y-118314544D01*
X219635579Y-118148138D01*
X219494062Y-118006621D01*
X219327656Y-117895432D01*
X219142756Y-117818844D01*
X218946467Y-117779800D01*
X218746333Y-117779800D01*
X218550044Y-117818844D01*
X218365144Y-117895432D01*
X218198738Y-118006621D01*
X218057221Y-118148138D01*
X217946032Y-118314544D01*
X217938518Y-118332685D01*
X217832179Y-118173538D01*
X217690662Y-118032021D01*
X217670497Y-118018547D01*
X217738882Y-118011812D01*
X217858580Y-117975502D01*
X217968894Y-117916537D01*
X218065585Y-117837185D01*
X218144937Y-117740494D01*
X218203902Y-117630180D01*
X218240212Y-117510482D01*
X218252472Y-117386000D01*
X218252472Y-115786000D01*
X218240212Y-115661518D01*
X218203902Y-115541820D01*
X218144937Y-115431506D01*
X218065585Y-115334815D01*
X218025727Y-115302104D01*
X218152156Y-115276956D01*
X218337056Y-115200368D01*
X218503462Y-115089179D01*
X218644979Y-114947662D01*
X218668600Y-114912311D01*
X218668600Y-114984267D01*
X218707644Y-115180556D01*
X218784232Y-115365456D01*
X218895421Y-115531862D01*
X219036938Y-115673379D01*
X219203344Y-115784568D01*
X219237165Y-115798577D01*
X219087738Y-115898421D01*
X218946221Y-116039938D01*
X218835032Y-116206344D01*
X218758444Y-116391244D01*
X218719400Y-116587533D01*
X218719400Y-116787667D01*
X218758444Y-116983956D01*
X218835032Y-117168856D01*
X218946221Y-117335262D01*
X219087738Y-117476779D01*
X219254144Y-117587968D01*
X219439044Y-117664556D01*
X219635333Y-117703600D01*
X219835467Y-117703600D01*
X220031756Y-117664556D01*
X220216656Y-117587968D01*
X220383062Y-117476779D01*
X220524579Y-117335262D01*
X220635768Y-117168856D01*
X220712356Y-116983956D01*
X220751400Y-116787667D01*
X220751400Y-116587533D01*
X220712356Y-116391244D01*
X220635768Y-116206344D01*
X220524579Y-116039938D01*
X220383062Y-115898421D01*
X220216656Y-115787232D01*
X220182835Y-115773223D01*
X220332262Y-115673379D01*
X220473779Y-115531862D01*
X220584968Y-115365456D01*
X220661556Y-115180556D01*
X220700600Y-114984267D01*
X220700600Y-114784133D01*
X220661556Y-114587844D01*
X220584968Y-114402944D01*
X220473779Y-114236538D01*
X220386374Y-114149133D01*
X220903800Y-114149133D01*
X220903800Y-114349267D01*
X220942844Y-114545556D01*
X221019432Y-114730456D01*
X221130621Y-114896862D01*
X221272138Y-115038379D01*
X221438544Y-115149568D01*
X221503337Y-115176406D01*
X221496015Y-115182415D01*
X221416663Y-115279106D01*
X221357698Y-115389420D01*
X221321388Y-115509118D01*
X221309128Y-115633600D01*
X221309128Y-117233600D01*
X221321388Y-117358082D01*
X221357698Y-117477780D01*
X221416663Y-117588094D01*
X221496015Y-117684785D01*
X221592706Y-117764137D01*
X221703020Y-117823102D01*
X221822718Y-117859412D01*
X221947200Y-117871672D01*
X223547200Y-117871672D01*
X223671682Y-117859412D01*
X223791380Y-117823102D01*
X223901694Y-117764137D01*
X223998385Y-117684785D01*
X224077737Y-117588094D01*
X224136702Y-117477780D01*
X224152317Y-117426302D01*
X224434103Y-117426302D01*
X224505686Y-117670271D01*
X224761196Y-117791171D01*
X225035384Y-117859900D01*
X225317712Y-117873817D01*
X225597330Y-117832387D01*
X225863492Y-117737203D01*
X225988714Y-117670271D01*
X226060297Y-117426302D01*
X225247200Y-116613205D01*
X224434103Y-117426302D01*
X224152317Y-117426302D01*
X224173012Y-117358082D01*
X224185272Y-117233600D01*
X224185272Y-117226385D01*
X224254498Y-117246697D01*
X225067595Y-116433600D01*
X225426805Y-116433600D01*
X226239902Y-117246697D01*
X226483871Y-117175114D01*
X226604771Y-116919604D01*
X226673500Y-116645416D01*
X226687417Y-116363088D01*
X226645987Y-116083470D01*
X226550803Y-115817308D01*
X226483871Y-115692086D01*
X226239902Y-115620503D01*
X225426805Y-116433600D01*
X225067595Y-116433600D01*
X224254498Y-115620503D01*
X224185272Y-115640815D01*
X224185272Y-115633600D01*
X224173012Y-115509118D01*
X224152318Y-115440898D01*
X224434103Y-115440898D01*
X225247200Y-116253995D01*
X226060297Y-115440898D01*
X225988714Y-115196929D01*
X225733204Y-115076029D01*
X225459016Y-115007300D01*
X225176688Y-114993383D01*
X224897070Y-115034813D01*
X224630908Y-115129997D01*
X224505686Y-115196929D01*
X224434103Y-115440898D01*
X224152318Y-115440898D01*
X224136702Y-115389420D01*
X224077737Y-115279106D01*
X223998385Y-115182415D01*
X223901694Y-115103063D01*
X223791380Y-115044098D01*
X223671682Y-115007788D01*
X223547200Y-114995528D01*
X222610313Y-114995528D01*
X222708979Y-114896862D01*
X222820168Y-114730456D01*
X222896756Y-114545556D01*
X222935800Y-114349267D01*
X222935800Y-114149133D01*
X222896756Y-113952844D01*
X222820168Y-113767944D01*
X222754735Y-113670016D01*
X252058600Y-113670016D01*
X252058600Y-113972384D01*
X252117589Y-114268943D01*
X252233301Y-114548295D01*
X252401288Y-114799705D01*
X252615095Y-115013512D01*
X252866505Y-115181499D01*
X253145857Y-115297211D01*
X253442416Y-115356200D01*
X253744784Y-115356200D01*
X254041343Y-115297211D01*
X254320695Y-115181499D01*
X254572105Y-115013512D01*
X254785912Y-114799705D01*
X254953899Y-114548295D01*
X255069611Y-114268943D01*
X255128600Y-113972384D01*
X255128600Y-113670016D01*
X255069611Y-113373457D01*
X254953899Y-113094105D01*
X254785912Y-112842695D01*
X254572105Y-112628888D01*
X254320695Y-112460901D01*
X254041343Y-112345189D01*
X253744784Y-112286200D01*
X253442416Y-112286200D01*
X253145857Y-112345189D01*
X252866505Y-112460901D01*
X252615095Y-112628888D01*
X252401288Y-112842695D01*
X252233301Y-113094105D01*
X252117589Y-113373457D01*
X252058600Y-113670016D01*
X222754735Y-113670016D01*
X222708979Y-113601538D01*
X222567462Y-113460021D01*
X222401056Y-113348832D01*
X222216156Y-113272244D01*
X222019867Y-113233200D01*
X221819733Y-113233200D01*
X221623444Y-113272244D01*
X221438544Y-113348832D01*
X221272138Y-113460021D01*
X221130621Y-113601538D01*
X221019432Y-113767944D01*
X220942844Y-113952844D01*
X220903800Y-114149133D01*
X220386374Y-114149133D01*
X220332262Y-114095021D01*
X220165856Y-113983832D01*
X219980956Y-113907244D01*
X219784667Y-113868200D01*
X219584533Y-113868200D01*
X219388244Y-113907244D01*
X219203344Y-113983832D01*
X219036938Y-114095021D01*
X218895421Y-114236538D01*
X218871800Y-114271889D01*
X218871800Y-114199933D01*
X218832756Y-114003644D01*
X218756168Y-113818744D01*
X218644979Y-113652338D01*
X218503462Y-113510821D01*
X218337056Y-113399632D01*
X218152156Y-113323044D01*
X217955867Y-113284000D01*
X217755733Y-113284000D01*
X217559444Y-113323044D01*
X217374544Y-113399632D01*
X217208138Y-113510821D01*
X217066621Y-113652338D01*
X216955432Y-113818744D01*
X216878844Y-114003644D01*
X216839800Y-114199933D01*
X216839800Y-114400067D01*
X216878844Y-114596356D01*
X216955432Y-114781256D01*
X217066621Y-114947662D01*
X217208138Y-115089179D01*
X217296062Y-115147928D01*
X216014400Y-115147928D01*
X215889918Y-115160188D01*
X215770220Y-115196498D01*
X215659906Y-115255463D01*
X215563215Y-115334815D01*
X215483863Y-115431506D01*
X215424898Y-115541820D01*
X215388588Y-115661518D01*
X215376328Y-115786000D01*
X215376328Y-115793215D01*
X215307102Y-115772903D01*
X214494005Y-116586000D01*
X214134795Y-116586000D01*
X213321698Y-115772903D01*
X213077729Y-115844486D01*
X212956829Y-116099996D01*
X212888100Y-116374184D01*
X212874183Y-116656512D01*
X203847700Y-116656512D01*
X203847700Y-115593298D01*
X213501303Y-115593298D01*
X214314400Y-116406395D01*
X215127497Y-115593298D01*
X215055914Y-115349329D01*
X214800404Y-115228429D01*
X214526216Y-115159700D01*
X214243888Y-115145783D01*
X213964270Y-115187213D01*
X213698108Y-115282397D01*
X213572886Y-115349329D01*
X213501303Y-115593298D01*
X203847700Y-115593298D01*
X203847700Y-112355133D01*
X211718400Y-112355133D01*
X211718400Y-112555267D01*
X211757444Y-112751556D01*
X211834032Y-112936456D01*
X211945221Y-113102862D01*
X212086738Y-113244379D01*
X212253144Y-113355568D01*
X212438044Y-113432156D01*
X212634333Y-113471200D01*
X212834467Y-113471200D01*
X213030756Y-113432156D01*
X213215656Y-113355568D01*
X213382062Y-113244379D01*
X213523579Y-113102862D01*
X213634768Y-112936456D01*
X213711356Y-112751556D01*
X213750400Y-112555267D01*
X213750400Y-112355133D01*
X213711356Y-112158844D01*
X213634768Y-111973944D01*
X213523579Y-111807538D01*
X213382062Y-111666021D01*
X213215656Y-111554832D01*
X213030756Y-111478244D01*
X212834467Y-111439200D01*
X212634333Y-111439200D01*
X212438044Y-111478244D01*
X212253144Y-111554832D01*
X212086738Y-111666021D01*
X211945221Y-111807538D01*
X211834032Y-111973944D01*
X211757444Y-112158844D01*
X211718400Y-112355133D01*
X203847700Y-112355133D01*
X203847700Y-104751133D01*
X209143600Y-104751133D01*
X209143600Y-104951267D01*
X209182644Y-105147556D01*
X209259232Y-105332456D01*
X209370421Y-105498862D01*
X209511938Y-105640379D01*
X209678344Y-105751568D01*
X209863244Y-105828156D01*
X210059533Y-105867200D01*
X210259667Y-105867200D01*
X210455956Y-105828156D01*
X210640856Y-105751568D01*
X210807262Y-105640379D01*
X210820000Y-105627641D01*
X210832738Y-105640379D01*
X210999144Y-105751568D01*
X211184044Y-105828156D01*
X211380333Y-105867200D01*
X211580467Y-105867200D01*
X211776756Y-105828156D01*
X211961656Y-105751568D01*
X212128062Y-105640379D01*
X212140800Y-105627641D01*
X212140800Y-105662467D01*
X212179844Y-105858756D01*
X212256432Y-106043656D01*
X212367621Y-106210062D01*
X212481959Y-106324400D01*
X212367621Y-106438738D01*
X212256432Y-106605144D01*
X212179844Y-106790044D01*
X212140800Y-106986333D01*
X212140800Y-107186467D01*
X212179844Y-107382756D01*
X212256432Y-107567656D01*
X212367621Y-107734062D01*
X212509138Y-107875579D01*
X212675544Y-107986768D01*
X212860444Y-108063356D01*
X213056733Y-108102400D01*
X213256867Y-108102400D01*
X213453156Y-108063356D01*
X213638056Y-107986768D01*
X213804462Y-107875579D01*
X213945979Y-107734062D01*
X214057168Y-107567656D01*
X214133756Y-107382756D01*
X214134264Y-107380200D01*
X252080928Y-107380200D01*
X252080928Y-109180200D01*
X252093188Y-109304682D01*
X252129498Y-109424380D01*
X252188463Y-109534694D01*
X252267815Y-109631385D01*
X252364506Y-109710737D01*
X252474820Y-109769702D01*
X252594518Y-109806012D01*
X252719000Y-109818272D01*
X254519000Y-109818272D01*
X254643482Y-109806012D01*
X254763180Y-109769702D01*
X254873494Y-109710737D01*
X254970185Y-109631385D01*
X255049537Y-109534694D01*
X255108502Y-109424380D01*
X255144812Y-109304682D01*
X255157072Y-109180200D01*
X255157072Y-107380200D01*
X255144812Y-107255718D01*
X255108502Y-107136020D01*
X255049537Y-107025706D01*
X254970185Y-106929015D01*
X254873494Y-106849663D01*
X254763180Y-106790698D01*
X254643482Y-106754388D01*
X254519000Y-106742128D01*
X252719000Y-106742128D01*
X252594518Y-106754388D01*
X252474820Y-106790698D01*
X252364506Y-106849663D01*
X252267815Y-106929015D01*
X252188463Y-107025706D01*
X252129498Y-107136020D01*
X252093188Y-107255718D01*
X252080928Y-107380200D01*
X214134264Y-107380200D01*
X214172800Y-107186467D01*
X214172800Y-106986333D01*
X214133756Y-106790044D01*
X214057168Y-106605144D01*
X213945979Y-106438738D01*
X213831641Y-106324400D01*
X213945979Y-106210062D01*
X214057168Y-106043656D01*
X214133756Y-105858756D01*
X214172800Y-105662467D01*
X214172800Y-105462333D01*
X214133756Y-105266044D01*
X214057168Y-105081144D01*
X213945979Y-104914738D01*
X213882441Y-104851200D01*
X213945979Y-104787662D01*
X214057168Y-104621256D01*
X214133756Y-104436356D01*
X214172800Y-104240067D01*
X214172800Y-104039933D01*
X214133756Y-103843644D01*
X214057168Y-103658744D01*
X213945979Y-103492338D01*
X213804462Y-103350821D01*
X213638056Y-103239632D01*
X213453156Y-103163044D01*
X213282085Y-103129016D01*
X252084000Y-103129016D01*
X252084000Y-103431384D01*
X252142989Y-103727943D01*
X252258701Y-104007295D01*
X252426688Y-104258705D01*
X252640495Y-104472512D01*
X252891905Y-104640499D01*
X253171257Y-104756211D01*
X253467816Y-104815200D01*
X253770184Y-104815200D01*
X254066743Y-104756211D01*
X254346095Y-104640499D01*
X254597505Y-104472512D01*
X254811312Y-104258705D01*
X254979299Y-104007295D01*
X255095011Y-103727943D01*
X255154000Y-103431384D01*
X255154000Y-103129016D01*
X255095011Y-102832457D01*
X254979299Y-102553105D01*
X254811312Y-102301695D01*
X254597505Y-102087888D01*
X254346095Y-101919901D01*
X254066743Y-101804189D01*
X253770184Y-101745200D01*
X253467816Y-101745200D01*
X253171257Y-101804189D01*
X252891905Y-101919901D01*
X252640495Y-102087888D01*
X252426688Y-102301695D01*
X252258701Y-102553105D01*
X252142989Y-102832457D01*
X252084000Y-103129016D01*
X213282085Y-103129016D01*
X213256867Y-103124000D01*
X213056733Y-103124000D01*
X212860444Y-103163044D01*
X212675544Y-103239632D01*
X212509138Y-103350821D01*
X212496400Y-103363559D01*
X212496400Y-103328733D01*
X212457356Y-103132444D01*
X212380768Y-102947544D01*
X212269579Y-102781138D01*
X212128062Y-102639621D01*
X211961656Y-102528432D01*
X211776756Y-102451844D01*
X211580467Y-102412800D01*
X211380333Y-102412800D01*
X211184044Y-102451844D01*
X210999144Y-102528432D01*
X210845400Y-102631161D01*
X210691656Y-102528432D01*
X210506756Y-102451844D01*
X210310467Y-102412800D01*
X210110333Y-102412800D01*
X209914044Y-102451844D01*
X209729144Y-102528432D01*
X209562738Y-102639621D01*
X209421221Y-102781138D01*
X209310032Y-102947544D01*
X209233444Y-103132444D01*
X209194400Y-103328733D01*
X209194400Y-103528867D01*
X209233444Y-103725156D01*
X209310032Y-103910056D01*
X209421221Y-104076462D01*
X209459359Y-104114600D01*
X209370421Y-104203538D01*
X209259232Y-104369944D01*
X209182644Y-104554844D01*
X209143600Y-104751133D01*
X203847700Y-104751133D01*
X203847700Y-95505291D01*
X220224319Y-95505291D01*
X220321643Y-95779652D01*
X220470622Y-96029755D01*
X220665531Y-96245988D01*
X220898880Y-96420041D01*
X221161701Y-96545225D01*
X221308910Y-96589876D01*
X221538800Y-96468555D01*
X221538800Y-95275400D01*
X220344986Y-95275400D01*
X220224319Y-95505291D01*
X203847700Y-95505291D01*
X203847700Y-94791509D01*
X220224319Y-94791509D01*
X220344986Y-95021400D01*
X221538800Y-95021400D01*
X221538800Y-93828245D01*
X221792800Y-93828245D01*
X221792800Y-95021400D01*
X221812800Y-95021400D01*
X221812800Y-95275400D01*
X221792800Y-95275400D01*
X221792800Y-96468555D01*
X222022690Y-96589876D01*
X222169899Y-96545225D01*
X222432720Y-96420041D01*
X222666069Y-96245988D01*
X222741834Y-96161934D01*
X222766298Y-96242580D01*
X222825263Y-96352894D01*
X222904615Y-96449585D01*
X223001306Y-96528937D01*
X223111620Y-96587902D01*
X223231318Y-96624212D01*
X223355800Y-96636472D01*
X225055800Y-96636472D01*
X225180282Y-96624212D01*
X225299980Y-96587902D01*
X225410294Y-96528937D01*
X225506985Y-96449585D01*
X225540100Y-96409234D01*
X225540244Y-96409956D01*
X225616832Y-96594856D01*
X225728021Y-96761262D01*
X225869538Y-96902779D01*
X226035944Y-97013968D01*
X226220844Y-97090556D01*
X226417133Y-97129600D01*
X226617267Y-97129600D01*
X226813556Y-97090556D01*
X226998456Y-97013968D01*
X227164862Y-96902779D01*
X227306379Y-96761262D01*
X227417568Y-96594856D01*
X227494156Y-96409956D01*
X227533200Y-96213667D01*
X227533200Y-96013533D01*
X227494156Y-95817244D01*
X227417568Y-95632344D01*
X227306379Y-95465938D01*
X227164862Y-95324421D01*
X226998456Y-95213232D01*
X226813556Y-95136644D01*
X226617267Y-95097600D01*
X226417133Y-95097600D01*
X226220844Y-95136644D01*
X226035944Y-95213232D01*
X225869538Y-95324421D01*
X225728021Y-95465938D01*
X225693872Y-95517046D01*
X225693872Y-94465533D01*
X226947600Y-94465533D01*
X226947600Y-94665667D01*
X226986644Y-94861956D01*
X227063232Y-95046856D01*
X227174421Y-95213262D01*
X227315938Y-95354779D01*
X227482344Y-95465968D01*
X227667244Y-95542556D01*
X227863533Y-95581600D01*
X228063667Y-95581600D01*
X228259956Y-95542556D01*
X228444856Y-95465968D01*
X228611262Y-95354779D01*
X228752779Y-95213262D01*
X228863968Y-95046856D01*
X228940556Y-94861956D01*
X228979600Y-94665667D01*
X228979600Y-94465533D01*
X228940556Y-94269244D01*
X228863968Y-94084344D01*
X228752779Y-93917938D01*
X228611262Y-93776421D01*
X228444856Y-93665232D01*
X228259956Y-93588644D01*
X228063667Y-93549600D01*
X227863533Y-93549600D01*
X227667244Y-93588644D01*
X227482344Y-93665232D01*
X227315938Y-93776421D01*
X227174421Y-93917938D01*
X227063232Y-94084344D01*
X226986644Y-94269244D01*
X226947600Y-94465533D01*
X225693872Y-94465533D01*
X225693872Y-94298400D01*
X225681612Y-94173918D01*
X225645302Y-94054220D01*
X225586337Y-93943906D01*
X225521240Y-93864585D01*
X225671133Y-93894400D01*
X225871267Y-93894400D01*
X226067556Y-93855356D01*
X226252456Y-93778768D01*
X226418862Y-93667579D01*
X226560379Y-93526062D01*
X226671568Y-93359656D01*
X226748156Y-93174756D01*
X226787200Y-92978467D01*
X226787200Y-92965533D01*
X228879400Y-92965533D01*
X228879400Y-93165667D01*
X228918444Y-93361956D01*
X228995032Y-93546856D01*
X229106221Y-93713262D01*
X229247738Y-93854779D01*
X229414144Y-93965968D01*
X229599044Y-94042556D01*
X229795333Y-94081600D01*
X229995467Y-94081600D01*
X230191756Y-94042556D01*
X230376656Y-93965968D01*
X230543062Y-93854779D01*
X230684579Y-93713262D01*
X230795768Y-93546856D01*
X230872356Y-93361956D01*
X230911400Y-93165667D01*
X230911400Y-93041733D01*
X239318800Y-93041733D01*
X239318800Y-93241867D01*
X239357844Y-93438156D01*
X239434432Y-93623056D01*
X239545621Y-93789462D01*
X239687138Y-93930979D01*
X239853544Y-94042168D01*
X240038444Y-94118756D01*
X240234733Y-94157800D01*
X240434867Y-94157800D01*
X240631156Y-94118756D01*
X240816056Y-94042168D01*
X240982462Y-93930979D01*
X241123979Y-93789462D01*
X241235168Y-93623056D01*
X241311756Y-93438156D01*
X241350800Y-93241867D01*
X241350800Y-93041733D01*
X241311756Y-92845444D01*
X241235168Y-92660544D01*
X241123979Y-92494138D01*
X240982462Y-92352621D01*
X240816056Y-92241432D01*
X240631156Y-92164844D01*
X240434867Y-92125800D01*
X240234733Y-92125800D01*
X240038444Y-92164844D01*
X239853544Y-92241432D01*
X239687138Y-92352621D01*
X239545621Y-92494138D01*
X239434432Y-92660544D01*
X239357844Y-92845444D01*
X239318800Y-93041733D01*
X230911400Y-93041733D01*
X230911400Y-92965533D01*
X230872356Y-92769244D01*
X230795768Y-92584344D01*
X230684579Y-92417938D01*
X230543062Y-92276421D01*
X230376656Y-92165232D01*
X230191756Y-92088644D01*
X229995467Y-92049600D01*
X229795333Y-92049600D01*
X229599044Y-92088644D01*
X229414144Y-92165232D01*
X229247738Y-92276421D01*
X229106221Y-92417938D01*
X228995032Y-92584344D01*
X228918444Y-92769244D01*
X228879400Y-92965533D01*
X226787200Y-92965533D01*
X226787200Y-92778333D01*
X226748156Y-92582044D01*
X226671568Y-92397144D01*
X226560379Y-92230738D01*
X226418862Y-92089221D01*
X226252456Y-91978032D01*
X226067556Y-91901444D01*
X225871267Y-91862400D01*
X225671133Y-91862400D01*
X225474844Y-91901444D01*
X225289944Y-91978032D01*
X225123538Y-92089221D01*
X224982021Y-92230738D01*
X224870832Y-92397144D01*
X224794244Y-92582044D01*
X224755200Y-92778333D01*
X224755200Y-92978467D01*
X224794244Y-93174756D01*
X224870832Y-93359656D01*
X224982021Y-93526062D01*
X225122895Y-93666936D01*
X225055800Y-93660328D01*
X223355800Y-93660328D01*
X223231318Y-93672588D01*
X223111620Y-93708898D01*
X223001306Y-93767863D01*
X222904615Y-93847215D01*
X222825263Y-93943906D01*
X222766298Y-94054220D01*
X222741834Y-94134866D01*
X222666069Y-94050812D01*
X222432720Y-93876759D01*
X222169899Y-93751575D01*
X222022690Y-93706924D01*
X221792800Y-93828245D01*
X221538800Y-93828245D01*
X221308910Y-93706924D01*
X221161701Y-93751575D01*
X220898880Y-93876759D01*
X220665531Y-94050812D01*
X220470622Y-94267045D01*
X220321643Y-94517148D01*
X220224319Y-94791509D01*
X203847700Y-94791509D01*
X203847700Y-92203533D01*
X213207600Y-92203533D01*
X213207600Y-92403667D01*
X213246644Y-92599956D01*
X213323232Y-92784856D01*
X213434421Y-92951262D01*
X213575938Y-93092779D01*
X213742344Y-93203968D01*
X213927244Y-93280556D01*
X214123533Y-93319600D01*
X214323667Y-93319600D01*
X214519956Y-93280556D01*
X214704856Y-93203968D01*
X214871262Y-93092779D01*
X215012779Y-92951262D01*
X215123968Y-92784856D01*
X215200556Y-92599956D01*
X215239600Y-92403667D01*
X215239600Y-92203533D01*
X215200556Y-92007244D01*
X215123968Y-91822344D01*
X215012779Y-91655938D01*
X214871262Y-91514421D01*
X214704856Y-91403232D01*
X214519956Y-91326644D01*
X214323667Y-91287600D01*
X214123533Y-91287600D01*
X213927244Y-91326644D01*
X213742344Y-91403232D01*
X213575938Y-91514421D01*
X213434421Y-91655938D01*
X213323232Y-91822344D01*
X213246644Y-92007244D01*
X213207600Y-92203533D01*
X203847700Y-92203533D01*
X203847700Y-89917533D01*
X206349600Y-89917533D01*
X206349600Y-90117667D01*
X206388644Y-90313956D01*
X206465232Y-90498856D01*
X206576421Y-90665262D01*
X206717938Y-90806779D01*
X206884344Y-90917968D01*
X207069244Y-90994556D01*
X207265533Y-91033600D01*
X207465667Y-91033600D01*
X207661956Y-90994556D01*
X207846856Y-90917968D01*
X208013262Y-90806779D01*
X208053919Y-90766122D01*
X208205144Y-90867168D01*
X208390044Y-90943756D01*
X208586333Y-90982800D01*
X208786467Y-90982800D01*
X208982756Y-90943756D01*
X209167656Y-90867168D01*
X209334062Y-90755979D01*
X209346800Y-90743241D01*
X209359538Y-90755979D01*
X209525944Y-90867168D01*
X209710844Y-90943756D01*
X209907133Y-90982800D01*
X210107267Y-90982800D01*
X210303556Y-90943756D01*
X210488456Y-90867168D01*
X210654862Y-90755979D01*
X210667600Y-90743241D01*
X210680338Y-90755979D01*
X210846744Y-90867168D01*
X211031644Y-90943756D01*
X211227933Y-90982800D01*
X211428067Y-90982800D01*
X211624356Y-90943756D01*
X211809256Y-90867168D01*
X211975662Y-90755979D01*
X211995971Y-90735670D01*
X212116744Y-90816368D01*
X212301644Y-90892956D01*
X212497933Y-90932000D01*
X212698067Y-90932000D01*
X212894356Y-90892956D01*
X213079256Y-90816368D01*
X213245662Y-90705179D01*
X213309200Y-90641641D01*
X213372738Y-90705179D01*
X213539144Y-90816368D01*
X213724044Y-90892956D01*
X213920333Y-90932000D01*
X214120467Y-90932000D01*
X214316756Y-90892956D01*
X214501656Y-90816368D01*
X214668062Y-90705179D01*
X214809579Y-90563662D01*
X214920768Y-90397256D01*
X214997356Y-90212356D01*
X215004559Y-90176140D01*
X253480200Y-90176140D01*
X253480200Y-90468660D01*
X253537268Y-90755558D01*
X253649210Y-91025811D01*
X253811725Y-91269032D01*
X254018568Y-91475875D01*
X254192960Y-91592400D01*
X254018568Y-91708925D01*
X253811725Y-91915768D01*
X253649210Y-92158989D01*
X253537268Y-92429242D01*
X253480200Y-92716140D01*
X253480200Y-93008660D01*
X253537268Y-93295558D01*
X253649210Y-93565811D01*
X253811725Y-93809032D01*
X254018568Y-94015875D01*
X254192960Y-94132400D01*
X254018568Y-94248925D01*
X253811725Y-94455768D01*
X253649210Y-94698989D01*
X253537268Y-94969242D01*
X253480200Y-95256140D01*
X253480200Y-95548660D01*
X253537268Y-95835558D01*
X253649210Y-96105811D01*
X253811725Y-96349032D01*
X254018568Y-96555875D01*
X254192960Y-96672400D01*
X254018568Y-96788925D01*
X253811725Y-96995768D01*
X253649210Y-97238989D01*
X253537268Y-97509242D01*
X253480200Y-97796140D01*
X253480200Y-98088660D01*
X253537268Y-98375558D01*
X253649210Y-98645811D01*
X253811725Y-98889032D01*
X254018568Y-99095875D01*
X254261789Y-99258390D01*
X254532042Y-99370332D01*
X254818940Y-99427400D01*
X255111460Y-99427400D01*
X255398358Y-99370332D01*
X255668611Y-99258390D01*
X255911832Y-99095875D01*
X256118675Y-98889032D01*
X256281190Y-98645811D01*
X256393132Y-98375558D01*
X256450200Y-98088660D01*
X256450200Y-97796140D01*
X256393132Y-97509242D01*
X256281190Y-97238989D01*
X256118675Y-96995768D01*
X255911832Y-96788925D01*
X255737440Y-96672400D01*
X255911832Y-96555875D01*
X256118675Y-96349032D01*
X256281190Y-96105811D01*
X256393132Y-95835558D01*
X256450200Y-95548660D01*
X256450200Y-95256140D01*
X256393132Y-94969242D01*
X256281190Y-94698989D01*
X256118675Y-94455768D01*
X255911832Y-94248925D01*
X255737440Y-94132400D01*
X255911832Y-94015875D01*
X256118675Y-93809032D01*
X256281190Y-93565811D01*
X256393132Y-93295558D01*
X256450200Y-93008660D01*
X256450200Y-92716140D01*
X256393132Y-92429242D01*
X256281190Y-92158989D01*
X256118675Y-91915768D01*
X255911832Y-91708925D01*
X255737440Y-91592400D01*
X255911832Y-91475875D01*
X256118675Y-91269032D01*
X256281190Y-91025811D01*
X256393132Y-90755558D01*
X256450200Y-90468660D01*
X256450200Y-90176140D01*
X256393132Y-89889242D01*
X256281190Y-89618989D01*
X256118675Y-89375768D01*
X255911832Y-89168925D01*
X255729666Y-89047205D01*
X255846555Y-88977578D01*
X256062788Y-88782669D01*
X256236841Y-88549320D01*
X256362025Y-88286499D01*
X256406676Y-88139290D01*
X256285355Y-87909400D01*
X255092200Y-87909400D01*
X255092200Y-87929400D01*
X254838200Y-87929400D01*
X254838200Y-87909400D01*
X253645045Y-87909400D01*
X253523724Y-88139290D01*
X253568375Y-88286499D01*
X253693559Y-88549320D01*
X253867612Y-88782669D01*
X254083845Y-88977578D01*
X254200734Y-89047205D01*
X254018568Y-89168925D01*
X253811725Y-89375768D01*
X253649210Y-89618989D01*
X253537268Y-89889242D01*
X253480200Y-90176140D01*
X215004559Y-90176140D01*
X215036400Y-90016067D01*
X215036400Y-89815933D01*
X214997356Y-89619644D01*
X214920768Y-89434744D01*
X214809579Y-89268338D01*
X214668062Y-89126821D01*
X214620097Y-89094772D01*
X214718862Y-89028779D01*
X214860379Y-88887262D01*
X214971568Y-88720856D01*
X215048156Y-88535956D01*
X215087200Y-88339667D01*
X215087200Y-88139533D01*
X215048156Y-87943244D01*
X214971568Y-87758344D01*
X214860379Y-87591938D01*
X214718862Y-87450421D01*
X214552456Y-87339232D01*
X214367556Y-87262644D01*
X214171267Y-87223600D01*
X213971133Y-87223600D01*
X213774844Y-87262644D01*
X213589944Y-87339232D01*
X213423538Y-87450421D01*
X213282021Y-87591938D01*
X213170832Y-87758344D01*
X213094244Y-87943244D01*
X213055200Y-88139533D01*
X213055200Y-88339667D01*
X213094244Y-88535956D01*
X213170832Y-88720856D01*
X213282021Y-88887262D01*
X213423538Y-89028779D01*
X213471503Y-89060828D01*
X213372738Y-89126821D01*
X213309200Y-89190359D01*
X213245662Y-89126821D01*
X213079256Y-89015632D01*
X212894356Y-88939044D01*
X212698067Y-88900000D01*
X212497933Y-88900000D01*
X212301644Y-88939044D01*
X212116744Y-89015632D01*
X211950338Y-89126821D01*
X211930029Y-89147130D01*
X211809256Y-89066432D01*
X211624356Y-88989844D01*
X211428067Y-88950800D01*
X211227933Y-88950800D01*
X211031644Y-88989844D01*
X210846744Y-89066432D01*
X210680338Y-89177621D01*
X210667600Y-89190359D01*
X210654862Y-89177621D01*
X210488456Y-89066432D01*
X210303556Y-88989844D01*
X210107267Y-88950800D01*
X209907133Y-88950800D01*
X209710844Y-88989844D01*
X209525944Y-89066432D01*
X209359538Y-89177621D01*
X209346800Y-89190359D01*
X209334062Y-89177621D01*
X209167656Y-89066432D01*
X208982756Y-88989844D01*
X208786467Y-88950800D01*
X208586333Y-88950800D01*
X208390044Y-88989844D01*
X208205144Y-89066432D01*
X208038738Y-89177621D01*
X207998081Y-89218278D01*
X207846856Y-89117232D01*
X207661956Y-89040644D01*
X207465667Y-89001600D01*
X207265533Y-89001600D01*
X207069244Y-89040644D01*
X206884344Y-89117232D01*
X206717938Y-89228421D01*
X206576421Y-89369938D01*
X206465232Y-89536344D01*
X206388644Y-89721244D01*
X206349600Y-89917533D01*
X203847700Y-89917533D01*
X203847700Y-86945733D01*
X240817400Y-86945733D01*
X240817400Y-87145867D01*
X240856444Y-87342156D01*
X240933032Y-87527056D01*
X241044221Y-87693462D01*
X241185738Y-87834979D01*
X241352144Y-87946168D01*
X241537044Y-88022756D01*
X241733333Y-88061800D01*
X241933467Y-88061800D01*
X242129756Y-88022756D01*
X242314656Y-87946168D01*
X242481062Y-87834979D01*
X242622579Y-87693462D01*
X242733768Y-87527056D01*
X242810356Y-87342156D01*
X242849400Y-87145867D01*
X242849400Y-86965533D01*
X246842800Y-86965533D01*
X246842800Y-87165667D01*
X246881844Y-87361956D01*
X246958432Y-87546856D01*
X247069621Y-87713262D01*
X247211138Y-87854779D01*
X247377544Y-87965968D01*
X247562444Y-88042556D01*
X247758733Y-88081600D01*
X247958867Y-88081600D01*
X248155156Y-88042556D01*
X248340056Y-87965968D01*
X248506462Y-87854779D01*
X248647979Y-87713262D01*
X248759168Y-87546856D01*
X248835756Y-87361956D01*
X248874800Y-87165667D01*
X248874800Y-86965533D01*
X248835756Y-86769244D01*
X248759168Y-86584344D01*
X248647979Y-86417938D01*
X248506462Y-86276421D01*
X248340056Y-86165232D01*
X248155156Y-86088644D01*
X247958867Y-86049600D01*
X247758733Y-86049600D01*
X247562444Y-86088644D01*
X247377544Y-86165232D01*
X247211138Y-86276421D01*
X247069621Y-86417938D01*
X246958432Y-86584344D01*
X246881844Y-86769244D01*
X246842800Y-86965533D01*
X242849400Y-86965533D01*
X242849400Y-86945733D01*
X242810356Y-86749444D01*
X242733768Y-86564544D01*
X242622579Y-86398138D01*
X242481062Y-86256621D01*
X242314656Y-86145432D01*
X242129756Y-86068844D01*
X241933467Y-86029800D01*
X241733333Y-86029800D01*
X241537044Y-86068844D01*
X241352144Y-86145432D01*
X241185738Y-86256621D01*
X241044221Y-86398138D01*
X240933032Y-86564544D01*
X240856444Y-86749444D01*
X240817400Y-86945733D01*
X203847700Y-86945733D01*
X203847700Y-81633675D01*
X203909371Y-81943716D01*
X204212180Y-82674763D01*
X204651792Y-83332689D01*
X205211311Y-83892208D01*
X205869237Y-84331820D01*
X206600284Y-84634629D01*
X207376360Y-84789000D01*
X208167640Y-84789000D01*
X208943716Y-84634629D01*
X209674763Y-84331820D01*
X210332689Y-83892208D01*
X210892208Y-83332689D01*
X211331820Y-82674763D01*
X211634629Y-81943716D01*
X211789000Y-81167640D01*
X211789000Y-80376360D01*
X211634629Y-79600284D01*
X211363092Y-78944733D01*
X212902800Y-78944733D01*
X212902800Y-79144867D01*
X212941844Y-79341156D01*
X213018432Y-79526056D01*
X213129621Y-79692462D01*
X213271138Y-79833979D01*
X213437544Y-79945168D01*
X213622444Y-80021756D01*
X213818733Y-80060800D01*
X214018867Y-80060800D01*
X214215156Y-80021756D01*
X214400056Y-79945168D01*
X214566462Y-79833979D01*
X214707979Y-79692462D01*
X214819168Y-79526056D01*
X214895756Y-79341156D01*
X214934800Y-79144867D01*
X214934800Y-78944733D01*
X214895756Y-78748444D01*
X214819168Y-78563544D01*
X214707979Y-78397138D01*
X214566462Y-78255621D01*
X214400056Y-78144432D01*
X214215156Y-78067844D01*
X214018867Y-78028800D01*
X213818733Y-78028800D01*
X213622444Y-78067844D01*
X213437544Y-78144432D01*
X213271138Y-78255621D01*
X213129621Y-78397138D01*
X213018432Y-78563544D01*
X212941844Y-78748444D01*
X212902800Y-78944733D01*
X211363092Y-78944733D01*
X211331820Y-78869237D01*
X210892208Y-78211311D01*
X210332689Y-77651792D01*
X209674763Y-77212180D01*
X208943716Y-76909371D01*
X208633675Y-76847700D01*
X222872301Y-76847700D01*
X222872300Y-83026191D01*
G37*
G04 #@! TD.AperFunction*
M02*
