G04 #@! TF.GenerationSoftware,KiCad,Pcbnew,(5.1.8-0-10_14)*
G04 #@! TF.CreationDate,2021-10-21T22:22:27-07:00*
G04 #@! TF.ProjectId,ESP8266_12v_Relay,45535038-3236-4365-9f31-32765f52656c,rev?*
G04 #@! TF.SameCoordinates,Original*
G04 #@! TF.FileFunction,Soldermask,Bot*
G04 #@! TF.FilePolarity,Negative*
%FSLAX46Y46*%
G04 Gerber Fmt 4.6, Leading zero omitted, Abs format (unit mm)*
G04 Created by KiCad (PCBNEW (5.1.8-0-10_14)) date 2021-10-21 22:22:27*
%MOMM*%
%LPD*%
G01*
G04 APERTURE LIST*
%ADD10C,3.716000*%
%ADD11C,1.901600*%
%ADD12O,1.801600X1.801600*%
%ADD13C,1.701600*%
G04 APERTURE END LIST*
D10*
X252730000Y-125730000D03*
D11*
X218440000Y-126644400D03*
G36*
G01*
X212489200Y-127544400D02*
X212489200Y-125744400D01*
G75*
G02*
X212540000Y-125693600I50800J0D01*
G01*
X214340000Y-125693600D01*
G75*
G02*
X214390800Y-125744400I0J-50800D01*
G01*
X214390800Y-127544400D01*
G75*
G02*
X214340000Y-127595200I-50800J0D01*
G01*
X212540000Y-127595200D01*
G75*
G02*
X212489200Y-127544400I0J50800D01*
G01*
G37*
D12*
X254965200Y-97942400D03*
X254965200Y-95402400D03*
X254965200Y-92862400D03*
X254965200Y-90322400D03*
X254965200Y-87782400D03*
G36*
G01*
X254064400Y-86092400D02*
X254064400Y-84392400D01*
G75*
G02*
X254115200Y-84341600I50800J0D01*
G01*
X255815200Y-84341600D01*
G75*
G02*
X255866000Y-84392400I0J-50800D01*
G01*
X255866000Y-86092400D01*
G75*
G02*
X255815200Y-86143200I-50800J0D01*
G01*
X254115200Y-86143200D01*
G75*
G02*
X254064400Y-86092400I0J50800D01*
G01*
G37*
D13*
X214314400Y-116586000D03*
G36*
G01*
X217665200Y-115786000D02*
X217665200Y-117386000D01*
G75*
G02*
X217614400Y-117436800I-50800J0D01*
G01*
X216014400Y-117436800D01*
G75*
G02*
X215963600Y-117386000I0J50800D01*
G01*
X215963600Y-115786000D01*
G75*
G02*
X216014400Y-115735200I50800J0D01*
G01*
X217614400Y-115735200D01*
G75*
G02*
X217665200Y-115786000I0J-50800D01*
G01*
G37*
G36*
G01*
X221896400Y-117233600D02*
X221896400Y-115633600D01*
G75*
G02*
X221947200Y-115582800I50800J0D01*
G01*
X223547200Y-115582800D01*
G75*
G02*
X223598000Y-115633600I0J-50800D01*
G01*
X223598000Y-117233600D01*
G75*
G02*
X223547200Y-117284400I-50800J0D01*
G01*
X221947200Y-117284400D01*
G75*
G02*
X221896400Y-117233600I0J50800D01*
G01*
G37*
X225247200Y-116433600D03*
D10*
X207772000Y-80772000D03*
G36*
G01*
X244434800Y-121755800D02*
X246684800Y-121755800D01*
G75*
G02*
X246735600Y-121806600I0J-50800D01*
G01*
X246735600Y-123506600D01*
G75*
G02*
X246684800Y-123557400I-50800J0D01*
G01*
X244434800Y-123557400D01*
G75*
G02*
X244384000Y-123506600I0J50800D01*
G01*
X244384000Y-121806600D01*
G75*
G02*
X244434800Y-121755800I50800J0D01*
G01*
G37*
G36*
G01*
X240334800Y-121755800D02*
X242584800Y-121755800D01*
G75*
G02*
X242635600Y-121806600I0J-50800D01*
G01*
X242635600Y-123506600D01*
G75*
G02*
X242584800Y-123557400I-50800J0D01*
G01*
X240334800Y-123557400D01*
G75*
G02*
X240284000Y-123506600I0J50800D01*
G01*
X240284000Y-121806600D01*
G75*
G02*
X240334800Y-121755800I50800J0D01*
G01*
G37*
G36*
G01*
X227990400Y-121882800D02*
X230240400Y-121882800D01*
G75*
G02*
X230291200Y-121933600I0J-50800D01*
G01*
X230291200Y-123633600D01*
G75*
G02*
X230240400Y-123684400I-50800J0D01*
G01*
X227990400Y-123684400D01*
G75*
G02*
X227939600Y-123633600I0J50800D01*
G01*
X227939600Y-121933600D01*
G75*
G02*
X227990400Y-121882800I50800J0D01*
G01*
G37*
G36*
G01*
X232090400Y-121882800D02*
X234340400Y-121882800D01*
G75*
G02*
X234391200Y-121933600I0J-50800D01*
G01*
X234391200Y-123633600D01*
G75*
G02*
X234340400Y-123684400I-50800J0D01*
G01*
X232090400Y-123684400D01*
G75*
G02*
X232039600Y-123633600I0J50800D01*
G01*
X232039600Y-121933600D01*
G75*
G02*
X232090400Y-121882800I50800J0D01*
G01*
G37*
D11*
X245969800Y-126669800D03*
G36*
G01*
X240019000Y-127569800D02*
X240019000Y-125769800D01*
G75*
G02*
X240069800Y-125719000I50800J0D01*
G01*
X241869800Y-125719000D01*
G75*
G02*
X241920600Y-125769800I0J-50800D01*
G01*
X241920600Y-127569800D01*
G75*
G02*
X241869800Y-127620600I-50800J0D01*
G01*
X240069800Y-127620600D01*
G75*
G02*
X240019000Y-127569800I0J50800D01*
G01*
G37*
G36*
G01*
X227776200Y-127569800D02*
X227776200Y-125769800D01*
G75*
G02*
X227827000Y-125719000I50800J0D01*
G01*
X229627000Y-125719000D01*
G75*
G02*
X229677800Y-125769800I0J-50800D01*
G01*
X229677800Y-127569800D01*
G75*
G02*
X229627000Y-127620600I-50800J0D01*
G01*
X227827000Y-127620600D01*
G75*
G02*
X227776200Y-127569800I0J50800D01*
G01*
G37*
X233727000Y-126669800D03*
G36*
G01*
X248197000Y-104993000D02*
X248197000Y-102743000D01*
G75*
G02*
X248247800Y-102692200I50800J0D01*
G01*
X249947800Y-102692200D01*
G75*
G02*
X249998600Y-102743000I0J-50800D01*
G01*
X249998600Y-104993000D01*
G75*
G02*
X249947800Y-105043800I-50800J0D01*
G01*
X248247800Y-105043800D01*
G75*
G02*
X248197000Y-104993000I0J50800D01*
G01*
G37*
G36*
G01*
X248197000Y-109093000D02*
X248197000Y-106843000D01*
G75*
G02*
X248247800Y-106792200I50800J0D01*
G01*
X249947800Y-106792200D01*
G75*
G02*
X249998600Y-106843000I0J-50800D01*
G01*
X249998600Y-109093000D01*
G75*
G02*
X249947800Y-109143800I-50800J0D01*
G01*
X248247800Y-109143800D01*
G75*
G02*
X248197000Y-109093000I0J50800D01*
G01*
G37*
G36*
G01*
X248095400Y-119735600D02*
X248095400Y-117485600D01*
G75*
G02*
X248146200Y-117434800I50800J0D01*
G01*
X249846200Y-117434800D01*
G75*
G02*
X249897000Y-117485600I0J-50800D01*
G01*
X249897000Y-119735600D01*
G75*
G02*
X249846200Y-119786400I-50800J0D01*
G01*
X248146200Y-119786400D01*
G75*
G02*
X248095400Y-119735600I0J50800D01*
G01*
G37*
G36*
G01*
X248095400Y-115635600D02*
X248095400Y-113385600D01*
G75*
G02*
X248146200Y-113334800I50800J0D01*
G01*
X249846200Y-113334800D01*
G75*
G02*
X249897000Y-113385600I0J-50800D01*
G01*
X249897000Y-115635600D01*
G75*
G02*
X249846200Y-115686400I-50800J0D01*
G01*
X248146200Y-115686400D01*
G75*
G02*
X248095400Y-115635600I0J50800D01*
G01*
G37*
X253619000Y-103280200D03*
G36*
G01*
X254519000Y-109231000D02*
X252719000Y-109231000D01*
G75*
G02*
X252668200Y-109180200I0J50800D01*
G01*
X252668200Y-107380200D01*
G75*
G02*
X252719000Y-107329400I50800J0D01*
G01*
X254519000Y-107329400D01*
G75*
G02*
X254569800Y-107380200I0J-50800D01*
G01*
X254569800Y-109180200D01*
G75*
G02*
X254519000Y-109231000I-50800J0D01*
G01*
G37*
G36*
G01*
X254493600Y-119772000D02*
X252693600Y-119772000D01*
G75*
G02*
X252642800Y-119721200I0J50800D01*
G01*
X252642800Y-117921200D01*
G75*
G02*
X252693600Y-117870400I50800J0D01*
G01*
X254493600Y-117870400D01*
G75*
G02*
X254544400Y-117921200I0J-50800D01*
G01*
X254544400Y-119721200D01*
G75*
G02*
X254493600Y-119772000I-50800J0D01*
G01*
G37*
X253593600Y-113821200D03*
G36*
G01*
X223355800Y-94247600D02*
X225055800Y-94247600D01*
G75*
G02*
X225106600Y-94298400I0J-50800D01*
G01*
X225106600Y-95998400D01*
G75*
G02*
X225055800Y-96049200I-50800J0D01*
G01*
X223355800Y-96049200D01*
G75*
G02*
X223305000Y-95998400I0J50800D01*
G01*
X223305000Y-94298400D01*
G75*
G02*
X223355800Y-94247600I50800J0D01*
G01*
G37*
D12*
X221665800Y-95148400D03*
G36*
G01*
X234699817Y-88634900D02*
X235708183Y-88634900D01*
G75*
G02*
X235979800Y-88906517I0J-271617D01*
G01*
X235979800Y-89639883D01*
G75*
G02*
X235708183Y-89911500I-271617J0D01*
G01*
X234699817Y-89911500D01*
G75*
G02*
X234428200Y-89639883I0J271617D01*
G01*
X234428200Y-88906517D01*
G75*
G02*
X234699817Y-88634900I271617J0D01*
G01*
G37*
G36*
G01*
X234699817Y-86559900D02*
X235708183Y-86559900D01*
G75*
G02*
X235979800Y-86831517I0J-271617D01*
G01*
X235979800Y-87564883D01*
G75*
G02*
X235708183Y-87836500I-271617J0D01*
G01*
X234699817Y-87836500D01*
G75*
G02*
X234428200Y-87564883I0J271617D01*
G01*
X234428200Y-86831517D01*
G75*
G02*
X234699817Y-86559900I271617J0D01*
G01*
G37*
G36*
G01*
X232210617Y-86563800D02*
X233218983Y-86563800D01*
G75*
G02*
X233490600Y-86835417I0J-271617D01*
G01*
X233490600Y-87568783D01*
G75*
G02*
X233218983Y-87840400I-271617J0D01*
G01*
X232210617Y-87840400D01*
G75*
G02*
X231939000Y-87568783I0J271617D01*
G01*
X231939000Y-86835417D01*
G75*
G02*
X232210617Y-86563800I271617J0D01*
G01*
G37*
G36*
G01*
X232210617Y-88638800D02*
X233218983Y-88638800D01*
G75*
G02*
X233490600Y-88910417I0J-271617D01*
G01*
X233490600Y-89643783D01*
G75*
G02*
X233218983Y-89915400I-271617J0D01*
G01*
X232210617Y-89915400D01*
G75*
G02*
X231939000Y-89643783I0J271617D01*
G01*
X231939000Y-88910417D01*
G75*
G02*
X232210617Y-88638800I271617J0D01*
G01*
G37*
G36*
G01*
X228447000Y-87964017D02*
X228447000Y-88972383D01*
G75*
G02*
X228175383Y-89244000I-271617J0D01*
G01*
X227442017Y-89244000D01*
G75*
G02*
X227170400Y-88972383I0J271617D01*
G01*
X227170400Y-87964017D01*
G75*
G02*
X227442017Y-87692400I271617J0D01*
G01*
X228175383Y-87692400D01*
G75*
G02*
X228447000Y-87964017I0J-271617D01*
G01*
G37*
G36*
G01*
X226372000Y-87964017D02*
X226372000Y-88972383D01*
G75*
G02*
X226100383Y-89244000I-271617J0D01*
G01*
X225367017Y-89244000D01*
G75*
G02*
X225095400Y-88972383I0J271617D01*
G01*
X225095400Y-87964017D01*
G75*
G02*
X225367017Y-87692400I271617J0D01*
G01*
X226100383Y-87692400D01*
G75*
G02*
X226372000Y-87964017I0J-271617D01*
G01*
G37*
G36*
G01*
X226321200Y-85601817D02*
X226321200Y-86610183D01*
G75*
G02*
X226049583Y-86881800I-271617J0D01*
G01*
X225316217Y-86881800D01*
G75*
G02*
X225044600Y-86610183I0J271617D01*
G01*
X225044600Y-85601817D01*
G75*
G02*
X225316217Y-85330200I271617J0D01*
G01*
X226049583Y-85330200D01*
G75*
G02*
X226321200Y-85601817I0J-271617D01*
G01*
G37*
G36*
G01*
X228396200Y-85601817D02*
X228396200Y-86610183D01*
G75*
G02*
X228124583Y-86881800I-271617J0D01*
G01*
X227391217Y-86881800D01*
G75*
G02*
X227119600Y-86610183I0J271617D01*
G01*
X227119600Y-85601817D01*
G75*
G02*
X227391217Y-85330200I271617J0D01*
G01*
X228124583Y-85330200D01*
G75*
G02*
X228396200Y-85601817I0J-271617D01*
G01*
G37*
G36*
G01*
X227330600Y-98471983D02*
X227330600Y-97463617D01*
G75*
G02*
X227602217Y-97192000I271617J0D01*
G01*
X228335583Y-97192000D01*
G75*
G02*
X228607200Y-97463617I0J-271617D01*
G01*
X228607200Y-98471983D01*
G75*
G02*
X228335583Y-98743600I-271617J0D01*
G01*
X227602217Y-98743600D01*
G75*
G02*
X227330600Y-98471983I0J271617D01*
G01*
G37*
G36*
G01*
X229405600Y-98471983D02*
X229405600Y-97463617D01*
G75*
G02*
X229677217Y-97192000I271617J0D01*
G01*
X230410583Y-97192000D01*
G75*
G02*
X230682200Y-97463617I0J-271617D01*
G01*
X230682200Y-98471983D01*
G75*
G02*
X230410583Y-98743600I-271617J0D01*
G01*
X229677217Y-98743600D01*
G75*
G02*
X229405600Y-98471983I0J271617D01*
G01*
G37*
G36*
G01*
X243332200Y-87525435D02*
X243332200Y-86566165D01*
G75*
G02*
X243603365Y-86295000I271165J0D01*
G01*
X244362635Y-86295000D01*
G75*
G02*
X244633800Y-86566165I0J-271165D01*
G01*
X244633800Y-87525435D01*
G75*
G02*
X244362635Y-87796600I-271165J0D01*
G01*
X243603365Y-87796600D01*
G75*
G02*
X243332200Y-87525435I0J271165D01*
G01*
G37*
G36*
G01*
X245332200Y-87525435D02*
X245332200Y-86566165D01*
G75*
G02*
X245603365Y-86295000I271165J0D01*
G01*
X246362635Y-86295000D01*
G75*
G02*
X246633800Y-86566165I0J-271165D01*
G01*
X246633800Y-87525435D01*
G75*
G02*
X246362635Y-87796600I-271165J0D01*
G01*
X245603365Y-87796600D01*
G75*
G02*
X245332200Y-87525435I0J271165D01*
G01*
G37*
G36*
G01*
X233203800Y-92662165D02*
X233203800Y-93621435D01*
G75*
G02*
X232932635Y-93892600I-271165J0D01*
G01*
X232173365Y-93892600D01*
G75*
G02*
X231902200Y-93621435I0J271165D01*
G01*
X231902200Y-92662165D01*
G75*
G02*
X232173365Y-92391000I271165J0D01*
G01*
X232932635Y-92391000D01*
G75*
G02*
X233203800Y-92662165I0J-271165D01*
G01*
G37*
G36*
G01*
X235203800Y-92662165D02*
X235203800Y-93621435D01*
G75*
G02*
X234932635Y-93892600I-271165J0D01*
G01*
X234173365Y-93892600D01*
G75*
G02*
X233902200Y-93621435I0J271165D01*
G01*
X233902200Y-92662165D01*
G75*
G02*
X234173365Y-92391000I271165J0D01*
G01*
X234932635Y-92391000D01*
G75*
G02*
X235203800Y-92662165I0J-271165D01*
G01*
G37*
G36*
G01*
X225247400Y-100682635D02*
X225247400Y-99723365D01*
G75*
G02*
X225518565Y-99452200I271165J0D01*
G01*
X226277835Y-99452200D01*
G75*
G02*
X226549000Y-99723365I0J-271165D01*
G01*
X226549000Y-100682635D01*
G75*
G02*
X226277835Y-100953800I-271165J0D01*
G01*
X225518565Y-100953800D01*
G75*
G02*
X225247400Y-100682635I0J271165D01*
G01*
G37*
G36*
G01*
X227247400Y-100682635D02*
X227247400Y-99723365D01*
G75*
G02*
X227518565Y-99452200I271165J0D01*
G01*
X228277835Y-99452200D01*
G75*
G02*
X228549000Y-99723365I0J-271165D01*
G01*
X228549000Y-100682635D01*
G75*
G02*
X228277835Y-100953800I-271165J0D01*
G01*
X227518565Y-100953800D01*
G75*
G02*
X227247400Y-100682635I0J271165D01*
G01*
G37*
G36*
G01*
X227120400Y-91310035D02*
X227120400Y-90350765D01*
G75*
G02*
X227391565Y-90079600I271165J0D01*
G01*
X228150835Y-90079600D01*
G75*
G02*
X228422000Y-90350765I0J-271165D01*
G01*
X228422000Y-91310035D01*
G75*
G02*
X228150835Y-91581200I-271165J0D01*
G01*
X227391565Y-91581200D01*
G75*
G02*
X227120400Y-91310035I0J271165D01*
G01*
G37*
G36*
G01*
X225120400Y-91310035D02*
X225120400Y-90350765D01*
G75*
G02*
X225391565Y-90079600I271165J0D01*
G01*
X226150835Y-90079600D01*
G75*
G02*
X226422000Y-90350765I0J-271165D01*
G01*
X226422000Y-91310035D01*
G75*
G02*
X226150835Y-91581200I-271165J0D01*
G01*
X225391565Y-91581200D01*
G75*
G02*
X225120400Y-91310035I0J271165D01*
G01*
G37*
G36*
G01*
X213039600Y-123365376D02*
X213039600Y-122049424D01*
G75*
G02*
X213307424Y-121781600I267824J0D01*
G01*
X214298376Y-121781600D01*
G75*
G02*
X214566200Y-122049424I0J-267824D01*
G01*
X214566200Y-123365376D01*
G75*
G02*
X214298376Y-123633200I-267824J0D01*
G01*
X213307424Y-123633200D01*
G75*
G02*
X213039600Y-123365376I0J267824D01*
G01*
G37*
G36*
G01*
X216014600Y-123365376D02*
X216014600Y-122049424D01*
G75*
G02*
X216282424Y-121781600I267824J0D01*
G01*
X217273376Y-121781600D01*
G75*
G02*
X217541200Y-122049424I0J-267824D01*
G01*
X217541200Y-123365376D01*
G75*
G02*
X217273376Y-123633200I-267824J0D01*
G01*
X216282424Y-123633200D01*
G75*
G02*
X216014600Y-123365376I0J267824D01*
G01*
G37*
M02*
