G04 #@! TF.GenerationSoftware,KiCad,Pcbnew,(5.1.8-0-10_14)*
G04 #@! TF.CreationDate,2021-10-21T22:22:27-07:00*
G04 #@! TF.ProjectId,ESP8266_12v_Relay,45535038-3236-4365-9f31-32765f52656c,rev?*
G04 #@! TF.SameCoordinates,Original*
G04 #@! TF.FileFunction,Copper,L4,Bot*
G04 #@! TF.FilePolarity,Positive*
%FSLAX46Y46*%
G04 Gerber Fmt 4.6, Leading zero omitted, Abs format (unit mm)*
G04 Created by KiCad (PCBNEW (5.1.8-0-10_14)) date 2021-10-21 22:22:27*
%MOMM*%
%LPD*%
G01*
G04 APERTURE LIST*
G04 #@! TA.AperFunction,WasherPad*
%ADD10C,2.700000*%
G04 #@! TD*
G04 #@! TA.AperFunction,ComponentPad*
%ADD11C,1.800000*%
G04 #@! TD*
G04 #@! TA.AperFunction,ComponentPad*
%ADD12R,1.800000X1.800000*%
G04 #@! TD*
G04 #@! TA.AperFunction,ComponentPad*
%ADD13O,1.700000X1.700000*%
G04 #@! TD*
G04 #@! TA.AperFunction,ComponentPad*
%ADD14R,1.700000X1.700000*%
G04 #@! TD*
G04 #@! TA.AperFunction,ComponentPad*
%ADD15C,1.600000*%
G04 #@! TD*
G04 #@! TA.AperFunction,ComponentPad*
%ADD16R,1.600000X1.600000*%
G04 #@! TD*
G04 #@! TA.AperFunction,SMDPad,CuDef*
%ADD17R,2.250000X1.700000*%
G04 #@! TD*
G04 #@! TA.AperFunction,SMDPad,CuDef*
%ADD18R,1.700000X2.250000*%
G04 #@! TD*
G04 #@! TA.AperFunction,ViaPad*
%ADD19C,0.762000*%
G04 #@! TD*
G04 #@! TA.AperFunction,Conductor*
%ADD20C,0.762000*%
G04 #@! TD*
G04 #@! TA.AperFunction,Conductor*
%ADD21C,1.270000*%
G04 #@! TD*
G04 #@! TA.AperFunction,Conductor*
%ADD22C,0.254000*%
G04 #@! TD*
G04 #@! TA.AperFunction,Conductor*
%ADD23C,0.100000*%
G04 #@! TD*
G04 APERTURE END LIST*
D10*
X252730000Y-125730000D03*
D11*
X218440000Y-126644400D03*
D12*
X213440000Y-126644400D03*
D13*
X254965200Y-97942400D03*
X254965200Y-95402400D03*
X254965200Y-92862400D03*
X254965200Y-90322400D03*
X254965200Y-87782400D03*
D14*
X254965200Y-85242400D03*
D15*
X214314400Y-116586000D03*
D16*
X216814400Y-116586000D03*
X222747200Y-116433600D03*
D15*
X225247200Y-116433600D03*
D10*
X207772000Y-80772000D03*
D17*
X245559800Y-122656600D03*
X241459800Y-122656600D03*
X229115400Y-122783600D03*
X233215400Y-122783600D03*
D11*
X245969800Y-126669800D03*
D12*
X240969800Y-126669800D03*
X228727000Y-126669800D03*
D11*
X233727000Y-126669800D03*
D18*
X249097800Y-103868000D03*
X249097800Y-107968000D03*
X248996200Y-118610600D03*
X248996200Y-114510600D03*
D11*
X253619000Y-103280200D03*
D12*
X253619000Y-108280200D03*
X253593600Y-118821200D03*
D11*
X253593600Y-113821200D03*
D14*
X224205800Y-95148400D03*
D13*
X221665800Y-95148400D03*
G04 #@! TA.AperFunction,SMDPad,CuDef*
G36*
G01*
X234729000Y-88685700D02*
X235679000Y-88685700D01*
G75*
G02*
X235929000Y-88935700I0J-250000D01*
G01*
X235929000Y-89610700D01*
G75*
G02*
X235679000Y-89860700I-250000J0D01*
G01*
X234729000Y-89860700D01*
G75*
G02*
X234479000Y-89610700I0J250000D01*
G01*
X234479000Y-88935700D01*
G75*
G02*
X234729000Y-88685700I250000J0D01*
G01*
G37*
G04 #@! TD.AperFunction*
G04 #@! TA.AperFunction,SMDPad,CuDef*
G36*
G01*
X234729000Y-86610700D02*
X235679000Y-86610700D01*
G75*
G02*
X235929000Y-86860700I0J-250000D01*
G01*
X235929000Y-87535700D01*
G75*
G02*
X235679000Y-87785700I-250000J0D01*
G01*
X234729000Y-87785700D01*
G75*
G02*
X234479000Y-87535700I0J250000D01*
G01*
X234479000Y-86860700D01*
G75*
G02*
X234729000Y-86610700I250000J0D01*
G01*
G37*
G04 #@! TD.AperFunction*
G04 #@! TA.AperFunction,SMDPad,CuDef*
G36*
G01*
X232239800Y-86614600D02*
X233189800Y-86614600D01*
G75*
G02*
X233439800Y-86864600I0J-250000D01*
G01*
X233439800Y-87539600D01*
G75*
G02*
X233189800Y-87789600I-250000J0D01*
G01*
X232239800Y-87789600D01*
G75*
G02*
X231989800Y-87539600I0J250000D01*
G01*
X231989800Y-86864600D01*
G75*
G02*
X232239800Y-86614600I250000J0D01*
G01*
G37*
G04 #@! TD.AperFunction*
G04 #@! TA.AperFunction,SMDPad,CuDef*
G36*
G01*
X232239800Y-88689600D02*
X233189800Y-88689600D01*
G75*
G02*
X233439800Y-88939600I0J-250000D01*
G01*
X233439800Y-89614600D01*
G75*
G02*
X233189800Y-89864600I-250000J0D01*
G01*
X232239800Y-89864600D01*
G75*
G02*
X231989800Y-89614600I0J250000D01*
G01*
X231989800Y-88939600D01*
G75*
G02*
X232239800Y-88689600I250000J0D01*
G01*
G37*
G04 #@! TD.AperFunction*
G04 #@! TA.AperFunction,SMDPad,CuDef*
G36*
G01*
X228396200Y-87993200D02*
X228396200Y-88943200D01*
G75*
G02*
X228146200Y-89193200I-250000J0D01*
G01*
X227471200Y-89193200D01*
G75*
G02*
X227221200Y-88943200I0J250000D01*
G01*
X227221200Y-87993200D01*
G75*
G02*
X227471200Y-87743200I250000J0D01*
G01*
X228146200Y-87743200D01*
G75*
G02*
X228396200Y-87993200I0J-250000D01*
G01*
G37*
G04 #@! TD.AperFunction*
G04 #@! TA.AperFunction,SMDPad,CuDef*
G36*
G01*
X226321200Y-87993200D02*
X226321200Y-88943200D01*
G75*
G02*
X226071200Y-89193200I-250000J0D01*
G01*
X225396200Y-89193200D01*
G75*
G02*
X225146200Y-88943200I0J250000D01*
G01*
X225146200Y-87993200D01*
G75*
G02*
X225396200Y-87743200I250000J0D01*
G01*
X226071200Y-87743200D01*
G75*
G02*
X226321200Y-87993200I0J-250000D01*
G01*
G37*
G04 #@! TD.AperFunction*
G04 #@! TA.AperFunction,SMDPad,CuDef*
G36*
G01*
X226270400Y-85631000D02*
X226270400Y-86581000D01*
G75*
G02*
X226020400Y-86831000I-250000J0D01*
G01*
X225345400Y-86831000D01*
G75*
G02*
X225095400Y-86581000I0J250000D01*
G01*
X225095400Y-85631000D01*
G75*
G02*
X225345400Y-85381000I250000J0D01*
G01*
X226020400Y-85381000D01*
G75*
G02*
X226270400Y-85631000I0J-250000D01*
G01*
G37*
G04 #@! TD.AperFunction*
G04 #@! TA.AperFunction,SMDPad,CuDef*
G36*
G01*
X228345400Y-85631000D02*
X228345400Y-86581000D01*
G75*
G02*
X228095400Y-86831000I-250000J0D01*
G01*
X227420400Y-86831000D01*
G75*
G02*
X227170400Y-86581000I0J250000D01*
G01*
X227170400Y-85631000D01*
G75*
G02*
X227420400Y-85381000I250000J0D01*
G01*
X228095400Y-85381000D01*
G75*
G02*
X228345400Y-85631000I0J-250000D01*
G01*
G37*
G04 #@! TD.AperFunction*
G04 #@! TA.AperFunction,SMDPad,CuDef*
G36*
G01*
X227381400Y-98442800D02*
X227381400Y-97492800D01*
G75*
G02*
X227631400Y-97242800I250000J0D01*
G01*
X228306400Y-97242800D01*
G75*
G02*
X228556400Y-97492800I0J-250000D01*
G01*
X228556400Y-98442800D01*
G75*
G02*
X228306400Y-98692800I-250000J0D01*
G01*
X227631400Y-98692800D01*
G75*
G02*
X227381400Y-98442800I0J250000D01*
G01*
G37*
G04 #@! TD.AperFunction*
G04 #@! TA.AperFunction,SMDPad,CuDef*
G36*
G01*
X229456400Y-98442800D02*
X229456400Y-97492800D01*
G75*
G02*
X229706400Y-97242800I250000J0D01*
G01*
X230381400Y-97242800D01*
G75*
G02*
X230631400Y-97492800I0J-250000D01*
G01*
X230631400Y-98442800D01*
G75*
G02*
X230381400Y-98692800I-250000J0D01*
G01*
X229706400Y-98692800D01*
G75*
G02*
X229456400Y-98442800I0J250000D01*
G01*
G37*
G04 #@! TD.AperFunction*
G04 #@! TA.AperFunction,SMDPad,CuDef*
G36*
G01*
X243383000Y-87495801D02*
X243383000Y-86595799D01*
G75*
G02*
X243632999Y-86345800I249999J0D01*
G01*
X244333001Y-86345800D01*
G75*
G02*
X244583000Y-86595799I0J-249999D01*
G01*
X244583000Y-87495801D01*
G75*
G02*
X244333001Y-87745800I-249999J0D01*
G01*
X243632999Y-87745800D01*
G75*
G02*
X243383000Y-87495801I0J249999D01*
G01*
G37*
G04 #@! TD.AperFunction*
G04 #@! TA.AperFunction,SMDPad,CuDef*
G36*
G01*
X245383000Y-87495801D02*
X245383000Y-86595799D01*
G75*
G02*
X245632999Y-86345800I249999J0D01*
G01*
X246333001Y-86345800D01*
G75*
G02*
X246583000Y-86595799I0J-249999D01*
G01*
X246583000Y-87495801D01*
G75*
G02*
X246333001Y-87745800I-249999J0D01*
G01*
X245632999Y-87745800D01*
G75*
G02*
X245383000Y-87495801I0J249999D01*
G01*
G37*
G04 #@! TD.AperFunction*
G04 #@! TA.AperFunction,SMDPad,CuDef*
G36*
G01*
X233153000Y-92691799D02*
X233153000Y-93591801D01*
G75*
G02*
X232903001Y-93841800I-249999J0D01*
G01*
X232202999Y-93841800D01*
G75*
G02*
X231953000Y-93591801I0J249999D01*
G01*
X231953000Y-92691799D01*
G75*
G02*
X232202999Y-92441800I249999J0D01*
G01*
X232903001Y-92441800D01*
G75*
G02*
X233153000Y-92691799I0J-249999D01*
G01*
G37*
G04 #@! TD.AperFunction*
G04 #@! TA.AperFunction,SMDPad,CuDef*
G36*
G01*
X235153000Y-92691799D02*
X235153000Y-93591801D01*
G75*
G02*
X234903001Y-93841800I-249999J0D01*
G01*
X234202999Y-93841800D01*
G75*
G02*
X233953000Y-93591801I0J249999D01*
G01*
X233953000Y-92691799D01*
G75*
G02*
X234202999Y-92441800I249999J0D01*
G01*
X234903001Y-92441800D01*
G75*
G02*
X235153000Y-92691799I0J-249999D01*
G01*
G37*
G04 #@! TD.AperFunction*
G04 #@! TA.AperFunction,SMDPad,CuDef*
G36*
G01*
X225298200Y-100653001D02*
X225298200Y-99752999D01*
G75*
G02*
X225548199Y-99503000I249999J0D01*
G01*
X226248201Y-99503000D01*
G75*
G02*
X226498200Y-99752999I0J-249999D01*
G01*
X226498200Y-100653001D01*
G75*
G02*
X226248201Y-100903000I-249999J0D01*
G01*
X225548199Y-100903000D01*
G75*
G02*
X225298200Y-100653001I0J249999D01*
G01*
G37*
G04 #@! TD.AperFunction*
G04 #@! TA.AperFunction,SMDPad,CuDef*
G36*
G01*
X227298200Y-100653001D02*
X227298200Y-99752999D01*
G75*
G02*
X227548199Y-99503000I249999J0D01*
G01*
X228248201Y-99503000D01*
G75*
G02*
X228498200Y-99752999I0J-249999D01*
G01*
X228498200Y-100653001D01*
G75*
G02*
X228248201Y-100903000I-249999J0D01*
G01*
X227548199Y-100903000D01*
G75*
G02*
X227298200Y-100653001I0J249999D01*
G01*
G37*
G04 #@! TD.AperFunction*
G04 #@! TA.AperFunction,SMDPad,CuDef*
G36*
G01*
X227171200Y-91280401D02*
X227171200Y-90380399D01*
G75*
G02*
X227421199Y-90130400I249999J0D01*
G01*
X228121201Y-90130400D01*
G75*
G02*
X228371200Y-90380399I0J-249999D01*
G01*
X228371200Y-91280401D01*
G75*
G02*
X228121201Y-91530400I-249999J0D01*
G01*
X227421199Y-91530400D01*
G75*
G02*
X227171200Y-91280401I0J249999D01*
G01*
G37*
G04 #@! TD.AperFunction*
G04 #@! TA.AperFunction,SMDPad,CuDef*
G36*
G01*
X225171200Y-91280401D02*
X225171200Y-90380399D01*
G75*
G02*
X225421199Y-90130400I249999J0D01*
G01*
X226121201Y-90130400D01*
G75*
G02*
X226371200Y-90380399I0J-249999D01*
G01*
X226371200Y-91280401D01*
G75*
G02*
X226121201Y-91530400I-249999J0D01*
G01*
X225421199Y-91530400D01*
G75*
G02*
X225171200Y-91280401I0J249999D01*
G01*
G37*
G04 #@! TD.AperFunction*
G04 #@! TA.AperFunction,SMDPad,CuDef*
G36*
G01*
X213090400Y-123332400D02*
X213090400Y-122082400D01*
G75*
G02*
X213340400Y-121832400I250000J0D01*
G01*
X214265400Y-121832400D01*
G75*
G02*
X214515400Y-122082400I0J-250000D01*
G01*
X214515400Y-123332400D01*
G75*
G02*
X214265400Y-123582400I-250000J0D01*
G01*
X213340400Y-123582400D01*
G75*
G02*
X213090400Y-123332400I0J250000D01*
G01*
G37*
G04 #@! TD.AperFunction*
G04 #@! TA.AperFunction,SMDPad,CuDef*
G36*
G01*
X216065400Y-123332400D02*
X216065400Y-122082400D01*
G75*
G02*
X216315400Y-121832400I250000J0D01*
G01*
X217240400Y-121832400D01*
G75*
G02*
X217490400Y-122082400I0J-250000D01*
G01*
X217490400Y-123332400D01*
G75*
G02*
X217240400Y-123582400I-250000J0D01*
G01*
X216315400Y-123582400D01*
G75*
G02*
X216065400Y-123332400I0J250000D01*
G01*
G37*
G04 #@! TD.AperFunction*
D19*
X210007200Y-89966800D03*
X211328000Y-89966800D03*
X212598000Y-89916000D03*
X208686400Y-89966800D03*
X207365600Y-90017600D03*
X214020400Y-89916000D03*
X214071200Y-88239600D03*
X214223600Y-92303600D03*
X230331600Y-84069600D03*
X234793200Y-84069600D03*
X234797600Y-85496400D03*
X236270800Y-84074000D03*
X236270800Y-85471000D03*
X237515400Y-84353400D03*
X237490000Y-85521800D03*
X241833400Y-87045800D03*
X225771200Y-92878400D03*
X240334800Y-93141800D03*
X226517200Y-96113600D03*
X213918800Y-79044800D03*
X230530400Y-98577400D03*
X205536800Y-110642400D03*
X205740000Y-116535200D03*
X207416400Y-103428800D03*
X207365600Y-104698800D03*
X206146400Y-85953600D03*
X204927200Y-85953600D03*
X204927200Y-84531200D03*
X211632800Y-84124800D03*
X213918800Y-84124800D03*
X213969600Y-86004400D03*
X219913200Y-103479600D03*
X219862400Y-105054400D03*
X219811600Y-106883200D03*
X219710000Y-108407200D03*
X217982800Y-110032800D03*
X234994000Y-96069600D03*
X232550000Y-97879200D03*
X230253800Y-96065600D03*
X221651000Y-90108600D03*
X245897400Y-99796600D03*
X239947200Y-100285800D03*
X234626400Y-103079800D03*
X231038400Y-109753400D03*
X231343200Y-115544600D03*
X232918000Y-115544600D03*
X231267000Y-117221000D03*
X232867200Y-117170200D03*
X235204000Y-115824000D03*
X235153200Y-117271800D03*
X237109000Y-115824000D03*
X237058200Y-117297200D03*
X239014000Y-115722400D03*
X238988600Y-117271800D03*
X241122200Y-115646200D03*
X241198400Y-117271800D03*
X241096800Y-113715800D03*
X240385600Y-111937800D03*
X242443000Y-110286800D03*
X243636800Y-110312200D03*
X242366800Y-108559600D03*
X243687600Y-108534200D03*
X242341400Y-106832400D03*
X243789200Y-106705400D03*
X241173000Y-105029000D03*
X242773200Y-104978200D03*
X242773200Y-112191800D03*
X223596200Y-88468200D03*
X223570800Y-86944200D03*
X237507600Y-89273200D03*
X230432700Y-89277100D03*
X234010200Y-97307400D03*
X231038400Y-97332800D03*
X234543600Y-98526600D03*
X212734400Y-112455200D03*
X210210400Y-103428800D03*
X211480400Y-103428800D03*
X210159600Y-104851200D03*
X211480400Y-104851200D03*
X213156800Y-104140000D03*
X213156800Y-105562400D03*
X213156800Y-107086400D03*
X217017600Y-120370600D03*
X217043000Y-118821200D03*
X218846400Y-118795800D03*
X218821000Y-120472200D03*
X220649800Y-118795800D03*
X220776800Y-120573800D03*
X218897200Y-122580400D03*
X220980000Y-122428000D03*
X219735400Y-116687600D03*
X219684600Y-114884200D03*
X223012000Y-119456200D03*
X223012000Y-121615200D03*
X222656400Y-125120400D03*
X228727000Y-119862600D03*
X225806000Y-119964200D03*
X225882200Y-124612400D03*
X225882200Y-127711200D03*
X225780600Y-122453400D03*
X223799400Y-123571000D03*
X224332800Y-126161800D03*
X220751400Y-124282200D03*
X221919800Y-114249200D03*
X217855800Y-114300000D03*
X217601800Y-124536200D03*
X230215000Y-85608600D03*
X247858800Y-87065600D03*
X227963600Y-94565600D03*
X229895400Y-93065600D03*
X213918800Y-120624600D03*
X211836000Y-120650000D03*
X211455000Y-122174000D03*
X211480400Y-123571000D03*
X214782400Y-124637800D03*
X211531200Y-124841000D03*
D20*
X243983000Y-87045800D02*
X241833400Y-87045800D01*
X241833400Y-87045800D02*
X241833400Y-87045800D01*
X225771200Y-90830400D02*
X225771200Y-92878400D01*
X225771200Y-92878400D02*
X225771200Y-92878400D01*
X234553000Y-93141800D02*
X240334800Y-93141800D01*
X240334800Y-93141800D02*
X240334800Y-93141800D01*
X225898200Y-100203000D02*
X225898200Y-96732600D01*
X225898200Y-96732600D02*
X226517200Y-96113600D01*
X226517200Y-96113600D02*
X226517200Y-96113600D01*
X230043900Y-96275500D02*
X230253800Y-96065600D01*
X230043900Y-97967800D02*
X230043900Y-96275500D01*
X225682900Y-88417400D02*
X225733700Y-88468200D01*
X225682900Y-86106000D02*
X225682900Y-88417400D01*
X225733700Y-88468200D02*
X223596200Y-88468200D01*
X223596200Y-88468200D02*
X223596200Y-88468200D01*
X225682900Y-86106000D02*
X224409000Y-86106000D01*
X224409000Y-86106000D02*
X223570800Y-86944200D01*
X223570800Y-86944200D02*
X223570800Y-86944200D01*
X235200100Y-89277100D02*
X235204000Y-89273200D01*
X232714800Y-89277100D02*
X235200100Y-89277100D01*
X235204000Y-89273200D02*
X237507600Y-89273200D01*
X232714800Y-89277100D02*
X230432700Y-89277100D01*
X237507600Y-89273200D02*
X237507600Y-89273200D01*
X230432700Y-89277100D02*
X230432700Y-89277100D01*
D21*
X228727000Y-123172000D02*
X229115400Y-122783600D01*
X240969800Y-123146600D02*
X241459800Y-122656600D01*
X240969800Y-126669800D02*
X240969800Y-123146600D01*
X253383000Y-118610600D02*
X253593600Y-118821200D01*
X248996200Y-118610600D02*
X253383000Y-118610600D01*
X249410000Y-108280200D02*
X249097800Y-107968000D01*
X253619000Y-108280200D02*
X249410000Y-108280200D01*
D22*
X228255300Y-85608600D02*
X227757900Y-86106000D01*
X230215000Y-85608600D02*
X228255300Y-85608600D01*
X227757900Y-88417400D02*
X227808700Y-88468200D01*
X227757900Y-86106000D02*
X227757900Y-88417400D01*
X227808700Y-90792900D02*
X227771200Y-90830400D01*
X227808700Y-88468200D02*
X227808700Y-90792900D01*
D21*
X233215400Y-126158200D02*
X233727000Y-126669800D01*
X233215400Y-122783600D02*
X233215400Y-126158200D01*
X245559800Y-126259800D02*
X245969800Y-126669800D01*
X245559800Y-122656600D02*
X245559800Y-126259800D01*
D22*
X247839000Y-87045800D02*
X247858800Y-87065600D01*
X245983000Y-87045800D02*
X247839000Y-87045800D01*
X227963600Y-97962500D02*
X227968900Y-97967800D01*
X227963600Y-94565600D02*
X227963600Y-97962500D01*
X227968900Y-100419500D02*
X227981000Y-100431600D01*
X227968900Y-97967800D02*
X227968900Y-100419500D01*
D21*
X252904200Y-114510600D02*
X253593600Y-113821200D01*
X248996200Y-114510600D02*
X252904200Y-114510600D01*
X253031200Y-103868000D02*
X253619000Y-103280200D01*
X249097800Y-103868000D02*
X253031200Y-103868000D01*
D22*
X238379000Y-86078794D02*
X236802394Y-87655400D01*
X236565745Y-87655400D01*
X236564000Y-87483950D01*
X236405250Y-87325200D01*
X235331000Y-87325200D01*
X235331000Y-87345200D01*
X235077000Y-87345200D01*
X235077000Y-87325200D01*
X234002750Y-87325200D01*
X233957450Y-87370500D01*
X233916050Y-87329100D01*
X232841800Y-87329100D01*
X232841800Y-87349100D01*
X232587800Y-87349100D01*
X232587800Y-87329100D01*
X232567800Y-87329100D01*
X232567800Y-87075100D01*
X232587800Y-87075100D01*
X232587800Y-86138350D01*
X232841800Y-86138350D01*
X232841800Y-87075100D01*
X233916050Y-87075100D01*
X233961350Y-87029800D01*
X234002750Y-87071200D01*
X235077000Y-87071200D01*
X235077000Y-86134450D01*
X235331000Y-86134450D01*
X235331000Y-87071200D01*
X236405250Y-87071200D01*
X236564000Y-86912450D01*
X236567072Y-86610700D01*
X236554812Y-86486218D01*
X236518502Y-86366520D01*
X236459537Y-86256206D01*
X236380185Y-86159515D01*
X236283494Y-86080163D01*
X236173180Y-86021198D01*
X236053482Y-85984888D01*
X235929000Y-85972628D01*
X235489750Y-85975700D01*
X235331000Y-86134450D01*
X235077000Y-86134450D01*
X234918250Y-85975700D01*
X234479000Y-85972628D01*
X234354518Y-85984888D01*
X234234820Y-86021198D01*
X234124506Y-86080163D01*
X234027815Y-86159515D01*
X233957800Y-86244829D01*
X233890985Y-86163415D01*
X233794294Y-86084063D01*
X233683980Y-86025098D01*
X233564282Y-85988788D01*
X233439800Y-85976528D01*
X233000550Y-85979600D01*
X232841800Y-86138350D01*
X232587800Y-86138350D01*
X232429050Y-85979600D01*
X231989800Y-85976528D01*
X231865318Y-85988788D01*
X231745620Y-86025098D01*
X231696669Y-86051263D01*
X231231000Y-85585594D01*
X231231000Y-85508533D01*
X231191956Y-85312244D01*
X231115368Y-85127344D01*
X231004179Y-84960938D01*
X230862662Y-84819421D01*
X230696256Y-84708232D01*
X230511356Y-84631644D01*
X230315067Y-84592600D01*
X230238006Y-84592600D01*
X229997000Y-84351594D01*
X229997000Y-83769200D01*
X238379000Y-83769200D01*
X238379000Y-86078794D01*
G04 #@! TA.AperFunction,Conductor*
D23*
G36*
X238379000Y-86078794D02*
G01*
X236802394Y-87655400D01*
X236565745Y-87655400D01*
X236564000Y-87483950D01*
X236405250Y-87325200D01*
X235331000Y-87325200D01*
X235331000Y-87345200D01*
X235077000Y-87345200D01*
X235077000Y-87325200D01*
X234002750Y-87325200D01*
X233957450Y-87370500D01*
X233916050Y-87329100D01*
X232841800Y-87329100D01*
X232841800Y-87349100D01*
X232587800Y-87349100D01*
X232587800Y-87329100D01*
X232567800Y-87329100D01*
X232567800Y-87075100D01*
X232587800Y-87075100D01*
X232587800Y-86138350D01*
X232841800Y-86138350D01*
X232841800Y-87075100D01*
X233916050Y-87075100D01*
X233961350Y-87029800D01*
X234002750Y-87071200D01*
X235077000Y-87071200D01*
X235077000Y-86134450D01*
X235331000Y-86134450D01*
X235331000Y-87071200D01*
X236405250Y-87071200D01*
X236564000Y-86912450D01*
X236567072Y-86610700D01*
X236554812Y-86486218D01*
X236518502Y-86366520D01*
X236459537Y-86256206D01*
X236380185Y-86159515D01*
X236283494Y-86080163D01*
X236173180Y-86021198D01*
X236053482Y-85984888D01*
X235929000Y-85972628D01*
X235489750Y-85975700D01*
X235331000Y-86134450D01*
X235077000Y-86134450D01*
X234918250Y-85975700D01*
X234479000Y-85972628D01*
X234354518Y-85984888D01*
X234234820Y-86021198D01*
X234124506Y-86080163D01*
X234027815Y-86159515D01*
X233957800Y-86244829D01*
X233890985Y-86163415D01*
X233794294Y-86084063D01*
X233683980Y-86025098D01*
X233564282Y-85988788D01*
X233439800Y-85976528D01*
X233000550Y-85979600D01*
X232841800Y-86138350D01*
X232587800Y-86138350D01*
X232429050Y-85979600D01*
X231989800Y-85976528D01*
X231865318Y-85988788D01*
X231745620Y-86025098D01*
X231696669Y-86051263D01*
X231231000Y-85585594D01*
X231231000Y-85508533D01*
X231191956Y-85312244D01*
X231115368Y-85127344D01*
X231004179Y-84960938D01*
X230862662Y-84819421D01*
X230696256Y-84708232D01*
X230511356Y-84631644D01*
X230315067Y-84592600D01*
X230238006Y-84592600D01*
X229997000Y-84351594D01*
X229997000Y-83769200D01*
X238379000Y-83769200D01*
X238379000Y-86078794D01*
G37*
G04 #@! TD.AperFunction*
D22*
X214401400Y-123571000D02*
X214403840Y-123595776D01*
X214411067Y-123619601D01*
X214422803Y-123641557D01*
X214438597Y-123660803D01*
X216331800Y-125554006D01*
X216331800Y-129057400D01*
X211251800Y-129057400D01*
X211251800Y-120192800D01*
X214401400Y-120192800D01*
X214401400Y-123571000D01*
G04 #@! TA.AperFunction,Conductor*
D23*
G36*
X214401400Y-123571000D02*
G01*
X214403840Y-123595776D01*
X214411067Y-123619601D01*
X214422803Y-123641557D01*
X214438597Y-123660803D01*
X216331800Y-125554006D01*
X216331800Y-129057400D01*
X211251800Y-129057400D01*
X211251800Y-120192800D01*
X214401400Y-120192800D01*
X214401400Y-123571000D01*
G37*
G04 #@! TD.AperFunction*
D22*
X223393000Y-114428806D02*
X223393000Y-114996449D01*
X223032950Y-114998600D01*
X222874200Y-115157350D01*
X222874200Y-116306600D01*
X222894200Y-116306600D01*
X222894200Y-116560600D01*
X222874200Y-116560600D01*
X222874200Y-117709850D01*
X223032950Y-117868600D01*
X223393000Y-117870751D01*
X223393000Y-118414800D01*
X223395440Y-118439576D01*
X223402667Y-118463401D01*
X223414403Y-118485357D01*
X223430197Y-118504603D01*
X223449443Y-118520397D01*
X223471399Y-118532133D01*
X223495224Y-118539360D01*
X223520000Y-118541800D01*
X230098600Y-118541800D01*
X230098600Y-121296047D01*
X229401150Y-121298600D01*
X229242400Y-121457350D01*
X229242400Y-122656600D01*
X229262400Y-122656600D01*
X229262400Y-122910600D01*
X229242400Y-122910600D01*
X229242400Y-124109850D01*
X229401150Y-124268600D01*
X230098600Y-124271153D01*
X230098600Y-125343491D01*
X230078185Y-125318615D01*
X229981494Y-125239263D01*
X229871180Y-125180298D01*
X229751482Y-125143988D01*
X229627000Y-125131728D01*
X229012750Y-125134800D01*
X228854000Y-125293550D01*
X228854000Y-126542800D01*
X228874000Y-126542800D01*
X228874000Y-126796800D01*
X228854000Y-126796800D01*
X228854000Y-128046050D01*
X229012750Y-128204800D01*
X229627000Y-128207872D01*
X229751482Y-128195612D01*
X229871180Y-128159302D01*
X229981494Y-128100337D01*
X230078185Y-128020985D01*
X230098600Y-127996109D01*
X230098600Y-128828800D01*
X224106006Y-128828800D01*
X222847006Y-127569800D01*
X227188928Y-127569800D01*
X227201188Y-127694282D01*
X227237498Y-127813980D01*
X227296463Y-127924294D01*
X227375815Y-128020985D01*
X227472506Y-128100337D01*
X227582820Y-128159302D01*
X227702518Y-128195612D01*
X227827000Y-128207872D01*
X228441250Y-128204800D01*
X228600000Y-128046050D01*
X228600000Y-126796800D01*
X227350750Y-126796800D01*
X227192000Y-126955550D01*
X227188928Y-127569800D01*
X222847006Y-127569800D01*
X221047006Y-125769800D01*
X227188928Y-125769800D01*
X227192000Y-126384050D01*
X227350750Y-126542800D01*
X228600000Y-126542800D01*
X228600000Y-125293550D01*
X228441250Y-125134800D01*
X227827000Y-125131728D01*
X227702518Y-125143988D01*
X227582820Y-125180298D01*
X227472506Y-125239263D01*
X227375815Y-125318615D01*
X227296463Y-125415306D01*
X227237498Y-125525620D01*
X227201188Y-125645318D01*
X227188928Y-125769800D01*
X221047006Y-125769800D01*
X218910806Y-123633600D01*
X227352328Y-123633600D01*
X227364588Y-123758082D01*
X227400898Y-123877780D01*
X227459863Y-123988094D01*
X227539215Y-124084785D01*
X227635906Y-124164137D01*
X227746220Y-124223102D01*
X227865918Y-124259412D01*
X227990400Y-124271672D01*
X228829650Y-124268600D01*
X228988400Y-124109850D01*
X228988400Y-122910600D01*
X227514150Y-122910600D01*
X227355400Y-123069350D01*
X227352328Y-123633600D01*
X218910806Y-123633600D01*
X218783803Y-123506597D01*
X218764557Y-123490803D01*
X218742601Y-123479067D01*
X218718776Y-123471840D01*
X218694000Y-123469400D01*
X218127883Y-123469400D01*
X218125400Y-122993150D01*
X217966650Y-122834400D01*
X216904900Y-122834400D01*
X216904900Y-122854400D01*
X216650900Y-122854400D01*
X216650900Y-122834400D01*
X216630900Y-122834400D01*
X216630900Y-122580400D01*
X216650900Y-122580400D01*
X216650900Y-121356150D01*
X216904900Y-121356150D01*
X216904900Y-122580400D01*
X217966650Y-122580400D01*
X218125400Y-122421650D01*
X218127944Y-121933600D01*
X227352328Y-121933600D01*
X227355400Y-122497850D01*
X227514150Y-122656600D01*
X228988400Y-122656600D01*
X228988400Y-121457350D01*
X228829650Y-121298600D01*
X227990400Y-121295528D01*
X227865918Y-121307788D01*
X227746220Y-121344098D01*
X227635906Y-121403063D01*
X227539215Y-121482415D01*
X227459863Y-121579106D01*
X227400898Y-121689420D01*
X227364588Y-121809118D01*
X227352328Y-121933600D01*
X218127944Y-121933600D01*
X218128472Y-121832400D01*
X218116212Y-121707918D01*
X218079902Y-121588220D01*
X218020937Y-121477906D01*
X217941585Y-121381215D01*
X217844894Y-121301863D01*
X217734580Y-121242898D01*
X217614882Y-121206588D01*
X217490400Y-121194328D01*
X217063650Y-121197400D01*
X216904900Y-121356150D01*
X216650900Y-121356150D01*
X216492150Y-121197400D01*
X216204800Y-121195331D01*
X216204800Y-118022935D01*
X216528650Y-118021000D01*
X216687400Y-117862250D01*
X216687400Y-116713000D01*
X216941400Y-116713000D01*
X216941400Y-117862250D01*
X217100150Y-118021000D01*
X217614400Y-118024072D01*
X217738882Y-118011812D01*
X217858580Y-117975502D01*
X217968894Y-117916537D01*
X218065585Y-117837185D01*
X218144937Y-117740494D01*
X218203902Y-117630180D01*
X218240212Y-117510482D01*
X218252472Y-117386000D01*
X218251562Y-117233600D01*
X221309128Y-117233600D01*
X221321388Y-117358082D01*
X221357698Y-117477780D01*
X221416663Y-117588094D01*
X221496015Y-117684785D01*
X221592706Y-117764137D01*
X221703020Y-117823102D01*
X221822718Y-117859412D01*
X221947200Y-117871672D01*
X222461450Y-117868600D01*
X222620200Y-117709850D01*
X222620200Y-116560600D01*
X221470950Y-116560600D01*
X221312200Y-116719350D01*
X221309128Y-117233600D01*
X218251562Y-117233600D01*
X218249400Y-116871750D01*
X218090650Y-116713000D01*
X216941400Y-116713000D01*
X216687400Y-116713000D01*
X216667400Y-116713000D01*
X216667400Y-116459000D01*
X216687400Y-116459000D01*
X216687400Y-115309750D01*
X216941400Y-115309750D01*
X216941400Y-116459000D01*
X218090650Y-116459000D01*
X218249400Y-116300250D01*
X218252472Y-115786000D01*
X218240212Y-115661518D01*
X218231744Y-115633600D01*
X221309128Y-115633600D01*
X221312200Y-116147850D01*
X221470950Y-116306600D01*
X222620200Y-116306600D01*
X222620200Y-115157350D01*
X222461450Y-114998600D01*
X221947200Y-114995528D01*
X221822718Y-115007788D01*
X221703020Y-115044098D01*
X221592706Y-115103063D01*
X221496015Y-115182415D01*
X221416663Y-115279106D01*
X221357698Y-115389420D01*
X221321388Y-115509118D01*
X221309128Y-115633600D01*
X218231744Y-115633600D01*
X218203902Y-115541820D01*
X218144937Y-115431506D01*
X218065585Y-115334815D01*
X217968894Y-115255463D01*
X217858580Y-115196498D01*
X217738882Y-115160188D01*
X217614400Y-115147928D01*
X217100150Y-115151000D01*
X216941400Y-115309750D01*
X216687400Y-115309750D01*
X216528650Y-115151000D01*
X216204800Y-115149065D01*
X216204800Y-114784406D01*
X217197206Y-113792000D01*
X222756194Y-113792000D01*
X223393000Y-114428806D01*
G04 #@! TA.AperFunction,Conductor*
D23*
G36*
X223393000Y-114428806D02*
G01*
X223393000Y-114996449D01*
X223032950Y-114998600D01*
X222874200Y-115157350D01*
X222874200Y-116306600D01*
X222894200Y-116306600D01*
X222894200Y-116560600D01*
X222874200Y-116560600D01*
X222874200Y-117709850D01*
X223032950Y-117868600D01*
X223393000Y-117870751D01*
X223393000Y-118414800D01*
X223395440Y-118439576D01*
X223402667Y-118463401D01*
X223414403Y-118485357D01*
X223430197Y-118504603D01*
X223449443Y-118520397D01*
X223471399Y-118532133D01*
X223495224Y-118539360D01*
X223520000Y-118541800D01*
X230098600Y-118541800D01*
X230098600Y-121296047D01*
X229401150Y-121298600D01*
X229242400Y-121457350D01*
X229242400Y-122656600D01*
X229262400Y-122656600D01*
X229262400Y-122910600D01*
X229242400Y-122910600D01*
X229242400Y-124109850D01*
X229401150Y-124268600D01*
X230098600Y-124271153D01*
X230098600Y-125343491D01*
X230078185Y-125318615D01*
X229981494Y-125239263D01*
X229871180Y-125180298D01*
X229751482Y-125143988D01*
X229627000Y-125131728D01*
X229012750Y-125134800D01*
X228854000Y-125293550D01*
X228854000Y-126542800D01*
X228874000Y-126542800D01*
X228874000Y-126796800D01*
X228854000Y-126796800D01*
X228854000Y-128046050D01*
X229012750Y-128204800D01*
X229627000Y-128207872D01*
X229751482Y-128195612D01*
X229871180Y-128159302D01*
X229981494Y-128100337D01*
X230078185Y-128020985D01*
X230098600Y-127996109D01*
X230098600Y-128828800D01*
X224106006Y-128828800D01*
X222847006Y-127569800D01*
X227188928Y-127569800D01*
X227201188Y-127694282D01*
X227237498Y-127813980D01*
X227296463Y-127924294D01*
X227375815Y-128020985D01*
X227472506Y-128100337D01*
X227582820Y-128159302D01*
X227702518Y-128195612D01*
X227827000Y-128207872D01*
X228441250Y-128204800D01*
X228600000Y-128046050D01*
X228600000Y-126796800D01*
X227350750Y-126796800D01*
X227192000Y-126955550D01*
X227188928Y-127569800D01*
X222847006Y-127569800D01*
X221047006Y-125769800D01*
X227188928Y-125769800D01*
X227192000Y-126384050D01*
X227350750Y-126542800D01*
X228600000Y-126542800D01*
X228600000Y-125293550D01*
X228441250Y-125134800D01*
X227827000Y-125131728D01*
X227702518Y-125143988D01*
X227582820Y-125180298D01*
X227472506Y-125239263D01*
X227375815Y-125318615D01*
X227296463Y-125415306D01*
X227237498Y-125525620D01*
X227201188Y-125645318D01*
X227188928Y-125769800D01*
X221047006Y-125769800D01*
X218910806Y-123633600D01*
X227352328Y-123633600D01*
X227364588Y-123758082D01*
X227400898Y-123877780D01*
X227459863Y-123988094D01*
X227539215Y-124084785D01*
X227635906Y-124164137D01*
X227746220Y-124223102D01*
X227865918Y-124259412D01*
X227990400Y-124271672D01*
X228829650Y-124268600D01*
X228988400Y-124109850D01*
X228988400Y-122910600D01*
X227514150Y-122910600D01*
X227355400Y-123069350D01*
X227352328Y-123633600D01*
X218910806Y-123633600D01*
X218783803Y-123506597D01*
X218764557Y-123490803D01*
X218742601Y-123479067D01*
X218718776Y-123471840D01*
X218694000Y-123469400D01*
X218127883Y-123469400D01*
X218125400Y-122993150D01*
X217966650Y-122834400D01*
X216904900Y-122834400D01*
X216904900Y-122854400D01*
X216650900Y-122854400D01*
X216650900Y-122834400D01*
X216630900Y-122834400D01*
X216630900Y-122580400D01*
X216650900Y-122580400D01*
X216650900Y-121356150D01*
X216904900Y-121356150D01*
X216904900Y-122580400D01*
X217966650Y-122580400D01*
X218125400Y-122421650D01*
X218127944Y-121933600D01*
X227352328Y-121933600D01*
X227355400Y-122497850D01*
X227514150Y-122656600D01*
X228988400Y-122656600D01*
X228988400Y-121457350D01*
X228829650Y-121298600D01*
X227990400Y-121295528D01*
X227865918Y-121307788D01*
X227746220Y-121344098D01*
X227635906Y-121403063D01*
X227539215Y-121482415D01*
X227459863Y-121579106D01*
X227400898Y-121689420D01*
X227364588Y-121809118D01*
X227352328Y-121933600D01*
X218127944Y-121933600D01*
X218128472Y-121832400D01*
X218116212Y-121707918D01*
X218079902Y-121588220D01*
X218020937Y-121477906D01*
X217941585Y-121381215D01*
X217844894Y-121301863D01*
X217734580Y-121242898D01*
X217614882Y-121206588D01*
X217490400Y-121194328D01*
X217063650Y-121197400D01*
X216904900Y-121356150D01*
X216650900Y-121356150D01*
X216492150Y-121197400D01*
X216204800Y-121195331D01*
X216204800Y-118022935D01*
X216528650Y-118021000D01*
X216687400Y-117862250D01*
X216687400Y-116713000D01*
X216941400Y-116713000D01*
X216941400Y-117862250D01*
X217100150Y-118021000D01*
X217614400Y-118024072D01*
X217738882Y-118011812D01*
X217858580Y-117975502D01*
X217968894Y-117916537D01*
X218065585Y-117837185D01*
X218144937Y-117740494D01*
X218203902Y-117630180D01*
X218240212Y-117510482D01*
X218252472Y-117386000D01*
X218251562Y-117233600D01*
X221309128Y-117233600D01*
X221321388Y-117358082D01*
X221357698Y-117477780D01*
X221416663Y-117588094D01*
X221496015Y-117684785D01*
X221592706Y-117764137D01*
X221703020Y-117823102D01*
X221822718Y-117859412D01*
X221947200Y-117871672D01*
X222461450Y-117868600D01*
X222620200Y-117709850D01*
X222620200Y-116560600D01*
X221470950Y-116560600D01*
X221312200Y-116719350D01*
X221309128Y-117233600D01*
X218251562Y-117233600D01*
X218249400Y-116871750D01*
X218090650Y-116713000D01*
X216941400Y-116713000D01*
X216687400Y-116713000D01*
X216667400Y-116713000D01*
X216667400Y-116459000D01*
X216687400Y-116459000D01*
X216687400Y-115309750D01*
X216941400Y-115309750D01*
X216941400Y-116459000D01*
X218090650Y-116459000D01*
X218249400Y-116300250D01*
X218252472Y-115786000D01*
X218240212Y-115661518D01*
X218231744Y-115633600D01*
X221309128Y-115633600D01*
X221312200Y-116147850D01*
X221470950Y-116306600D01*
X222620200Y-116306600D01*
X222620200Y-115157350D01*
X222461450Y-114998600D01*
X221947200Y-114995528D01*
X221822718Y-115007788D01*
X221703020Y-115044098D01*
X221592706Y-115103063D01*
X221496015Y-115182415D01*
X221416663Y-115279106D01*
X221357698Y-115389420D01*
X221321388Y-115509118D01*
X221309128Y-115633600D01*
X218231744Y-115633600D01*
X218203902Y-115541820D01*
X218144937Y-115431506D01*
X218065585Y-115334815D01*
X217968894Y-115255463D01*
X217858580Y-115196498D01*
X217738882Y-115160188D01*
X217614400Y-115147928D01*
X217100150Y-115151000D01*
X216941400Y-115309750D01*
X216687400Y-115309750D01*
X216528650Y-115151000D01*
X216204800Y-115149065D01*
X216204800Y-114784406D01*
X217197206Y-113792000D01*
X222756194Y-113792000D01*
X223393000Y-114428806D01*
G37*
G04 #@! TD.AperFunction*
D22*
X216924900Y-122834400D02*
X216904900Y-122834400D01*
X216904900Y-124058650D01*
X217063650Y-124217400D01*
X217490400Y-124220472D01*
X217614882Y-124208212D01*
X217734580Y-124171902D01*
X217844894Y-124112937D01*
X217941585Y-124033585D01*
X218020937Y-123936894D01*
X218079902Y-123826580D01*
X218116212Y-123706882D01*
X218128472Y-123582400D01*
X218125400Y-122993150D01*
X217966652Y-122834402D01*
X218125400Y-122834402D01*
X218125400Y-122732800D01*
X220192600Y-122732800D01*
X220192600Y-124891800D01*
X217324990Y-124891800D01*
X216579303Y-124130247D01*
X216650900Y-124058650D01*
X216650900Y-122834400D01*
X216630900Y-122834400D01*
X216630900Y-122732800D01*
X216924900Y-122732800D01*
X216924900Y-122834400D01*
G04 #@! TA.AperFunction,Conductor*
D23*
G36*
X216924900Y-122834400D02*
G01*
X216904900Y-122834400D01*
X216904900Y-124058650D01*
X217063650Y-124217400D01*
X217490400Y-124220472D01*
X217614882Y-124208212D01*
X217734580Y-124171902D01*
X217844894Y-124112937D01*
X217941585Y-124033585D01*
X218020937Y-123936894D01*
X218079902Y-123826580D01*
X218116212Y-123706882D01*
X218128472Y-123582400D01*
X218125400Y-122993150D01*
X217966652Y-122834402D01*
X218125400Y-122834402D01*
X218125400Y-122732800D01*
X220192600Y-122732800D01*
X220192600Y-124891800D01*
X217324990Y-124891800D01*
X216579303Y-124130247D01*
X216650900Y-124058650D01*
X216650900Y-122834400D01*
X216630900Y-122834400D01*
X216630900Y-122732800D01*
X216924900Y-122732800D01*
X216924900Y-122834400D01*
G37*
G04 #@! TD.AperFunction*
M02*
