M48
; DRILL file {KiCad (5.1.8-0-10_14)} date Friday, August 13, 2021 at 08:31:39 PM
; FORMAT={-:-/ absolute / inch / decimal}
; #@! TF.CreationDate,2021-08-13T20:31:39-06:00
; #@! TF.GenerationSoftware,Kicad,Pcbnew,(5.1.8-0-10_14)
FMAT,2
INCH
T1C0.0150
T2C0.0315
T3C0.0394
T4C0.0472
T5C0.0512
T6C0.1000
%
G90
G05
T1
X8.068Y-3.328
X8.068Y-3.384
X8.092Y-4.356
X8.1Y-4.588
X8.116Y-3.384
X8.164Y-3.544
X8.164Y-4.122
X8.166Y-4.072
X8.216Y-3.542
X8.268Y-3.542
X8.274Y-4.128
X8.276Y-4.072
X8.32Y-3.542
X8.326Y-4.072
X8.326Y-4.128
X8.332Y-3.312
X8.37Y-3.54
X8.3754Y-4.4274
X8.392Y-4.1
X8.392Y-4.156
X8.392Y-4.216
X8.422Y-3.312
X8.424Y-3.386
X8.426Y-3.54
X8.428Y-3.474
X8.434Y-3.634
X8.582Y-4.332
X8.65Y-4.268
X8.654Y-4.208
X8.656Y-4.136
X8.658Y-4.074
X8.686Y-3.5406
X8.716Y-3.634
X8.7774Y-3.8686
X8.8746Y-3.3634
X8.9551Y-3.7751
X9.0682Y-3.3098
X9.1555Y-3.8535
X9.236Y-3.605
X9.2438Y-3.3098
X9.2472Y-3.7232
X9.2517Y-3.7823
X9.405Y-3.532
X9.406Y-3.409
X9.407Y-3.473
X9.409Y-3.357
X9.5433Y-3.4447
X9.651Y-3.59
X9.6556Y-3.3286
X9.657Y-4.027
X9.658Y-3.93
X9.756Y-3.31
X9.7629Y-3.6051
X9.918Y-3.487
X9.9219Y-3.3689
X9.9258Y-3.3098
X9.9269Y-3.6051
T2
X8.2576Y-4.654
X8.356Y-4.654
X8.562Y-4.654
X8.6604Y-4.654
T3
X8.982Y-4.27
X8.982Y-4.37
X8.982Y-4.47
X8.982Y-4.57
X8.982Y-4.67
X8.982Y-4.77
X10.038Y-3.356
X10.038Y-3.456
X10.038Y-3.556
X10.038Y-3.656
X10.038Y-3.756
X10.038Y-3.856
T4
X8.46Y-4.986
X8.6569Y-4.986
X9.96Y-4.206
X9.96Y-4.4029
T5
X9.232Y-4.984
X9.4289Y-4.984
X9.6257Y-4.984
T6
X9.95Y-4.95
X8.18Y-3.18
T0
M30
