%TF.GenerationSoftware,KiCad,Pcbnew,(5.1.8-0-10_14)*%
%TF.CreationDate,2021-08-05T18:18:29-06:00*%
%TF.ProjectId,ESP8266_Water_Sensor,45535038-3236-4365-9f57-617465725f53,rev?*%
%TF.SameCoordinates,Original*%
%TF.FileFunction,Legend,Top*%
%TF.FilePolarity,Positive*%
%FSLAX46Y46*%
G04 Gerber Fmt 4.6, Leading zero omitted, Abs format (unit mm)*
G04 Created by KiCad (PCBNEW (5.1.8-0-10_14)) date 2021-08-05 18:18:29*
%MOMM*%
%LPD*%
G01*
G04 APERTURE LIST*
%ADD10C,0.200000*%
%ADD11C,0.100000*%
%ADD12C,0.120000*%
%ADD13C,0.254000*%
%ADD14C,0.150000*%
G04 APERTURE END LIST*
D10*
%TO.C,U1*%
X132175000Y-85365000D02*
X132175000Y-85365000D01*
X132375000Y-85365000D02*
X132375000Y-85365000D01*
X132175000Y-85365000D02*
X132175000Y-85365000D01*
D11*
X151875000Y-84265000D02*
X151875000Y-78265000D01*
X151875000Y-84265000D02*
X151875000Y-84265000D01*
X151875000Y-78265000D02*
X151875000Y-84265000D01*
X151875000Y-78265000D02*
X151875000Y-78265000D01*
X133875000Y-78265000D02*
X133875000Y-84265000D01*
X133875000Y-78265000D02*
X133875000Y-78265000D01*
X133875000Y-84265000D02*
X133875000Y-78265000D01*
X133875000Y-84265000D02*
X133875000Y-84265000D01*
X151875000Y-98265000D02*
X151875000Y-98265000D01*
X133875000Y-98265000D02*
X151875000Y-98265000D01*
X133875000Y-98265000D02*
X133875000Y-98265000D01*
X151875000Y-98265000D02*
X133875000Y-98265000D01*
X133875000Y-78265000D02*
X133875000Y-78265000D01*
X151875000Y-78265000D02*
X133875000Y-78265000D01*
X151875000Y-78265000D02*
X151875000Y-78265000D01*
X133875000Y-78265000D02*
X151875000Y-78265000D01*
D10*
X132375000Y-85365000D02*
G75*
G02*
X132175000Y-85365000I-100000J0D01*
G01*
X132175000Y-85365000D02*
G75*
G02*
X132375000Y-85365000I100000J0D01*
G01*
X132375000Y-85365000D02*
G75*
G02*
X132175000Y-85365000I-100000J0D01*
G01*
D12*
%TO.C,C2*%
X153135000Y-112366248D02*
X153135000Y-112888752D01*
X151665000Y-112366248D02*
X151665000Y-112888752D01*
%TO.C,C3*%
X145388000Y-120539052D02*
X145388000Y-120016548D01*
X143918000Y-120539052D02*
X143918000Y-120016548D01*
%TO.C,C12*%
X175995000Y-98798748D02*
X175995000Y-99321252D01*
X174525000Y-98798748D02*
X174525000Y-99321252D01*
%TO.C,J1*%
X156150000Y-93920000D02*
X157480000Y-93920000D01*
X156150000Y-95250000D02*
X156150000Y-93920000D01*
X156150000Y-96520000D02*
X158810000Y-96520000D01*
X158810000Y-96520000D02*
X158810000Y-109280000D01*
X156150000Y-96520000D02*
X156150000Y-109280000D01*
X156150000Y-109280000D02*
X158810000Y-109280000D01*
D10*
%TO.C,J2*%
X124404000Y-104140000D02*
X124404000Y-96540000D01*
X124404000Y-96540000D02*
X116804000Y-96540000D01*
X116804000Y-96540000D02*
X116804000Y-106640000D01*
X116804000Y-106640000D02*
X120904000Y-106640000D01*
%TO.C,J4*%
X187615000Y-95925000D02*
X183515000Y-95925000D01*
X187615000Y-106025000D02*
X187615000Y-95925000D01*
X180015000Y-106025000D02*
X187615000Y-106025000D01*
X180015000Y-98425000D02*
X180015000Y-106025000D01*
D12*
%TO.C,J5*%
X155692800Y-86020600D02*
X155692800Y-88680600D01*
X168452800Y-86020600D02*
X155692800Y-86020600D01*
X168452800Y-88680600D02*
X155692800Y-88680600D01*
X168452800Y-86020600D02*
X168452800Y-88680600D01*
X169722800Y-86020600D02*
X171052800Y-86020600D01*
X171052800Y-86020600D02*
X171052800Y-87350600D01*
%TO.C,JP1*%
X160355000Y-95120000D02*
X160955000Y-95120000D01*
X159655000Y-97220000D02*
X159655000Y-95820000D01*
X160955000Y-97920000D02*
X160355000Y-97920000D01*
X161655000Y-95820000D02*
X161655000Y-97220000D01*
X160955000Y-95120000D02*
G75*
G02*
X161655000Y-95820000I0J-700000D01*
G01*
X159655000Y-95820000D02*
G75*
G02*
X160355000Y-95120000I700000J0D01*
G01*
X160355000Y-97920000D02*
G75*
G02*
X159655000Y-97220000I0J700000D01*
G01*
X161655000Y-97220000D02*
G75*
G02*
X160955000Y-97920000I-700000J0D01*
G01*
D11*
%TO.C,L1*%
X147320000Y-110510000D02*
X147320000Y-110510000D01*
X147320000Y-110610000D02*
X147320000Y-110610000D01*
X144320000Y-111110000D02*
X144320000Y-117110000D01*
X150320000Y-111110000D02*
X150320000Y-117110000D01*
X147320000Y-110510000D02*
G75*
G03*
X147320000Y-110610000I0J-50000D01*
G01*
X147320000Y-110610000D02*
G75*
G03*
X147320000Y-110510000I0J50000D01*
G01*
D12*
%TO.C,R1*%
X138657064Y-111225000D02*
X138202936Y-111225000D01*
X138657064Y-109755000D02*
X138202936Y-109755000D01*
%TO.C,R2*%
X138202936Y-112295000D02*
X138657064Y-112295000D01*
X138202936Y-113765000D02*
X138657064Y-113765000D01*
%TO.C,R11*%
X173455000Y-99287064D02*
X173455000Y-98832936D01*
X171985000Y-99287064D02*
X171985000Y-98832936D01*
D11*
%TO.C,S1*%
X129080000Y-101140000D02*
X135080000Y-101140000D01*
X135080000Y-101140000D02*
X135080000Y-107140000D01*
X135080000Y-107140000D02*
X129080000Y-107140000D01*
X129080000Y-107140000D02*
X129080000Y-101140000D01*
D10*
X125980000Y-101840000D02*
X125980000Y-101840000D01*
X125980000Y-102040000D02*
X125980000Y-102040000D01*
X125980000Y-101840000D02*
G75*
G03*
X125980000Y-102040000I0J-100000D01*
G01*
X125980000Y-102040000D02*
G75*
G03*
X125980000Y-101840000I0J100000D01*
G01*
%TO.C,S2*%
X140407200Y-102040000D02*
X140407200Y-102040000D01*
X140407200Y-101840000D02*
X140407200Y-101840000D01*
D11*
X143507200Y-107140000D02*
X143507200Y-101140000D01*
X149507200Y-107140000D02*
X143507200Y-107140000D01*
X149507200Y-101140000D02*
X149507200Y-107140000D01*
X143507200Y-101140000D02*
X149507200Y-101140000D01*
D10*
X140407200Y-102040000D02*
G75*
G03*
X140407200Y-101840000I0J100000D01*
G01*
X140407200Y-101840000D02*
G75*
G03*
X140407200Y-102040000I0J-100000D01*
G01*
%TO.C,U2*%
X141880000Y-120055000D02*
X140380000Y-120055000D01*
X140030000Y-115025000D02*
X140030000Y-119925000D01*
X136830000Y-115025000D02*
X140030000Y-115025000D01*
X136830000Y-119925000D02*
X136830000Y-115025000D01*
X140030000Y-119925000D02*
X136830000Y-119925000D01*
%TO.C,J3*%
X156320000Y-120650000D02*
X156320000Y-120650000D01*
X156520000Y-120650000D02*
X156520000Y-120650000D01*
D11*
X157520000Y-124150000D02*
X157520000Y-116650000D01*
X172520000Y-124150000D02*
X157520000Y-124150000D01*
X172520000Y-116650000D02*
X172520000Y-124150000D01*
X157520000Y-116650000D02*
X172520000Y-116650000D01*
D10*
X156320000Y-120650000D02*
G75*
G02*
X156520000Y-120650000I100000J0D01*
G01*
X156520000Y-120650000D02*
G75*
G02*
X156320000Y-120650000I-100000J0D01*
G01*
D12*
%TO.C,C14*%
X117433959Y-89895600D02*
X117433959Y-90525600D01*
X117118959Y-90210600D02*
X117748959Y-90210600D01*
X123860200Y-91647600D02*
X123860200Y-92451600D01*
X123820200Y-91416600D02*
X123820200Y-92682600D01*
X123780200Y-91247600D02*
X123780200Y-92851600D01*
X123740200Y-91109600D02*
X123740200Y-92989600D01*
X123700200Y-90990600D02*
X123700200Y-93108600D01*
X123660200Y-90884600D02*
X123660200Y-93214600D01*
X123620200Y-90787600D02*
X123620200Y-93311600D01*
X123580200Y-90699600D02*
X123580200Y-93399600D01*
X123540200Y-90617600D02*
X123540200Y-93481600D01*
X123500200Y-90540600D02*
X123500200Y-93558600D01*
X123460200Y-90468600D02*
X123460200Y-93630600D01*
X123420200Y-90399600D02*
X123420200Y-93699600D01*
X123380200Y-90335600D02*
X123380200Y-93763600D01*
X123340200Y-90273600D02*
X123340200Y-93825600D01*
X123300200Y-90215600D02*
X123300200Y-93883600D01*
X123260200Y-90159600D02*
X123260200Y-93939600D01*
X123220200Y-90105600D02*
X123220200Y-93993600D01*
X123180200Y-90054600D02*
X123180200Y-94044600D01*
X123140200Y-90005600D02*
X123140200Y-94093600D01*
X123100200Y-89957600D02*
X123100200Y-94141600D01*
X123060200Y-89912600D02*
X123060200Y-94186600D01*
X123020200Y-89867600D02*
X123020200Y-94231600D01*
X122980200Y-89825600D02*
X122980200Y-94273600D01*
X122940200Y-89784600D02*
X122940200Y-94314600D01*
X122900200Y-93089600D02*
X122900200Y-94354600D01*
X122900200Y-89744600D02*
X122900200Y-91009600D01*
X122860200Y-93089600D02*
X122860200Y-94392600D01*
X122860200Y-89706600D02*
X122860200Y-91009600D01*
X122820200Y-93089600D02*
X122820200Y-94429600D01*
X122820200Y-89669600D02*
X122820200Y-91009600D01*
X122780200Y-93089600D02*
X122780200Y-94465600D01*
X122780200Y-89633600D02*
X122780200Y-91009600D01*
X122740200Y-93089600D02*
X122740200Y-94499600D01*
X122740200Y-89599600D02*
X122740200Y-91009600D01*
X122700200Y-93089600D02*
X122700200Y-94533600D01*
X122700200Y-89565600D02*
X122700200Y-91009600D01*
X122660200Y-93089600D02*
X122660200Y-94565600D01*
X122660200Y-89533600D02*
X122660200Y-91009600D01*
X122620200Y-93089600D02*
X122620200Y-94597600D01*
X122620200Y-89501600D02*
X122620200Y-91009600D01*
X122580200Y-93089600D02*
X122580200Y-94627600D01*
X122580200Y-89471600D02*
X122580200Y-91009600D01*
X122540200Y-93089600D02*
X122540200Y-94656600D01*
X122540200Y-89442600D02*
X122540200Y-91009600D01*
X122500200Y-93089600D02*
X122500200Y-94685600D01*
X122500200Y-89413600D02*
X122500200Y-91009600D01*
X122460200Y-93089600D02*
X122460200Y-94713600D01*
X122460200Y-89385600D02*
X122460200Y-91009600D01*
X122420200Y-93089600D02*
X122420200Y-94739600D01*
X122420200Y-89359600D02*
X122420200Y-91009600D01*
X122380200Y-93089600D02*
X122380200Y-94765600D01*
X122380200Y-89333600D02*
X122380200Y-91009600D01*
X122340200Y-93089600D02*
X122340200Y-94791600D01*
X122340200Y-89307600D02*
X122340200Y-91009600D01*
X122300200Y-93089600D02*
X122300200Y-94815600D01*
X122300200Y-89283600D02*
X122300200Y-91009600D01*
X122260200Y-93089600D02*
X122260200Y-94839600D01*
X122260200Y-89259600D02*
X122260200Y-91009600D01*
X122220200Y-93089600D02*
X122220200Y-94861600D01*
X122220200Y-89237600D02*
X122220200Y-91009600D01*
X122180200Y-93089600D02*
X122180200Y-94883600D01*
X122180200Y-89215600D02*
X122180200Y-91009600D01*
X122140200Y-93089600D02*
X122140200Y-94905600D01*
X122140200Y-89193600D02*
X122140200Y-91009600D01*
X122100200Y-93089600D02*
X122100200Y-94925600D01*
X122100200Y-89173600D02*
X122100200Y-91009600D01*
X122060200Y-93089600D02*
X122060200Y-94945600D01*
X122060200Y-89153600D02*
X122060200Y-91009600D01*
X122020200Y-93089600D02*
X122020200Y-94965600D01*
X122020200Y-89133600D02*
X122020200Y-91009600D01*
X121980200Y-93089600D02*
X121980200Y-94983600D01*
X121980200Y-89115600D02*
X121980200Y-91009600D01*
X121940200Y-93089600D02*
X121940200Y-95001600D01*
X121940200Y-89097600D02*
X121940200Y-91009600D01*
X121900200Y-93089600D02*
X121900200Y-95019600D01*
X121900200Y-89079600D02*
X121900200Y-91009600D01*
X121860200Y-93089600D02*
X121860200Y-95035600D01*
X121860200Y-89063600D02*
X121860200Y-91009600D01*
X121820200Y-93089600D02*
X121820200Y-95051600D01*
X121820200Y-89047600D02*
X121820200Y-91009600D01*
X121780200Y-93089600D02*
X121780200Y-95067600D01*
X121780200Y-89031600D02*
X121780200Y-91009600D01*
X121740200Y-93089600D02*
X121740200Y-95082600D01*
X121740200Y-89016600D02*
X121740200Y-91009600D01*
X121700200Y-93089600D02*
X121700200Y-95096600D01*
X121700200Y-89002600D02*
X121700200Y-91009600D01*
X121660200Y-93089600D02*
X121660200Y-95110600D01*
X121660200Y-88988600D02*
X121660200Y-91009600D01*
X121620200Y-93089600D02*
X121620200Y-95123600D01*
X121620200Y-88975600D02*
X121620200Y-91009600D01*
X121580200Y-93089600D02*
X121580200Y-95135600D01*
X121580200Y-88963600D02*
X121580200Y-91009600D01*
X121540200Y-93089600D02*
X121540200Y-95147600D01*
X121540200Y-88951600D02*
X121540200Y-91009600D01*
X121500200Y-93089600D02*
X121500200Y-95159600D01*
X121500200Y-88939600D02*
X121500200Y-91009600D01*
X121460200Y-93089600D02*
X121460200Y-95170600D01*
X121460200Y-88928600D02*
X121460200Y-91009600D01*
X121420200Y-93089600D02*
X121420200Y-95180600D01*
X121420200Y-88918600D02*
X121420200Y-91009600D01*
X121380200Y-93089600D02*
X121380200Y-95190600D01*
X121380200Y-88908600D02*
X121380200Y-91009600D01*
X121340200Y-93089600D02*
X121340200Y-95199600D01*
X121340200Y-88899600D02*
X121340200Y-91009600D01*
X121299200Y-93089600D02*
X121299200Y-95208600D01*
X121299200Y-88890600D02*
X121299200Y-91009600D01*
X121259200Y-93089600D02*
X121259200Y-95216600D01*
X121259200Y-88882600D02*
X121259200Y-91009600D01*
X121219200Y-93089600D02*
X121219200Y-95224600D01*
X121219200Y-88874600D02*
X121219200Y-91009600D01*
X121179200Y-93089600D02*
X121179200Y-95231600D01*
X121179200Y-88867600D02*
X121179200Y-91009600D01*
X121139200Y-93089600D02*
X121139200Y-95238600D01*
X121139200Y-88860600D02*
X121139200Y-91009600D01*
X121099200Y-93089600D02*
X121099200Y-95244600D01*
X121099200Y-88854600D02*
X121099200Y-91009600D01*
X121059200Y-93089600D02*
X121059200Y-95250600D01*
X121059200Y-88848600D02*
X121059200Y-91009600D01*
X121019200Y-93089600D02*
X121019200Y-95255600D01*
X121019200Y-88843600D02*
X121019200Y-91009600D01*
X120979200Y-93089600D02*
X120979200Y-95260600D01*
X120979200Y-88838600D02*
X120979200Y-91009600D01*
X120939200Y-93089600D02*
X120939200Y-95264600D01*
X120939200Y-88834600D02*
X120939200Y-91009600D01*
X120899200Y-93089600D02*
X120899200Y-95267600D01*
X120899200Y-88831600D02*
X120899200Y-91009600D01*
X120859200Y-93089600D02*
X120859200Y-95271600D01*
X120859200Y-88827600D02*
X120859200Y-91009600D01*
X120819200Y-88825600D02*
X120819200Y-95273600D01*
X120779200Y-88822600D02*
X120779200Y-95276600D01*
X120739200Y-88821600D02*
X120739200Y-95277600D01*
X120699200Y-88819600D02*
X120699200Y-95279600D01*
X120659200Y-88819600D02*
X120659200Y-95279600D01*
X120619200Y-88819600D02*
X120619200Y-95279600D01*
X123889200Y-92049600D02*
G75*
G03*
X123889200Y-92049600I-3270000J0D01*
G01*
%TO.C,C15*%
X124154000Y-110845600D02*
G75*
G03*
X124154000Y-110845600I-3270000J0D01*
G01*
X120884000Y-107615600D02*
X120884000Y-114075600D01*
X120924000Y-107615600D02*
X120924000Y-114075600D01*
X120964000Y-107615600D02*
X120964000Y-114075600D01*
X121004000Y-107617600D02*
X121004000Y-114073600D01*
X121044000Y-107618600D02*
X121044000Y-114072600D01*
X121084000Y-107621600D02*
X121084000Y-114069600D01*
X121124000Y-107623600D02*
X121124000Y-109805600D01*
X121124000Y-111885600D02*
X121124000Y-114067600D01*
X121164000Y-107627600D02*
X121164000Y-109805600D01*
X121164000Y-111885600D02*
X121164000Y-114063600D01*
X121204000Y-107630600D02*
X121204000Y-109805600D01*
X121204000Y-111885600D02*
X121204000Y-114060600D01*
X121244000Y-107634600D02*
X121244000Y-109805600D01*
X121244000Y-111885600D02*
X121244000Y-114056600D01*
X121284000Y-107639600D02*
X121284000Y-109805600D01*
X121284000Y-111885600D02*
X121284000Y-114051600D01*
X121324000Y-107644600D02*
X121324000Y-109805600D01*
X121324000Y-111885600D02*
X121324000Y-114046600D01*
X121364000Y-107650600D02*
X121364000Y-109805600D01*
X121364000Y-111885600D02*
X121364000Y-114040600D01*
X121404000Y-107656600D02*
X121404000Y-109805600D01*
X121404000Y-111885600D02*
X121404000Y-114034600D01*
X121444000Y-107663600D02*
X121444000Y-109805600D01*
X121444000Y-111885600D02*
X121444000Y-114027600D01*
X121484000Y-107670600D02*
X121484000Y-109805600D01*
X121484000Y-111885600D02*
X121484000Y-114020600D01*
X121524000Y-107678600D02*
X121524000Y-109805600D01*
X121524000Y-111885600D02*
X121524000Y-114012600D01*
X121564000Y-107686600D02*
X121564000Y-109805600D01*
X121564000Y-111885600D02*
X121564000Y-114004600D01*
X121605000Y-107695600D02*
X121605000Y-109805600D01*
X121605000Y-111885600D02*
X121605000Y-113995600D01*
X121645000Y-107704600D02*
X121645000Y-109805600D01*
X121645000Y-111885600D02*
X121645000Y-113986600D01*
X121685000Y-107714600D02*
X121685000Y-109805600D01*
X121685000Y-111885600D02*
X121685000Y-113976600D01*
X121725000Y-107724600D02*
X121725000Y-109805600D01*
X121725000Y-111885600D02*
X121725000Y-113966600D01*
X121765000Y-107735600D02*
X121765000Y-109805600D01*
X121765000Y-111885600D02*
X121765000Y-113955600D01*
X121805000Y-107747600D02*
X121805000Y-109805600D01*
X121805000Y-111885600D02*
X121805000Y-113943600D01*
X121845000Y-107759600D02*
X121845000Y-109805600D01*
X121845000Y-111885600D02*
X121845000Y-113931600D01*
X121885000Y-107771600D02*
X121885000Y-109805600D01*
X121885000Y-111885600D02*
X121885000Y-113919600D01*
X121925000Y-107784600D02*
X121925000Y-109805600D01*
X121925000Y-111885600D02*
X121925000Y-113906600D01*
X121965000Y-107798600D02*
X121965000Y-109805600D01*
X121965000Y-111885600D02*
X121965000Y-113892600D01*
X122005000Y-107812600D02*
X122005000Y-109805600D01*
X122005000Y-111885600D02*
X122005000Y-113878600D01*
X122045000Y-107827600D02*
X122045000Y-109805600D01*
X122045000Y-111885600D02*
X122045000Y-113863600D01*
X122085000Y-107843600D02*
X122085000Y-109805600D01*
X122085000Y-111885600D02*
X122085000Y-113847600D01*
X122125000Y-107859600D02*
X122125000Y-109805600D01*
X122125000Y-111885600D02*
X122125000Y-113831600D01*
X122165000Y-107875600D02*
X122165000Y-109805600D01*
X122165000Y-111885600D02*
X122165000Y-113815600D01*
X122205000Y-107893600D02*
X122205000Y-109805600D01*
X122205000Y-111885600D02*
X122205000Y-113797600D01*
X122245000Y-107911600D02*
X122245000Y-109805600D01*
X122245000Y-111885600D02*
X122245000Y-113779600D01*
X122285000Y-107929600D02*
X122285000Y-109805600D01*
X122285000Y-111885600D02*
X122285000Y-113761600D01*
X122325000Y-107949600D02*
X122325000Y-109805600D01*
X122325000Y-111885600D02*
X122325000Y-113741600D01*
X122365000Y-107969600D02*
X122365000Y-109805600D01*
X122365000Y-111885600D02*
X122365000Y-113721600D01*
X122405000Y-107989600D02*
X122405000Y-109805600D01*
X122405000Y-111885600D02*
X122405000Y-113701600D01*
X122445000Y-108011600D02*
X122445000Y-109805600D01*
X122445000Y-111885600D02*
X122445000Y-113679600D01*
X122485000Y-108033600D02*
X122485000Y-109805600D01*
X122485000Y-111885600D02*
X122485000Y-113657600D01*
X122525000Y-108055600D02*
X122525000Y-109805600D01*
X122525000Y-111885600D02*
X122525000Y-113635600D01*
X122565000Y-108079600D02*
X122565000Y-109805600D01*
X122565000Y-111885600D02*
X122565000Y-113611600D01*
X122605000Y-108103600D02*
X122605000Y-109805600D01*
X122605000Y-111885600D02*
X122605000Y-113587600D01*
X122645000Y-108129600D02*
X122645000Y-109805600D01*
X122645000Y-111885600D02*
X122645000Y-113561600D01*
X122685000Y-108155600D02*
X122685000Y-109805600D01*
X122685000Y-111885600D02*
X122685000Y-113535600D01*
X122725000Y-108181600D02*
X122725000Y-109805600D01*
X122725000Y-111885600D02*
X122725000Y-113509600D01*
X122765000Y-108209600D02*
X122765000Y-109805600D01*
X122765000Y-111885600D02*
X122765000Y-113481600D01*
X122805000Y-108238600D02*
X122805000Y-109805600D01*
X122805000Y-111885600D02*
X122805000Y-113452600D01*
X122845000Y-108267600D02*
X122845000Y-109805600D01*
X122845000Y-111885600D02*
X122845000Y-113423600D01*
X122885000Y-108297600D02*
X122885000Y-109805600D01*
X122885000Y-111885600D02*
X122885000Y-113393600D01*
X122925000Y-108329600D02*
X122925000Y-109805600D01*
X122925000Y-111885600D02*
X122925000Y-113361600D01*
X122965000Y-108361600D02*
X122965000Y-109805600D01*
X122965000Y-111885600D02*
X122965000Y-113329600D01*
X123005000Y-108395600D02*
X123005000Y-109805600D01*
X123005000Y-111885600D02*
X123005000Y-113295600D01*
X123045000Y-108429600D02*
X123045000Y-109805600D01*
X123045000Y-111885600D02*
X123045000Y-113261600D01*
X123085000Y-108465600D02*
X123085000Y-109805600D01*
X123085000Y-111885600D02*
X123085000Y-113225600D01*
X123125000Y-108502600D02*
X123125000Y-109805600D01*
X123125000Y-111885600D02*
X123125000Y-113188600D01*
X123165000Y-108540600D02*
X123165000Y-109805600D01*
X123165000Y-111885600D02*
X123165000Y-113150600D01*
X123205000Y-108580600D02*
X123205000Y-113110600D01*
X123245000Y-108621600D02*
X123245000Y-113069600D01*
X123285000Y-108663600D02*
X123285000Y-113027600D01*
X123325000Y-108708600D02*
X123325000Y-112982600D01*
X123365000Y-108753600D02*
X123365000Y-112937600D01*
X123405000Y-108801600D02*
X123405000Y-112889600D01*
X123445000Y-108850600D02*
X123445000Y-112840600D01*
X123485000Y-108901600D02*
X123485000Y-112789600D01*
X123525000Y-108955600D02*
X123525000Y-112735600D01*
X123565000Y-109011600D02*
X123565000Y-112679600D01*
X123605000Y-109069600D02*
X123605000Y-112621600D01*
X123645000Y-109131600D02*
X123645000Y-112559600D01*
X123685000Y-109195600D02*
X123685000Y-112495600D01*
X123725000Y-109264600D02*
X123725000Y-112426600D01*
X123765000Y-109336600D02*
X123765000Y-112354600D01*
X123805000Y-109413600D02*
X123805000Y-112277600D01*
X123845000Y-109495600D02*
X123845000Y-112195600D01*
X123885000Y-109583600D02*
X123885000Y-112107600D01*
X123925000Y-109680600D02*
X123925000Y-112010600D01*
X123965000Y-109786600D02*
X123965000Y-111904600D01*
X124005000Y-109905600D02*
X124005000Y-111785600D01*
X124045000Y-110043600D02*
X124045000Y-111647600D01*
X124085000Y-110212600D02*
X124085000Y-111478600D01*
X124125000Y-110443600D02*
X124125000Y-111247600D01*
X117383759Y-109006600D02*
X118013759Y-109006600D01*
X117698759Y-108691600D02*
X117698759Y-109321600D01*
%TO.C,U1*%
D13*
X141357380Y-87569523D02*
X141357380Y-88597619D01*
X141417857Y-88718571D01*
X141478333Y-88779047D01*
X141599285Y-88839523D01*
X141841190Y-88839523D01*
X141962142Y-88779047D01*
X142022619Y-88718571D01*
X142083095Y-88597619D01*
X142083095Y-87569523D01*
X143353095Y-88839523D02*
X142627380Y-88839523D01*
X142990238Y-88839523D02*
X142990238Y-87569523D01*
X142869285Y-87750952D01*
X142748333Y-87871904D01*
X142627380Y-87932380D01*
%TO.C,C2*%
D14*
X154437142Y-112794166D02*
X154484761Y-112841785D01*
X154532380Y-112984642D01*
X154532380Y-113079880D01*
X154484761Y-113222738D01*
X154389523Y-113317976D01*
X154294285Y-113365595D01*
X154103809Y-113413214D01*
X153960952Y-113413214D01*
X153770476Y-113365595D01*
X153675238Y-113317976D01*
X153580000Y-113222738D01*
X153532380Y-113079880D01*
X153532380Y-112984642D01*
X153580000Y-112841785D01*
X153627619Y-112794166D01*
X153627619Y-112413214D02*
X153580000Y-112365595D01*
X153532380Y-112270357D01*
X153532380Y-112032261D01*
X153580000Y-111937023D01*
X153627619Y-111889404D01*
X153722857Y-111841785D01*
X153818095Y-111841785D01*
X153960952Y-111889404D01*
X154532380Y-112460833D01*
X154532380Y-111841785D01*
%TO.C,C3*%
X143359142Y-98083666D02*
X143406761Y-98131285D01*
X143454380Y-98274142D01*
X143454380Y-98369380D01*
X143406761Y-98512238D01*
X143311523Y-98607476D01*
X143216285Y-98655095D01*
X143025809Y-98702714D01*
X142882952Y-98702714D01*
X142692476Y-98655095D01*
X142597238Y-98607476D01*
X142502000Y-98512238D01*
X142454380Y-98369380D01*
X142454380Y-98274142D01*
X142502000Y-98131285D01*
X142549619Y-98083666D01*
X142454380Y-97750333D02*
X142454380Y-97131285D01*
X142835333Y-97464619D01*
X142835333Y-97321761D01*
X142882952Y-97226523D01*
X142930571Y-97178904D01*
X143025809Y-97131285D01*
X143263904Y-97131285D01*
X143359142Y-97178904D01*
X143406761Y-97226523D01*
X143454380Y-97321761D01*
X143454380Y-97607476D01*
X143406761Y-97702714D01*
X143359142Y-97750333D01*
%TO.C,C12*%
X177297142Y-99702857D02*
X177344761Y-99750476D01*
X177392380Y-99893333D01*
X177392380Y-99988571D01*
X177344761Y-100131428D01*
X177249523Y-100226666D01*
X177154285Y-100274285D01*
X176963809Y-100321904D01*
X176820952Y-100321904D01*
X176630476Y-100274285D01*
X176535238Y-100226666D01*
X176440000Y-100131428D01*
X176392380Y-99988571D01*
X176392380Y-99893333D01*
X176440000Y-99750476D01*
X176487619Y-99702857D01*
X177392380Y-98750476D02*
X177392380Y-99321904D01*
X177392380Y-99036190D02*
X176392380Y-99036190D01*
X176535238Y-99131428D01*
X176630476Y-99226666D01*
X176678095Y-99321904D01*
X176487619Y-98369523D02*
X176440000Y-98321904D01*
X176392380Y-98226666D01*
X176392380Y-97988571D01*
X176440000Y-97893333D01*
X176487619Y-97845714D01*
X176582857Y-97798095D01*
X176678095Y-97798095D01*
X176820952Y-97845714D01*
X177392380Y-98417142D01*
X177392380Y-97798095D01*
%TO.C,J1*%
X157146666Y-92372380D02*
X157146666Y-93086666D01*
X157099047Y-93229523D01*
X157003809Y-93324761D01*
X156860952Y-93372380D01*
X156765714Y-93372380D01*
X158146666Y-93372380D02*
X157575238Y-93372380D01*
X157860952Y-93372380D02*
X157860952Y-92372380D01*
X157765714Y-92515238D01*
X157670476Y-92610476D01*
X157575238Y-92658095D01*
%TO.C,J2*%
D13*
X125509866Y-96484923D02*
X125509866Y-97392066D01*
X125449390Y-97573495D01*
X125328438Y-97694447D01*
X125147009Y-97754923D01*
X125026057Y-97754923D01*
X126054152Y-96605876D02*
X126114628Y-96545400D01*
X126235580Y-96484923D01*
X126537961Y-96484923D01*
X126658914Y-96545400D01*
X126719390Y-96605876D01*
X126779866Y-96726828D01*
X126779866Y-96847780D01*
X126719390Y-97029209D01*
X125993676Y-97754923D01*
X126779866Y-97754923D01*
%TO.C,J4*%
X183218666Y-93538523D02*
X183218666Y-94445666D01*
X183158190Y-94627095D01*
X183037238Y-94748047D01*
X182855809Y-94808523D01*
X182734857Y-94808523D01*
X184367714Y-93961857D02*
X184367714Y-94808523D01*
X184065333Y-93478047D02*
X183762952Y-94385190D01*
X184549142Y-94385190D01*
%TO.C,J5*%
D14*
X171505180Y-87683933D02*
X172219466Y-87683933D01*
X172362323Y-87731552D01*
X172457561Y-87826790D01*
X172505180Y-87969647D01*
X172505180Y-88064885D01*
X171505180Y-86731552D02*
X171505180Y-87207742D01*
X171981371Y-87255361D01*
X171933752Y-87207742D01*
X171886133Y-87112504D01*
X171886133Y-86874409D01*
X171933752Y-86779171D01*
X171981371Y-86731552D01*
X172076609Y-86683933D01*
X172314704Y-86683933D01*
X172409942Y-86731552D01*
X172457561Y-86779171D01*
X172505180Y-86874409D01*
X172505180Y-87112504D01*
X172457561Y-87207742D01*
X172409942Y-87255361D01*
%TO.C,JP1*%
X161907380Y-97353333D02*
X162621666Y-97353333D01*
X162764523Y-97400952D01*
X162859761Y-97496190D01*
X162907380Y-97639047D01*
X162907380Y-97734285D01*
X162907380Y-96877142D02*
X161907380Y-96877142D01*
X161907380Y-96496190D01*
X161955000Y-96400952D01*
X162002619Y-96353333D01*
X162097857Y-96305714D01*
X162240714Y-96305714D01*
X162335952Y-96353333D01*
X162383571Y-96400952D01*
X162431190Y-96496190D01*
X162431190Y-96877142D01*
X162907380Y-95353333D02*
X162907380Y-95924761D01*
X162907380Y-95639047D02*
X161907380Y-95639047D01*
X162050238Y-95734285D01*
X162145476Y-95829523D01*
X162193095Y-95924761D01*
%TO.C,L1*%
D13*
X147894523Y-114096666D02*
X147894523Y-114701428D01*
X146624523Y-114701428D01*
X147894523Y-113008095D02*
X147894523Y-113733809D01*
X147894523Y-113370952D02*
X146624523Y-113370952D01*
X146805952Y-113491904D01*
X146926904Y-113612857D01*
X146987380Y-113733809D01*
%TO.C,R1*%
D14*
X135215333Y-110942380D02*
X134882000Y-110466190D01*
X134643904Y-110942380D02*
X134643904Y-109942380D01*
X135024857Y-109942380D01*
X135120095Y-109990000D01*
X135167714Y-110037619D01*
X135215333Y-110132857D01*
X135215333Y-110275714D01*
X135167714Y-110370952D01*
X135120095Y-110418571D01*
X135024857Y-110466190D01*
X134643904Y-110466190D01*
X136167714Y-110942380D02*
X135596285Y-110942380D01*
X135882000Y-110942380D02*
X135882000Y-109942380D01*
X135786761Y-110085238D01*
X135691523Y-110180476D01*
X135596285Y-110228095D01*
%TO.C,R2*%
X135088333Y-113482380D02*
X134755000Y-113006190D01*
X134516904Y-113482380D02*
X134516904Y-112482380D01*
X134897857Y-112482380D01*
X134993095Y-112530000D01*
X135040714Y-112577619D01*
X135088333Y-112672857D01*
X135088333Y-112815714D01*
X135040714Y-112910952D01*
X134993095Y-112958571D01*
X134897857Y-113006190D01*
X134516904Y-113006190D01*
X135469285Y-112577619D02*
X135516904Y-112530000D01*
X135612142Y-112482380D01*
X135850238Y-112482380D01*
X135945476Y-112530000D01*
X135993095Y-112577619D01*
X136040714Y-112672857D01*
X136040714Y-112768095D01*
X135993095Y-112910952D01*
X135421666Y-113482380D01*
X136040714Y-113482380D01*
%TO.C,R11*%
X171522380Y-99702857D02*
X171046190Y-100036190D01*
X171522380Y-100274285D02*
X170522380Y-100274285D01*
X170522380Y-99893333D01*
X170570000Y-99798095D01*
X170617619Y-99750476D01*
X170712857Y-99702857D01*
X170855714Y-99702857D01*
X170950952Y-99750476D01*
X170998571Y-99798095D01*
X171046190Y-99893333D01*
X171046190Y-100274285D01*
X171522380Y-98750476D02*
X171522380Y-99321904D01*
X171522380Y-99036190D02*
X170522380Y-99036190D01*
X170665238Y-99131428D01*
X170760476Y-99226666D01*
X170808095Y-99321904D01*
X171522380Y-97798095D02*
X171522380Y-98369523D01*
X171522380Y-98083809D02*
X170522380Y-98083809D01*
X170665238Y-98179047D01*
X170760476Y-98274285D01*
X170808095Y-98369523D01*
%TO.C,S1*%
D13*
X130812380Y-104654047D02*
X130993809Y-104714523D01*
X131296190Y-104714523D01*
X131417142Y-104654047D01*
X131477619Y-104593571D01*
X131538095Y-104472619D01*
X131538095Y-104351666D01*
X131477619Y-104230714D01*
X131417142Y-104170238D01*
X131296190Y-104109761D01*
X131054285Y-104049285D01*
X130933333Y-103988809D01*
X130872857Y-103928333D01*
X130812380Y-103807380D01*
X130812380Y-103686428D01*
X130872857Y-103565476D01*
X130933333Y-103505000D01*
X131054285Y-103444523D01*
X131356666Y-103444523D01*
X131538095Y-103505000D01*
X132747619Y-104714523D02*
X132021904Y-104714523D01*
X132384761Y-104714523D02*
X132384761Y-103444523D01*
X132263809Y-103625952D01*
X132142857Y-103746904D01*
X132021904Y-103807380D01*
%TO.C,S2*%
X145239580Y-104654047D02*
X145421009Y-104714523D01*
X145723390Y-104714523D01*
X145844342Y-104654047D01*
X145904819Y-104593571D01*
X145965295Y-104472619D01*
X145965295Y-104351666D01*
X145904819Y-104230714D01*
X145844342Y-104170238D01*
X145723390Y-104109761D01*
X145481485Y-104049285D01*
X145360533Y-103988809D01*
X145300057Y-103928333D01*
X145239580Y-103807380D01*
X145239580Y-103686428D01*
X145300057Y-103565476D01*
X145360533Y-103505000D01*
X145481485Y-103444523D01*
X145783866Y-103444523D01*
X145965295Y-103505000D01*
X146449104Y-103565476D02*
X146509580Y-103505000D01*
X146630533Y-103444523D01*
X146932914Y-103444523D01*
X147053866Y-103505000D01*
X147114342Y-103565476D01*
X147174819Y-103686428D01*
X147174819Y-103807380D01*
X147114342Y-103988809D01*
X146388628Y-104714523D01*
X147174819Y-104714523D01*
%TO.C,U2*%
X137462380Y-116779523D02*
X137462380Y-117807619D01*
X137522857Y-117928571D01*
X137583333Y-117989047D01*
X137704285Y-118049523D01*
X137946190Y-118049523D01*
X138067142Y-117989047D01*
X138127619Y-117928571D01*
X138188095Y-117807619D01*
X138188095Y-116779523D01*
X138732380Y-116900476D02*
X138792857Y-116840000D01*
X138913809Y-116779523D01*
X139216190Y-116779523D01*
X139337142Y-116840000D01*
X139397619Y-116900476D01*
X139458095Y-117021428D01*
X139458095Y-117142380D01*
X139397619Y-117323809D01*
X138671904Y-118049523D01*
X139458095Y-118049523D01*
%TO.C,J3*%
X164676666Y-114620523D02*
X164676666Y-115527666D01*
X164616190Y-115709095D01*
X164495238Y-115830047D01*
X164313809Y-115890523D01*
X164192857Y-115890523D01*
X165160476Y-114620523D02*
X165946666Y-114620523D01*
X165523333Y-115104333D01*
X165704761Y-115104333D01*
X165825714Y-115164809D01*
X165886190Y-115225285D01*
X165946666Y-115346238D01*
X165946666Y-115648619D01*
X165886190Y-115769571D01*
X165825714Y-115830047D01*
X165704761Y-115890523D01*
X165341904Y-115890523D01*
X165220952Y-115830047D01*
X165160476Y-115769571D01*
%TO.C,C14*%
D14*
X124325142Y-94895942D02*
X124277523Y-94943561D01*
X124134666Y-94991180D01*
X124039428Y-94991180D01*
X123896571Y-94943561D01*
X123801333Y-94848323D01*
X123753714Y-94753085D01*
X123706095Y-94562609D01*
X123706095Y-94419752D01*
X123753714Y-94229276D01*
X123801333Y-94134038D01*
X123896571Y-94038800D01*
X124039428Y-93991180D01*
X124134666Y-93991180D01*
X124277523Y-94038800D01*
X124325142Y-94086419D01*
X125277523Y-94991180D02*
X124706095Y-94991180D01*
X124991809Y-94991180D02*
X124991809Y-93991180D01*
X124896571Y-94134038D01*
X124801333Y-94229276D01*
X124706095Y-94276895D01*
X126134666Y-94324514D02*
X126134666Y-94991180D01*
X125896571Y-93943561D02*
X125658476Y-94657847D01*
X126277523Y-94657847D01*
%TO.C,C15*%
X124883942Y-109424742D02*
X124836323Y-109472361D01*
X124693466Y-109519980D01*
X124598228Y-109519980D01*
X124455371Y-109472361D01*
X124360133Y-109377123D01*
X124312514Y-109281885D01*
X124264895Y-109091409D01*
X124264895Y-108948552D01*
X124312514Y-108758076D01*
X124360133Y-108662838D01*
X124455371Y-108567600D01*
X124598228Y-108519980D01*
X124693466Y-108519980D01*
X124836323Y-108567600D01*
X124883942Y-108615219D01*
X125836323Y-109519980D02*
X125264895Y-109519980D01*
X125550609Y-109519980D02*
X125550609Y-108519980D01*
X125455371Y-108662838D01*
X125360133Y-108758076D01*
X125264895Y-108805695D01*
X126741085Y-108519980D02*
X126264895Y-108519980D01*
X126217276Y-108996171D01*
X126264895Y-108948552D01*
X126360133Y-108900933D01*
X126598228Y-108900933D01*
X126693466Y-108948552D01*
X126741085Y-108996171D01*
X126788704Y-109091409D01*
X126788704Y-109329504D01*
X126741085Y-109424742D01*
X126693466Y-109472361D01*
X126598228Y-109519980D01*
X126360133Y-109519980D01*
X126264895Y-109472361D01*
X126217276Y-109424742D01*
%TD*%
M02*
