%TF.GenerationSoftware,KiCad,Pcbnew,(5.1.8-0-10_14)*%
%TF.CreationDate,2021-08-05T18:18:29-06:00*%
%TF.ProjectId,ESP8266_Water_Sensor,45535038-3236-4365-9f57-617465725f53,rev?*%
%TF.SameCoordinates,Original*%
%TF.FileFunction,Copper,L3,Inr*%
%TF.FilePolarity,Positive*%
%FSLAX46Y46*%
G04 Gerber Fmt 4.6, Leading zero omitted, Abs format (unit mm)*
G04 Created by KiCad (PCBNEW (5.1.8-0-10_14)) date 2021-08-05 18:18:29*
%MOMM*%
%LPD*%
G01*
G04 APERTURE LIST*
%TA.AperFunction,ComponentPad*%
%ADD10R,1.700000X1.700000*%
%TD*%
%TA.AperFunction,ComponentPad*%
%ADD11O,1.700000X1.700000*%
%TD*%
%TA.AperFunction,ComponentPad*%
%ADD12C,1.800000*%
%TD*%
%TA.AperFunction,ComponentPad*%
%ADD13R,1.800000X1.800000*%
%TD*%
%TA.AperFunction,ComponentPad*%
%ADD14C,1.950000*%
%TD*%
%TA.AperFunction,ComponentPad*%
%ADD15C,1.600000*%
%TD*%
%TA.AperFunction,ComponentPad*%
%ADD16R,1.600000X1.600000*%
%TD*%
%TA.AperFunction,ViaPad*%
%ADD17C,0.762000*%
%TD*%
%TA.AperFunction,Conductor*%
%ADD18C,0.254000*%
%TD*%
%TA.AperFunction,Conductor*%
%ADD19C,0.100000*%
%TD*%
G04 APERTURE END LIST*
D10*
%TO.N,+3V3*%
%TO.C,J1*%
X157480000Y-95250000D03*
D11*
%TO.N,Net-(J1-Pad2)*%
X157480000Y-97790000D03*
%TO.N,GND*%
X157480000Y-100330000D03*
%TO.N,/I2C_SCL*%
X157480000Y-102870000D03*
%TO.N,/I2C_SDA*%
X157480000Y-105410000D03*
%TO.N,/MPU_INT*%
X157480000Y-107950000D03*
%TD*%
D12*
%TO.N,GND*%
%TO.C,J2*%
X120904000Y-99140000D03*
D13*
%TO.N,+12V*%
X120904000Y-104140000D03*
%TD*%
%TO.N,/water_voltage*%
%TO.C,J4*%
X183515000Y-98425000D03*
D12*
%TO.N,GND*%
X183515000Y-103425000D03*
%TD*%
D11*
%TO.N,/CTS_NC*%
%TO.C,J5*%
X157022800Y-87350600D03*
%TO.N,/RTS_NC*%
X159562800Y-87350600D03*
%TO.N,/ESP_TXD*%
X162102800Y-87350600D03*
%TO.N,/ESP_RXD*%
X164642800Y-87350600D03*
%TO.N,GND*%
X167182800Y-87350600D03*
D10*
%TO.N,+3V3*%
X169722800Y-87350600D03*
%TD*%
D14*
%TO.N,+12V*%
%TO.C,J3*%
X160020000Y-120650000D03*
%TO.N,/GPIO12*%
X165020000Y-120650000D03*
%TO.N,GND*%
X170020000Y-120650000D03*
%TD*%
D15*
%TO.N,GND*%
%TO.C,C14*%
X121869200Y-92049600D03*
D16*
%TO.N,+12V*%
X119369200Y-92049600D03*
%TD*%
%TO.N,+12V*%
%TO.C,C15*%
X119634000Y-110845600D03*
D15*
%TO.N,GND*%
X122134000Y-110845600D03*
%TD*%
D17*
%TO.N,+3V3*%
X144272000Y-108585000D03*
X145542000Y-108585000D03*
X146812000Y-108585000D03*
X148082000Y-108585000D03*
X149352000Y-108585000D03*
X150622000Y-108585000D03*
X172720000Y-101854000D03*
X136377000Y-85365000D03*
X131699000Y-85344000D03*
X145574000Y-85249000D03*
%TO.N,GND*%
X131735000Y-106390000D03*
X146975000Y-106390000D03*
X175260000Y-101727000D03*
X153769000Y-92865000D03*
X149253000Y-92865000D03*
X153671938Y-85365000D03*
X149458000Y-85365000D03*
X136354000Y-97365000D03*
X134125000Y-99301000D03*
X154813000Y-113665000D03*
X152400000Y-115951000D03*
X141351000Y-113411000D03*
X138176000Y-114681000D03*
X138176000Y-116205000D03*
X129540000Y-118745000D03*
X127381000Y-121158000D03*
X141224000Y-85344000D03*
X141224000Y-86995000D03*
X141224000Y-88773000D03*
%TO.N,+12V*%
X139192000Y-118110000D03*
X137668000Y-119507000D03*
X139192000Y-119507000D03*
X137668000Y-120904000D03*
X137668000Y-118110000D03*
X139192000Y-120904000D03*
%TO.N,/ESP_EN*%
X141351000Y-100076000D03*
%TO.N,/ESP_RST_L*%
X149530000Y-89865000D03*
%TO.N,/GPIO0*%
X131846000Y-95865000D03*
%TO.N,/GPIO16*%
X149482000Y-86865000D03*
%TO.N,/GPIO15*%
X136116000Y-92865000D03*
%TO.N,/U2_SS*%
X131699000Y-119380000D03*
%TO.N,/U2_COMP*%
X133477000Y-116840000D03*
%TO.N,/U2_EN*%
X131699000Y-118110000D03*
%TD*%
D18*
%TO.N,+12V*%
X125133479Y-87467085D02*
X125049823Y-87550740D01*
X124617598Y-88197610D01*
X124319877Y-88916373D01*
X124168100Y-89679408D01*
X124168100Y-90457392D01*
X124319877Y-91220427D01*
X124617598Y-91939190D01*
X125049823Y-92586060D01*
X125599940Y-93136177D01*
X126246810Y-93568402D01*
X126965573Y-93866123D01*
X127728608Y-94017900D01*
X128506592Y-94017900D01*
X129269627Y-93866123D01*
X129988390Y-93568402D01*
X130635260Y-93136177D01*
X130718916Y-93052522D01*
X135411900Y-97745506D01*
X135453632Y-97846256D01*
X135564821Y-98012662D01*
X135706338Y-98154179D01*
X135872744Y-98265368D01*
X135973494Y-98307100D01*
X140970000Y-103303606D01*
X140970000Y-108712000D01*
X140972440Y-108736776D01*
X140979667Y-108760601D01*
X140991403Y-108782557D01*
X141007197Y-108801803D01*
X143293197Y-111087803D01*
X143312443Y-111103597D01*
X143334399Y-111115333D01*
X143358224Y-111122560D01*
X143383000Y-111125000D01*
X173273143Y-111125000D01*
X173182398Y-111260810D01*
X172884677Y-111979573D01*
X172732900Y-112742608D01*
X172732900Y-113520592D01*
X172884677Y-114283627D01*
X173182398Y-115002390D01*
X173614623Y-115649260D01*
X174164740Y-116199377D01*
X174811610Y-116631602D01*
X175530373Y-116929323D01*
X176293408Y-117081100D01*
X177071392Y-117081100D01*
X177834427Y-116929323D01*
X178553190Y-116631602D01*
X179200060Y-116199377D01*
X179750177Y-115649260D01*
X180182402Y-115002390D01*
X180480123Y-114283627D01*
X180631900Y-113520592D01*
X180631900Y-112742608D01*
X180480123Y-111979573D01*
X180182402Y-111260810D01*
X180091657Y-111125000D01*
X187693301Y-111125000D01*
X187693301Y-115379500D01*
X182848191Y-115379500D01*
X182818852Y-115382390D01*
X182798244Y-115382246D01*
X182789244Y-115383128D01*
X182148337Y-115450491D01*
X182090814Y-115462299D01*
X182033168Y-115473295D01*
X182024513Y-115475908D01*
X182024507Y-115475910D01*
X181408894Y-115666474D01*
X181354726Y-115689244D01*
X181300347Y-115711214D01*
X181292367Y-115715457D01*
X181292362Y-115715459D01*
X181292361Y-115715460D01*
X180725483Y-116021969D01*
X180676765Y-116054830D01*
X180627694Y-116086941D01*
X180620691Y-116092652D01*
X180620685Y-116092656D01*
X180620680Y-116092661D01*
X180124138Y-116503436D01*
X180082735Y-116545128D01*
X180040830Y-116586165D01*
X180035070Y-116593127D01*
X180035065Y-116593132D01*
X180035061Y-116593137D01*
X179627762Y-117092536D01*
X179595256Y-117141461D01*
X179562110Y-117189869D01*
X179557813Y-117197816D01*
X179557808Y-117197824D01*
X179557805Y-117197832D01*
X179255264Y-117766830D01*
X179232911Y-117821063D01*
X179209767Y-117875061D01*
X179207093Y-117883700D01*
X179020830Y-118500632D01*
X179009425Y-118558232D01*
X178997222Y-118615640D01*
X178996277Y-118624633D01*
X178933391Y-119265996D01*
X178933391Y-119266010D01*
X178930300Y-119297392D01*
X178930301Y-124142500D01*
X125869700Y-124142500D01*
X125869700Y-121057933D01*
X126365000Y-121057933D01*
X126365000Y-121258067D01*
X126404044Y-121454356D01*
X126480632Y-121639256D01*
X126591821Y-121805662D01*
X126733338Y-121947179D01*
X126899744Y-122058368D01*
X127084644Y-122134956D01*
X127280933Y-122174000D01*
X127481067Y-122174000D01*
X127677356Y-122134956D01*
X127862256Y-122058368D01*
X128028662Y-121947179D01*
X128170179Y-121805662D01*
X128195621Y-121767584D01*
X159082021Y-121767584D01*
X159174766Y-122029429D01*
X159460120Y-122167820D01*
X159766990Y-122247883D01*
X160083584Y-122266540D01*
X160397733Y-122223074D01*
X160697367Y-122119156D01*
X160865234Y-122029429D01*
X160957979Y-121767584D01*
X160020000Y-120829605D01*
X159082021Y-121767584D01*
X128195621Y-121767584D01*
X128281368Y-121639256D01*
X128357956Y-121454356D01*
X128397000Y-121258067D01*
X128397000Y-121057933D01*
X128357956Y-120861644D01*
X128296628Y-120713584D01*
X158403460Y-120713584D01*
X158446926Y-121027733D01*
X158550844Y-121327367D01*
X158640571Y-121495234D01*
X158902416Y-121587979D01*
X159840395Y-120650000D01*
X160199605Y-120650000D01*
X161137584Y-121587979D01*
X161399429Y-121495234D01*
X161537820Y-121209880D01*
X161617883Y-120903010D01*
X161636540Y-120586416D01*
X161623398Y-120491429D01*
X163410000Y-120491429D01*
X163410000Y-120808571D01*
X163471871Y-121119620D01*
X163593237Y-121412621D01*
X163769431Y-121676315D01*
X163993685Y-121900569D01*
X164257379Y-122076763D01*
X164550380Y-122198129D01*
X164861429Y-122260000D01*
X165178571Y-122260000D01*
X165489620Y-122198129D01*
X165782621Y-122076763D01*
X166046315Y-121900569D01*
X166270569Y-121676315D01*
X166446763Y-121412621D01*
X166568129Y-121119620D01*
X166630000Y-120808571D01*
X166630000Y-120491429D01*
X168410000Y-120491429D01*
X168410000Y-120808571D01*
X168471871Y-121119620D01*
X168593237Y-121412621D01*
X168769431Y-121676315D01*
X168993685Y-121900569D01*
X169257379Y-122076763D01*
X169550380Y-122198129D01*
X169861429Y-122260000D01*
X170178571Y-122260000D01*
X170489620Y-122198129D01*
X170782621Y-122076763D01*
X171046315Y-121900569D01*
X171270569Y-121676315D01*
X171446763Y-121412621D01*
X171568129Y-121119620D01*
X171630000Y-120808571D01*
X171630000Y-120491429D01*
X171568129Y-120180380D01*
X171446763Y-119887379D01*
X171270569Y-119623685D01*
X171046315Y-119399431D01*
X170782621Y-119223237D01*
X170489620Y-119101871D01*
X170178571Y-119040000D01*
X169861429Y-119040000D01*
X169550380Y-119101871D01*
X169257379Y-119223237D01*
X168993685Y-119399431D01*
X168769431Y-119623685D01*
X168593237Y-119887379D01*
X168471871Y-120180380D01*
X168410000Y-120491429D01*
X166630000Y-120491429D01*
X166568129Y-120180380D01*
X166446763Y-119887379D01*
X166270569Y-119623685D01*
X166046315Y-119399431D01*
X165782621Y-119223237D01*
X165489620Y-119101871D01*
X165178571Y-119040000D01*
X164861429Y-119040000D01*
X164550380Y-119101871D01*
X164257379Y-119223237D01*
X163993685Y-119399431D01*
X163769431Y-119623685D01*
X163593237Y-119887379D01*
X163471871Y-120180380D01*
X163410000Y-120491429D01*
X161623398Y-120491429D01*
X161593074Y-120272267D01*
X161489156Y-119972633D01*
X161399429Y-119804766D01*
X161137584Y-119712021D01*
X160199605Y-120650000D01*
X159840395Y-120650000D01*
X158902416Y-119712021D01*
X158640571Y-119804766D01*
X158502180Y-120090120D01*
X158422117Y-120396990D01*
X158403460Y-120713584D01*
X128296628Y-120713584D01*
X128281368Y-120676744D01*
X128170179Y-120510338D01*
X128028662Y-120368821D01*
X127862256Y-120257632D01*
X127677356Y-120181044D01*
X127481067Y-120142000D01*
X127280933Y-120142000D01*
X127084644Y-120181044D01*
X126899744Y-120257632D01*
X126733338Y-120368821D01*
X126591821Y-120510338D01*
X126480632Y-120676744D01*
X126404044Y-120861644D01*
X126365000Y-121057933D01*
X125869700Y-121057933D01*
X125869700Y-119297391D01*
X125866810Y-119268052D01*
X125866954Y-119247444D01*
X125866072Y-119238444D01*
X125803691Y-118644933D01*
X128524000Y-118644933D01*
X128524000Y-118845067D01*
X128563044Y-119041356D01*
X128639632Y-119226256D01*
X128750821Y-119392662D01*
X128892338Y-119534179D01*
X129058744Y-119645368D01*
X129243644Y-119721956D01*
X129439933Y-119761000D01*
X129640067Y-119761000D01*
X129836356Y-119721956D01*
X130021256Y-119645368D01*
X130187662Y-119534179D01*
X130329179Y-119392662D01*
X130440368Y-119226256D01*
X130516956Y-119041356D01*
X130556000Y-118845067D01*
X130556000Y-118644933D01*
X130516956Y-118448644D01*
X130440368Y-118263744D01*
X130329179Y-118097338D01*
X130241774Y-118009933D01*
X130683000Y-118009933D01*
X130683000Y-118210067D01*
X130722044Y-118406356D01*
X130798632Y-118591256D01*
X130901361Y-118745000D01*
X130798632Y-118898744D01*
X130722044Y-119083644D01*
X130683000Y-119279933D01*
X130683000Y-119480067D01*
X130722044Y-119676356D01*
X130798632Y-119861256D01*
X130909821Y-120027662D01*
X131051338Y-120169179D01*
X131217744Y-120280368D01*
X131402644Y-120356956D01*
X131598933Y-120396000D01*
X131799067Y-120396000D01*
X131995356Y-120356956D01*
X132180256Y-120280368D01*
X132346662Y-120169179D01*
X132488179Y-120027662D01*
X132599368Y-119861256D01*
X132675956Y-119676356D01*
X132704587Y-119532416D01*
X159082021Y-119532416D01*
X160020000Y-120470395D01*
X160957979Y-119532416D01*
X160865234Y-119270571D01*
X160579880Y-119132180D01*
X160273010Y-119052117D01*
X159956416Y-119033460D01*
X159642267Y-119076926D01*
X159342633Y-119180844D01*
X159174766Y-119270571D01*
X159082021Y-119532416D01*
X132704587Y-119532416D01*
X132715000Y-119480067D01*
X132715000Y-119279933D01*
X132675956Y-119083644D01*
X132599368Y-118898744D01*
X132496639Y-118745000D01*
X132599368Y-118591256D01*
X132675956Y-118406356D01*
X132715000Y-118210067D01*
X132715000Y-118009933D01*
X132675956Y-117813644D01*
X132599368Y-117628744D01*
X132488179Y-117462338D01*
X132346662Y-117320821D01*
X132180256Y-117209632D01*
X131995356Y-117133044D01*
X131799067Y-117094000D01*
X131598933Y-117094000D01*
X131402644Y-117133044D01*
X131217744Y-117209632D01*
X131051338Y-117320821D01*
X130909821Y-117462338D01*
X130798632Y-117628744D01*
X130722044Y-117813644D01*
X130683000Y-118009933D01*
X130241774Y-118009933D01*
X130187662Y-117955821D01*
X130021256Y-117844632D01*
X129836356Y-117768044D01*
X129640067Y-117729000D01*
X129439933Y-117729000D01*
X129243644Y-117768044D01*
X129058744Y-117844632D01*
X128892338Y-117955821D01*
X128750821Y-118097338D01*
X128639632Y-118263744D01*
X128563044Y-118448644D01*
X128524000Y-118644933D01*
X125803691Y-118644933D01*
X125798709Y-118597537D01*
X125786901Y-118540014D01*
X125775905Y-118482368D01*
X125773291Y-118473711D01*
X125582726Y-117858094D01*
X125559956Y-117803926D01*
X125537986Y-117749547D01*
X125533741Y-117741563D01*
X125533741Y-117741562D01*
X125533738Y-117741558D01*
X125227231Y-117174683D01*
X125194370Y-117125965D01*
X125162259Y-117076894D01*
X125156548Y-117069891D01*
X125156544Y-117069885D01*
X125156539Y-117069880D01*
X124745764Y-116573338D01*
X124704072Y-116531935D01*
X124663035Y-116490030D01*
X124656073Y-116484270D01*
X124656068Y-116484265D01*
X124656063Y-116484261D01*
X124156664Y-116076962D01*
X124107739Y-116044456D01*
X124059331Y-116011310D01*
X124051384Y-116007013D01*
X124051376Y-116007008D01*
X124051368Y-116007005D01*
X123482370Y-115704464D01*
X123428137Y-115682111D01*
X123374139Y-115658967D01*
X123365500Y-115656293D01*
X122748568Y-115470030D01*
X122690968Y-115458625D01*
X122633560Y-115446422D01*
X122624567Y-115445477D01*
X121983204Y-115382591D01*
X121983191Y-115382591D01*
X121951809Y-115379500D01*
X117106700Y-115379500D01*
X117106700Y-112742608D01*
X124168100Y-112742608D01*
X124168100Y-113520592D01*
X124319877Y-114283627D01*
X124617598Y-115002390D01*
X125049823Y-115649260D01*
X125599940Y-116199377D01*
X126246810Y-116631602D01*
X126965573Y-116929323D01*
X127728608Y-117081100D01*
X128506592Y-117081100D01*
X129269627Y-116929323D01*
X129726855Y-116739933D01*
X132461000Y-116739933D01*
X132461000Y-116940067D01*
X132500044Y-117136356D01*
X132576632Y-117321256D01*
X132687821Y-117487662D01*
X132829338Y-117629179D01*
X132995744Y-117740368D01*
X133180644Y-117816956D01*
X133376933Y-117856000D01*
X133577067Y-117856000D01*
X133773356Y-117816956D01*
X133958256Y-117740368D01*
X134124662Y-117629179D01*
X134266179Y-117487662D01*
X134377368Y-117321256D01*
X134453956Y-117136356D01*
X134493000Y-116940067D01*
X134493000Y-116739933D01*
X134453956Y-116543644D01*
X134377368Y-116358744D01*
X134266179Y-116192338D01*
X134124662Y-116050821D01*
X133958256Y-115939632D01*
X133773356Y-115863044D01*
X133577067Y-115824000D01*
X133376933Y-115824000D01*
X133180644Y-115863044D01*
X132995744Y-115939632D01*
X132829338Y-116050821D01*
X132687821Y-116192338D01*
X132576632Y-116358744D01*
X132500044Y-116543644D01*
X132461000Y-116739933D01*
X129726855Y-116739933D01*
X129988390Y-116631602D01*
X130635260Y-116199377D01*
X131185377Y-115649260D01*
X131617602Y-115002390D01*
X131792174Y-114580933D01*
X137160000Y-114580933D01*
X137160000Y-114781067D01*
X137199044Y-114977356D01*
X137275632Y-115162256D01*
X137386821Y-115328662D01*
X137501159Y-115443000D01*
X137386821Y-115557338D01*
X137275632Y-115723744D01*
X137199044Y-115908644D01*
X137160000Y-116104933D01*
X137160000Y-116305067D01*
X137199044Y-116501356D01*
X137275632Y-116686256D01*
X137386821Y-116852662D01*
X137528338Y-116994179D01*
X137694744Y-117105368D01*
X137879644Y-117181956D01*
X138075933Y-117221000D01*
X138276067Y-117221000D01*
X138472356Y-117181956D01*
X138657256Y-117105368D01*
X138823662Y-116994179D01*
X138965179Y-116852662D01*
X139076368Y-116686256D01*
X139152956Y-116501356D01*
X139192000Y-116305067D01*
X139192000Y-116104933D01*
X139152956Y-115908644D01*
X139129052Y-115850933D01*
X151384000Y-115850933D01*
X151384000Y-116051067D01*
X151423044Y-116247356D01*
X151499632Y-116432256D01*
X151610821Y-116598662D01*
X151752338Y-116740179D01*
X151918744Y-116851368D01*
X152103644Y-116927956D01*
X152299933Y-116967000D01*
X152500067Y-116967000D01*
X152696356Y-116927956D01*
X152881256Y-116851368D01*
X153047662Y-116740179D01*
X153189179Y-116598662D01*
X153300368Y-116432256D01*
X153376956Y-116247356D01*
X153416000Y-116051067D01*
X153416000Y-115850933D01*
X153376956Y-115654644D01*
X153300368Y-115469744D01*
X153189179Y-115303338D01*
X153047662Y-115161821D01*
X152881256Y-115050632D01*
X152696356Y-114974044D01*
X152500067Y-114935000D01*
X152299933Y-114935000D01*
X152103644Y-114974044D01*
X151918744Y-115050632D01*
X151752338Y-115161821D01*
X151610821Y-115303338D01*
X151499632Y-115469744D01*
X151423044Y-115654644D01*
X151384000Y-115850933D01*
X139129052Y-115850933D01*
X139076368Y-115723744D01*
X138965179Y-115557338D01*
X138850841Y-115443000D01*
X138965179Y-115328662D01*
X139076368Y-115162256D01*
X139152956Y-114977356D01*
X139192000Y-114781067D01*
X139192000Y-114580933D01*
X139152956Y-114384644D01*
X139076368Y-114199744D01*
X138965179Y-114033338D01*
X138823662Y-113891821D01*
X138657256Y-113780632D01*
X138472356Y-113704044D01*
X138276067Y-113665000D01*
X138075933Y-113665000D01*
X137879644Y-113704044D01*
X137694744Y-113780632D01*
X137528338Y-113891821D01*
X137386821Y-114033338D01*
X137275632Y-114199744D01*
X137199044Y-114384644D01*
X137160000Y-114580933D01*
X131792174Y-114580933D01*
X131915323Y-114283627D01*
X132067100Y-113520592D01*
X132067100Y-113310933D01*
X140335000Y-113310933D01*
X140335000Y-113511067D01*
X140374044Y-113707356D01*
X140450632Y-113892256D01*
X140561821Y-114058662D01*
X140703338Y-114200179D01*
X140869744Y-114311368D01*
X141054644Y-114387956D01*
X141250933Y-114427000D01*
X141451067Y-114427000D01*
X141647356Y-114387956D01*
X141832256Y-114311368D01*
X141998662Y-114200179D01*
X142140179Y-114058662D01*
X142251368Y-113892256D01*
X142327956Y-113707356D01*
X142356285Y-113564933D01*
X153797000Y-113564933D01*
X153797000Y-113765067D01*
X153836044Y-113961356D01*
X153912632Y-114146256D01*
X154023821Y-114312662D01*
X154165338Y-114454179D01*
X154331744Y-114565368D01*
X154516644Y-114641956D01*
X154712933Y-114681000D01*
X154913067Y-114681000D01*
X155109356Y-114641956D01*
X155294256Y-114565368D01*
X155460662Y-114454179D01*
X155602179Y-114312662D01*
X155713368Y-114146256D01*
X155789956Y-113961356D01*
X155829000Y-113765067D01*
X155829000Y-113564933D01*
X155789956Y-113368644D01*
X155713368Y-113183744D01*
X155602179Y-113017338D01*
X155460662Y-112875821D01*
X155294256Y-112764632D01*
X155109356Y-112688044D01*
X154913067Y-112649000D01*
X154712933Y-112649000D01*
X154516644Y-112688044D01*
X154331744Y-112764632D01*
X154165338Y-112875821D01*
X154023821Y-113017338D01*
X153912632Y-113183744D01*
X153836044Y-113368644D01*
X153797000Y-113564933D01*
X142356285Y-113564933D01*
X142367000Y-113511067D01*
X142367000Y-113310933D01*
X142327956Y-113114644D01*
X142251368Y-112929744D01*
X142140179Y-112763338D01*
X141998662Y-112621821D01*
X141832256Y-112510632D01*
X141647356Y-112434044D01*
X141451067Y-112395000D01*
X141250933Y-112395000D01*
X141054644Y-112434044D01*
X140869744Y-112510632D01*
X140703338Y-112621821D01*
X140561821Y-112763338D01*
X140450632Y-112929744D01*
X140374044Y-113114644D01*
X140335000Y-113310933D01*
X132067100Y-113310933D01*
X132067100Y-112742608D01*
X131915323Y-111979573D01*
X131617602Y-111260810D01*
X131185377Y-110613940D01*
X130635260Y-110063823D01*
X129988390Y-109631598D01*
X129269627Y-109333877D01*
X128506592Y-109182100D01*
X127728608Y-109182100D01*
X126965573Y-109333877D01*
X126246810Y-109631598D01*
X125599940Y-110063823D01*
X125049823Y-110613940D01*
X124617598Y-111260810D01*
X124319877Y-111979573D01*
X124168100Y-112742608D01*
X117106700Y-112742608D01*
X117106700Y-111645600D01*
X118195928Y-111645600D01*
X118208188Y-111770082D01*
X118244498Y-111889780D01*
X118303463Y-112000094D01*
X118382815Y-112096785D01*
X118479506Y-112176137D01*
X118589820Y-112235102D01*
X118709518Y-112271412D01*
X118834000Y-112283672D01*
X119348250Y-112280600D01*
X119507000Y-112121850D01*
X119507000Y-110972600D01*
X118357750Y-110972600D01*
X118199000Y-111131350D01*
X118195928Y-111645600D01*
X117106700Y-111645600D01*
X117106700Y-110045600D01*
X118195928Y-110045600D01*
X118199000Y-110559850D01*
X118357750Y-110718600D01*
X119507000Y-110718600D01*
X119507000Y-109569350D01*
X119761000Y-109569350D01*
X119761000Y-110718600D01*
X119781000Y-110718600D01*
X119781000Y-110972600D01*
X119761000Y-110972600D01*
X119761000Y-112121850D01*
X119919750Y-112280600D01*
X120434000Y-112283672D01*
X120558482Y-112271412D01*
X120678180Y-112235102D01*
X120788494Y-112176137D01*
X120885185Y-112096785D01*
X120964537Y-112000094D01*
X121023502Y-111889780D01*
X121052661Y-111793657D01*
X121219241Y-111960237D01*
X121454273Y-112117280D01*
X121715426Y-112225453D01*
X121992665Y-112280600D01*
X122275335Y-112280600D01*
X122552574Y-112225453D01*
X122813727Y-112117280D01*
X123048759Y-111960237D01*
X123248637Y-111760359D01*
X123405680Y-111525327D01*
X123513853Y-111264174D01*
X123569000Y-110986935D01*
X123569000Y-110704265D01*
X123513853Y-110427026D01*
X123405680Y-110165873D01*
X123248637Y-109930841D01*
X123048759Y-109730963D01*
X122813727Y-109573920D01*
X122552574Y-109465747D01*
X122275335Y-109410600D01*
X121992665Y-109410600D01*
X121715426Y-109465747D01*
X121454273Y-109573920D01*
X121219241Y-109730963D01*
X121052661Y-109897543D01*
X121023502Y-109801420D01*
X120964537Y-109691106D01*
X120885185Y-109594415D01*
X120788494Y-109515063D01*
X120678180Y-109456098D01*
X120558482Y-109419788D01*
X120434000Y-109407528D01*
X119919750Y-109410600D01*
X119761000Y-109569350D01*
X119507000Y-109569350D01*
X119348250Y-109410600D01*
X118834000Y-109407528D01*
X118709518Y-109419788D01*
X118589820Y-109456098D01*
X118479506Y-109515063D01*
X118382815Y-109594415D01*
X118303463Y-109691106D01*
X118244498Y-109801420D01*
X118208188Y-109921118D01*
X118195928Y-110045600D01*
X117106700Y-110045600D01*
X117106700Y-106289933D01*
X130719000Y-106289933D01*
X130719000Y-106490067D01*
X130758044Y-106686356D01*
X130834632Y-106871256D01*
X130945821Y-107037662D01*
X131087338Y-107179179D01*
X131253744Y-107290368D01*
X131438644Y-107366956D01*
X131634933Y-107406000D01*
X131835067Y-107406000D01*
X132031356Y-107366956D01*
X132216256Y-107290368D01*
X132382662Y-107179179D01*
X132524179Y-107037662D01*
X132635368Y-106871256D01*
X132711956Y-106686356D01*
X132751000Y-106490067D01*
X132751000Y-106289933D01*
X132711956Y-106093644D01*
X132635368Y-105908744D01*
X132524179Y-105742338D01*
X132382662Y-105600821D01*
X132216256Y-105489632D01*
X132031356Y-105413044D01*
X131835067Y-105374000D01*
X131634933Y-105374000D01*
X131438644Y-105413044D01*
X131253744Y-105489632D01*
X131087338Y-105600821D01*
X130945821Y-105742338D01*
X130834632Y-105908744D01*
X130758044Y-106093644D01*
X130719000Y-106289933D01*
X117106700Y-106289933D01*
X117106700Y-105040000D01*
X119365928Y-105040000D01*
X119378188Y-105164482D01*
X119414498Y-105284180D01*
X119473463Y-105394494D01*
X119552815Y-105491185D01*
X119649506Y-105570537D01*
X119759820Y-105629502D01*
X119879518Y-105665812D01*
X120004000Y-105678072D01*
X120618250Y-105675000D01*
X120777000Y-105516250D01*
X120777000Y-104267000D01*
X121031000Y-104267000D01*
X121031000Y-105516250D01*
X121189750Y-105675000D01*
X121804000Y-105678072D01*
X121928482Y-105665812D01*
X122048180Y-105629502D01*
X122158494Y-105570537D01*
X122255185Y-105491185D01*
X122334537Y-105394494D01*
X122393502Y-105284180D01*
X122429812Y-105164482D01*
X122442072Y-105040000D01*
X122439000Y-104425750D01*
X122280250Y-104267000D01*
X121031000Y-104267000D01*
X120777000Y-104267000D01*
X119527750Y-104267000D01*
X119369000Y-104425750D01*
X119365928Y-105040000D01*
X117106700Y-105040000D01*
X117106700Y-103240000D01*
X119365928Y-103240000D01*
X119369000Y-103854250D01*
X119527750Y-104013000D01*
X120777000Y-104013000D01*
X120777000Y-102763750D01*
X121031000Y-102763750D01*
X121031000Y-104013000D01*
X122280250Y-104013000D01*
X122439000Y-103854250D01*
X122442072Y-103240000D01*
X122429812Y-103115518D01*
X122393502Y-102995820D01*
X122334537Y-102885506D01*
X122255185Y-102788815D01*
X122158494Y-102709463D01*
X122048180Y-102650498D01*
X121928482Y-102614188D01*
X121804000Y-102601928D01*
X121189750Y-102605000D01*
X121031000Y-102763750D01*
X120777000Y-102763750D01*
X120618250Y-102605000D01*
X120004000Y-102601928D01*
X119879518Y-102614188D01*
X119759820Y-102650498D01*
X119649506Y-102709463D01*
X119552815Y-102788815D01*
X119473463Y-102885506D01*
X119414498Y-102995820D01*
X119378188Y-103115518D01*
X119365928Y-103240000D01*
X117106700Y-103240000D01*
X117106700Y-98988816D01*
X119369000Y-98988816D01*
X119369000Y-99291184D01*
X119427989Y-99587743D01*
X119543701Y-99867095D01*
X119711688Y-100118505D01*
X119925495Y-100332312D01*
X120176905Y-100500299D01*
X120456257Y-100616011D01*
X120752816Y-100675000D01*
X121055184Y-100675000D01*
X121351743Y-100616011D01*
X121631095Y-100500299D01*
X121882505Y-100332312D01*
X122096312Y-100118505D01*
X122264299Y-99867095D01*
X122380011Y-99587743D01*
X122439000Y-99291184D01*
X122439000Y-99200933D01*
X133109000Y-99200933D01*
X133109000Y-99401067D01*
X133148044Y-99597356D01*
X133224632Y-99782256D01*
X133335821Y-99948662D01*
X133477338Y-100090179D01*
X133643744Y-100201368D01*
X133828644Y-100277956D01*
X134024933Y-100317000D01*
X134225067Y-100317000D01*
X134421356Y-100277956D01*
X134606256Y-100201368D01*
X134772662Y-100090179D01*
X134914179Y-99948662D01*
X135025368Y-99782256D01*
X135101956Y-99597356D01*
X135141000Y-99401067D01*
X135141000Y-99200933D01*
X135101956Y-99004644D01*
X135025368Y-98819744D01*
X134914179Y-98653338D01*
X134772662Y-98511821D01*
X134606256Y-98400632D01*
X134421356Y-98324044D01*
X134225067Y-98285000D01*
X134024933Y-98285000D01*
X133828644Y-98324044D01*
X133643744Y-98400632D01*
X133477338Y-98511821D01*
X133335821Y-98653338D01*
X133224632Y-98819744D01*
X133148044Y-99004644D01*
X133109000Y-99200933D01*
X122439000Y-99200933D01*
X122439000Y-98988816D01*
X122380011Y-98692257D01*
X122264299Y-98412905D01*
X122096312Y-98161495D01*
X121882505Y-97947688D01*
X121631095Y-97779701D01*
X121351743Y-97663989D01*
X121055184Y-97605000D01*
X120752816Y-97605000D01*
X120456257Y-97663989D01*
X120176905Y-97779701D01*
X119925495Y-97947688D01*
X119711688Y-98161495D01*
X119543701Y-98412905D01*
X119427989Y-98692257D01*
X119369000Y-98988816D01*
X117106700Y-98988816D01*
X117106700Y-95764933D01*
X130830000Y-95764933D01*
X130830000Y-95965067D01*
X130869044Y-96161356D01*
X130945632Y-96346256D01*
X131056821Y-96512662D01*
X131198338Y-96654179D01*
X131364744Y-96765368D01*
X131549644Y-96841956D01*
X131745933Y-96881000D01*
X131946067Y-96881000D01*
X132142356Y-96841956D01*
X132327256Y-96765368D01*
X132493662Y-96654179D01*
X132635179Y-96512662D01*
X132746368Y-96346256D01*
X132822956Y-96161356D01*
X132862000Y-95965067D01*
X132862000Y-95764933D01*
X132822956Y-95568644D01*
X132746368Y-95383744D01*
X132635179Y-95217338D01*
X132493662Y-95075821D01*
X132327256Y-94964632D01*
X132142356Y-94888044D01*
X131946067Y-94849000D01*
X131745933Y-94849000D01*
X131549644Y-94888044D01*
X131364744Y-94964632D01*
X131198338Y-95075821D01*
X131056821Y-95217338D01*
X130945632Y-95383744D01*
X130869044Y-95568644D01*
X130830000Y-95764933D01*
X117106700Y-95764933D01*
X117106700Y-92849600D01*
X117931128Y-92849600D01*
X117943388Y-92974082D01*
X117979698Y-93093780D01*
X118038663Y-93204094D01*
X118118015Y-93300785D01*
X118214706Y-93380137D01*
X118325020Y-93439102D01*
X118444718Y-93475412D01*
X118569200Y-93487672D01*
X119083450Y-93484600D01*
X119242200Y-93325850D01*
X119242200Y-92176600D01*
X118092950Y-92176600D01*
X117934200Y-92335350D01*
X117931128Y-92849600D01*
X117106700Y-92849600D01*
X117106700Y-91249600D01*
X117931128Y-91249600D01*
X117934200Y-91763850D01*
X118092950Y-91922600D01*
X119242200Y-91922600D01*
X119242200Y-90773350D01*
X119496200Y-90773350D01*
X119496200Y-91922600D01*
X119516200Y-91922600D01*
X119516200Y-92176600D01*
X119496200Y-92176600D01*
X119496200Y-93325850D01*
X119654950Y-93484600D01*
X120169200Y-93487672D01*
X120293682Y-93475412D01*
X120413380Y-93439102D01*
X120523694Y-93380137D01*
X120620385Y-93300785D01*
X120699737Y-93204094D01*
X120758702Y-93093780D01*
X120787861Y-92997657D01*
X120954441Y-93164237D01*
X121189473Y-93321280D01*
X121450626Y-93429453D01*
X121727865Y-93484600D01*
X122010535Y-93484600D01*
X122287774Y-93429453D01*
X122548927Y-93321280D01*
X122783959Y-93164237D01*
X122983837Y-92964359D01*
X123140880Y-92729327D01*
X123249053Y-92468174D01*
X123304200Y-92190935D01*
X123304200Y-91908265D01*
X123249053Y-91631026D01*
X123140880Y-91369873D01*
X122983837Y-91134841D01*
X122783959Y-90934963D01*
X122548927Y-90777920D01*
X122287774Y-90669747D01*
X122010535Y-90614600D01*
X121727865Y-90614600D01*
X121450626Y-90669747D01*
X121189473Y-90777920D01*
X120954441Y-90934963D01*
X120787861Y-91101543D01*
X120758702Y-91005420D01*
X120699737Y-90895106D01*
X120620385Y-90798415D01*
X120523694Y-90719063D01*
X120413380Y-90660098D01*
X120293682Y-90623788D01*
X120169200Y-90611528D01*
X119654950Y-90614600D01*
X119496200Y-90773350D01*
X119242200Y-90773350D01*
X119083450Y-90614600D01*
X118569200Y-90611528D01*
X118444718Y-90623788D01*
X118325020Y-90660098D01*
X118214706Y-90719063D01*
X118118015Y-90798415D01*
X118038663Y-90895106D01*
X117979698Y-91005420D01*
X117943388Y-91125118D01*
X117931128Y-91249600D01*
X117106700Y-91249600D01*
X117106700Y-87820500D01*
X121951809Y-87820500D01*
X121981148Y-87817610D01*
X122001756Y-87817754D01*
X122010756Y-87816872D01*
X122651663Y-87749509D01*
X122709186Y-87737701D01*
X122766832Y-87726705D01*
X122775487Y-87724092D01*
X122775493Y-87724090D01*
X123391106Y-87533526D01*
X123445262Y-87510761D01*
X123499653Y-87488786D01*
X123507638Y-87484541D01*
X124074517Y-87178030D01*
X124123208Y-87145188D01*
X124172306Y-87113059D01*
X124179309Y-87107348D01*
X124179315Y-87107344D01*
X124179320Y-87107339D01*
X124504621Y-86838227D01*
X125133479Y-87467085D01*
%TA.AperFunction,Conductor*%
D19*
G36*
X125133479Y-87467085D02*
G01*
X125049823Y-87550740D01*
X124617598Y-88197610D01*
X124319877Y-88916373D01*
X124168100Y-89679408D01*
X124168100Y-90457392D01*
X124319877Y-91220427D01*
X124617598Y-91939190D01*
X125049823Y-92586060D01*
X125599940Y-93136177D01*
X126246810Y-93568402D01*
X126965573Y-93866123D01*
X127728608Y-94017900D01*
X128506592Y-94017900D01*
X129269627Y-93866123D01*
X129988390Y-93568402D01*
X130635260Y-93136177D01*
X130718916Y-93052522D01*
X135411900Y-97745506D01*
X135453632Y-97846256D01*
X135564821Y-98012662D01*
X135706338Y-98154179D01*
X135872744Y-98265368D01*
X135973494Y-98307100D01*
X140970000Y-103303606D01*
X140970000Y-108712000D01*
X140972440Y-108736776D01*
X140979667Y-108760601D01*
X140991403Y-108782557D01*
X141007197Y-108801803D01*
X143293197Y-111087803D01*
X143312443Y-111103597D01*
X143334399Y-111115333D01*
X143358224Y-111122560D01*
X143383000Y-111125000D01*
X173273143Y-111125000D01*
X173182398Y-111260810D01*
X172884677Y-111979573D01*
X172732900Y-112742608D01*
X172732900Y-113520592D01*
X172884677Y-114283627D01*
X173182398Y-115002390D01*
X173614623Y-115649260D01*
X174164740Y-116199377D01*
X174811610Y-116631602D01*
X175530373Y-116929323D01*
X176293408Y-117081100D01*
X177071392Y-117081100D01*
X177834427Y-116929323D01*
X178553190Y-116631602D01*
X179200060Y-116199377D01*
X179750177Y-115649260D01*
X180182402Y-115002390D01*
X180480123Y-114283627D01*
X180631900Y-113520592D01*
X180631900Y-112742608D01*
X180480123Y-111979573D01*
X180182402Y-111260810D01*
X180091657Y-111125000D01*
X187693301Y-111125000D01*
X187693301Y-115379500D01*
X182848191Y-115379500D01*
X182818852Y-115382390D01*
X182798244Y-115382246D01*
X182789244Y-115383128D01*
X182148337Y-115450491D01*
X182090814Y-115462299D01*
X182033168Y-115473295D01*
X182024513Y-115475908D01*
X182024507Y-115475910D01*
X181408894Y-115666474D01*
X181354726Y-115689244D01*
X181300347Y-115711214D01*
X181292367Y-115715457D01*
X181292362Y-115715459D01*
X181292361Y-115715460D01*
X180725483Y-116021969D01*
X180676765Y-116054830D01*
X180627694Y-116086941D01*
X180620691Y-116092652D01*
X180620685Y-116092656D01*
X180620680Y-116092661D01*
X180124138Y-116503436D01*
X180082735Y-116545128D01*
X180040830Y-116586165D01*
X180035070Y-116593127D01*
X180035065Y-116593132D01*
X180035061Y-116593137D01*
X179627762Y-117092536D01*
X179595256Y-117141461D01*
X179562110Y-117189869D01*
X179557813Y-117197816D01*
X179557808Y-117197824D01*
X179557805Y-117197832D01*
X179255264Y-117766830D01*
X179232911Y-117821063D01*
X179209767Y-117875061D01*
X179207093Y-117883700D01*
X179020830Y-118500632D01*
X179009425Y-118558232D01*
X178997222Y-118615640D01*
X178996277Y-118624633D01*
X178933391Y-119265996D01*
X178933391Y-119266010D01*
X178930300Y-119297392D01*
X178930301Y-124142500D01*
X125869700Y-124142500D01*
X125869700Y-121057933D01*
X126365000Y-121057933D01*
X126365000Y-121258067D01*
X126404044Y-121454356D01*
X126480632Y-121639256D01*
X126591821Y-121805662D01*
X126733338Y-121947179D01*
X126899744Y-122058368D01*
X127084644Y-122134956D01*
X127280933Y-122174000D01*
X127481067Y-122174000D01*
X127677356Y-122134956D01*
X127862256Y-122058368D01*
X128028662Y-121947179D01*
X128170179Y-121805662D01*
X128195621Y-121767584D01*
X159082021Y-121767584D01*
X159174766Y-122029429D01*
X159460120Y-122167820D01*
X159766990Y-122247883D01*
X160083584Y-122266540D01*
X160397733Y-122223074D01*
X160697367Y-122119156D01*
X160865234Y-122029429D01*
X160957979Y-121767584D01*
X160020000Y-120829605D01*
X159082021Y-121767584D01*
X128195621Y-121767584D01*
X128281368Y-121639256D01*
X128357956Y-121454356D01*
X128397000Y-121258067D01*
X128397000Y-121057933D01*
X128357956Y-120861644D01*
X128296628Y-120713584D01*
X158403460Y-120713584D01*
X158446926Y-121027733D01*
X158550844Y-121327367D01*
X158640571Y-121495234D01*
X158902416Y-121587979D01*
X159840395Y-120650000D01*
X160199605Y-120650000D01*
X161137584Y-121587979D01*
X161399429Y-121495234D01*
X161537820Y-121209880D01*
X161617883Y-120903010D01*
X161636540Y-120586416D01*
X161623398Y-120491429D01*
X163410000Y-120491429D01*
X163410000Y-120808571D01*
X163471871Y-121119620D01*
X163593237Y-121412621D01*
X163769431Y-121676315D01*
X163993685Y-121900569D01*
X164257379Y-122076763D01*
X164550380Y-122198129D01*
X164861429Y-122260000D01*
X165178571Y-122260000D01*
X165489620Y-122198129D01*
X165782621Y-122076763D01*
X166046315Y-121900569D01*
X166270569Y-121676315D01*
X166446763Y-121412621D01*
X166568129Y-121119620D01*
X166630000Y-120808571D01*
X166630000Y-120491429D01*
X168410000Y-120491429D01*
X168410000Y-120808571D01*
X168471871Y-121119620D01*
X168593237Y-121412621D01*
X168769431Y-121676315D01*
X168993685Y-121900569D01*
X169257379Y-122076763D01*
X169550380Y-122198129D01*
X169861429Y-122260000D01*
X170178571Y-122260000D01*
X170489620Y-122198129D01*
X170782621Y-122076763D01*
X171046315Y-121900569D01*
X171270569Y-121676315D01*
X171446763Y-121412621D01*
X171568129Y-121119620D01*
X171630000Y-120808571D01*
X171630000Y-120491429D01*
X171568129Y-120180380D01*
X171446763Y-119887379D01*
X171270569Y-119623685D01*
X171046315Y-119399431D01*
X170782621Y-119223237D01*
X170489620Y-119101871D01*
X170178571Y-119040000D01*
X169861429Y-119040000D01*
X169550380Y-119101871D01*
X169257379Y-119223237D01*
X168993685Y-119399431D01*
X168769431Y-119623685D01*
X168593237Y-119887379D01*
X168471871Y-120180380D01*
X168410000Y-120491429D01*
X166630000Y-120491429D01*
X166568129Y-120180380D01*
X166446763Y-119887379D01*
X166270569Y-119623685D01*
X166046315Y-119399431D01*
X165782621Y-119223237D01*
X165489620Y-119101871D01*
X165178571Y-119040000D01*
X164861429Y-119040000D01*
X164550380Y-119101871D01*
X164257379Y-119223237D01*
X163993685Y-119399431D01*
X163769431Y-119623685D01*
X163593237Y-119887379D01*
X163471871Y-120180380D01*
X163410000Y-120491429D01*
X161623398Y-120491429D01*
X161593074Y-120272267D01*
X161489156Y-119972633D01*
X161399429Y-119804766D01*
X161137584Y-119712021D01*
X160199605Y-120650000D01*
X159840395Y-120650000D01*
X158902416Y-119712021D01*
X158640571Y-119804766D01*
X158502180Y-120090120D01*
X158422117Y-120396990D01*
X158403460Y-120713584D01*
X128296628Y-120713584D01*
X128281368Y-120676744D01*
X128170179Y-120510338D01*
X128028662Y-120368821D01*
X127862256Y-120257632D01*
X127677356Y-120181044D01*
X127481067Y-120142000D01*
X127280933Y-120142000D01*
X127084644Y-120181044D01*
X126899744Y-120257632D01*
X126733338Y-120368821D01*
X126591821Y-120510338D01*
X126480632Y-120676744D01*
X126404044Y-120861644D01*
X126365000Y-121057933D01*
X125869700Y-121057933D01*
X125869700Y-119297391D01*
X125866810Y-119268052D01*
X125866954Y-119247444D01*
X125866072Y-119238444D01*
X125803691Y-118644933D01*
X128524000Y-118644933D01*
X128524000Y-118845067D01*
X128563044Y-119041356D01*
X128639632Y-119226256D01*
X128750821Y-119392662D01*
X128892338Y-119534179D01*
X129058744Y-119645368D01*
X129243644Y-119721956D01*
X129439933Y-119761000D01*
X129640067Y-119761000D01*
X129836356Y-119721956D01*
X130021256Y-119645368D01*
X130187662Y-119534179D01*
X130329179Y-119392662D01*
X130440368Y-119226256D01*
X130516956Y-119041356D01*
X130556000Y-118845067D01*
X130556000Y-118644933D01*
X130516956Y-118448644D01*
X130440368Y-118263744D01*
X130329179Y-118097338D01*
X130241774Y-118009933D01*
X130683000Y-118009933D01*
X130683000Y-118210067D01*
X130722044Y-118406356D01*
X130798632Y-118591256D01*
X130901361Y-118745000D01*
X130798632Y-118898744D01*
X130722044Y-119083644D01*
X130683000Y-119279933D01*
X130683000Y-119480067D01*
X130722044Y-119676356D01*
X130798632Y-119861256D01*
X130909821Y-120027662D01*
X131051338Y-120169179D01*
X131217744Y-120280368D01*
X131402644Y-120356956D01*
X131598933Y-120396000D01*
X131799067Y-120396000D01*
X131995356Y-120356956D01*
X132180256Y-120280368D01*
X132346662Y-120169179D01*
X132488179Y-120027662D01*
X132599368Y-119861256D01*
X132675956Y-119676356D01*
X132704587Y-119532416D01*
X159082021Y-119532416D01*
X160020000Y-120470395D01*
X160957979Y-119532416D01*
X160865234Y-119270571D01*
X160579880Y-119132180D01*
X160273010Y-119052117D01*
X159956416Y-119033460D01*
X159642267Y-119076926D01*
X159342633Y-119180844D01*
X159174766Y-119270571D01*
X159082021Y-119532416D01*
X132704587Y-119532416D01*
X132715000Y-119480067D01*
X132715000Y-119279933D01*
X132675956Y-119083644D01*
X132599368Y-118898744D01*
X132496639Y-118745000D01*
X132599368Y-118591256D01*
X132675956Y-118406356D01*
X132715000Y-118210067D01*
X132715000Y-118009933D01*
X132675956Y-117813644D01*
X132599368Y-117628744D01*
X132488179Y-117462338D01*
X132346662Y-117320821D01*
X132180256Y-117209632D01*
X131995356Y-117133044D01*
X131799067Y-117094000D01*
X131598933Y-117094000D01*
X131402644Y-117133044D01*
X131217744Y-117209632D01*
X131051338Y-117320821D01*
X130909821Y-117462338D01*
X130798632Y-117628744D01*
X130722044Y-117813644D01*
X130683000Y-118009933D01*
X130241774Y-118009933D01*
X130187662Y-117955821D01*
X130021256Y-117844632D01*
X129836356Y-117768044D01*
X129640067Y-117729000D01*
X129439933Y-117729000D01*
X129243644Y-117768044D01*
X129058744Y-117844632D01*
X128892338Y-117955821D01*
X128750821Y-118097338D01*
X128639632Y-118263744D01*
X128563044Y-118448644D01*
X128524000Y-118644933D01*
X125803691Y-118644933D01*
X125798709Y-118597537D01*
X125786901Y-118540014D01*
X125775905Y-118482368D01*
X125773291Y-118473711D01*
X125582726Y-117858094D01*
X125559956Y-117803926D01*
X125537986Y-117749547D01*
X125533741Y-117741563D01*
X125533741Y-117741562D01*
X125533738Y-117741558D01*
X125227231Y-117174683D01*
X125194370Y-117125965D01*
X125162259Y-117076894D01*
X125156548Y-117069891D01*
X125156544Y-117069885D01*
X125156539Y-117069880D01*
X124745764Y-116573338D01*
X124704072Y-116531935D01*
X124663035Y-116490030D01*
X124656073Y-116484270D01*
X124656068Y-116484265D01*
X124656063Y-116484261D01*
X124156664Y-116076962D01*
X124107739Y-116044456D01*
X124059331Y-116011310D01*
X124051384Y-116007013D01*
X124051376Y-116007008D01*
X124051368Y-116007005D01*
X123482370Y-115704464D01*
X123428137Y-115682111D01*
X123374139Y-115658967D01*
X123365500Y-115656293D01*
X122748568Y-115470030D01*
X122690968Y-115458625D01*
X122633560Y-115446422D01*
X122624567Y-115445477D01*
X121983204Y-115382591D01*
X121983191Y-115382591D01*
X121951809Y-115379500D01*
X117106700Y-115379500D01*
X117106700Y-112742608D01*
X124168100Y-112742608D01*
X124168100Y-113520592D01*
X124319877Y-114283627D01*
X124617598Y-115002390D01*
X125049823Y-115649260D01*
X125599940Y-116199377D01*
X126246810Y-116631602D01*
X126965573Y-116929323D01*
X127728608Y-117081100D01*
X128506592Y-117081100D01*
X129269627Y-116929323D01*
X129726855Y-116739933D01*
X132461000Y-116739933D01*
X132461000Y-116940067D01*
X132500044Y-117136356D01*
X132576632Y-117321256D01*
X132687821Y-117487662D01*
X132829338Y-117629179D01*
X132995744Y-117740368D01*
X133180644Y-117816956D01*
X133376933Y-117856000D01*
X133577067Y-117856000D01*
X133773356Y-117816956D01*
X133958256Y-117740368D01*
X134124662Y-117629179D01*
X134266179Y-117487662D01*
X134377368Y-117321256D01*
X134453956Y-117136356D01*
X134493000Y-116940067D01*
X134493000Y-116739933D01*
X134453956Y-116543644D01*
X134377368Y-116358744D01*
X134266179Y-116192338D01*
X134124662Y-116050821D01*
X133958256Y-115939632D01*
X133773356Y-115863044D01*
X133577067Y-115824000D01*
X133376933Y-115824000D01*
X133180644Y-115863044D01*
X132995744Y-115939632D01*
X132829338Y-116050821D01*
X132687821Y-116192338D01*
X132576632Y-116358744D01*
X132500044Y-116543644D01*
X132461000Y-116739933D01*
X129726855Y-116739933D01*
X129988390Y-116631602D01*
X130635260Y-116199377D01*
X131185377Y-115649260D01*
X131617602Y-115002390D01*
X131792174Y-114580933D01*
X137160000Y-114580933D01*
X137160000Y-114781067D01*
X137199044Y-114977356D01*
X137275632Y-115162256D01*
X137386821Y-115328662D01*
X137501159Y-115443000D01*
X137386821Y-115557338D01*
X137275632Y-115723744D01*
X137199044Y-115908644D01*
X137160000Y-116104933D01*
X137160000Y-116305067D01*
X137199044Y-116501356D01*
X137275632Y-116686256D01*
X137386821Y-116852662D01*
X137528338Y-116994179D01*
X137694744Y-117105368D01*
X137879644Y-117181956D01*
X138075933Y-117221000D01*
X138276067Y-117221000D01*
X138472356Y-117181956D01*
X138657256Y-117105368D01*
X138823662Y-116994179D01*
X138965179Y-116852662D01*
X139076368Y-116686256D01*
X139152956Y-116501356D01*
X139192000Y-116305067D01*
X139192000Y-116104933D01*
X139152956Y-115908644D01*
X139129052Y-115850933D01*
X151384000Y-115850933D01*
X151384000Y-116051067D01*
X151423044Y-116247356D01*
X151499632Y-116432256D01*
X151610821Y-116598662D01*
X151752338Y-116740179D01*
X151918744Y-116851368D01*
X152103644Y-116927956D01*
X152299933Y-116967000D01*
X152500067Y-116967000D01*
X152696356Y-116927956D01*
X152881256Y-116851368D01*
X153047662Y-116740179D01*
X153189179Y-116598662D01*
X153300368Y-116432256D01*
X153376956Y-116247356D01*
X153416000Y-116051067D01*
X153416000Y-115850933D01*
X153376956Y-115654644D01*
X153300368Y-115469744D01*
X153189179Y-115303338D01*
X153047662Y-115161821D01*
X152881256Y-115050632D01*
X152696356Y-114974044D01*
X152500067Y-114935000D01*
X152299933Y-114935000D01*
X152103644Y-114974044D01*
X151918744Y-115050632D01*
X151752338Y-115161821D01*
X151610821Y-115303338D01*
X151499632Y-115469744D01*
X151423044Y-115654644D01*
X151384000Y-115850933D01*
X139129052Y-115850933D01*
X139076368Y-115723744D01*
X138965179Y-115557338D01*
X138850841Y-115443000D01*
X138965179Y-115328662D01*
X139076368Y-115162256D01*
X139152956Y-114977356D01*
X139192000Y-114781067D01*
X139192000Y-114580933D01*
X139152956Y-114384644D01*
X139076368Y-114199744D01*
X138965179Y-114033338D01*
X138823662Y-113891821D01*
X138657256Y-113780632D01*
X138472356Y-113704044D01*
X138276067Y-113665000D01*
X138075933Y-113665000D01*
X137879644Y-113704044D01*
X137694744Y-113780632D01*
X137528338Y-113891821D01*
X137386821Y-114033338D01*
X137275632Y-114199744D01*
X137199044Y-114384644D01*
X137160000Y-114580933D01*
X131792174Y-114580933D01*
X131915323Y-114283627D01*
X132067100Y-113520592D01*
X132067100Y-113310933D01*
X140335000Y-113310933D01*
X140335000Y-113511067D01*
X140374044Y-113707356D01*
X140450632Y-113892256D01*
X140561821Y-114058662D01*
X140703338Y-114200179D01*
X140869744Y-114311368D01*
X141054644Y-114387956D01*
X141250933Y-114427000D01*
X141451067Y-114427000D01*
X141647356Y-114387956D01*
X141832256Y-114311368D01*
X141998662Y-114200179D01*
X142140179Y-114058662D01*
X142251368Y-113892256D01*
X142327956Y-113707356D01*
X142356285Y-113564933D01*
X153797000Y-113564933D01*
X153797000Y-113765067D01*
X153836044Y-113961356D01*
X153912632Y-114146256D01*
X154023821Y-114312662D01*
X154165338Y-114454179D01*
X154331744Y-114565368D01*
X154516644Y-114641956D01*
X154712933Y-114681000D01*
X154913067Y-114681000D01*
X155109356Y-114641956D01*
X155294256Y-114565368D01*
X155460662Y-114454179D01*
X155602179Y-114312662D01*
X155713368Y-114146256D01*
X155789956Y-113961356D01*
X155829000Y-113765067D01*
X155829000Y-113564933D01*
X155789956Y-113368644D01*
X155713368Y-113183744D01*
X155602179Y-113017338D01*
X155460662Y-112875821D01*
X155294256Y-112764632D01*
X155109356Y-112688044D01*
X154913067Y-112649000D01*
X154712933Y-112649000D01*
X154516644Y-112688044D01*
X154331744Y-112764632D01*
X154165338Y-112875821D01*
X154023821Y-113017338D01*
X153912632Y-113183744D01*
X153836044Y-113368644D01*
X153797000Y-113564933D01*
X142356285Y-113564933D01*
X142367000Y-113511067D01*
X142367000Y-113310933D01*
X142327956Y-113114644D01*
X142251368Y-112929744D01*
X142140179Y-112763338D01*
X141998662Y-112621821D01*
X141832256Y-112510632D01*
X141647356Y-112434044D01*
X141451067Y-112395000D01*
X141250933Y-112395000D01*
X141054644Y-112434044D01*
X140869744Y-112510632D01*
X140703338Y-112621821D01*
X140561821Y-112763338D01*
X140450632Y-112929744D01*
X140374044Y-113114644D01*
X140335000Y-113310933D01*
X132067100Y-113310933D01*
X132067100Y-112742608D01*
X131915323Y-111979573D01*
X131617602Y-111260810D01*
X131185377Y-110613940D01*
X130635260Y-110063823D01*
X129988390Y-109631598D01*
X129269627Y-109333877D01*
X128506592Y-109182100D01*
X127728608Y-109182100D01*
X126965573Y-109333877D01*
X126246810Y-109631598D01*
X125599940Y-110063823D01*
X125049823Y-110613940D01*
X124617598Y-111260810D01*
X124319877Y-111979573D01*
X124168100Y-112742608D01*
X117106700Y-112742608D01*
X117106700Y-111645600D01*
X118195928Y-111645600D01*
X118208188Y-111770082D01*
X118244498Y-111889780D01*
X118303463Y-112000094D01*
X118382815Y-112096785D01*
X118479506Y-112176137D01*
X118589820Y-112235102D01*
X118709518Y-112271412D01*
X118834000Y-112283672D01*
X119348250Y-112280600D01*
X119507000Y-112121850D01*
X119507000Y-110972600D01*
X118357750Y-110972600D01*
X118199000Y-111131350D01*
X118195928Y-111645600D01*
X117106700Y-111645600D01*
X117106700Y-110045600D01*
X118195928Y-110045600D01*
X118199000Y-110559850D01*
X118357750Y-110718600D01*
X119507000Y-110718600D01*
X119507000Y-109569350D01*
X119761000Y-109569350D01*
X119761000Y-110718600D01*
X119781000Y-110718600D01*
X119781000Y-110972600D01*
X119761000Y-110972600D01*
X119761000Y-112121850D01*
X119919750Y-112280600D01*
X120434000Y-112283672D01*
X120558482Y-112271412D01*
X120678180Y-112235102D01*
X120788494Y-112176137D01*
X120885185Y-112096785D01*
X120964537Y-112000094D01*
X121023502Y-111889780D01*
X121052661Y-111793657D01*
X121219241Y-111960237D01*
X121454273Y-112117280D01*
X121715426Y-112225453D01*
X121992665Y-112280600D01*
X122275335Y-112280600D01*
X122552574Y-112225453D01*
X122813727Y-112117280D01*
X123048759Y-111960237D01*
X123248637Y-111760359D01*
X123405680Y-111525327D01*
X123513853Y-111264174D01*
X123569000Y-110986935D01*
X123569000Y-110704265D01*
X123513853Y-110427026D01*
X123405680Y-110165873D01*
X123248637Y-109930841D01*
X123048759Y-109730963D01*
X122813727Y-109573920D01*
X122552574Y-109465747D01*
X122275335Y-109410600D01*
X121992665Y-109410600D01*
X121715426Y-109465747D01*
X121454273Y-109573920D01*
X121219241Y-109730963D01*
X121052661Y-109897543D01*
X121023502Y-109801420D01*
X120964537Y-109691106D01*
X120885185Y-109594415D01*
X120788494Y-109515063D01*
X120678180Y-109456098D01*
X120558482Y-109419788D01*
X120434000Y-109407528D01*
X119919750Y-109410600D01*
X119761000Y-109569350D01*
X119507000Y-109569350D01*
X119348250Y-109410600D01*
X118834000Y-109407528D01*
X118709518Y-109419788D01*
X118589820Y-109456098D01*
X118479506Y-109515063D01*
X118382815Y-109594415D01*
X118303463Y-109691106D01*
X118244498Y-109801420D01*
X118208188Y-109921118D01*
X118195928Y-110045600D01*
X117106700Y-110045600D01*
X117106700Y-106289933D01*
X130719000Y-106289933D01*
X130719000Y-106490067D01*
X130758044Y-106686356D01*
X130834632Y-106871256D01*
X130945821Y-107037662D01*
X131087338Y-107179179D01*
X131253744Y-107290368D01*
X131438644Y-107366956D01*
X131634933Y-107406000D01*
X131835067Y-107406000D01*
X132031356Y-107366956D01*
X132216256Y-107290368D01*
X132382662Y-107179179D01*
X132524179Y-107037662D01*
X132635368Y-106871256D01*
X132711956Y-106686356D01*
X132751000Y-106490067D01*
X132751000Y-106289933D01*
X132711956Y-106093644D01*
X132635368Y-105908744D01*
X132524179Y-105742338D01*
X132382662Y-105600821D01*
X132216256Y-105489632D01*
X132031356Y-105413044D01*
X131835067Y-105374000D01*
X131634933Y-105374000D01*
X131438644Y-105413044D01*
X131253744Y-105489632D01*
X131087338Y-105600821D01*
X130945821Y-105742338D01*
X130834632Y-105908744D01*
X130758044Y-106093644D01*
X130719000Y-106289933D01*
X117106700Y-106289933D01*
X117106700Y-105040000D01*
X119365928Y-105040000D01*
X119378188Y-105164482D01*
X119414498Y-105284180D01*
X119473463Y-105394494D01*
X119552815Y-105491185D01*
X119649506Y-105570537D01*
X119759820Y-105629502D01*
X119879518Y-105665812D01*
X120004000Y-105678072D01*
X120618250Y-105675000D01*
X120777000Y-105516250D01*
X120777000Y-104267000D01*
X121031000Y-104267000D01*
X121031000Y-105516250D01*
X121189750Y-105675000D01*
X121804000Y-105678072D01*
X121928482Y-105665812D01*
X122048180Y-105629502D01*
X122158494Y-105570537D01*
X122255185Y-105491185D01*
X122334537Y-105394494D01*
X122393502Y-105284180D01*
X122429812Y-105164482D01*
X122442072Y-105040000D01*
X122439000Y-104425750D01*
X122280250Y-104267000D01*
X121031000Y-104267000D01*
X120777000Y-104267000D01*
X119527750Y-104267000D01*
X119369000Y-104425750D01*
X119365928Y-105040000D01*
X117106700Y-105040000D01*
X117106700Y-103240000D01*
X119365928Y-103240000D01*
X119369000Y-103854250D01*
X119527750Y-104013000D01*
X120777000Y-104013000D01*
X120777000Y-102763750D01*
X121031000Y-102763750D01*
X121031000Y-104013000D01*
X122280250Y-104013000D01*
X122439000Y-103854250D01*
X122442072Y-103240000D01*
X122429812Y-103115518D01*
X122393502Y-102995820D01*
X122334537Y-102885506D01*
X122255185Y-102788815D01*
X122158494Y-102709463D01*
X122048180Y-102650498D01*
X121928482Y-102614188D01*
X121804000Y-102601928D01*
X121189750Y-102605000D01*
X121031000Y-102763750D01*
X120777000Y-102763750D01*
X120618250Y-102605000D01*
X120004000Y-102601928D01*
X119879518Y-102614188D01*
X119759820Y-102650498D01*
X119649506Y-102709463D01*
X119552815Y-102788815D01*
X119473463Y-102885506D01*
X119414498Y-102995820D01*
X119378188Y-103115518D01*
X119365928Y-103240000D01*
X117106700Y-103240000D01*
X117106700Y-98988816D01*
X119369000Y-98988816D01*
X119369000Y-99291184D01*
X119427989Y-99587743D01*
X119543701Y-99867095D01*
X119711688Y-100118505D01*
X119925495Y-100332312D01*
X120176905Y-100500299D01*
X120456257Y-100616011D01*
X120752816Y-100675000D01*
X121055184Y-100675000D01*
X121351743Y-100616011D01*
X121631095Y-100500299D01*
X121882505Y-100332312D01*
X122096312Y-100118505D01*
X122264299Y-99867095D01*
X122380011Y-99587743D01*
X122439000Y-99291184D01*
X122439000Y-99200933D01*
X133109000Y-99200933D01*
X133109000Y-99401067D01*
X133148044Y-99597356D01*
X133224632Y-99782256D01*
X133335821Y-99948662D01*
X133477338Y-100090179D01*
X133643744Y-100201368D01*
X133828644Y-100277956D01*
X134024933Y-100317000D01*
X134225067Y-100317000D01*
X134421356Y-100277956D01*
X134606256Y-100201368D01*
X134772662Y-100090179D01*
X134914179Y-99948662D01*
X135025368Y-99782256D01*
X135101956Y-99597356D01*
X135141000Y-99401067D01*
X135141000Y-99200933D01*
X135101956Y-99004644D01*
X135025368Y-98819744D01*
X134914179Y-98653338D01*
X134772662Y-98511821D01*
X134606256Y-98400632D01*
X134421356Y-98324044D01*
X134225067Y-98285000D01*
X134024933Y-98285000D01*
X133828644Y-98324044D01*
X133643744Y-98400632D01*
X133477338Y-98511821D01*
X133335821Y-98653338D01*
X133224632Y-98819744D01*
X133148044Y-99004644D01*
X133109000Y-99200933D01*
X122439000Y-99200933D01*
X122439000Y-98988816D01*
X122380011Y-98692257D01*
X122264299Y-98412905D01*
X122096312Y-98161495D01*
X121882505Y-97947688D01*
X121631095Y-97779701D01*
X121351743Y-97663989D01*
X121055184Y-97605000D01*
X120752816Y-97605000D01*
X120456257Y-97663989D01*
X120176905Y-97779701D01*
X119925495Y-97947688D01*
X119711688Y-98161495D01*
X119543701Y-98412905D01*
X119427989Y-98692257D01*
X119369000Y-98988816D01*
X117106700Y-98988816D01*
X117106700Y-95764933D01*
X130830000Y-95764933D01*
X130830000Y-95965067D01*
X130869044Y-96161356D01*
X130945632Y-96346256D01*
X131056821Y-96512662D01*
X131198338Y-96654179D01*
X131364744Y-96765368D01*
X131549644Y-96841956D01*
X131745933Y-96881000D01*
X131946067Y-96881000D01*
X132142356Y-96841956D01*
X132327256Y-96765368D01*
X132493662Y-96654179D01*
X132635179Y-96512662D01*
X132746368Y-96346256D01*
X132822956Y-96161356D01*
X132862000Y-95965067D01*
X132862000Y-95764933D01*
X132822956Y-95568644D01*
X132746368Y-95383744D01*
X132635179Y-95217338D01*
X132493662Y-95075821D01*
X132327256Y-94964632D01*
X132142356Y-94888044D01*
X131946067Y-94849000D01*
X131745933Y-94849000D01*
X131549644Y-94888044D01*
X131364744Y-94964632D01*
X131198338Y-95075821D01*
X131056821Y-95217338D01*
X130945632Y-95383744D01*
X130869044Y-95568644D01*
X130830000Y-95764933D01*
X117106700Y-95764933D01*
X117106700Y-92849600D01*
X117931128Y-92849600D01*
X117943388Y-92974082D01*
X117979698Y-93093780D01*
X118038663Y-93204094D01*
X118118015Y-93300785D01*
X118214706Y-93380137D01*
X118325020Y-93439102D01*
X118444718Y-93475412D01*
X118569200Y-93487672D01*
X119083450Y-93484600D01*
X119242200Y-93325850D01*
X119242200Y-92176600D01*
X118092950Y-92176600D01*
X117934200Y-92335350D01*
X117931128Y-92849600D01*
X117106700Y-92849600D01*
X117106700Y-91249600D01*
X117931128Y-91249600D01*
X117934200Y-91763850D01*
X118092950Y-91922600D01*
X119242200Y-91922600D01*
X119242200Y-90773350D01*
X119496200Y-90773350D01*
X119496200Y-91922600D01*
X119516200Y-91922600D01*
X119516200Y-92176600D01*
X119496200Y-92176600D01*
X119496200Y-93325850D01*
X119654950Y-93484600D01*
X120169200Y-93487672D01*
X120293682Y-93475412D01*
X120413380Y-93439102D01*
X120523694Y-93380137D01*
X120620385Y-93300785D01*
X120699737Y-93204094D01*
X120758702Y-93093780D01*
X120787861Y-92997657D01*
X120954441Y-93164237D01*
X121189473Y-93321280D01*
X121450626Y-93429453D01*
X121727865Y-93484600D01*
X122010535Y-93484600D01*
X122287774Y-93429453D01*
X122548927Y-93321280D01*
X122783959Y-93164237D01*
X122983837Y-92964359D01*
X123140880Y-92729327D01*
X123249053Y-92468174D01*
X123304200Y-92190935D01*
X123304200Y-91908265D01*
X123249053Y-91631026D01*
X123140880Y-91369873D01*
X122983837Y-91134841D01*
X122783959Y-90934963D01*
X122548927Y-90777920D01*
X122287774Y-90669747D01*
X122010535Y-90614600D01*
X121727865Y-90614600D01*
X121450626Y-90669747D01*
X121189473Y-90777920D01*
X120954441Y-90934963D01*
X120787861Y-91101543D01*
X120758702Y-91005420D01*
X120699737Y-90895106D01*
X120620385Y-90798415D01*
X120523694Y-90719063D01*
X120413380Y-90660098D01*
X120293682Y-90623788D01*
X120169200Y-90611528D01*
X119654950Y-90614600D01*
X119496200Y-90773350D01*
X119242200Y-90773350D01*
X119083450Y-90614600D01*
X118569200Y-90611528D01*
X118444718Y-90623788D01*
X118325020Y-90660098D01*
X118214706Y-90719063D01*
X118118015Y-90798415D01*
X118038663Y-90895106D01*
X117979698Y-91005420D01*
X117943388Y-91125118D01*
X117931128Y-91249600D01*
X117106700Y-91249600D01*
X117106700Y-87820500D01*
X121951809Y-87820500D01*
X121981148Y-87817610D01*
X122001756Y-87817754D01*
X122010756Y-87816872D01*
X122651663Y-87749509D01*
X122709186Y-87737701D01*
X122766832Y-87726705D01*
X122775487Y-87724092D01*
X122775493Y-87724090D01*
X123391106Y-87533526D01*
X123445262Y-87510761D01*
X123499653Y-87488786D01*
X123507638Y-87484541D01*
X124074517Y-87178030D01*
X124123208Y-87145188D01*
X124172306Y-87113059D01*
X124179309Y-87107348D01*
X124179315Y-87107344D01*
X124179320Y-87107339D01*
X124504621Y-86838227D01*
X125133479Y-87467085D01*
G37*
%TD.AperFunction*%
%TD*%
D18*
%TO.N,+3V3*%
X140576338Y-84554821D02*
X140434821Y-84696338D01*
X140323632Y-84862744D01*
X140247044Y-85047644D01*
X140208000Y-85243933D01*
X140208000Y-85444067D01*
X140247044Y-85640356D01*
X140323632Y-85825256D01*
X140434821Y-85991662D01*
X140576338Y-86133179D01*
X140630696Y-86169500D01*
X140576338Y-86205821D01*
X140434821Y-86347338D01*
X140323632Y-86513744D01*
X140247044Y-86698644D01*
X140208000Y-86894933D01*
X140208000Y-87095067D01*
X140247044Y-87291356D01*
X140323632Y-87476256D01*
X140434821Y-87642662D01*
X140576338Y-87784179D01*
X140725731Y-87884000D01*
X140576338Y-87983821D01*
X140434821Y-88125338D01*
X140323632Y-88291744D01*
X140247044Y-88476644D01*
X140208000Y-88672933D01*
X140208000Y-88873067D01*
X140247044Y-89069356D01*
X140323632Y-89254256D01*
X140434821Y-89420662D01*
X140576338Y-89562179D01*
X140742744Y-89673368D01*
X140927644Y-89749956D01*
X141123933Y-89789000D01*
X141324067Y-89789000D01*
X141445060Y-89764933D01*
X148514000Y-89764933D01*
X148514000Y-89965067D01*
X148553044Y-90161356D01*
X148629632Y-90346256D01*
X148740821Y-90512662D01*
X148882338Y-90654179D01*
X149048744Y-90765368D01*
X149233644Y-90841956D01*
X149429933Y-90881000D01*
X149630067Y-90881000D01*
X149826356Y-90841956D01*
X150011256Y-90765368D01*
X150177662Y-90654179D01*
X150319179Y-90512662D01*
X150430368Y-90346256D01*
X150506956Y-90161356D01*
X150546000Y-89965067D01*
X150546000Y-89764933D01*
X150528989Y-89679408D01*
X172732900Y-89679408D01*
X172732900Y-90457392D01*
X172884677Y-91220427D01*
X173182398Y-91939190D01*
X173614623Y-92586060D01*
X174164740Y-93136177D01*
X174811610Y-93568402D01*
X175530373Y-93866123D01*
X176293408Y-94017900D01*
X177071392Y-94017900D01*
X177834427Y-93866123D01*
X178553190Y-93568402D01*
X179200060Y-93136177D01*
X179750177Y-92586060D01*
X180182402Y-91939190D01*
X180480123Y-91220427D01*
X180631900Y-90457392D01*
X180631900Y-89679408D01*
X180480123Y-88916373D01*
X180182402Y-88197610D01*
X179750177Y-87550740D01*
X179200060Y-87000623D01*
X178553190Y-86568398D01*
X177834427Y-86270677D01*
X177071392Y-86118900D01*
X176293408Y-86118900D01*
X175530373Y-86270677D01*
X174811610Y-86568398D01*
X174164740Y-87000623D01*
X173614623Y-87550740D01*
X173182398Y-88197610D01*
X172884677Y-88916373D01*
X172732900Y-89679408D01*
X150528989Y-89679408D01*
X150506956Y-89568644D01*
X150430368Y-89383744D01*
X150319179Y-89217338D01*
X150177662Y-89075821D01*
X150011256Y-88964632D01*
X149826356Y-88888044D01*
X149630067Y-88849000D01*
X149429933Y-88849000D01*
X149233644Y-88888044D01*
X149048744Y-88964632D01*
X148882338Y-89075821D01*
X148740821Y-89217338D01*
X148629632Y-89383744D01*
X148553044Y-89568644D01*
X148514000Y-89764933D01*
X141445060Y-89764933D01*
X141520356Y-89749956D01*
X141705256Y-89673368D01*
X141871662Y-89562179D01*
X142013179Y-89420662D01*
X142124368Y-89254256D01*
X142200956Y-89069356D01*
X142240000Y-88873067D01*
X142240000Y-88672933D01*
X142200956Y-88476644D01*
X142124368Y-88291744D01*
X142013179Y-88125338D01*
X141871662Y-87983821D01*
X141722269Y-87884000D01*
X141871662Y-87784179D01*
X142013179Y-87642662D01*
X142124368Y-87476256D01*
X142200956Y-87291356D01*
X142240000Y-87095067D01*
X142240000Y-86894933D01*
X142200956Y-86698644D01*
X142124368Y-86513744D01*
X142013179Y-86347338D01*
X141871662Y-86205821D01*
X141817304Y-86169500D01*
X141871662Y-86133179D01*
X142013179Y-85991662D01*
X142124368Y-85825256D01*
X142200956Y-85640356D01*
X142240000Y-85444067D01*
X142240000Y-85243933D01*
X142200956Y-85047644D01*
X142124368Y-84862744D01*
X142013179Y-84696338D01*
X141871662Y-84554821D01*
X141835712Y-84530800D01*
X148877717Y-84530800D01*
X148810338Y-84575821D01*
X148668821Y-84717338D01*
X148557632Y-84883744D01*
X148481044Y-85068644D01*
X148442000Y-85264933D01*
X148442000Y-85465067D01*
X148481044Y-85661356D01*
X148557632Y-85846256D01*
X148668821Y-86012662D01*
X148783159Y-86127000D01*
X148692821Y-86217338D01*
X148581632Y-86383744D01*
X148505044Y-86568644D01*
X148466000Y-86764933D01*
X148466000Y-86965067D01*
X148505044Y-87161356D01*
X148581632Y-87346256D01*
X148692821Y-87512662D01*
X148834338Y-87654179D01*
X149000744Y-87765368D01*
X149185644Y-87841956D01*
X149381933Y-87881000D01*
X149582067Y-87881000D01*
X149778356Y-87841956D01*
X149963256Y-87765368D01*
X150129662Y-87654179D01*
X150271179Y-87512662D01*
X150382368Y-87346256D01*
X150441151Y-87204340D01*
X155537800Y-87204340D01*
X155537800Y-87496860D01*
X155594868Y-87783758D01*
X155706810Y-88054011D01*
X155869325Y-88297232D01*
X156076168Y-88504075D01*
X156319389Y-88666590D01*
X156589642Y-88778532D01*
X156876540Y-88835600D01*
X157169060Y-88835600D01*
X157455958Y-88778532D01*
X157726211Y-88666590D01*
X157969432Y-88504075D01*
X158176275Y-88297232D01*
X158292800Y-88122840D01*
X158409325Y-88297232D01*
X158616168Y-88504075D01*
X158859389Y-88666590D01*
X159129642Y-88778532D01*
X159416540Y-88835600D01*
X159709060Y-88835600D01*
X159995958Y-88778532D01*
X160266211Y-88666590D01*
X160509432Y-88504075D01*
X160716275Y-88297232D01*
X160832800Y-88122840D01*
X160949325Y-88297232D01*
X161156168Y-88504075D01*
X161399389Y-88666590D01*
X161669642Y-88778532D01*
X161956540Y-88835600D01*
X162249060Y-88835600D01*
X162535958Y-88778532D01*
X162806211Y-88666590D01*
X163049432Y-88504075D01*
X163256275Y-88297232D01*
X163372800Y-88122840D01*
X163489325Y-88297232D01*
X163696168Y-88504075D01*
X163939389Y-88666590D01*
X164209642Y-88778532D01*
X164496540Y-88835600D01*
X164789060Y-88835600D01*
X165075958Y-88778532D01*
X165346211Y-88666590D01*
X165589432Y-88504075D01*
X165796275Y-88297232D01*
X165912800Y-88122840D01*
X166029325Y-88297232D01*
X166236168Y-88504075D01*
X166479389Y-88666590D01*
X166749642Y-88778532D01*
X167036540Y-88835600D01*
X167329060Y-88835600D01*
X167615958Y-88778532D01*
X167886211Y-88666590D01*
X168129432Y-88504075D01*
X168261287Y-88372220D01*
X168283298Y-88444780D01*
X168342263Y-88555094D01*
X168421615Y-88651785D01*
X168518306Y-88731137D01*
X168628620Y-88790102D01*
X168748318Y-88826412D01*
X168872800Y-88838672D01*
X169437050Y-88835600D01*
X169595800Y-88676850D01*
X169595800Y-87477600D01*
X169849800Y-87477600D01*
X169849800Y-88676850D01*
X170008550Y-88835600D01*
X170572800Y-88838672D01*
X170697282Y-88826412D01*
X170816980Y-88790102D01*
X170927294Y-88731137D01*
X171023985Y-88651785D01*
X171103337Y-88555094D01*
X171162302Y-88444780D01*
X171198612Y-88325082D01*
X171210872Y-88200600D01*
X171207800Y-87636350D01*
X171049050Y-87477600D01*
X169849800Y-87477600D01*
X169595800Y-87477600D01*
X169575800Y-87477600D01*
X169575800Y-87223600D01*
X169595800Y-87223600D01*
X169595800Y-86024350D01*
X169849800Y-86024350D01*
X169849800Y-87223600D01*
X171049050Y-87223600D01*
X171207800Y-87064850D01*
X171210872Y-86500600D01*
X171198612Y-86376118D01*
X171162302Y-86256420D01*
X171103337Y-86146106D01*
X171023985Y-86049415D01*
X170927294Y-85970063D01*
X170816980Y-85911098D01*
X170697282Y-85874788D01*
X170572800Y-85862528D01*
X170008550Y-85865600D01*
X169849800Y-86024350D01*
X169595800Y-86024350D01*
X169437050Y-85865600D01*
X168872800Y-85862528D01*
X168748318Y-85874788D01*
X168628620Y-85911098D01*
X168518306Y-85970063D01*
X168421615Y-86049415D01*
X168342263Y-86146106D01*
X168283298Y-86256420D01*
X168261287Y-86328980D01*
X168129432Y-86197125D01*
X167886211Y-86034610D01*
X167615958Y-85922668D01*
X167329060Y-85865600D01*
X167036540Y-85865600D01*
X166749642Y-85922668D01*
X166479389Y-86034610D01*
X166236168Y-86197125D01*
X166029325Y-86403968D01*
X165912800Y-86578360D01*
X165796275Y-86403968D01*
X165589432Y-86197125D01*
X165346211Y-86034610D01*
X165075958Y-85922668D01*
X164789060Y-85865600D01*
X164496540Y-85865600D01*
X164209642Y-85922668D01*
X163939389Y-86034610D01*
X163696168Y-86197125D01*
X163489325Y-86403968D01*
X163372800Y-86578360D01*
X163256275Y-86403968D01*
X163049432Y-86197125D01*
X162806211Y-86034610D01*
X162535958Y-85922668D01*
X162249060Y-85865600D01*
X161956540Y-85865600D01*
X161669642Y-85922668D01*
X161399389Y-86034610D01*
X161156168Y-86197125D01*
X160949325Y-86403968D01*
X160832800Y-86578360D01*
X160716275Y-86403968D01*
X160509432Y-86197125D01*
X160266211Y-86034610D01*
X159995958Y-85922668D01*
X159709060Y-85865600D01*
X159416540Y-85865600D01*
X159129642Y-85922668D01*
X158859389Y-86034610D01*
X158616168Y-86197125D01*
X158409325Y-86403968D01*
X158292800Y-86578360D01*
X158176275Y-86403968D01*
X157969432Y-86197125D01*
X157726211Y-86034610D01*
X157455958Y-85922668D01*
X157169060Y-85865600D01*
X156876540Y-85865600D01*
X156589642Y-85922668D01*
X156319389Y-86034610D01*
X156076168Y-86197125D01*
X155869325Y-86403968D01*
X155706810Y-86647189D01*
X155594868Y-86917442D01*
X155537800Y-87204340D01*
X150441151Y-87204340D01*
X150458956Y-87161356D01*
X150498000Y-86965067D01*
X150498000Y-86764933D01*
X150458956Y-86568644D01*
X150382368Y-86383744D01*
X150271179Y-86217338D01*
X150156841Y-86103000D01*
X150247179Y-86012662D01*
X150358368Y-85846256D01*
X150434956Y-85661356D01*
X150474000Y-85465067D01*
X150474000Y-85264933D01*
X150434956Y-85068644D01*
X150358368Y-84883744D01*
X150247179Y-84717338D01*
X150105662Y-84575821D01*
X150038283Y-84530800D01*
X153091655Y-84530800D01*
X153024276Y-84575821D01*
X152882759Y-84717338D01*
X152771570Y-84883744D01*
X152694982Y-85068644D01*
X152655938Y-85264933D01*
X152655938Y-85465067D01*
X152694982Y-85661356D01*
X152771570Y-85846256D01*
X152882759Y-86012662D01*
X153024276Y-86154179D01*
X153190682Y-86265368D01*
X153375582Y-86341956D01*
X153571871Y-86381000D01*
X153772005Y-86381000D01*
X153968294Y-86341956D01*
X154153194Y-86265368D01*
X154319600Y-86154179D01*
X154461117Y-86012662D01*
X154572306Y-85846256D01*
X154648894Y-85661356D01*
X154687938Y-85465067D01*
X154687938Y-85264933D01*
X154648894Y-85068644D01*
X154572306Y-84883744D01*
X154461117Y-84717338D01*
X154319600Y-84575821D01*
X154252221Y-84530800D01*
X178993759Y-84530800D01*
X179001291Y-84602463D01*
X179013099Y-84659986D01*
X179024095Y-84717632D01*
X179026709Y-84726289D01*
X179217274Y-85341906D01*
X179240039Y-85396062D01*
X179262014Y-85450453D01*
X179266259Y-85458438D01*
X179572770Y-86025317D01*
X179605612Y-86074008D01*
X179637741Y-86123106D01*
X179643452Y-86130109D01*
X179643456Y-86130115D01*
X179643461Y-86130120D01*
X180054237Y-86626663D01*
X180095912Y-86668048D01*
X180136965Y-86709970D01*
X180143933Y-86715735D01*
X180643336Y-87123038D01*
X180692279Y-87155556D01*
X180740670Y-87188690D01*
X180748612Y-87192984D01*
X180748624Y-87192992D01*
X180748637Y-87192997D01*
X181317630Y-87495536D01*
X181371863Y-87517889D01*
X181425861Y-87541033D01*
X181434500Y-87543707D01*
X182051432Y-87729970D01*
X182109039Y-87741376D01*
X182166440Y-87753578D01*
X182175434Y-87754523D01*
X182816796Y-87817409D01*
X182816809Y-87817409D01*
X182848191Y-87820500D01*
X187693300Y-87820500D01*
X187693301Y-109601000D01*
X178479320Y-109601000D01*
X177834427Y-109333877D01*
X177071392Y-109182100D01*
X176293408Y-109182100D01*
X175530373Y-109333877D01*
X174885480Y-109601000D01*
X144070606Y-109601000D01*
X142748000Y-108278394D01*
X142748000Y-106289933D01*
X145959000Y-106289933D01*
X145959000Y-106490067D01*
X145998044Y-106686356D01*
X146074632Y-106871256D01*
X146185821Y-107037662D01*
X146327338Y-107179179D01*
X146493744Y-107290368D01*
X146678644Y-107366956D01*
X146874933Y-107406000D01*
X147075067Y-107406000D01*
X147271356Y-107366956D01*
X147456256Y-107290368D01*
X147622662Y-107179179D01*
X147764179Y-107037662D01*
X147875368Y-106871256D01*
X147951956Y-106686356D01*
X147991000Y-106490067D01*
X147991000Y-106289933D01*
X147951956Y-106093644D01*
X147875368Y-105908744D01*
X147764179Y-105742338D01*
X147622662Y-105600821D01*
X147456256Y-105489632D01*
X147271356Y-105413044D01*
X147075067Y-105374000D01*
X146874933Y-105374000D01*
X146678644Y-105413044D01*
X146493744Y-105489632D01*
X146327338Y-105600821D01*
X146185821Y-105742338D01*
X146074632Y-105908744D01*
X145998044Y-106093644D01*
X145959000Y-106289933D01*
X142748000Y-106289933D01*
X142748000Y-102362000D01*
X142745560Y-102337224D01*
X142738333Y-102313399D01*
X142726597Y-102291443D01*
X142710803Y-102272197D01*
X141517410Y-101078804D01*
X141647356Y-101052956D01*
X141832256Y-100976368D01*
X141998662Y-100865179D01*
X142140179Y-100723662D01*
X142251368Y-100557256D01*
X142327956Y-100372356D01*
X142367000Y-100176067D01*
X142367000Y-99975933D01*
X142327956Y-99779644D01*
X142251368Y-99594744D01*
X142140179Y-99428338D01*
X141998662Y-99286821D01*
X141832256Y-99175632D01*
X141647356Y-99099044D01*
X141451067Y-99060000D01*
X141250933Y-99060000D01*
X141054644Y-99099044D01*
X140869744Y-99175632D01*
X140703338Y-99286821D01*
X140561821Y-99428338D01*
X140450632Y-99594744D01*
X140374044Y-99779644D01*
X140348196Y-99909590D01*
X136538606Y-96100000D01*
X155991928Y-96100000D01*
X156004188Y-96224482D01*
X156040498Y-96344180D01*
X156099463Y-96454494D01*
X156178815Y-96551185D01*
X156275506Y-96630537D01*
X156385820Y-96689502D01*
X156458380Y-96711513D01*
X156326525Y-96843368D01*
X156164010Y-97086589D01*
X156052068Y-97356842D01*
X155995000Y-97643740D01*
X155995000Y-97936260D01*
X156052068Y-98223158D01*
X156164010Y-98493411D01*
X156326525Y-98736632D01*
X156533368Y-98943475D01*
X156707760Y-99060000D01*
X156533368Y-99176525D01*
X156326525Y-99383368D01*
X156164010Y-99626589D01*
X156052068Y-99896842D01*
X155995000Y-100183740D01*
X155995000Y-100476260D01*
X156052068Y-100763158D01*
X156164010Y-101033411D01*
X156326525Y-101276632D01*
X156533368Y-101483475D01*
X156707760Y-101600000D01*
X156533368Y-101716525D01*
X156326525Y-101923368D01*
X156164010Y-102166589D01*
X156052068Y-102436842D01*
X155995000Y-102723740D01*
X155995000Y-103016260D01*
X156052068Y-103303158D01*
X156164010Y-103573411D01*
X156326525Y-103816632D01*
X156533368Y-104023475D01*
X156707760Y-104140000D01*
X156533368Y-104256525D01*
X156326525Y-104463368D01*
X156164010Y-104706589D01*
X156052068Y-104976842D01*
X155995000Y-105263740D01*
X155995000Y-105556260D01*
X156052068Y-105843158D01*
X156164010Y-106113411D01*
X156326525Y-106356632D01*
X156533368Y-106563475D01*
X156707760Y-106680000D01*
X156533368Y-106796525D01*
X156326525Y-107003368D01*
X156164010Y-107246589D01*
X156052068Y-107516842D01*
X155995000Y-107803740D01*
X155995000Y-108096260D01*
X156052068Y-108383158D01*
X156164010Y-108653411D01*
X156326525Y-108896632D01*
X156533368Y-109103475D01*
X156776589Y-109265990D01*
X157046842Y-109377932D01*
X157333740Y-109435000D01*
X157626260Y-109435000D01*
X157913158Y-109377932D01*
X158183411Y-109265990D01*
X158426632Y-109103475D01*
X158633475Y-108896632D01*
X158795990Y-108653411D01*
X158907932Y-108383158D01*
X158965000Y-108096260D01*
X158965000Y-107803740D01*
X158907932Y-107516842D01*
X158795990Y-107246589D01*
X158633475Y-107003368D01*
X158426632Y-106796525D01*
X158252240Y-106680000D01*
X158426632Y-106563475D01*
X158633475Y-106356632D01*
X158795990Y-106113411D01*
X158907932Y-105843158D01*
X158965000Y-105556260D01*
X158965000Y-105263740D01*
X158907932Y-104976842D01*
X158795990Y-104706589D01*
X158633475Y-104463368D01*
X158426632Y-104256525D01*
X158252240Y-104140000D01*
X158426632Y-104023475D01*
X158633475Y-103816632D01*
X158795990Y-103573411D01*
X158907932Y-103303158D01*
X158913768Y-103273816D01*
X181980000Y-103273816D01*
X181980000Y-103576184D01*
X182038989Y-103872743D01*
X182154701Y-104152095D01*
X182322688Y-104403505D01*
X182536495Y-104617312D01*
X182787905Y-104785299D01*
X183067257Y-104901011D01*
X183363816Y-104960000D01*
X183666184Y-104960000D01*
X183962743Y-104901011D01*
X184242095Y-104785299D01*
X184493505Y-104617312D01*
X184707312Y-104403505D01*
X184875299Y-104152095D01*
X184991011Y-103872743D01*
X185050000Y-103576184D01*
X185050000Y-103273816D01*
X184991011Y-102977257D01*
X184875299Y-102697905D01*
X184707312Y-102446495D01*
X184493505Y-102232688D01*
X184242095Y-102064701D01*
X183962743Y-101948989D01*
X183666184Y-101890000D01*
X183363816Y-101890000D01*
X183067257Y-101948989D01*
X182787905Y-102064701D01*
X182536495Y-102232688D01*
X182322688Y-102446495D01*
X182154701Y-102697905D01*
X182038989Y-102977257D01*
X181980000Y-103273816D01*
X158913768Y-103273816D01*
X158965000Y-103016260D01*
X158965000Y-102723740D01*
X158907932Y-102436842D01*
X158795990Y-102166589D01*
X158633475Y-101923368D01*
X158426632Y-101716525D01*
X158292549Y-101626933D01*
X174244000Y-101626933D01*
X174244000Y-101827067D01*
X174283044Y-102023356D01*
X174359632Y-102208256D01*
X174470821Y-102374662D01*
X174612338Y-102516179D01*
X174778744Y-102627368D01*
X174963644Y-102703956D01*
X175159933Y-102743000D01*
X175360067Y-102743000D01*
X175556356Y-102703956D01*
X175741256Y-102627368D01*
X175907662Y-102516179D01*
X176049179Y-102374662D01*
X176160368Y-102208256D01*
X176236956Y-102023356D01*
X176276000Y-101827067D01*
X176276000Y-101626933D01*
X176236956Y-101430644D01*
X176160368Y-101245744D01*
X176049179Y-101079338D01*
X175907662Y-100937821D01*
X175741256Y-100826632D01*
X175556356Y-100750044D01*
X175360067Y-100711000D01*
X175159933Y-100711000D01*
X174963644Y-100750044D01*
X174778744Y-100826632D01*
X174612338Y-100937821D01*
X174470821Y-101079338D01*
X174359632Y-101245744D01*
X174283044Y-101430644D01*
X174244000Y-101626933D01*
X158292549Y-101626933D01*
X158252240Y-101600000D01*
X158426632Y-101483475D01*
X158633475Y-101276632D01*
X158795990Y-101033411D01*
X158907932Y-100763158D01*
X158965000Y-100476260D01*
X158965000Y-100183740D01*
X158907932Y-99896842D01*
X158795990Y-99626589D01*
X158633475Y-99383368D01*
X158426632Y-99176525D01*
X158252240Y-99060000D01*
X158426632Y-98943475D01*
X158633475Y-98736632D01*
X158795990Y-98493411D01*
X158907932Y-98223158D01*
X158965000Y-97936260D01*
X158965000Y-97643740D01*
X158941381Y-97525000D01*
X181976928Y-97525000D01*
X181976928Y-99325000D01*
X181989188Y-99449482D01*
X182025498Y-99569180D01*
X182084463Y-99679494D01*
X182163815Y-99776185D01*
X182260506Y-99855537D01*
X182370820Y-99914502D01*
X182490518Y-99950812D01*
X182615000Y-99963072D01*
X184415000Y-99963072D01*
X184539482Y-99950812D01*
X184659180Y-99914502D01*
X184769494Y-99855537D01*
X184866185Y-99776185D01*
X184945537Y-99679494D01*
X185004502Y-99569180D01*
X185040812Y-99449482D01*
X185053072Y-99325000D01*
X185053072Y-97525000D01*
X185040812Y-97400518D01*
X185004502Y-97280820D01*
X184945537Y-97170506D01*
X184866185Y-97073815D01*
X184769494Y-96994463D01*
X184659180Y-96935498D01*
X184539482Y-96899188D01*
X184415000Y-96886928D01*
X182615000Y-96886928D01*
X182490518Y-96899188D01*
X182370820Y-96935498D01*
X182260506Y-96994463D01*
X182163815Y-97073815D01*
X182084463Y-97170506D01*
X182025498Y-97280820D01*
X181989188Y-97400518D01*
X181976928Y-97525000D01*
X158941381Y-97525000D01*
X158907932Y-97356842D01*
X158795990Y-97086589D01*
X158633475Y-96843368D01*
X158501620Y-96711513D01*
X158574180Y-96689502D01*
X158684494Y-96630537D01*
X158781185Y-96551185D01*
X158860537Y-96454494D01*
X158919502Y-96344180D01*
X158955812Y-96224482D01*
X158968072Y-96100000D01*
X158965000Y-95535750D01*
X158806250Y-95377000D01*
X157607000Y-95377000D01*
X157607000Y-95397000D01*
X157353000Y-95397000D01*
X157353000Y-95377000D01*
X156153750Y-95377000D01*
X155995000Y-95535750D01*
X155991928Y-96100000D01*
X136538606Y-96100000D01*
X134838606Y-94400000D01*
X155991928Y-94400000D01*
X155995000Y-94964250D01*
X156153750Y-95123000D01*
X157353000Y-95123000D01*
X157353000Y-93923750D01*
X157607000Y-93923750D01*
X157607000Y-95123000D01*
X158806250Y-95123000D01*
X158965000Y-94964250D01*
X158968072Y-94400000D01*
X158955812Y-94275518D01*
X158919502Y-94155820D01*
X158860537Y-94045506D01*
X158781185Y-93948815D01*
X158684494Y-93869463D01*
X158574180Y-93810498D01*
X158454482Y-93774188D01*
X158330000Y-93761928D01*
X157765750Y-93765000D01*
X157607000Y-93923750D01*
X157353000Y-93923750D01*
X157194250Y-93765000D01*
X156630000Y-93761928D01*
X156505518Y-93774188D01*
X156385820Y-93810498D01*
X156275506Y-93869463D01*
X156178815Y-93948815D01*
X156099463Y-94045506D01*
X156040498Y-94155820D01*
X156004188Y-94275518D01*
X155991928Y-94400000D01*
X134838606Y-94400000D01*
X133203539Y-92764933D01*
X135100000Y-92764933D01*
X135100000Y-92965067D01*
X135139044Y-93161356D01*
X135215632Y-93346256D01*
X135326821Y-93512662D01*
X135468338Y-93654179D01*
X135634744Y-93765368D01*
X135819644Y-93841956D01*
X136015933Y-93881000D01*
X136216067Y-93881000D01*
X136412356Y-93841956D01*
X136597256Y-93765368D01*
X136763662Y-93654179D01*
X136905179Y-93512662D01*
X137016368Y-93346256D01*
X137092956Y-93161356D01*
X137132000Y-92965067D01*
X137132000Y-92764933D01*
X148237000Y-92764933D01*
X148237000Y-92965067D01*
X148276044Y-93161356D01*
X148352632Y-93346256D01*
X148463821Y-93512662D01*
X148605338Y-93654179D01*
X148771744Y-93765368D01*
X148956644Y-93841956D01*
X149152933Y-93881000D01*
X149353067Y-93881000D01*
X149549356Y-93841956D01*
X149734256Y-93765368D01*
X149900662Y-93654179D01*
X150042179Y-93512662D01*
X150153368Y-93346256D01*
X150229956Y-93161356D01*
X150269000Y-92965067D01*
X150269000Y-92764933D01*
X152753000Y-92764933D01*
X152753000Y-92965067D01*
X152792044Y-93161356D01*
X152868632Y-93346256D01*
X152979821Y-93512662D01*
X153121338Y-93654179D01*
X153287744Y-93765368D01*
X153472644Y-93841956D01*
X153668933Y-93881000D01*
X153869067Y-93881000D01*
X154065356Y-93841956D01*
X154250256Y-93765368D01*
X154416662Y-93654179D01*
X154558179Y-93512662D01*
X154669368Y-93346256D01*
X154745956Y-93161356D01*
X154785000Y-92965067D01*
X154785000Y-92764933D01*
X154745956Y-92568644D01*
X154669368Y-92383744D01*
X154558179Y-92217338D01*
X154416662Y-92075821D01*
X154250256Y-91964632D01*
X154065356Y-91888044D01*
X153869067Y-91849000D01*
X153668933Y-91849000D01*
X153472644Y-91888044D01*
X153287744Y-91964632D01*
X153121338Y-92075821D01*
X152979821Y-92217338D01*
X152868632Y-92383744D01*
X152792044Y-92568644D01*
X152753000Y-92764933D01*
X150269000Y-92764933D01*
X150229956Y-92568644D01*
X150153368Y-92383744D01*
X150042179Y-92217338D01*
X149900662Y-92075821D01*
X149734256Y-91964632D01*
X149549356Y-91888044D01*
X149353067Y-91849000D01*
X149152933Y-91849000D01*
X148956644Y-91888044D01*
X148771744Y-91964632D01*
X148605338Y-92075821D01*
X148463821Y-92217338D01*
X148352632Y-92383744D01*
X148276044Y-92568644D01*
X148237000Y-92764933D01*
X137132000Y-92764933D01*
X137092956Y-92568644D01*
X137016368Y-92383744D01*
X136905179Y-92217338D01*
X136763662Y-92075821D01*
X136597256Y-91964632D01*
X136412356Y-91888044D01*
X136216067Y-91849000D01*
X136015933Y-91849000D01*
X135819644Y-91888044D01*
X135634744Y-91964632D01*
X135468338Y-92075821D01*
X135326821Y-92217338D01*
X135215632Y-92383744D01*
X135139044Y-92568644D01*
X135100000Y-92764933D01*
X133203539Y-92764933D01*
X131840257Y-91401651D01*
X131915323Y-91220427D01*
X132067100Y-90457392D01*
X132067100Y-89679408D01*
X131915323Y-88916373D01*
X131617602Y-88197610D01*
X131185377Y-87550740D01*
X130635260Y-87000623D01*
X129988390Y-86568398D01*
X129269627Y-86270677D01*
X128506592Y-86118900D01*
X127728608Y-86118900D01*
X126965573Y-86270677D01*
X126784349Y-86345743D01*
X125630475Y-85191869D01*
X125779170Y-84699368D01*
X125790576Y-84641761D01*
X125802778Y-84584360D01*
X125803723Y-84575366D01*
X125808093Y-84530800D01*
X140612288Y-84530800D01*
X140576338Y-84554821D01*
%TA.AperFunction,Conductor*%
D19*
G36*
X140576338Y-84554821D02*
G01*
X140434821Y-84696338D01*
X140323632Y-84862744D01*
X140247044Y-85047644D01*
X140208000Y-85243933D01*
X140208000Y-85444067D01*
X140247044Y-85640356D01*
X140323632Y-85825256D01*
X140434821Y-85991662D01*
X140576338Y-86133179D01*
X140630696Y-86169500D01*
X140576338Y-86205821D01*
X140434821Y-86347338D01*
X140323632Y-86513744D01*
X140247044Y-86698644D01*
X140208000Y-86894933D01*
X140208000Y-87095067D01*
X140247044Y-87291356D01*
X140323632Y-87476256D01*
X140434821Y-87642662D01*
X140576338Y-87784179D01*
X140725731Y-87884000D01*
X140576338Y-87983821D01*
X140434821Y-88125338D01*
X140323632Y-88291744D01*
X140247044Y-88476644D01*
X140208000Y-88672933D01*
X140208000Y-88873067D01*
X140247044Y-89069356D01*
X140323632Y-89254256D01*
X140434821Y-89420662D01*
X140576338Y-89562179D01*
X140742744Y-89673368D01*
X140927644Y-89749956D01*
X141123933Y-89789000D01*
X141324067Y-89789000D01*
X141445060Y-89764933D01*
X148514000Y-89764933D01*
X148514000Y-89965067D01*
X148553044Y-90161356D01*
X148629632Y-90346256D01*
X148740821Y-90512662D01*
X148882338Y-90654179D01*
X149048744Y-90765368D01*
X149233644Y-90841956D01*
X149429933Y-90881000D01*
X149630067Y-90881000D01*
X149826356Y-90841956D01*
X150011256Y-90765368D01*
X150177662Y-90654179D01*
X150319179Y-90512662D01*
X150430368Y-90346256D01*
X150506956Y-90161356D01*
X150546000Y-89965067D01*
X150546000Y-89764933D01*
X150528989Y-89679408D01*
X172732900Y-89679408D01*
X172732900Y-90457392D01*
X172884677Y-91220427D01*
X173182398Y-91939190D01*
X173614623Y-92586060D01*
X174164740Y-93136177D01*
X174811610Y-93568402D01*
X175530373Y-93866123D01*
X176293408Y-94017900D01*
X177071392Y-94017900D01*
X177834427Y-93866123D01*
X178553190Y-93568402D01*
X179200060Y-93136177D01*
X179750177Y-92586060D01*
X180182402Y-91939190D01*
X180480123Y-91220427D01*
X180631900Y-90457392D01*
X180631900Y-89679408D01*
X180480123Y-88916373D01*
X180182402Y-88197610D01*
X179750177Y-87550740D01*
X179200060Y-87000623D01*
X178553190Y-86568398D01*
X177834427Y-86270677D01*
X177071392Y-86118900D01*
X176293408Y-86118900D01*
X175530373Y-86270677D01*
X174811610Y-86568398D01*
X174164740Y-87000623D01*
X173614623Y-87550740D01*
X173182398Y-88197610D01*
X172884677Y-88916373D01*
X172732900Y-89679408D01*
X150528989Y-89679408D01*
X150506956Y-89568644D01*
X150430368Y-89383744D01*
X150319179Y-89217338D01*
X150177662Y-89075821D01*
X150011256Y-88964632D01*
X149826356Y-88888044D01*
X149630067Y-88849000D01*
X149429933Y-88849000D01*
X149233644Y-88888044D01*
X149048744Y-88964632D01*
X148882338Y-89075821D01*
X148740821Y-89217338D01*
X148629632Y-89383744D01*
X148553044Y-89568644D01*
X148514000Y-89764933D01*
X141445060Y-89764933D01*
X141520356Y-89749956D01*
X141705256Y-89673368D01*
X141871662Y-89562179D01*
X142013179Y-89420662D01*
X142124368Y-89254256D01*
X142200956Y-89069356D01*
X142240000Y-88873067D01*
X142240000Y-88672933D01*
X142200956Y-88476644D01*
X142124368Y-88291744D01*
X142013179Y-88125338D01*
X141871662Y-87983821D01*
X141722269Y-87884000D01*
X141871662Y-87784179D01*
X142013179Y-87642662D01*
X142124368Y-87476256D01*
X142200956Y-87291356D01*
X142240000Y-87095067D01*
X142240000Y-86894933D01*
X142200956Y-86698644D01*
X142124368Y-86513744D01*
X142013179Y-86347338D01*
X141871662Y-86205821D01*
X141817304Y-86169500D01*
X141871662Y-86133179D01*
X142013179Y-85991662D01*
X142124368Y-85825256D01*
X142200956Y-85640356D01*
X142240000Y-85444067D01*
X142240000Y-85243933D01*
X142200956Y-85047644D01*
X142124368Y-84862744D01*
X142013179Y-84696338D01*
X141871662Y-84554821D01*
X141835712Y-84530800D01*
X148877717Y-84530800D01*
X148810338Y-84575821D01*
X148668821Y-84717338D01*
X148557632Y-84883744D01*
X148481044Y-85068644D01*
X148442000Y-85264933D01*
X148442000Y-85465067D01*
X148481044Y-85661356D01*
X148557632Y-85846256D01*
X148668821Y-86012662D01*
X148783159Y-86127000D01*
X148692821Y-86217338D01*
X148581632Y-86383744D01*
X148505044Y-86568644D01*
X148466000Y-86764933D01*
X148466000Y-86965067D01*
X148505044Y-87161356D01*
X148581632Y-87346256D01*
X148692821Y-87512662D01*
X148834338Y-87654179D01*
X149000744Y-87765368D01*
X149185644Y-87841956D01*
X149381933Y-87881000D01*
X149582067Y-87881000D01*
X149778356Y-87841956D01*
X149963256Y-87765368D01*
X150129662Y-87654179D01*
X150271179Y-87512662D01*
X150382368Y-87346256D01*
X150441151Y-87204340D01*
X155537800Y-87204340D01*
X155537800Y-87496860D01*
X155594868Y-87783758D01*
X155706810Y-88054011D01*
X155869325Y-88297232D01*
X156076168Y-88504075D01*
X156319389Y-88666590D01*
X156589642Y-88778532D01*
X156876540Y-88835600D01*
X157169060Y-88835600D01*
X157455958Y-88778532D01*
X157726211Y-88666590D01*
X157969432Y-88504075D01*
X158176275Y-88297232D01*
X158292800Y-88122840D01*
X158409325Y-88297232D01*
X158616168Y-88504075D01*
X158859389Y-88666590D01*
X159129642Y-88778532D01*
X159416540Y-88835600D01*
X159709060Y-88835600D01*
X159995958Y-88778532D01*
X160266211Y-88666590D01*
X160509432Y-88504075D01*
X160716275Y-88297232D01*
X160832800Y-88122840D01*
X160949325Y-88297232D01*
X161156168Y-88504075D01*
X161399389Y-88666590D01*
X161669642Y-88778532D01*
X161956540Y-88835600D01*
X162249060Y-88835600D01*
X162535958Y-88778532D01*
X162806211Y-88666590D01*
X163049432Y-88504075D01*
X163256275Y-88297232D01*
X163372800Y-88122840D01*
X163489325Y-88297232D01*
X163696168Y-88504075D01*
X163939389Y-88666590D01*
X164209642Y-88778532D01*
X164496540Y-88835600D01*
X164789060Y-88835600D01*
X165075958Y-88778532D01*
X165346211Y-88666590D01*
X165589432Y-88504075D01*
X165796275Y-88297232D01*
X165912800Y-88122840D01*
X166029325Y-88297232D01*
X166236168Y-88504075D01*
X166479389Y-88666590D01*
X166749642Y-88778532D01*
X167036540Y-88835600D01*
X167329060Y-88835600D01*
X167615958Y-88778532D01*
X167886211Y-88666590D01*
X168129432Y-88504075D01*
X168261287Y-88372220D01*
X168283298Y-88444780D01*
X168342263Y-88555094D01*
X168421615Y-88651785D01*
X168518306Y-88731137D01*
X168628620Y-88790102D01*
X168748318Y-88826412D01*
X168872800Y-88838672D01*
X169437050Y-88835600D01*
X169595800Y-88676850D01*
X169595800Y-87477600D01*
X169849800Y-87477600D01*
X169849800Y-88676850D01*
X170008550Y-88835600D01*
X170572800Y-88838672D01*
X170697282Y-88826412D01*
X170816980Y-88790102D01*
X170927294Y-88731137D01*
X171023985Y-88651785D01*
X171103337Y-88555094D01*
X171162302Y-88444780D01*
X171198612Y-88325082D01*
X171210872Y-88200600D01*
X171207800Y-87636350D01*
X171049050Y-87477600D01*
X169849800Y-87477600D01*
X169595800Y-87477600D01*
X169575800Y-87477600D01*
X169575800Y-87223600D01*
X169595800Y-87223600D01*
X169595800Y-86024350D01*
X169849800Y-86024350D01*
X169849800Y-87223600D01*
X171049050Y-87223600D01*
X171207800Y-87064850D01*
X171210872Y-86500600D01*
X171198612Y-86376118D01*
X171162302Y-86256420D01*
X171103337Y-86146106D01*
X171023985Y-86049415D01*
X170927294Y-85970063D01*
X170816980Y-85911098D01*
X170697282Y-85874788D01*
X170572800Y-85862528D01*
X170008550Y-85865600D01*
X169849800Y-86024350D01*
X169595800Y-86024350D01*
X169437050Y-85865600D01*
X168872800Y-85862528D01*
X168748318Y-85874788D01*
X168628620Y-85911098D01*
X168518306Y-85970063D01*
X168421615Y-86049415D01*
X168342263Y-86146106D01*
X168283298Y-86256420D01*
X168261287Y-86328980D01*
X168129432Y-86197125D01*
X167886211Y-86034610D01*
X167615958Y-85922668D01*
X167329060Y-85865600D01*
X167036540Y-85865600D01*
X166749642Y-85922668D01*
X166479389Y-86034610D01*
X166236168Y-86197125D01*
X166029325Y-86403968D01*
X165912800Y-86578360D01*
X165796275Y-86403968D01*
X165589432Y-86197125D01*
X165346211Y-86034610D01*
X165075958Y-85922668D01*
X164789060Y-85865600D01*
X164496540Y-85865600D01*
X164209642Y-85922668D01*
X163939389Y-86034610D01*
X163696168Y-86197125D01*
X163489325Y-86403968D01*
X163372800Y-86578360D01*
X163256275Y-86403968D01*
X163049432Y-86197125D01*
X162806211Y-86034610D01*
X162535958Y-85922668D01*
X162249060Y-85865600D01*
X161956540Y-85865600D01*
X161669642Y-85922668D01*
X161399389Y-86034610D01*
X161156168Y-86197125D01*
X160949325Y-86403968D01*
X160832800Y-86578360D01*
X160716275Y-86403968D01*
X160509432Y-86197125D01*
X160266211Y-86034610D01*
X159995958Y-85922668D01*
X159709060Y-85865600D01*
X159416540Y-85865600D01*
X159129642Y-85922668D01*
X158859389Y-86034610D01*
X158616168Y-86197125D01*
X158409325Y-86403968D01*
X158292800Y-86578360D01*
X158176275Y-86403968D01*
X157969432Y-86197125D01*
X157726211Y-86034610D01*
X157455958Y-85922668D01*
X157169060Y-85865600D01*
X156876540Y-85865600D01*
X156589642Y-85922668D01*
X156319389Y-86034610D01*
X156076168Y-86197125D01*
X155869325Y-86403968D01*
X155706810Y-86647189D01*
X155594868Y-86917442D01*
X155537800Y-87204340D01*
X150441151Y-87204340D01*
X150458956Y-87161356D01*
X150498000Y-86965067D01*
X150498000Y-86764933D01*
X150458956Y-86568644D01*
X150382368Y-86383744D01*
X150271179Y-86217338D01*
X150156841Y-86103000D01*
X150247179Y-86012662D01*
X150358368Y-85846256D01*
X150434956Y-85661356D01*
X150474000Y-85465067D01*
X150474000Y-85264933D01*
X150434956Y-85068644D01*
X150358368Y-84883744D01*
X150247179Y-84717338D01*
X150105662Y-84575821D01*
X150038283Y-84530800D01*
X153091655Y-84530800D01*
X153024276Y-84575821D01*
X152882759Y-84717338D01*
X152771570Y-84883744D01*
X152694982Y-85068644D01*
X152655938Y-85264933D01*
X152655938Y-85465067D01*
X152694982Y-85661356D01*
X152771570Y-85846256D01*
X152882759Y-86012662D01*
X153024276Y-86154179D01*
X153190682Y-86265368D01*
X153375582Y-86341956D01*
X153571871Y-86381000D01*
X153772005Y-86381000D01*
X153968294Y-86341956D01*
X154153194Y-86265368D01*
X154319600Y-86154179D01*
X154461117Y-86012662D01*
X154572306Y-85846256D01*
X154648894Y-85661356D01*
X154687938Y-85465067D01*
X154687938Y-85264933D01*
X154648894Y-85068644D01*
X154572306Y-84883744D01*
X154461117Y-84717338D01*
X154319600Y-84575821D01*
X154252221Y-84530800D01*
X178993759Y-84530800D01*
X179001291Y-84602463D01*
X179013099Y-84659986D01*
X179024095Y-84717632D01*
X179026709Y-84726289D01*
X179217274Y-85341906D01*
X179240039Y-85396062D01*
X179262014Y-85450453D01*
X179266259Y-85458438D01*
X179572770Y-86025317D01*
X179605612Y-86074008D01*
X179637741Y-86123106D01*
X179643452Y-86130109D01*
X179643456Y-86130115D01*
X179643461Y-86130120D01*
X180054237Y-86626663D01*
X180095912Y-86668048D01*
X180136965Y-86709970D01*
X180143933Y-86715735D01*
X180643336Y-87123038D01*
X180692279Y-87155556D01*
X180740670Y-87188690D01*
X180748612Y-87192984D01*
X180748624Y-87192992D01*
X180748637Y-87192997D01*
X181317630Y-87495536D01*
X181371863Y-87517889D01*
X181425861Y-87541033D01*
X181434500Y-87543707D01*
X182051432Y-87729970D01*
X182109039Y-87741376D01*
X182166440Y-87753578D01*
X182175434Y-87754523D01*
X182816796Y-87817409D01*
X182816809Y-87817409D01*
X182848191Y-87820500D01*
X187693300Y-87820500D01*
X187693301Y-109601000D01*
X178479320Y-109601000D01*
X177834427Y-109333877D01*
X177071392Y-109182100D01*
X176293408Y-109182100D01*
X175530373Y-109333877D01*
X174885480Y-109601000D01*
X144070606Y-109601000D01*
X142748000Y-108278394D01*
X142748000Y-106289933D01*
X145959000Y-106289933D01*
X145959000Y-106490067D01*
X145998044Y-106686356D01*
X146074632Y-106871256D01*
X146185821Y-107037662D01*
X146327338Y-107179179D01*
X146493744Y-107290368D01*
X146678644Y-107366956D01*
X146874933Y-107406000D01*
X147075067Y-107406000D01*
X147271356Y-107366956D01*
X147456256Y-107290368D01*
X147622662Y-107179179D01*
X147764179Y-107037662D01*
X147875368Y-106871256D01*
X147951956Y-106686356D01*
X147991000Y-106490067D01*
X147991000Y-106289933D01*
X147951956Y-106093644D01*
X147875368Y-105908744D01*
X147764179Y-105742338D01*
X147622662Y-105600821D01*
X147456256Y-105489632D01*
X147271356Y-105413044D01*
X147075067Y-105374000D01*
X146874933Y-105374000D01*
X146678644Y-105413044D01*
X146493744Y-105489632D01*
X146327338Y-105600821D01*
X146185821Y-105742338D01*
X146074632Y-105908744D01*
X145998044Y-106093644D01*
X145959000Y-106289933D01*
X142748000Y-106289933D01*
X142748000Y-102362000D01*
X142745560Y-102337224D01*
X142738333Y-102313399D01*
X142726597Y-102291443D01*
X142710803Y-102272197D01*
X141517410Y-101078804D01*
X141647356Y-101052956D01*
X141832256Y-100976368D01*
X141998662Y-100865179D01*
X142140179Y-100723662D01*
X142251368Y-100557256D01*
X142327956Y-100372356D01*
X142367000Y-100176067D01*
X142367000Y-99975933D01*
X142327956Y-99779644D01*
X142251368Y-99594744D01*
X142140179Y-99428338D01*
X141998662Y-99286821D01*
X141832256Y-99175632D01*
X141647356Y-99099044D01*
X141451067Y-99060000D01*
X141250933Y-99060000D01*
X141054644Y-99099044D01*
X140869744Y-99175632D01*
X140703338Y-99286821D01*
X140561821Y-99428338D01*
X140450632Y-99594744D01*
X140374044Y-99779644D01*
X140348196Y-99909590D01*
X136538606Y-96100000D01*
X155991928Y-96100000D01*
X156004188Y-96224482D01*
X156040498Y-96344180D01*
X156099463Y-96454494D01*
X156178815Y-96551185D01*
X156275506Y-96630537D01*
X156385820Y-96689502D01*
X156458380Y-96711513D01*
X156326525Y-96843368D01*
X156164010Y-97086589D01*
X156052068Y-97356842D01*
X155995000Y-97643740D01*
X155995000Y-97936260D01*
X156052068Y-98223158D01*
X156164010Y-98493411D01*
X156326525Y-98736632D01*
X156533368Y-98943475D01*
X156707760Y-99060000D01*
X156533368Y-99176525D01*
X156326525Y-99383368D01*
X156164010Y-99626589D01*
X156052068Y-99896842D01*
X155995000Y-100183740D01*
X155995000Y-100476260D01*
X156052068Y-100763158D01*
X156164010Y-101033411D01*
X156326525Y-101276632D01*
X156533368Y-101483475D01*
X156707760Y-101600000D01*
X156533368Y-101716525D01*
X156326525Y-101923368D01*
X156164010Y-102166589D01*
X156052068Y-102436842D01*
X155995000Y-102723740D01*
X155995000Y-103016260D01*
X156052068Y-103303158D01*
X156164010Y-103573411D01*
X156326525Y-103816632D01*
X156533368Y-104023475D01*
X156707760Y-104140000D01*
X156533368Y-104256525D01*
X156326525Y-104463368D01*
X156164010Y-104706589D01*
X156052068Y-104976842D01*
X155995000Y-105263740D01*
X155995000Y-105556260D01*
X156052068Y-105843158D01*
X156164010Y-106113411D01*
X156326525Y-106356632D01*
X156533368Y-106563475D01*
X156707760Y-106680000D01*
X156533368Y-106796525D01*
X156326525Y-107003368D01*
X156164010Y-107246589D01*
X156052068Y-107516842D01*
X155995000Y-107803740D01*
X155995000Y-108096260D01*
X156052068Y-108383158D01*
X156164010Y-108653411D01*
X156326525Y-108896632D01*
X156533368Y-109103475D01*
X156776589Y-109265990D01*
X157046842Y-109377932D01*
X157333740Y-109435000D01*
X157626260Y-109435000D01*
X157913158Y-109377932D01*
X158183411Y-109265990D01*
X158426632Y-109103475D01*
X158633475Y-108896632D01*
X158795990Y-108653411D01*
X158907932Y-108383158D01*
X158965000Y-108096260D01*
X158965000Y-107803740D01*
X158907932Y-107516842D01*
X158795990Y-107246589D01*
X158633475Y-107003368D01*
X158426632Y-106796525D01*
X158252240Y-106680000D01*
X158426632Y-106563475D01*
X158633475Y-106356632D01*
X158795990Y-106113411D01*
X158907932Y-105843158D01*
X158965000Y-105556260D01*
X158965000Y-105263740D01*
X158907932Y-104976842D01*
X158795990Y-104706589D01*
X158633475Y-104463368D01*
X158426632Y-104256525D01*
X158252240Y-104140000D01*
X158426632Y-104023475D01*
X158633475Y-103816632D01*
X158795990Y-103573411D01*
X158907932Y-103303158D01*
X158913768Y-103273816D01*
X181980000Y-103273816D01*
X181980000Y-103576184D01*
X182038989Y-103872743D01*
X182154701Y-104152095D01*
X182322688Y-104403505D01*
X182536495Y-104617312D01*
X182787905Y-104785299D01*
X183067257Y-104901011D01*
X183363816Y-104960000D01*
X183666184Y-104960000D01*
X183962743Y-104901011D01*
X184242095Y-104785299D01*
X184493505Y-104617312D01*
X184707312Y-104403505D01*
X184875299Y-104152095D01*
X184991011Y-103872743D01*
X185050000Y-103576184D01*
X185050000Y-103273816D01*
X184991011Y-102977257D01*
X184875299Y-102697905D01*
X184707312Y-102446495D01*
X184493505Y-102232688D01*
X184242095Y-102064701D01*
X183962743Y-101948989D01*
X183666184Y-101890000D01*
X183363816Y-101890000D01*
X183067257Y-101948989D01*
X182787905Y-102064701D01*
X182536495Y-102232688D01*
X182322688Y-102446495D01*
X182154701Y-102697905D01*
X182038989Y-102977257D01*
X181980000Y-103273816D01*
X158913768Y-103273816D01*
X158965000Y-103016260D01*
X158965000Y-102723740D01*
X158907932Y-102436842D01*
X158795990Y-102166589D01*
X158633475Y-101923368D01*
X158426632Y-101716525D01*
X158292549Y-101626933D01*
X174244000Y-101626933D01*
X174244000Y-101827067D01*
X174283044Y-102023356D01*
X174359632Y-102208256D01*
X174470821Y-102374662D01*
X174612338Y-102516179D01*
X174778744Y-102627368D01*
X174963644Y-102703956D01*
X175159933Y-102743000D01*
X175360067Y-102743000D01*
X175556356Y-102703956D01*
X175741256Y-102627368D01*
X175907662Y-102516179D01*
X176049179Y-102374662D01*
X176160368Y-102208256D01*
X176236956Y-102023356D01*
X176276000Y-101827067D01*
X176276000Y-101626933D01*
X176236956Y-101430644D01*
X176160368Y-101245744D01*
X176049179Y-101079338D01*
X175907662Y-100937821D01*
X175741256Y-100826632D01*
X175556356Y-100750044D01*
X175360067Y-100711000D01*
X175159933Y-100711000D01*
X174963644Y-100750044D01*
X174778744Y-100826632D01*
X174612338Y-100937821D01*
X174470821Y-101079338D01*
X174359632Y-101245744D01*
X174283044Y-101430644D01*
X174244000Y-101626933D01*
X158292549Y-101626933D01*
X158252240Y-101600000D01*
X158426632Y-101483475D01*
X158633475Y-101276632D01*
X158795990Y-101033411D01*
X158907932Y-100763158D01*
X158965000Y-100476260D01*
X158965000Y-100183740D01*
X158907932Y-99896842D01*
X158795990Y-99626589D01*
X158633475Y-99383368D01*
X158426632Y-99176525D01*
X158252240Y-99060000D01*
X158426632Y-98943475D01*
X158633475Y-98736632D01*
X158795990Y-98493411D01*
X158907932Y-98223158D01*
X158965000Y-97936260D01*
X158965000Y-97643740D01*
X158941381Y-97525000D01*
X181976928Y-97525000D01*
X181976928Y-99325000D01*
X181989188Y-99449482D01*
X182025498Y-99569180D01*
X182084463Y-99679494D01*
X182163815Y-99776185D01*
X182260506Y-99855537D01*
X182370820Y-99914502D01*
X182490518Y-99950812D01*
X182615000Y-99963072D01*
X184415000Y-99963072D01*
X184539482Y-99950812D01*
X184659180Y-99914502D01*
X184769494Y-99855537D01*
X184866185Y-99776185D01*
X184945537Y-99679494D01*
X185004502Y-99569180D01*
X185040812Y-99449482D01*
X185053072Y-99325000D01*
X185053072Y-97525000D01*
X185040812Y-97400518D01*
X185004502Y-97280820D01*
X184945537Y-97170506D01*
X184866185Y-97073815D01*
X184769494Y-96994463D01*
X184659180Y-96935498D01*
X184539482Y-96899188D01*
X184415000Y-96886928D01*
X182615000Y-96886928D01*
X182490518Y-96899188D01*
X182370820Y-96935498D01*
X182260506Y-96994463D01*
X182163815Y-97073815D01*
X182084463Y-97170506D01*
X182025498Y-97280820D01*
X181989188Y-97400518D01*
X181976928Y-97525000D01*
X158941381Y-97525000D01*
X158907932Y-97356842D01*
X158795990Y-97086589D01*
X158633475Y-96843368D01*
X158501620Y-96711513D01*
X158574180Y-96689502D01*
X158684494Y-96630537D01*
X158781185Y-96551185D01*
X158860537Y-96454494D01*
X158919502Y-96344180D01*
X158955812Y-96224482D01*
X158968072Y-96100000D01*
X158965000Y-95535750D01*
X158806250Y-95377000D01*
X157607000Y-95377000D01*
X157607000Y-95397000D01*
X157353000Y-95397000D01*
X157353000Y-95377000D01*
X156153750Y-95377000D01*
X155995000Y-95535750D01*
X155991928Y-96100000D01*
X136538606Y-96100000D01*
X134838606Y-94400000D01*
X155991928Y-94400000D01*
X155995000Y-94964250D01*
X156153750Y-95123000D01*
X157353000Y-95123000D01*
X157353000Y-93923750D01*
X157607000Y-93923750D01*
X157607000Y-95123000D01*
X158806250Y-95123000D01*
X158965000Y-94964250D01*
X158968072Y-94400000D01*
X158955812Y-94275518D01*
X158919502Y-94155820D01*
X158860537Y-94045506D01*
X158781185Y-93948815D01*
X158684494Y-93869463D01*
X158574180Y-93810498D01*
X158454482Y-93774188D01*
X158330000Y-93761928D01*
X157765750Y-93765000D01*
X157607000Y-93923750D01*
X157353000Y-93923750D01*
X157194250Y-93765000D01*
X156630000Y-93761928D01*
X156505518Y-93774188D01*
X156385820Y-93810498D01*
X156275506Y-93869463D01*
X156178815Y-93948815D01*
X156099463Y-94045506D01*
X156040498Y-94155820D01*
X156004188Y-94275518D01*
X155991928Y-94400000D01*
X134838606Y-94400000D01*
X133203539Y-92764933D01*
X135100000Y-92764933D01*
X135100000Y-92965067D01*
X135139044Y-93161356D01*
X135215632Y-93346256D01*
X135326821Y-93512662D01*
X135468338Y-93654179D01*
X135634744Y-93765368D01*
X135819644Y-93841956D01*
X136015933Y-93881000D01*
X136216067Y-93881000D01*
X136412356Y-93841956D01*
X136597256Y-93765368D01*
X136763662Y-93654179D01*
X136905179Y-93512662D01*
X137016368Y-93346256D01*
X137092956Y-93161356D01*
X137132000Y-92965067D01*
X137132000Y-92764933D01*
X148237000Y-92764933D01*
X148237000Y-92965067D01*
X148276044Y-93161356D01*
X148352632Y-93346256D01*
X148463821Y-93512662D01*
X148605338Y-93654179D01*
X148771744Y-93765368D01*
X148956644Y-93841956D01*
X149152933Y-93881000D01*
X149353067Y-93881000D01*
X149549356Y-93841956D01*
X149734256Y-93765368D01*
X149900662Y-93654179D01*
X150042179Y-93512662D01*
X150153368Y-93346256D01*
X150229956Y-93161356D01*
X150269000Y-92965067D01*
X150269000Y-92764933D01*
X152753000Y-92764933D01*
X152753000Y-92965067D01*
X152792044Y-93161356D01*
X152868632Y-93346256D01*
X152979821Y-93512662D01*
X153121338Y-93654179D01*
X153287744Y-93765368D01*
X153472644Y-93841956D01*
X153668933Y-93881000D01*
X153869067Y-93881000D01*
X154065356Y-93841956D01*
X154250256Y-93765368D01*
X154416662Y-93654179D01*
X154558179Y-93512662D01*
X154669368Y-93346256D01*
X154745956Y-93161356D01*
X154785000Y-92965067D01*
X154785000Y-92764933D01*
X154745956Y-92568644D01*
X154669368Y-92383744D01*
X154558179Y-92217338D01*
X154416662Y-92075821D01*
X154250256Y-91964632D01*
X154065356Y-91888044D01*
X153869067Y-91849000D01*
X153668933Y-91849000D01*
X153472644Y-91888044D01*
X153287744Y-91964632D01*
X153121338Y-92075821D01*
X152979821Y-92217338D01*
X152868632Y-92383744D01*
X152792044Y-92568644D01*
X152753000Y-92764933D01*
X150269000Y-92764933D01*
X150229956Y-92568644D01*
X150153368Y-92383744D01*
X150042179Y-92217338D01*
X149900662Y-92075821D01*
X149734256Y-91964632D01*
X149549356Y-91888044D01*
X149353067Y-91849000D01*
X149152933Y-91849000D01*
X148956644Y-91888044D01*
X148771744Y-91964632D01*
X148605338Y-92075821D01*
X148463821Y-92217338D01*
X148352632Y-92383744D01*
X148276044Y-92568644D01*
X148237000Y-92764933D01*
X137132000Y-92764933D01*
X137092956Y-92568644D01*
X137016368Y-92383744D01*
X136905179Y-92217338D01*
X136763662Y-92075821D01*
X136597256Y-91964632D01*
X136412356Y-91888044D01*
X136216067Y-91849000D01*
X136015933Y-91849000D01*
X135819644Y-91888044D01*
X135634744Y-91964632D01*
X135468338Y-92075821D01*
X135326821Y-92217338D01*
X135215632Y-92383744D01*
X135139044Y-92568644D01*
X135100000Y-92764933D01*
X133203539Y-92764933D01*
X131840257Y-91401651D01*
X131915323Y-91220427D01*
X132067100Y-90457392D01*
X132067100Y-89679408D01*
X131915323Y-88916373D01*
X131617602Y-88197610D01*
X131185377Y-87550740D01*
X130635260Y-87000623D01*
X129988390Y-86568398D01*
X129269627Y-86270677D01*
X128506592Y-86118900D01*
X127728608Y-86118900D01*
X126965573Y-86270677D01*
X126784349Y-86345743D01*
X125630475Y-85191869D01*
X125779170Y-84699368D01*
X125790576Y-84641761D01*
X125802778Y-84584360D01*
X125803723Y-84575366D01*
X125808093Y-84530800D01*
X140612288Y-84530800D01*
X140576338Y-84554821D01*
G37*
%TD.AperFunction*%
%TD*%
M02*
