%TF.GenerationSoftware,KiCad,Pcbnew,(5.1.8-0-10_14)*%
%TF.CreationDate,2021-08-05T18:18:29-06:00*%
%TF.ProjectId,ESP8266_Water_Sensor,45535038-3236-4365-9f57-617465725f53,rev?*%
%TF.SameCoordinates,Original*%
%TF.FileFunction,Soldermask,Top*%
%TF.FilePolarity,Negative*%
%FSLAX46Y46*%
G04 Gerber Fmt 4.6, Leading zero omitted, Abs format (unit mm)*
G04 Created by KiCad (PCBNEW (5.1.8-0-10_14)) date 2021-08-05 18:18:29*
%MOMM*%
%LPD*%
G01*
G04 APERTURE LIST*
%ADD10O,1.801600X1.801600*%
%ADD11C,1.901600*%
%ADD12C,0.100000*%
%ADD13C,2.051600*%
%ADD14C,4.216000*%
%ADD15C,1.701600*%
G04 APERTURE END LIST*
%TO.C,U1*%
G36*
G01*
X134875000Y-85865800D02*
X133375000Y-85865800D01*
G75*
G02*
X133324200Y-85815000I0J50800D01*
G01*
X133324200Y-84915000D01*
G75*
G02*
X133375000Y-84864200I50800J0D01*
G01*
X134875000Y-84864200D01*
G75*
G02*
X134925800Y-84915000I0J-50800D01*
G01*
X134925800Y-85815000D01*
G75*
G02*
X134875000Y-85865800I-50800J0D01*
G01*
G37*
G36*
G01*
X134875000Y-87365800D02*
X133375000Y-87365800D01*
G75*
G02*
X133324200Y-87315000I0J50800D01*
G01*
X133324200Y-86415000D01*
G75*
G02*
X133375000Y-86364200I50800J0D01*
G01*
X134875000Y-86364200D01*
G75*
G02*
X134925800Y-86415000I0J-50800D01*
G01*
X134925800Y-87315000D01*
G75*
G02*
X134875000Y-87365800I-50800J0D01*
G01*
G37*
G36*
G01*
X134875000Y-88865800D02*
X133375000Y-88865800D01*
G75*
G02*
X133324200Y-88815000I0J50800D01*
G01*
X133324200Y-87915000D01*
G75*
G02*
X133375000Y-87864200I50800J0D01*
G01*
X134875000Y-87864200D01*
G75*
G02*
X134925800Y-87915000I0J-50800D01*
G01*
X134925800Y-88815000D01*
G75*
G02*
X134875000Y-88865800I-50800J0D01*
G01*
G37*
G36*
G01*
X134875000Y-90365800D02*
X133375000Y-90365800D01*
G75*
G02*
X133324200Y-90315000I0J50800D01*
G01*
X133324200Y-89415000D01*
G75*
G02*
X133375000Y-89364200I50800J0D01*
G01*
X134875000Y-89364200D01*
G75*
G02*
X134925800Y-89415000I0J-50800D01*
G01*
X134925800Y-90315000D01*
G75*
G02*
X134875000Y-90365800I-50800J0D01*
G01*
G37*
G36*
G01*
X134875000Y-91865800D02*
X133375000Y-91865800D01*
G75*
G02*
X133324200Y-91815000I0J50800D01*
G01*
X133324200Y-90915000D01*
G75*
G02*
X133375000Y-90864200I50800J0D01*
G01*
X134875000Y-90864200D01*
G75*
G02*
X134925800Y-90915000I0J-50800D01*
G01*
X134925800Y-91815000D01*
G75*
G02*
X134875000Y-91865800I-50800J0D01*
G01*
G37*
G36*
G01*
X134875000Y-93365800D02*
X133375000Y-93365800D01*
G75*
G02*
X133324200Y-93315000I0J50800D01*
G01*
X133324200Y-92415000D01*
G75*
G02*
X133375000Y-92364200I50800J0D01*
G01*
X134875000Y-92364200D01*
G75*
G02*
X134925800Y-92415000I0J-50800D01*
G01*
X134925800Y-93315000D01*
G75*
G02*
X134875000Y-93365800I-50800J0D01*
G01*
G37*
G36*
G01*
X134875000Y-94865800D02*
X133375000Y-94865800D01*
G75*
G02*
X133324200Y-94815000I0J50800D01*
G01*
X133324200Y-93915000D01*
G75*
G02*
X133375000Y-93864200I50800J0D01*
G01*
X134875000Y-93864200D01*
G75*
G02*
X134925800Y-93915000I0J-50800D01*
G01*
X134925800Y-94815000D01*
G75*
G02*
X134875000Y-94865800I-50800J0D01*
G01*
G37*
G36*
G01*
X134875000Y-96365800D02*
X133375000Y-96365800D01*
G75*
G02*
X133324200Y-96315000I0J50800D01*
G01*
X133324200Y-95415000D01*
G75*
G02*
X133375000Y-95364200I50800J0D01*
G01*
X134875000Y-95364200D01*
G75*
G02*
X134925800Y-95415000I0J-50800D01*
G01*
X134925800Y-96315000D01*
G75*
G02*
X134875000Y-96365800I-50800J0D01*
G01*
G37*
G36*
G01*
X134875000Y-97865800D02*
X133375000Y-97865800D01*
G75*
G02*
X133324200Y-97815000I0J50800D01*
G01*
X133324200Y-96915000D01*
G75*
G02*
X133375000Y-96864200I50800J0D01*
G01*
X134875000Y-96864200D01*
G75*
G02*
X134925800Y-96915000I0J-50800D01*
G01*
X134925800Y-97815000D01*
G75*
G02*
X134875000Y-97865800I-50800J0D01*
G01*
G37*
G36*
G01*
X152375000Y-97865800D02*
X150875000Y-97865800D01*
G75*
G02*
X150824200Y-97815000I0J50800D01*
G01*
X150824200Y-96915000D01*
G75*
G02*
X150875000Y-96864200I50800J0D01*
G01*
X152375000Y-96864200D01*
G75*
G02*
X152425800Y-96915000I0J-50800D01*
G01*
X152425800Y-97815000D01*
G75*
G02*
X152375000Y-97865800I-50800J0D01*
G01*
G37*
G36*
G01*
X152375000Y-96365800D02*
X150875000Y-96365800D01*
G75*
G02*
X150824200Y-96315000I0J50800D01*
G01*
X150824200Y-95415000D01*
G75*
G02*
X150875000Y-95364200I50800J0D01*
G01*
X152375000Y-95364200D01*
G75*
G02*
X152425800Y-95415000I0J-50800D01*
G01*
X152425800Y-96315000D01*
G75*
G02*
X152375000Y-96365800I-50800J0D01*
G01*
G37*
G36*
G01*
X152375000Y-94865800D02*
X150875000Y-94865800D01*
G75*
G02*
X150824200Y-94815000I0J50800D01*
G01*
X150824200Y-93915000D01*
G75*
G02*
X150875000Y-93864200I50800J0D01*
G01*
X152375000Y-93864200D01*
G75*
G02*
X152425800Y-93915000I0J-50800D01*
G01*
X152425800Y-94815000D01*
G75*
G02*
X152375000Y-94865800I-50800J0D01*
G01*
G37*
G36*
G01*
X152375000Y-93365800D02*
X150875000Y-93365800D01*
G75*
G02*
X150824200Y-93315000I0J50800D01*
G01*
X150824200Y-92415000D01*
G75*
G02*
X150875000Y-92364200I50800J0D01*
G01*
X152375000Y-92364200D01*
G75*
G02*
X152425800Y-92415000I0J-50800D01*
G01*
X152425800Y-93315000D01*
G75*
G02*
X152375000Y-93365800I-50800J0D01*
G01*
G37*
G36*
G01*
X152375000Y-91865800D02*
X150875000Y-91865800D01*
G75*
G02*
X150824200Y-91815000I0J50800D01*
G01*
X150824200Y-90915000D01*
G75*
G02*
X150875000Y-90864200I50800J0D01*
G01*
X152375000Y-90864200D01*
G75*
G02*
X152425800Y-90915000I0J-50800D01*
G01*
X152425800Y-91815000D01*
G75*
G02*
X152375000Y-91865800I-50800J0D01*
G01*
G37*
G36*
G01*
X152375000Y-90365800D02*
X150875000Y-90365800D01*
G75*
G02*
X150824200Y-90315000I0J50800D01*
G01*
X150824200Y-89415000D01*
G75*
G02*
X150875000Y-89364200I50800J0D01*
G01*
X152375000Y-89364200D01*
G75*
G02*
X152425800Y-89415000I0J-50800D01*
G01*
X152425800Y-90315000D01*
G75*
G02*
X152375000Y-90365800I-50800J0D01*
G01*
G37*
G36*
G01*
X152375000Y-88865800D02*
X150875000Y-88865800D01*
G75*
G02*
X150824200Y-88815000I0J50800D01*
G01*
X150824200Y-87915000D01*
G75*
G02*
X150875000Y-87864200I50800J0D01*
G01*
X152375000Y-87864200D01*
G75*
G02*
X152425800Y-87915000I0J-50800D01*
G01*
X152425800Y-88815000D01*
G75*
G02*
X152375000Y-88865800I-50800J0D01*
G01*
G37*
G36*
G01*
X152375000Y-87365800D02*
X150875000Y-87365800D01*
G75*
G02*
X150824200Y-87315000I0J50800D01*
G01*
X150824200Y-86415000D01*
G75*
G02*
X150875000Y-86364200I50800J0D01*
G01*
X152375000Y-86364200D01*
G75*
G02*
X152425800Y-86415000I0J-50800D01*
G01*
X152425800Y-87315000D01*
G75*
G02*
X152375000Y-87365800I-50800J0D01*
G01*
G37*
G36*
G01*
X152375000Y-85865800D02*
X150875000Y-85865800D01*
G75*
G02*
X150824200Y-85815000I0J50800D01*
G01*
X150824200Y-84915000D01*
G75*
G02*
X150875000Y-84864200I50800J0D01*
G01*
X152375000Y-84864200D01*
G75*
G02*
X152425800Y-84915000I0J-50800D01*
G01*
X152425800Y-85815000D01*
G75*
G02*
X152375000Y-85865800I-50800J0D01*
G01*
G37*
G36*
G01*
X145975000Y-94025800D02*
X141975000Y-94025800D01*
G75*
G02*
X141924200Y-93975000I0J50800D01*
G01*
X141924200Y-89975000D01*
G75*
G02*
X141975000Y-89924200I50800J0D01*
G01*
X145975000Y-89924200D01*
G75*
G02*
X146025800Y-89975000I0J-50800D01*
G01*
X146025800Y-93975000D01*
G75*
G02*
X145975000Y-94025800I-50800J0D01*
G01*
G37*
%TD*%
%TO.C,C2*%
G36*
G01*
X151895817Y-113026700D02*
X152904183Y-113026700D01*
G75*
G02*
X153175800Y-113298317I0J-271617D01*
G01*
X153175800Y-114031683D01*
G75*
G02*
X152904183Y-114303300I-271617J0D01*
G01*
X151895817Y-114303300D01*
G75*
G02*
X151624200Y-114031683I0J271617D01*
G01*
X151624200Y-113298317D01*
G75*
G02*
X151895817Y-113026700I271617J0D01*
G01*
G37*
G36*
G01*
X151895817Y-110951700D02*
X152904183Y-110951700D01*
G75*
G02*
X153175800Y-111223317I0J-271617D01*
G01*
X153175800Y-111956683D01*
G75*
G02*
X152904183Y-112228300I-271617J0D01*
G01*
X151895817Y-112228300D01*
G75*
G02*
X151624200Y-111956683I0J271617D01*
G01*
X151624200Y-111223317D01*
G75*
G02*
X151895817Y-110951700I271617J0D01*
G01*
G37*
%TD*%
%TO.C,C3*%
G36*
G01*
X145157183Y-121953600D02*
X144148817Y-121953600D01*
G75*
G02*
X143877200Y-121681983I0J271617D01*
G01*
X143877200Y-120948617D01*
G75*
G02*
X144148817Y-120677000I271617J0D01*
G01*
X145157183Y-120677000D01*
G75*
G02*
X145428800Y-120948617I0J-271617D01*
G01*
X145428800Y-121681983D01*
G75*
G02*
X145157183Y-121953600I-271617J0D01*
G01*
G37*
G36*
G01*
X145157183Y-119878600D02*
X144148817Y-119878600D01*
G75*
G02*
X143877200Y-119606983I0J271617D01*
G01*
X143877200Y-118873617D01*
G75*
G02*
X144148817Y-118602000I271617J0D01*
G01*
X145157183Y-118602000D01*
G75*
G02*
X145428800Y-118873617I0J-271617D01*
G01*
X145428800Y-119606983D01*
G75*
G02*
X145157183Y-119878600I-271617J0D01*
G01*
G37*
%TD*%
%TO.C,C12*%
G36*
G01*
X174755817Y-99459200D02*
X175764183Y-99459200D01*
G75*
G02*
X176035800Y-99730817I0J-271617D01*
G01*
X176035800Y-100464183D01*
G75*
G02*
X175764183Y-100735800I-271617J0D01*
G01*
X174755817Y-100735800D01*
G75*
G02*
X174484200Y-100464183I0J271617D01*
G01*
X174484200Y-99730817D01*
G75*
G02*
X174755817Y-99459200I271617J0D01*
G01*
G37*
G36*
G01*
X174755817Y-97384200D02*
X175764183Y-97384200D01*
G75*
G02*
X176035800Y-97655817I0J-271617D01*
G01*
X176035800Y-98389183D01*
G75*
G02*
X175764183Y-98660800I-271617J0D01*
G01*
X174755817Y-98660800D01*
G75*
G02*
X174484200Y-98389183I0J271617D01*
G01*
X174484200Y-97655817D01*
G75*
G02*
X174755817Y-97384200I271617J0D01*
G01*
G37*
%TD*%
%TO.C,J1*%
G36*
G01*
X156579200Y-96100000D02*
X156579200Y-94400000D01*
G75*
G02*
X156630000Y-94349200I50800J0D01*
G01*
X158330000Y-94349200D01*
G75*
G02*
X158380800Y-94400000I0J-50800D01*
G01*
X158380800Y-96100000D01*
G75*
G02*
X158330000Y-96150800I-50800J0D01*
G01*
X156630000Y-96150800D01*
G75*
G02*
X156579200Y-96100000I0J50800D01*
G01*
G37*
D10*
X157480000Y-97790000D03*
X157480000Y-100330000D03*
X157480000Y-102870000D03*
X157480000Y-105410000D03*
X157480000Y-107950000D03*
%TD*%
D11*
%TO.C,J2*%
X120904000Y-99140000D03*
G36*
G01*
X121804000Y-105090800D02*
X120004000Y-105090800D01*
G75*
G02*
X119953200Y-105040000I0J50800D01*
G01*
X119953200Y-103240000D01*
G75*
G02*
X120004000Y-103189200I50800J0D01*
G01*
X121804000Y-103189200D01*
G75*
G02*
X121854800Y-103240000I0J-50800D01*
G01*
X121854800Y-105040000D01*
G75*
G02*
X121804000Y-105090800I-50800J0D01*
G01*
G37*
%TD*%
%TO.C,J4*%
G36*
G01*
X182615000Y-97474200D02*
X184415000Y-97474200D01*
G75*
G02*
X184465800Y-97525000I0J-50800D01*
G01*
X184465800Y-99325000D01*
G75*
G02*
X184415000Y-99375800I-50800J0D01*
G01*
X182615000Y-99375800D01*
G75*
G02*
X182564200Y-99325000I0J50800D01*
G01*
X182564200Y-97525000D01*
G75*
G02*
X182615000Y-97474200I50800J0D01*
G01*
G37*
X183515000Y-103425000D03*
%TD*%
D10*
%TO.C,J5*%
X157022800Y-87350600D03*
X159562800Y-87350600D03*
X162102800Y-87350600D03*
X164642800Y-87350600D03*
X167182800Y-87350600D03*
G36*
G01*
X168872800Y-86449800D02*
X170572800Y-86449800D01*
G75*
G02*
X170623600Y-86500600I0J-50800D01*
G01*
X170623600Y-88200600D01*
G75*
G02*
X170572800Y-88251400I-50800J0D01*
G01*
X168872800Y-88251400D01*
G75*
G02*
X168822000Y-88200600I0J50800D01*
G01*
X168822000Y-86500600D01*
G75*
G02*
X168872800Y-86449800I50800J0D01*
G01*
G37*
%TD*%
D12*
%TO.C,JP1*%
G36*
X161455198Y-97176113D02*
G01*
X161455198Y-97194534D01*
X161454953Y-97199514D01*
X161450143Y-97248345D01*
X161449412Y-97253275D01*
X161439840Y-97301400D01*
X161438628Y-97306237D01*
X161424384Y-97353192D01*
X161422705Y-97357885D01*
X161403928Y-97403218D01*
X161401796Y-97407726D01*
X161378665Y-97450999D01*
X161376103Y-97455273D01*
X161348843Y-97496072D01*
X161345873Y-97500077D01*
X161314745Y-97538006D01*
X161311397Y-97541700D01*
X161276700Y-97576397D01*
X161273006Y-97579745D01*
X161235077Y-97610873D01*
X161231072Y-97613843D01*
X161190273Y-97641103D01*
X161185999Y-97643665D01*
X161142726Y-97666796D01*
X161138218Y-97668928D01*
X161092885Y-97687705D01*
X161088192Y-97689384D01*
X161041237Y-97703628D01*
X161036400Y-97704840D01*
X160988275Y-97714412D01*
X160983345Y-97715143D01*
X160934514Y-97719953D01*
X160929534Y-97720198D01*
X160911113Y-97720198D01*
X160905000Y-97720800D01*
X160405000Y-97720800D01*
X160398887Y-97720198D01*
X160380466Y-97720198D01*
X160375486Y-97719953D01*
X160326655Y-97715143D01*
X160321725Y-97714412D01*
X160273600Y-97704840D01*
X160268763Y-97703628D01*
X160221808Y-97689384D01*
X160217115Y-97687705D01*
X160171782Y-97668928D01*
X160167274Y-97666796D01*
X160124001Y-97643665D01*
X160119727Y-97641103D01*
X160078928Y-97613843D01*
X160074923Y-97610873D01*
X160036994Y-97579745D01*
X160033300Y-97576397D01*
X159998603Y-97541700D01*
X159995255Y-97538006D01*
X159964127Y-97500077D01*
X159961157Y-97496072D01*
X159933897Y-97455273D01*
X159931335Y-97450999D01*
X159908204Y-97407726D01*
X159906072Y-97403218D01*
X159887295Y-97357885D01*
X159885616Y-97353192D01*
X159871372Y-97306237D01*
X159870160Y-97301400D01*
X159860588Y-97253275D01*
X159859857Y-97248345D01*
X159855047Y-97199514D01*
X159854802Y-97194534D01*
X159854802Y-97176113D01*
X159854200Y-97170000D01*
X159854200Y-96670000D01*
X159855176Y-96660089D01*
X159858067Y-96650560D01*
X159862761Y-96641777D01*
X159869079Y-96634079D01*
X159876777Y-96627761D01*
X159885560Y-96623067D01*
X159895089Y-96620176D01*
X159905000Y-96619200D01*
X161405000Y-96619200D01*
X161414911Y-96620176D01*
X161424440Y-96623067D01*
X161433223Y-96627761D01*
X161440921Y-96634079D01*
X161447239Y-96641777D01*
X161451933Y-96650560D01*
X161454824Y-96660089D01*
X161455800Y-96670000D01*
X161455800Y-97170000D01*
X161455198Y-97176113D01*
G37*
G36*
X161454824Y-96379911D02*
G01*
X161451933Y-96389440D01*
X161447239Y-96398223D01*
X161440921Y-96405921D01*
X161433223Y-96412239D01*
X161424440Y-96416933D01*
X161414911Y-96419824D01*
X161405000Y-96420800D01*
X159905000Y-96420800D01*
X159895089Y-96419824D01*
X159885560Y-96416933D01*
X159876777Y-96412239D01*
X159869079Y-96405921D01*
X159862761Y-96398223D01*
X159858067Y-96389440D01*
X159855176Y-96379911D01*
X159854200Y-96370000D01*
X159854200Y-95870000D01*
X159854802Y-95863887D01*
X159854802Y-95845466D01*
X159855047Y-95840486D01*
X159859857Y-95791655D01*
X159860588Y-95786725D01*
X159870160Y-95738600D01*
X159871372Y-95733763D01*
X159885616Y-95686808D01*
X159887295Y-95682115D01*
X159906072Y-95636782D01*
X159908204Y-95632274D01*
X159931335Y-95589001D01*
X159933897Y-95584727D01*
X159961157Y-95543928D01*
X159964127Y-95539923D01*
X159995255Y-95501994D01*
X159998603Y-95498300D01*
X160033300Y-95463603D01*
X160036994Y-95460255D01*
X160074923Y-95429127D01*
X160078928Y-95426157D01*
X160119727Y-95398897D01*
X160124001Y-95396335D01*
X160167274Y-95373204D01*
X160171782Y-95371072D01*
X160217115Y-95352295D01*
X160221808Y-95350616D01*
X160268763Y-95336372D01*
X160273600Y-95335160D01*
X160321725Y-95325588D01*
X160326655Y-95324857D01*
X160375486Y-95320047D01*
X160380466Y-95319802D01*
X160398887Y-95319802D01*
X160405000Y-95319200D01*
X160905000Y-95319200D01*
X160911113Y-95319802D01*
X160929534Y-95319802D01*
X160934514Y-95320047D01*
X160983345Y-95324857D01*
X160988275Y-95325588D01*
X161036400Y-95335160D01*
X161041237Y-95336372D01*
X161088192Y-95350616D01*
X161092885Y-95352295D01*
X161138218Y-95371072D01*
X161142726Y-95373204D01*
X161185999Y-95396335D01*
X161190273Y-95398897D01*
X161231072Y-95426157D01*
X161235077Y-95429127D01*
X161273006Y-95460255D01*
X161276700Y-95463603D01*
X161311397Y-95498300D01*
X161314745Y-95501994D01*
X161345873Y-95539923D01*
X161348843Y-95543928D01*
X161376103Y-95584727D01*
X161378665Y-95589001D01*
X161401796Y-95632274D01*
X161403928Y-95636782D01*
X161422705Y-95682115D01*
X161424384Y-95686808D01*
X161438628Y-95733763D01*
X161439840Y-95738600D01*
X161449412Y-95786725D01*
X161450143Y-95791655D01*
X161454953Y-95840486D01*
X161455198Y-95845466D01*
X161455198Y-95863887D01*
X161455800Y-95870000D01*
X161455800Y-96370000D01*
X161454824Y-96379911D01*
G37*
%TD*%
%TO.C,L1*%
G36*
G01*
X144419200Y-112560000D02*
X144419200Y-110960000D01*
G75*
G02*
X144470000Y-110909200I50800J0D01*
G01*
X150170000Y-110909200D01*
G75*
G02*
X150220800Y-110960000I0J-50800D01*
G01*
X150220800Y-112560000D01*
G75*
G02*
X150170000Y-112610800I-50800J0D01*
G01*
X144470000Y-112610800D01*
G75*
G02*
X144419200Y-112560000I0J50800D01*
G01*
G37*
G36*
G01*
X144419200Y-117260000D02*
X144419200Y-115660000D01*
G75*
G02*
X144470000Y-115609200I50800J0D01*
G01*
X150170000Y-115609200D01*
G75*
G02*
X150220800Y-115660000I0J-50800D01*
G01*
X150220800Y-117260000D01*
G75*
G02*
X150170000Y-117310800I-50800J0D01*
G01*
X144470000Y-117310800D01*
G75*
G02*
X144419200Y-117260000I0J50800D01*
G01*
G37*
%TD*%
%TO.C,R1*%
G36*
G01*
X138080800Y-110010365D02*
X138080800Y-110969635D01*
G75*
G02*
X137809635Y-111240800I-271165J0D01*
G01*
X137050365Y-111240800D01*
G75*
G02*
X136779200Y-110969635I0J271165D01*
G01*
X136779200Y-110010365D01*
G75*
G02*
X137050365Y-109739200I271165J0D01*
G01*
X137809635Y-109739200D01*
G75*
G02*
X138080800Y-110010365I0J-271165D01*
G01*
G37*
G36*
G01*
X140080800Y-110010365D02*
X140080800Y-110969635D01*
G75*
G02*
X139809635Y-111240800I-271165J0D01*
G01*
X139050365Y-111240800D01*
G75*
G02*
X138779200Y-110969635I0J271165D01*
G01*
X138779200Y-110010365D01*
G75*
G02*
X139050365Y-109739200I271165J0D01*
G01*
X139809635Y-109739200D01*
G75*
G02*
X140080800Y-110010365I0J-271165D01*
G01*
G37*
%TD*%
%TO.C,R2*%
G36*
G01*
X138779200Y-113509635D02*
X138779200Y-112550365D01*
G75*
G02*
X139050365Y-112279200I271165J0D01*
G01*
X139809635Y-112279200D01*
G75*
G02*
X140080800Y-112550365I0J-271165D01*
G01*
X140080800Y-113509635D01*
G75*
G02*
X139809635Y-113780800I-271165J0D01*
G01*
X139050365Y-113780800D01*
G75*
G02*
X138779200Y-113509635I0J271165D01*
G01*
G37*
G36*
G01*
X136779200Y-113509635D02*
X136779200Y-112550365D01*
G75*
G02*
X137050365Y-112279200I271165J0D01*
G01*
X137809635Y-112279200D01*
G75*
G02*
X138080800Y-112550365I0J-271165D01*
G01*
X138080800Y-113509635D01*
G75*
G02*
X137809635Y-113780800I-271165J0D01*
G01*
X137050365Y-113780800D01*
G75*
G02*
X136779200Y-113509635I0J271165D01*
G01*
G37*
%TD*%
%TO.C,R11*%
G36*
G01*
X173199635Y-100710800D02*
X172240365Y-100710800D01*
G75*
G02*
X171969200Y-100439635I0J271165D01*
G01*
X171969200Y-99680365D01*
G75*
G02*
X172240365Y-99409200I271165J0D01*
G01*
X173199635Y-99409200D01*
G75*
G02*
X173470800Y-99680365I0J-271165D01*
G01*
X173470800Y-100439635D01*
G75*
G02*
X173199635Y-100710800I-271165J0D01*
G01*
G37*
G36*
G01*
X173199635Y-98710800D02*
X172240365Y-98710800D01*
G75*
G02*
X171969200Y-98439635I0J271165D01*
G01*
X171969200Y-97680365D01*
G75*
G02*
X172240365Y-97409200I271165J0D01*
G01*
X173199635Y-97409200D01*
G75*
G02*
X173470800Y-97680365I0J-271165D01*
G01*
X173470800Y-98439635D01*
G75*
G02*
X173199635Y-98710800I-271165J0D01*
G01*
G37*
%TD*%
%TO.C,S1*%
G36*
G01*
X137680000Y-107140800D02*
X135580000Y-107140800D01*
G75*
G02*
X135529200Y-107090000I0J50800D01*
G01*
X135529200Y-105690000D01*
G75*
G02*
X135580000Y-105639200I50800J0D01*
G01*
X137680000Y-105639200D01*
G75*
G02*
X137730800Y-105690000I0J-50800D01*
G01*
X137730800Y-107090000D01*
G75*
G02*
X137680000Y-107140800I-50800J0D01*
G01*
G37*
G36*
G01*
X128580000Y-107140800D02*
X126480000Y-107140800D01*
G75*
G02*
X126429200Y-107090000I0J50800D01*
G01*
X126429200Y-105690000D01*
G75*
G02*
X126480000Y-105639200I50800J0D01*
G01*
X128580000Y-105639200D01*
G75*
G02*
X128630800Y-105690000I0J-50800D01*
G01*
X128630800Y-107090000D01*
G75*
G02*
X128580000Y-107140800I-50800J0D01*
G01*
G37*
G36*
G01*
X137680000Y-102640800D02*
X135580000Y-102640800D01*
G75*
G02*
X135529200Y-102590000I0J50800D01*
G01*
X135529200Y-101190000D01*
G75*
G02*
X135580000Y-101139200I50800J0D01*
G01*
X137680000Y-101139200D01*
G75*
G02*
X137730800Y-101190000I0J-50800D01*
G01*
X137730800Y-102590000D01*
G75*
G02*
X137680000Y-102640800I-50800J0D01*
G01*
G37*
G36*
G01*
X128580000Y-102640800D02*
X126480000Y-102640800D01*
G75*
G02*
X126429200Y-102590000I0J50800D01*
G01*
X126429200Y-101190000D01*
G75*
G02*
X126480000Y-101139200I50800J0D01*
G01*
X128580000Y-101139200D01*
G75*
G02*
X128630800Y-101190000I0J-50800D01*
G01*
X128630800Y-102590000D01*
G75*
G02*
X128580000Y-102640800I-50800J0D01*
G01*
G37*
%TD*%
%TO.C,S2*%
G36*
G01*
X143007200Y-102640800D02*
X140907200Y-102640800D01*
G75*
G02*
X140856400Y-102590000I0J50800D01*
G01*
X140856400Y-101190000D01*
G75*
G02*
X140907200Y-101139200I50800J0D01*
G01*
X143007200Y-101139200D01*
G75*
G02*
X143058000Y-101190000I0J-50800D01*
G01*
X143058000Y-102590000D01*
G75*
G02*
X143007200Y-102640800I-50800J0D01*
G01*
G37*
G36*
G01*
X152107200Y-102640800D02*
X150007200Y-102640800D01*
G75*
G02*
X149956400Y-102590000I0J50800D01*
G01*
X149956400Y-101190000D01*
G75*
G02*
X150007200Y-101139200I50800J0D01*
G01*
X152107200Y-101139200D01*
G75*
G02*
X152158000Y-101190000I0J-50800D01*
G01*
X152158000Y-102590000D01*
G75*
G02*
X152107200Y-102640800I-50800J0D01*
G01*
G37*
G36*
G01*
X143007200Y-107140800D02*
X140907200Y-107140800D01*
G75*
G02*
X140856400Y-107090000I0J50800D01*
G01*
X140856400Y-105690000D01*
G75*
G02*
X140907200Y-105639200I50800J0D01*
G01*
X143007200Y-105639200D01*
G75*
G02*
X143058000Y-105690000I0J-50800D01*
G01*
X143058000Y-107090000D01*
G75*
G02*
X143007200Y-107140800I-50800J0D01*
G01*
G37*
G36*
G01*
X152107200Y-107140800D02*
X150007200Y-107140800D01*
G75*
G02*
X149956400Y-107090000I0J50800D01*
G01*
X149956400Y-105690000D01*
G75*
G02*
X150007200Y-105639200I50800J0D01*
G01*
X152107200Y-105639200D01*
G75*
G02*
X152158000Y-105690000I0J-50800D01*
G01*
X152158000Y-107090000D01*
G75*
G02*
X152107200Y-107140800I-50800J0D01*
G01*
G37*
%TD*%
%TO.C,U2*%
G36*
G01*
X140380000Y-119004200D02*
X141880000Y-119004200D01*
G75*
G02*
X141930800Y-119055000I0J-50800D01*
G01*
X141930800Y-119705000D01*
G75*
G02*
X141880000Y-119755800I-50800J0D01*
G01*
X140380000Y-119755800D01*
G75*
G02*
X140329200Y-119705000I0J50800D01*
G01*
X140329200Y-119055000D01*
G75*
G02*
X140380000Y-119004200I50800J0D01*
G01*
G37*
G36*
G01*
X140380000Y-117734200D02*
X141880000Y-117734200D01*
G75*
G02*
X141930800Y-117785000I0J-50800D01*
G01*
X141930800Y-118435000D01*
G75*
G02*
X141880000Y-118485800I-50800J0D01*
G01*
X140380000Y-118485800D01*
G75*
G02*
X140329200Y-118435000I0J50800D01*
G01*
X140329200Y-117785000D01*
G75*
G02*
X140380000Y-117734200I50800J0D01*
G01*
G37*
G36*
G01*
X140380000Y-116464200D02*
X141880000Y-116464200D01*
G75*
G02*
X141930800Y-116515000I0J-50800D01*
G01*
X141930800Y-117165000D01*
G75*
G02*
X141880000Y-117215800I-50800J0D01*
G01*
X140380000Y-117215800D01*
G75*
G02*
X140329200Y-117165000I0J50800D01*
G01*
X140329200Y-116515000D01*
G75*
G02*
X140380000Y-116464200I50800J0D01*
G01*
G37*
G36*
G01*
X140380000Y-115194200D02*
X141880000Y-115194200D01*
G75*
G02*
X141930800Y-115245000I0J-50800D01*
G01*
X141930800Y-115895000D01*
G75*
G02*
X141880000Y-115945800I-50800J0D01*
G01*
X140380000Y-115945800D01*
G75*
G02*
X140329200Y-115895000I0J50800D01*
G01*
X140329200Y-115245000D01*
G75*
G02*
X140380000Y-115194200I50800J0D01*
G01*
G37*
G36*
G01*
X134980000Y-115194200D02*
X136480000Y-115194200D01*
G75*
G02*
X136530800Y-115245000I0J-50800D01*
G01*
X136530800Y-115895000D01*
G75*
G02*
X136480000Y-115945800I-50800J0D01*
G01*
X134980000Y-115945800D01*
G75*
G02*
X134929200Y-115895000I0J50800D01*
G01*
X134929200Y-115245000D01*
G75*
G02*
X134980000Y-115194200I50800J0D01*
G01*
G37*
G36*
G01*
X134980000Y-116464200D02*
X136480000Y-116464200D01*
G75*
G02*
X136530800Y-116515000I0J-50800D01*
G01*
X136530800Y-117165000D01*
G75*
G02*
X136480000Y-117215800I-50800J0D01*
G01*
X134980000Y-117215800D01*
G75*
G02*
X134929200Y-117165000I0J50800D01*
G01*
X134929200Y-116515000D01*
G75*
G02*
X134980000Y-116464200I50800J0D01*
G01*
G37*
G36*
G01*
X134980000Y-117734200D02*
X136480000Y-117734200D01*
G75*
G02*
X136530800Y-117785000I0J-50800D01*
G01*
X136530800Y-118435000D01*
G75*
G02*
X136480000Y-118485800I-50800J0D01*
G01*
X134980000Y-118485800D01*
G75*
G02*
X134929200Y-118435000I0J50800D01*
G01*
X134929200Y-117785000D01*
G75*
G02*
X134980000Y-117734200I50800J0D01*
G01*
G37*
G36*
G01*
X134980000Y-119004200D02*
X136480000Y-119004200D01*
G75*
G02*
X136530800Y-119055000I0J-50800D01*
G01*
X136530800Y-119705000D01*
G75*
G02*
X136480000Y-119755800I-50800J0D01*
G01*
X134980000Y-119755800D01*
G75*
G02*
X134929200Y-119705000I0J50800D01*
G01*
X134929200Y-119055000D01*
G75*
G02*
X134980000Y-119004200I50800J0D01*
G01*
G37*
%TD*%
D13*
%TO.C,J3*%
X160020000Y-120650000D03*
X165020000Y-120650000D03*
X170020000Y-120650000D03*
%TD*%
D14*
%TO.C,H1*%
X128117600Y-90068400D03*
%TD*%
%TO.C,H2*%
X176682400Y-90068400D03*
%TD*%
%TO.C,H3*%
X128117600Y-113131600D03*
%TD*%
%TO.C,H4*%
X176682400Y-113131600D03*
%TD*%
D15*
%TO.C,C14*%
X121869200Y-92049600D03*
G36*
G01*
X118518400Y-92849600D02*
X118518400Y-91249600D01*
G75*
G02*
X118569200Y-91198800I50800J0D01*
G01*
X120169200Y-91198800D01*
G75*
G02*
X120220000Y-91249600I0J-50800D01*
G01*
X120220000Y-92849600D01*
G75*
G02*
X120169200Y-92900400I-50800J0D01*
G01*
X118569200Y-92900400D01*
G75*
G02*
X118518400Y-92849600I0J50800D01*
G01*
G37*
%TD*%
%TO.C,C15*%
G36*
G01*
X118783200Y-111645600D02*
X118783200Y-110045600D01*
G75*
G02*
X118834000Y-109994800I50800J0D01*
G01*
X120434000Y-109994800D01*
G75*
G02*
X120484800Y-110045600I0J-50800D01*
G01*
X120484800Y-111645600D01*
G75*
G02*
X120434000Y-111696400I-50800J0D01*
G01*
X118834000Y-111696400D01*
G75*
G02*
X118783200Y-111645600I0J50800D01*
G01*
G37*
X122134000Y-110845600D03*
%TD*%
M02*
