M48
; DRILL file {KiCad (5.1.8-0-10_14)} date Thursday, August 05, 2021 at 06:14:50 PM
; FORMAT={-:-/ absolute / inch / decimal}
; #@! TF.CreationDate,2021-08-05T18:14:50-06:00
; #@! TF.GenerationSoftware,Kicad,Pcbnew,(5.1.8-0-10_14)
; #@! TF.FileFunction,Plated,1,4,PTH
FMAT,2
INCH
T1C0.0150
T2C0.0315
T3C0.0394
T4C0.0472
T5C0.0512
%
G90
G05
T1
X5.015Y-4.77
X5.1Y-4.675
X5.185Y-3.36
X5.185Y-4.65
X5.185Y-4.7
X5.1864Y-4.1886
X5.1908Y-3.7742
X5.255Y-4.6
X5.2805Y-3.9095
X5.3589Y-3.6561
X5.3683Y-3.8333
X5.3692Y-3.3608
X5.42Y-4.65
X5.42Y-4.705
X5.42Y-4.76
X5.44Y-4.515
X5.44Y-4.575
X5.48Y-4.65
X5.48Y-4.705
X5.48Y-4.76
X5.56Y-3.36
X5.56Y-3.425
X5.56Y-3.495
X5.565Y-3.94
X5.565Y-4.465
X5.68Y-4.275
X5.73Y-4.275
X5.7313Y-3.3563
X5.78Y-4.275
X5.7864Y-4.1886
X5.83Y-4.275
X5.8761Y-3.6561
X5.88Y-4.275
X5.8842Y-3.3608
X5.8851Y-3.4199
X5.887Y-3.538
X5.93Y-4.275
X6.0Y-4.565
X6.0501Y-3.3608
X6.0539Y-3.6561
X6.095Y-4.475
X6.8Y-4.01
X6.9Y-4.005
T2
X4.71Y-4.364
X4.8084Y-4.364
X4.6996Y-3.624
X4.798Y-3.624
T3
X6.182Y-3.439
X6.282Y-3.439
X6.382Y-3.439
X6.482Y-3.439
X6.582Y-3.439
X6.682Y-3.439
X6.2Y-3.75
X6.2Y-3.85
X6.2Y-3.95
X6.2Y-4.05
X6.2Y-4.15
X6.2Y-4.25
T4
X4.76Y-3.9031
X4.76Y-4.1
X7.225Y-3.875
X7.225Y-4.0719
T5
X6.3Y-4.75
X6.4969Y-4.75
X6.6937Y-4.75
T0
M30
