%TF.GenerationSoftware,KiCad,Pcbnew,(5.1.8-0-10_14)*%
%TF.CreationDate,2021-08-13T20:31:30-06:00*%
%TF.ProjectId,ESP8266_Water_Sensor,45535038-3236-4365-9f57-617465725f53,rev?*%
%TF.SameCoordinates,Original*%
%TF.FileFunction,Legend,Bot*%
%TF.FilePolarity,Positive*%
%FSLAX46Y46*%
G04 Gerber Fmt 4.6, Leading zero omitted, Abs format (unit mm)*
G04 Created by KiCad (PCBNEW (5.1.8-0-10_14)) date 2021-08-13 20:31:30*
%MOMM*%
%LPD*%
G01*
G04 APERTURE LIST*
%ADD10C,0.120000*%
%ADD11C,0.150000*%
G04 APERTURE END LIST*
D10*
%TO.C,C1*%
X235577748Y-85015400D02*
X236100252Y-85015400D01*
X235577748Y-86485400D02*
X236100252Y-86485400D01*
%TO.C,C4*%
X235526948Y-87479200D02*
X236049452Y-87479200D01*
X235526948Y-88949200D02*
X236049452Y-88949200D01*
%TO.C,C8*%
X224594052Y-86691800D02*
X224071548Y-86691800D01*
X224594052Y-88161800D02*
X224071548Y-88161800D01*
%TO.C,C9*%
X246488852Y-89406400D02*
X245966348Y-89406400D01*
X246488852Y-87936400D02*
X245966348Y-87936400D01*
%TO.C,C10*%
X224594052Y-95477000D02*
X224071548Y-95477000D01*
X224594052Y-94007000D02*
X224071548Y-94007000D01*
%TO.C,JP1*%
X231973400Y-108480400D02*
X231373400Y-108480400D01*
X232673400Y-110580400D02*
X232673400Y-109180400D01*
X231373400Y-111280400D02*
X231973400Y-111280400D01*
X230673400Y-109180400D02*
X230673400Y-110580400D01*
X231373400Y-108480400D02*
G75*
G03*
X230673400Y-109180400I0J-700000D01*
G01*
X232673400Y-109180400D02*
G75*
G03*
X231973400Y-108480400I-700000J0D01*
G01*
X231973400Y-111280400D02*
G75*
G03*
X232673400Y-110580400I0J700000D01*
G01*
X230673400Y-110580400D02*
G75*
G03*
X231373400Y-111280400I700000J0D01*
G01*
%TO.C,JP2*%
X249063000Y-86701400D02*
X249063000Y-88101400D01*
X249763000Y-88801400D02*
X250363000Y-88801400D01*
X251063000Y-88101400D02*
X251063000Y-86701400D01*
X250363000Y-86001400D02*
X249763000Y-86001400D01*
X249063000Y-88101400D02*
G75*
G03*
X249763000Y-88801400I700000J0D01*
G01*
X250363000Y-88801400D02*
G75*
G03*
X251063000Y-88101400I0J700000D01*
G01*
X251063000Y-86701400D02*
G75*
G03*
X250363000Y-86001400I-700000J0D01*
G01*
X249763000Y-86001400D02*
G75*
G03*
X249063000Y-86701400I0J-700000D01*
G01*
%TO.C,R5*%
X224105736Y-89155600D02*
X224559864Y-89155600D01*
X224105736Y-90625600D02*
X224559864Y-90625600D01*
%TO.C,R6*%
X246025936Y-85777400D02*
X246480064Y-85777400D01*
X246025936Y-87247400D02*
X246480064Y-87247400D01*
%TO.C,R7*%
X224105736Y-91568600D02*
X224559864Y-91568600D01*
X224105736Y-93038600D02*
X224559864Y-93038600D01*
%TO.C,R8*%
X237262936Y-92302000D02*
X237717064Y-92302000D01*
X237262936Y-90832000D02*
X237717064Y-90832000D01*
%TO.C,C1*%
D11*
X236492166Y-84202542D02*
X236539785Y-84250161D01*
X236682642Y-84297780D01*
X236777880Y-84297780D01*
X236920738Y-84250161D01*
X237015976Y-84154923D01*
X237063595Y-84059685D01*
X237111214Y-83869209D01*
X237111214Y-83726352D01*
X237063595Y-83535876D01*
X237015976Y-83440638D01*
X236920738Y-83345400D01*
X236777880Y-83297780D01*
X236682642Y-83297780D01*
X236539785Y-83345400D01*
X236492166Y-83393019D01*
X235539785Y-84297780D02*
X236111214Y-84297780D01*
X235825500Y-84297780D02*
X235825500Y-83297780D01*
X235920738Y-83440638D01*
X236015976Y-83535876D01*
X236111214Y-83583495D01*
%TO.C,C4*%
X235954866Y-90251342D02*
X236002485Y-90298961D01*
X236145342Y-90346580D01*
X236240580Y-90346580D01*
X236383438Y-90298961D01*
X236478676Y-90203723D01*
X236526295Y-90108485D01*
X236573914Y-89918009D01*
X236573914Y-89775152D01*
X236526295Y-89584676D01*
X236478676Y-89489438D01*
X236383438Y-89394200D01*
X236240580Y-89346580D01*
X236145342Y-89346580D01*
X236002485Y-89394200D01*
X235954866Y-89441819D01*
X235097723Y-89679914D02*
X235097723Y-90346580D01*
X235335819Y-89298961D02*
X235573914Y-90013247D01*
X234954866Y-90013247D01*
%TO.C,C8*%
X222996966Y-86103942D02*
X223044585Y-86151561D01*
X223187442Y-86199180D01*
X223282680Y-86199180D01*
X223425538Y-86151561D01*
X223520776Y-86056323D01*
X223568395Y-85961085D01*
X223616014Y-85770609D01*
X223616014Y-85627752D01*
X223568395Y-85437276D01*
X223520776Y-85342038D01*
X223425538Y-85246800D01*
X223282680Y-85199180D01*
X223187442Y-85199180D01*
X223044585Y-85246800D01*
X222996966Y-85294419D01*
X222425538Y-85627752D02*
X222520776Y-85580133D01*
X222568395Y-85532514D01*
X222616014Y-85437276D01*
X222616014Y-85389657D01*
X222568395Y-85294419D01*
X222520776Y-85246800D01*
X222425538Y-85199180D01*
X222235061Y-85199180D01*
X222139823Y-85246800D01*
X222092204Y-85294419D01*
X222044585Y-85389657D01*
X222044585Y-85437276D01*
X222092204Y-85532514D01*
X222139823Y-85580133D01*
X222235061Y-85627752D01*
X222425538Y-85627752D01*
X222520776Y-85675371D01*
X222568395Y-85722990D01*
X222616014Y-85818228D01*
X222616014Y-86008704D01*
X222568395Y-86103942D01*
X222520776Y-86151561D01*
X222425538Y-86199180D01*
X222235061Y-86199180D01*
X222139823Y-86151561D01*
X222092204Y-86103942D01*
X222044585Y-86008704D01*
X222044585Y-85818228D01*
X222092204Y-85722990D01*
X222139823Y-85675371D01*
X222235061Y-85627752D01*
%TO.C,C9*%
X246372766Y-90806542D02*
X246420385Y-90854161D01*
X246563242Y-90901780D01*
X246658480Y-90901780D01*
X246801338Y-90854161D01*
X246896576Y-90758923D01*
X246944195Y-90663685D01*
X246991814Y-90473209D01*
X246991814Y-90330352D01*
X246944195Y-90139876D01*
X246896576Y-90044638D01*
X246801338Y-89949400D01*
X246658480Y-89901780D01*
X246563242Y-89901780D01*
X246420385Y-89949400D01*
X246372766Y-89997019D01*
X245896576Y-90901780D02*
X245706100Y-90901780D01*
X245610861Y-90854161D01*
X245563242Y-90806542D01*
X245468004Y-90663685D01*
X245420385Y-90473209D01*
X245420385Y-90092257D01*
X245468004Y-89997019D01*
X245515623Y-89949400D01*
X245610861Y-89901780D01*
X245801338Y-89901780D01*
X245896576Y-89949400D01*
X245944195Y-89997019D01*
X245991814Y-90092257D01*
X245991814Y-90330352D01*
X245944195Y-90425590D01*
X245896576Y-90473209D01*
X245801338Y-90520828D01*
X245610861Y-90520828D01*
X245515623Y-90473209D01*
X245468004Y-90425590D01*
X245420385Y-90330352D01*
%TO.C,C10*%
X224975657Y-93419142D02*
X225023276Y-93466761D01*
X225166133Y-93514380D01*
X225261371Y-93514380D01*
X225404228Y-93466761D01*
X225499466Y-93371523D01*
X225547085Y-93276285D01*
X225594704Y-93085809D01*
X225594704Y-92942952D01*
X225547085Y-92752476D01*
X225499466Y-92657238D01*
X225404228Y-92562000D01*
X225261371Y-92514380D01*
X225166133Y-92514380D01*
X225023276Y-92562000D01*
X224975657Y-92609619D01*
X224023276Y-93514380D02*
X224594704Y-93514380D01*
X224308990Y-93514380D02*
X224308990Y-92514380D01*
X224404228Y-92657238D01*
X224499466Y-92752476D01*
X224594704Y-92800095D01*
X223404228Y-92514380D02*
X223308990Y-92514380D01*
X223213752Y-92562000D01*
X223166133Y-92609619D01*
X223118514Y-92704857D01*
X223070895Y-92895333D01*
X223070895Y-93133428D01*
X223118514Y-93323904D01*
X223166133Y-93419142D01*
X223213752Y-93466761D01*
X223308990Y-93514380D01*
X223404228Y-93514380D01*
X223499466Y-93466761D01*
X223547085Y-93419142D01*
X223594704Y-93323904D01*
X223642323Y-93133428D01*
X223642323Y-92895333D01*
X223594704Y-92704857D01*
X223547085Y-92609619D01*
X223499466Y-92562000D01*
X223404228Y-92514380D01*
%TO.C,JP1*%
X229325780Y-109047066D02*
X230040066Y-109047066D01*
X230182923Y-108999447D01*
X230278161Y-108904209D01*
X230325780Y-108761352D01*
X230325780Y-108666114D01*
X230325780Y-109523257D02*
X229325780Y-109523257D01*
X229325780Y-109904209D01*
X229373400Y-109999447D01*
X229421019Y-110047066D01*
X229516257Y-110094685D01*
X229659114Y-110094685D01*
X229754352Y-110047066D01*
X229801971Y-109999447D01*
X229849590Y-109904209D01*
X229849590Y-109523257D01*
X230325780Y-111047066D02*
X230325780Y-110475638D01*
X230325780Y-110761352D02*
X229325780Y-110761352D01*
X229468638Y-110666114D01*
X229563876Y-110570876D01*
X229611495Y-110475638D01*
%TO.C,JP2*%
X251674380Y-86456066D02*
X252388666Y-86456066D01*
X252531523Y-86408447D01*
X252626761Y-86313209D01*
X252674380Y-86170352D01*
X252674380Y-86075114D01*
X252674380Y-86932257D02*
X251674380Y-86932257D01*
X251674380Y-87313209D01*
X251722000Y-87408447D01*
X251769619Y-87456066D01*
X251864857Y-87503685D01*
X252007714Y-87503685D01*
X252102952Y-87456066D01*
X252150571Y-87408447D01*
X252198190Y-87313209D01*
X252198190Y-86932257D01*
X251769619Y-87884638D02*
X251722000Y-87932257D01*
X251674380Y-88027495D01*
X251674380Y-88265590D01*
X251722000Y-88360828D01*
X251769619Y-88408447D01*
X251864857Y-88456066D01*
X251960095Y-88456066D01*
X252102952Y-88408447D01*
X252674380Y-87837019D01*
X252674380Y-88456066D01*
%TO.C,R5*%
X224499466Y-91992980D02*
X224832800Y-91516790D01*
X225070895Y-91992980D02*
X225070895Y-90992980D01*
X224689942Y-90992980D01*
X224594704Y-91040600D01*
X224547085Y-91088219D01*
X224499466Y-91183457D01*
X224499466Y-91326314D01*
X224547085Y-91421552D01*
X224594704Y-91469171D01*
X224689942Y-91516790D01*
X225070895Y-91516790D01*
X223594704Y-90992980D02*
X224070895Y-90992980D01*
X224118514Y-91469171D01*
X224070895Y-91421552D01*
X223975657Y-91373933D01*
X223737561Y-91373933D01*
X223642323Y-91421552D01*
X223594704Y-91469171D01*
X223547085Y-91564409D01*
X223547085Y-91802504D01*
X223594704Y-91897742D01*
X223642323Y-91945361D01*
X223737561Y-91992980D01*
X223975657Y-91992980D01*
X224070895Y-91945361D01*
X224118514Y-91897742D01*
%TO.C,R6*%
X246911666Y-85186780D02*
X247245000Y-84710590D01*
X247483095Y-85186780D02*
X247483095Y-84186780D01*
X247102142Y-84186780D01*
X247006904Y-84234400D01*
X246959285Y-84282019D01*
X246911666Y-84377257D01*
X246911666Y-84520114D01*
X246959285Y-84615352D01*
X247006904Y-84662971D01*
X247102142Y-84710590D01*
X247483095Y-84710590D01*
X246054523Y-84186780D02*
X246245000Y-84186780D01*
X246340238Y-84234400D01*
X246387857Y-84282019D01*
X246483095Y-84424876D01*
X246530714Y-84615352D01*
X246530714Y-84996304D01*
X246483095Y-85091542D01*
X246435476Y-85139161D01*
X246340238Y-85186780D01*
X246149761Y-85186780D01*
X246054523Y-85139161D01*
X246006904Y-85091542D01*
X245959285Y-84996304D01*
X245959285Y-84758209D01*
X246006904Y-84662971D01*
X246054523Y-84615352D01*
X246149761Y-84567733D01*
X246340238Y-84567733D01*
X246435476Y-84615352D01*
X246483095Y-84662971D01*
X246530714Y-84758209D01*
%TO.C,R7*%
X224499466Y-94405980D02*
X224832800Y-93929790D01*
X225070895Y-94405980D02*
X225070895Y-93405980D01*
X224689942Y-93405980D01*
X224594704Y-93453600D01*
X224547085Y-93501219D01*
X224499466Y-93596457D01*
X224499466Y-93739314D01*
X224547085Y-93834552D01*
X224594704Y-93882171D01*
X224689942Y-93929790D01*
X225070895Y-93929790D01*
X224166133Y-93405980D02*
X223499466Y-93405980D01*
X223928038Y-94405980D01*
%TO.C,R8*%
X237037666Y-93670380D02*
X237371000Y-93194190D01*
X237609095Y-93670380D02*
X237609095Y-92670380D01*
X237228142Y-92670380D01*
X237132904Y-92718000D01*
X237085285Y-92765619D01*
X237037666Y-92860857D01*
X237037666Y-93003714D01*
X237085285Y-93098952D01*
X237132904Y-93146571D01*
X237228142Y-93194190D01*
X237609095Y-93194190D01*
X236466238Y-93098952D02*
X236561476Y-93051333D01*
X236609095Y-93003714D01*
X236656714Y-92908476D01*
X236656714Y-92860857D01*
X236609095Y-92765619D01*
X236561476Y-92718000D01*
X236466238Y-92670380D01*
X236275761Y-92670380D01*
X236180523Y-92718000D01*
X236132904Y-92765619D01*
X236085285Y-92860857D01*
X236085285Y-92908476D01*
X236132904Y-93003714D01*
X236180523Y-93051333D01*
X236275761Y-93098952D01*
X236466238Y-93098952D01*
X236561476Y-93146571D01*
X236609095Y-93194190D01*
X236656714Y-93289428D01*
X236656714Y-93479904D01*
X236609095Y-93575142D01*
X236561476Y-93622761D01*
X236466238Y-93670380D01*
X236275761Y-93670380D01*
X236180523Y-93622761D01*
X236132904Y-93575142D01*
X236085285Y-93479904D01*
X236085285Y-93289428D01*
X236132904Y-93194190D01*
X236180523Y-93146571D01*
X236275761Y-93098952D01*
%TD*%
M02*
