%TF.GenerationSoftware,KiCad,Pcbnew,(5.1.8-0-10_14)*%
%TF.CreationDate,2021-08-05T18:18:29-06:00*%
%TF.ProjectId,ESP8266_Water_Sensor,45535038-3236-4365-9f57-617465725f53,rev?*%
%TF.SameCoordinates,Original*%
%TF.FileFunction,Copper,L2,Inr*%
%TF.FilePolarity,Positive*%
%FSLAX46Y46*%
G04 Gerber Fmt 4.6, Leading zero omitted, Abs format (unit mm)*
G04 Created by KiCad (PCBNEW (5.1.8-0-10_14)) date 2021-08-05 18:18:29*
%MOMM*%
%LPD*%
G01*
G04 APERTURE LIST*
%TA.AperFunction,ComponentPad*%
%ADD10R,1.700000X1.700000*%
%TD*%
%TA.AperFunction,ComponentPad*%
%ADD11O,1.700000X1.700000*%
%TD*%
%TA.AperFunction,ComponentPad*%
%ADD12C,1.800000*%
%TD*%
%TA.AperFunction,ComponentPad*%
%ADD13R,1.800000X1.800000*%
%TD*%
%TA.AperFunction,ComponentPad*%
%ADD14C,1.950000*%
%TD*%
%TA.AperFunction,ComponentPad*%
%ADD15C,1.600000*%
%TD*%
%TA.AperFunction,ComponentPad*%
%ADD16R,1.600000X1.600000*%
%TD*%
%TA.AperFunction,ViaPad*%
%ADD17C,0.762000*%
%TD*%
%TA.AperFunction,Conductor*%
%ADD18C,0.254000*%
%TD*%
%TA.AperFunction,Conductor*%
%ADD19C,0.100000*%
%TD*%
G04 APERTURE END LIST*
D10*
%TO.N,+3V3*%
%TO.C,J1*%
X157480000Y-95250000D03*
D11*
%TO.N,Net-(J1-Pad2)*%
X157480000Y-97790000D03*
%TO.N,GND*%
X157480000Y-100330000D03*
%TO.N,/I2C_SCL*%
X157480000Y-102870000D03*
%TO.N,/I2C_SDA*%
X157480000Y-105410000D03*
%TO.N,/MPU_INT*%
X157480000Y-107950000D03*
%TD*%
D12*
%TO.N,GND*%
%TO.C,J2*%
X120904000Y-99140000D03*
D13*
%TO.N,+12V*%
X120904000Y-104140000D03*
%TD*%
%TO.N,/water_voltage*%
%TO.C,J4*%
X183515000Y-98425000D03*
D12*
%TO.N,GND*%
X183515000Y-103425000D03*
%TD*%
D11*
%TO.N,/CTS_NC*%
%TO.C,J5*%
X157022800Y-87350600D03*
%TO.N,/RTS_NC*%
X159562800Y-87350600D03*
%TO.N,/ESP_TXD*%
X162102800Y-87350600D03*
%TO.N,/ESP_RXD*%
X164642800Y-87350600D03*
%TO.N,GND*%
X167182800Y-87350600D03*
D10*
%TO.N,+3V3*%
X169722800Y-87350600D03*
%TD*%
D14*
%TO.N,+12V*%
%TO.C,J3*%
X160020000Y-120650000D03*
%TO.N,/GPIO12*%
X165020000Y-120650000D03*
%TO.N,GND*%
X170020000Y-120650000D03*
%TD*%
D15*
%TO.N,GND*%
%TO.C,C14*%
X121869200Y-92049600D03*
D16*
%TO.N,+12V*%
X119369200Y-92049600D03*
%TD*%
%TO.N,+12V*%
%TO.C,C15*%
X119634000Y-110845600D03*
D15*
%TO.N,GND*%
X122134000Y-110845600D03*
%TD*%
D17*
%TO.N,+3V3*%
X144272000Y-108585000D03*
X145542000Y-108585000D03*
X146812000Y-108585000D03*
X148082000Y-108585000D03*
X149352000Y-108585000D03*
X150622000Y-108585000D03*
X172720000Y-101854000D03*
X136377000Y-85365000D03*
X131699000Y-85344000D03*
X145574000Y-85249000D03*
%TO.N,GND*%
X131735000Y-106390000D03*
X146975000Y-106390000D03*
X175260000Y-101727000D03*
X153769000Y-92865000D03*
X149253000Y-92865000D03*
X153671938Y-85365000D03*
X149458000Y-85365000D03*
X136354000Y-97365000D03*
X134125000Y-99301000D03*
X154813000Y-113665000D03*
X152400000Y-115951000D03*
X141351000Y-113411000D03*
X138176000Y-114681000D03*
X138176000Y-116205000D03*
X129540000Y-118745000D03*
X127381000Y-121158000D03*
X141224000Y-85344000D03*
X141224000Y-86995000D03*
X141224000Y-88773000D03*
%TO.N,+12V*%
X139192000Y-118110000D03*
X137668000Y-119507000D03*
X139192000Y-119507000D03*
X137668000Y-120904000D03*
X137668000Y-118110000D03*
X139192000Y-120904000D03*
%TO.N,/ESP_EN*%
X141351000Y-100076000D03*
%TO.N,/ESP_RST_L*%
X149530000Y-89865000D03*
%TO.N,/GPIO0*%
X131846000Y-95865000D03*
%TO.N,/GPIO16*%
X149482000Y-86865000D03*
%TO.N,/GPIO15*%
X136116000Y-92865000D03*
%TO.N,/U2_SS*%
X131699000Y-119380000D03*
%TO.N,/U2_COMP*%
X133477000Y-116840000D03*
%TO.N,/U2_EN*%
X131699000Y-118110000D03*
%TD*%
D18*
%TO.N,GND*%
X131051338Y-84554821D02*
X130909821Y-84696338D01*
X130798632Y-84862744D01*
X130722044Y-85047644D01*
X130683000Y-85243933D01*
X130683000Y-85444067D01*
X130722044Y-85640356D01*
X130798632Y-85825256D01*
X130909821Y-85991662D01*
X131051338Y-86133179D01*
X131217744Y-86244368D01*
X131402644Y-86320956D01*
X131598933Y-86360000D01*
X131799067Y-86360000D01*
X131995356Y-86320956D01*
X132180256Y-86244368D01*
X132346662Y-86133179D01*
X132488179Y-85991662D01*
X132599368Y-85825256D01*
X132675956Y-85640356D01*
X132715000Y-85444067D01*
X132715000Y-85243933D01*
X132675956Y-85047644D01*
X132599368Y-84862744D01*
X132488179Y-84696338D01*
X132346662Y-84554821D01*
X132310712Y-84530800D01*
X135796717Y-84530800D01*
X135729338Y-84575821D01*
X135587821Y-84717338D01*
X135476632Y-84883744D01*
X135400044Y-85068644D01*
X135361000Y-85264933D01*
X135361000Y-85465067D01*
X135400044Y-85661356D01*
X135476632Y-85846256D01*
X135587821Y-86012662D01*
X135729338Y-86154179D01*
X135895744Y-86265368D01*
X136080644Y-86341956D01*
X136276933Y-86381000D01*
X136477067Y-86381000D01*
X136673356Y-86341956D01*
X136858256Y-86265368D01*
X137024662Y-86154179D01*
X137166179Y-86012662D01*
X137277368Y-85846256D01*
X137353956Y-85661356D01*
X137393000Y-85465067D01*
X137393000Y-85264933D01*
X137353956Y-85068644D01*
X137277368Y-84883744D01*
X137166179Y-84717338D01*
X137024662Y-84575821D01*
X136957283Y-84530800D01*
X144855359Y-84530800D01*
X144784821Y-84601338D01*
X144673632Y-84767744D01*
X144597044Y-84952644D01*
X144558000Y-85148933D01*
X144558000Y-85349067D01*
X144597044Y-85545356D01*
X144673632Y-85730256D01*
X144784821Y-85896662D01*
X144926338Y-86038179D01*
X145092744Y-86149368D01*
X145277644Y-86225956D01*
X145473933Y-86265000D01*
X145674067Y-86265000D01*
X145870356Y-86225956D01*
X146055256Y-86149368D01*
X146221662Y-86038179D01*
X146363179Y-85896662D01*
X146474368Y-85730256D01*
X146550956Y-85545356D01*
X146590000Y-85349067D01*
X146590000Y-85148933D01*
X146550956Y-84952644D01*
X146474368Y-84767744D01*
X146363179Y-84601338D01*
X146292641Y-84530800D01*
X178993759Y-84530800D01*
X179001291Y-84602463D01*
X179013099Y-84659986D01*
X179024095Y-84717632D01*
X179026709Y-84726289D01*
X179217274Y-85341906D01*
X179240039Y-85396062D01*
X179262014Y-85450453D01*
X179266259Y-85458438D01*
X179572770Y-86025317D01*
X179605612Y-86074008D01*
X179637741Y-86123106D01*
X179643452Y-86130109D01*
X179643456Y-86130115D01*
X179643461Y-86130120D01*
X180054237Y-86626663D01*
X180095912Y-86668048D01*
X180136965Y-86709970D01*
X180143933Y-86715735D01*
X180643336Y-87123038D01*
X180692279Y-87155556D01*
X180740670Y-87188690D01*
X180748612Y-87192984D01*
X180748624Y-87192992D01*
X180748637Y-87192997D01*
X181317630Y-87495536D01*
X181371863Y-87517889D01*
X181425861Y-87541033D01*
X181434500Y-87543707D01*
X182051432Y-87729970D01*
X182109039Y-87741376D01*
X182166440Y-87753578D01*
X182175434Y-87754523D01*
X182816796Y-87817409D01*
X182816809Y-87817409D01*
X182848191Y-87820500D01*
X187693300Y-87820500D01*
X187693301Y-115379500D01*
X182848191Y-115379500D01*
X182818852Y-115382390D01*
X182798244Y-115382246D01*
X182789244Y-115383128D01*
X182148337Y-115450491D01*
X182090814Y-115462299D01*
X182033168Y-115473295D01*
X182024513Y-115475908D01*
X182024507Y-115475910D01*
X181408894Y-115666474D01*
X181354726Y-115689244D01*
X181300347Y-115711214D01*
X181292367Y-115715457D01*
X181292362Y-115715459D01*
X181292361Y-115715460D01*
X180725483Y-116021969D01*
X180676765Y-116054830D01*
X180627694Y-116086941D01*
X180620691Y-116092652D01*
X180620685Y-116092656D01*
X180620680Y-116092661D01*
X180124138Y-116503436D01*
X180082735Y-116545128D01*
X180040830Y-116586165D01*
X180035070Y-116593127D01*
X180035065Y-116593132D01*
X180035061Y-116593137D01*
X179627762Y-117092536D01*
X179595256Y-117141461D01*
X179562110Y-117189869D01*
X179557813Y-117197816D01*
X179557808Y-117197824D01*
X179557805Y-117197832D01*
X179255264Y-117766830D01*
X179232911Y-117821063D01*
X179209767Y-117875061D01*
X179207093Y-117883700D01*
X179020830Y-118500632D01*
X179009425Y-118558232D01*
X178997222Y-118615640D01*
X178996277Y-118624633D01*
X178933391Y-119265996D01*
X178933391Y-119266010D01*
X178930300Y-119297392D01*
X178930301Y-124142500D01*
X125869700Y-124142500D01*
X125869700Y-119297391D01*
X125866810Y-119268052D01*
X125866954Y-119247444D01*
X125866072Y-119238444D01*
X125798709Y-118597537D01*
X125786901Y-118540014D01*
X125775905Y-118482368D01*
X125773291Y-118473711D01*
X125629728Y-118009933D01*
X130683000Y-118009933D01*
X130683000Y-118210067D01*
X130722044Y-118406356D01*
X130798632Y-118591256D01*
X130901361Y-118745000D01*
X130798632Y-118898744D01*
X130722044Y-119083644D01*
X130683000Y-119279933D01*
X130683000Y-119480067D01*
X130722044Y-119676356D01*
X130798632Y-119861256D01*
X130909821Y-120027662D01*
X131051338Y-120169179D01*
X131217744Y-120280368D01*
X131402644Y-120356956D01*
X131598933Y-120396000D01*
X131799067Y-120396000D01*
X131995356Y-120356956D01*
X132180256Y-120280368D01*
X132346662Y-120169179D01*
X132488179Y-120027662D01*
X132599368Y-119861256D01*
X132675956Y-119676356D01*
X132715000Y-119480067D01*
X132715000Y-119279933D01*
X132675956Y-119083644D01*
X132599368Y-118898744D01*
X132496639Y-118745000D01*
X132599368Y-118591256D01*
X132675956Y-118406356D01*
X132715000Y-118210067D01*
X132715000Y-118009933D01*
X136652000Y-118009933D01*
X136652000Y-118210067D01*
X136691044Y-118406356D01*
X136767632Y-118591256D01*
X136878821Y-118757662D01*
X136929659Y-118808500D01*
X136878821Y-118859338D01*
X136767632Y-119025744D01*
X136691044Y-119210644D01*
X136652000Y-119406933D01*
X136652000Y-119607067D01*
X136691044Y-119803356D01*
X136767632Y-119988256D01*
X136878821Y-120154662D01*
X136929659Y-120205500D01*
X136878821Y-120256338D01*
X136767632Y-120422744D01*
X136691044Y-120607644D01*
X136652000Y-120803933D01*
X136652000Y-121004067D01*
X136691044Y-121200356D01*
X136767632Y-121385256D01*
X136878821Y-121551662D01*
X137020338Y-121693179D01*
X137186744Y-121804368D01*
X137371644Y-121880956D01*
X137567933Y-121920000D01*
X137768067Y-121920000D01*
X137964356Y-121880956D01*
X138149256Y-121804368D01*
X138315662Y-121693179D01*
X138430000Y-121578841D01*
X138544338Y-121693179D01*
X138710744Y-121804368D01*
X138895644Y-121880956D01*
X139091933Y-121920000D01*
X139292067Y-121920000D01*
X139488356Y-121880956D01*
X139673256Y-121804368D01*
X139839662Y-121693179D01*
X139981179Y-121551662D01*
X140092368Y-121385256D01*
X140168956Y-121200356D01*
X140208000Y-121004067D01*
X140208000Y-120803933D01*
X140168956Y-120607644D01*
X140120819Y-120491429D01*
X158410000Y-120491429D01*
X158410000Y-120808571D01*
X158471871Y-121119620D01*
X158593237Y-121412621D01*
X158769431Y-121676315D01*
X158993685Y-121900569D01*
X159257379Y-122076763D01*
X159550380Y-122198129D01*
X159861429Y-122260000D01*
X160178571Y-122260000D01*
X160489620Y-122198129D01*
X160782621Y-122076763D01*
X161046315Y-121900569D01*
X161270569Y-121676315D01*
X161446763Y-121412621D01*
X161568129Y-121119620D01*
X161630000Y-120808571D01*
X161630000Y-120491429D01*
X163410000Y-120491429D01*
X163410000Y-120808571D01*
X163471871Y-121119620D01*
X163593237Y-121412621D01*
X163769431Y-121676315D01*
X163993685Y-121900569D01*
X164257379Y-122076763D01*
X164550380Y-122198129D01*
X164861429Y-122260000D01*
X165178571Y-122260000D01*
X165489620Y-122198129D01*
X165782621Y-122076763D01*
X166046315Y-121900569D01*
X166179300Y-121767584D01*
X169082021Y-121767584D01*
X169174766Y-122029429D01*
X169460120Y-122167820D01*
X169766990Y-122247883D01*
X170083584Y-122266540D01*
X170397733Y-122223074D01*
X170697367Y-122119156D01*
X170865234Y-122029429D01*
X170957979Y-121767584D01*
X170020000Y-120829605D01*
X169082021Y-121767584D01*
X166179300Y-121767584D01*
X166270569Y-121676315D01*
X166446763Y-121412621D01*
X166568129Y-121119620D01*
X166630000Y-120808571D01*
X166630000Y-120713584D01*
X168403460Y-120713584D01*
X168446926Y-121027733D01*
X168550844Y-121327367D01*
X168640571Y-121495234D01*
X168902416Y-121587979D01*
X169840395Y-120650000D01*
X170199605Y-120650000D01*
X171137584Y-121587979D01*
X171399429Y-121495234D01*
X171537820Y-121209880D01*
X171617883Y-120903010D01*
X171636540Y-120586416D01*
X171593074Y-120272267D01*
X171489156Y-119972633D01*
X171399429Y-119804766D01*
X171137584Y-119712021D01*
X170199605Y-120650000D01*
X169840395Y-120650000D01*
X168902416Y-119712021D01*
X168640571Y-119804766D01*
X168502180Y-120090120D01*
X168422117Y-120396990D01*
X168403460Y-120713584D01*
X166630000Y-120713584D01*
X166630000Y-120491429D01*
X166568129Y-120180380D01*
X166446763Y-119887379D01*
X166270569Y-119623685D01*
X166179300Y-119532416D01*
X169082021Y-119532416D01*
X170020000Y-120470395D01*
X170957979Y-119532416D01*
X170865234Y-119270571D01*
X170579880Y-119132180D01*
X170273010Y-119052117D01*
X169956416Y-119033460D01*
X169642267Y-119076926D01*
X169342633Y-119180844D01*
X169174766Y-119270571D01*
X169082021Y-119532416D01*
X166179300Y-119532416D01*
X166046315Y-119399431D01*
X165782621Y-119223237D01*
X165489620Y-119101871D01*
X165178571Y-119040000D01*
X164861429Y-119040000D01*
X164550380Y-119101871D01*
X164257379Y-119223237D01*
X163993685Y-119399431D01*
X163769431Y-119623685D01*
X163593237Y-119887379D01*
X163471871Y-120180380D01*
X163410000Y-120491429D01*
X161630000Y-120491429D01*
X161568129Y-120180380D01*
X161446763Y-119887379D01*
X161270569Y-119623685D01*
X161046315Y-119399431D01*
X160782621Y-119223237D01*
X160489620Y-119101871D01*
X160178571Y-119040000D01*
X159861429Y-119040000D01*
X159550380Y-119101871D01*
X159257379Y-119223237D01*
X158993685Y-119399431D01*
X158769431Y-119623685D01*
X158593237Y-119887379D01*
X158471871Y-120180380D01*
X158410000Y-120491429D01*
X140120819Y-120491429D01*
X140092368Y-120422744D01*
X139981179Y-120256338D01*
X139930341Y-120205500D01*
X139981179Y-120154662D01*
X140092368Y-119988256D01*
X140168956Y-119803356D01*
X140208000Y-119607067D01*
X140208000Y-119406933D01*
X140168956Y-119210644D01*
X140092368Y-119025744D01*
X139981179Y-118859338D01*
X139930341Y-118808500D01*
X139981179Y-118757662D01*
X140092368Y-118591256D01*
X140168956Y-118406356D01*
X140208000Y-118210067D01*
X140208000Y-118009933D01*
X140168956Y-117813644D01*
X140092368Y-117628744D01*
X139981179Y-117462338D01*
X139839662Y-117320821D01*
X139673256Y-117209632D01*
X139488356Y-117133044D01*
X139292067Y-117094000D01*
X139091933Y-117094000D01*
X138895644Y-117133044D01*
X138710744Y-117209632D01*
X138544338Y-117320821D01*
X138430000Y-117435159D01*
X138315662Y-117320821D01*
X138149256Y-117209632D01*
X137964356Y-117133044D01*
X137768067Y-117094000D01*
X137567933Y-117094000D01*
X137371644Y-117133044D01*
X137186744Y-117209632D01*
X137020338Y-117320821D01*
X136878821Y-117462338D01*
X136767632Y-117628744D01*
X136691044Y-117813644D01*
X136652000Y-118009933D01*
X132715000Y-118009933D01*
X132675956Y-117813644D01*
X132599368Y-117628744D01*
X132488179Y-117462338D01*
X132346662Y-117320821D01*
X132180256Y-117209632D01*
X131995356Y-117133044D01*
X131799067Y-117094000D01*
X131598933Y-117094000D01*
X131402644Y-117133044D01*
X131217744Y-117209632D01*
X131051338Y-117320821D01*
X130909821Y-117462338D01*
X130798632Y-117628744D01*
X130722044Y-117813644D01*
X130683000Y-118009933D01*
X125629728Y-118009933D01*
X125582726Y-117858094D01*
X125559956Y-117803926D01*
X125537986Y-117749547D01*
X125533741Y-117741563D01*
X125533741Y-117741562D01*
X125533738Y-117741558D01*
X125227231Y-117174683D01*
X125194370Y-117125965D01*
X125162259Y-117076894D01*
X125156548Y-117069891D01*
X125156544Y-117069885D01*
X125156539Y-117069880D01*
X124745764Y-116573338D01*
X124704072Y-116531935D01*
X124663035Y-116490030D01*
X124656073Y-116484270D01*
X124656068Y-116484265D01*
X124656063Y-116484261D01*
X124156664Y-116076962D01*
X124107739Y-116044456D01*
X124059331Y-116011310D01*
X124051384Y-116007013D01*
X124051376Y-116007008D01*
X124051368Y-116007005D01*
X123482370Y-115704464D01*
X123428137Y-115682111D01*
X123374139Y-115658967D01*
X123365500Y-115656293D01*
X122748568Y-115470030D01*
X122690968Y-115458625D01*
X122633560Y-115446422D01*
X122624567Y-115445477D01*
X121983204Y-115382591D01*
X121983191Y-115382591D01*
X121951809Y-115379500D01*
X117106700Y-115379500D01*
X117106700Y-112742608D01*
X124168100Y-112742608D01*
X124168100Y-113520592D01*
X124319877Y-114283627D01*
X124617598Y-115002390D01*
X125049823Y-115649260D01*
X125599940Y-116199377D01*
X126246810Y-116631602D01*
X126965573Y-116929323D01*
X127728608Y-117081100D01*
X128506592Y-117081100D01*
X129269627Y-116929323D01*
X129726855Y-116739933D01*
X132461000Y-116739933D01*
X132461000Y-116940067D01*
X132500044Y-117136356D01*
X132576632Y-117321256D01*
X132687821Y-117487662D01*
X132829338Y-117629179D01*
X132995744Y-117740368D01*
X133180644Y-117816956D01*
X133376933Y-117856000D01*
X133577067Y-117856000D01*
X133773356Y-117816956D01*
X133958256Y-117740368D01*
X134124662Y-117629179D01*
X134266179Y-117487662D01*
X134377368Y-117321256D01*
X134453956Y-117136356D01*
X134493000Y-116940067D01*
X134493000Y-116739933D01*
X134453956Y-116543644D01*
X134377368Y-116358744D01*
X134266179Y-116192338D01*
X134124662Y-116050821D01*
X133958256Y-115939632D01*
X133773356Y-115863044D01*
X133577067Y-115824000D01*
X133376933Y-115824000D01*
X133180644Y-115863044D01*
X132995744Y-115939632D01*
X132829338Y-116050821D01*
X132687821Y-116192338D01*
X132576632Y-116358744D01*
X132500044Y-116543644D01*
X132461000Y-116739933D01*
X129726855Y-116739933D01*
X129988390Y-116631602D01*
X130635260Y-116199377D01*
X131185377Y-115649260D01*
X131617602Y-115002390D01*
X131915323Y-114283627D01*
X132067100Y-113520592D01*
X132067100Y-112742608D01*
X172732900Y-112742608D01*
X172732900Y-113520592D01*
X172884677Y-114283627D01*
X173182398Y-115002390D01*
X173614623Y-115649260D01*
X174164740Y-116199377D01*
X174811610Y-116631602D01*
X175530373Y-116929323D01*
X176293408Y-117081100D01*
X177071392Y-117081100D01*
X177834427Y-116929323D01*
X178553190Y-116631602D01*
X179200060Y-116199377D01*
X179750177Y-115649260D01*
X180182402Y-115002390D01*
X180480123Y-114283627D01*
X180631900Y-113520592D01*
X180631900Y-112742608D01*
X180480123Y-111979573D01*
X180182402Y-111260810D01*
X179750177Y-110613940D01*
X179200060Y-110063823D01*
X178553190Y-109631598D01*
X177834427Y-109333877D01*
X177071392Y-109182100D01*
X176293408Y-109182100D01*
X175530373Y-109333877D01*
X174811610Y-109631598D01*
X174164740Y-110063823D01*
X173614623Y-110613940D01*
X173182398Y-111260810D01*
X172884677Y-111979573D01*
X172732900Y-112742608D01*
X132067100Y-112742608D01*
X131915323Y-111979573D01*
X131617602Y-111260810D01*
X131185377Y-110613940D01*
X130635260Y-110063823D01*
X129988390Y-109631598D01*
X129269627Y-109333877D01*
X128506592Y-109182100D01*
X127728608Y-109182100D01*
X126965573Y-109333877D01*
X126246810Y-109631598D01*
X125599940Y-110063823D01*
X125049823Y-110613940D01*
X124617598Y-111260810D01*
X124319877Y-111979573D01*
X124168100Y-112742608D01*
X117106700Y-112742608D01*
X117106700Y-110045600D01*
X118195928Y-110045600D01*
X118195928Y-111645600D01*
X118208188Y-111770082D01*
X118244498Y-111889780D01*
X118303463Y-112000094D01*
X118382815Y-112096785D01*
X118479506Y-112176137D01*
X118589820Y-112235102D01*
X118709518Y-112271412D01*
X118834000Y-112283672D01*
X120434000Y-112283672D01*
X120558482Y-112271412D01*
X120678180Y-112235102D01*
X120788494Y-112176137D01*
X120885185Y-112096785D01*
X120964537Y-112000094D01*
X121023502Y-111889780D01*
X121039117Y-111838302D01*
X121320903Y-111838302D01*
X121392486Y-112082271D01*
X121647996Y-112203171D01*
X121922184Y-112271900D01*
X122204512Y-112285817D01*
X122484130Y-112244387D01*
X122750292Y-112149203D01*
X122875514Y-112082271D01*
X122947097Y-111838302D01*
X122134000Y-111025205D01*
X121320903Y-111838302D01*
X121039117Y-111838302D01*
X121059812Y-111770082D01*
X121072072Y-111645600D01*
X121072072Y-111638385D01*
X121141298Y-111658697D01*
X121954395Y-110845600D01*
X122313605Y-110845600D01*
X123126702Y-111658697D01*
X123370671Y-111587114D01*
X123491571Y-111331604D01*
X123560300Y-111057416D01*
X123574217Y-110775088D01*
X123532787Y-110495470D01*
X123437603Y-110229308D01*
X123370671Y-110104086D01*
X123126702Y-110032503D01*
X122313605Y-110845600D01*
X121954395Y-110845600D01*
X121141298Y-110032503D01*
X121072072Y-110052815D01*
X121072072Y-110045600D01*
X121059812Y-109921118D01*
X121039118Y-109852898D01*
X121320903Y-109852898D01*
X122134000Y-110665995D01*
X122947097Y-109852898D01*
X122875514Y-109608929D01*
X122620004Y-109488029D01*
X122345816Y-109419300D01*
X122063488Y-109405383D01*
X121783870Y-109446813D01*
X121517708Y-109541997D01*
X121392486Y-109608929D01*
X121320903Y-109852898D01*
X121039118Y-109852898D01*
X121023502Y-109801420D01*
X120964537Y-109691106D01*
X120885185Y-109594415D01*
X120788494Y-109515063D01*
X120678180Y-109456098D01*
X120558482Y-109419788D01*
X120434000Y-109407528D01*
X118834000Y-109407528D01*
X118709518Y-109419788D01*
X118589820Y-109456098D01*
X118479506Y-109515063D01*
X118382815Y-109594415D01*
X118303463Y-109691106D01*
X118244498Y-109801420D01*
X118208188Y-109921118D01*
X118195928Y-110045600D01*
X117106700Y-110045600D01*
X117106700Y-108484933D01*
X143256000Y-108484933D01*
X143256000Y-108685067D01*
X143295044Y-108881356D01*
X143371632Y-109066256D01*
X143482821Y-109232662D01*
X143624338Y-109374179D01*
X143790744Y-109485368D01*
X143975644Y-109561956D01*
X144171933Y-109601000D01*
X144372067Y-109601000D01*
X144568356Y-109561956D01*
X144753256Y-109485368D01*
X144907000Y-109382639D01*
X145060744Y-109485368D01*
X145245644Y-109561956D01*
X145441933Y-109601000D01*
X145642067Y-109601000D01*
X145838356Y-109561956D01*
X146023256Y-109485368D01*
X146177000Y-109382639D01*
X146330744Y-109485368D01*
X146515644Y-109561956D01*
X146711933Y-109601000D01*
X146912067Y-109601000D01*
X147108356Y-109561956D01*
X147293256Y-109485368D01*
X147447000Y-109382639D01*
X147600744Y-109485368D01*
X147785644Y-109561956D01*
X147981933Y-109601000D01*
X148182067Y-109601000D01*
X148378356Y-109561956D01*
X148563256Y-109485368D01*
X148717000Y-109382639D01*
X148870744Y-109485368D01*
X149055644Y-109561956D01*
X149251933Y-109601000D01*
X149452067Y-109601000D01*
X149648356Y-109561956D01*
X149833256Y-109485368D01*
X149987000Y-109382639D01*
X150140744Y-109485368D01*
X150325644Y-109561956D01*
X150521933Y-109601000D01*
X150722067Y-109601000D01*
X150918356Y-109561956D01*
X151103256Y-109485368D01*
X151269662Y-109374179D01*
X151411179Y-109232662D01*
X151522368Y-109066256D01*
X151598956Y-108881356D01*
X151638000Y-108685067D01*
X151638000Y-108484933D01*
X151598956Y-108288644D01*
X151522368Y-108103744D01*
X151411179Y-107937338D01*
X151269662Y-107795821D01*
X151103256Y-107684632D01*
X150918356Y-107608044D01*
X150722067Y-107569000D01*
X150521933Y-107569000D01*
X150325644Y-107608044D01*
X150140744Y-107684632D01*
X149987000Y-107787361D01*
X149833256Y-107684632D01*
X149648356Y-107608044D01*
X149452067Y-107569000D01*
X149251933Y-107569000D01*
X149055644Y-107608044D01*
X148870744Y-107684632D01*
X148717000Y-107787361D01*
X148563256Y-107684632D01*
X148378356Y-107608044D01*
X148182067Y-107569000D01*
X147981933Y-107569000D01*
X147785644Y-107608044D01*
X147600744Y-107684632D01*
X147447000Y-107787361D01*
X147293256Y-107684632D01*
X147108356Y-107608044D01*
X146912067Y-107569000D01*
X146711933Y-107569000D01*
X146515644Y-107608044D01*
X146330744Y-107684632D01*
X146177000Y-107787361D01*
X146023256Y-107684632D01*
X145838356Y-107608044D01*
X145642067Y-107569000D01*
X145441933Y-107569000D01*
X145245644Y-107608044D01*
X145060744Y-107684632D01*
X144907000Y-107787361D01*
X144753256Y-107684632D01*
X144568356Y-107608044D01*
X144372067Y-107569000D01*
X144171933Y-107569000D01*
X143975644Y-107608044D01*
X143790744Y-107684632D01*
X143624338Y-107795821D01*
X143482821Y-107937338D01*
X143371632Y-108103744D01*
X143295044Y-108288644D01*
X143256000Y-108484933D01*
X117106700Y-108484933D01*
X117106700Y-103240000D01*
X119365928Y-103240000D01*
X119365928Y-105040000D01*
X119378188Y-105164482D01*
X119414498Y-105284180D01*
X119473463Y-105394494D01*
X119552815Y-105491185D01*
X119649506Y-105570537D01*
X119759820Y-105629502D01*
X119879518Y-105665812D01*
X120004000Y-105678072D01*
X121804000Y-105678072D01*
X121928482Y-105665812D01*
X122048180Y-105629502D01*
X122158494Y-105570537D01*
X122255185Y-105491185D01*
X122334537Y-105394494D01*
X122393502Y-105284180D01*
X122429812Y-105164482D01*
X122442072Y-105040000D01*
X122442072Y-103240000D01*
X122429812Y-103115518D01*
X122393502Y-102995820D01*
X122334537Y-102885506D01*
X122255185Y-102788815D01*
X122175891Y-102723740D01*
X155995000Y-102723740D01*
X155995000Y-103016260D01*
X156052068Y-103303158D01*
X156164010Y-103573411D01*
X156326525Y-103816632D01*
X156533368Y-104023475D01*
X156707760Y-104140000D01*
X156533368Y-104256525D01*
X156326525Y-104463368D01*
X156164010Y-104706589D01*
X156052068Y-104976842D01*
X155995000Y-105263740D01*
X155995000Y-105556260D01*
X156052068Y-105843158D01*
X156164010Y-106113411D01*
X156326525Y-106356632D01*
X156533368Y-106563475D01*
X156707760Y-106680000D01*
X156533368Y-106796525D01*
X156326525Y-107003368D01*
X156164010Y-107246589D01*
X156052068Y-107516842D01*
X155995000Y-107803740D01*
X155995000Y-108096260D01*
X156052068Y-108383158D01*
X156164010Y-108653411D01*
X156326525Y-108896632D01*
X156533368Y-109103475D01*
X156776589Y-109265990D01*
X157046842Y-109377932D01*
X157333740Y-109435000D01*
X157626260Y-109435000D01*
X157913158Y-109377932D01*
X158183411Y-109265990D01*
X158426632Y-109103475D01*
X158633475Y-108896632D01*
X158795990Y-108653411D01*
X158907932Y-108383158D01*
X158965000Y-108096260D01*
X158965000Y-107803740D01*
X158907932Y-107516842D01*
X158795990Y-107246589D01*
X158633475Y-107003368D01*
X158426632Y-106796525D01*
X158252240Y-106680000D01*
X158426632Y-106563475D01*
X158633475Y-106356632D01*
X158795990Y-106113411D01*
X158907932Y-105843158D01*
X158965000Y-105556260D01*
X158965000Y-105263740D01*
X158907932Y-104976842D01*
X158795990Y-104706589D01*
X158650656Y-104489080D01*
X182630525Y-104489080D01*
X182714208Y-104743261D01*
X182986775Y-104874158D01*
X183279642Y-104949365D01*
X183581553Y-104965991D01*
X183880907Y-104923397D01*
X184166199Y-104823222D01*
X184315792Y-104743261D01*
X184399475Y-104489080D01*
X183515000Y-103604605D01*
X182630525Y-104489080D01*
X158650656Y-104489080D01*
X158633475Y-104463368D01*
X158426632Y-104256525D01*
X158252240Y-104140000D01*
X158426632Y-104023475D01*
X158633475Y-103816632D01*
X158795990Y-103573411D01*
X158829896Y-103491553D01*
X181974009Y-103491553D01*
X182016603Y-103790907D01*
X182116778Y-104076199D01*
X182196739Y-104225792D01*
X182450920Y-104309475D01*
X183335395Y-103425000D01*
X183694605Y-103425000D01*
X184579080Y-104309475D01*
X184833261Y-104225792D01*
X184964158Y-103953225D01*
X185039365Y-103660358D01*
X185055991Y-103358447D01*
X185013397Y-103059093D01*
X184913222Y-102773801D01*
X184833261Y-102624208D01*
X184579080Y-102540525D01*
X183694605Y-103425000D01*
X183335395Y-103425000D01*
X182450920Y-102540525D01*
X182196739Y-102624208D01*
X182065842Y-102896775D01*
X181990635Y-103189642D01*
X181974009Y-103491553D01*
X158829896Y-103491553D01*
X158907932Y-103303158D01*
X158965000Y-103016260D01*
X158965000Y-102723740D01*
X158907932Y-102436842D01*
X158795990Y-102166589D01*
X158633475Y-101923368D01*
X158464040Y-101753933D01*
X171704000Y-101753933D01*
X171704000Y-101954067D01*
X171743044Y-102150356D01*
X171819632Y-102335256D01*
X171930821Y-102501662D01*
X172072338Y-102643179D01*
X172238744Y-102754368D01*
X172423644Y-102830956D01*
X172619933Y-102870000D01*
X172820067Y-102870000D01*
X173016356Y-102830956D01*
X173201256Y-102754368D01*
X173367662Y-102643179D01*
X173509179Y-102501662D01*
X173603219Y-102360920D01*
X182630525Y-102360920D01*
X183515000Y-103245395D01*
X184399475Y-102360920D01*
X184315792Y-102106739D01*
X184043225Y-101975842D01*
X183750358Y-101900635D01*
X183448447Y-101884009D01*
X183149093Y-101926603D01*
X182863801Y-102026778D01*
X182714208Y-102106739D01*
X182630525Y-102360920D01*
X173603219Y-102360920D01*
X173620368Y-102335256D01*
X173696956Y-102150356D01*
X173736000Y-101954067D01*
X173736000Y-101753933D01*
X173696956Y-101557644D01*
X173620368Y-101372744D01*
X173509179Y-101206338D01*
X173367662Y-101064821D01*
X173201256Y-100953632D01*
X173016356Y-100877044D01*
X172820067Y-100838000D01*
X172619933Y-100838000D01*
X172423644Y-100877044D01*
X172238744Y-100953632D01*
X172072338Y-101064821D01*
X171930821Y-101206338D01*
X171819632Y-101372744D01*
X171743044Y-101557644D01*
X171704000Y-101753933D01*
X158464040Y-101753933D01*
X158426632Y-101716525D01*
X158244466Y-101594805D01*
X158361355Y-101525178D01*
X158577588Y-101330269D01*
X158751641Y-101096920D01*
X158876825Y-100834099D01*
X158921476Y-100686890D01*
X158800155Y-100457000D01*
X157607000Y-100457000D01*
X157607000Y-100477000D01*
X157353000Y-100477000D01*
X157353000Y-100457000D01*
X156159845Y-100457000D01*
X156038524Y-100686890D01*
X156083175Y-100834099D01*
X156208359Y-101096920D01*
X156382412Y-101330269D01*
X156598645Y-101525178D01*
X156715534Y-101594805D01*
X156533368Y-101716525D01*
X156326525Y-101923368D01*
X156164010Y-102166589D01*
X156052068Y-102436842D01*
X155995000Y-102723740D01*
X122175891Y-102723740D01*
X122158494Y-102709463D01*
X122048180Y-102650498D01*
X121928482Y-102614188D01*
X121804000Y-102601928D01*
X120004000Y-102601928D01*
X119879518Y-102614188D01*
X119759820Y-102650498D01*
X119649506Y-102709463D01*
X119552815Y-102788815D01*
X119473463Y-102885506D01*
X119414498Y-102995820D01*
X119378188Y-103115518D01*
X119365928Y-103240000D01*
X117106700Y-103240000D01*
X117106700Y-100204080D01*
X120019525Y-100204080D01*
X120103208Y-100458261D01*
X120375775Y-100589158D01*
X120668642Y-100664365D01*
X120970553Y-100680991D01*
X121269907Y-100638397D01*
X121555199Y-100538222D01*
X121704792Y-100458261D01*
X121788475Y-100204080D01*
X120904000Y-99319605D01*
X120019525Y-100204080D01*
X117106700Y-100204080D01*
X117106700Y-99206553D01*
X119363009Y-99206553D01*
X119405603Y-99505907D01*
X119505778Y-99791199D01*
X119585739Y-99940792D01*
X119839920Y-100024475D01*
X120724395Y-99140000D01*
X121083605Y-99140000D01*
X121968080Y-100024475D01*
X122115522Y-99975933D01*
X140335000Y-99975933D01*
X140335000Y-100176067D01*
X140374044Y-100372356D01*
X140450632Y-100557256D01*
X140561821Y-100723662D01*
X140703338Y-100865179D01*
X140869744Y-100976368D01*
X141054644Y-101052956D01*
X141250933Y-101092000D01*
X141451067Y-101092000D01*
X141647356Y-101052956D01*
X141832256Y-100976368D01*
X141998662Y-100865179D01*
X142140179Y-100723662D01*
X142251368Y-100557256D01*
X142327956Y-100372356D01*
X142367000Y-100176067D01*
X142367000Y-99975933D01*
X142327956Y-99779644D01*
X142251368Y-99594744D01*
X142140179Y-99428338D01*
X141998662Y-99286821D01*
X141832256Y-99175632D01*
X141647356Y-99099044D01*
X141451067Y-99060000D01*
X141250933Y-99060000D01*
X141054644Y-99099044D01*
X140869744Y-99175632D01*
X140703338Y-99286821D01*
X140561821Y-99428338D01*
X140450632Y-99594744D01*
X140374044Y-99779644D01*
X140335000Y-99975933D01*
X122115522Y-99975933D01*
X122222261Y-99940792D01*
X122353158Y-99668225D01*
X122428365Y-99375358D01*
X122444991Y-99073447D01*
X122402397Y-98774093D01*
X122302222Y-98488801D01*
X122222261Y-98339208D01*
X121968080Y-98255525D01*
X121083605Y-99140000D01*
X120724395Y-99140000D01*
X119839920Y-98255525D01*
X119585739Y-98339208D01*
X119454842Y-98611775D01*
X119379635Y-98904642D01*
X119363009Y-99206553D01*
X117106700Y-99206553D01*
X117106700Y-98075920D01*
X120019525Y-98075920D01*
X120904000Y-98960395D01*
X121788475Y-98075920D01*
X121704792Y-97821739D01*
X121432225Y-97690842D01*
X121139358Y-97615635D01*
X120837447Y-97599009D01*
X120538093Y-97641603D01*
X120252801Y-97741778D01*
X120103208Y-97821739D01*
X120019525Y-98075920D01*
X117106700Y-98075920D01*
X117106700Y-95764933D01*
X130830000Y-95764933D01*
X130830000Y-95965067D01*
X130869044Y-96161356D01*
X130945632Y-96346256D01*
X131056821Y-96512662D01*
X131198338Y-96654179D01*
X131364744Y-96765368D01*
X131549644Y-96841956D01*
X131745933Y-96881000D01*
X131946067Y-96881000D01*
X132142356Y-96841956D01*
X132327256Y-96765368D01*
X132493662Y-96654179D01*
X132635179Y-96512662D01*
X132746368Y-96346256D01*
X132822956Y-96161356D01*
X132862000Y-95965067D01*
X132862000Y-95764933D01*
X132822956Y-95568644D01*
X132746368Y-95383744D01*
X132635179Y-95217338D01*
X132493662Y-95075821D01*
X132327256Y-94964632D01*
X132142356Y-94888044D01*
X131946067Y-94849000D01*
X131745933Y-94849000D01*
X131549644Y-94888044D01*
X131364744Y-94964632D01*
X131198338Y-95075821D01*
X131056821Y-95217338D01*
X130945632Y-95383744D01*
X130869044Y-95568644D01*
X130830000Y-95764933D01*
X117106700Y-95764933D01*
X117106700Y-94400000D01*
X155991928Y-94400000D01*
X155991928Y-96100000D01*
X156004188Y-96224482D01*
X156040498Y-96344180D01*
X156099463Y-96454494D01*
X156178815Y-96551185D01*
X156275506Y-96630537D01*
X156385820Y-96689502D01*
X156458380Y-96711513D01*
X156326525Y-96843368D01*
X156164010Y-97086589D01*
X156052068Y-97356842D01*
X155995000Y-97643740D01*
X155995000Y-97936260D01*
X156052068Y-98223158D01*
X156164010Y-98493411D01*
X156326525Y-98736632D01*
X156533368Y-98943475D01*
X156715534Y-99065195D01*
X156598645Y-99134822D01*
X156382412Y-99329731D01*
X156208359Y-99563080D01*
X156083175Y-99825901D01*
X156038524Y-99973110D01*
X156159845Y-100203000D01*
X157353000Y-100203000D01*
X157353000Y-100183000D01*
X157607000Y-100183000D01*
X157607000Y-100203000D01*
X158800155Y-100203000D01*
X158921476Y-99973110D01*
X158876825Y-99825901D01*
X158751641Y-99563080D01*
X158577588Y-99329731D01*
X158361355Y-99134822D01*
X158244466Y-99065195D01*
X158426632Y-98943475D01*
X158633475Y-98736632D01*
X158795990Y-98493411D01*
X158907932Y-98223158D01*
X158965000Y-97936260D01*
X158965000Y-97643740D01*
X158941381Y-97525000D01*
X181976928Y-97525000D01*
X181976928Y-99325000D01*
X181989188Y-99449482D01*
X182025498Y-99569180D01*
X182084463Y-99679494D01*
X182163815Y-99776185D01*
X182260506Y-99855537D01*
X182370820Y-99914502D01*
X182490518Y-99950812D01*
X182615000Y-99963072D01*
X184415000Y-99963072D01*
X184539482Y-99950812D01*
X184659180Y-99914502D01*
X184769494Y-99855537D01*
X184866185Y-99776185D01*
X184945537Y-99679494D01*
X185004502Y-99569180D01*
X185040812Y-99449482D01*
X185053072Y-99325000D01*
X185053072Y-97525000D01*
X185040812Y-97400518D01*
X185004502Y-97280820D01*
X184945537Y-97170506D01*
X184866185Y-97073815D01*
X184769494Y-96994463D01*
X184659180Y-96935498D01*
X184539482Y-96899188D01*
X184415000Y-96886928D01*
X182615000Y-96886928D01*
X182490518Y-96899188D01*
X182370820Y-96935498D01*
X182260506Y-96994463D01*
X182163815Y-97073815D01*
X182084463Y-97170506D01*
X182025498Y-97280820D01*
X181989188Y-97400518D01*
X181976928Y-97525000D01*
X158941381Y-97525000D01*
X158907932Y-97356842D01*
X158795990Y-97086589D01*
X158633475Y-96843368D01*
X158501620Y-96711513D01*
X158574180Y-96689502D01*
X158684494Y-96630537D01*
X158781185Y-96551185D01*
X158860537Y-96454494D01*
X158919502Y-96344180D01*
X158955812Y-96224482D01*
X158968072Y-96100000D01*
X158968072Y-94400000D01*
X158955812Y-94275518D01*
X158919502Y-94155820D01*
X158860537Y-94045506D01*
X158781185Y-93948815D01*
X158684494Y-93869463D01*
X158574180Y-93810498D01*
X158454482Y-93774188D01*
X158330000Y-93761928D01*
X156630000Y-93761928D01*
X156505518Y-93774188D01*
X156385820Y-93810498D01*
X156275506Y-93869463D01*
X156178815Y-93948815D01*
X156099463Y-94045506D01*
X156040498Y-94155820D01*
X156004188Y-94275518D01*
X155991928Y-94400000D01*
X117106700Y-94400000D01*
X117106700Y-91249600D01*
X117931128Y-91249600D01*
X117931128Y-92849600D01*
X117943388Y-92974082D01*
X117979698Y-93093780D01*
X118038663Y-93204094D01*
X118118015Y-93300785D01*
X118214706Y-93380137D01*
X118325020Y-93439102D01*
X118444718Y-93475412D01*
X118569200Y-93487672D01*
X120169200Y-93487672D01*
X120293682Y-93475412D01*
X120413380Y-93439102D01*
X120523694Y-93380137D01*
X120620385Y-93300785D01*
X120699737Y-93204094D01*
X120758702Y-93093780D01*
X120774317Y-93042302D01*
X121056103Y-93042302D01*
X121127686Y-93286271D01*
X121383196Y-93407171D01*
X121657384Y-93475900D01*
X121939712Y-93489817D01*
X122219330Y-93448387D01*
X122485492Y-93353203D01*
X122610714Y-93286271D01*
X122682297Y-93042302D01*
X121869200Y-92229205D01*
X121056103Y-93042302D01*
X120774317Y-93042302D01*
X120795012Y-92974082D01*
X120807272Y-92849600D01*
X120807272Y-92842385D01*
X120876498Y-92862697D01*
X121689595Y-92049600D01*
X122048805Y-92049600D01*
X122861902Y-92862697D01*
X123105871Y-92791114D01*
X123226771Y-92535604D01*
X123295500Y-92261416D01*
X123309417Y-91979088D01*
X123267987Y-91699470D01*
X123172803Y-91433308D01*
X123105871Y-91308086D01*
X122861902Y-91236503D01*
X122048805Y-92049600D01*
X121689595Y-92049600D01*
X120876498Y-91236503D01*
X120807272Y-91256815D01*
X120807272Y-91249600D01*
X120795012Y-91125118D01*
X120774318Y-91056898D01*
X121056103Y-91056898D01*
X121869200Y-91869995D01*
X122682297Y-91056898D01*
X122610714Y-90812929D01*
X122355204Y-90692029D01*
X122081016Y-90623300D01*
X121798688Y-90609383D01*
X121519070Y-90650813D01*
X121252908Y-90745997D01*
X121127686Y-90812929D01*
X121056103Y-91056898D01*
X120774318Y-91056898D01*
X120758702Y-91005420D01*
X120699737Y-90895106D01*
X120620385Y-90798415D01*
X120523694Y-90719063D01*
X120413380Y-90660098D01*
X120293682Y-90623788D01*
X120169200Y-90611528D01*
X118569200Y-90611528D01*
X118444718Y-90623788D01*
X118325020Y-90660098D01*
X118214706Y-90719063D01*
X118118015Y-90798415D01*
X118038663Y-90895106D01*
X117979698Y-91005420D01*
X117943388Y-91125118D01*
X117931128Y-91249600D01*
X117106700Y-91249600D01*
X117106700Y-89679408D01*
X124168100Y-89679408D01*
X124168100Y-90457392D01*
X124319877Y-91220427D01*
X124617598Y-91939190D01*
X125049823Y-92586060D01*
X125599940Y-93136177D01*
X126246810Y-93568402D01*
X126965573Y-93866123D01*
X127728608Y-94017900D01*
X128506592Y-94017900D01*
X129269627Y-93866123D01*
X129988390Y-93568402D01*
X130635260Y-93136177D01*
X131006504Y-92764933D01*
X135100000Y-92764933D01*
X135100000Y-92965067D01*
X135139044Y-93161356D01*
X135215632Y-93346256D01*
X135326821Y-93512662D01*
X135468338Y-93654179D01*
X135634744Y-93765368D01*
X135819644Y-93841956D01*
X136015933Y-93881000D01*
X136216067Y-93881000D01*
X136412356Y-93841956D01*
X136597256Y-93765368D01*
X136763662Y-93654179D01*
X136905179Y-93512662D01*
X137016368Y-93346256D01*
X137092956Y-93161356D01*
X137132000Y-92965067D01*
X137132000Y-92764933D01*
X137092956Y-92568644D01*
X137016368Y-92383744D01*
X136905179Y-92217338D01*
X136763662Y-92075821D01*
X136597256Y-91964632D01*
X136412356Y-91888044D01*
X136216067Y-91849000D01*
X136015933Y-91849000D01*
X135819644Y-91888044D01*
X135634744Y-91964632D01*
X135468338Y-92075821D01*
X135326821Y-92217338D01*
X135215632Y-92383744D01*
X135139044Y-92568644D01*
X135100000Y-92764933D01*
X131006504Y-92764933D01*
X131185377Y-92586060D01*
X131617602Y-91939190D01*
X131915323Y-91220427D01*
X132067100Y-90457392D01*
X132067100Y-89764933D01*
X148514000Y-89764933D01*
X148514000Y-89965067D01*
X148553044Y-90161356D01*
X148629632Y-90346256D01*
X148740821Y-90512662D01*
X148882338Y-90654179D01*
X149048744Y-90765368D01*
X149233644Y-90841956D01*
X149429933Y-90881000D01*
X149630067Y-90881000D01*
X149826356Y-90841956D01*
X150011256Y-90765368D01*
X150177662Y-90654179D01*
X150319179Y-90512662D01*
X150430368Y-90346256D01*
X150506956Y-90161356D01*
X150546000Y-89965067D01*
X150546000Y-89764933D01*
X150528989Y-89679408D01*
X172732900Y-89679408D01*
X172732900Y-90457392D01*
X172884677Y-91220427D01*
X173182398Y-91939190D01*
X173614623Y-92586060D01*
X174164740Y-93136177D01*
X174811610Y-93568402D01*
X175530373Y-93866123D01*
X176293408Y-94017900D01*
X177071392Y-94017900D01*
X177834427Y-93866123D01*
X178553190Y-93568402D01*
X179200060Y-93136177D01*
X179750177Y-92586060D01*
X180182402Y-91939190D01*
X180480123Y-91220427D01*
X180631900Y-90457392D01*
X180631900Y-89679408D01*
X180480123Y-88916373D01*
X180182402Y-88197610D01*
X179750177Y-87550740D01*
X179200060Y-87000623D01*
X178553190Y-86568398D01*
X177834427Y-86270677D01*
X177071392Y-86118900D01*
X176293408Y-86118900D01*
X175530373Y-86270677D01*
X174811610Y-86568398D01*
X174164740Y-87000623D01*
X173614623Y-87550740D01*
X173182398Y-88197610D01*
X172884677Y-88916373D01*
X172732900Y-89679408D01*
X150528989Y-89679408D01*
X150506956Y-89568644D01*
X150430368Y-89383744D01*
X150319179Y-89217338D01*
X150177662Y-89075821D01*
X150011256Y-88964632D01*
X149826356Y-88888044D01*
X149630067Y-88849000D01*
X149429933Y-88849000D01*
X149233644Y-88888044D01*
X149048744Y-88964632D01*
X148882338Y-89075821D01*
X148740821Y-89217338D01*
X148629632Y-89383744D01*
X148553044Y-89568644D01*
X148514000Y-89764933D01*
X132067100Y-89764933D01*
X132067100Y-89679408D01*
X131915323Y-88916373D01*
X131617602Y-88197610D01*
X131185377Y-87550740D01*
X130635260Y-87000623D01*
X130282526Y-86764933D01*
X148466000Y-86764933D01*
X148466000Y-86965067D01*
X148505044Y-87161356D01*
X148581632Y-87346256D01*
X148692821Y-87512662D01*
X148834338Y-87654179D01*
X149000744Y-87765368D01*
X149185644Y-87841956D01*
X149381933Y-87881000D01*
X149582067Y-87881000D01*
X149778356Y-87841956D01*
X149963256Y-87765368D01*
X150129662Y-87654179D01*
X150271179Y-87512662D01*
X150382368Y-87346256D01*
X150441151Y-87204340D01*
X155537800Y-87204340D01*
X155537800Y-87496860D01*
X155594868Y-87783758D01*
X155706810Y-88054011D01*
X155869325Y-88297232D01*
X156076168Y-88504075D01*
X156319389Y-88666590D01*
X156589642Y-88778532D01*
X156876540Y-88835600D01*
X157169060Y-88835600D01*
X157455958Y-88778532D01*
X157726211Y-88666590D01*
X157969432Y-88504075D01*
X158176275Y-88297232D01*
X158292800Y-88122840D01*
X158409325Y-88297232D01*
X158616168Y-88504075D01*
X158859389Y-88666590D01*
X159129642Y-88778532D01*
X159416540Y-88835600D01*
X159709060Y-88835600D01*
X159995958Y-88778532D01*
X160266211Y-88666590D01*
X160509432Y-88504075D01*
X160716275Y-88297232D01*
X160832800Y-88122840D01*
X160949325Y-88297232D01*
X161156168Y-88504075D01*
X161399389Y-88666590D01*
X161669642Y-88778532D01*
X161956540Y-88835600D01*
X162249060Y-88835600D01*
X162535958Y-88778532D01*
X162806211Y-88666590D01*
X163049432Y-88504075D01*
X163256275Y-88297232D01*
X163372800Y-88122840D01*
X163489325Y-88297232D01*
X163696168Y-88504075D01*
X163939389Y-88666590D01*
X164209642Y-88778532D01*
X164496540Y-88835600D01*
X164789060Y-88835600D01*
X165075958Y-88778532D01*
X165346211Y-88666590D01*
X165589432Y-88504075D01*
X165796275Y-88297232D01*
X165917995Y-88115066D01*
X165987622Y-88231955D01*
X166182531Y-88448188D01*
X166415880Y-88622241D01*
X166678701Y-88747425D01*
X166825910Y-88792076D01*
X167055800Y-88670755D01*
X167055800Y-87477600D01*
X167035800Y-87477600D01*
X167035800Y-87223600D01*
X167055800Y-87223600D01*
X167055800Y-86030445D01*
X167309800Y-86030445D01*
X167309800Y-87223600D01*
X167329800Y-87223600D01*
X167329800Y-87477600D01*
X167309800Y-87477600D01*
X167309800Y-88670755D01*
X167539690Y-88792076D01*
X167686899Y-88747425D01*
X167949720Y-88622241D01*
X168183069Y-88448188D01*
X168258834Y-88364134D01*
X168283298Y-88444780D01*
X168342263Y-88555094D01*
X168421615Y-88651785D01*
X168518306Y-88731137D01*
X168628620Y-88790102D01*
X168748318Y-88826412D01*
X168872800Y-88838672D01*
X170572800Y-88838672D01*
X170697282Y-88826412D01*
X170816980Y-88790102D01*
X170927294Y-88731137D01*
X171023985Y-88651785D01*
X171103337Y-88555094D01*
X171162302Y-88444780D01*
X171198612Y-88325082D01*
X171210872Y-88200600D01*
X171210872Y-86500600D01*
X171198612Y-86376118D01*
X171162302Y-86256420D01*
X171103337Y-86146106D01*
X171023985Y-86049415D01*
X170927294Y-85970063D01*
X170816980Y-85911098D01*
X170697282Y-85874788D01*
X170572800Y-85862528D01*
X168872800Y-85862528D01*
X168748318Y-85874788D01*
X168628620Y-85911098D01*
X168518306Y-85970063D01*
X168421615Y-86049415D01*
X168342263Y-86146106D01*
X168283298Y-86256420D01*
X168258834Y-86337066D01*
X168183069Y-86253012D01*
X167949720Y-86078959D01*
X167686899Y-85953775D01*
X167539690Y-85909124D01*
X167309800Y-86030445D01*
X167055800Y-86030445D01*
X166825910Y-85909124D01*
X166678701Y-85953775D01*
X166415880Y-86078959D01*
X166182531Y-86253012D01*
X165987622Y-86469245D01*
X165917995Y-86586134D01*
X165796275Y-86403968D01*
X165589432Y-86197125D01*
X165346211Y-86034610D01*
X165075958Y-85922668D01*
X164789060Y-85865600D01*
X164496540Y-85865600D01*
X164209642Y-85922668D01*
X163939389Y-86034610D01*
X163696168Y-86197125D01*
X163489325Y-86403968D01*
X163372800Y-86578360D01*
X163256275Y-86403968D01*
X163049432Y-86197125D01*
X162806211Y-86034610D01*
X162535958Y-85922668D01*
X162249060Y-85865600D01*
X161956540Y-85865600D01*
X161669642Y-85922668D01*
X161399389Y-86034610D01*
X161156168Y-86197125D01*
X160949325Y-86403968D01*
X160832800Y-86578360D01*
X160716275Y-86403968D01*
X160509432Y-86197125D01*
X160266211Y-86034610D01*
X159995958Y-85922668D01*
X159709060Y-85865600D01*
X159416540Y-85865600D01*
X159129642Y-85922668D01*
X158859389Y-86034610D01*
X158616168Y-86197125D01*
X158409325Y-86403968D01*
X158292800Y-86578360D01*
X158176275Y-86403968D01*
X157969432Y-86197125D01*
X157726211Y-86034610D01*
X157455958Y-85922668D01*
X157169060Y-85865600D01*
X156876540Y-85865600D01*
X156589642Y-85922668D01*
X156319389Y-86034610D01*
X156076168Y-86197125D01*
X155869325Y-86403968D01*
X155706810Y-86647189D01*
X155594868Y-86917442D01*
X155537800Y-87204340D01*
X150441151Y-87204340D01*
X150458956Y-87161356D01*
X150498000Y-86965067D01*
X150498000Y-86764933D01*
X150458956Y-86568644D01*
X150382368Y-86383744D01*
X150271179Y-86217338D01*
X150129662Y-86075821D01*
X149963256Y-85964632D01*
X149778356Y-85888044D01*
X149582067Y-85849000D01*
X149381933Y-85849000D01*
X149185644Y-85888044D01*
X149000744Y-85964632D01*
X148834338Y-86075821D01*
X148692821Y-86217338D01*
X148581632Y-86383744D01*
X148505044Y-86568644D01*
X148466000Y-86764933D01*
X130282526Y-86764933D01*
X129988390Y-86568398D01*
X129269627Y-86270677D01*
X128506592Y-86118900D01*
X127728608Y-86118900D01*
X126965573Y-86270677D01*
X126246810Y-86568398D01*
X125599940Y-87000623D01*
X125049823Y-87550740D01*
X124617598Y-88197610D01*
X124319877Y-88916373D01*
X124168100Y-89679408D01*
X117106700Y-89679408D01*
X117106700Y-87820500D01*
X121951809Y-87820500D01*
X121981148Y-87817610D01*
X122001756Y-87817754D01*
X122010756Y-87816872D01*
X122651663Y-87749509D01*
X122709186Y-87737701D01*
X122766832Y-87726705D01*
X122775487Y-87724092D01*
X122775493Y-87724090D01*
X123391106Y-87533526D01*
X123445262Y-87510761D01*
X123499653Y-87488786D01*
X123507638Y-87484541D01*
X124074517Y-87178030D01*
X124123208Y-87145188D01*
X124172306Y-87113059D01*
X124179309Y-87107348D01*
X124179315Y-87107344D01*
X124179320Y-87107339D01*
X124675863Y-86696563D01*
X124717248Y-86654888D01*
X124759170Y-86613835D01*
X124764935Y-86606867D01*
X125172238Y-86107464D01*
X125204756Y-86058521D01*
X125237890Y-86010130D01*
X125242184Y-86002188D01*
X125242192Y-86002176D01*
X125242197Y-86002163D01*
X125544736Y-85433170D01*
X125567089Y-85378937D01*
X125590233Y-85324939D01*
X125592907Y-85316300D01*
X125779170Y-84699368D01*
X125790576Y-84641761D01*
X125802778Y-84584360D01*
X125803723Y-84575366D01*
X125808093Y-84530800D01*
X131087288Y-84530800D01*
X131051338Y-84554821D01*
%TA.AperFunction,Conductor*%
D19*
G36*
X131051338Y-84554821D02*
G01*
X130909821Y-84696338D01*
X130798632Y-84862744D01*
X130722044Y-85047644D01*
X130683000Y-85243933D01*
X130683000Y-85444067D01*
X130722044Y-85640356D01*
X130798632Y-85825256D01*
X130909821Y-85991662D01*
X131051338Y-86133179D01*
X131217744Y-86244368D01*
X131402644Y-86320956D01*
X131598933Y-86360000D01*
X131799067Y-86360000D01*
X131995356Y-86320956D01*
X132180256Y-86244368D01*
X132346662Y-86133179D01*
X132488179Y-85991662D01*
X132599368Y-85825256D01*
X132675956Y-85640356D01*
X132715000Y-85444067D01*
X132715000Y-85243933D01*
X132675956Y-85047644D01*
X132599368Y-84862744D01*
X132488179Y-84696338D01*
X132346662Y-84554821D01*
X132310712Y-84530800D01*
X135796717Y-84530800D01*
X135729338Y-84575821D01*
X135587821Y-84717338D01*
X135476632Y-84883744D01*
X135400044Y-85068644D01*
X135361000Y-85264933D01*
X135361000Y-85465067D01*
X135400044Y-85661356D01*
X135476632Y-85846256D01*
X135587821Y-86012662D01*
X135729338Y-86154179D01*
X135895744Y-86265368D01*
X136080644Y-86341956D01*
X136276933Y-86381000D01*
X136477067Y-86381000D01*
X136673356Y-86341956D01*
X136858256Y-86265368D01*
X137024662Y-86154179D01*
X137166179Y-86012662D01*
X137277368Y-85846256D01*
X137353956Y-85661356D01*
X137393000Y-85465067D01*
X137393000Y-85264933D01*
X137353956Y-85068644D01*
X137277368Y-84883744D01*
X137166179Y-84717338D01*
X137024662Y-84575821D01*
X136957283Y-84530800D01*
X144855359Y-84530800D01*
X144784821Y-84601338D01*
X144673632Y-84767744D01*
X144597044Y-84952644D01*
X144558000Y-85148933D01*
X144558000Y-85349067D01*
X144597044Y-85545356D01*
X144673632Y-85730256D01*
X144784821Y-85896662D01*
X144926338Y-86038179D01*
X145092744Y-86149368D01*
X145277644Y-86225956D01*
X145473933Y-86265000D01*
X145674067Y-86265000D01*
X145870356Y-86225956D01*
X146055256Y-86149368D01*
X146221662Y-86038179D01*
X146363179Y-85896662D01*
X146474368Y-85730256D01*
X146550956Y-85545356D01*
X146590000Y-85349067D01*
X146590000Y-85148933D01*
X146550956Y-84952644D01*
X146474368Y-84767744D01*
X146363179Y-84601338D01*
X146292641Y-84530800D01*
X178993759Y-84530800D01*
X179001291Y-84602463D01*
X179013099Y-84659986D01*
X179024095Y-84717632D01*
X179026709Y-84726289D01*
X179217274Y-85341906D01*
X179240039Y-85396062D01*
X179262014Y-85450453D01*
X179266259Y-85458438D01*
X179572770Y-86025317D01*
X179605612Y-86074008D01*
X179637741Y-86123106D01*
X179643452Y-86130109D01*
X179643456Y-86130115D01*
X179643461Y-86130120D01*
X180054237Y-86626663D01*
X180095912Y-86668048D01*
X180136965Y-86709970D01*
X180143933Y-86715735D01*
X180643336Y-87123038D01*
X180692279Y-87155556D01*
X180740670Y-87188690D01*
X180748612Y-87192984D01*
X180748624Y-87192992D01*
X180748637Y-87192997D01*
X181317630Y-87495536D01*
X181371863Y-87517889D01*
X181425861Y-87541033D01*
X181434500Y-87543707D01*
X182051432Y-87729970D01*
X182109039Y-87741376D01*
X182166440Y-87753578D01*
X182175434Y-87754523D01*
X182816796Y-87817409D01*
X182816809Y-87817409D01*
X182848191Y-87820500D01*
X187693300Y-87820500D01*
X187693301Y-115379500D01*
X182848191Y-115379500D01*
X182818852Y-115382390D01*
X182798244Y-115382246D01*
X182789244Y-115383128D01*
X182148337Y-115450491D01*
X182090814Y-115462299D01*
X182033168Y-115473295D01*
X182024513Y-115475908D01*
X182024507Y-115475910D01*
X181408894Y-115666474D01*
X181354726Y-115689244D01*
X181300347Y-115711214D01*
X181292367Y-115715457D01*
X181292362Y-115715459D01*
X181292361Y-115715460D01*
X180725483Y-116021969D01*
X180676765Y-116054830D01*
X180627694Y-116086941D01*
X180620691Y-116092652D01*
X180620685Y-116092656D01*
X180620680Y-116092661D01*
X180124138Y-116503436D01*
X180082735Y-116545128D01*
X180040830Y-116586165D01*
X180035070Y-116593127D01*
X180035065Y-116593132D01*
X180035061Y-116593137D01*
X179627762Y-117092536D01*
X179595256Y-117141461D01*
X179562110Y-117189869D01*
X179557813Y-117197816D01*
X179557808Y-117197824D01*
X179557805Y-117197832D01*
X179255264Y-117766830D01*
X179232911Y-117821063D01*
X179209767Y-117875061D01*
X179207093Y-117883700D01*
X179020830Y-118500632D01*
X179009425Y-118558232D01*
X178997222Y-118615640D01*
X178996277Y-118624633D01*
X178933391Y-119265996D01*
X178933391Y-119266010D01*
X178930300Y-119297392D01*
X178930301Y-124142500D01*
X125869700Y-124142500D01*
X125869700Y-119297391D01*
X125866810Y-119268052D01*
X125866954Y-119247444D01*
X125866072Y-119238444D01*
X125798709Y-118597537D01*
X125786901Y-118540014D01*
X125775905Y-118482368D01*
X125773291Y-118473711D01*
X125629728Y-118009933D01*
X130683000Y-118009933D01*
X130683000Y-118210067D01*
X130722044Y-118406356D01*
X130798632Y-118591256D01*
X130901361Y-118745000D01*
X130798632Y-118898744D01*
X130722044Y-119083644D01*
X130683000Y-119279933D01*
X130683000Y-119480067D01*
X130722044Y-119676356D01*
X130798632Y-119861256D01*
X130909821Y-120027662D01*
X131051338Y-120169179D01*
X131217744Y-120280368D01*
X131402644Y-120356956D01*
X131598933Y-120396000D01*
X131799067Y-120396000D01*
X131995356Y-120356956D01*
X132180256Y-120280368D01*
X132346662Y-120169179D01*
X132488179Y-120027662D01*
X132599368Y-119861256D01*
X132675956Y-119676356D01*
X132715000Y-119480067D01*
X132715000Y-119279933D01*
X132675956Y-119083644D01*
X132599368Y-118898744D01*
X132496639Y-118745000D01*
X132599368Y-118591256D01*
X132675956Y-118406356D01*
X132715000Y-118210067D01*
X132715000Y-118009933D01*
X136652000Y-118009933D01*
X136652000Y-118210067D01*
X136691044Y-118406356D01*
X136767632Y-118591256D01*
X136878821Y-118757662D01*
X136929659Y-118808500D01*
X136878821Y-118859338D01*
X136767632Y-119025744D01*
X136691044Y-119210644D01*
X136652000Y-119406933D01*
X136652000Y-119607067D01*
X136691044Y-119803356D01*
X136767632Y-119988256D01*
X136878821Y-120154662D01*
X136929659Y-120205500D01*
X136878821Y-120256338D01*
X136767632Y-120422744D01*
X136691044Y-120607644D01*
X136652000Y-120803933D01*
X136652000Y-121004067D01*
X136691044Y-121200356D01*
X136767632Y-121385256D01*
X136878821Y-121551662D01*
X137020338Y-121693179D01*
X137186744Y-121804368D01*
X137371644Y-121880956D01*
X137567933Y-121920000D01*
X137768067Y-121920000D01*
X137964356Y-121880956D01*
X138149256Y-121804368D01*
X138315662Y-121693179D01*
X138430000Y-121578841D01*
X138544338Y-121693179D01*
X138710744Y-121804368D01*
X138895644Y-121880956D01*
X139091933Y-121920000D01*
X139292067Y-121920000D01*
X139488356Y-121880956D01*
X139673256Y-121804368D01*
X139839662Y-121693179D01*
X139981179Y-121551662D01*
X140092368Y-121385256D01*
X140168956Y-121200356D01*
X140208000Y-121004067D01*
X140208000Y-120803933D01*
X140168956Y-120607644D01*
X140120819Y-120491429D01*
X158410000Y-120491429D01*
X158410000Y-120808571D01*
X158471871Y-121119620D01*
X158593237Y-121412621D01*
X158769431Y-121676315D01*
X158993685Y-121900569D01*
X159257379Y-122076763D01*
X159550380Y-122198129D01*
X159861429Y-122260000D01*
X160178571Y-122260000D01*
X160489620Y-122198129D01*
X160782621Y-122076763D01*
X161046315Y-121900569D01*
X161270569Y-121676315D01*
X161446763Y-121412621D01*
X161568129Y-121119620D01*
X161630000Y-120808571D01*
X161630000Y-120491429D01*
X163410000Y-120491429D01*
X163410000Y-120808571D01*
X163471871Y-121119620D01*
X163593237Y-121412621D01*
X163769431Y-121676315D01*
X163993685Y-121900569D01*
X164257379Y-122076763D01*
X164550380Y-122198129D01*
X164861429Y-122260000D01*
X165178571Y-122260000D01*
X165489620Y-122198129D01*
X165782621Y-122076763D01*
X166046315Y-121900569D01*
X166179300Y-121767584D01*
X169082021Y-121767584D01*
X169174766Y-122029429D01*
X169460120Y-122167820D01*
X169766990Y-122247883D01*
X170083584Y-122266540D01*
X170397733Y-122223074D01*
X170697367Y-122119156D01*
X170865234Y-122029429D01*
X170957979Y-121767584D01*
X170020000Y-120829605D01*
X169082021Y-121767584D01*
X166179300Y-121767584D01*
X166270569Y-121676315D01*
X166446763Y-121412621D01*
X166568129Y-121119620D01*
X166630000Y-120808571D01*
X166630000Y-120713584D01*
X168403460Y-120713584D01*
X168446926Y-121027733D01*
X168550844Y-121327367D01*
X168640571Y-121495234D01*
X168902416Y-121587979D01*
X169840395Y-120650000D01*
X170199605Y-120650000D01*
X171137584Y-121587979D01*
X171399429Y-121495234D01*
X171537820Y-121209880D01*
X171617883Y-120903010D01*
X171636540Y-120586416D01*
X171593074Y-120272267D01*
X171489156Y-119972633D01*
X171399429Y-119804766D01*
X171137584Y-119712021D01*
X170199605Y-120650000D01*
X169840395Y-120650000D01*
X168902416Y-119712021D01*
X168640571Y-119804766D01*
X168502180Y-120090120D01*
X168422117Y-120396990D01*
X168403460Y-120713584D01*
X166630000Y-120713584D01*
X166630000Y-120491429D01*
X166568129Y-120180380D01*
X166446763Y-119887379D01*
X166270569Y-119623685D01*
X166179300Y-119532416D01*
X169082021Y-119532416D01*
X170020000Y-120470395D01*
X170957979Y-119532416D01*
X170865234Y-119270571D01*
X170579880Y-119132180D01*
X170273010Y-119052117D01*
X169956416Y-119033460D01*
X169642267Y-119076926D01*
X169342633Y-119180844D01*
X169174766Y-119270571D01*
X169082021Y-119532416D01*
X166179300Y-119532416D01*
X166046315Y-119399431D01*
X165782621Y-119223237D01*
X165489620Y-119101871D01*
X165178571Y-119040000D01*
X164861429Y-119040000D01*
X164550380Y-119101871D01*
X164257379Y-119223237D01*
X163993685Y-119399431D01*
X163769431Y-119623685D01*
X163593237Y-119887379D01*
X163471871Y-120180380D01*
X163410000Y-120491429D01*
X161630000Y-120491429D01*
X161568129Y-120180380D01*
X161446763Y-119887379D01*
X161270569Y-119623685D01*
X161046315Y-119399431D01*
X160782621Y-119223237D01*
X160489620Y-119101871D01*
X160178571Y-119040000D01*
X159861429Y-119040000D01*
X159550380Y-119101871D01*
X159257379Y-119223237D01*
X158993685Y-119399431D01*
X158769431Y-119623685D01*
X158593237Y-119887379D01*
X158471871Y-120180380D01*
X158410000Y-120491429D01*
X140120819Y-120491429D01*
X140092368Y-120422744D01*
X139981179Y-120256338D01*
X139930341Y-120205500D01*
X139981179Y-120154662D01*
X140092368Y-119988256D01*
X140168956Y-119803356D01*
X140208000Y-119607067D01*
X140208000Y-119406933D01*
X140168956Y-119210644D01*
X140092368Y-119025744D01*
X139981179Y-118859338D01*
X139930341Y-118808500D01*
X139981179Y-118757662D01*
X140092368Y-118591256D01*
X140168956Y-118406356D01*
X140208000Y-118210067D01*
X140208000Y-118009933D01*
X140168956Y-117813644D01*
X140092368Y-117628744D01*
X139981179Y-117462338D01*
X139839662Y-117320821D01*
X139673256Y-117209632D01*
X139488356Y-117133044D01*
X139292067Y-117094000D01*
X139091933Y-117094000D01*
X138895644Y-117133044D01*
X138710744Y-117209632D01*
X138544338Y-117320821D01*
X138430000Y-117435159D01*
X138315662Y-117320821D01*
X138149256Y-117209632D01*
X137964356Y-117133044D01*
X137768067Y-117094000D01*
X137567933Y-117094000D01*
X137371644Y-117133044D01*
X137186744Y-117209632D01*
X137020338Y-117320821D01*
X136878821Y-117462338D01*
X136767632Y-117628744D01*
X136691044Y-117813644D01*
X136652000Y-118009933D01*
X132715000Y-118009933D01*
X132675956Y-117813644D01*
X132599368Y-117628744D01*
X132488179Y-117462338D01*
X132346662Y-117320821D01*
X132180256Y-117209632D01*
X131995356Y-117133044D01*
X131799067Y-117094000D01*
X131598933Y-117094000D01*
X131402644Y-117133044D01*
X131217744Y-117209632D01*
X131051338Y-117320821D01*
X130909821Y-117462338D01*
X130798632Y-117628744D01*
X130722044Y-117813644D01*
X130683000Y-118009933D01*
X125629728Y-118009933D01*
X125582726Y-117858094D01*
X125559956Y-117803926D01*
X125537986Y-117749547D01*
X125533741Y-117741563D01*
X125533741Y-117741562D01*
X125533738Y-117741558D01*
X125227231Y-117174683D01*
X125194370Y-117125965D01*
X125162259Y-117076894D01*
X125156548Y-117069891D01*
X125156544Y-117069885D01*
X125156539Y-117069880D01*
X124745764Y-116573338D01*
X124704072Y-116531935D01*
X124663035Y-116490030D01*
X124656073Y-116484270D01*
X124656068Y-116484265D01*
X124656063Y-116484261D01*
X124156664Y-116076962D01*
X124107739Y-116044456D01*
X124059331Y-116011310D01*
X124051384Y-116007013D01*
X124051376Y-116007008D01*
X124051368Y-116007005D01*
X123482370Y-115704464D01*
X123428137Y-115682111D01*
X123374139Y-115658967D01*
X123365500Y-115656293D01*
X122748568Y-115470030D01*
X122690968Y-115458625D01*
X122633560Y-115446422D01*
X122624567Y-115445477D01*
X121983204Y-115382591D01*
X121983191Y-115382591D01*
X121951809Y-115379500D01*
X117106700Y-115379500D01*
X117106700Y-112742608D01*
X124168100Y-112742608D01*
X124168100Y-113520592D01*
X124319877Y-114283627D01*
X124617598Y-115002390D01*
X125049823Y-115649260D01*
X125599940Y-116199377D01*
X126246810Y-116631602D01*
X126965573Y-116929323D01*
X127728608Y-117081100D01*
X128506592Y-117081100D01*
X129269627Y-116929323D01*
X129726855Y-116739933D01*
X132461000Y-116739933D01*
X132461000Y-116940067D01*
X132500044Y-117136356D01*
X132576632Y-117321256D01*
X132687821Y-117487662D01*
X132829338Y-117629179D01*
X132995744Y-117740368D01*
X133180644Y-117816956D01*
X133376933Y-117856000D01*
X133577067Y-117856000D01*
X133773356Y-117816956D01*
X133958256Y-117740368D01*
X134124662Y-117629179D01*
X134266179Y-117487662D01*
X134377368Y-117321256D01*
X134453956Y-117136356D01*
X134493000Y-116940067D01*
X134493000Y-116739933D01*
X134453956Y-116543644D01*
X134377368Y-116358744D01*
X134266179Y-116192338D01*
X134124662Y-116050821D01*
X133958256Y-115939632D01*
X133773356Y-115863044D01*
X133577067Y-115824000D01*
X133376933Y-115824000D01*
X133180644Y-115863044D01*
X132995744Y-115939632D01*
X132829338Y-116050821D01*
X132687821Y-116192338D01*
X132576632Y-116358744D01*
X132500044Y-116543644D01*
X132461000Y-116739933D01*
X129726855Y-116739933D01*
X129988390Y-116631602D01*
X130635260Y-116199377D01*
X131185377Y-115649260D01*
X131617602Y-115002390D01*
X131915323Y-114283627D01*
X132067100Y-113520592D01*
X132067100Y-112742608D01*
X172732900Y-112742608D01*
X172732900Y-113520592D01*
X172884677Y-114283627D01*
X173182398Y-115002390D01*
X173614623Y-115649260D01*
X174164740Y-116199377D01*
X174811610Y-116631602D01*
X175530373Y-116929323D01*
X176293408Y-117081100D01*
X177071392Y-117081100D01*
X177834427Y-116929323D01*
X178553190Y-116631602D01*
X179200060Y-116199377D01*
X179750177Y-115649260D01*
X180182402Y-115002390D01*
X180480123Y-114283627D01*
X180631900Y-113520592D01*
X180631900Y-112742608D01*
X180480123Y-111979573D01*
X180182402Y-111260810D01*
X179750177Y-110613940D01*
X179200060Y-110063823D01*
X178553190Y-109631598D01*
X177834427Y-109333877D01*
X177071392Y-109182100D01*
X176293408Y-109182100D01*
X175530373Y-109333877D01*
X174811610Y-109631598D01*
X174164740Y-110063823D01*
X173614623Y-110613940D01*
X173182398Y-111260810D01*
X172884677Y-111979573D01*
X172732900Y-112742608D01*
X132067100Y-112742608D01*
X131915323Y-111979573D01*
X131617602Y-111260810D01*
X131185377Y-110613940D01*
X130635260Y-110063823D01*
X129988390Y-109631598D01*
X129269627Y-109333877D01*
X128506592Y-109182100D01*
X127728608Y-109182100D01*
X126965573Y-109333877D01*
X126246810Y-109631598D01*
X125599940Y-110063823D01*
X125049823Y-110613940D01*
X124617598Y-111260810D01*
X124319877Y-111979573D01*
X124168100Y-112742608D01*
X117106700Y-112742608D01*
X117106700Y-110045600D01*
X118195928Y-110045600D01*
X118195928Y-111645600D01*
X118208188Y-111770082D01*
X118244498Y-111889780D01*
X118303463Y-112000094D01*
X118382815Y-112096785D01*
X118479506Y-112176137D01*
X118589820Y-112235102D01*
X118709518Y-112271412D01*
X118834000Y-112283672D01*
X120434000Y-112283672D01*
X120558482Y-112271412D01*
X120678180Y-112235102D01*
X120788494Y-112176137D01*
X120885185Y-112096785D01*
X120964537Y-112000094D01*
X121023502Y-111889780D01*
X121039117Y-111838302D01*
X121320903Y-111838302D01*
X121392486Y-112082271D01*
X121647996Y-112203171D01*
X121922184Y-112271900D01*
X122204512Y-112285817D01*
X122484130Y-112244387D01*
X122750292Y-112149203D01*
X122875514Y-112082271D01*
X122947097Y-111838302D01*
X122134000Y-111025205D01*
X121320903Y-111838302D01*
X121039117Y-111838302D01*
X121059812Y-111770082D01*
X121072072Y-111645600D01*
X121072072Y-111638385D01*
X121141298Y-111658697D01*
X121954395Y-110845600D01*
X122313605Y-110845600D01*
X123126702Y-111658697D01*
X123370671Y-111587114D01*
X123491571Y-111331604D01*
X123560300Y-111057416D01*
X123574217Y-110775088D01*
X123532787Y-110495470D01*
X123437603Y-110229308D01*
X123370671Y-110104086D01*
X123126702Y-110032503D01*
X122313605Y-110845600D01*
X121954395Y-110845600D01*
X121141298Y-110032503D01*
X121072072Y-110052815D01*
X121072072Y-110045600D01*
X121059812Y-109921118D01*
X121039118Y-109852898D01*
X121320903Y-109852898D01*
X122134000Y-110665995D01*
X122947097Y-109852898D01*
X122875514Y-109608929D01*
X122620004Y-109488029D01*
X122345816Y-109419300D01*
X122063488Y-109405383D01*
X121783870Y-109446813D01*
X121517708Y-109541997D01*
X121392486Y-109608929D01*
X121320903Y-109852898D01*
X121039118Y-109852898D01*
X121023502Y-109801420D01*
X120964537Y-109691106D01*
X120885185Y-109594415D01*
X120788494Y-109515063D01*
X120678180Y-109456098D01*
X120558482Y-109419788D01*
X120434000Y-109407528D01*
X118834000Y-109407528D01*
X118709518Y-109419788D01*
X118589820Y-109456098D01*
X118479506Y-109515063D01*
X118382815Y-109594415D01*
X118303463Y-109691106D01*
X118244498Y-109801420D01*
X118208188Y-109921118D01*
X118195928Y-110045600D01*
X117106700Y-110045600D01*
X117106700Y-108484933D01*
X143256000Y-108484933D01*
X143256000Y-108685067D01*
X143295044Y-108881356D01*
X143371632Y-109066256D01*
X143482821Y-109232662D01*
X143624338Y-109374179D01*
X143790744Y-109485368D01*
X143975644Y-109561956D01*
X144171933Y-109601000D01*
X144372067Y-109601000D01*
X144568356Y-109561956D01*
X144753256Y-109485368D01*
X144907000Y-109382639D01*
X145060744Y-109485368D01*
X145245644Y-109561956D01*
X145441933Y-109601000D01*
X145642067Y-109601000D01*
X145838356Y-109561956D01*
X146023256Y-109485368D01*
X146177000Y-109382639D01*
X146330744Y-109485368D01*
X146515644Y-109561956D01*
X146711933Y-109601000D01*
X146912067Y-109601000D01*
X147108356Y-109561956D01*
X147293256Y-109485368D01*
X147447000Y-109382639D01*
X147600744Y-109485368D01*
X147785644Y-109561956D01*
X147981933Y-109601000D01*
X148182067Y-109601000D01*
X148378356Y-109561956D01*
X148563256Y-109485368D01*
X148717000Y-109382639D01*
X148870744Y-109485368D01*
X149055644Y-109561956D01*
X149251933Y-109601000D01*
X149452067Y-109601000D01*
X149648356Y-109561956D01*
X149833256Y-109485368D01*
X149987000Y-109382639D01*
X150140744Y-109485368D01*
X150325644Y-109561956D01*
X150521933Y-109601000D01*
X150722067Y-109601000D01*
X150918356Y-109561956D01*
X151103256Y-109485368D01*
X151269662Y-109374179D01*
X151411179Y-109232662D01*
X151522368Y-109066256D01*
X151598956Y-108881356D01*
X151638000Y-108685067D01*
X151638000Y-108484933D01*
X151598956Y-108288644D01*
X151522368Y-108103744D01*
X151411179Y-107937338D01*
X151269662Y-107795821D01*
X151103256Y-107684632D01*
X150918356Y-107608044D01*
X150722067Y-107569000D01*
X150521933Y-107569000D01*
X150325644Y-107608044D01*
X150140744Y-107684632D01*
X149987000Y-107787361D01*
X149833256Y-107684632D01*
X149648356Y-107608044D01*
X149452067Y-107569000D01*
X149251933Y-107569000D01*
X149055644Y-107608044D01*
X148870744Y-107684632D01*
X148717000Y-107787361D01*
X148563256Y-107684632D01*
X148378356Y-107608044D01*
X148182067Y-107569000D01*
X147981933Y-107569000D01*
X147785644Y-107608044D01*
X147600744Y-107684632D01*
X147447000Y-107787361D01*
X147293256Y-107684632D01*
X147108356Y-107608044D01*
X146912067Y-107569000D01*
X146711933Y-107569000D01*
X146515644Y-107608044D01*
X146330744Y-107684632D01*
X146177000Y-107787361D01*
X146023256Y-107684632D01*
X145838356Y-107608044D01*
X145642067Y-107569000D01*
X145441933Y-107569000D01*
X145245644Y-107608044D01*
X145060744Y-107684632D01*
X144907000Y-107787361D01*
X144753256Y-107684632D01*
X144568356Y-107608044D01*
X144372067Y-107569000D01*
X144171933Y-107569000D01*
X143975644Y-107608044D01*
X143790744Y-107684632D01*
X143624338Y-107795821D01*
X143482821Y-107937338D01*
X143371632Y-108103744D01*
X143295044Y-108288644D01*
X143256000Y-108484933D01*
X117106700Y-108484933D01*
X117106700Y-103240000D01*
X119365928Y-103240000D01*
X119365928Y-105040000D01*
X119378188Y-105164482D01*
X119414498Y-105284180D01*
X119473463Y-105394494D01*
X119552815Y-105491185D01*
X119649506Y-105570537D01*
X119759820Y-105629502D01*
X119879518Y-105665812D01*
X120004000Y-105678072D01*
X121804000Y-105678072D01*
X121928482Y-105665812D01*
X122048180Y-105629502D01*
X122158494Y-105570537D01*
X122255185Y-105491185D01*
X122334537Y-105394494D01*
X122393502Y-105284180D01*
X122429812Y-105164482D01*
X122442072Y-105040000D01*
X122442072Y-103240000D01*
X122429812Y-103115518D01*
X122393502Y-102995820D01*
X122334537Y-102885506D01*
X122255185Y-102788815D01*
X122175891Y-102723740D01*
X155995000Y-102723740D01*
X155995000Y-103016260D01*
X156052068Y-103303158D01*
X156164010Y-103573411D01*
X156326525Y-103816632D01*
X156533368Y-104023475D01*
X156707760Y-104140000D01*
X156533368Y-104256525D01*
X156326525Y-104463368D01*
X156164010Y-104706589D01*
X156052068Y-104976842D01*
X155995000Y-105263740D01*
X155995000Y-105556260D01*
X156052068Y-105843158D01*
X156164010Y-106113411D01*
X156326525Y-106356632D01*
X156533368Y-106563475D01*
X156707760Y-106680000D01*
X156533368Y-106796525D01*
X156326525Y-107003368D01*
X156164010Y-107246589D01*
X156052068Y-107516842D01*
X155995000Y-107803740D01*
X155995000Y-108096260D01*
X156052068Y-108383158D01*
X156164010Y-108653411D01*
X156326525Y-108896632D01*
X156533368Y-109103475D01*
X156776589Y-109265990D01*
X157046842Y-109377932D01*
X157333740Y-109435000D01*
X157626260Y-109435000D01*
X157913158Y-109377932D01*
X158183411Y-109265990D01*
X158426632Y-109103475D01*
X158633475Y-108896632D01*
X158795990Y-108653411D01*
X158907932Y-108383158D01*
X158965000Y-108096260D01*
X158965000Y-107803740D01*
X158907932Y-107516842D01*
X158795990Y-107246589D01*
X158633475Y-107003368D01*
X158426632Y-106796525D01*
X158252240Y-106680000D01*
X158426632Y-106563475D01*
X158633475Y-106356632D01*
X158795990Y-106113411D01*
X158907932Y-105843158D01*
X158965000Y-105556260D01*
X158965000Y-105263740D01*
X158907932Y-104976842D01*
X158795990Y-104706589D01*
X158650656Y-104489080D01*
X182630525Y-104489080D01*
X182714208Y-104743261D01*
X182986775Y-104874158D01*
X183279642Y-104949365D01*
X183581553Y-104965991D01*
X183880907Y-104923397D01*
X184166199Y-104823222D01*
X184315792Y-104743261D01*
X184399475Y-104489080D01*
X183515000Y-103604605D01*
X182630525Y-104489080D01*
X158650656Y-104489080D01*
X158633475Y-104463368D01*
X158426632Y-104256525D01*
X158252240Y-104140000D01*
X158426632Y-104023475D01*
X158633475Y-103816632D01*
X158795990Y-103573411D01*
X158829896Y-103491553D01*
X181974009Y-103491553D01*
X182016603Y-103790907D01*
X182116778Y-104076199D01*
X182196739Y-104225792D01*
X182450920Y-104309475D01*
X183335395Y-103425000D01*
X183694605Y-103425000D01*
X184579080Y-104309475D01*
X184833261Y-104225792D01*
X184964158Y-103953225D01*
X185039365Y-103660358D01*
X185055991Y-103358447D01*
X185013397Y-103059093D01*
X184913222Y-102773801D01*
X184833261Y-102624208D01*
X184579080Y-102540525D01*
X183694605Y-103425000D01*
X183335395Y-103425000D01*
X182450920Y-102540525D01*
X182196739Y-102624208D01*
X182065842Y-102896775D01*
X181990635Y-103189642D01*
X181974009Y-103491553D01*
X158829896Y-103491553D01*
X158907932Y-103303158D01*
X158965000Y-103016260D01*
X158965000Y-102723740D01*
X158907932Y-102436842D01*
X158795990Y-102166589D01*
X158633475Y-101923368D01*
X158464040Y-101753933D01*
X171704000Y-101753933D01*
X171704000Y-101954067D01*
X171743044Y-102150356D01*
X171819632Y-102335256D01*
X171930821Y-102501662D01*
X172072338Y-102643179D01*
X172238744Y-102754368D01*
X172423644Y-102830956D01*
X172619933Y-102870000D01*
X172820067Y-102870000D01*
X173016356Y-102830956D01*
X173201256Y-102754368D01*
X173367662Y-102643179D01*
X173509179Y-102501662D01*
X173603219Y-102360920D01*
X182630525Y-102360920D01*
X183515000Y-103245395D01*
X184399475Y-102360920D01*
X184315792Y-102106739D01*
X184043225Y-101975842D01*
X183750358Y-101900635D01*
X183448447Y-101884009D01*
X183149093Y-101926603D01*
X182863801Y-102026778D01*
X182714208Y-102106739D01*
X182630525Y-102360920D01*
X173603219Y-102360920D01*
X173620368Y-102335256D01*
X173696956Y-102150356D01*
X173736000Y-101954067D01*
X173736000Y-101753933D01*
X173696956Y-101557644D01*
X173620368Y-101372744D01*
X173509179Y-101206338D01*
X173367662Y-101064821D01*
X173201256Y-100953632D01*
X173016356Y-100877044D01*
X172820067Y-100838000D01*
X172619933Y-100838000D01*
X172423644Y-100877044D01*
X172238744Y-100953632D01*
X172072338Y-101064821D01*
X171930821Y-101206338D01*
X171819632Y-101372744D01*
X171743044Y-101557644D01*
X171704000Y-101753933D01*
X158464040Y-101753933D01*
X158426632Y-101716525D01*
X158244466Y-101594805D01*
X158361355Y-101525178D01*
X158577588Y-101330269D01*
X158751641Y-101096920D01*
X158876825Y-100834099D01*
X158921476Y-100686890D01*
X158800155Y-100457000D01*
X157607000Y-100457000D01*
X157607000Y-100477000D01*
X157353000Y-100477000D01*
X157353000Y-100457000D01*
X156159845Y-100457000D01*
X156038524Y-100686890D01*
X156083175Y-100834099D01*
X156208359Y-101096920D01*
X156382412Y-101330269D01*
X156598645Y-101525178D01*
X156715534Y-101594805D01*
X156533368Y-101716525D01*
X156326525Y-101923368D01*
X156164010Y-102166589D01*
X156052068Y-102436842D01*
X155995000Y-102723740D01*
X122175891Y-102723740D01*
X122158494Y-102709463D01*
X122048180Y-102650498D01*
X121928482Y-102614188D01*
X121804000Y-102601928D01*
X120004000Y-102601928D01*
X119879518Y-102614188D01*
X119759820Y-102650498D01*
X119649506Y-102709463D01*
X119552815Y-102788815D01*
X119473463Y-102885506D01*
X119414498Y-102995820D01*
X119378188Y-103115518D01*
X119365928Y-103240000D01*
X117106700Y-103240000D01*
X117106700Y-100204080D01*
X120019525Y-100204080D01*
X120103208Y-100458261D01*
X120375775Y-100589158D01*
X120668642Y-100664365D01*
X120970553Y-100680991D01*
X121269907Y-100638397D01*
X121555199Y-100538222D01*
X121704792Y-100458261D01*
X121788475Y-100204080D01*
X120904000Y-99319605D01*
X120019525Y-100204080D01*
X117106700Y-100204080D01*
X117106700Y-99206553D01*
X119363009Y-99206553D01*
X119405603Y-99505907D01*
X119505778Y-99791199D01*
X119585739Y-99940792D01*
X119839920Y-100024475D01*
X120724395Y-99140000D01*
X121083605Y-99140000D01*
X121968080Y-100024475D01*
X122115522Y-99975933D01*
X140335000Y-99975933D01*
X140335000Y-100176067D01*
X140374044Y-100372356D01*
X140450632Y-100557256D01*
X140561821Y-100723662D01*
X140703338Y-100865179D01*
X140869744Y-100976368D01*
X141054644Y-101052956D01*
X141250933Y-101092000D01*
X141451067Y-101092000D01*
X141647356Y-101052956D01*
X141832256Y-100976368D01*
X141998662Y-100865179D01*
X142140179Y-100723662D01*
X142251368Y-100557256D01*
X142327956Y-100372356D01*
X142367000Y-100176067D01*
X142367000Y-99975933D01*
X142327956Y-99779644D01*
X142251368Y-99594744D01*
X142140179Y-99428338D01*
X141998662Y-99286821D01*
X141832256Y-99175632D01*
X141647356Y-99099044D01*
X141451067Y-99060000D01*
X141250933Y-99060000D01*
X141054644Y-99099044D01*
X140869744Y-99175632D01*
X140703338Y-99286821D01*
X140561821Y-99428338D01*
X140450632Y-99594744D01*
X140374044Y-99779644D01*
X140335000Y-99975933D01*
X122115522Y-99975933D01*
X122222261Y-99940792D01*
X122353158Y-99668225D01*
X122428365Y-99375358D01*
X122444991Y-99073447D01*
X122402397Y-98774093D01*
X122302222Y-98488801D01*
X122222261Y-98339208D01*
X121968080Y-98255525D01*
X121083605Y-99140000D01*
X120724395Y-99140000D01*
X119839920Y-98255525D01*
X119585739Y-98339208D01*
X119454842Y-98611775D01*
X119379635Y-98904642D01*
X119363009Y-99206553D01*
X117106700Y-99206553D01*
X117106700Y-98075920D01*
X120019525Y-98075920D01*
X120904000Y-98960395D01*
X121788475Y-98075920D01*
X121704792Y-97821739D01*
X121432225Y-97690842D01*
X121139358Y-97615635D01*
X120837447Y-97599009D01*
X120538093Y-97641603D01*
X120252801Y-97741778D01*
X120103208Y-97821739D01*
X120019525Y-98075920D01*
X117106700Y-98075920D01*
X117106700Y-95764933D01*
X130830000Y-95764933D01*
X130830000Y-95965067D01*
X130869044Y-96161356D01*
X130945632Y-96346256D01*
X131056821Y-96512662D01*
X131198338Y-96654179D01*
X131364744Y-96765368D01*
X131549644Y-96841956D01*
X131745933Y-96881000D01*
X131946067Y-96881000D01*
X132142356Y-96841956D01*
X132327256Y-96765368D01*
X132493662Y-96654179D01*
X132635179Y-96512662D01*
X132746368Y-96346256D01*
X132822956Y-96161356D01*
X132862000Y-95965067D01*
X132862000Y-95764933D01*
X132822956Y-95568644D01*
X132746368Y-95383744D01*
X132635179Y-95217338D01*
X132493662Y-95075821D01*
X132327256Y-94964632D01*
X132142356Y-94888044D01*
X131946067Y-94849000D01*
X131745933Y-94849000D01*
X131549644Y-94888044D01*
X131364744Y-94964632D01*
X131198338Y-95075821D01*
X131056821Y-95217338D01*
X130945632Y-95383744D01*
X130869044Y-95568644D01*
X130830000Y-95764933D01*
X117106700Y-95764933D01*
X117106700Y-94400000D01*
X155991928Y-94400000D01*
X155991928Y-96100000D01*
X156004188Y-96224482D01*
X156040498Y-96344180D01*
X156099463Y-96454494D01*
X156178815Y-96551185D01*
X156275506Y-96630537D01*
X156385820Y-96689502D01*
X156458380Y-96711513D01*
X156326525Y-96843368D01*
X156164010Y-97086589D01*
X156052068Y-97356842D01*
X155995000Y-97643740D01*
X155995000Y-97936260D01*
X156052068Y-98223158D01*
X156164010Y-98493411D01*
X156326525Y-98736632D01*
X156533368Y-98943475D01*
X156715534Y-99065195D01*
X156598645Y-99134822D01*
X156382412Y-99329731D01*
X156208359Y-99563080D01*
X156083175Y-99825901D01*
X156038524Y-99973110D01*
X156159845Y-100203000D01*
X157353000Y-100203000D01*
X157353000Y-100183000D01*
X157607000Y-100183000D01*
X157607000Y-100203000D01*
X158800155Y-100203000D01*
X158921476Y-99973110D01*
X158876825Y-99825901D01*
X158751641Y-99563080D01*
X158577588Y-99329731D01*
X158361355Y-99134822D01*
X158244466Y-99065195D01*
X158426632Y-98943475D01*
X158633475Y-98736632D01*
X158795990Y-98493411D01*
X158907932Y-98223158D01*
X158965000Y-97936260D01*
X158965000Y-97643740D01*
X158941381Y-97525000D01*
X181976928Y-97525000D01*
X181976928Y-99325000D01*
X181989188Y-99449482D01*
X182025498Y-99569180D01*
X182084463Y-99679494D01*
X182163815Y-99776185D01*
X182260506Y-99855537D01*
X182370820Y-99914502D01*
X182490518Y-99950812D01*
X182615000Y-99963072D01*
X184415000Y-99963072D01*
X184539482Y-99950812D01*
X184659180Y-99914502D01*
X184769494Y-99855537D01*
X184866185Y-99776185D01*
X184945537Y-99679494D01*
X185004502Y-99569180D01*
X185040812Y-99449482D01*
X185053072Y-99325000D01*
X185053072Y-97525000D01*
X185040812Y-97400518D01*
X185004502Y-97280820D01*
X184945537Y-97170506D01*
X184866185Y-97073815D01*
X184769494Y-96994463D01*
X184659180Y-96935498D01*
X184539482Y-96899188D01*
X184415000Y-96886928D01*
X182615000Y-96886928D01*
X182490518Y-96899188D01*
X182370820Y-96935498D01*
X182260506Y-96994463D01*
X182163815Y-97073815D01*
X182084463Y-97170506D01*
X182025498Y-97280820D01*
X181989188Y-97400518D01*
X181976928Y-97525000D01*
X158941381Y-97525000D01*
X158907932Y-97356842D01*
X158795990Y-97086589D01*
X158633475Y-96843368D01*
X158501620Y-96711513D01*
X158574180Y-96689502D01*
X158684494Y-96630537D01*
X158781185Y-96551185D01*
X158860537Y-96454494D01*
X158919502Y-96344180D01*
X158955812Y-96224482D01*
X158968072Y-96100000D01*
X158968072Y-94400000D01*
X158955812Y-94275518D01*
X158919502Y-94155820D01*
X158860537Y-94045506D01*
X158781185Y-93948815D01*
X158684494Y-93869463D01*
X158574180Y-93810498D01*
X158454482Y-93774188D01*
X158330000Y-93761928D01*
X156630000Y-93761928D01*
X156505518Y-93774188D01*
X156385820Y-93810498D01*
X156275506Y-93869463D01*
X156178815Y-93948815D01*
X156099463Y-94045506D01*
X156040498Y-94155820D01*
X156004188Y-94275518D01*
X155991928Y-94400000D01*
X117106700Y-94400000D01*
X117106700Y-91249600D01*
X117931128Y-91249600D01*
X117931128Y-92849600D01*
X117943388Y-92974082D01*
X117979698Y-93093780D01*
X118038663Y-93204094D01*
X118118015Y-93300785D01*
X118214706Y-93380137D01*
X118325020Y-93439102D01*
X118444718Y-93475412D01*
X118569200Y-93487672D01*
X120169200Y-93487672D01*
X120293682Y-93475412D01*
X120413380Y-93439102D01*
X120523694Y-93380137D01*
X120620385Y-93300785D01*
X120699737Y-93204094D01*
X120758702Y-93093780D01*
X120774317Y-93042302D01*
X121056103Y-93042302D01*
X121127686Y-93286271D01*
X121383196Y-93407171D01*
X121657384Y-93475900D01*
X121939712Y-93489817D01*
X122219330Y-93448387D01*
X122485492Y-93353203D01*
X122610714Y-93286271D01*
X122682297Y-93042302D01*
X121869200Y-92229205D01*
X121056103Y-93042302D01*
X120774317Y-93042302D01*
X120795012Y-92974082D01*
X120807272Y-92849600D01*
X120807272Y-92842385D01*
X120876498Y-92862697D01*
X121689595Y-92049600D01*
X122048805Y-92049600D01*
X122861902Y-92862697D01*
X123105871Y-92791114D01*
X123226771Y-92535604D01*
X123295500Y-92261416D01*
X123309417Y-91979088D01*
X123267987Y-91699470D01*
X123172803Y-91433308D01*
X123105871Y-91308086D01*
X122861902Y-91236503D01*
X122048805Y-92049600D01*
X121689595Y-92049600D01*
X120876498Y-91236503D01*
X120807272Y-91256815D01*
X120807272Y-91249600D01*
X120795012Y-91125118D01*
X120774318Y-91056898D01*
X121056103Y-91056898D01*
X121869200Y-91869995D01*
X122682297Y-91056898D01*
X122610714Y-90812929D01*
X122355204Y-90692029D01*
X122081016Y-90623300D01*
X121798688Y-90609383D01*
X121519070Y-90650813D01*
X121252908Y-90745997D01*
X121127686Y-90812929D01*
X121056103Y-91056898D01*
X120774318Y-91056898D01*
X120758702Y-91005420D01*
X120699737Y-90895106D01*
X120620385Y-90798415D01*
X120523694Y-90719063D01*
X120413380Y-90660098D01*
X120293682Y-90623788D01*
X120169200Y-90611528D01*
X118569200Y-90611528D01*
X118444718Y-90623788D01*
X118325020Y-90660098D01*
X118214706Y-90719063D01*
X118118015Y-90798415D01*
X118038663Y-90895106D01*
X117979698Y-91005420D01*
X117943388Y-91125118D01*
X117931128Y-91249600D01*
X117106700Y-91249600D01*
X117106700Y-89679408D01*
X124168100Y-89679408D01*
X124168100Y-90457392D01*
X124319877Y-91220427D01*
X124617598Y-91939190D01*
X125049823Y-92586060D01*
X125599940Y-93136177D01*
X126246810Y-93568402D01*
X126965573Y-93866123D01*
X127728608Y-94017900D01*
X128506592Y-94017900D01*
X129269627Y-93866123D01*
X129988390Y-93568402D01*
X130635260Y-93136177D01*
X131006504Y-92764933D01*
X135100000Y-92764933D01*
X135100000Y-92965067D01*
X135139044Y-93161356D01*
X135215632Y-93346256D01*
X135326821Y-93512662D01*
X135468338Y-93654179D01*
X135634744Y-93765368D01*
X135819644Y-93841956D01*
X136015933Y-93881000D01*
X136216067Y-93881000D01*
X136412356Y-93841956D01*
X136597256Y-93765368D01*
X136763662Y-93654179D01*
X136905179Y-93512662D01*
X137016368Y-93346256D01*
X137092956Y-93161356D01*
X137132000Y-92965067D01*
X137132000Y-92764933D01*
X137092956Y-92568644D01*
X137016368Y-92383744D01*
X136905179Y-92217338D01*
X136763662Y-92075821D01*
X136597256Y-91964632D01*
X136412356Y-91888044D01*
X136216067Y-91849000D01*
X136015933Y-91849000D01*
X135819644Y-91888044D01*
X135634744Y-91964632D01*
X135468338Y-92075821D01*
X135326821Y-92217338D01*
X135215632Y-92383744D01*
X135139044Y-92568644D01*
X135100000Y-92764933D01*
X131006504Y-92764933D01*
X131185377Y-92586060D01*
X131617602Y-91939190D01*
X131915323Y-91220427D01*
X132067100Y-90457392D01*
X132067100Y-89764933D01*
X148514000Y-89764933D01*
X148514000Y-89965067D01*
X148553044Y-90161356D01*
X148629632Y-90346256D01*
X148740821Y-90512662D01*
X148882338Y-90654179D01*
X149048744Y-90765368D01*
X149233644Y-90841956D01*
X149429933Y-90881000D01*
X149630067Y-90881000D01*
X149826356Y-90841956D01*
X150011256Y-90765368D01*
X150177662Y-90654179D01*
X150319179Y-90512662D01*
X150430368Y-90346256D01*
X150506956Y-90161356D01*
X150546000Y-89965067D01*
X150546000Y-89764933D01*
X150528989Y-89679408D01*
X172732900Y-89679408D01*
X172732900Y-90457392D01*
X172884677Y-91220427D01*
X173182398Y-91939190D01*
X173614623Y-92586060D01*
X174164740Y-93136177D01*
X174811610Y-93568402D01*
X175530373Y-93866123D01*
X176293408Y-94017900D01*
X177071392Y-94017900D01*
X177834427Y-93866123D01*
X178553190Y-93568402D01*
X179200060Y-93136177D01*
X179750177Y-92586060D01*
X180182402Y-91939190D01*
X180480123Y-91220427D01*
X180631900Y-90457392D01*
X180631900Y-89679408D01*
X180480123Y-88916373D01*
X180182402Y-88197610D01*
X179750177Y-87550740D01*
X179200060Y-87000623D01*
X178553190Y-86568398D01*
X177834427Y-86270677D01*
X177071392Y-86118900D01*
X176293408Y-86118900D01*
X175530373Y-86270677D01*
X174811610Y-86568398D01*
X174164740Y-87000623D01*
X173614623Y-87550740D01*
X173182398Y-88197610D01*
X172884677Y-88916373D01*
X172732900Y-89679408D01*
X150528989Y-89679408D01*
X150506956Y-89568644D01*
X150430368Y-89383744D01*
X150319179Y-89217338D01*
X150177662Y-89075821D01*
X150011256Y-88964632D01*
X149826356Y-88888044D01*
X149630067Y-88849000D01*
X149429933Y-88849000D01*
X149233644Y-88888044D01*
X149048744Y-88964632D01*
X148882338Y-89075821D01*
X148740821Y-89217338D01*
X148629632Y-89383744D01*
X148553044Y-89568644D01*
X148514000Y-89764933D01*
X132067100Y-89764933D01*
X132067100Y-89679408D01*
X131915323Y-88916373D01*
X131617602Y-88197610D01*
X131185377Y-87550740D01*
X130635260Y-87000623D01*
X130282526Y-86764933D01*
X148466000Y-86764933D01*
X148466000Y-86965067D01*
X148505044Y-87161356D01*
X148581632Y-87346256D01*
X148692821Y-87512662D01*
X148834338Y-87654179D01*
X149000744Y-87765368D01*
X149185644Y-87841956D01*
X149381933Y-87881000D01*
X149582067Y-87881000D01*
X149778356Y-87841956D01*
X149963256Y-87765368D01*
X150129662Y-87654179D01*
X150271179Y-87512662D01*
X150382368Y-87346256D01*
X150441151Y-87204340D01*
X155537800Y-87204340D01*
X155537800Y-87496860D01*
X155594868Y-87783758D01*
X155706810Y-88054011D01*
X155869325Y-88297232D01*
X156076168Y-88504075D01*
X156319389Y-88666590D01*
X156589642Y-88778532D01*
X156876540Y-88835600D01*
X157169060Y-88835600D01*
X157455958Y-88778532D01*
X157726211Y-88666590D01*
X157969432Y-88504075D01*
X158176275Y-88297232D01*
X158292800Y-88122840D01*
X158409325Y-88297232D01*
X158616168Y-88504075D01*
X158859389Y-88666590D01*
X159129642Y-88778532D01*
X159416540Y-88835600D01*
X159709060Y-88835600D01*
X159995958Y-88778532D01*
X160266211Y-88666590D01*
X160509432Y-88504075D01*
X160716275Y-88297232D01*
X160832800Y-88122840D01*
X160949325Y-88297232D01*
X161156168Y-88504075D01*
X161399389Y-88666590D01*
X161669642Y-88778532D01*
X161956540Y-88835600D01*
X162249060Y-88835600D01*
X162535958Y-88778532D01*
X162806211Y-88666590D01*
X163049432Y-88504075D01*
X163256275Y-88297232D01*
X163372800Y-88122840D01*
X163489325Y-88297232D01*
X163696168Y-88504075D01*
X163939389Y-88666590D01*
X164209642Y-88778532D01*
X164496540Y-88835600D01*
X164789060Y-88835600D01*
X165075958Y-88778532D01*
X165346211Y-88666590D01*
X165589432Y-88504075D01*
X165796275Y-88297232D01*
X165917995Y-88115066D01*
X165987622Y-88231955D01*
X166182531Y-88448188D01*
X166415880Y-88622241D01*
X166678701Y-88747425D01*
X166825910Y-88792076D01*
X167055800Y-88670755D01*
X167055800Y-87477600D01*
X167035800Y-87477600D01*
X167035800Y-87223600D01*
X167055800Y-87223600D01*
X167055800Y-86030445D01*
X167309800Y-86030445D01*
X167309800Y-87223600D01*
X167329800Y-87223600D01*
X167329800Y-87477600D01*
X167309800Y-87477600D01*
X167309800Y-88670755D01*
X167539690Y-88792076D01*
X167686899Y-88747425D01*
X167949720Y-88622241D01*
X168183069Y-88448188D01*
X168258834Y-88364134D01*
X168283298Y-88444780D01*
X168342263Y-88555094D01*
X168421615Y-88651785D01*
X168518306Y-88731137D01*
X168628620Y-88790102D01*
X168748318Y-88826412D01*
X168872800Y-88838672D01*
X170572800Y-88838672D01*
X170697282Y-88826412D01*
X170816980Y-88790102D01*
X170927294Y-88731137D01*
X171023985Y-88651785D01*
X171103337Y-88555094D01*
X171162302Y-88444780D01*
X171198612Y-88325082D01*
X171210872Y-88200600D01*
X171210872Y-86500600D01*
X171198612Y-86376118D01*
X171162302Y-86256420D01*
X171103337Y-86146106D01*
X171023985Y-86049415D01*
X170927294Y-85970063D01*
X170816980Y-85911098D01*
X170697282Y-85874788D01*
X170572800Y-85862528D01*
X168872800Y-85862528D01*
X168748318Y-85874788D01*
X168628620Y-85911098D01*
X168518306Y-85970063D01*
X168421615Y-86049415D01*
X168342263Y-86146106D01*
X168283298Y-86256420D01*
X168258834Y-86337066D01*
X168183069Y-86253012D01*
X167949720Y-86078959D01*
X167686899Y-85953775D01*
X167539690Y-85909124D01*
X167309800Y-86030445D01*
X167055800Y-86030445D01*
X166825910Y-85909124D01*
X166678701Y-85953775D01*
X166415880Y-86078959D01*
X166182531Y-86253012D01*
X165987622Y-86469245D01*
X165917995Y-86586134D01*
X165796275Y-86403968D01*
X165589432Y-86197125D01*
X165346211Y-86034610D01*
X165075958Y-85922668D01*
X164789060Y-85865600D01*
X164496540Y-85865600D01*
X164209642Y-85922668D01*
X163939389Y-86034610D01*
X163696168Y-86197125D01*
X163489325Y-86403968D01*
X163372800Y-86578360D01*
X163256275Y-86403968D01*
X163049432Y-86197125D01*
X162806211Y-86034610D01*
X162535958Y-85922668D01*
X162249060Y-85865600D01*
X161956540Y-85865600D01*
X161669642Y-85922668D01*
X161399389Y-86034610D01*
X161156168Y-86197125D01*
X160949325Y-86403968D01*
X160832800Y-86578360D01*
X160716275Y-86403968D01*
X160509432Y-86197125D01*
X160266211Y-86034610D01*
X159995958Y-85922668D01*
X159709060Y-85865600D01*
X159416540Y-85865600D01*
X159129642Y-85922668D01*
X158859389Y-86034610D01*
X158616168Y-86197125D01*
X158409325Y-86403968D01*
X158292800Y-86578360D01*
X158176275Y-86403968D01*
X157969432Y-86197125D01*
X157726211Y-86034610D01*
X157455958Y-85922668D01*
X157169060Y-85865600D01*
X156876540Y-85865600D01*
X156589642Y-85922668D01*
X156319389Y-86034610D01*
X156076168Y-86197125D01*
X155869325Y-86403968D01*
X155706810Y-86647189D01*
X155594868Y-86917442D01*
X155537800Y-87204340D01*
X150441151Y-87204340D01*
X150458956Y-87161356D01*
X150498000Y-86965067D01*
X150498000Y-86764933D01*
X150458956Y-86568644D01*
X150382368Y-86383744D01*
X150271179Y-86217338D01*
X150129662Y-86075821D01*
X149963256Y-85964632D01*
X149778356Y-85888044D01*
X149582067Y-85849000D01*
X149381933Y-85849000D01*
X149185644Y-85888044D01*
X149000744Y-85964632D01*
X148834338Y-86075821D01*
X148692821Y-86217338D01*
X148581632Y-86383744D01*
X148505044Y-86568644D01*
X148466000Y-86764933D01*
X130282526Y-86764933D01*
X129988390Y-86568398D01*
X129269627Y-86270677D01*
X128506592Y-86118900D01*
X127728608Y-86118900D01*
X126965573Y-86270677D01*
X126246810Y-86568398D01*
X125599940Y-87000623D01*
X125049823Y-87550740D01*
X124617598Y-88197610D01*
X124319877Y-88916373D01*
X124168100Y-89679408D01*
X117106700Y-89679408D01*
X117106700Y-87820500D01*
X121951809Y-87820500D01*
X121981148Y-87817610D01*
X122001756Y-87817754D01*
X122010756Y-87816872D01*
X122651663Y-87749509D01*
X122709186Y-87737701D01*
X122766832Y-87726705D01*
X122775487Y-87724092D01*
X122775493Y-87724090D01*
X123391106Y-87533526D01*
X123445262Y-87510761D01*
X123499653Y-87488786D01*
X123507638Y-87484541D01*
X124074517Y-87178030D01*
X124123208Y-87145188D01*
X124172306Y-87113059D01*
X124179309Y-87107348D01*
X124179315Y-87107344D01*
X124179320Y-87107339D01*
X124675863Y-86696563D01*
X124717248Y-86654888D01*
X124759170Y-86613835D01*
X124764935Y-86606867D01*
X125172238Y-86107464D01*
X125204756Y-86058521D01*
X125237890Y-86010130D01*
X125242184Y-86002188D01*
X125242192Y-86002176D01*
X125242197Y-86002163D01*
X125544736Y-85433170D01*
X125567089Y-85378937D01*
X125590233Y-85324939D01*
X125592907Y-85316300D01*
X125779170Y-84699368D01*
X125790576Y-84641761D01*
X125802778Y-84584360D01*
X125803723Y-84575366D01*
X125808093Y-84530800D01*
X131087288Y-84530800D01*
X131051338Y-84554821D01*
G37*
%TD.AperFunction*%
%TD*%
M02*
