%TF.GenerationSoftware,KiCad,Pcbnew,(5.1.8-0-10_14)*%
%TF.CreationDate,2021-08-05T18:18:29-06:00*%
%TF.ProjectId,ESP8266_Water_Sensor,45535038-3236-4365-9f57-617465725f53,rev?*%
%TF.SameCoordinates,Original*%
%TF.FileFunction,Copper,L1,Top*%
%TF.FilePolarity,Positive*%
%FSLAX46Y46*%
G04 Gerber Fmt 4.6, Leading zero omitted, Abs format (unit mm)*
G04 Created by KiCad (PCBNEW (5.1.8-0-10_14)) date 2021-08-05 18:18:29*
%MOMM*%
%LPD*%
G01*
G04 APERTURE LIST*
%TA.AperFunction,SMDPad,CuDef*%
%ADD10R,1.500000X0.900000*%
%TD*%
%TA.AperFunction,SMDPad,CuDef*%
%ADD11R,4.000000X4.000000*%
%TD*%
%TA.AperFunction,ComponentPad*%
%ADD12R,1.700000X1.700000*%
%TD*%
%TA.AperFunction,ComponentPad*%
%ADD13O,1.700000X1.700000*%
%TD*%
%TA.AperFunction,ComponentPad*%
%ADD14C,1.800000*%
%TD*%
%TA.AperFunction,ComponentPad*%
%ADD15R,1.800000X1.800000*%
%TD*%
%TA.AperFunction,SMDPad,CuDef*%
%ADD16C,0.100000*%
%TD*%
%TA.AperFunction,SMDPad,CuDef*%
%ADD17R,5.700000X1.600000*%
%TD*%
%TA.AperFunction,SMDPad,CuDef*%
%ADD18R,2.100000X1.400000*%
%TD*%
%TA.AperFunction,SMDPad,CuDef*%
%ADD19R,1.500000X0.650000*%
%TD*%
%TA.AperFunction,ComponentPad*%
%ADD20C,1.950000*%
%TD*%
%TA.AperFunction,ComponentPad*%
%ADD21C,1.600000*%
%TD*%
%TA.AperFunction,ComponentPad*%
%ADD22R,1.600000X1.600000*%
%TD*%
%TA.AperFunction,ViaPad*%
%ADD23C,0.762000*%
%TD*%
%TA.AperFunction,Conductor*%
%ADD24C,0.762000*%
%TD*%
%TA.AperFunction,Conductor*%
%ADD25C,1.270000*%
%TD*%
%TA.AperFunction,Conductor*%
%ADD26C,0.254000*%
%TD*%
%TA.AperFunction,Conductor*%
%ADD27C,0.508000*%
%TD*%
%TA.AperFunction,Conductor*%
%ADD28C,0.100000*%
%TD*%
G04 APERTURE END LIST*
D10*
%TO.P,U1,1*%
%TO.N,+3V3*%
X134125000Y-85365000D03*
%TO.P,U1,2*%
%TO.N,/ESP_EN*%
X134125000Y-86865000D03*
%TO.P,U1,3*%
%TO.N,/I2C_SCL*%
X134125000Y-88365000D03*
%TO.P,U1,4*%
%TO.N,/GPIO12*%
X134125000Y-89865000D03*
%TO.P,U1,5*%
%TO.N,/GPIO13*%
X134125000Y-91365000D03*
%TO.P,U1,6*%
%TO.N,/GPIO15*%
X134125000Y-92865000D03*
%TO.P,U1,7*%
%TO.N,/I2C_SDA*%
X134125000Y-94365000D03*
%TO.P,U1,8*%
%TO.N,/GPIO0*%
X134125000Y-95865000D03*
%TO.P,U1,9*%
%TO.N,GND*%
X134125000Y-97365000D03*
%TO.P,U1,10*%
%TO.N,/GPIO4*%
X151625000Y-97365000D03*
%TO.P,U1,11*%
%TO.N,/ESP_RXD*%
X151625000Y-95865000D03*
%TO.P,U1,12*%
%TO.N,/ESP_TXD*%
X151625000Y-94365000D03*
%TO.P,U1,13*%
%TO.N,GND*%
X151625000Y-92865000D03*
%TO.P,U1,14*%
%TO.N,/GPIO5*%
X151625000Y-91365000D03*
%TO.P,U1,15*%
%TO.N,/ESP_RST_L*%
X151625000Y-89865000D03*
%TO.P,U1,16*%
%TO.N,/water_voltage*%
X151625000Y-88365000D03*
%TO.P,U1,17*%
%TO.N,/GPIO16*%
X151625000Y-86865000D03*
%TO.P,U1,18*%
%TO.N,GND*%
X151625000Y-85365000D03*
D11*
%TO.P,U1,19*%
X143975000Y-91975000D03*
%TD*%
%TO.P,C2,2*%
%TO.N,GND*%
%TA.AperFunction,SMDPad,CuDef*%
G36*
G01*
X151925000Y-113077500D02*
X152875000Y-113077500D01*
G75*
G02*
X153125000Y-113327500I0J-250000D01*
G01*
X153125000Y-114002500D01*
G75*
G02*
X152875000Y-114252500I-250000J0D01*
G01*
X151925000Y-114252500D01*
G75*
G02*
X151675000Y-114002500I0J250000D01*
G01*
X151675000Y-113327500D01*
G75*
G02*
X151925000Y-113077500I250000J0D01*
G01*
G37*
%TD.AperFunction*%
%TO.P,C2,1*%
%TO.N,+3V3*%
%TA.AperFunction,SMDPad,CuDef*%
G36*
G01*
X151925000Y-111002500D02*
X152875000Y-111002500D01*
G75*
G02*
X153125000Y-111252500I0J-250000D01*
G01*
X153125000Y-111927500D01*
G75*
G02*
X152875000Y-112177500I-250000J0D01*
G01*
X151925000Y-112177500D01*
G75*
G02*
X151675000Y-111927500I0J250000D01*
G01*
X151675000Y-111252500D01*
G75*
G02*
X151925000Y-111002500I250000J0D01*
G01*
G37*
%TD.AperFunction*%
%TD*%
%TO.P,C3,1*%
%TO.N,/U2_BST*%
%TA.AperFunction,SMDPad,CuDef*%
G36*
G01*
X145128000Y-121902800D02*
X144178000Y-121902800D01*
G75*
G02*
X143928000Y-121652800I0J250000D01*
G01*
X143928000Y-120977800D01*
G75*
G02*
X144178000Y-120727800I250000J0D01*
G01*
X145128000Y-120727800D01*
G75*
G02*
X145378000Y-120977800I0J-250000D01*
G01*
X145378000Y-121652800D01*
G75*
G02*
X145128000Y-121902800I-250000J0D01*
G01*
G37*
%TD.AperFunction*%
%TO.P,C3,2*%
%TO.N,/U2_SW*%
%TA.AperFunction,SMDPad,CuDef*%
G36*
G01*
X145128000Y-119827800D02*
X144178000Y-119827800D01*
G75*
G02*
X143928000Y-119577800I0J250000D01*
G01*
X143928000Y-118902800D01*
G75*
G02*
X144178000Y-118652800I250000J0D01*
G01*
X145128000Y-118652800D01*
G75*
G02*
X145378000Y-118902800I0J-250000D01*
G01*
X145378000Y-119577800D01*
G75*
G02*
X145128000Y-119827800I-250000J0D01*
G01*
G37*
%TD.AperFunction*%
%TD*%
%TO.P,C12,2*%
%TO.N,GND*%
%TA.AperFunction,SMDPad,CuDef*%
G36*
G01*
X174785000Y-99510000D02*
X175735000Y-99510000D01*
G75*
G02*
X175985000Y-99760000I0J-250000D01*
G01*
X175985000Y-100435000D01*
G75*
G02*
X175735000Y-100685000I-250000J0D01*
G01*
X174785000Y-100685000D01*
G75*
G02*
X174535000Y-100435000I0J250000D01*
G01*
X174535000Y-99760000D01*
G75*
G02*
X174785000Y-99510000I250000J0D01*
G01*
G37*
%TD.AperFunction*%
%TO.P,C12,1*%
%TO.N,/water_voltage*%
%TA.AperFunction,SMDPad,CuDef*%
G36*
G01*
X174785000Y-97435000D02*
X175735000Y-97435000D01*
G75*
G02*
X175985000Y-97685000I0J-250000D01*
G01*
X175985000Y-98360000D01*
G75*
G02*
X175735000Y-98610000I-250000J0D01*
G01*
X174785000Y-98610000D01*
G75*
G02*
X174535000Y-98360000I0J250000D01*
G01*
X174535000Y-97685000D01*
G75*
G02*
X174785000Y-97435000I250000J0D01*
G01*
G37*
%TD.AperFunction*%
%TD*%
D12*
%TO.P,J1,1*%
%TO.N,+3V3*%
X157480000Y-95250000D03*
D13*
%TO.P,J1,2*%
%TO.N,Net-(J1-Pad2)*%
X157480000Y-97790000D03*
%TO.P,J1,3*%
%TO.N,GND*%
X157480000Y-100330000D03*
%TO.P,J1,4*%
%TO.N,/I2C_SCL*%
X157480000Y-102870000D03*
%TO.P,J1,5*%
%TO.N,/I2C_SDA*%
X157480000Y-105410000D03*
%TO.P,J1,6*%
%TO.N,/MPU_INT*%
X157480000Y-107950000D03*
%TD*%
D14*
%TO.P,J2,2*%
%TO.N,GND*%
X120904000Y-99140000D03*
D15*
%TO.P,J2,1*%
%TO.N,+12V*%
X120904000Y-104140000D03*
%TD*%
%TO.P,J4,1*%
%TO.N,/water_voltage*%
X183515000Y-98425000D03*
D14*
%TO.P,J4,2*%
%TO.N,GND*%
X183515000Y-103425000D03*
%TD*%
D13*
%TO.P,J5,6*%
%TO.N,/CTS_NC*%
X157022800Y-87350600D03*
%TO.P,J5,5*%
%TO.N,/RTS_NC*%
X159562800Y-87350600D03*
%TO.P,J5,4*%
%TO.N,/ESP_TXD*%
X162102800Y-87350600D03*
%TO.P,J5,3*%
%TO.N,/ESP_RXD*%
X164642800Y-87350600D03*
%TO.P,J5,2*%
%TO.N,GND*%
X167182800Y-87350600D03*
D12*
%TO.P,J5,1*%
%TO.N,+3V3*%
X169722800Y-87350600D03*
%TD*%
%TA.AperFunction,SMDPad,CuDef*%
D16*
%TO.P,JP1,2*%
%TO.N,Net-(J1-Pad2)*%
G36*
X161404398Y-97170000D02*
G01*
X161404398Y-97194534D01*
X161399588Y-97243365D01*
X161390016Y-97291490D01*
X161375772Y-97338445D01*
X161356995Y-97383778D01*
X161333864Y-97427051D01*
X161306604Y-97467850D01*
X161275476Y-97505779D01*
X161240779Y-97540476D01*
X161202850Y-97571604D01*
X161162051Y-97598864D01*
X161118778Y-97621995D01*
X161073445Y-97640772D01*
X161026490Y-97655016D01*
X160978365Y-97664588D01*
X160929534Y-97669398D01*
X160905000Y-97669398D01*
X160905000Y-97670000D01*
X160405000Y-97670000D01*
X160405000Y-97669398D01*
X160380466Y-97669398D01*
X160331635Y-97664588D01*
X160283510Y-97655016D01*
X160236555Y-97640772D01*
X160191222Y-97621995D01*
X160147949Y-97598864D01*
X160107150Y-97571604D01*
X160069221Y-97540476D01*
X160034524Y-97505779D01*
X160003396Y-97467850D01*
X159976136Y-97427051D01*
X159953005Y-97383778D01*
X159934228Y-97338445D01*
X159919984Y-97291490D01*
X159910412Y-97243365D01*
X159905602Y-97194534D01*
X159905602Y-97170000D01*
X159905000Y-97170000D01*
X159905000Y-96670000D01*
X161405000Y-96670000D01*
X161405000Y-97170000D01*
X161404398Y-97170000D01*
G37*
%TD.AperFunction*%
%TA.AperFunction,SMDPad,CuDef*%
%TO.P,JP1,1*%
%TO.N,+3V3*%
G36*
X159905000Y-96370000D02*
G01*
X159905000Y-95870000D01*
X159905602Y-95870000D01*
X159905602Y-95845466D01*
X159910412Y-95796635D01*
X159919984Y-95748510D01*
X159934228Y-95701555D01*
X159953005Y-95656222D01*
X159976136Y-95612949D01*
X160003396Y-95572150D01*
X160034524Y-95534221D01*
X160069221Y-95499524D01*
X160107150Y-95468396D01*
X160147949Y-95441136D01*
X160191222Y-95418005D01*
X160236555Y-95399228D01*
X160283510Y-95384984D01*
X160331635Y-95375412D01*
X160380466Y-95370602D01*
X160405000Y-95370602D01*
X160405000Y-95370000D01*
X160905000Y-95370000D01*
X160905000Y-95370602D01*
X160929534Y-95370602D01*
X160978365Y-95375412D01*
X161026490Y-95384984D01*
X161073445Y-95399228D01*
X161118778Y-95418005D01*
X161162051Y-95441136D01*
X161202850Y-95468396D01*
X161240779Y-95499524D01*
X161275476Y-95534221D01*
X161306604Y-95572150D01*
X161333864Y-95612949D01*
X161356995Y-95656222D01*
X161375772Y-95701555D01*
X161390016Y-95748510D01*
X161399588Y-95796635D01*
X161404398Y-95845466D01*
X161404398Y-95870000D01*
X161405000Y-95870000D01*
X161405000Y-96370000D01*
X159905000Y-96370000D01*
G37*
%TD.AperFunction*%
%TD*%
D17*
%TO.P,L1,1*%
%TO.N,+3V3*%
X147320000Y-111760000D03*
%TO.P,L1,2*%
%TO.N,/U2_SW*%
X147320000Y-116460000D03*
%TD*%
%TO.P,R1,2*%
%TO.N,/U2_FB*%
%TA.AperFunction,SMDPad,CuDef*%
G36*
G01*
X138030000Y-110039999D02*
X138030000Y-110940001D01*
G75*
G02*
X137780001Y-111190000I-249999J0D01*
G01*
X137079999Y-111190000D01*
G75*
G02*
X136830000Y-110940001I0J249999D01*
G01*
X136830000Y-110039999D01*
G75*
G02*
X137079999Y-109790000I249999J0D01*
G01*
X137780001Y-109790000D01*
G75*
G02*
X138030000Y-110039999I0J-249999D01*
G01*
G37*
%TD.AperFunction*%
%TO.P,R1,1*%
%TO.N,+3V3*%
%TA.AperFunction,SMDPad,CuDef*%
G36*
G01*
X140030000Y-110039999D02*
X140030000Y-110940001D01*
G75*
G02*
X139780001Y-111190000I-249999J0D01*
G01*
X139079999Y-111190000D01*
G75*
G02*
X138830000Y-110940001I0J249999D01*
G01*
X138830000Y-110039999D01*
G75*
G02*
X139079999Y-109790000I249999J0D01*
G01*
X139780001Y-109790000D01*
G75*
G02*
X140030000Y-110039999I0J-249999D01*
G01*
G37*
%TD.AperFunction*%
%TD*%
%TO.P,R2,2*%
%TO.N,GND*%
%TA.AperFunction,SMDPad,CuDef*%
G36*
G01*
X138830000Y-113480001D02*
X138830000Y-112579999D01*
G75*
G02*
X139079999Y-112330000I249999J0D01*
G01*
X139780001Y-112330000D01*
G75*
G02*
X140030000Y-112579999I0J-249999D01*
G01*
X140030000Y-113480001D01*
G75*
G02*
X139780001Y-113730000I-249999J0D01*
G01*
X139079999Y-113730000D01*
G75*
G02*
X138830000Y-113480001I0J249999D01*
G01*
G37*
%TD.AperFunction*%
%TO.P,R2,1*%
%TO.N,/U2_FB*%
%TA.AperFunction,SMDPad,CuDef*%
G36*
G01*
X136830000Y-113480001D02*
X136830000Y-112579999D01*
G75*
G02*
X137079999Y-112330000I249999J0D01*
G01*
X137780001Y-112330000D01*
G75*
G02*
X138030000Y-112579999I0J-249999D01*
G01*
X138030000Y-113480001D01*
G75*
G02*
X137780001Y-113730000I-249999J0D01*
G01*
X137079999Y-113730000D01*
G75*
G02*
X136830000Y-113480001I0J249999D01*
G01*
G37*
%TD.AperFunction*%
%TD*%
%TO.P,R11,1*%
%TO.N,+3V3*%
%TA.AperFunction,SMDPad,CuDef*%
G36*
G01*
X173170001Y-100660000D02*
X172269999Y-100660000D01*
G75*
G02*
X172020000Y-100410001I0J249999D01*
G01*
X172020000Y-99709999D01*
G75*
G02*
X172269999Y-99460000I249999J0D01*
G01*
X173170001Y-99460000D01*
G75*
G02*
X173420000Y-99709999I0J-249999D01*
G01*
X173420000Y-100410001D01*
G75*
G02*
X173170001Y-100660000I-249999J0D01*
G01*
G37*
%TD.AperFunction*%
%TO.P,R11,2*%
%TO.N,/water_voltage*%
%TA.AperFunction,SMDPad,CuDef*%
G36*
G01*
X173170001Y-98660000D02*
X172269999Y-98660000D01*
G75*
G02*
X172020000Y-98410001I0J249999D01*
G01*
X172020000Y-97709999D01*
G75*
G02*
X172269999Y-97460000I249999J0D01*
G01*
X173170001Y-97460000D01*
G75*
G02*
X173420000Y-97709999I0J-249999D01*
G01*
X173420000Y-98410001D01*
G75*
G02*
X173170001Y-98660000I-249999J0D01*
G01*
G37*
%TD.AperFunction*%
%TD*%
D18*
%TO.P,S1,4*%
%TO.N,GND*%
X136630000Y-106390000D03*
%TO.P,S1,3*%
X127530000Y-106390000D03*
%TO.P,S1,2*%
%TO.N,/GPIO0*%
X136630000Y-101890000D03*
%TO.P,S1,1*%
X127530000Y-101890000D03*
%TD*%
%TO.P,S2,1*%
%TO.N,/ESP_EN*%
X141957200Y-101890000D03*
%TO.P,S2,2*%
X151057200Y-101890000D03*
%TO.P,S2,3*%
%TO.N,GND*%
X141957200Y-106390000D03*
%TO.P,S2,4*%
X151057200Y-106390000D03*
%TD*%
D19*
%TO.P,U2,1*%
%TO.N,/U2_BST*%
X141130000Y-119380000D03*
%TO.P,U2,2*%
%TO.N,+12V*%
X141130000Y-118110000D03*
%TO.P,U2,3*%
%TO.N,/U2_SW*%
X141130000Y-116840000D03*
%TO.P,U2,4*%
%TO.N,GND*%
X141130000Y-115570000D03*
%TO.P,U2,5*%
%TO.N,/U2_FB*%
X135730000Y-115570000D03*
%TO.P,U2,6*%
%TO.N,/U2_COMP*%
X135730000Y-116840000D03*
%TO.P,U2,7*%
%TO.N,/U2_EN*%
X135730000Y-118110000D03*
%TO.P,U2,8*%
%TO.N,/U2_SS*%
X135730000Y-119380000D03*
%TD*%
D20*
%TO.P,J3,1*%
%TO.N,+12V*%
X160020000Y-120650000D03*
%TO.P,J3,2*%
%TO.N,/GPIO12*%
X165020000Y-120650000D03*
%TO.P,J3,3*%
%TO.N,GND*%
X170020000Y-120650000D03*
%TD*%
D21*
%TO.P,C14,2*%
%TO.N,GND*%
X121869200Y-92049600D03*
D22*
%TO.P,C14,1*%
%TO.N,+12V*%
X119369200Y-92049600D03*
%TD*%
%TO.P,C15,1*%
%TO.N,+12V*%
X119634000Y-110845600D03*
D21*
%TO.P,C15,2*%
%TO.N,GND*%
X122134000Y-110845600D03*
%TD*%
D23*
%TO.N,+3V3*%
X144272000Y-108585000D03*
X145542000Y-108585000D03*
X146812000Y-108585000D03*
X148082000Y-108585000D03*
X149352000Y-108585000D03*
X150622000Y-108585000D03*
X172720000Y-101854000D03*
X136377000Y-85365000D03*
X131699000Y-85344000D03*
X145574000Y-85249000D03*
%TO.N,GND*%
X131735000Y-106390000D03*
X146975000Y-106390000D03*
X175260000Y-101727000D03*
X153769000Y-92865000D03*
X149253000Y-92865000D03*
X153671938Y-85365000D03*
X149458000Y-85365000D03*
X136354000Y-97365000D03*
X134125000Y-99301000D03*
X154813000Y-113665000D03*
X152400000Y-115951000D03*
X141351000Y-113411000D03*
X138176000Y-114681000D03*
X138176000Y-116205000D03*
X129540000Y-118745000D03*
X127381000Y-121158000D03*
X141224000Y-85344000D03*
X141224000Y-86995000D03*
X141224000Y-88773000D03*
%TO.N,+12V*%
X139192000Y-118110000D03*
X137668000Y-119507000D03*
X139192000Y-119507000D03*
X137668000Y-120904000D03*
X137668000Y-118110000D03*
X139192000Y-120904000D03*
%TO.N,/ESP_EN*%
X141351000Y-100076000D03*
%TO.N,/ESP_RST_L*%
X149530000Y-89865000D03*
%TO.N,/GPIO0*%
X131846000Y-95865000D03*
%TO.N,/GPIO16*%
X149482000Y-86865000D03*
%TO.N,/GPIO15*%
X136116000Y-92865000D03*
%TO.N,/U2_SS*%
X131699000Y-119380000D03*
%TO.N,/U2_COMP*%
X133477000Y-116840000D03*
%TO.N,/U2_EN*%
X131699000Y-118110000D03*
%TD*%
D24*
%TO.N,+3V3*%
X172720000Y-100060000D02*
X172720000Y-101854000D01*
X172720000Y-101854000D02*
X172720000Y-101854000D01*
D25*
X160378010Y-95250000D02*
X160655000Y-95526990D01*
X157480000Y-95250000D02*
X160378010Y-95250000D01*
D24*
X134125000Y-85365000D02*
X136377000Y-85365000D01*
X133710000Y-85365000D02*
X133689000Y-85344000D01*
X134125000Y-85365000D02*
X133710000Y-85365000D01*
X133689000Y-85344000D02*
X131699000Y-85344000D01*
X136377000Y-85365000D02*
X136377000Y-85365000D01*
X131699000Y-85344000D02*
X131699000Y-85344000D01*
%TO.N,GND*%
X127530000Y-106390000D02*
X131735000Y-106390000D01*
X141957200Y-106390000D02*
X146975000Y-106390000D01*
X131735000Y-106390000D02*
X136630000Y-106390000D01*
X146975000Y-106390000D02*
X151057200Y-106390000D01*
X175260000Y-100097500D02*
X175260000Y-101727000D01*
X175260000Y-101727000D02*
X175260000Y-101727000D01*
X151625000Y-92865000D02*
X153769000Y-92865000D01*
X151625000Y-92865000D02*
X149253000Y-92865000D01*
X153769000Y-92865000D02*
X153769000Y-92865000D01*
X149253000Y-92865000D02*
X149253000Y-92865000D01*
X144865000Y-92865000D02*
X143975000Y-91975000D01*
X149253000Y-92865000D02*
X144865000Y-92865000D01*
X151625000Y-85365000D02*
X149458000Y-85365000D01*
X151625000Y-85365000D02*
X153671938Y-85365000D01*
X153671938Y-85365000D02*
X153671938Y-85365000D01*
X149458000Y-85365000D02*
X149458000Y-85365000D01*
X134125000Y-97365000D02*
X136354000Y-97365000D01*
X134125000Y-97365000D02*
X134125000Y-99301000D01*
X136354000Y-97365000D02*
X136354000Y-97365000D01*
X134125000Y-99301000D02*
X134125000Y-99301000D01*
X152400000Y-113665000D02*
X154813000Y-113665000D01*
X152400000Y-113665000D02*
X152400000Y-115951000D01*
X154813000Y-113665000D02*
X154813000Y-113665000D01*
X152400000Y-115951000D02*
X152400000Y-115951000D01*
D26*
%TO.N,/ESP_EN*%
X151057200Y-101890000D02*
X141957200Y-101890000D01*
X136395000Y-86865000D02*
X134125000Y-86865000D01*
X141339999Y-91809999D02*
X136395000Y-86865000D01*
X141339999Y-101272799D02*
X141339999Y-91809999D01*
X141957200Y-101890000D02*
X141339999Y-101272799D01*
X136395000Y-86865000D02*
X136395000Y-86865000D01*
%TO.N,/ESP_RST_L*%
X151625000Y-89865000D02*
X149530000Y-89865000D01*
X149530000Y-89865000D02*
X149530000Y-89865000D01*
%TO.N,/GPIO0*%
X127530000Y-101890000D02*
X136630000Y-101890000D01*
X131846000Y-95865000D02*
X131846000Y-95865000D01*
X127530000Y-100181000D02*
X131846000Y-95865000D01*
X127530000Y-101890000D02*
X127530000Y-100181000D01*
X131846000Y-95865000D02*
X134125000Y-95865000D01*
D24*
%TO.N,/water_voltage*%
X183112500Y-98022500D02*
X183515000Y-98425000D01*
X175260000Y-98022500D02*
X183112500Y-98022500D01*
X172757500Y-98022500D02*
X172720000Y-98060000D01*
X175260000Y-98022500D02*
X172757500Y-98022500D01*
X152468002Y-88365000D02*
X151625000Y-88365000D01*
X171016402Y-85344000D02*
X155489002Y-85344000D01*
X155489002Y-85344000D02*
X152468002Y-88365000D01*
X171831000Y-97171000D02*
X171831000Y-86158598D01*
X171831000Y-86158598D02*
X171016402Y-85344000D01*
X172720000Y-98060000D02*
X171831000Y-97171000D01*
D25*
%TO.N,Net-(J1-Pad2)*%
X160378010Y-97790000D02*
X160655000Y-97513010D01*
X157480000Y-97790000D02*
X160378010Y-97790000D01*
D26*
%TO.N,/I2C_SCL*%
X156630001Y-103719999D02*
X157480000Y-102870000D01*
X140526199Y-102894801D02*
X141351397Y-103719999D01*
X140526199Y-93663199D02*
X140526199Y-102894801D01*
X135228000Y-88365000D02*
X140526199Y-93663199D01*
X141351397Y-103719999D02*
X156630001Y-103719999D01*
X134125000Y-88365000D02*
X135228000Y-88365000D01*
%TO.N,/I2C_SDA*%
X157124999Y-105054999D02*
X157480000Y-105410000D01*
X139510181Y-103315651D02*
X141249529Y-105054999D01*
X141249529Y-105054999D02*
X157124999Y-105054999D01*
X139510181Y-98746181D02*
X139510181Y-103315651D01*
X135129000Y-94365000D02*
X139510181Y-98746181D01*
X134125000Y-94365000D02*
X135129000Y-94365000D01*
%TO.N,/ESP_TXD*%
X154803564Y-94365000D02*
X158109564Y-91059000D01*
X151625000Y-94365000D02*
X154803564Y-94365000D01*
X158394400Y-91059000D02*
X162102800Y-87350600D01*
X158109564Y-91059000D02*
X158394400Y-91059000D01*
%TO.N,/ESP_RXD*%
X154021998Y-95865000D02*
X157811998Y-92075000D01*
X151625000Y-95865000D02*
X154021998Y-95865000D01*
X159918400Y-92075000D02*
X164642800Y-87350600D01*
X157811998Y-92075000D02*
X159918400Y-92075000D01*
%TO.N,/GPIO16*%
X151625000Y-86865000D02*
X149482000Y-86865000D01*
X149482000Y-86865000D02*
X149482000Y-86865000D01*
%TO.N,/GPIO15*%
X134125000Y-92865000D02*
X136116000Y-92865000D01*
X136116000Y-92865000D02*
X136116000Y-92865000D01*
D27*
%TO.N,/U2_BST*%
X141130000Y-119380000D02*
X142113000Y-119380000D01*
X144048300Y-121315300D02*
X144653000Y-121315300D01*
X142113000Y-119380000D02*
X144048300Y-121315300D01*
D24*
%TO.N,/U2_SS*%
X135730000Y-119380000D02*
X131699000Y-119380000D01*
X131699000Y-119380000D02*
X131699000Y-119380000D01*
%TO.N,/U2_COMP*%
X135730000Y-116840000D02*
X133477000Y-116840000D01*
X133477000Y-116840000D02*
X133477000Y-116840000D01*
%TO.N,/U2_FB*%
X137430000Y-110490000D02*
X137430000Y-113030000D01*
X135730000Y-114730000D02*
X137430000Y-113030000D01*
X135730000Y-115570000D02*
X135730000Y-114730000D01*
D26*
%TO.N,/U2_EN*%
X135730000Y-118110000D02*
X131699000Y-118110000D01*
X131699000Y-118110000D02*
X131699000Y-118110000D01*
%TO.N,/GPIO12*%
X165020000Y-111128118D02*
X165020000Y-120650000D01*
X156928118Y-104140000D02*
X158031882Y-104140000D01*
X156674118Y-104394000D02*
X156928118Y-104140000D01*
X158031882Y-104140000D02*
X165020000Y-111128118D01*
X141306964Y-104394000D02*
X156674118Y-104394000D01*
X140018190Y-103105226D02*
X141306964Y-104394000D01*
X134125000Y-89865000D02*
X135129000Y-89865000D01*
X140018189Y-94754189D02*
X140018190Y-103105226D01*
X135129000Y-89865000D02*
X140018189Y-94754189D01*
%TD*%
%TO.N,+3V3*%
X153543000Y-109145606D02*
X153543000Y-110524081D01*
X153479494Y-110471963D01*
X153369180Y-110412998D01*
X153249482Y-110376688D01*
X153125000Y-110364428D01*
X152685750Y-110367500D01*
X152527000Y-110526250D01*
X152527000Y-111463000D01*
X152547000Y-111463000D01*
X152547000Y-111717000D01*
X152527000Y-111717000D01*
X152527000Y-111737000D01*
X152273000Y-111737000D01*
X152273000Y-111717000D01*
X151198750Y-111717000D01*
X151040000Y-111875750D01*
X151036928Y-112177500D01*
X151049188Y-112301982D01*
X151085498Y-112421680D01*
X151139121Y-112522000D01*
X150807845Y-112522000D01*
X150805000Y-112045750D01*
X150646250Y-111887000D01*
X147447000Y-111887000D01*
X147447000Y-111907000D01*
X147193000Y-111907000D01*
X147193000Y-111887000D01*
X143993750Y-111887000D01*
X143835000Y-112045750D01*
X143832155Y-112522000D01*
X142419606Y-112522000D01*
X141059803Y-111162197D01*
X141040557Y-111146403D01*
X141018601Y-111134667D01*
X140994776Y-111127440D01*
X140970000Y-111125000D01*
X140667590Y-111125000D01*
X140666367Y-110960000D01*
X143831928Y-110960000D01*
X143835000Y-111474250D01*
X143993750Y-111633000D01*
X147193000Y-111633000D01*
X147193000Y-110483750D01*
X147447000Y-110483750D01*
X147447000Y-111633000D01*
X150646250Y-111633000D01*
X150805000Y-111474250D01*
X150807818Y-111002500D01*
X151036928Y-111002500D01*
X151040000Y-111304250D01*
X151198750Y-111463000D01*
X152273000Y-111463000D01*
X152273000Y-110526250D01*
X152114250Y-110367500D01*
X151675000Y-110364428D01*
X151550518Y-110376688D01*
X151430820Y-110412998D01*
X151320506Y-110471963D01*
X151223815Y-110551315D01*
X151144463Y-110648006D01*
X151085498Y-110758320D01*
X151049188Y-110878018D01*
X151036928Y-111002500D01*
X150807818Y-111002500D01*
X150808072Y-110960000D01*
X150795812Y-110835518D01*
X150759502Y-110715820D01*
X150700537Y-110605506D01*
X150621185Y-110508815D01*
X150524494Y-110429463D01*
X150414180Y-110370498D01*
X150294482Y-110334188D01*
X150170000Y-110321928D01*
X147605750Y-110325000D01*
X147447000Y-110483750D01*
X147193000Y-110483750D01*
X147034250Y-110325000D01*
X144470000Y-110321928D01*
X144345518Y-110334188D01*
X144225820Y-110370498D01*
X144115506Y-110429463D01*
X144018815Y-110508815D01*
X143939463Y-110605506D01*
X143880498Y-110715820D01*
X143844188Y-110835518D01*
X143831928Y-110960000D01*
X140666367Y-110960000D01*
X140665000Y-110775750D01*
X140506250Y-110617000D01*
X139557000Y-110617000D01*
X139557000Y-110637000D01*
X139303000Y-110637000D01*
X139303000Y-110617000D01*
X139283000Y-110617000D01*
X139283000Y-110363000D01*
X139303000Y-110363000D01*
X139303000Y-109313750D01*
X139557000Y-109313750D01*
X139557000Y-110363000D01*
X140506250Y-110363000D01*
X140665000Y-110204250D01*
X140668072Y-109790000D01*
X140655812Y-109665518D01*
X140619502Y-109545820D01*
X140560537Y-109435506D01*
X140481185Y-109338815D01*
X140384494Y-109259463D01*
X140274180Y-109200498D01*
X140154482Y-109164188D01*
X140030000Y-109151928D01*
X139715750Y-109155000D01*
X139557000Y-109313750D01*
X139303000Y-109313750D01*
X139144250Y-109155000D01*
X138938000Y-109152984D01*
X138938000Y-108764606D01*
X139498606Y-108204000D01*
X152601394Y-108204000D01*
X153543000Y-109145606D01*
%TA.AperFunction,Conductor*%
D28*
G36*
X153543000Y-109145606D02*
G01*
X153543000Y-110524081D01*
X153479494Y-110471963D01*
X153369180Y-110412998D01*
X153249482Y-110376688D01*
X153125000Y-110364428D01*
X152685750Y-110367500D01*
X152527000Y-110526250D01*
X152527000Y-111463000D01*
X152547000Y-111463000D01*
X152547000Y-111717000D01*
X152527000Y-111717000D01*
X152527000Y-111737000D01*
X152273000Y-111737000D01*
X152273000Y-111717000D01*
X151198750Y-111717000D01*
X151040000Y-111875750D01*
X151036928Y-112177500D01*
X151049188Y-112301982D01*
X151085498Y-112421680D01*
X151139121Y-112522000D01*
X150807845Y-112522000D01*
X150805000Y-112045750D01*
X150646250Y-111887000D01*
X147447000Y-111887000D01*
X147447000Y-111907000D01*
X147193000Y-111907000D01*
X147193000Y-111887000D01*
X143993750Y-111887000D01*
X143835000Y-112045750D01*
X143832155Y-112522000D01*
X142419606Y-112522000D01*
X141059803Y-111162197D01*
X141040557Y-111146403D01*
X141018601Y-111134667D01*
X140994776Y-111127440D01*
X140970000Y-111125000D01*
X140667590Y-111125000D01*
X140666367Y-110960000D01*
X143831928Y-110960000D01*
X143835000Y-111474250D01*
X143993750Y-111633000D01*
X147193000Y-111633000D01*
X147193000Y-110483750D01*
X147447000Y-110483750D01*
X147447000Y-111633000D01*
X150646250Y-111633000D01*
X150805000Y-111474250D01*
X150807818Y-111002500D01*
X151036928Y-111002500D01*
X151040000Y-111304250D01*
X151198750Y-111463000D01*
X152273000Y-111463000D01*
X152273000Y-110526250D01*
X152114250Y-110367500D01*
X151675000Y-110364428D01*
X151550518Y-110376688D01*
X151430820Y-110412998D01*
X151320506Y-110471963D01*
X151223815Y-110551315D01*
X151144463Y-110648006D01*
X151085498Y-110758320D01*
X151049188Y-110878018D01*
X151036928Y-111002500D01*
X150807818Y-111002500D01*
X150808072Y-110960000D01*
X150795812Y-110835518D01*
X150759502Y-110715820D01*
X150700537Y-110605506D01*
X150621185Y-110508815D01*
X150524494Y-110429463D01*
X150414180Y-110370498D01*
X150294482Y-110334188D01*
X150170000Y-110321928D01*
X147605750Y-110325000D01*
X147447000Y-110483750D01*
X147193000Y-110483750D01*
X147034250Y-110325000D01*
X144470000Y-110321928D01*
X144345518Y-110334188D01*
X144225820Y-110370498D01*
X144115506Y-110429463D01*
X144018815Y-110508815D01*
X143939463Y-110605506D01*
X143880498Y-110715820D01*
X143844188Y-110835518D01*
X143831928Y-110960000D01*
X140666367Y-110960000D01*
X140665000Y-110775750D01*
X140506250Y-110617000D01*
X139557000Y-110617000D01*
X139557000Y-110637000D01*
X139303000Y-110637000D01*
X139303000Y-110617000D01*
X139283000Y-110617000D01*
X139283000Y-110363000D01*
X139303000Y-110363000D01*
X139303000Y-109313750D01*
X139557000Y-109313750D01*
X139557000Y-110363000D01*
X140506250Y-110363000D01*
X140665000Y-110204250D01*
X140668072Y-109790000D01*
X140655812Y-109665518D01*
X140619502Y-109545820D01*
X140560537Y-109435506D01*
X140481185Y-109338815D01*
X140384494Y-109259463D01*
X140274180Y-109200498D01*
X140154482Y-109164188D01*
X140030000Y-109151928D01*
X139715750Y-109155000D01*
X139557000Y-109313750D01*
X139303000Y-109313750D01*
X139144250Y-109155000D01*
X138938000Y-109152984D01*
X138938000Y-108764606D01*
X139498606Y-108204000D01*
X152601394Y-108204000D01*
X153543000Y-109145606D01*
G37*
%TD.AperFunction*%
%TD*%
D26*
%TO.N,/U2_SW*%
X150114000Y-118184394D02*
X148537394Y-119761000D01*
X143943606Y-119761000D01*
X142518072Y-118335466D01*
X142518072Y-117785000D01*
X142505812Y-117660518D01*
X142469502Y-117540820D01*
X142410537Y-117430506D01*
X142331185Y-117333815D01*
X142234494Y-117254463D01*
X142124180Y-117195498D01*
X142004482Y-117159188D01*
X141880000Y-117146928D01*
X140462000Y-117146928D01*
X140462000Y-116586000D01*
X142367000Y-116586000D01*
X142391776Y-116583560D01*
X142415601Y-116576333D01*
X142437557Y-116564597D01*
X142456803Y-116548803D01*
X143308606Y-115697000D01*
X150114000Y-115697000D01*
X150114000Y-118184394D01*
%TA.AperFunction,Conductor*%
D28*
G36*
X150114000Y-118184394D02*
G01*
X148537394Y-119761000D01*
X143943606Y-119761000D01*
X142518072Y-118335466D01*
X142518072Y-117785000D01*
X142505812Y-117660518D01*
X142469502Y-117540820D01*
X142410537Y-117430506D01*
X142331185Y-117333815D01*
X142234494Y-117254463D01*
X142124180Y-117195498D01*
X142004482Y-117159188D01*
X141880000Y-117146928D01*
X140462000Y-117146928D01*
X140462000Y-116586000D01*
X142367000Y-116586000D01*
X142391776Y-116583560D01*
X142415601Y-116576333D01*
X142437557Y-116564597D01*
X142456803Y-116548803D01*
X143308606Y-115697000D01*
X150114000Y-115697000D01*
X150114000Y-118184394D01*
G37*
%TD.AperFunction*%
%TD*%
D26*
%TO.N,+12V*%
X139807816Y-117508422D02*
X139790498Y-117540820D01*
X139754188Y-117660518D01*
X139741928Y-117785000D01*
X139745000Y-117824250D01*
X139903750Y-117983000D01*
X141003000Y-117983000D01*
X141003000Y-117963000D01*
X141257000Y-117963000D01*
X141257000Y-117983000D01*
X141277000Y-117983000D01*
X141277000Y-118237000D01*
X141257000Y-118237000D01*
X141257000Y-118257000D01*
X141003000Y-118257000D01*
X141003000Y-118237000D01*
X139903750Y-118237000D01*
X139745000Y-118395750D01*
X139741928Y-118435000D01*
X139754188Y-118559482D01*
X139790498Y-118679180D01*
X139825680Y-118745000D01*
X139790498Y-118810820D01*
X139754188Y-118930518D01*
X139741928Y-119055000D01*
X139741928Y-119705000D01*
X139754188Y-119829482D01*
X139790498Y-119949180D01*
X139827000Y-120017469D01*
X139827000Y-122629394D01*
X139139394Y-123317000D01*
X137720606Y-123317000D01*
X137033000Y-122629394D01*
X137033000Y-120017469D01*
X137069502Y-119949180D01*
X137105812Y-119829482D01*
X137118072Y-119705000D01*
X137118072Y-119055000D01*
X137105812Y-118930518D01*
X137069502Y-118810820D01*
X137034320Y-118745000D01*
X137069502Y-118679180D01*
X137105812Y-118559482D01*
X137118072Y-118435000D01*
X137118072Y-117785000D01*
X137110140Y-117704466D01*
X137593606Y-117221000D01*
X139520394Y-117221000D01*
X139807816Y-117508422D01*
%TA.AperFunction,Conductor*%
D28*
G36*
X139807816Y-117508422D02*
G01*
X139790498Y-117540820D01*
X139754188Y-117660518D01*
X139741928Y-117785000D01*
X139745000Y-117824250D01*
X139903750Y-117983000D01*
X141003000Y-117983000D01*
X141003000Y-117963000D01*
X141257000Y-117963000D01*
X141257000Y-117983000D01*
X141277000Y-117983000D01*
X141277000Y-118237000D01*
X141257000Y-118237000D01*
X141257000Y-118257000D01*
X141003000Y-118257000D01*
X141003000Y-118237000D01*
X139903750Y-118237000D01*
X139745000Y-118395750D01*
X139741928Y-118435000D01*
X139754188Y-118559482D01*
X139790498Y-118679180D01*
X139825680Y-118745000D01*
X139790498Y-118810820D01*
X139754188Y-118930518D01*
X139741928Y-119055000D01*
X139741928Y-119705000D01*
X139754188Y-119829482D01*
X139790498Y-119949180D01*
X139827000Y-120017469D01*
X139827000Y-122629394D01*
X139139394Y-123317000D01*
X137720606Y-123317000D01*
X137033000Y-122629394D01*
X137033000Y-120017469D01*
X137069502Y-119949180D01*
X137105812Y-119829482D01*
X137118072Y-119705000D01*
X137118072Y-119055000D01*
X137105812Y-118930518D01*
X137069502Y-118810820D01*
X137034320Y-118745000D01*
X137069502Y-118679180D01*
X137105812Y-118559482D01*
X137118072Y-118435000D01*
X137118072Y-117785000D01*
X137110140Y-117704466D01*
X137593606Y-117221000D01*
X139520394Y-117221000D01*
X139807816Y-117508422D01*
G37*
%TD.AperFunction*%
%TD*%
D26*
%TO.N,GND*%
X141605000Y-113336606D02*
X141605000Y-114608748D01*
X141415750Y-114610000D01*
X141257000Y-114768750D01*
X141257000Y-115443000D01*
X141277000Y-115443000D01*
X141277000Y-115697000D01*
X138938000Y-115697000D01*
X138938000Y-115245000D01*
X139741928Y-115245000D01*
X139745000Y-115284250D01*
X139903750Y-115443000D01*
X141003000Y-115443000D01*
X141003000Y-114768750D01*
X140844250Y-114610000D01*
X140380000Y-114606928D01*
X140255518Y-114619188D01*
X140135820Y-114655498D01*
X140025506Y-114714463D01*
X139928815Y-114793815D01*
X139849463Y-114890506D01*
X139790498Y-115000820D01*
X139754188Y-115120518D01*
X139741928Y-115245000D01*
X138938000Y-115245000D01*
X138938000Y-114367016D01*
X139144250Y-114365000D01*
X139303000Y-114206250D01*
X139303000Y-113157000D01*
X139557000Y-113157000D01*
X139557000Y-114206250D01*
X139715750Y-114365000D01*
X140030000Y-114368072D01*
X140154482Y-114355812D01*
X140274180Y-114319502D01*
X140384494Y-114260537D01*
X140481185Y-114181185D01*
X140560537Y-114084494D01*
X140619502Y-113974180D01*
X140655812Y-113854482D01*
X140668072Y-113730000D01*
X140665000Y-113315750D01*
X140506250Y-113157000D01*
X139557000Y-113157000D01*
X139303000Y-113157000D01*
X139283000Y-113157000D01*
X139283000Y-112903000D01*
X139303000Y-112903000D01*
X139303000Y-112883000D01*
X139557000Y-112883000D01*
X139557000Y-112903000D01*
X140506250Y-112903000D01*
X140665000Y-112744250D01*
X140667559Y-112399165D01*
X141605000Y-113336606D01*
%TA.AperFunction,Conductor*%
D28*
G36*
X141605000Y-113336606D02*
G01*
X141605000Y-114608748D01*
X141415750Y-114610000D01*
X141257000Y-114768750D01*
X141257000Y-115443000D01*
X141277000Y-115443000D01*
X141277000Y-115697000D01*
X138938000Y-115697000D01*
X138938000Y-115245000D01*
X139741928Y-115245000D01*
X139745000Y-115284250D01*
X139903750Y-115443000D01*
X141003000Y-115443000D01*
X141003000Y-114768750D01*
X140844250Y-114610000D01*
X140380000Y-114606928D01*
X140255518Y-114619188D01*
X140135820Y-114655498D01*
X140025506Y-114714463D01*
X139928815Y-114793815D01*
X139849463Y-114890506D01*
X139790498Y-115000820D01*
X139754188Y-115120518D01*
X139741928Y-115245000D01*
X138938000Y-115245000D01*
X138938000Y-114367016D01*
X139144250Y-114365000D01*
X139303000Y-114206250D01*
X139303000Y-113157000D01*
X139557000Y-113157000D01*
X139557000Y-114206250D01*
X139715750Y-114365000D01*
X140030000Y-114368072D01*
X140154482Y-114355812D01*
X140274180Y-114319502D01*
X140384494Y-114260537D01*
X140481185Y-114181185D01*
X140560537Y-114084494D01*
X140619502Y-113974180D01*
X140655812Y-113854482D01*
X140668072Y-113730000D01*
X140665000Y-113315750D01*
X140506250Y-113157000D01*
X139557000Y-113157000D01*
X139303000Y-113157000D01*
X139283000Y-113157000D01*
X139283000Y-112903000D01*
X139303000Y-112903000D01*
X139303000Y-112883000D01*
X139557000Y-112883000D01*
X139557000Y-112903000D01*
X140506250Y-112903000D01*
X140665000Y-112744250D01*
X140667559Y-112399165D01*
X141605000Y-113336606D01*
G37*
%TD.AperFunction*%
%TD*%
D26*
%TO.N,GND*%
X139319000Y-116459000D02*
X137922000Y-116459000D01*
X137922000Y-114427000D01*
X139319000Y-114427000D01*
X139319000Y-116459000D01*
%TA.AperFunction,Conductor*%
D28*
G36*
X139319000Y-116459000D02*
G01*
X137922000Y-116459000D01*
X137922000Y-114427000D01*
X139319000Y-114427000D01*
X139319000Y-116459000D01*
G37*
%TD.AperFunction*%
%TD*%
M02*
