G04 #@! TF.GenerationSoftware,KiCad,Pcbnew,(5.1.8-0-10_14)*
G04 #@! TF.CreationDate,2021-08-13T20:50:48-06:00*
G04 #@! TF.ProjectId,ESP8266_Water_Sensor,45535038-3236-4365-9f57-617465725f53,rev?*
G04 #@! TF.SameCoordinates,Original*
G04 #@! TF.FileFunction,Copper,L4,Bot*
G04 #@! TF.FilePolarity,Positive*
%FSLAX46Y46*%
G04 Gerber Fmt 4.6, Leading zero omitted, Abs format (unit mm)*
G04 Created by KiCad (PCBNEW (5.1.8-0-10_14)) date 2021-08-13 20:50:48*
%MOMM*%
%LPD*%
G01*
G04 APERTURE LIST*
G04 #@! TA.AperFunction,WasherPad*
%ADD10C,2.700000*%
G04 #@! TD*
G04 #@! TA.AperFunction,ComponentPad*
%ADD11R,1.700000X1.700000*%
G04 #@! TD*
G04 #@! TA.AperFunction,ComponentPad*
%ADD12O,1.700000X1.700000*%
G04 #@! TD*
G04 #@! TA.AperFunction,ComponentPad*
%ADD13C,1.800000*%
G04 #@! TD*
G04 #@! TA.AperFunction,ComponentPad*
%ADD14R,1.800000X1.800000*%
G04 #@! TD*
G04 #@! TA.AperFunction,SMDPad,CuDef*
%ADD15C,0.100000*%
G04 #@! TD*
G04 #@! TA.AperFunction,ComponentPad*
%ADD16C,1.950000*%
G04 #@! TD*
G04 #@! TA.AperFunction,ComponentPad*
%ADD17C,1.600000*%
G04 #@! TD*
G04 #@! TA.AperFunction,ComponentPad*
%ADD18R,1.600000X1.600000*%
G04 #@! TD*
G04 #@! TA.AperFunction,ViaPad*
%ADD19C,0.762000*%
G04 #@! TD*
G04 #@! TA.AperFunction,Conductor*
%ADD20C,0.762000*%
G04 #@! TD*
G04 #@! TA.AperFunction,Conductor*
%ADD21C,1.270000*%
G04 #@! TD*
G04 #@! TA.AperFunction,Conductor*
%ADD22C,0.254000*%
G04 #@! TD*
G04 #@! TA.AperFunction,Conductor*
%ADD23C,0.100000*%
G04 #@! TD*
G04 APERTURE END LIST*
D10*
X252730000Y-125730000D03*
G04 #@! TA.AperFunction,SMDPad,CuDef*
G36*
G01*
X234214000Y-86225400D02*
X234214000Y-85275400D01*
G75*
G02*
X234464000Y-85025400I250000J0D01*
G01*
X235139000Y-85025400D01*
G75*
G02*
X235389000Y-85275400I0J-250000D01*
G01*
X235389000Y-86225400D01*
G75*
G02*
X235139000Y-86475400I-250000J0D01*
G01*
X234464000Y-86475400D01*
G75*
G02*
X234214000Y-86225400I0J250000D01*
G01*
G37*
G04 #@! TD.AperFunction*
G04 #@! TA.AperFunction,SMDPad,CuDef*
G36*
G01*
X236289000Y-86225400D02*
X236289000Y-85275400D01*
G75*
G02*
X236539000Y-85025400I250000J0D01*
G01*
X237214000Y-85025400D01*
G75*
G02*
X237464000Y-85275400I0J-250000D01*
G01*
X237464000Y-86225400D01*
G75*
G02*
X237214000Y-86475400I-250000J0D01*
G01*
X236539000Y-86475400D01*
G75*
G02*
X236289000Y-86225400I0J250000D01*
G01*
G37*
G04 #@! TD.AperFunction*
G04 #@! TA.AperFunction,SMDPad,CuDef*
G36*
G01*
X234163200Y-88689200D02*
X234163200Y-87739200D01*
G75*
G02*
X234413200Y-87489200I250000J0D01*
G01*
X235088200Y-87489200D01*
G75*
G02*
X235338200Y-87739200I0J-250000D01*
G01*
X235338200Y-88689200D01*
G75*
G02*
X235088200Y-88939200I-250000J0D01*
G01*
X234413200Y-88939200D01*
G75*
G02*
X234163200Y-88689200I0J250000D01*
G01*
G37*
G04 #@! TD.AperFunction*
G04 #@! TA.AperFunction,SMDPad,CuDef*
G36*
G01*
X236238200Y-88689200D02*
X236238200Y-87739200D01*
G75*
G02*
X236488200Y-87489200I250000J0D01*
G01*
X237163200Y-87489200D01*
G75*
G02*
X237413200Y-87739200I0J-250000D01*
G01*
X237413200Y-88689200D01*
G75*
G02*
X237163200Y-88939200I-250000J0D01*
G01*
X236488200Y-88939200D01*
G75*
G02*
X236238200Y-88689200I0J250000D01*
G01*
G37*
G04 #@! TD.AperFunction*
G04 #@! TA.AperFunction,SMDPad,CuDef*
G36*
G01*
X223882800Y-86951800D02*
X223882800Y-87901800D01*
G75*
G02*
X223632800Y-88151800I-250000J0D01*
G01*
X222957800Y-88151800D01*
G75*
G02*
X222707800Y-87901800I0J250000D01*
G01*
X222707800Y-86951800D01*
G75*
G02*
X222957800Y-86701800I250000J0D01*
G01*
X223632800Y-86701800D01*
G75*
G02*
X223882800Y-86951800I0J-250000D01*
G01*
G37*
G04 #@! TD.AperFunction*
G04 #@! TA.AperFunction,SMDPad,CuDef*
G36*
G01*
X225957800Y-86951800D02*
X225957800Y-87901800D01*
G75*
G02*
X225707800Y-88151800I-250000J0D01*
G01*
X225032800Y-88151800D01*
G75*
G02*
X224782800Y-87901800I0J250000D01*
G01*
X224782800Y-86951800D01*
G75*
G02*
X225032800Y-86701800I250000J0D01*
G01*
X225707800Y-86701800D01*
G75*
G02*
X225957800Y-86951800I0J-250000D01*
G01*
G37*
G04 #@! TD.AperFunction*
G04 #@! TA.AperFunction,SMDPad,CuDef*
G36*
G01*
X247852600Y-88196400D02*
X247852600Y-89146400D01*
G75*
G02*
X247602600Y-89396400I-250000J0D01*
G01*
X246927600Y-89396400D01*
G75*
G02*
X246677600Y-89146400I0J250000D01*
G01*
X246677600Y-88196400D01*
G75*
G02*
X246927600Y-87946400I250000J0D01*
G01*
X247602600Y-87946400D01*
G75*
G02*
X247852600Y-88196400I0J-250000D01*
G01*
G37*
G04 #@! TD.AperFunction*
G04 #@! TA.AperFunction,SMDPad,CuDef*
G36*
G01*
X245777600Y-88196400D02*
X245777600Y-89146400D01*
G75*
G02*
X245527600Y-89396400I-250000J0D01*
G01*
X244852600Y-89396400D01*
G75*
G02*
X244602600Y-89146400I0J250000D01*
G01*
X244602600Y-88196400D01*
G75*
G02*
X244852600Y-87946400I250000J0D01*
G01*
X245527600Y-87946400D01*
G75*
G02*
X245777600Y-88196400I0J-250000D01*
G01*
G37*
G04 #@! TD.AperFunction*
G04 #@! TA.AperFunction,SMDPad,CuDef*
G36*
G01*
X225957800Y-94267000D02*
X225957800Y-95217000D01*
G75*
G02*
X225707800Y-95467000I-250000J0D01*
G01*
X225032800Y-95467000D01*
G75*
G02*
X224782800Y-95217000I0J250000D01*
G01*
X224782800Y-94267000D01*
G75*
G02*
X225032800Y-94017000I250000J0D01*
G01*
X225707800Y-94017000D01*
G75*
G02*
X225957800Y-94267000I0J-250000D01*
G01*
G37*
G04 #@! TD.AperFunction*
G04 #@! TA.AperFunction,SMDPad,CuDef*
G36*
G01*
X223882800Y-94267000D02*
X223882800Y-95217000D01*
G75*
G02*
X223632800Y-95467000I-250000J0D01*
G01*
X222957800Y-95467000D01*
G75*
G02*
X222707800Y-95217000I0J250000D01*
G01*
X222707800Y-94267000D01*
G75*
G02*
X222957800Y-94017000I250000J0D01*
G01*
X223632800Y-94017000D01*
G75*
G02*
X223882800Y-94267000I0J-250000D01*
G01*
G37*
G04 #@! TD.AperFunction*
D11*
X228142800Y-108458000D03*
D12*
X228142800Y-110998000D03*
X228142800Y-113538000D03*
X228142800Y-116078000D03*
X228142800Y-118618000D03*
X228142800Y-121158000D03*
D13*
X219884000Y-126644400D03*
D14*
X214884000Y-126644400D03*
X252984000Y-106832400D03*
D13*
X252984000Y-111832400D03*
D12*
X254965200Y-97942400D03*
X254965200Y-95402400D03*
X254965200Y-92862400D03*
X254965200Y-90322400D03*
X254965200Y-87782400D03*
D11*
X254965200Y-85242400D03*
G04 #@! TA.AperFunction,SMDPad,CuDef*
D15*
G36*
X232422798Y-110530400D02*
G01*
X232422798Y-110554934D01*
X232417988Y-110603765D01*
X232408416Y-110651890D01*
X232394172Y-110698845D01*
X232375395Y-110744178D01*
X232352264Y-110787451D01*
X232325004Y-110828250D01*
X232293876Y-110866179D01*
X232259179Y-110900876D01*
X232221250Y-110932004D01*
X232180451Y-110959264D01*
X232137178Y-110982395D01*
X232091845Y-111001172D01*
X232044890Y-111015416D01*
X231996765Y-111024988D01*
X231947934Y-111029798D01*
X231923400Y-111029798D01*
X231923400Y-111030400D01*
X231423400Y-111030400D01*
X231423400Y-111029798D01*
X231398866Y-111029798D01*
X231350035Y-111024988D01*
X231301910Y-111015416D01*
X231254955Y-111001172D01*
X231209622Y-110982395D01*
X231166349Y-110959264D01*
X231125550Y-110932004D01*
X231087621Y-110900876D01*
X231052924Y-110866179D01*
X231021796Y-110828250D01*
X230994536Y-110787451D01*
X230971405Y-110744178D01*
X230952628Y-110698845D01*
X230938384Y-110651890D01*
X230928812Y-110603765D01*
X230924002Y-110554934D01*
X230924002Y-110530400D01*
X230923400Y-110530400D01*
X230923400Y-110030400D01*
X232423400Y-110030400D01*
X232423400Y-110530400D01*
X232422798Y-110530400D01*
G37*
G04 #@! TD.AperFunction*
G04 #@! TA.AperFunction,SMDPad,CuDef*
G36*
X230923400Y-109730400D02*
G01*
X230923400Y-109230400D01*
X230924002Y-109230400D01*
X230924002Y-109205866D01*
X230928812Y-109157035D01*
X230938384Y-109108910D01*
X230952628Y-109061955D01*
X230971405Y-109016622D01*
X230994536Y-108973349D01*
X231021796Y-108932550D01*
X231052924Y-108894621D01*
X231087621Y-108859924D01*
X231125550Y-108828796D01*
X231166349Y-108801536D01*
X231209622Y-108778405D01*
X231254955Y-108759628D01*
X231301910Y-108745384D01*
X231350035Y-108735812D01*
X231398866Y-108731002D01*
X231423400Y-108731002D01*
X231423400Y-108730400D01*
X231923400Y-108730400D01*
X231923400Y-108731002D01*
X231947934Y-108731002D01*
X231996765Y-108735812D01*
X232044890Y-108745384D01*
X232091845Y-108759628D01*
X232137178Y-108778405D01*
X232180451Y-108801536D01*
X232221250Y-108828796D01*
X232259179Y-108859924D01*
X232293876Y-108894621D01*
X232325004Y-108932550D01*
X232352264Y-108973349D01*
X232375395Y-109016622D01*
X232394172Y-109061955D01*
X232408416Y-109108910D01*
X232417988Y-109157035D01*
X232422798Y-109205866D01*
X232422798Y-109230400D01*
X232423400Y-109230400D01*
X232423400Y-109730400D01*
X230923400Y-109730400D01*
G37*
G04 #@! TD.AperFunction*
G04 #@! TA.AperFunction,SMDPad,CuDef*
G36*
X249313000Y-87251400D02*
G01*
X249313000Y-86751400D01*
X249313602Y-86751400D01*
X249313602Y-86726866D01*
X249318412Y-86678035D01*
X249327984Y-86629910D01*
X249342228Y-86582955D01*
X249361005Y-86537622D01*
X249384136Y-86494349D01*
X249411396Y-86453550D01*
X249442524Y-86415621D01*
X249477221Y-86380924D01*
X249515150Y-86349796D01*
X249555949Y-86322536D01*
X249599222Y-86299405D01*
X249644555Y-86280628D01*
X249691510Y-86266384D01*
X249739635Y-86256812D01*
X249788466Y-86252002D01*
X249813000Y-86252002D01*
X249813000Y-86251400D01*
X250313000Y-86251400D01*
X250313000Y-86252002D01*
X250337534Y-86252002D01*
X250386365Y-86256812D01*
X250434490Y-86266384D01*
X250481445Y-86280628D01*
X250526778Y-86299405D01*
X250570051Y-86322536D01*
X250610850Y-86349796D01*
X250648779Y-86380924D01*
X250683476Y-86415621D01*
X250714604Y-86453550D01*
X250741864Y-86494349D01*
X250764995Y-86537622D01*
X250783772Y-86582955D01*
X250798016Y-86629910D01*
X250807588Y-86678035D01*
X250812398Y-86726866D01*
X250812398Y-86751400D01*
X250813000Y-86751400D01*
X250813000Y-87251400D01*
X249313000Y-87251400D01*
G37*
G04 #@! TD.AperFunction*
G04 #@! TA.AperFunction,SMDPad,CuDef*
G36*
X250812398Y-88051400D02*
G01*
X250812398Y-88075934D01*
X250807588Y-88124765D01*
X250798016Y-88172890D01*
X250783772Y-88219845D01*
X250764995Y-88265178D01*
X250741864Y-88308451D01*
X250714604Y-88349250D01*
X250683476Y-88387179D01*
X250648779Y-88421876D01*
X250610850Y-88453004D01*
X250570051Y-88480264D01*
X250526778Y-88503395D01*
X250481445Y-88522172D01*
X250434490Y-88536416D01*
X250386365Y-88545988D01*
X250337534Y-88550798D01*
X250313000Y-88550798D01*
X250313000Y-88551400D01*
X249813000Y-88551400D01*
X249813000Y-88550798D01*
X249788466Y-88550798D01*
X249739635Y-88545988D01*
X249691510Y-88536416D01*
X249644555Y-88522172D01*
X249599222Y-88503395D01*
X249555949Y-88480264D01*
X249515150Y-88453004D01*
X249477221Y-88421876D01*
X249442524Y-88387179D01*
X249411396Y-88349250D01*
X249384136Y-88308451D01*
X249361005Y-88265178D01*
X249342228Y-88219845D01*
X249327984Y-88172890D01*
X249318412Y-88124765D01*
X249313602Y-88075934D01*
X249313602Y-88051400D01*
X249313000Y-88051400D01*
X249313000Y-87551400D01*
X250813000Y-87551400D01*
X250813000Y-88051400D01*
X250812398Y-88051400D01*
G37*
G04 #@! TD.AperFunction*
G04 #@! TA.AperFunction,SMDPad,CuDef*
G36*
G01*
X222732800Y-90340601D02*
X222732800Y-89440599D01*
G75*
G02*
X222982799Y-89190600I249999J0D01*
G01*
X223682801Y-89190600D01*
G75*
G02*
X223932800Y-89440599I0J-249999D01*
G01*
X223932800Y-90340601D01*
G75*
G02*
X223682801Y-90590600I-249999J0D01*
G01*
X222982799Y-90590600D01*
G75*
G02*
X222732800Y-90340601I0J249999D01*
G01*
G37*
G04 #@! TD.AperFunction*
G04 #@! TA.AperFunction,SMDPad,CuDef*
G36*
G01*
X224732800Y-90340601D02*
X224732800Y-89440599D01*
G75*
G02*
X224982799Y-89190600I249999J0D01*
G01*
X225682801Y-89190600D01*
G75*
G02*
X225932800Y-89440599I0J-249999D01*
G01*
X225932800Y-90340601D01*
G75*
G02*
X225682801Y-90590600I-249999J0D01*
G01*
X224982799Y-90590600D01*
G75*
G02*
X224732800Y-90340601I0J249999D01*
G01*
G37*
G04 #@! TD.AperFunction*
G04 #@! TA.AperFunction,SMDPad,CuDef*
G36*
G01*
X244653000Y-86962401D02*
X244653000Y-86062399D01*
G75*
G02*
X244902999Y-85812400I249999J0D01*
G01*
X245603001Y-85812400D01*
G75*
G02*
X245853000Y-86062399I0J-249999D01*
G01*
X245853000Y-86962401D01*
G75*
G02*
X245603001Y-87212400I-249999J0D01*
G01*
X244902999Y-87212400D01*
G75*
G02*
X244653000Y-86962401I0J249999D01*
G01*
G37*
G04 #@! TD.AperFunction*
G04 #@! TA.AperFunction,SMDPad,CuDef*
G36*
G01*
X246653000Y-86962401D02*
X246653000Y-86062399D01*
G75*
G02*
X246902999Y-85812400I249999J0D01*
G01*
X247603001Y-85812400D01*
G75*
G02*
X247853000Y-86062399I0J-249999D01*
G01*
X247853000Y-86962401D01*
G75*
G02*
X247603001Y-87212400I-249999J0D01*
G01*
X246902999Y-87212400D01*
G75*
G02*
X246653000Y-86962401I0J249999D01*
G01*
G37*
G04 #@! TD.AperFunction*
G04 #@! TA.AperFunction,SMDPad,CuDef*
G36*
G01*
X222732800Y-92753601D02*
X222732800Y-91853599D01*
G75*
G02*
X222982799Y-91603600I249999J0D01*
G01*
X223682801Y-91603600D01*
G75*
G02*
X223932800Y-91853599I0J-249999D01*
G01*
X223932800Y-92753601D01*
G75*
G02*
X223682801Y-93003600I-249999J0D01*
G01*
X222982799Y-93003600D01*
G75*
G02*
X222732800Y-92753601I0J249999D01*
G01*
G37*
G04 #@! TD.AperFunction*
G04 #@! TA.AperFunction,SMDPad,CuDef*
G36*
G01*
X224732800Y-92753601D02*
X224732800Y-91853599D01*
G75*
G02*
X224982799Y-91603600I249999J0D01*
G01*
X225682801Y-91603600D01*
G75*
G02*
X225932800Y-91853599I0J-249999D01*
G01*
X225932800Y-92753601D01*
G75*
G02*
X225682801Y-93003600I-249999J0D01*
G01*
X224982799Y-93003600D01*
G75*
G02*
X224732800Y-92753601I0J249999D01*
G01*
G37*
G04 #@! TD.AperFunction*
G04 #@! TA.AperFunction,SMDPad,CuDef*
G36*
G01*
X237890000Y-92017001D02*
X237890000Y-91116999D01*
G75*
G02*
X238139999Y-90867000I249999J0D01*
G01*
X238840001Y-90867000D01*
G75*
G02*
X239090000Y-91116999I0J-249999D01*
G01*
X239090000Y-92017001D01*
G75*
G02*
X238840001Y-92267000I-249999J0D01*
G01*
X238139999Y-92267000D01*
G75*
G02*
X237890000Y-92017001I0J249999D01*
G01*
G37*
G04 #@! TD.AperFunction*
G04 #@! TA.AperFunction,SMDPad,CuDef*
G36*
G01*
X235890000Y-92017001D02*
X235890000Y-91116999D01*
G75*
G02*
X236139999Y-90867000I249999J0D01*
G01*
X236840001Y-90867000D01*
G75*
G02*
X237090000Y-91116999I0J-249999D01*
G01*
X237090000Y-92017001D01*
G75*
G02*
X236840001Y-92267000I-249999J0D01*
G01*
X236139999Y-92267000D01*
G75*
G02*
X235890000Y-92017001I0J249999D01*
G01*
G37*
G04 #@! TD.AperFunction*
D16*
X234492800Y-126593600D03*
X239492800Y-126593600D03*
X244492800Y-126593600D03*
D17*
X209742400Y-118211600D03*
D18*
X212242400Y-118211600D03*
X217474800Y-118211600D03*
D17*
X219974800Y-118211600D03*
D10*
X207772000Y-80772000D03*
D19*
X210007200Y-89966800D03*
X211328000Y-89966800D03*
X212598000Y-89916000D03*
X208686400Y-89966800D03*
X207365600Y-90017600D03*
X214020400Y-89916000D03*
X214071200Y-88239600D03*
X214223600Y-92303600D03*
X230331600Y-84069600D03*
X234793200Y-84069600D03*
X245287800Y-102285800D03*
X221386400Y-92303600D03*
X245253000Y-84547200D03*
X205536800Y-110642400D03*
X205740000Y-116535200D03*
X207416400Y-103428800D03*
X207365600Y-104698800D03*
X206146400Y-85953600D03*
X204927200Y-85953600D03*
X204927200Y-84531200D03*
X211632800Y-84124800D03*
X213918800Y-84124800D03*
X213969600Y-86004400D03*
X219913200Y-103479600D03*
X219862400Y-105054400D03*
X219811600Y-106883200D03*
X219710000Y-108407200D03*
X217982800Y-110032800D03*
X247802400Y-84074000D03*
X252116000Y-84069600D03*
X247977610Y-91569600D03*
X252143200Y-91569600D03*
X234994000Y-96069600D03*
X232550000Y-97879200D03*
X220624400Y-89930800D03*
X222946400Y-98262000D03*
X245313200Y-99822000D03*
X242400000Y-87495200D03*
X238988600Y-85267800D03*
X238912400Y-86588600D03*
X238937800Y-88214200D03*
X238887000Y-89712800D03*
X245135400Y-91186000D03*
X212734400Y-112455200D03*
X210210400Y-103428800D03*
X211480400Y-103428800D03*
X210159600Y-104851200D03*
X211480400Y-104851200D03*
X213156800Y-104140000D03*
X213156800Y-105562400D03*
X213156800Y-107086400D03*
X225414400Y-85430800D03*
X251917000Y-88569600D03*
X227460400Y-95888400D03*
X234879200Y-94569600D03*
X252015800Y-85569600D03*
X234594400Y-91567000D03*
D20*
X223332800Y-89890600D02*
X223332800Y-92303600D01*
X223332800Y-92303600D02*
X221386400Y-92303600D01*
X221386400Y-92303600D02*
X221386400Y-92303600D01*
X245253000Y-86512400D02*
X245253000Y-84547200D01*
X245253000Y-84547200D02*
X245253000Y-84547200D01*
D21*
X231244010Y-108458000D02*
X231673400Y-108887390D01*
X228142800Y-108458000D02*
X231244010Y-108458000D01*
D20*
X223295300Y-97913100D02*
X222946400Y-98262000D01*
X223295300Y-94742000D02*
X223295300Y-97913100D01*
X223128400Y-87426800D02*
X220624400Y-89930800D01*
X223295300Y-87426800D02*
X223128400Y-87426800D01*
D22*
X225414400Y-87382700D02*
X225370300Y-87426800D01*
X225414400Y-85430800D02*
X225414400Y-87382700D01*
X225370300Y-89853100D02*
X225332800Y-89890600D01*
X225370300Y-87426800D02*
X225370300Y-89853100D01*
X250581200Y-88569600D02*
X250063000Y-88051400D01*
X251917000Y-88569600D02*
X250581200Y-88569600D01*
X247885100Y-88051400D02*
X247265100Y-88671400D01*
X250063000Y-88051400D02*
X247885100Y-88051400D01*
X247265100Y-86524500D02*
X247253000Y-86512400D01*
X247265100Y-88671400D02*
X247265100Y-86524500D01*
X225332800Y-94704500D02*
X225370300Y-94742000D01*
X225332800Y-92303600D02*
X225332800Y-94704500D01*
X226314000Y-94742000D02*
X227460400Y-95888400D01*
X225370300Y-94742000D02*
X226314000Y-94742000D01*
X233560400Y-95888400D02*
X234879200Y-94569600D01*
X227460400Y-95888400D02*
X233560400Y-95888400D01*
D21*
X231548810Y-110998000D02*
X231673400Y-110873410D01*
X228142800Y-110998000D02*
X231548810Y-110998000D01*
D22*
X251244800Y-85569600D02*
X250063000Y-86751400D01*
X252015800Y-85569600D02*
X251244800Y-85569600D01*
X236490000Y-91567000D02*
X234594400Y-91567000D01*
X234594400Y-91567000D02*
X234594400Y-91567000D01*
X235254800Y-84388694D02*
X235087250Y-84390400D01*
X234928500Y-84549150D01*
X234928500Y-85623400D01*
X234948500Y-85623400D01*
X234948500Y-85877400D01*
X234928500Y-85877400D01*
X234928500Y-86951650D01*
X234933750Y-86956900D01*
X234877700Y-87012950D01*
X234877700Y-88087200D01*
X234897700Y-88087200D01*
X234897700Y-88341200D01*
X234877700Y-88341200D01*
X234877700Y-88361200D01*
X234623700Y-88361200D01*
X234623700Y-88341200D01*
X233686950Y-88341200D01*
X233528200Y-88499950D01*
X233525935Y-88823800D01*
X229641400Y-88823800D01*
X229641400Y-87489200D01*
X233525128Y-87489200D01*
X233528200Y-87928450D01*
X233686950Y-88087200D01*
X234623700Y-88087200D01*
X234623700Y-87012950D01*
X234618450Y-87007700D01*
X234674500Y-86951650D01*
X234674500Y-85877400D01*
X233737750Y-85877400D01*
X233579000Y-86036150D01*
X233575928Y-86475400D01*
X233588188Y-86599882D01*
X233624498Y-86719580D01*
X233683463Y-86829894D01*
X233762815Y-86926585D01*
X233805304Y-86961455D01*
X233712015Y-87038015D01*
X233632663Y-87134706D01*
X233573698Y-87245020D01*
X233537388Y-87364718D01*
X233525128Y-87489200D01*
X229641400Y-87489200D01*
X229641400Y-85025400D01*
X233575928Y-85025400D01*
X233579000Y-85464650D01*
X233737750Y-85623400D01*
X234674500Y-85623400D01*
X234674500Y-84549150D01*
X234515750Y-84390400D01*
X234214000Y-84387328D01*
X234089518Y-84399588D01*
X233969820Y-84435898D01*
X233859506Y-84494863D01*
X233762815Y-84574215D01*
X233683463Y-84670906D01*
X233624498Y-84781220D01*
X233588188Y-84900918D01*
X233575928Y-85025400D01*
X229641400Y-85025400D01*
X229641400Y-83769200D01*
X235254800Y-83769200D01*
X235254800Y-84388694D01*
G04 #@! TA.AperFunction,Conductor*
D23*
G36*
X235254800Y-84388694D02*
G01*
X235087250Y-84390400D01*
X234928500Y-84549150D01*
X234928500Y-85623400D01*
X234948500Y-85623400D01*
X234948500Y-85877400D01*
X234928500Y-85877400D01*
X234928500Y-86951650D01*
X234933750Y-86956900D01*
X234877700Y-87012950D01*
X234877700Y-88087200D01*
X234897700Y-88087200D01*
X234897700Y-88341200D01*
X234877700Y-88341200D01*
X234877700Y-88361200D01*
X234623700Y-88361200D01*
X234623700Y-88341200D01*
X233686950Y-88341200D01*
X233528200Y-88499950D01*
X233525935Y-88823800D01*
X229641400Y-88823800D01*
X229641400Y-87489200D01*
X233525128Y-87489200D01*
X233528200Y-87928450D01*
X233686950Y-88087200D01*
X234623700Y-88087200D01*
X234623700Y-87012950D01*
X234618450Y-87007700D01*
X234674500Y-86951650D01*
X234674500Y-85877400D01*
X233737750Y-85877400D01*
X233579000Y-86036150D01*
X233575928Y-86475400D01*
X233588188Y-86599882D01*
X233624498Y-86719580D01*
X233683463Y-86829894D01*
X233762815Y-86926585D01*
X233805304Y-86961455D01*
X233712015Y-87038015D01*
X233632663Y-87134706D01*
X233573698Y-87245020D01*
X233537388Y-87364718D01*
X233525128Y-87489200D01*
X229641400Y-87489200D01*
X229641400Y-85025400D01*
X233575928Y-85025400D01*
X233579000Y-85464650D01*
X233737750Y-85623400D01*
X234674500Y-85623400D01*
X234674500Y-84549150D01*
X234515750Y-84390400D01*
X234214000Y-84387328D01*
X234089518Y-84399588D01*
X233969820Y-84435898D01*
X233859506Y-84494863D01*
X233762815Y-84574215D01*
X233683463Y-84670906D01*
X233624498Y-84781220D01*
X233588188Y-84900918D01*
X233575928Y-85025400D01*
X229641400Y-85025400D01*
X229641400Y-83769200D01*
X235254800Y-83769200D01*
X235254800Y-84388694D01*
G37*
G04 #@! TD.AperFunction*
D22*
X244030416Y-87669822D02*
X244013098Y-87702220D01*
X243976788Y-87821918D01*
X243964528Y-87946400D01*
X243967600Y-88385650D01*
X244126350Y-88544400D01*
X245063100Y-88544400D01*
X245063100Y-88524400D01*
X245317100Y-88524400D01*
X245317100Y-88544400D01*
X245337100Y-88544400D01*
X245337100Y-88798400D01*
X245317100Y-88798400D01*
X245317100Y-89872650D01*
X245475850Y-90031400D01*
X245668800Y-90033364D01*
X245668800Y-92125800D01*
X239727025Y-92125800D01*
X239725000Y-91852750D01*
X239566250Y-91694000D01*
X238617000Y-91694000D01*
X238617000Y-91714000D01*
X238363000Y-91714000D01*
X238363000Y-91694000D01*
X238343000Y-91694000D01*
X238343000Y-91440000D01*
X238363000Y-91440000D01*
X238363000Y-90390750D01*
X238617000Y-90390750D01*
X238617000Y-91440000D01*
X239566250Y-91440000D01*
X239725000Y-91281250D01*
X239728072Y-90867000D01*
X239715812Y-90742518D01*
X239679502Y-90622820D01*
X239620537Y-90512506D01*
X239541185Y-90415815D01*
X239444494Y-90336463D01*
X239334180Y-90277498D01*
X239214482Y-90241188D01*
X239090000Y-90228928D01*
X238775750Y-90232000D01*
X238617000Y-90390750D01*
X238363000Y-90390750D01*
X238204250Y-90232000D01*
X237890000Y-90228928D01*
X237766133Y-90241127D01*
X236952702Y-89427696D01*
X236952702Y-89415452D01*
X237111450Y-89574200D01*
X237413200Y-89577272D01*
X237537682Y-89565012D01*
X237657380Y-89528702D01*
X237767694Y-89469737D01*
X237857055Y-89396400D01*
X243964528Y-89396400D01*
X243976788Y-89520882D01*
X244013098Y-89640580D01*
X244072063Y-89750894D01*
X244151415Y-89847585D01*
X244248106Y-89926937D01*
X244358420Y-89985902D01*
X244478118Y-90022212D01*
X244602600Y-90034472D01*
X244904350Y-90031400D01*
X245063100Y-89872650D01*
X245063100Y-88798400D01*
X244126350Y-88798400D01*
X243967600Y-88957150D01*
X243964528Y-89396400D01*
X237857055Y-89396400D01*
X237864385Y-89390385D01*
X237943737Y-89293694D01*
X238002702Y-89183380D01*
X238039012Y-89063682D01*
X238051272Y-88939200D01*
X238048200Y-88499950D01*
X237889450Y-88341200D01*
X236952700Y-88341200D01*
X236952700Y-88361200D01*
X236698700Y-88361200D01*
X236698700Y-88341200D01*
X236678700Y-88341200D01*
X236678700Y-88087200D01*
X236698700Y-88087200D01*
X236698700Y-87012950D01*
X236952700Y-87012950D01*
X236952700Y-88087200D01*
X237889450Y-88087200D01*
X238048200Y-87928450D01*
X238051272Y-87489200D01*
X238039012Y-87364718D01*
X238002702Y-87245020D01*
X237943737Y-87134706D01*
X237864385Y-87038015D01*
X237821896Y-87003145D01*
X237915185Y-86926585D01*
X237994537Y-86829894D01*
X238053502Y-86719580D01*
X238089812Y-86599882D01*
X238102072Y-86475400D01*
X238099000Y-86036150D01*
X237940250Y-85877400D01*
X237003500Y-85877400D01*
X237003500Y-86951650D01*
X237008750Y-86956900D01*
X236952700Y-87012950D01*
X236698700Y-87012950D01*
X236693450Y-87007700D01*
X236749500Y-86951650D01*
X236749500Y-85877400D01*
X236729500Y-85877400D01*
X236729500Y-85623400D01*
X236749500Y-85623400D01*
X236749500Y-85603400D01*
X237003500Y-85603400D01*
X237003500Y-85623400D01*
X237940250Y-85623400D01*
X238099000Y-85464650D01*
X238102072Y-85025400D01*
X238089812Y-84900918D01*
X238053502Y-84781220D01*
X237994537Y-84670906D01*
X237942419Y-84607400D01*
X240967994Y-84607400D01*
X244030416Y-87669822D01*
G04 #@! TA.AperFunction,Conductor*
D23*
G36*
X244030416Y-87669822D02*
G01*
X244013098Y-87702220D01*
X243976788Y-87821918D01*
X243964528Y-87946400D01*
X243967600Y-88385650D01*
X244126350Y-88544400D01*
X245063100Y-88544400D01*
X245063100Y-88524400D01*
X245317100Y-88524400D01*
X245317100Y-88544400D01*
X245337100Y-88544400D01*
X245337100Y-88798400D01*
X245317100Y-88798400D01*
X245317100Y-89872650D01*
X245475850Y-90031400D01*
X245668800Y-90033364D01*
X245668800Y-92125800D01*
X239727025Y-92125800D01*
X239725000Y-91852750D01*
X239566250Y-91694000D01*
X238617000Y-91694000D01*
X238617000Y-91714000D01*
X238363000Y-91714000D01*
X238363000Y-91694000D01*
X238343000Y-91694000D01*
X238343000Y-91440000D01*
X238363000Y-91440000D01*
X238363000Y-90390750D01*
X238617000Y-90390750D01*
X238617000Y-91440000D01*
X239566250Y-91440000D01*
X239725000Y-91281250D01*
X239728072Y-90867000D01*
X239715812Y-90742518D01*
X239679502Y-90622820D01*
X239620537Y-90512506D01*
X239541185Y-90415815D01*
X239444494Y-90336463D01*
X239334180Y-90277498D01*
X239214482Y-90241188D01*
X239090000Y-90228928D01*
X238775750Y-90232000D01*
X238617000Y-90390750D01*
X238363000Y-90390750D01*
X238204250Y-90232000D01*
X237890000Y-90228928D01*
X237766133Y-90241127D01*
X236952702Y-89427696D01*
X236952702Y-89415452D01*
X237111450Y-89574200D01*
X237413200Y-89577272D01*
X237537682Y-89565012D01*
X237657380Y-89528702D01*
X237767694Y-89469737D01*
X237857055Y-89396400D01*
X243964528Y-89396400D01*
X243976788Y-89520882D01*
X244013098Y-89640580D01*
X244072063Y-89750894D01*
X244151415Y-89847585D01*
X244248106Y-89926937D01*
X244358420Y-89985902D01*
X244478118Y-90022212D01*
X244602600Y-90034472D01*
X244904350Y-90031400D01*
X245063100Y-89872650D01*
X245063100Y-88798400D01*
X244126350Y-88798400D01*
X243967600Y-88957150D01*
X243964528Y-89396400D01*
X237857055Y-89396400D01*
X237864385Y-89390385D01*
X237943737Y-89293694D01*
X238002702Y-89183380D01*
X238039012Y-89063682D01*
X238051272Y-88939200D01*
X238048200Y-88499950D01*
X237889450Y-88341200D01*
X236952700Y-88341200D01*
X236952700Y-88361200D01*
X236698700Y-88361200D01*
X236698700Y-88341200D01*
X236678700Y-88341200D01*
X236678700Y-88087200D01*
X236698700Y-88087200D01*
X236698700Y-87012950D01*
X236952700Y-87012950D01*
X236952700Y-88087200D01*
X237889450Y-88087200D01*
X238048200Y-87928450D01*
X238051272Y-87489200D01*
X238039012Y-87364718D01*
X238002702Y-87245020D01*
X237943737Y-87134706D01*
X237864385Y-87038015D01*
X237821896Y-87003145D01*
X237915185Y-86926585D01*
X237994537Y-86829894D01*
X238053502Y-86719580D01*
X238089812Y-86599882D01*
X238102072Y-86475400D01*
X238099000Y-86036150D01*
X237940250Y-85877400D01*
X237003500Y-85877400D01*
X237003500Y-86951650D01*
X237008750Y-86956900D01*
X236952700Y-87012950D01*
X236698700Y-87012950D01*
X236693450Y-87007700D01*
X236749500Y-86951650D01*
X236749500Y-85877400D01*
X236729500Y-85877400D01*
X236729500Y-85623400D01*
X236749500Y-85623400D01*
X236749500Y-85603400D01*
X237003500Y-85603400D01*
X237003500Y-85623400D01*
X237940250Y-85623400D01*
X238099000Y-85464650D01*
X238102072Y-85025400D01*
X238089812Y-84900918D01*
X238053502Y-84781220D01*
X237994537Y-84670906D01*
X237942419Y-84607400D01*
X240967994Y-84607400D01*
X244030416Y-87669822D01*
G37*
G04 #@! TD.AperFunction*
M02*
