%FSLAX45Y45*%
G04 Gerber Fmt 4.5, Leading zero omitted, Abs format (unit mm)*
G04 Created by KiCad (PCBNEW (5.1.8-0-10_14)) date 2021-08-13 20:50:53*
%MOMM*%
%LPD*%
G01*
G04 APERTURE LIST*
%TA.AperFunction,Profile*%
%ADD10C,0.025400*%
%TD*%
%ADD11C,0.200000*%
%ADD12C,0.300000*%
G04 APERTURE END LIST*
D10*
X22352000Y-8305800D02*
X25730200Y-8305800D01*
X22352000Y-8305800D02*
X22352000Y-7620000D01*
X20650200Y-12344400D02*
X20320000Y-12344400D01*
X21005800Y-12700000D02*
X21005800Y-13030200D01*
X21005800Y-12700000D02*
G75*
G03*
X20650200Y-12344400I-355600J0D01*
G01*
X20320000Y-12344400D02*
X20320000Y-7620000D01*
X21005800Y-13030200D02*
X25730200Y-13030200D01*
X25730200Y-8305800D02*
X25730200Y-13030200D01*
X20320000Y-7620000D02*
X22352000Y-7620000D01*
D11*
X20650200Y-7950200D02*
X20904200Y-8204200D01*
X20904200Y-7950200D02*
X20650200Y-8204200D01*
X25146000Y-12446000D02*
X25400000Y-12700000D01*
X25400000Y-12446000D02*
X25146000Y-12700000D01*
D12*
X20605158Y-13497184D02*
X20605158Y-13197184D01*
X20676587Y-13197184D01*
X20719444Y-13211470D01*
X20748016Y-13240041D01*
X20762301Y-13268613D01*
X20776587Y-13325756D01*
X20776587Y-13368613D01*
X20762301Y-13425756D01*
X20748016Y-13454327D01*
X20719444Y-13482899D01*
X20676587Y-13497184D01*
X20605158Y-13497184D01*
X20905158Y-13497184D02*
X20905158Y-13297184D01*
X20905158Y-13354327D02*
X20919444Y-13325756D01*
X20933730Y-13311470D01*
X20962301Y-13297184D01*
X20990873Y-13297184D01*
X21090873Y-13497184D02*
X21090873Y-13297184D01*
X21090873Y-13197184D02*
X21076587Y-13211470D01*
X21090873Y-13225756D01*
X21105158Y-13211470D01*
X21090873Y-13197184D01*
X21090873Y-13225756D01*
X21276587Y-13497184D02*
X21248016Y-13482899D01*
X21233730Y-13454327D01*
X21233730Y-13197184D01*
X21433730Y-13497184D02*
X21405158Y-13482899D01*
X21390873Y-13454327D01*
X21390873Y-13197184D01*
X21776587Y-13497184D02*
X21776587Y-13197184D01*
X21876587Y-13411470D01*
X21976587Y-13197184D01*
X21976587Y-13497184D01*
X22248016Y-13497184D02*
X22248016Y-13340041D01*
X22233730Y-13311470D01*
X22205158Y-13297184D01*
X22148016Y-13297184D01*
X22119444Y-13311470D01*
X22248016Y-13482899D02*
X22219444Y-13497184D01*
X22148016Y-13497184D01*
X22119444Y-13482899D01*
X22105158Y-13454327D01*
X22105158Y-13425756D01*
X22119444Y-13397184D01*
X22148016Y-13382899D01*
X22219444Y-13382899D01*
X22248016Y-13368613D01*
X22390873Y-13297184D02*
X22390873Y-13597184D01*
X22390873Y-13311470D02*
X22419444Y-13297184D01*
X22476587Y-13297184D01*
X22505158Y-13311470D01*
X22519444Y-13325756D01*
X22533730Y-13354327D01*
X22533730Y-13440041D01*
X22519444Y-13468613D01*
X22505158Y-13482899D01*
X22476587Y-13497184D01*
X22419444Y-13497184D01*
X22390873Y-13482899D01*
X22662301Y-13468613D02*
X22676587Y-13482899D01*
X22662301Y-13497184D01*
X22648016Y-13482899D01*
X22662301Y-13468613D01*
X22662301Y-13497184D01*
X22662301Y-13311470D02*
X22676587Y-13325756D01*
X22662301Y-13340041D01*
X22648016Y-13325756D01*
X22662301Y-13311470D01*
X22662301Y-13340041D01*
X20064730Y-13864470D02*
X20318730Y-14118470D01*
X20318730Y-13864470D02*
X20064730Y-14118470D01*
X20590873Y-13855756D02*
X20605158Y-13841470D01*
X20633730Y-13827184D01*
X20705158Y-13827184D01*
X20733730Y-13841470D01*
X20748016Y-13855756D01*
X20762301Y-13884327D01*
X20762301Y-13912899D01*
X20748016Y-13955756D01*
X20576587Y-14127184D01*
X20762301Y-14127184D01*
X20890873Y-14098613D02*
X20905158Y-14112899D01*
X20890873Y-14127184D01*
X20876587Y-14112899D01*
X20890873Y-14098613D01*
X20890873Y-14127184D01*
X21176587Y-13827184D02*
X21033730Y-13827184D01*
X21019444Y-13970041D01*
X21033730Y-13955756D01*
X21062301Y-13941470D01*
X21133730Y-13941470D01*
X21162301Y-13955756D01*
X21176587Y-13970041D01*
X21190873Y-13998613D01*
X21190873Y-14070041D01*
X21176587Y-14098613D01*
X21162301Y-14112899D01*
X21133730Y-14127184D01*
X21062301Y-14127184D01*
X21033730Y-14112899D01*
X21019444Y-14098613D01*
X21448016Y-13927184D02*
X21448016Y-14127184D01*
X21376587Y-13812899D02*
X21305158Y-14027184D01*
X21490873Y-14027184D01*
X21605158Y-14127184D02*
X21605158Y-13927184D01*
X21605158Y-13955756D02*
X21619444Y-13941470D01*
X21648016Y-13927184D01*
X21690873Y-13927184D01*
X21719444Y-13941470D01*
X21733730Y-13970041D01*
X21733730Y-14127184D01*
X21733730Y-13970041D02*
X21748016Y-13941470D01*
X21776587Y-13927184D01*
X21819444Y-13927184D01*
X21848016Y-13941470D01*
X21862301Y-13970041D01*
X21862301Y-14127184D01*
X22005158Y-14127184D02*
X22005158Y-13927184D01*
X22005158Y-13955756D02*
X22019444Y-13941470D01*
X22048016Y-13927184D01*
X22090873Y-13927184D01*
X22119444Y-13941470D01*
X22133730Y-13970041D01*
X22133730Y-14127184D01*
X22133730Y-13970041D02*
X22148016Y-13941470D01*
X22176587Y-13927184D01*
X22219444Y-13927184D01*
X22248016Y-13941470D01*
X22262301Y-13970041D01*
X22262301Y-14127184D01*
X22848016Y-13812899D02*
X22590873Y-14198613D01*
X23233730Y-13827184D02*
X23262301Y-13827184D01*
X23290873Y-13841470D01*
X23305158Y-13855756D01*
X23319444Y-13884327D01*
X23333730Y-13941470D01*
X23333730Y-14012899D01*
X23319444Y-14070041D01*
X23305158Y-14098613D01*
X23290873Y-14112899D01*
X23262301Y-14127184D01*
X23233730Y-14127184D01*
X23205158Y-14112899D01*
X23190873Y-14098613D01*
X23176587Y-14070041D01*
X23162301Y-14012899D01*
X23162301Y-13941470D01*
X23176587Y-13884327D01*
X23190873Y-13855756D01*
X23205158Y-13841470D01*
X23233730Y-13827184D01*
X23462301Y-14098613D02*
X23476587Y-14112899D01*
X23462301Y-14127184D01*
X23448016Y-14112899D01*
X23462301Y-14098613D01*
X23462301Y-14127184D01*
X23762301Y-14127184D02*
X23590873Y-14127184D01*
X23676587Y-14127184D02*
X23676587Y-13827184D01*
X23648016Y-13870041D01*
X23619444Y-13898613D01*
X23590873Y-13912899D01*
X23948016Y-13827184D02*
X23976587Y-13827184D01*
X24005158Y-13841470D01*
X24019444Y-13855756D01*
X24033730Y-13884327D01*
X24048016Y-13941470D01*
X24048016Y-14012899D01*
X24033730Y-14070041D01*
X24019444Y-14098613D01*
X24005158Y-14112899D01*
X23976587Y-14127184D01*
X23948016Y-14127184D01*
X23919444Y-14112899D01*
X23905158Y-14098613D01*
X23890873Y-14070041D01*
X23876587Y-14012899D01*
X23876587Y-13941470D01*
X23890873Y-13884327D01*
X23905158Y-13855756D01*
X23919444Y-13841470D01*
X23948016Y-13827184D01*
X24233730Y-13827184D02*
X24262301Y-13827184D01*
X24290873Y-13841470D01*
X24305158Y-13855756D01*
X24319444Y-13884327D01*
X24333730Y-13941470D01*
X24333730Y-14012899D01*
X24319444Y-14070041D01*
X24305158Y-14098613D01*
X24290873Y-14112899D01*
X24262301Y-14127184D01*
X24233730Y-14127184D01*
X24205158Y-14112899D01*
X24190873Y-14098613D01*
X24176587Y-14070041D01*
X24162301Y-14012899D01*
X24162301Y-13941470D01*
X24176587Y-13884327D01*
X24190873Y-13855756D01*
X24205158Y-13841470D01*
X24233730Y-13827184D01*
X24448016Y-13827184D02*
X24448016Y-13884327D01*
X24562301Y-13827184D02*
X24562301Y-13884327D01*
X25005158Y-14241470D02*
X24990873Y-14227184D01*
X24962301Y-14184327D01*
X24948016Y-14155756D01*
X24933730Y-14112899D01*
X24919444Y-14041470D01*
X24919444Y-13984327D01*
X24933730Y-13912899D01*
X24948016Y-13870041D01*
X24962301Y-13841470D01*
X24990873Y-13798613D01*
X25005158Y-13784327D01*
X25105158Y-13855756D02*
X25119444Y-13841470D01*
X25148016Y-13827184D01*
X25219444Y-13827184D01*
X25248016Y-13841470D01*
X25262301Y-13855756D01*
X25276587Y-13884327D01*
X25276587Y-13912899D01*
X25262301Y-13955756D01*
X25090873Y-14127184D01*
X25276587Y-14127184D01*
X25633730Y-14127184D02*
X25633730Y-13827184D01*
X25762301Y-14127184D02*
X25762301Y-13970041D01*
X25748016Y-13941470D01*
X25719444Y-13927184D01*
X25676587Y-13927184D01*
X25648016Y-13941470D01*
X25633730Y-13955756D01*
X25948016Y-14127184D02*
X25919444Y-14112899D01*
X25905158Y-14098613D01*
X25890873Y-14070041D01*
X25890873Y-13984327D01*
X25905158Y-13955756D01*
X25919444Y-13941470D01*
X25948016Y-13927184D01*
X25990873Y-13927184D01*
X26019444Y-13941470D01*
X26033730Y-13955756D01*
X26048016Y-13984327D01*
X26048016Y-14070041D01*
X26033730Y-14098613D01*
X26019444Y-14112899D01*
X25990873Y-14127184D01*
X25948016Y-14127184D01*
X26219444Y-14127184D02*
X26190873Y-14112899D01*
X26176587Y-14084327D01*
X26176587Y-13827184D01*
X26448016Y-14112899D02*
X26419444Y-14127184D01*
X26362301Y-14127184D01*
X26333730Y-14112899D01*
X26319444Y-14084327D01*
X26319444Y-13970041D01*
X26333730Y-13941470D01*
X26362301Y-13927184D01*
X26419444Y-13927184D01*
X26448016Y-13941470D01*
X26462301Y-13970041D01*
X26462301Y-13998613D01*
X26319444Y-14027184D01*
X26576587Y-14112899D02*
X26605158Y-14127184D01*
X26662301Y-14127184D01*
X26690873Y-14112899D01*
X26705158Y-14084327D01*
X26705158Y-14070041D01*
X26690873Y-14041470D01*
X26662301Y-14027184D01*
X26619444Y-14027184D01*
X26590873Y-14012899D01*
X26576587Y-13984327D01*
X26576587Y-13970041D01*
X26590873Y-13941470D01*
X26619444Y-13927184D01*
X26662301Y-13927184D01*
X26690873Y-13941470D01*
X26805158Y-14241470D02*
X26819444Y-14227184D01*
X26848016Y-14184327D01*
X26862301Y-14155756D01*
X26876587Y-14112899D01*
X26890873Y-14041470D01*
X26890873Y-13984327D01*
X26876587Y-13912899D01*
X26862301Y-13870041D01*
X26848016Y-13841470D01*
X26819444Y-13798613D01*
X26805158Y-13784327D01*
X27348016Y-14241470D02*
X27333730Y-14227184D01*
X27305158Y-14184327D01*
X27290873Y-14155756D01*
X27276587Y-14112899D01*
X27262301Y-14041470D01*
X27262301Y-13984327D01*
X27276587Y-13912899D01*
X27290873Y-13870041D01*
X27305158Y-13841470D01*
X27333730Y-13798613D01*
X27348016Y-13784327D01*
X27462301Y-13927184D02*
X27462301Y-14127184D01*
X27462301Y-13955756D02*
X27476587Y-13941470D01*
X27505158Y-13927184D01*
X27548016Y-13927184D01*
X27576587Y-13941470D01*
X27590873Y-13970041D01*
X27590873Y-14127184D01*
X27776587Y-14127184D02*
X27748016Y-14112899D01*
X27733730Y-14098613D01*
X27719444Y-14070041D01*
X27719444Y-13984327D01*
X27733730Y-13955756D01*
X27748016Y-13941470D01*
X27776587Y-13927184D01*
X27819444Y-13927184D01*
X27848016Y-13941470D01*
X27862301Y-13955756D01*
X27876587Y-13984327D01*
X27876587Y-14070041D01*
X27862301Y-14098613D01*
X27848016Y-14112899D01*
X27819444Y-14127184D01*
X27776587Y-14127184D01*
X27962301Y-13927184D02*
X28076587Y-13927184D01*
X28005158Y-13827184D02*
X28005158Y-14084327D01*
X28019444Y-14112899D01*
X28048016Y-14127184D01*
X28076587Y-14127184D01*
X28405158Y-13927184D02*
X28405158Y-14227184D01*
X28405158Y-13941470D02*
X28433730Y-13927184D01*
X28490873Y-13927184D01*
X28519444Y-13941470D01*
X28533730Y-13955756D01*
X28548016Y-13984327D01*
X28548016Y-14070041D01*
X28533730Y-14098613D01*
X28519444Y-14112899D01*
X28490873Y-14127184D01*
X28433730Y-14127184D01*
X28405158Y-14112899D01*
X28719444Y-14127184D02*
X28690873Y-14112899D01*
X28676587Y-14084327D01*
X28676587Y-13827184D01*
X28962301Y-14127184D02*
X28962301Y-13970041D01*
X28948016Y-13941470D01*
X28919444Y-13927184D01*
X28862301Y-13927184D01*
X28833730Y-13941470D01*
X28962301Y-14112899D02*
X28933730Y-14127184D01*
X28862301Y-14127184D01*
X28833730Y-14112899D01*
X28819444Y-14084327D01*
X28819444Y-14055756D01*
X28833730Y-14027184D01*
X28862301Y-14012899D01*
X28933730Y-14012899D01*
X28962301Y-13998613D01*
X29062301Y-13927184D02*
X29176587Y-13927184D01*
X29105158Y-13827184D02*
X29105158Y-14084327D01*
X29119444Y-14112899D01*
X29148016Y-14127184D01*
X29176587Y-14127184D01*
X29390873Y-14112899D02*
X29362301Y-14127184D01*
X29305158Y-14127184D01*
X29276587Y-14112899D01*
X29262301Y-14084327D01*
X29262301Y-13970041D01*
X29276587Y-13941470D01*
X29305158Y-13927184D01*
X29362301Y-13927184D01*
X29390873Y-13941470D01*
X29405158Y-13970041D01*
X29405158Y-13998613D01*
X29262301Y-14027184D01*
X29662301Y-14127184D02*
X29662301Y-13827184D01*
X29662301Y-14112899D02*
X29633730Y-14127184D01*
X29576587Y-14127184D01*
X29548016Y-14112899D01*
X29533730Y-14098613D01*
X29519444Y-14070041D01*
X29519444Y-13984327D01*
X29533730Y-13955756D01*
X29548016Y-13941470D01*
X29576587Y-13927184D01*
X29633730Y-13927184D01*
X29662301Y-13941470D01*
X29776587Y-14241470D02*
X29790873Y-14227184D01*
X29819444Y-14184327D01*
X29833730Y-14155756D01*
X29848016Y-14112899D01*
X29862301Y-14041470D01*
X29862301Y-13984327D01*
X29848016Y-13912899D01*
X29833730Y-13870041D01*
X29819444Y-13841470D01*
X29790873Y-13798613D01*
X29776587Y-13784327D01*
M02*
