M48
; DRILL file {KiCad (5.1.8-0-10_14)} date Friday, August 13, 2021 at 08:40:52 PM
; FORMAT={-:-/ absolute / metric / decimal}
; #@! TF.CreationDate,2021-08-13T20:40:52-06:00
; #@! TF.GenerationSoftware,Kicad,Pcbnew,(5.1.8-0-10_14)
; #@! TF.FileFunction,Plated,1,4,PTH
FMAT,2
METRIC
T1C0.381
T2C0.800
T3C1.000
T4C1.200
T5C1.300
%
G90
G05
T1
X204.927Y-84.531
X204.927Y-85.954
X205.537Y-110.642
X205.74Y-116.535
X206.146Y-85.954
X207.366Y-90.018
X207.366Y-104.699
X207.416Y-103.429
X208.686Y-89.967
X210.007Y-89.967
X210.16Y-104.851
X210.21Y-103.429
X211.328Y-89.967
X211.48Y-103.429
X211.48Y-104.851
X211.633Y-84.125
X212.598Y-89.916
X212.734Y-112.455
X213.157Y-104.14
X213.157Y-105.562
X213.157Y-107.086
X213.919Y-84.125
X213.97Y-86.004
X214.02Y-89.916
X214.071Y-88.24
X214.224Y-92.304
X217.983Y-110.033
X219.71Y-108.407
X219.812Y-106.883
X219.862Y-105.054
X219.913Y-103.48
X220.624Y-89.931
X221.386Y-92.304
X222.946Y-98.262
X225.414Y-85.431
X227.46Y-95.888
X230.332Y-84.07
X232.55Y-97.879
X234.594Y-91.567
X234.793Y-84.07
X234.879Y-94.57
X234.994Y-96.07
X238.887Y-89.713
X238.912Y-86.589
X238.938Y-88.214
X238.989Y-85.268
X242.4Y-87.495
X245.135Y-91.186
X245.253Y-84.547
X245.288Y-102.286
X245.313Y-99.822
X247.802Y-84.074
X247.978Y-91.57
X251.917Y-88.57
X252.016Y-85.57
X252.116Y-84.07
X252.143Y-91.57
T2
X209.742Y-118.212
X212.242Y-118.212
X217.475Y-118.212
X219.975Y-118.212
T3
X228.143Y-108.458
X228.143Y-110.998
X228.143Y-113.538
X228.143Y-116.078
X228.143Y-118.618
X228.143Y-121.158
X254.965Y-85.242
X254.965Y-87.782
X254.965Y-90.322
X254.965Y-92.862
X254.965Y-95.402
X254.965Y-97.942
T4
X214.884Y-126.644
X219.884Y-126.644
X252.984Y-106.832
X252.984Y-111.832
T5
X234.493Y-126.594
X239.493Y-126.594
X244.493Y-126.594
T0
M30
