G04 #@! TF.GenerationSoftware,KiCad,Pcbnew,(5.1.8-0-10_14)*
G04 #@! TF.CreationDate,2021-08-13T20:39:07-06:00*
G04 #@! TF.ProjectId,ESP8266_Water_Sensor,45535038-3236-4365-9f57-617465725f53,rev?*
G04 #@! TF.SameCoordinates,Original*
G04 #@! TF.FileFunction,Soldermask,Top*
G04 #@! TF.FilePolarity,Negative*
%FSLAX46Y46*%
G04 Gerber Fmt 4.6, Leading zero omitted, Abs format (unit mm)*
G04 Created by KiCad (PCBNEW (5.1.8-0-10_14)) date 2021-08-13 20:39:07*
%MOMM*%
%LPD*%
G01*
G04 APERTURE LIST*
%ADD10C,3.716000*%
%ADD11O,1.801600X1.801600*%
%ADD12C,1.901600*%
%ADD13C,2.051600*%
%ADD14C,1.701600*%
G04 APERTURE END LIST*
D10*
X252730000Y-125730000D03*
G36*
G01*
X233300000Y-84570400D02*
X231800000Y-84570400D01*
G75*
G02*
X231749200Y-84519600I0J50800D01*
G01*
X231749200Y-83619600D01*
G75*
G02*
X231800000Y-83568800I50800J0D01*
G01*
X233300000Y-83568800D01*
G75*
G02*
X233350800Y-83619600I0J-50800D01*
G01*
X233350800Y-84519600D01*
G75*
G02*
X233300000Y-84570400I-50800J0D01*
G01*
G37*
G36*
G01*
X233300000Y-86070400D02*
X231800000Y-86070400D01*
G75*
G02*
X231749200Y-86019600I0J50800D01*
G01*
X231749200Y-85119600D01*
G75*
G02*
X231800000Y-85068800I50800J0D01*
G01*
X233300000Y-85068800D01*
G75*
G02*
X233350800Y-85119600I0J-50800D01*
G01*
X233350800Y-86019600D01*
G75*
G02*
X233300000Y-86070400I-50800J0D01*
G01*
G37*
G36*
G01*
X233300000Y-87570400D02*
X231800000Y-87570400D01*
G75*
G02*
X231749200Y-87519600I0J50800D01*
G01*
X231749200Y-86619600D01*
G75*
G02*
X231800000Y-86568800I50800J0D01*
G01*
X233300000Y-86568800D01*
G75*
G02*
X233350800Y-86619600I0J-50800D01*
G01*
X233350800Y-87519600D01*
G75*
G02*
X233300000Y-87570400I-50800J0D01*
G01*
G37*
G36*
G01*
X233300000Y-89070400D02*
X231800000Y-89070400D01*
G75*
G02*
X231749200Y-89019600I0J50800D01*
G01*
X231749200Y-88119600D01*
G75*
G02*
X231800000Y-88068800I50800J0D01*
G01*
X233300000Y-88068800D01*
G75*
G02*
X233350800Y-88119600I0J-50800D01*
G01*
X233350800Y-89019600D01*
G75*
G02*
X233300000Y-89070400I-50800J0D01*
G01*
G37*
G36*
G01*
X233300000Y-90570400D02*
X231800000Y-90570400D01*
G75*
G02*
X231749200Y-90519600I0J50800D01*
G01*
X231749200Y-89619600D01*
G75*
G02*
X231800000Y-89568800I50800J0D01*
G01*
X233300000Y-89568800D01*
G75*
G02*
X233350800Y-89619600I0J-50800D01*
G01*
X233350800Y-90519600D01*
G75*
G02*
X233300000Y-90570400I-50800J0D01*
G01*
G37*
G36*
G01*
X233300000Y-92070400D02*
X231800000Y-92070400D01*
G75*
G02*
X231749200Y-92019600I0J50800D01*
G01*
X231749200Y-91119600D01*
G75*
G02*
X231800000Y-91068800I50800J0D01*
G01*
X233300000Y-91068800D01*
G75*
G02*
X233350800Y-91119600I0J-50800D01*
G01*
X233350800Y-92019600D01*
G75*
G02*
X233300000Y-92070400I-50800J0D01*
G01*
G37*
G36*
G01*
X233300000Y-93570400D02*
X231800000Y-93570400D01*
G75*
G02*
X231749200Y-93519600I0J50800D01*
G01*
X231749200Y-92619600D01*
G75*
G02*
X231800000Y-92568800I50800J0D01*
G01*
X233300000Y-92568800D01*
G75*
G02*
X233350800Y-92619600I0J-50800D01*
G01*
X233350800Y-93519600D01*
G75*
G02*
X233300000Y-93570400I-50800J0D01*
G01*
G37*
G36*
G01*
X233300000Y-95070400D02*
X231800000Y-95070400D01*
G75*
G02*
X231749200Y-95019600I0J50800D01*
G01*
X231749200Y-94119600D01*
G75*
G02*
X231800000Y-94068800I50800J0D01*
G01*
X233300000Y-94068800D01*
G75*
G02*
X233350800Y-94119600I0J-50800D01*
G01*
X233350800Y-95019600D01*
G75*
G02*
X233300000Y-95070400I-50800J0D01*
G01*
G37*
G36*
G01*
X233300000Y-96570400D02*
X231800000Y-96570400D01*
G75*
G02*
X231749200Y-96519600I0J50800D01*
G01*
X231749200Y-95619600D01*
G75*
G02*
X231800000Y-95568800I50800J0D01*
G01*
X233300000Y-95568800D01*
G75*
G02*
X233350800Y-95619600I0J-50800D01*
G01*
X233350800Y-96519600D01*
G75*
G02*
X233300000Y-96570400I-50800J0D01*
G01*
G37*
G36*
G01*
X250800000Y-96570400D02*
X249300000Y-96570400D01*
G75*
G02*
X249249200Y-96519600I0J50800D01*
G01*
X249249200Y-95619600D01*
G75*
G02*
X249300000Y-95568800I50800J0D01*
G01*
X250800000Y-95568800D01*
G75*
G02*
X250850800Y-95619600I0J-50800D01*
G01*
X250850800Y-96519600D01*
G75*
G02*
X250800000Y-96570400I-50800J0D01*
G01*
G37*
G36*
G01*
X250800000Y-95070400D02*
X249300000Y-95070400D01*
G75*
G02*
X249249200Y-95019600I0J50800D01*
G01*
X249249200Y-94119600D01*
G75*
G02*
X249300000Y-94068800I50800J0D01*
G01*
X250800000Y-94068800D01*
G75*
G02*
X250850800Y-94119600I0J-50800D01*
G01*
X250850800Y-95019600D01*
G75*
G02*
X250800000Y-95070400I-50800J0D01*
G01*
G37*
G36*
G01*
X250800000Y-93570400D02*
X249300000Y-93570400D01*
G75*
G02*
X249249200Y-93519600I0J50800D01*
G01*
X249249200Y-92619600D01*
G75*
G02*
X249300000Y-92568800I50800J0D01*
G01*
X250800000Y-92568800D01*
G75*
G02*
X250850800Y-92619600I0J-50800D01*
G01*
X250850800Y-93519600D01*
G75*
G02*
X250800000Y-93570400I-50800J0D01*
G01*
G37*
G36*
G01*
X250800000Y-92070400D02*
X249300000Y-92070400D01*
G75*
G02*
X249249200Y-92019600I0J50800D01*
G01*
X249249200Y-91119600D01*
G75*
G02*
X249300000Y-91068800I50800J0D01*
G01*
X250800000Y-91068800D01*
G75*
G02*
X250850800Y-91119600I0J-50800D01*
G01*
X250850800Y-92019600D01*
G75*
G02*
X250800000Y-92070400I-50800J0D01*
G01*
G37*
G36*
G01*
X250800000Y-90570400D02*
X249300000Y-90570400D01*
G75*
G02*
X249249200Y-90519600I0J50800D01*
G01*
X249249200Y-89619600D01*
G75*
G02*
X249300000Y-89568800I50800J0D01*
G01*
X250800000Y-89568800D01*
G75*
G02*
X250850800Y-89619600I0J-50800D01*
G01*
X250850800Y-90519600D01*
G75*
G02*
X250800000Y-90570400I-50800J0D01*
G01*
G37*
G36*
G01*
X250800000Y-89070400D02*
X249300000Y-89070400D01*
G75*
G02*
X249249200Y-89019600I0J50800D01*
G01*
X249249200Y-88119600D01*
G75*
G02*
X249300000Y-88068800I50800J0D01*
G01*
X250800000Y-88068800D01*
G75*
G02*
X250850800Y-88119600I0J-50800D01*
G01*
X250850800Y-89019600D01*
G75*
G02*
X250800000Y-89070400I-50800J0D01*
G01*
G37*
G36*
G01*
X250800000Y-87570400D02*
X249300000Y-87570400D01*
G75*
G02*
X249249200Y-87519600I0J50800D01*
G01*
X249249200Y-86619600D01*
G75*
G02*
X249300000Y-86568800I50800J0D01*
G01*
X250800000Y-86568800D01*
G75*
G02*
X250850800Y-86619600I0J-50800D01*
G01*
X250850800Y-87519600D01*
G75*
G02*
X250800000Y-87570400I-50800J0D01*
G01*
G37*
G36*
G01*
X250800000Y-86070400D02*
X249300000Y-86070400D01*
G75*
G02*
X249249200Y-86019600I0J50800D01*
G01*
X249249200Y-85119600D01*
G75*
G02*
X249300000Y-85068800I50800J0D01*
G01*
X250800000Y-85068800D01*
G75*
G02*
X250850800Y-85119600I0J-50800D01*
G01*
X250850800Y-86019600D01*
G75*
G02*
X250800000Y-86070400I-50800J0D01*
G01*
G37*
G36*
G01*
X250800000Y-84570400D02*
X249300000Y-84570400D01*
G75*
G02*
X249249200Y-84519600I0J50800D01*
G01*
X249249200Y-83619600D01*
G75*
G02*
X249300000Y-83568800I50800J0D01*
G01*
X250800000Y-83568800D01*
G75*
G02*
X250850800Y-83619600I0J-50800D01*
G01*
X250850800Y-84519600D01*
G75*
G02*
X250800000Y-84570400I-50800J0D01*
G01*
G37*
G36*
G01*
X244400000Y-92730400D02*
X240400000Y-92730400D01*
G75*
G02*
X240349200Y-92679600I0J50800D01*
G01*
X240349200Y-88679600D01*
G75*
G02*
X240400000Y-88628800I50800J0D01*
G01*
X244400000Y-88628800D01*
G75*
G02*
X244450800Y-88679600I0J-50800D01*
G01*
X244450800Y-92679600D01*
G75*
G02*
X244400000Y-92730400I-50800J0D01*
G01*
G37*
G36*
G01*
X208631783Y-86672000D02*
X207623417Y-86672000D01*
G75*
G02*
X207351800Y-86400383I0J271617D01*
G01*
X207351800Y-85667017D01*
G75*
G02*
X207623417Y-85395400I271617J0D01*
G01*
X208631783Y-85395400D01*
G75*
G02*
X208903400Y-85667017I0J-271617D01*
G01*
X208903400Y-86400383D01*
G75*
G02*
X208631783Y-86672000I-271617J0D01*
G01*
G37*
G36*
G01*
X208631783Y-88747000D02*
X207623417Y-88747000D01*
G75*
G02*
X207351800Y-88475383I0J271617D01*
G01*
X207351800Y-87742017D01*
G75*
G02*
X207623417Y-87470400I271617J0D01*
G01*
X208631783Y-87470400D01*
G75*
G02*
X208903400Y-87742017I0J-271617D01*
G01*
X208903400Y-88475383D01*
G75*
G02*
X208631783Y-88747000I-271617J0D01*
G01*
G37*
G36*
G01*
X215032583Y-101853400D02*
X214024217Y-101853400D01*
G75*
G02*
X213752600Y-101581783I0J271617D01*
G01*
X213752600Y-100848417D01*
G75*
G02*
X214024217Y-100576800I271617J0D01*
G01*
X215032583Y-100576800D01*
G75*
G02*
X215304200Y-100848417I0J-271617D01*
G01*
X215304200Y-101581783D01*
G75*
G02*
X215032583Y-101853400I-271617J0D01*
G01*
G37*
G36*
G01*
X215032583Y-99778400D02*
X214024217Y-99778400D01*
G75*
G02*
X213752600Y-99506783I0J271617D01*
G01*
X213752600Y-98773417D01*
G75*
G02*
X214024217Y-98501800I271617J0D01*
G01*
X215032583Y-98501800D01*
G75*
G02*
X215304200Y-98773417I0J-271617D01*
G01*
X215304200Y-99506783D01*
G75*
G02*
X215032583Y-99778400I-271617J0D01*
G01*
G37*
G36*
G01*
X216553200Y-107793783D02*
X216553200Y-106785417D01*
G75*
G02*
X216824817Y-106513800I271617J0D01*
G01*
X217558183Y-106513800D01*
G75*
G02*
X217829800Y-106785417I0J-271617D01*
G01*
X217829800Y-107793783D01*
G75*
G02*
X217558183Y-108065400I-271617J0D01*
G01*
X216824817Y-108065400D01*
G75*
G02*
X216553200Y-107793783I0J271617D01*
G01*
G37*
G36*
G01*
X214478200Y-107793783D02*
X214478200Y-106785417D01*
G75*
G02*
X214749817Y-106513800I271617J0D01*
G01*
X215483183Y-106513800D01*
G75*
G02*
X215754800Y-106785417I0J-271617D01*
G01*
X215754800Y-107793783D01*
G75*
G02*
X215483183Y-108065400I-271617J0D01*
G01*
X214749817Y-108065400D01*
G75*
G02*
X214478200Y-107793783I0J271617D01*
G01*
G37*
G36*
G01*
X215261700Y-110486183D02*
X215261700Y-109477817D01*
G75*
G02*
X215533317Y-109206200I271617J0D01*
G01*
X216266683Y-109206200D01*
G75*
G02*
X216538300Y-109477817I0J-271617D01*
G01*
X216538300Y-110486183D01*
G75*
G02*
X216266683Y-110757800I-271617J0D01*
G01*
X215533317Y-110757800D01*
G75*
G02*
X215261700Y-110486183I0J271617D01*
G01*
G37*
G36*
G01*
X213186700Y-110486183D02*
X213186700Y-109477817D01*
G75*
G02*
X213458317Y-109206200I271617J0D01*
G01*
X214191683Y-109206200D01*
G75*
G02*
X214463300Y-109477817I0J-271617D01*
G01*
X214463300Y-110486183D01*
G75*
G02*
X214191683Y-110757800I-271617J0D01*
G01*
X213458317Y-110757800D01*
G75*
G02*
X213186700Y-110486183I0J271617D01*
G01*
G37*
G36*
G01*
X207623417Y-109931800D02*
X208631783Y-109931800D01*
G75*
G02*
X208903400Y-110203417I0J-271617D01*
G01*
X208903400Y-110936783D01*
G75*
G02*
X208631783Y-111208400I-271617J0D01*
G01*
X207623417Y-111208400D01*
G75*
G02*
X207351800Y-110936783I0J271617D01*
G01*
X207351800Y-110203417D01*
G75*
G02*
X207623417Y-109931800I271617J0D01*
G01*
G37*
G36*
G01*
X207623417Y-112006800D02*
X208631783Y-112006800D01*
G75*
G02*
X208903400Y-112278417I0J-271617D01*
G01*
X208903400Y-113011783D01*
G75*
G02*
X208631783Y-113283400I-271617J0D01*
G01*
X207623417Y-113283400D01*
G75*
G02*
X207351800Y-113011783I0J271617D01*
G01*
X207351800Y-112278417D01*
G75*
G02*
X207623417Y-112006800I271617J0D01*
G01*
G37*
G36*
G01*
X247809600Y-99317817D02*
X247809600Y-100326183D01*
G75*
G02*
X247537983Y-100597800I-271617J0D01*
G01*
X246804617Y-100597800D01*
G75*
G02*
X246533000Y-100326183I0J271617D01*
G01*
X246533000Y-99317817D01*
G75*
G02*
X246804617Y-99046200I271617J0D01*
G01*
X247537983Y-99046200D01*
G75*
G02*
X247809600Y-99317817I0J-271617D01*
G01*
G37*
G36*
G01*
X249884600Y-99317817D02*
X249884600Y-100326183D01*
G75*
G02*
X249612983Y-100597800I-271617J0D01*
G01*
X248879617Y-100597800D01*
G75*
G02*
X248608000Y-100326183I0J271617D01*
G01*
X248608000Y-99317817D01*
G75*
G02*
X248879617Y-99046200I271617J0D01*
G01*
X249612983Y-99046200D01*
G75*
G02*
X249884600Y-99317817I0J-271617D01*
G01*
G37*
G36*
G01*
X227242000Y-109308000D02*
X227242000Y-107608000D01*
G75*
G02*
X227292800Y-107557200I50800J0D01*
G01*
X228992800Y-107557200D01*
G75*
G02*
X229043600Y-107608000I0J-50800D01*
G01*
X229043600Y-109308000D01*
G75*
G02*
X228992800Y-109358800I-50800J0D01*
G01*
X227292800Y-109358800D01*
G75*
G02*
X227242000Y-109308000I0J50800D01*
G01*
G37*
D11*
X228142800Y-110998000D03*
X228142800Y-113538000D03*
X228142800Y-116078000D03*
X228142800Y-118618000D03*
X228142800Y-121158000D03*
D12*
X219884000Y-126644400D03*
G36*
G01*
X213933200Y-127544400D02*
X213933200Y-125744400D01*
G75*
G02*
X213984000Y-125693600I50800J0D01*
G01*
X215784000Y-125693600D01*
G75*
G02*
X215834800Y-125744400I0J-50800D01*
G01*
X215834800Y-127544400D01*
G75*
G02*
X215784000Y-127595200I-50800J0D01*
G01*
X213984000Y-127595200D01*
G75*
G02*
X213933200Y-127544400I0J50800D01*
G01*
G37*
G36*
G01*
X252084000Y-105881600D02*
X253884000Y-105881600D01*
G75*
G02*
X253934800Y-105932400I0J-50800D01*
G01*
X253934800Y-107732400D01*
G75*
G02*
X253884000Y-107783200I-50800J0D01*
G01*
X252084000Y-107783200D01*
G75*
G02*
X252033200Y-107732400I0J50800D01*
G01*
X252033200Y-105932400D01*
G75*
G02*
X252084000Y-105881600I50800J0D01*
G01*
G37*
X252984000Y-111832400D03*
D11*
X254965200Y-97942400D03*
X254965200Y-95402400D03*
X254965200Y-92862400D03*
X254965200Y-90322400D03*
X254965200Y-87782400D03*
G36*
G01*
X254064400Y-86092400D02*
X254064400Y-84392400D01*
G75*
G02*
X254115200Y-84341600I50800J0D01*
G01*
X255815200Y-84341600D01*
G75*
G02*
X255866000Y-84392400I0J-50800D01*
G01*
X255866000Y-86092400D01*
G75*
G02*
X255815200Y-86143200I-50800J0D01*
G01*
X254115200Y-86143200D01*
G75*
G02*
X254064400Y-86092400I0J50800D01*
G01*
G37*
G36*
G01*
X207106400Y-93136400D02*
X207106400Y-91536400D01*
G75*
G02*
X207157200Y-91485600I50800J0D01*
G01*
X212857200Y-91485600D01*
G75*
G02*
X212908000Y-91536400I0J-50800D01*
G01*
X212908000Y-93136400D01*
G75*
G02*
X212857200Y-93187200I-50800J0D01*
G01*
X207157200Y-93187200D01*
G75*
G02*
X207106400Y-93136400I0J50800D01*
G01*
G37*
G36*
G01*
X207106400Y-97836400D02*
X207106400Y-96236400D01*
G75*
G02*
X207157200Y-96185600I50800J0D01*
G01*
X212857200Y-96185600D01*
G75*
G02*
X212908000Y-96236400I0J-50800D01*
G01*
X212908000Y-97836400D01*
G75*
G02*
X212857200Y-97887200I-50800J0D01*
G01*
X207157200Y-97887200D01*
G75*
G02*
X207106400Y-97836400I0J50800D01*
G01*
G37*
G36*
G01*
X204955565Y-101187200D02*
X205914835Y-101187200D01*
G75*
G02*
X206186000Y-101458365I0J-271165D01*
G01*
X206186000Y-102217635D01*
G75*
G02*
X205914835Y-102488800I-271165J0D01*
G01*
X204955565Y-102488800D01*
G75*
G02*
X204684400Y-102217635I0J271165D01*
G01*
X204684400Y-101458365D01*
G75*
G02*
X204955565Y-101187200I271165J0D01*
G01*
G37*
G36*
G01*
X204955565Y-99187200D02*
X205914835Y-99187200D01*
G75*
G02*
X206186000Y-99458365I0J-271165D01*
G01*
X206186000Y-100217635D01*
G75*
G02*
X205914835Y-100488800I-271165J0D01*
G01*
X204955565Y-100488800D01*
G75*
G02*
X204684400Y-100217635I0J271165D01*
G01*
X204684400Y-99458365D01*
G75*
G02*
X204955565Y-99187200I271165J0D01*
G01*
G37*
G36*
G01*
X205057165Y-108451600D02*
X206016435Y-108451600D01*
G75*
G02*
X206287600Y-108722765I0J-271165D01*
G01*
X206287600Y-109482035D01*
G75*
G02*
X206016435Y-109753200I-271165J0D01*
G01*
X205057165Y-109753200D01*
G75*
G02*
X204786000Y-109482035I0J271165D01*
G01*
X204786000Y-108722765D01*
G75*
G02*
X205057165Y-108451600I271165J0D01*
G01*
G37*
G36*
G01*
X205057165Y-106451600D02*
X206016435Y-106451600D01*
G75*
G02*
X206287600Y-106722765I0J-271165D01*
G01*
X206287600Y-107482035D01*
G75*
G02*
X206016435Y-107753200I-271165J0D01*
G01*
X205057165Y-107753200D01*
G75*
G02*
X204786000Y-107482035I0J271165D01*
G01*
X204786000Y-106722765D01*
G75*
G02*
X205057165Y-106451600I271165J0D01*
G01*
G37*
G36*
G01*
X211147235Y-113106000D02*
X210187965Y-113106000D01*
G75*
G02*
X209916800Y-112834835I0J271165D01*
G01*
X209916800Y-112075565D01*
G75*
G02*
X210187965Y-111804400I271165J0D01*
G01*
X211147235Y-111804400D01*
G75*
G02*
X211418400Y-112075565I0J-271165D01*
G01*
X211418400Y-112834835D01*
G75*
G02*
X211147235Y-113106000I-271165J0D01*
G01*
G37*
G36*
G01*
X211147235Y-111106000D02*
X210187965Y-111106000D01*
G75*
G02*
X209916800Y-110834835I0J271165D01*
G01*
X209916800Y-110075565D01*
G75*
G02*
X210187965Y-109804400I271165J0D01*
G01*
X211147235Y-109804400D01*
G75*
G02*
X211418400Y-110075565I0J-271165D01*
G01*
X211418400Y-110834835D01*
G75*
G02*
X211147235Y-111106000I-271165J0D01*
G01*
G37*
G36*
G01*
X205260365Y-114192000D02*
X206219635Y-114192000D01*
G75*
G02*
X206490800Y-114463165I0J-271165D01*
G01*
X206490800Y-115222435D01*
G75*
G02*
X206219635Y-115493600I-271165J0D01*
G01*
X205260365Y-115493600D01*
G75*
G02*
X204989200Y-115222435I0J271165D01*
G01*
X204989200Y-114463165D01*
G75*
G02*
X205260365Y-114192000I271165J0D01*
G01*
G37*
G36*
G01*
X205260365Y-112192000D02*
X206219635Y-112192000D01*
G75*
G02*
X206490800Y-112463165I0J-271165D01*
G01*
X206490800Y-113222435D01*
G75*
G02*
X206219635Y-113493600I-271165J0D01*
G01*
X205260365Y-113493600D01*
G75*
G02*
X204989200Y-113222435I0J271165D01*
G01*
X204989200Y-112463165D01*
G75*
G02*
X205260365Y-112192000I271165J0D01*
G01*
G37*
G36*
G01*
X246532600Y-102765435D02*
X246532600Y-101806165D01*
G75*
G02*
X246803765Y-101535000I271165J0D01*
G01*
X247563035Y-101535000D01*
G75*
G02*
X247834200Y-101806165I0J-271165D01*
G01*
X247834200Y-102765435D01*
G75*
G02*
X247563035Y-103036600I-271165J0D01*
G01*
X246803765Y-103036600D01*
G75*
G02*
X246532600Y-102765435I0J271165D01*
G01*
G37*
G36*
G01*
X248532600Y-102765435D02*
X248532600Y-101806165D01*
G75*
G02*
X248803765Y-101535000I271165J0D01*
G01*
X249563035Y-101535000D01*
G75*
G02*
X249834200Y-101806165I0J-271165D01*
G01*
X249834200Y-102765435D01*
G75*
G02*
X249563035Y-103036600I-271165J0D01*
G01*
X248803765Y-103036600D01*
G75*
G02*
X248532600Y-102765435I0J271165D01*
G01*
G37*
G36*
G01*
X228510400Y-99012800D02*
X226410400Y-99012800D01*
G75*
G02*
X226359600Y-98962000I0J50800D01*
G01*
X226359600Y-97562000D01*
G75*
G02*
X226410400Y-97511200I50800J0D01*
G01*
X228510400Y-97511200D01*
G75*
G02*
X228561200Y-97562000I0J-50800D01*
G01*
X228561200Y-98962000D01*
G75*
G02*
X228510400Y-99012800I-50800J0D01*
G01*
G37*
G36*
G01*
X219410400Y-99012800D02*
X217310400Y-99012800D01*
G75*
G02*
X217259600Y-98962000I0J50800D01*
G01*
X217259600Y-97562000D01*
G75*
G02*
X217310400Y-97511200I50800J0D01*
G01*
X219410400Y-97511200D01*
G75*
G02*
X219461200Y-97562000I0J-50800D01*
G01*
X219461200Y-98962000D01*
G75*
G02*
X219410400Y-99012800I-50800J0D01*
G01*
G37*
G36*
G01*
X228510400Y-94512800D02*
X226410400Y-94512800D01*
G75*
G02*
X226359600Y-94462000I0J50800D01*
G01*
X226359600Y-93062000D01*
G75*
G02*
X226410400Y-93011200I50800J0D01*
G01*
X228510400Y-93011200D01*
G75*
G02*
X228561200Y-93062000I0J-50800D01*
G01*
X228561200Y-94462000D01*
G75*
G02*
X228510400Y-94512800I-50800J0D01*
G01*
G37*
G36*
G01*
X219410400Y-94512800D02*
X217310400Y-94512800D01*
G75*
G02*
X217259600Y-94462000I0J50800D01*
G01*
X217259600Y-93062000D01*
G75*
G02*
X217310400Y-93011200I50800J0D01*
G01*
X219410400Y-93011200D01*
G75*
G02*
X219461200Y-93062000I0J-50800D01*
G01*
X219461200Y-94462000D01*
G75*
G02*
X219410400Y-94512800I-50800J0D01*
G01*
G37*
G36*
G01*
X219410400Y-86181600D02*
X217310400Y-86181600D01*
G75*
G02*
X217259600Y-86130800I0J50800D01*
G01*
X217259600Y-84730800D01*
G75*
G02*
X217310400Y-84680000I50800J0D01*
G01*
X219410400Y-84680000D01*
G75*
G02*
X219461200Y-84730800I0J-50800D01*
G01*
X219461200Y-86130800D01*
G75*
G02*
X219410400Y-86181600I-50800J0D01*
G01*
G37*
G36*
G01*
X228510400Y-86181600D02*
X226410400Y-86181600D01*
G75*
G02*
X226359600Y-86130800I0J50800D01*
G01*
X226359600Y-84730800D01*
G75*
G02*
X226410400Y-84680000I50800J0D01*
G01*
X228510400Y-84680000D01*
G75*
G02*
X228561200Y-84730800I0J-50800D01*
G01*
X228561200Y-86130800D01*
G75*
G02*
X228510400Y-86181600I-50800J0D01*
G01*
G37*
G36*
G01*
X219410400Y-90681600D02*
X217310400Y-90681600D01*
G75*
G02*
X217259600Y-90630800I0J50800D01*
G01*
X217259600Y-89230800D01*
G75*
G02*
X217310400Y-89180000I50800J0D01*
G01*
X219410400Y-89180000D01*
G75*
G02*
X219461200Y-89230800I0J-50800D01*
G01*
X219461200Y-90630800D01*
G75*
G02*
X219410400Y-90681600I-50800J0D01*
G01*
G37*
G36*
G01*
X228510400Y-90681600D02*
X226410400Y-90681600D01*
G75*
G02*
X226359600Y-90630800I0J50800D01*
G01*
X226359600Y-89230800D01*
G75*
G02*
X226410400Y-89180000I50800J0D01*
G01*
X228510400Y-89180000D01*
G75*
G02*
X228561200Y-89230800I0J-50800D01*
G01*
X228561200Y-90630800D01*
G75*
G02*
X228510400Y-90681600I-50800J0D01*
G01*
G37*
G36*
G01*
X211155400Y-102139200D02*
X211155400Y-100639200D01*
G75*
G02*
X211206200Y-100588400I50800J0D01*
G01*
X211856200Y-100588400D01*
G75*
G02*
X211907000Y-100639200I0J-50800D01*
G01*
X211907000Y-102139200D01*
G75*
G02*
X211856200Y-102190000I-50800J0D01*
G01*
X211206200Y-102190000D01*
G75*
G02*
X211155400Y-102139200I0J50800D01*
G01*
G37*
G36*
G01*
X209885400Y-102139200D02*
X209885400Y-100639200D01*
G75*
G02*
X209936200Y-100588400I50800J0D01*
G01*
X210586200Y-100588400D01*
G75*
G02*
X210637000Y-100639200I0J-50800D01*
G01*
X210637000Y-102139200D01*
G75*
G02*
X210586200Y-102190000I-50800J0D01*
G01*
X209936200Y-102190000D01*
G75*
G02*
X209885400Y-102139200I0J50800D01*
G01*
G37*
G36*
G01*
X208615400Y-102139200D02*
X208615400Y-100639200D01*
G75*
G02*
X208666200Y-100588400I50800J0D01*
G01*
X209316200Y-100588400D01*
G75*
G02*
X209367000Y-100639200I0J-50800D01*
G01*
X209367000Y-102139200D01*
G75*
G02*
X209316200Y-102190000I-50800J0D01*
G01*
X208666200Y-102190000D01*
G75*
G02*
X208615400Y-102139200I0J50800D01*
G01*
G37*
G36*
G01*
X207345400Y-102139200D02*
X207345400Y-100639200D01*
G75*
G02*
X207396200Y-100588400I50800J0D01*
G01*
X208046200Y-100588400D01*
G75*
G02*
X208097000Y-100639200I0J-50800D01*
G01*
X208097000Y-102139200D01*
G75*
G02*
X208046200Y-102190000I-50800J0D01*
G01*
X207396200Y-102190000D01*
G75*
G02*
X207345400Y-102139200I0J50800D01*
G01*
G37*
G36*
G01*
X207345400Y-107539200D02*
X207345400Y-106039200D01*
G75*
G02*
X207396200Y-105988400I50800J0D01*
G01*
X208046200Y-105988400D01*
G75*
G02*
X208097000Y-106039200I0J-50800D01*
G01*
X208097000Y-107539200D01*
G75*
G02*
X208046200Y-107590000I-50800J0D01*
G01*
X207396200Y-107590000D01*
G75*
G02*
X207345400Y-107539200I0J50800D01*
G01*
G37*
G36*
G01*
X208615400Y-107539200D02*
X208615400Y-106039200D01*
G75*
G02*
X208666200Y-105988400I50800J0D01*
G01*
X209316200Y-105988400D01*
G75*
G02*
X209367000Y-106039200I0J-50800D01*
G01*
X209367000Y-107539200D01*
G75*
G02*
X209316200Y-107590000I-50800J0D01*
G01*
X208666200Y-107590000D01*
G75*
G02*
X208615400Y-107539200I0J50800D01*
G01*
G37*
G36*
G01*
X209885400Y-107539200D02*
X209885400Y-106039200D01*
G75*
G02*
X209936200Y-105988400I50800J0D01*
G01*
X210586200Y-105988400D01*
G75*
G02*
X210637000Y-106039200I0J-50800D01*
G01*
X210637000Y-107539200D01*
G75*
G02*
X210586200Y-107590000I-50800J0D01*
G01*
X209936200Y-107590000D01*
G75*
G02*
X209885400Y-107539200I0J50800D01*
G01*
G37*
G36*
G01*
X211155400Y-107539200D02*
X211155400Y-106039200D01*
G75*
G02*
X211206200Y-105988400I50800J0D01*
G01*
X211856200Y-105988400D01*
G75*
G02*
X211907000Y-106039200I0J-50800D01*
G01*
X211907000Y-107539200D01*
G75*
G02*
X211856200Y-107590000I-50800J0D01*
G01*
X211206200Y-107590000D01*
G75*
G02*
X211155400Y-107539200I0J50800D01*
G01*
G37*
G36*
G01*
X212136983Y-86672000D02*
X211128617Y-86672000D01*
G75*
G02*
X210857000Y-86400383I0J271617D01*
G01*
X210857000Y-85667017D01*
G75*
G02*
X211128617Y-85395400I271617J0D01*
G01*
X212136983Y-85395400D01*
G75*
G02*
X212408600Y-85667017I0J-271617D01*
G01*
X212408600Y-86400383D01*
G75*
G02*
X212136983Y-86672000I-271617J0D01*
G01*
G37*
G36*
G01*
X212136983Y-88747000D02*
X211128617Y-88747000D01*
G75*
G02*
X210857000Y-88475383I0J271617D01*
G01*
X210857000Y-87742017D01*
G75*
G02*
X211128617Y-87470400I271617J0D01*
G01*
X212136983Y-87470400D01*
G75*
G02*
X212408600Y-87742017I0J-271617D01*
G01*
X212408600Y-88475383D01*
G75*
G02*
X212136983Y-88747000I-271617J0D01*
G01*
G37*
G36*
G01*
X214630600Y-105050583D02*
X214630600Y-104042217D01*
G75*
G02*
X214902217Y-103770600I271617J0D01*
G01*
X215635583Y-103770600D01*
G75*
G02*
X215907200Y-104042217I0J-271617D01*
G01*
X215907200Y-105050583D01*
G75*
G02*
X215635583Y-105322200I-271617J0D01*
G01*
X214902217Y-105322200D01*
G75*
G02*
X214630600Y-105050583I0J271617D01*
G01*
G37*
G36*
G01*
X216705600Y-105050583D02*
X216705600Y-104042217D01*
G75*
G02*
X216977217Y-103770600I271617J0D01*
G01*
X217710583Y-103770600D01*
G75*
G02*
X217982200Y-104042217I0J-271617D01*
G01*
X217982200Y-105050583D01*
G75*
G02*
X217710583Y-105322200I-271617J0D01*
G01*
X216977217Y-105322200D01*
G75*
G02*
X216705600Y-105050583I0J271617D01*
G01*
G37*
D13*
X234492800Y-126593600D03*
X239492800Y-126593600D03*
X244492800Y-126593600D03*
D14*
X209742400Y-118211600D03*
G36*
G01*
X213093200Y-117411600D02*
X213093200Y-119011600D01*
G75*
G02*
X213042400Y-119062400I-50800J0D01*
G01*
X211442400Y-119062400D01*
G75*
G02*
X211391600Y-119011600I0J50800D01*
G01*
X211391600Y-117411600D01*
G75*
G02*
X211442400Y-117360800I50800J0D01*
G01*
X213042400Y-117360800D01*
G75*
G02*
X213093200Y-117411600I0J-50800D01*
G01*
G37*
G36*
G01*
X216624000Y-119011600D02*
X216624000Y-117411600D01*
G75*
G02*
X216674800Y-117360800I50800J0D01*
G01*
X218274800Y-117360800D01*
G75*
G02*
X218325600Y-117411600I0J-50800D01*
G01*
X218325600Y-119011600D01*
G75*
G02*
X218274800Y-119062400I-50800J0D01*
G01*
X216674800Y-119062400D01*
G75*
G02*
X216624000Y-119011600I0J50800D01*
G01*
G37*
X219974800Y-118211600D03*
D10*
X207772000Y-80772000D03*
M02*
