G04 #@! TF.GenerationSoftware,KiCad,Pcbnew,(5.1.8-0-10_14)*
G04 #@! TF.CreationDate,2021-08-13T20:50:48-06:00*
G04 #@! TF.ProjectId,ESP8266_Water_Sensor,45535038-3236-4365-9f57-617465725f53,rev?*
G04 #@! TF.SameCoordinates,Original*
G04 #@! TF.FileFunction,Copper,L1,Top*
G04 #@! TF.FilePolarity,Positive*
%FSLAX46Y46*%
G04 Gerber Fmt 4.6, Leading zero omitted, Abs format (unit mm)*
G04 Created by KiCad (PCBNEW (5.1.8-0-10_14)) date 2021-08-13 20:50:48*
%MOMM*%
%LPD*%
G01*
G04 APERTURE LIST*
G04 #@! TA.AperFunction,WasherPad*
%ADD10C,2.700000*%
G04 #@! TD*
G04 #@! TA.AperFunction,SMDPad,CuDef*
%ADD11R,1.500000X0.900000*%
G04 #@! TD*
G04 #@! TA.AperFunction,SMDPad,CuDef*
%ADD12R,4.000000X4.000000*%
G04 #@! TD*
G04 #@! TA.AperFunction,ComponentPad*
%ADD13R,1.700000X1.700000*%
G04 #@! TD*
G04 #@! TA.AperFunction,ComponentPad*
%ADD14O,1.700000X1.700000*%
G04 #@! TD*
G04 #@! TA.AperFunction,ComponentPad*
%ADD15C,1.800000*%
G04 #@! TD*
G04 #@! TA.AperFunction,ComponentPad*
%ADD16R,1.800000X1.800000*%
G04 #@! TD*
G04 #@! TA.AperFunction,SMDPad,CuDef*
%ADD17R,5.700000X1.600000*%
G04 #@! TD*
G04 #@! TA.AperFunction,SMDPad,CuDef*
%ADD18R,2.100000X1.400000*%
G04 #@! TD*
G04 #@! TA.AperFunction,SMDPad,CuDef*
%ADD19R,0.650000X1.500000*%
G04 #@! TD*
G04 #@! TA.AperFunction,ComponentPad*
%ADD20C,1.950000*%
G04 #@! TD*
G04 #@! TA.AperFunction,ComponentPad*
%ADD21C,1.600000*%
G04 #@! TD*
G04 #@! TA.AperFunction,ComponentPad*
%ADD22R,1.600000X1.600000*%
G04 #@! TD*
G04 #@! TA.AperFunction,ViaPad*
%ADD23C,0.762000*%
G04 #@! TD*
G04 #@! TA.AperFunction,Conductor*
%ADD24C,0.508000*%
G04 #@! TD*
G04 #@! TA.AperFunction,Conductor*
%ADD25C,0.762000*%
G04 #@! TD*
G04 #@! TA.AperFunction,Conductor*
%ADD26C,0.254000*%
G04 #@! TD*
G04 #@! TA.AperFunction,Conductor*
%ADD27C,0.100000*%
G04 #@! TD*
G04 APERTURE END LIST*
D10*
X252730000Y-125730000D03*
D11*
X232550000Y-84069600D03*
X232550000Y-85569600D03*
X232550000Y-87069600D03*
X232550000Y-88569600D03*
X232550000Y-90069600D03*
X232550000Y-91569600D03*
X232550000Y-93069600D03*
X232550000Y-94569600D03*
X232550000Y-96069600D03*
X250050000Y-96069600D03*
X250050000Y-94569600D03*
X250050000Y-93069600D03*
X250050000Y-91569600D03*
X250050000Y-90069600D03*
X250050000Y-88569600D03*
X250050000Y-87069600D03*
X250050000Y-85569600D03*
X250050000Y-84069600D03*
D12*
X242400000Y-90679600D03*
G04 #@! TA.AperFunction,SMDPad,CuDef*
G36*
G01*
X208602600Y-86621200D02*
X207652600Y-86621200D01*
G75*
G02*
X207402600Y-86371200I0J250000D01*
G01*
X207402600Y-85696200D01*
G75*
G02*
X207652600Y-85446200I250000J0D01*
G01*
X208602600Y-85446200D01*
G75*
G02*
X208852600Y-85696200I0J-250000D01*
G01*
X208852600Y-86371200D01*
G75*
G02*
X208602600Y-86621200I-250000J0D01*
G01*
G37*
G04 #@! TD.AperFunction*
G04 #@! TA.AperFunction,SMDPad,CuDef*
G36*
G01*
X208602600Y-88696200D02*
X207652600Y-88696200D01*
G75*
G02*
X207402600Y-88446200I0J250000D01*
G01*
X207402600Y-87771200D01*
G75*
G02*
X207652600Y-87521200I250000J0D01*
G01*
X208602600Y-87521200D01*
G75*
G02*
X208852600Y-87771200I0J-250000D01*
G01*
X208852600Y-88446200D01*
G75*
G02*
X208602600Y-88696200I-250000J0D01*
G01*
G37*
G04 #@! TD.AperFunction*
G04 #@! TA.AperFunction,SMDPad,CuDef*
G36*
G01*
X215003400Y-101802600D02*
X214053400Y-101802600D01*
G75*
G02*
X213803400Y-101552600I0J250000D01*
G01*
X213803400Y-100877600D01*
G75*
G02*
X214053400Y-100627600I250000J0D01*
G01*
X215003400Y-100627600D01*
G75*
G02*
X215253400Y-100877600I0J-250000D01*
G01*
X215253400Y-101552600D01*
G75*
G02*
X215003400Y-101802600I-250000J0D01*
G01*
G37*
G04 #@! TD.AperFunction*
G04 #@! TA.AperFunction,SMDPad,CuDef*
G36*
G01*
X215003400Y-99727600D02*
X214053400Y-99727600D01*
G75*
G02*
X213803400Y-99477600I0J250000D01*
G01*
X213803400Y-98802600D01*
G75*
G02*
X214053400Y-98552600I250000J0D01*
G01*
X215003400Y-98552600D01*
G75*
G02*
X215253400Y-98802600I0J-250000D01*
G01*
X215253400Y-99477600D01*
G75*
G02*
X215003400Y-99727600I-250000J0D01*
G01*
G37*
G04 #@! TD.AperFunction*
G04 #@! TA.AperFunction,SMDPad,CuDef*
G36*
G01*
X216604000Y-107764600D02*
X216604000Y-106814600D01*
G75*
G02*
X216854000Y-106564600I250000J0D01*
G01*
X217529000Y-106564600D01*
G75*
G02*
X217779000Y-106814600I0J-250000D01*
G01*
X217779000Y-107764600D01*
G75*
G02*
X217529000Y-108014600I-250000J0D01*
G01*
X216854000Y-108014600D01*
G75*
G02*
X216604000Y-107764600I0J250000D01*
G01*
G37*
G04 #@! TD.AperFunction*
G04 #@! TA.AperFunction,SMDPad,CuDef*
G36*
G01*
X214529000Y-107764600D02*
X214529000Y-106814600D01*
G75*
G02*
X214779000Y-106564600I250000J0D01*
G01*
X215454000Y-106564600D01*
G75*
G02*
X215704000Y-106814600I0J-250000D01*
G01*
X215704000Y-107764600D01*
G75*
G02*
X215454000Y-108014600I-250000J0D01*
G01*
X214779000Y-108014600D01*
G75*
G02*
X214529000Y-107764600I0J250000D01*
G01*
G37*
G04 #@! TD.AperFunction*
G04 #@! TA.AperFunction,SMDPad,CuDef*
G36*
G01*
X215312500Y-110457000D02*
X215312500Y-109507000D01*
G75*
G02*
X215562500Y-109257000I250000J0D01*
G01*
X216237500Y-109257000D01*
G75*
G02*
X216487500Y-109507000I0J-250000D01*
G01*
X216487500Y-110457000D01*
G75*
G02*
X216237500Y-110707000I-250000J0D01*
G01*
X215562500Y-110707000D01*
G75*
G02*
X215312500Y-110457000I0J250000D01*
G01*
G37*
G04 #@! TD.AperFunction*
G04 #@! TA.AperFunction,SMDPad,CuDef*
G36*
G01*
X213237500Y-110457000D02*
X213237500Y-109507000D01*
G75*
G02*
X213487500Y-109257000I250000J0D01*
G01*
X214162500Y-109257000D01*
G75*
G02*
X214412500Y-109507000I0J-250000D01*
G01*
X214412500Y-110457000D01*
G75*
G02*
X214162500Y-110707000I-250000J0D01*
G01*
X213487500Y-110707000D01*
G75*
G02*
X213237500Y-110457000I0J250000D01*
G01*
G37*
G04 #@! TD.AperFunction*
G04 #@! TA.AperFunction,SMDPad,CuDef*
G36*
G01*
X207652600Y-109982600D02*
X208602600Y-109982600D01*
G75*
G02*
X208852600Y-110232600I0J-250000D01*
G01*
X208852600Y-110907600D01*
G75*
G02*
X208602600Y-111157600I-250000J0D01*
G01*
X207652600Y-111157600D01*
G75*
G02*
X207402600Y-110907600I0J250000D01*
G01*
X207402600Y-110232600D01*
G75*
G02*
X207652600Y-109982600I250000J0D01*
G01*
G37*
G04 #@! TD.AperFunction*
G04 #@! TA.AperFunction,SMDPad,CuDef*
G36*
G01*
X207652600Y-112057600D02*
X208602600Y-112057600D01*
G75*
G02*
X208852600Y-112307600I0J-250000D01*
G01*
X208852600Y-112982600D01*
G75*
G02*
X208602600Y-113232600I-250000J0D01*
G01*
X207652600Y-113232600D01*
G75*
G02*
X207402600Y-112982600I0J250000D01*
G01*
X207402600Y-112307600D01*
G75*
G02*
X207652600Y-112057600I250000J0D01*
G01*
G37*
G04 #@! TD.AperFunction*
G04 #@! TA.AperFunction,SMDPad,CuDef*
G36*
G01*
X247758800Y-99347000D02*
X247758800Y-100297000D01*
G75*
G02*
X247508800Y-100547000I-250000J0D01*
G01*
X246833800Y-100547000D01*
G75*
G02*
X246583800Y-100297000I0J250000D01*
G01*
X246583800Y-99347000D01*
G75*
G02*
X246833800Y-99097000I250000J0D01*
G01*
X247508800Y-99097000D01*
G75*
G02*
X247758800Y-99347000I0J-250000D01*
G01*
G37*
G04 #@! TD.AperFunction*
G04 #@! TA.AperFunction,SMDPad,CuDef*
G36*
G01*
X249833800Y-99347000D02*
X249833800Y-100297000D01*
G75*
G02*
X249583800Y-100547000I-250000J0D01*
G01*
X248908800Y-100547000D01*
G75*
G02*
X248658800Y-100297000I0J250000D01*
G01*
X248658800Y-99347000D01*
G75*
G02*
X248908800Y-99097000I250000J0D01*
G01*
X249583800Y-99097000D01*
G75*
G02*
X249833800Y-99347000I0J-250000D01*
G01*
G37*
G04 #@! TD.AperFunction*
D13*
X228142800Y-108458000D03*
D14*
X228142800Y-110998000D03*
X228142800Y-113538000D03*
X228142800Y-116078000D03*
X228142800Y-118618000D03*
X228142800Y-121158000D03*
D15*
X219884000Y-126644400D03*
D16*
X214884000Y-126644400D03*
X252984000Y-106832400D03*
D15*
X252984000Y-111832400D03*
D14*
X254965200Y-97942400D03*
X254965200Y-95402400D03*
X254965200Y-92862400D03*
X254965200Y-90322400D03*
X254965200Y-87782400D03*
D13*
X254965200Y-85242400D03*
D17*
X210007200Y-92336400D03*
X210007200Y-97036400D03*
G04 #@! TA.AperFunction,SMDPad,CuDef*
G36*
G01*
X204985199Y-101238000D02*
X205885201Y-101238000D01*
G75*
G02*
X206135200Y-101487999I0J-249999D01*
G01*
X206135200Y-102188001D01*
G75*
G02*
X205885201Y-102438000I-249999J0D01*
G01*
X204985199Y-102438000D01*
G75*
G02*
X204735200Y-102188001I0J249999D01*
G01*
X204735200Y-101487999D01*
G75*
G02*
X204985199Y-101238000I249999J0D01*
G01*
G37*
G04 #@! TD.AperFunction*
G04 #@! TA.AperFunction,SMDPad,CuDef*
G36*
G01*
X204985199Y-99238000D02*
X205885201Y-99238000D01*
G75*
G02*
X206135200Y-99487999I0J-249999D01*
G01*
X206135200Y-100188001D01*
G75*
G02*
X205885201Y-100438000I-249999J0D01*
G01*
X204985199Y-100438000D01*
G75*
G02*
X204735200Y-100188001I0J249999D01*
G01*
X204735200Y-99487999D01*
G75*
G02*
X204985199Y-99238000I249999J0D01*
G01*
G37*
G04 #@! TD.AperFunction*
G04 #@! TA.AperFunction,SMDPad,CuDef*
G36*
G01*
X205086799Y-108502400D02*
X205986801Y-108502400D01*
G75*
G02*
X206236800Y-108752399I0J-249999D01*
G01*
X206236800Y-109452401D01*
G75*
G02*
X205986801Y-109702400I-249999J0D01*
G01*
X205086799Y-109702400D01*
G75*
G02*
X204836800Y-109452401I0J249999D01*
G01*
X204836800Y-108752399D01*
G75*
G02*
X205086799Y-108502400I249999J0D01*
G01*
G37*
G04 #@! TD.AperFunction*
G04 #@! TA.AperFunction,SMDPad,CuDef*
G36*
G01*
X205086799Y-106502400D02*
X205986801Y-106502400D01*
G75*
G02*
X206236800Y-106752399I0J-249999D01*
G01*
X206236800Y-107452401D01*
G75*
G02*
X205986801Y-107702400I-249999J0D01*
G01*
X205086799Y-107702400D01*
G75*
G02*
X204836800Y-107452401I0J249999D01*
G01*
X204836800Y-106752399D01*
G75*
G02*
X205086799Y-106502400I249999J0D01*
G01*
G37*
G04 #@! TD.AperFunction*
G04 #@! TA.AperFunction,SMDPad,CuDef*
G36*
G01*
X211117601Y-113055200D02*
X210217599Y-113055200D01*
G75*
G02*
X209967600Y-112805201I0J249999D01*
G01*
X209967600Y-112105199D01*
G75*
G02*
X210217599Y-111855200I249999J0D01*
G01*
X211117601Y-111855200D01*
G75*
G02*
X211367600Y-112105199I0J-249999D01*
G01*
X211367600Y-112805201D01*
G75*
G02*
X211117601Y-113055200I-249999J0D01*
G01*
G37*
G04 #@! TD.AperFunction*
G04 #@! TA.AperFunction,SMDPad,CuDef*
G36*
G01*
X211117601Y-111055200D02*
X210217599Y-111055200D01*
G75*
G02*
X209967600Y-110805201I0J249999D01*
G01*
X209967600Y-110105199D01*
G75*
G02*
X210217599Y-109855200I249999J0D01*
G01*
X211117601Y-109855200D01*
G75*
G02*
X211367600Y-110105199I0J-249999D01*
G01*
X211367600Y-110805201D01*
G75*
G02*
X211117601Y-111055200I-249999J0D01*
G01*
G37*
G04 #@! TD.AperFunction*
G04 #@! TA.AperFunction,SMDPad,CuDef*
G36*
G01*
X205289999Y-114242800D02*
X206190001Y-114242800D01*
G75*
G02*
X206440000Y-114492799I0J-249999D01*
G01*
X206440000Y-115192801D01*
G75*
G02*
X206190001Y-115442800I-249999J0D01*
G01*
X205289999Y-115442800D01*
G75*
G02*
X205040000Y-115192801I0J249999D01*
G01*
X205040000Y-114492799D01*
G75*
G02*
X205289999Y-114242800I249999J0D01*
G01*
G37*
G04 #@! TD.AperFunction*
G04 #@! TA.AperFunction,SMDPad,CuDef*
G36*
G01*
X205289999Y-112242800D02*
X206190001Y-112242800D01*
G75*
G02*
X206440000Y-112492799I0J-249999D01*
G01*
X206440000Y-113192801D01*
G75*
G02*
X206190001Y-113442800I-249999J0D01*
G01*
X205289999Y-113442800D01*
G75*
G02*
X205040000Y-113192801I0J249999D01*
G01*
X205040000Y-112492799D01*
G75*
G02*
X205289999Y-112242800I249999J0D01*
G01*
G37*
G04 #@! TD.AperFunction*
G04 #@! TA.AperFunction,SMDPad,CuDef*
G36*
G01*
X246583400Y-102735801D02*
X246583400Y-101835799D01*
G75*
G02*
X246833399Y-101585800I249999J0D01*
G01*
X247533401Y-101585800D01*
G75*
G02*
X247783400Y-101835799I0J-249999D01*
G01*
X247783400Y-102735801D01*
G75*
G02*
X247533401Y-102985800I-249999J0D01*
G01*
X246833399Y-102985800D01*
G75*
G02*
X246583400Y-102735801I0J249999D01*
G01*
G37*
G04 #@! TD.AperFunction*
G04 #@! TA.AperFunction,SMDPad,CuDef*
G36*
G01*
X248583400Y-102735801D02*
X248583400Y-101835799D01*
G75*
G02*
X248833399Y-101585800I249999J0D01*
G01*
X249533401Y-101585800D01*
G75*
G02*
X249783400Y-101835799I0J-249999D01*
G01*
X249783400Y-102735801D01*
G75*
G02*
X249533401Y-102985800I-249999J0D01*
G01*
X248833399Y-102985800D01*
G75*
G02*
X248583400Y-102735801I0J249999D01*
G01*
G37*
G04 #@! TD.AperFunction*
D18*
X227460400Y-98262000D03*
X218360400Y-98262000D03*
X227460400Y-93762000D03*
X218360400Y-93762000D03*
X218360400Y-85430800D03*
X227460400Y-85430800D03*
X218360400Y-89930800D03*
X227460400Y-89930800D03*
D19*
X211531200Y-101389200D03*
X210261200Y-101389200D03*
X208991200Y-101389200D03*
X207721200Y-101389200D03*
X207721200Y-106789200D03*
X208991200Y-106789200D03*
X210261200Y-106789200D03*
X211531200Y-106789200D03*
G04 #@! TA.AperFunction,SMDPad,CuDef*
G36*
G01*
X212107800Y-86621200D02*
X211157800Y-86621200D01*
G75*
G02*
X210907800Y-86371200I0J250000D01*
G01*
X210907800Y-85696200D01*
G75*
G02*
X211157800Y-85446200I250000J0D01*
G01*
X212107800Y-85446200D01*
G75*
G02*
X212357800Y-85696200I0J-250000D01*
G01*
X212357800Y-86371200D01*
G75*
G02*
X212107800Y-86621200I-250000J0D01*
G01*
G37*
G04 #@! TD.AperFunction*
G04 #@! TA.AperFunction,SMDPad,CuDef*
G36*
G01*
X212107800Y-88696200D02*
X211157800Y-88696200D01*
G75*
G02*
X210907800Y-88446200I0J250000D01*
G01*
X210907800Y-87771200D01*
G75*
G02*
X211157800Y-87521200I250000J0D01*
G01*
X212107800Y-87521200D01*
G75*
G02*
X212357800Y-87771200I0J-250000D01*
G01*
X212357800Y-88446200D01*
G75*
G02*
X212107800Y-88696200I-250000J0D01*
G01*
G37*
G04 #@! TD.AperFunction*
G04 #@! TA.AperFunction,SMDPad,CuDef*
G36*
G01*
X214681400Y-105021400D02*
X214681400Y-104071400D01*
G75*
G02*
X214931400Y-103821400I250000J0D01*
G01*
X215606400Y-103821400D01*
G75*
G02*
X215856400Y-104071400I0J-250000D01*
G01*
X215856400Y-105021400D01*
G75*
G02*
X215606400Y-105271400I-250000J0D01*
G01*
X214931400Y-105271400D01*
G75*
G02*
X214681400Y-105021400I0J250000D01*
G01*
G37*
G04 #@! TD.AperFunction*
G04 #@! TA.AperFunction,SMDPad,CuDef*
G36*
G01*
X216756400Y-105021400D02*
X216756400Y-104071400D01*
G75*
G02*
X217006400Y-103821400I250000J0D01*
G01*
X217681400Y-103821400D01*
G75*
G02*
X217931400Y-104071400I0J-250000D01*
G01*
X217931400Y-105021400D01*
G75*
G02*
X217681400Y-105271400I-250000J0D01*
G01*
X217006400Y-105271400D01*
G75*
G02*
X216756400Y-105021400I0J250000D01*
G01*
G37*
G04 #@! TD.AperFunction*
D20*
X234492800Y-126593600D03*
X239492800Y-126593600D03*
X244492800Y-126593600D03*
D21*
X209742400Y-118211600D03*
D22*
X212242400Y-118211600D03*
X217474800Y-118211600D03*
D21*
X219974800Y-118211600D03*
D10*
X207772000Y-80772000D03*
D23*
X210007200Y-89966800D03*
X211328000Y-89966800D03*
X212598000Y-89916000D03*
X208686400Y-89966800D03*
X207365600Y-90017600D03*
X214020400Y-89916000D03*
X214071200Y-88239600D03*
X214223600Y-92303600D03*
X230331600Y-84069600D03*
X234793200Y-84069600D03*
X245287800Y-102285800D03*
X221386400Y-92303600D03*
X245253000Y-84547200D03*
X205536800Y-110642400D03*
X205740000Y-116535200D03*
X207416400Y-103428800D03*
X207365600Y-104698800D03*
X206146400Y-85953600D03*
X204927200Y-85953600D03*
X204927200Y-84531200D03*
X211632800Y-84124800D03*
X213918800Y-84124800D03*
X213969600Y-86004400D03*
X219913200Y-103479600D03*
X219862400Y-105054400D03*
X219811600Y-106883200D03*
X219710000Y-108407200D03*
X217982800Y-110032800D03*
X247802400Y-84074000D03*
X252116000Y-84069600D03*
X247977610Y-91569600D03*
X252143200Y-91569600D03*
X234994000Y-96069600D03*
X232550000Y-97879200D03*
X220624400Y-89930800D03*
X222946400Y-98262000D03*
X245313200Y-99822000D03*
X242400000Y-87495200D03*
X238988600Y-85267800D03*
X238912400Y-86588600D03*
X238937800Y-88214200D03*
X238887000Y-89712800D03*
X245135400Y-91186000D03*
X212734400Y-112455200D03*
X210210400Y-103428800D03*
X211480400Y-103428800D03*
X210159600Y-104851200D03*
X211480400Y-104851200D03*
X213156800Y-104140000D03*
X213156800Y-105562400D03*
X213156800Y-107086400D03*
X225414400Y-85430800D03*
X251917000Y-88569600D03*
X227460400Y-95888400D03*
X234879200Y-94569600D03*
X252015800Y-85569600D03*
X234594400Y-91567000D03*
D24*
X205435200Y-99838000D02*
X205435200Y-92710000D01*
D25*
X232550000Y-84069600D02*
X234793200Y-84069600D01*
X232550000Y-84069600D02*
X230331600Y-84069600D01*
X230331600Y-84069600D02*
X230331600Y-84069600D01*
X234793200Y-84069600D02*
X234793200Y-84069600D01*
X247183400Y-102285800D02*
X245287800Y-102285800D01*
X245287800Y-102285800D02*
X245287800Y-102285800D01*
D24*
X205536800Y-109102400D02*
X205536800Y-110642400D01*
X205536800Y-110642400D02*
X205536800Y-110642400D01*
X205740000Y-114842800D02*
X205740000Y-116535200D01*
X205740000Y-116535200D02*
X205740000Y-116535200D01*
D25*
X250050000Y-91569600D02*
X252143200Y-91569600D01*
X250050000Y-91569600D02*
X247977610Y-91569600D01*
X250050000Y-84069600D02*
X252116000Y-84069600D01*
X249982400Y-84069600D02*
X249978000Y-84074000D01*
X250050000Y-84069600D02*
X249982400Y-84069600D01*
X249978000Y-84074000D02*
X247802400Y-84074000D01*
X232550000Y-96069600D02*
X234994000Y-96069600D01*
X232550000Y-96069600D02*
X232550000Y-97879200D01*
X247802400Y-84074000D02*
X247802400Y-84074000D01*
X252116000Y-84069600D02*
X252116000Y-84069600D01*
X247977610Y-91569600D02*
X247977610Y-91569600D01*
X252143200Y-91569600D02*
X252143200Y-91569600D01*
X234994000Y-96069600D02*
X234994000Y-96069600D01*
X232550000Y-97879200D02*
X232550000Y-97879200D01*
X218360400Y-98262000D02*
X218360400Y-102739600D01*
X218360400Y-98262000D02*
X222946400Y-98262000D01*
X218360400Y-89930800D02*
X222895600Y-89930800D01*
X222895600Y-89930800D02*
X227460400Y-89930800D01*
X222946400Y-98262000D02*
X227460400Y-98262000D01*
X247171300Y-99822000D02*
X245313200Y-99822000D01*
X245313200Y-99822000D02*
X245313200Y-99822000D01*
X242400000Y-90679600D02*
X242400000Y-87495200D01*
X242400000Y-87495200D02*
X242400000Y-87495200D01*
D24*
X210667600Y-112455200D02*
X212734400Y-112455200D01*
X212734400Y-112455200D02*
X212734400Y-112455200D01*
X205937700Y-112645100D02*
X205740000Y-112842800D01*
X208127600Y-112645100D02*
X205937700Y-112645100D01*
D26*
X218360400Y-85430800D02*
X225414400Y-85430800D01*
X232411200Y-85430800D02*
X232550000Y-85569600D01*
X227460400Y-85430800D02*
X232411200Y-85430800D01*
X225414400Y-85430800D02*
X227460400Y-85430800D01*
X250050000Y-88569600D02*
X251917000Y-88569600D01*
X251917000Y-88569600D02*
X251917000Y-88569600D01*
X218360400Y-93762000D02*
X227460400Y-93762000D01*
X227460400Y-93762000D02*
X227460400Y-95888400D01*
X227460400Y-95888400D02*
X227460400Y-95888400D01*
X232550000Y-94569600D02*
X234879200Y-94569600D01*
X234879200Y-94569600D02*
X234879200Y-94569600D01*
D25*
X249148600Y-102320600D02*
X249183400Y-102285800D01*
X249208800Y-99859500D02*
X249246300Y-99822000D01*
X249206998Y-87069600D02*
X250050000Y-87069600D01*
X246684800Y-89591798D02*
X249206998Y-87069600D01*
X252984000Y-106086400D02*
X249183400Y-102285800D01*
X252984000Y-106832400D02*
X252984000Y-106086400D01*
X249183400Y-99884900D02*
X249246300Y-99822000D01*
X249183400Y-102285800D02*
X249183400Y-99884900D01*
X246684800Y-96535500D02*
X246684800Y-89591798D01*
X249246300Y-99097000D02*
X246684800Y-96535500D01*
X249246300Y-99822000D02*
X249246300Y-99097000D01*
D26*
X225775399Y-103713401D02*
X229971600Y-99517200D01*
X225775399Y-118180999D02*
X225775399Y-103713401D01*
X229971600Y-88644000D02*
X231546000Y-87069600D01*
X227482400Y-119888000D02*
X225775399Y-118180999D01*
X229971600Y-99517200D02*
X229971600Y-88644000D01*
X228803200Y-119888000D02*
X227482400Y-119888000D01*
X231546000Y-87069600D02*
X232550000Y-87069600D01*
X229463600Y-117398800D02*
X229463600Y-119227600D01*
X229463600Y-119227600D02*
X228803200Y-119888000D01*
X228142800Y-116078000D02*
X229463600Y-117398800D01*
X231440800Y-93069600D02*
X232550000Y-93069600D01*
X230784400Y-100126800D02*
X230784400Y-93726000D01*
X230784400Y-93726000D02*
X231440800Y-93069600D01*
X228142800Y-118618000D02*
X226466400Y-116941600D01*
X226466400Y-104444800D02*
X230784400Y-100126800D01*
X226466400Y-116941600D02*
X226466400Y-104444800D01*
X254758000Y-93069600D02*
X254965200Y-92862400D01*
X250050000Y-93069600D02*
X254758000Y-93069600D01*
X256235200Y-93414282D02*
X256235200Y-91592400D01*
X251491200Y-94132400D02*
X255517082Y-94132400D01*
X255517082Y-94132400D02*
X256235200Y-93414282D01*
X256235200Y-91592400D02*
X254965200Y-90322400D01*
X251054000Y-94569600D02*
X251491200Y-94132400D01*
X250050000Y-94569600D02*
X251054000Y-94569600D01*
X250050000Y-85569600D02*
X252015800Y-85569600D01*
X252015800Y-85569600D02*
X252015800Y-85569600D01*
X232552600Y-91567000D02*
X232550000Y-91569600D01*
X234594400Y-91567000D02*
X232552600Y-91567000D01*
D24*
X211705300Y-101215100D02*
X211531200Y-101389200D01*
X214528400Y-101215100D02*
X211705300Y-101215100D01*
X213825000Y-109982000D02*
X212648800Y-109982000D01*
X211531200Y-108864400D02*
X211531200Y-106789200D01*
X212648800Y-109982000D02*
X211531200Y-108864400D01*
X208991200Y-109706500D02*
X208991200Y-106789200D01*
X208127600Y-110570100D02*
X208991200Y-109706500D01*
X205435200Y-107000800D02*
X205536800Y-107102400D01*
X205435200Y-101838000D02*
X205435200Y-107000800D01*
X207408000Y-107102400D02*
X207721200Y-106789200D01*
X205536800Y-107102400D02*
X207408000Y-107102400D01*
X210261200Y-110048800D02*
X210667600Y-110455200D01*
X210261200Y-106789200D02*
X210261200Y-110048800D01*
D26*
X233554000Y-88569600D02*
X232550000Y-88569600D01*
X239492800Y-94508400D02*
X233554000Y-88569600D01*
X239492800Y-126593600D02*
X239492800Y-94508400D01*
X215163400Y-96674206D02*
X215163400Y-99898200D01*
X209956400Y-99898200D01*
X209931624Y-99900640D01*
X209907799Y-99907867D01*
X209885843Y-99919603D01*
X209866597Y-99935397D01*
X209778542Y-100023452D01*
X209692020Y-100049698D01*
X209581706Y-100108663D01*
X209485015Y-100188015D01*
X209405663Y-100284706D01*
X209346698Y-100395020D01*
X209320452Y-100481542D01*
X209256997Y-100544997D01*
X209241203Y-100564243D01*
X209229467Y-100586199D01*
X209222240Y-100610024D01*
X209219800Y-100634800D01*
X209219800Y-102031800D01*
X208762600Y-102031800D01*
X208762600Y-100584000D01*
X208760160Y-100559224D01*
X208752933Y-100535399D01*
X208741197Y-100513443D01*
X208725403Y-100494197D01*
X208706157Y-100478403D01*
X208684201Y-100466667D01*
X208660376Y-100459440D01*
X208655086Y-100458919D01*
X208635702Y-100395020D01*
X208576737Y-100284706D01*
X208497385Y-100188015D01*
X208400694Y-100108663D01*
X208290380Y-100049698D01*
X208170682Y-100013388D01*
X208046200Y-100001128D01*
X207396200Y-100001128D01*
X207271718Y-100013388D01*
X207187800Y-100038844D01*
X207187800Y-96291400D01*
X214780594Y-96291400D01*
X215163400Y-96674206D01*
G04 #@! TA.AperFunction,Conductor*
D27*
G36*
X215163400Y-96674206D02*
G01*
X215163400Y-99898200D01*
X209956400Y-99898200D01*
X209931624Y-99900640D01*
X209907799Y-99907867D01*
X209885843Y-99919603D01*
X209866597Y-99935397D01*
X209778542Y-100023452D01*
X209692020Y-100049698D01*
X209581706Y-100108663D01*
X209485015Y-100188015D01*
X209405663Y-100284706D01*
X209346698Y-100395020D01*
X209320452Y-100481542D01*
X209256997Y-100544997D01*
X209241203Y-100564243D01*
X209229467Y-100586199D01*
X209222240Y-100610024D01*
X209219800Y-100634800D01*
X209219800Y-102031800D01*
X208762600Y-102031800D01*
X208762600Y-100584000D01*
X208760160Y-100559224D01*
X208752933Y-100535399D01*
X208741197Y-100513443D01*
X208725403Y-100494197D01*
X208706157Y-100478403D01*
X208684201Y-100466667D01*
X208660376Y-100459440D01*
X208655086Y-100458919D01*
X208635702Y-100395020D01*
X208576737Y-100284706D01*
X208497385Y-100188015D01*
X208400694Y-100108663D01*
X208290380Y-100049698D01*
X208170682Y-100013388D01*
X208046200Y-100001128D01*
X207396200Y-100001128D01*
X207271718Y-100013388D01*
X207187800Y-100038844D01*
X207187800Y-96291400D01*
X214780594Y-96291400D01*
X215163400Y-96674206D01*
G37*
G04 #@! TD.AperFunction*
D26*
X210388200Y-101262200D02*
X210408200Y-101262200D01*
X210408200Y-101516200D01*
X210388200Y-101516200D01*
X210388200Y-102615450D01*
X210546950Y-102774200D01*
X210586200Y-102777272D01*
X210710682Y-102765012D01*
X210830380Y-102728702D01*
X210896200Y-102693520D01*
X210962020Y-102728702D01*
X211081718Y-102765012D01*
X211206200Y-102777272D01*
X211856200Y-102777272D01*
X211980682Y-102765012D01*
X212100380Y-102728702D01*
X212210694Y-102669737D01*
X212307123Y-102590600D01*
X213053394Y-102590600D01*
X213473397Y-103010603D01*
X213492643Y-103026397D01*
X213514599Y-103038133D01*
X213538424Y-103045360D01*
X213563200Y-103047800D01*
X215773000Y-103047800D01*
X215773000Y-103184177D01*
X215554650Y-103186400D01*
X215395900Y-103345150D01*
X215395900Y-104419400D01*
X215415900Y-104419400D01*
X215415900Y-104673400D01*
X215395900Y-104673400D01*
X215395900Y-105747650D01*
X215554650Y-105906400D01*
X215773000Y-105908623D01*
X215773000Y-105933324D01*
X215704000Y-105926528D01*
X215402250Y-105929600D01*
X215243500Y-106088350D01*
X215243500Y-107162600D01*
X215263500Y-107162600D01*
X215263500Y-107416600D01*
X215243500Y-107416600D01*
X215243500Y-107436600D01*
X214989500Y-107436600D01*
X214989500Y-107416600D01*
X214052750Y-107416600D01*
X213894000Y-107575350D01*
X213890928Y-108014600D01*
X213897074Y-108077000D01*
X212701406Y-108077000D01*
X212471000Y-107846594D01*
X212471000Y-107699984D01*
X212482012Y-107663682D01*
X212494272Y-107539200D01*
X212494272Y-106564600D01*
X213890928Y-106564600D01*
X213894000Y-107003850D01*
X214052750Y-107162600D01*
X214989500Y-107162600D01*
X214989500Y-106088350D01*
X214830750Y-105929600D01*
X214529000Y-105926528D01*
X214404518Y-105938788D01*
X214284820Y-105975098D01*
X214174506Y-106034063D01*
X214077815Y-106113415D01*
X213998463Y-106210106D01*
X213939498Y-106320420D01*
X213903188Y-106440118D01*
X213890928Y-106564600D01*
X212494272Y-106564600D01*
X212494272Y-106039200D01*
X212482012Y-105914718D01*
X212445702Y-105795020D01*
X212386737Y-105684706D01*
X212307385Y-105588015D01*
X212210694Y-105508663D01*
X212100380Y-105449698D01*
X211980682Y-105413388D01*
X211856200Y-105401128D01*
X211206200Y-105401128D01*
X211081718Y-105413388D01*
X210962020Y-105449698D01*
X210896200Y-105484880D01*
X210830380Y-105449698D01*
X210710682Y-105413388D01*
X210586200Y-105401128D01*
X209936200Y-105401128D01*
X209811718Y-105413388D01*
X209692020Y-105449698D01*
X209626200Y-105484880D01*
X209575400Y-105457726D01*
X209575400Y-105271400D01*
X214043328Y-105271400D01*
X214055588Y-105395882D01*
X214091898Y-105515580D01*
X214150863Y-105625894D01*
X214230215Y-105722585D01*
X214326906Y-105801937D01*
X214437220Y-105860902D01*
X214556918Y-105897212D01*
X214681400Y-105909472D01*
X214983150Y-105906400D01*
X215141900Y-105747650D01*
X215141900Y-104673400D01*
X214205150Y-104673400D01*
X214046400Y-104832150D01*
X214043328Y-105271400D01*
X209575400Y-105271400D01*
X209575400Y-103821400D01*
X214043328Y-103821400D01*
X214046400Y-104260650D01*
X214205150Y-104419400D01*
X215141900Y-104419400D01*
X215141900Y-103345150D01*
X214983150Y-103186400D01*
X214681400Y-103183328D01*
X214556918Y-103195588D01*
X214437220Y-103231898D01*
X214326906Y-103290863D01*
X214230215Y-103370215D01*
X214150863Y-103466906D01*
X214091898Y-103577220D01*
X214055588Y-103696918D01*
X214043328Y-103821400D01*
X209575400Y-103821400D01*
X209575400Y-102922606D01*
X209751317Y-102746689D01*
X209811718Y-102765012D01*
X209936200Y-102777272D01*
X209975450Y-102774200D01*
X210134200Y-102615450D01*
X210134200Y-101516200D01*
X210114200Y-101516200D01*
X210114200Y-101262200D01*
X210134200Y-101262200D01*
X210134200Y-101242200D01*
X210388200Y-101242200D01*
X210388200Y-101262200D01*
G04 #@! TA.AperFunction,Conductor*
D27*
G36*
X210388200Y-101262200D02*
G01*
X210408200Y-101262200D01*
X210408200Y-101516200D01*
X210388200Y-101516200D01*
X210388200Y-102615450D01*
X210546950Y-102774200D01*
X210586200Y-102777272D01*
X210710682Y-102765012D01*
X210830380Y-102728702D01*
X210896200Y-102693520D01*
X210962020Y-102728702D01*
X211081718Y-102765012D01*
X211206200Y-102777272D01*
X211856200Y-102777272D01*
X211980682Y-102765012D01*
X212100380Y-102728702D01*
X212210694Y-102669737D01*
X212307123Y-102590600D01*
X213053394Y-102590600D01*
X213473397Y-103010603D01*
X213492643Y-103026397D01*
X213514599Y-103038133D01*
X213538424Y-103045360D01*
X213563200Y-103047800D01*
X215773000Y-103047800D01*
X215773000Y-103184177D01*
X215554650Y-103186400D01*
X215395900Y-103345150D01*
X215395900Y-104419400D01*
X215415900Y-104419400D01*
X215415900Y-104673400D01*
X215395900Y-104673400D01*
X215395900Y-105747650D01*
X215554650Y-105906400D01*
X215773000Y-105908623D01*
X215773000Y-105933324D01*
X215704000Y-105926528D01*
X215402250Y-105929600D01*
X215243500Y-106088350D01*
X215243500Y-107162600D01*
X215263500Y-107162600D01*
X215263500Y-107416600D01*
X215243500Y-107416600D01*
X215243500Y-107436600D01*
X214989500Y-107436600D01*
X214989500Y-107416600D01*
X214052750Y-107416600D01*
X213894000Y-107575350D01*
X213890928Y-108014600D01*
X213897074Y-108077000D01*
X212701406Y-108077000D01*
X212471000Y-107846594D01*
X212471000Y-107699984D01*
X212482012Y-107663682D01*
X212494272Y-107539200D01*
X212494272Y-106564600D01*
X213890928Y-106564600D01*
X213894000Y-107003850D01*
X214052750Y-107162600D01*
X214989500Y-107162600D01*
X214989500Y-106088350D01*
X214830750Y-105929600D01*
X214529000Y-105926528D01*
X214404518Y-105938788D01*
X214284820Y-105975098D01*
X214174506Y-106034063D01*
X214077815Y-106113415D01*
X213998463Y-106210106D01*
X213939498Y-106320420D01*
X213903188Y-106440118D01*
X213890928Y-106564600D01*
X212494272Y-106564600D01*
X212494272Y-106039200D01*
X212482012Y-105914718D01*
X212445702Y-105795020D01*
X212386737Y-105684706D01*
X212307385Y-105588015D01*
X212210694Y-105508663D01*
X212100380Y-105449698D01*
X211980682Y-105413388D01*
X211856200Y-105401128D01*
X211206200Y-105401128D01*
X211081718Y-105413388D01*
X210962020Y-105449698D01*
X210896200Y-105484880D01*
X210830380Y-105449698D01*
X210710682Y-105413388D01*
X210586200Y-105401128D01*
X209936200Y-105401128D01*
X209811718Y-105413388D01*
X209692020Y-105449698D01*
X209626200Y-105484880D01*
X209575400Y-105457726D01*
X209575400Y-105271400D01*
X214043328Y-105271400D01*
X214055588Y-105395882D01*
X214091898Y-105515580D01*
X214150863Y-105625894D01*
X214230215Y-105722585D01*
X214326906Y-105801937D01*
X214437220Y-105860902D01*
X214556918Y-105897212D01*
X214681400Y-105909472D01*
X214983150Y-105906400D01*
X215141900Y-105747650D01*
X215141900Y-104673400D01*
X214205150Y-104673400D01*
X214046400Y-104832150D01*
X214043328Y-105271400D01*
X209575400Y-105271400D01*
X209575400Y-103821400D01*
X214043328Y-103821400D01*
X214046400Y-104260650D01*
X214205150Y-104419400D01*
X215141900Y-104419400D01*
X215141900Y-103345150D01*
X214983150Y-103186400D01*
X214681400Y-103183328D01*
X214556918Y-103195588D01*
X214437220Y-103231898D01*
X214326906Y-103290863D01*
X214230215Y-103370215D01*
X214150863Y-103466906D01*
X214091898Y-103577220D01*
X214055588Y-103696918D01*
X214043328Y-103821400D01*
X209575400Y-103821400D01*
X209575400Y-102922606D01*
X209751317Y-102746689D01*
X209811718Y-102765012D01*
X209936200Y-102777272D01*
X209975450Y-102774200D01*
X210134200Y-102615450D01*
X210134200Y-101516200D01*
X210114200Y-101516200D01*
X210114200Y-101262200D01*
X210134200Y-101262200D01*
X210134200Y-101242200D01*
X210388200Y-101242200D01*
X210388200Y-101262200D01*
G37*
G04 #@! TD.AperFunction*
D26*
X207848200Y-101262200D02*
X207868200Y-101262200D01*
X207868200Y-101516200D01*
X207848200Y-101516200D01*
X207848200Y-102615450D01*
X208006950Y-102774200D01*
X208046200Y-102777272D01*
X208170682Y-102765012D01*
X208290380Y-102728702D01*
X208305400Y-102720674D01*
X208305400Y-105457726D01*
X208290380Y-105449698D01*
X208170682Y-105413388D01*
X208046200Y-105401128D01*
X207396200Y-105401128D01*
X207271718Y-105413388D01*
X207152020Y-105449698D01*
X207083731Y-105486200D01*
X206679800Y-105486200D01*
X206679800Y-102576254D01*
X206705672Y-102527851D01*
X206756208Y-102361255D01*
X206768103Y-102240482D01*
X206770388Y-102263682D01*
X206806698Y-102383380D01*
X206865663Y-102493694D01*
X206945015Y-102590385D01*
X207041706Y-102669737D01*
X207152020Y-102728702D01*
X207271718Y-102765012D01*
X207396200Y-102777272D01*
X207435450Y-102774200D01*
X207594200Y-102615450D01*
X207594200Y-101516200D01*
X207574200Y-101516200D01*
X207574200Y-101262200D01*
X207594200Y-101262200D01*
X207594200Y-101242200D01*
X207848200Y-101242200D01*
X207848200Y-101262200D01*
G04 #@! TA.AperFunction,Conductor*
D27*
G36*
X207848200Y-101262200D02*
G01*
X207868200Y-101262200D01*
X207868200Y-101516200D01*
X207848200Y-101516200D01*
X207848200Y-102615450D01*
X208006950Y-102774200D01*
X208046200Y-102777272D01*
X208170682Y-102765012D01*
X208290380Y-102728702D01*
X208305400Y-102720674D01*
X208305400Y-105457726D01*
X208290380Y-105449698D01*
X208170682Y-105413388D01*
X208046200Y-105401128D01*
X207396200Y-105401128D01*
X207271718Y-105413388D01*
X207152020Y-105449698D01*
X207083731Y-105486200D01*
X206679800Y-105486200D01*
X206679800Y-102576254D01*
X206705672Y-102527851D01*
X206756208Y-102361255D01*
X206768103Y-102240482D01*
X206770388Y-102263682D01*
X206806698Y-102383380D01*
X206865663Y-102493694D01*
X206945015Y-102590385D01*
X207041706Y-102669737D01*
X207152020Y-102728702D01*
X207271718Y-102765012D01*
X207396200Y-102777272D01*
X207435450Y-102774200D01*
X207594200Y-102615450D01*
X207594200Y-101516200D01*
X207574200Y-101516200D01*
X207574200Y-101262200D01*
X207594200Y-101262200D01*
X207594200Y-101242200D01*
X207848200Y-101242200D01*
X207848200Y-101262200D01*
G37*
G04 #@! TD.AperFunction*
D26*
X221716600Y-111226600D02*
X216855321Y-111226600D01*
X216938685Y-111158185D01*
X217018037Y-111061494D01*
X217077002Y-110951180D01*
X217113312Y-110831482D01*
X217125572Y-110707000D01*
X217122500Y-110267750D01*
X216963750Y-110109000D01*
X216027000Y-110109000D01*
X216027000Y-110129000D01*
X215773000Y-110129000D01*
X215773000Y-110109000D01*
X215753000Y-110109000D01*
X215753000Y-109855000D01*
X215773000Y-109855000D01*
X215773000Y-109835000D01*
X216027000Y-109835000D01*
X216027000Y-109855000D01*
X216963750Y-109855000D01*
X217122500Y-109696250D01*
X217125572Y-109257000D01*
X217113312Y-109132518D01*
X217077002Y-109012820D01*
X217018037Y-108902506D01*
X216938685Y-108805815D01*
X216841994Y-108726463D01*
X216731680Y-108667498D01*
X216680246Y-108651896D01*
X216905750Y-108649600D01*
X217064500Y-108490850D01*
X217064500Y-107416600D01*
X217318500Y-107416600D01*
X217318500Y-108490850D01*
X217477250Y-108649600D01*
X217779000Y-108652672D01*
X217903482Y-108640412D01*
X218023180Y-108604102D01*
X218133494Y-108545137D01*
X218230185Y-108465785D01*
X218309537Y-108369094D01*
X218368502Y-108258780D01*
X218404812Y-108139082D01*
X218417072Y-108014600D01*
X218414000Y-107575350D01*
X218255250Y-107416600D01*
X217318500Y-107416600D01*
X217064500Y-107416600D01*
X217044500Y-107416600D01*
X217044500Y-107162600D01*
X217064500Y-107162600D01*
X217064500Y-106088350D01*
X217318500Y-106088350D01*
X217318500Y-107162600D01*
X218255250Y-107162600D01*
X218414000Y-107003850D01*
X218417072Y-106564600D01*
X218404812Y-106440118D01*
X218368502Y-106320420D01*
X218309537Y-106210106D01*
X218230185Y-106113415D01*
X218133494Y-106034063D01*
X218023180Y-105975098D01*
X217903482Y-105938788D01*
X217779000Y-105926528D01*
X217477250Y-105929600D01*
X217318500Y-106088350D01*
X217064500Y-106088350D01*
X216905750Y-105929600D01*
X216839800Y-105928929D01*
X216839800Y-105908623D01*
X217058150Y-105906400D01*
X217216900Y-105747650D01*
X217216900Y-104673400D01*
X217470900Y-104673400D01*
X217470900Y-105747650D01*
X217629650Y-105906400D01*
X217931400Y-105909472D01*
X218055882Y-105897212D01*
X218175580Y-105860902D01*
X218285894Y-105801937D01*
X218382585Y-105722585D01*
X218461937Y-105625894D01*
X218520902Y-105515580D01*
X218557212Y-105395882D01*
X218569472Y-105271400D01*
X218566400Y-104832150D01*
X218407650Y-104673400D01*
X217470900Y-104673400D01*
X217216900Y-104673400D01*
X217196900Y-104673400D01*
X217196900Y-104419400D01*
X217216900Y-104419400D01*
X217216900Y-103345150D01*
X217470900Y-103345150D01*
X217470900Y-104419400D01*
X218407650Y-104419400D01*
X218566400Y-104260650D01*
X218569472Y-103821400D01*
X218557212Y-103696918D01*
X218520902Y-103577220D01*
X218461937Y-103466906D01*
X218382585Y-103370215D01*
X218285894Y-103290863D01*
X218175580Y-103231898D01*
X218055882Y-103195588D01*
X217931400Y-103183328D01*
X217629650Y-103186400D01*
X217470900Y-103345150D01*
X217216900Y-103345150D01*
X217058150Y-103186400D01*
X216839800Y-103184177D01*
X216839800Y-102285800D01*
X221716600Y-102285800D01*
X221716600Y-111226600D01*
G04 #@! TA.AperFunction,Conductor*
D27*
G36*
X221716600Y-111226600D02*
G01*
X216855321Y-111226600D01*
X216938685Y-111158185D01*
X217018037Y-111061494D01*
X217077002Y-110951180D01*
X217113312Y-110831482D01*
X217125572Y-110707000D01*
X217122500Y-110267750D01*
X216963750Y-110109000D01*
X216027000Y-110109000D01*
X216027000Y-110129000D01*
X215773000Y-110129000D01*
X215773000Y-110109000D01*
X215753000Y-110109000D01*
X215753000Y-109855000D01*
X215773000Y-109855000D01*
X215773000Y-109835000D01*
X216027000Y-109835000D01*
X216027000Y-109855000D01*
X216963750Y-109855000D01*
X217122500Y-109696250D01*
X217125572Y-109257000D01*
X217113312Y-109132518D01*
X217077002Y-109012820D01*
X217018037Y-108902506D01*
X216938685Y-108805815D01*
X216841994Y-108726463D01*
X216731680Y-108667498D01*
X216680246Y-108651896D01*
X216905750Y-108649600D01*
X217064500Y-108490850D01*
X217064500Y-107416600D01*
X217318500Y-107416600D01*
X217318500Y-108490850D01*
X217477250Y-108649600D01*
X217779000Y-108652672D01*
X217903482Y-108640412D01*
X218023180Y-108604102D01*
X218133494Y-108545137D01*
X218230185Y-108465785D01*
X218309537Y-108369094D01*
X218368502Y-108258780D01*
X218404812Y-108139082D01*
X218417072Y-108014600D01*
X218414000Y-107575350D01*
X218255250Y-107416600D01*
X217318500Y-107416600D01*
X217064500Y-107416600D01*
X217044500Y-107416600D01*
X217044500Y-107162600D01*
X217064500Y-107162600D01*
X217064500Y-106088350D01*
X217318500Y-106088350D01*
X217318500Y-107162600D01*
X218255250Y-107162600D01*
X218414000Y-107003850D01*
X218417072Y-106564600D01*
X218404812Y-106440118D01*
X218368502Y-106320420D01*
X218309537Y-106210106D01*
X218230185Y-106113415D01*
X218133494Y-106034063D01*
X218023180Y-105975098D01*
X217903482Y-105938788D01*
X217779000Y-105926528D01*
X217477250Y-105929600D01*
X217318500Y-106088350D01*
X217064500Y-106088350D01*
X216905750Y-105929600D01*
X216839800Y-105928929D01*
X216839800Y-105908623D01*
X217058150Y-105906400D01*
X217216900Y-105747650D01*
X217216900Y-104673400D01*
X217470900Y-104673400D01*
X217470900Y-105747650D01*
X217629650Y-105906400D01*
X217931400Y-105909472D01*
X218055882Y-105897212D01*
X218175580Y-105860902D01*
X218285894Y-105801937D01*
X218382585Y-105722585D01*
X218461937Y-105625894D01*
X218520902Y-105515580D01*
X218557212Y-105395882D01*
X218569472Y-105271400D01*
X218566400Y-104832150D01*
X218407650Y-104673400D01*
X217470900Y-104673400D01*
X217216900Y-104673400D01*
X217196900Y-104673400D01*
X217196900Y-104419400D01*
X217216900Y-104419400D01*
X217216900Y-103345150D01*
X217470900Y-103345150D01*
X217470900Y-104419400D01*
X218407650Y-104419400D01*
X218566400Y-104260650D01*
X218569472Y-103821400D01*
X218557212Y-103696918D01*
X218520902Y-103577220D01*
X218461937Y-103466906D01*
X218382585Y-103370215D01*
X218285894Y-103290863D01*
X218175580Y-103231898D01*
X218055882Y-103195588D01*
X217931400Y-103183328D01*
X217629650Y-103186400D01*
X217470900Y-103345150D01*
X217216900Y-103345150D01*
X217058150Y-103186400D01*
X216839800Y-103184177D01*
X216839800Y-102285800D01*
X221716600Y-102285800D01*
X221716600Y-111226600D01*
G37*
G04 #@! TD.AperFunction*
D26*
X215011000Y-86537800D02*
X212995023Y-86537800D01*
X212992800Y-86319450D01*
X212834050Y-86160700D01*
X211759800Y-86160700D01*
X211759800Y-86180700D01*
X211505800Y-86180700D01*
X211505800Y-86160700D01*
X210431550Y-86160700D01*
X210272800Y-86319450D01*
X210270577Y-86537800D01*
X209489823Y-86537800D01*
X209487600Y-86319450D01*
X209328850Y-86160700D01*
X208254600Y-86160700D01*
X208254600Y-86180700D01*
X208000600Y-86180700D01*
X208000600Y-86160700D01*
X206926350Y-86160700D01*
X206767600Y-86319450D01*
X206765377Y-86537800D01*
X204546200Y-86537800D01*
X204546200Y-85446200D01*
X206764528Y-85446200D01*
X206767600Y-85747950D01*
X206926350Y-85906700D01*
X208000600Y-85906700D01*
X208000600Y-84969950D01*
X208254600Y-84969950D01*
X208254600Y-85906700D01*
X209328850Y-85906700D01*
X209487600Y-85747950D01*
X209490672Y-85446200D01*
X210269728Y-85446200D01*
X210272800Y-85747950D01*
X210431550Y-85906700D01*
X211505800Y-85906700D01*
X211505800Y-84969950D01*
X211759800Y-84969950D01*
X211759800Y-85906700D01*
X212834050Y-85906700D01*
X212992800Y-85747950D01*
X212995872Y-85446200D01*
X212983612Y-85321718D01*
X212947302Y-85202020D01*
X212888337Y-85091706D01*
X212808985Y-84995015D01*
X212712294Y-84915663D01*
X212601980Y-84856698D01*
X212482282Y-84820388D01*
X212357800Y-84808128D01*
X211918550Y-84811200D01*
X211759800Y-84969950D01*
X211505800Y-84969950D01*
X211347050Y-84811200D01*
X210907800Y-84808128D01*
X210783318Y-84820388D01*
X210663620Y-84856698D01*
X210553306Y-84915663D01*
X210456615Y-84995015D01*
X210377263Y-85091706D01*
X210318298Y-85202020D01*
X210281988Y-85321718D01*
X210269728Y-85446200D01*
X209490672Y-85446200D01*
X209478412Y-85321718D01*
X209442102Y-85202020D01*
X209383137Y-85091706D01*
X209303785Y-84995015D01*
X209207094Y-84915663D01*
X209096780Y-84856698D01*
X208977082Y-84820388D01*
X208852600Y-84808128D01*
X208413350Y-84811200D01*
X208254600Y-84969950D01*
X208000600Y-84969950D01*
X207841850Y-84811200D01*
X207402600Y-84808128D01*
X207278118Y-84820388D01*
X207158420Y-84856698D01*
X207048106Y-84915663D01*
X206951415Y-84995015D01*
X206872063Y-85091706D01*
X206813098Y-85202020D01*
X206776788Y-85321718D01*
X206764528Y-85446200D01*
X204546200Y-85446200D01*
X204546200Y-83174659D01*
X204651792Y-83332689D01*
X205211311Y-83892208D01*
X205869237Y-84331820D01*
X206600284Y-84634629D01*
X207376360Y-84789000D01*
X208167640Y-84789000D01*
X208943716Y-84634629D01*
X209674763Y-84331820D01*
X210332689Y-83892208D01*
X210892208Y-83332689D01*
X211126664Y-82981800D01*
X215011000Y-82981800D01*
X215011000Y-86537800D01*
G04 #@! TA.AperFunction,Conductor*
D27*
G36*
X215011000Y-86537800D02*
G01*
X212995023Y-86537800D01*
X212992800Y-86319450D01*
X212834050Y-86160700D01*
X211759800Y-86160700D01*
X211759800Y-86180700D01*
X211505800Y-86180700D01*
X211505800Y-86160700D01*
X210431550Y-86160700D01*
X210272800Y-86319450D01*
X210270577Y-86537800D01*
X209489823Y-86537800D01*
X209487600Y-86319450D01*
X209328850Y-86160700D01*
X208254600Y-86160700D01*
X208254600Y-86180700D01*
X208000600Y-86180700D01*
X208000600Y-86160700D01*
X206926350Y-86160700D01*
X206767600Y-86319450D01*
X206765377Y-86537800D01*
X204546200Y-86537800D01*
X204546200Y-85446200D01*
X206764528Y-85446200D01*
X206767600Y-85747950D01*
X206926350Y-85906700D01*
X208000600Y-85906700D01*
X208000600Y-84969950D01*
X208254600Y-84969950D01*
X208254600Y-85906700D01*
X209328850Y-85906700D01*
X209487600Y-85747950D01*
X209490672Y-85446200D01*
X210269728Y-85446200D01*
X210272800Y-85747950D01*
X210431550Y-85906700D01*
X211505800Y-85906700D01*
X211505800Y-84969950D01*
X211759800Y-84969950D01*
X211759800Y-85906700D01*
X212834050Y-85906700D01*
X212992800Y-85747950D01*
X212995872Y-85446200D01*
X212983612Y-85321718D01*
X212947302Y-85202020D01*
X212888337Y-85091706D01*
X212808985Y-84995015D01*
X212712294Y-84915663D01*
X212601980Y-84856698D01*
X212482282Y-84820388D01*
X212357800Y-84808128D01*
X211918550Y-84811200D01*
X211759800Y-84969950D01*
X211505800Y-84969950D01*
X211347050Y-84811200D01*
X210907800Y-84808128D01*
X210783318Y-84820388D01*
X210663620Y-84856698D01*
X210553306Y-84915663D01*
X210456615Y-84995015D01*
X210377263Y-85091706D01*
X210318298Y-85202020D01*
X210281988Y-85321718D01*
X210269728Y-85446200D01*
X209490672Y-85446200D01*
X209478412Y-85321718D01*
X209442102Y-85202020D01*
X209383137Y-85091706D01*
X209303785Y-84995015D01*
X209207094Y-84915663D01*
X209096780Y-84856698D01*
X208977082Y-84820388D01*
X208852600Y-84808128D01*
X208413350Y-84811200D01*
X208254600Y-84969950D01*
X208000600Y-84969950D01*
X207841850Y-84811200D01*
X207402600Y-84808128D01*
X207278118Y-84820388D01*
X207158420Y-84856698D01*
X207048106Y-84915663D01*
X206951415Y-84995015D01*
X206872063Y-85091706D01*
X206813098Y-85202020D01*
X206776788Y-85321718D01*
X206764528Y-85446200D01*
X204546200Y-85446200D01*
X204546200Y-83174659D01*
X204651792Y-83332689D01*
X205211311Y-83892208D01*
X205869237Y-84331820D01*
X206600284Y-84634629D01*
X207376360Y-84789000D01*
X208167640Y-84789000D01*
X208943716Y-84634629D01*
X209674763Y-84331820D01*
X210332689Y-83892208D01*
X210892208Y-83332689D01*
X211126664Y-82981800D01*
X215011000Y-82981800D01*
X215011000Y-86537800D01*
G37*
G04 #@! TD.AperFunction*
D26*
X206767600Y-87822950D02*
X206926350Y-87981700D01*
X208000600Y-87981700D01*
X208000600Y-87961700D01*
X208254600Y-87961700D01*
X208254600Y-87981700D01*
X209328850Y-87981700D01*
X209487600Y-87822950D01*
X209489823Y-87604600D01*
X210270577Y-87604600D01*
X210272800Y-87822950D01*
X210431550Y-87981700D01*
X211505800Y-87981700D01*
X211505800Y-87961700D01*
X211759800Y-87961700D01*
X211759800Y-87981700D01*
X212834050Y-87981700D01*
X212992800Y-87822950D01*
X212995023Y-87604600D01*
X215925400Y-87604600D01*
X215925400Y-93040200D01*
X213494697Y-93040200D01*
X213492200Y-92622150D01*
X213333450Y-92463400D01*
X210134200Y-92463400D01*
X210134200Y-92483400D01*
X209880200Y-92483400D01*
X209880200Y-92463400D01*
X206680950Y-92463400D01*
X206522200Y-92622150D01*
X206519703Y-93040200D01*
X204546200Y-93040200D01*
X204546200Y-91536400D01*
X206519128Y-91536400D01*
X206522200Y-92050650D01*
X206680950Y-92209400D01*
X209880200Y-92209400D01*
X209880200Y-91060150D01*
X210134200Y-91060150D01*
X210134200Y-92209400D01*
X213333450Y-92209400D01*
X213492200Y-92050650D01*
X213495272Y-91536400D01*
X213483012Y-91411918D01*
X213446702Y-91292220D01*
X213387737Y-91181906D01*
X213308385Y-91085215D01*
X213211694Y-91005863D01*
X213101380Y-90946898D01*
X212981682Y-90910588D01*
X212857200Y-90898328D01*
X210292950Y-90901400D01*
X210134200Y-91060150D01*
X209880200Y-91060150D01*
X209721450Y-90901400D01*
X207157200Y-90898328D01*
X207032718Y-90910588D01*
X206913020Y-90946898D01*
X206802706Y-91005863D01*
X206706015Y-91085215D01*
X206626663Y-91181906D01*
X206567698Y-91292220D01*
X206531388Y-91411918D01*
X206519128Y-91536400D01*
X204546200Y-91536400D01*
X204546200Y-88696200D01*
X206764528Y-88696200D01*
X206776788Y-88820682D01*
X206813098Y-88940380D01*
X206872063Y-89050694D01*
X206951415Y-89147385D01*
X207048106Y-89226737D01*
X207158420Y-89285702D01*
X207278118Y-89322012D01*
X207402600Y-89334272D01*
X207841850Y-89331200D01*
X208000600Y-89172450D01*
X208000600Y-88235700D01*
X208254600Y-88235700D01*
X208254600Y-89172450D01*
X208413350Y-89331200D01*
X208852600Y-89334272D01*
X208977082Y-89322012D01*
X209096780Y-89285702D01*
X209207094Y-89226737D01*
X209303785Y-89147385D01*
X209383137Y-89050694D01*
X209442102Y-88940380D01*
X209478412Y-88820682D01*
X209490672Y-88696200D01*
X210269728Y-88696200D01*
X210281988Y-88820682D01*
X210318298Y-88940380D01*
X210377263Y-89050694D01*
X210456615Y-89147385D01*
X210553306Y-89226737D01*
X210663620Y-89285702D01*
X210783318Y-89322012D01*
X210907800Y-89334272D01*
X211347050Y-89331200D01*
X211505800Y-89172450D01*
X211505800Y-88235700D01*
X211759800Y-88235700D01*
X211759800Y-89172450D01*
X211918550Y-89331200D01*
X212357800Y-89334272D01*
X212482282Y-89322012D01*
X212601980Y-89285702D01*
X212712294Y-89226737D01*
X212808985Y-89147385D01*
X212888337Y-89050694D01*
X212947302Y-88940380D01*
X212983612Y-88820682D01*
X212995872Y-88696200D01*
X212992800Y-88394450D01*
X212834050Y-88235700D01*
X211759800Y-88235700D01*
X211505800Y-88235700D01*
X210431550Y-88235700D01*
X210272800Y-88394450D01*
X210269728Y-88696200D01*
X209490672Y-88696200D01*
X209487600Y-88394450D01*
X209328850Y-88235700D01*
X208254600Y-88235700D01*
X208000600Y-88235700D01*
X206926350Y-88235700D01*
X206767600Y-88394450D01*
X206764528Y-88696200D01*
X204546200Y-88696200D01*
X204546200Y-87604600D01*
X206765377Y-87604600D01*
X206767600Y-87822950D01*
G04 #@! TA.AperFunction,Conductor*
D27*
G36*
X206767600Y-87822950D02*
G01*
X206926350Y-87981700D01*
X208000600Y-87981700D01*
X208000600Y-87961700D01*
X208254600Y-87961700D01*
X208254600Y-87981700D01*
X209328850Y-87981700D01*
X209487600Y-87822950D01*
X209489823Y-87604600D01*
X210270577Y-87604600D01*
X210272800Y-87822950D01*
X210431550Y-87981700D01*
X211505800Y-87981700D01*
X211505800Y-87961700D01*
X211759800Y-87961700D01*
X211759800Y-87981700D01*
X212834050Y-87981700D01*
X212992800Y-87822950D01*
X212995023Y-87604600D01*
X215925400Y-87604600D01*
X215925400Y-93040200D01*
X213494697Y-93040200D01*
X213492200Y-92622150D01*
X213333450Y-92463400D01*
X210134200Y-92463400D01*
X210134200Y-92483400D01*
X209880200Y-92483400D01*
X209880200Y-92463400D01*
X206680950Y-92463400D01*
X206522200Y-92622150D01*
X206519703Y-93040200D01*
X204546200Y-93040200D01*
X204546200Y-91536400D01*
X206519128Y-91536400D01*
X206522200Y-92050650D01*
X206680950Y-92209400D01*
X209880200Y-92209400D01*
X209880200Y-91060150D01*
X210134200Y-91060150D01*
X210134200Y-92209400D01*
X213333450Y-92209400D01*
X213492200Y-92050650D01*
X213495272Y-91536400D01*
X213483012Y-91411918D01*
X213446702Y-91292220D01*
X213387737Y-91181906D01*
X213308385Y-91085215D01*
X213211694Y-91005863D01*
X213101380Y-90946898D01*
X212981682Y-90910588D01*
X212857200Y-90898328D01*
X210292950Y-90901400D01*
X210134200Y-91060150D01*
X209880200Y-91060150D01*
X209721450Y-90901400D01*
X207157200Y-90898328D01*
X207032718Y-90910588D01*
X206913020Y-90946898D01*
X206802706Y-91005863D01*
X206706015Y-91085215D01*
X206626663Y-91181906D01*
X206567698Y-91292220D01*
X206531388Y-91411918D01*
X206519128Y-91536400D01*
X204546200Y-91536400D01*
X204546200Y-88696200D01*
X206764528Y-88696200D01*
X206776788Y-88820682D01*
X206813098Y-88940380D01*
X206872063Y-89050694D01*
X206951415Y-89147385D01*
X207048106Y-89226737D01*
X207158420Y-89285702D01*
X207278118Y-89322012D01*
X207402600Y-89334272D01*
X207841850Y-89331200D01*
X208000600Y-89172450D01*
X208000600Y-88235700D01*
X208254600Y-88235700D01*
X208254600Y-89172450D01*
X208413350Y-89331200D01*
X208852600Y-89334272D01*
X208977082Y-89322012D01*
X209096780Y-89285702D01*
X209207094Y-89226737D01*
X209303785Y-89147385D01*
X209383137Y-89050694D01*
X209442102Y-88940380D01*
X209478412Y-88820682D01*
X209490672Y-88696200D01*
X210269728Y-88696200D01*
X210281988Y-88820682D01*
X210318298Y-88940380D01*
X210377263Y-89050694D01*
X210456615Y-89147385D01*
X210553306Y-89226737D01*
X210663620Y-89285702D01*
X210783318Y-89322012D01*
X210907800Y-89334272D01*
X211347050Y-89331200D01*
X211505800Y-89172450D01*
X211505800Y-88235700D01*
X211759800Y-88235700D01*
X211759800Y-89172450D01*
X211918550Y-89331200D01*
X212357800Y-89334272D01*
X212482282Y-89322012D01*
X212601980Y-89285702D01*
X212712294Y-89226737D01*
X212808985Y-89147385D01*
X212888337Y-89050694D01*
X212947302Y-88940380D01*
X212983612Y-88820682D01*
X212995872Y-88696200D01*
X212992800Y-88394450D01*
X212834050Y-88235700D01*
X211759800Y-88235700D01*
X211505800Y-88235700D01*
X210431550Y-88235700D01*
X210272800Y-88394450D01*
X210269728Y-88696200D01*
X209490672Y-88696200D01*
X209487600Y-88394450D01*
X209328850Y-88235700D01*
X208254600Y-88235700D01*
X208000600Y-88235700D01*
X206926350Y-88235700D01*
X206767600Y-88394450D01*
X206764528Y-88696200D01*
X204546200Y-88696200D01*
X204546200Y-87604600D01*
X206765377Y-87604600D01*
X206767600Y-87822950D01*
G37*
G04 #@! TD.AperFunction*
M02*
