G04 #@! TF.GenerationSoftware,KiCad,Pcbnew,(5.1.8-0-10_14)*
G04 #@! TF.CreationDate,2021-08-13T20:39:07-06:00*
G04 #@! TF.ProjectId,ESP8266_Water_Sensor,45535038-3236-4365-9f57-617465725f53,rev?*
G04 #@! TF.SameCoordinates,Original*
G04 #@! TF.FileFunction,Soldermask,Bot*
G04 #@! TF.FilePolarity,Negative*
%FSLAX46Y46*%
G04 Gerber Fmt 4.6, Leading zero omitted, Abs format (unit mm)*
G04 Created by KiCad (PCBNEW (5.1.8-0-10_14)) date 2021-08-13 20:39:07*
%MOMM*%
%LPD*%
G01*
G04 APERTURE LIST*
%ADD10C,3.716000*%
%ADD11O,1.801600X1.801600*%
%ADD12C,1.901600*%
%ADD13C,0.100000*%
%ADD14C,2.051600*%
%ADD15C,1.701600*%
G04 APERTURE END LIST*
D10*
X252730000Y-125730000D03*
G36*
G01*
X234163200Y-86254583D02*
X234163200Y-85246217D01*
G75*
G02*
X234434817Y-84974600I271617J0D01*
G01*
X235168183Y-84974600D01*
G75*
G02*
X235439800Y-85246217I0J-271617D01*
G01*
X235439800Y-86254583D01*
G75*
G02*
X235168183Y-86526200I-271617J0D01*
G01*
X234434817Y-86526200D01*
G75*
G02*
X234163200Y-86254583I0J271617D01*
G01*
G37*
G36*
G01*
X236238200Y-86254583D02*
X236238200Y-85246217D01*
G75*
G02*
X236509817Y-84974600I271617J0D01*
G01*
X237243183Y-84974600D01*
G75*
G02*
X237514800Y-85246217I0J-271617D01*
G01*
X237514800Y-86254583D01*
G75*
G02*
X237243183Y-86526200I-271617J0D01*
G01*
X236509817Y-86526200D01*
G75*
G02*
X236238200Y-86254583I0J271617D01*
G01*
G37*
G36*
G01*
X234112400Y-88718383D02*
X234112400Y-87710017D01*
G75*
G02*
X234384017Y-87438400I271617J0D01*
G01*
X235117383Y-87438400D01*
G75*
G02*
X235389000Y-87710017I0J-271617D01*
G01*
X235389000Y-88718383D01*
G75*
G02*
X235117383Y-88990000I-271617J0D01*
G01*
X234384017Y-88990000D01*
G75*
G02*
X234112400Y-88718383I0J271617D01*
G01*
G37*
G36*
G01*
X236187400Y-88718383D02*
X236187400Y-87710017D01*
G75*
G02*
X236459017Y-87438400I271617J0D01*
G01*
X237192383Y-87438400D01*
G75*
G02*
X237464000Y-87710017I0J-271617D01*
G01*
X237464000Y-88718383D01*
G75*
G02*
X237192383Y-88990000I-271617J0D01*
G01*
X236459017Y-88990000D01*
G75*
G02*
X236187400Y-88718383I0J271617D01*
G01*
G37*
G36*
G01*
X223933600Y-86922617D02*
X223933600Y-87930983D01*
G75*
G02*
X223661983Y-88202600I-271617J0D01*
G01*
X222928617Y-88202600D01*
G75*
G02*
X222657000Y-87930983I0J271617D01*
G01*
X222657000Y-86922617D01*
G75*
G02*
X222928617Y-86651000I271617J0D01*
G01*
X223661983Y-86651000D01*
G75*
G02*
X223933600Y-86922617I0J-271617D01*
G01*
G37*
G36*
G01*
X226008600Y-86922617D02*
X226008600Y-87930983D01*
G75*
G02*
X225736983Y-88202600I-271617J0D01*
G01*
X225003617Y-88202600D01*
G75*
G02*
X224732000Y-87930983I0J271617D01*
G01*
X224732000Y-86922617D01*
G75*
G02*
X225003617Y-86651000I271617J0D01*
G01*
X225736983Y-86651000D01*
G75*
G02*
X226008600Y-86922617I0J-271617D01*
G01*
G37*
G36*
G01*
X247903400Y-88167217D02*
X247903400Y-89175583D01*
G75*
G02*
X247631783Y-89447200I-271617J0D01*
G01*
X246898417Y-89447200D01*
G75*
G02*
X246626800Y-89175583I0J271617D01*
G01*
X246626800Y-88167217D01*
G75*
G02*
X246898417Y-87895600I271617J0D01*
G01*
X247631783Y-87895600D01*
G75*
G02*
X247903400Y-88167217I0J-271617D01*
G01*
G37*
G36*
G01*
X245828400Y-88167217D02*
X245828400Y-89175583D01*
G75*
G02*
X245556783Y-89447200I-271617J0D01*
G01*
X244823417Y-89447200D01*
G75*
G02*
X244551800Y-89175583I0J271617D01*
G01*
X244551800Y-88167217D01*
G75*
G02*
X244823417Y-87895600I271617J0D01*
G01*
X245556783Y-87895600D01*
G75*
G02*
X245828400Y-88167217I0J-271617D01*
G01*
G37*
G36*
G01*
X226008600Y-94237817D02*
X226008600Y-95246183D01*
G75*
G02*
X225736983Y-95517800I-271617J0D01*
G01*
X225003617Y-95517800D01*
G75*
G02*
X224732000Y-95246183I0J271617D01*
G01*
X224732000Y-94237817D01*
G75*
G02*
X225003617Y-93966200I271617J0D01*
G01*
X225736983Y-93966200D01*
G75*
G02*
X226008600Y-94237817I0J-271617D01*
G01*
G37*
G36*
G01*
X223933600Y-94237817D02*
X223933600Y-95246183D01*
G75*
G02*
X223661983Y-95517800I-271617J0D01*
G01*
X222928617Y-95517800D01*
G75*
G02*
X222657000Y-95246183I0J271617D01*
G01*
X222657000Y-94237817D01*
G75*
G02*
X222928617Y-93966200I271617J0D01*
G01*
X223661983Y-93966200D01*
G75*
G02*
X223933600Y-94237817I0J-271617D01*
G01*
G37*
G36*
G01*
X227242000Y-109308000D02*
X227242000Y-107608000D01*
G75*
G02*
X227292800Y-107557200I50800J0D01*
G01*
X228992800Y-107557200D01*
G75*
G02*
X229043600Y-107608000I0J-50800D01*
G01*
X229043600Y-109308000D01*
G75*
G02*
X228992800Y-109358800I-50800J0D01*
G01*
X227292800Y-109358800D01*
G75*
G02*
X227242000Y-109308000I0J50800D01*
G01*
G37*
D11*
X228142800Y-110998000D03*
X228142800Y-113538000D03*
X228142800Y-116078000D03*
X228142800Y-118618000D03*
X228142800Y-121158000D03*
D12*
X219884000Y-126644400D03*
G36*
G01*
X213933200Y-127544400D02*
X213933200Y-125744400D01*
G75*
G02*
X213984000Y-125693600I50800J0D01*
G01*
X215784000Y-125693600D01*
G75*
G02*
X215834800Y-125744400I0J-50800D01*
G01*
X215834800Y-127544400D01*
G75*
G02*
X215784000Y-127595200I-50800J0D01*
G01*
X213984000Y-127595200D01*
G75*
G02*
X213933200Y-127544400I0J50800D01*
G01*
G37*
G36*
G01*
X252084000Y-105881600D02*
X253884000Y-105881600D01*
G75*
G02*
X253934800Y-105932400I0J-50800D01*
G01*
X253934800Y-107732400D01*
G75*
G02*
X253884000Y-107783200I-50800J0D01*
G01*
X252084000Y-107783200D01*
G75*
G02*
X252033200Y-107732400I0J50800D01*
G01*
X252033200Y-105932400D01*
G75*
G02*
X252084000Y-105881600I50800J0D01*
G01*
G37*
X252984000Y-111832400D03*
D11*
X254965200Y-97942400D03*
X254965200Y-95402400D03*
X254965200Y-92862400D03*
X254965200Y-90322400D03*
X254965200Y-87782400D03*
G36*
G01*
X254064400Y-86092400D02*
X254064400Y-84392400D01*
G75*
G02*
X254115200Y-84341600I50800J0D01*
G01*
X255815200Y-84341600D01*
G75*
G02*
X255866000Y-84392400I0J-50800D01*
G01*
X255866000Y-86092400D01*
G75*
G02*
X255815200Y-86143200I-50800J0D01*
G01*
X254115200Y-86143200D01*
G75*
G02*
X254064400Y-86092400I0J50800D01*
G01*
G37*
D13*
G36*
X232473598Y-110536513D02*
G01*
X232473598Y-110554934D01*
X232473353Y-110559914D01*
X232468543Y-110608745D01*
X232467812Y-110613675D01*
X232458240Y-110661800D01*
X232457028Y-110666637D01*
X232442784Y-110713592D01*
X232441105Y-110718285D01*
X232422328Y-110763618D01*
X232420196Y-110768126D01*
X232397065Y-110811399D01*
X232394503Y-110815673D01*
X232367243Y-110856472D01*
X232364273Y-110860477D01*
X232333145Y-110898406D01*
X232329797Y-110902100D01*
X232295100Y-110936797D01*
X232291406Y-110940145D01*
X232253477Y-110971273D01*
X232249472Y-110974243D01*
X232208673Y-111001503D01*
X232204399Y-111004065D01*
X232161126Y-111027196D01*
X232156618Y-111029328D01*
X232111285Y-111048105D01*
X232106592Y-111049784D01*
X232059637Y-111064028D01*
X232054800Y-111065240D01*
X232006675Y-111074812D01*
X232001745Y-111075543D01*
X231952914Y-111080353D01*
X231947934Y-111080598D01*
X231929513Y-111080598D01*
X231923400Y-111081200D01*
X231423400Y-111081200D01*
X231417287Y-111080598D01*
X231398866Y-111080598D01*
X231393886Y-111080353D01*
X231345055Y-111075543D01*
X231340125Y-111074812D01*
X231292000Y-111065240D01*
X231287163Y-111064028D01*
X231240208Y-111049784D01*
X231235515Y-111048105D01*
X231190182Y-111029328D01*
X231185674Y-111027196D01*
X231142401Y-111004065D01*
X231138127Y-111001503D01*
X231097328Y-110974243D01*
X231093323Y-110971273D01*
X231055394Y-110940145D01*
X231051700Y-110936797D01*
X231017003Y-110902100D01*
X231013655Y-110898406D01*
X230982527Y-110860477D01*
X230979557Y-110856472D01*
X230952297Y-110815673D01*
X230949735Y-110811399D01*
X230926604Y-110768126D01*
X230924472Y-110763618D01*
X230905695Y-110718285D01*
X230904016Y-110713592D01*
X230889772Y-110666637D01*
X230888560Y-110661800D01*
X230878988Y-110613675D01*
X230878257Y-110608745D01*
X230873447Y-110559914D01*
X230873202Y-110554934D01*
X230873202Y-110536513D01*
X230872600Y-110530400D01*
X230872600Y-110030400D01*
X230873576Y-110020489D01*
X230876467Y-110010960D01*
X230881161Y-110002177D01*
X230887479Y-109994479D01*
X230895177Y-109988161D01*
X230903960Y-109983467D01*
X230913489Y-109980576D01*
X230923400Y-109979600D01*
X232423400Y-109979600D01*
X232433311Y-109980576D01*
X232442840Y-109983467D01*
X232451623Y-109988161D01*
X232459321Y-109994479D01*
X232465639Y-110002177D01*
X232470333Y-110010960D01*
X232473224Y-110020489D01*
X232474200Y-110030400D01*
X232474200Y-110530400D01*
X232473598Y-110536513D01*
G37*
G36*
X232473224Y-109740311D02*
G01*
X232470333Y-109749840D01*
X232465639Y-109758623D01*
X232459321Y-109766321D01*
X232451623Y-109772639D01*
X232442840Y-109777333D01*
X232433311Y-109780224D01*
X232423400Y-109781200D01*
X230923400Y-109781200D01*
X230913489Y-109780224D01*
X230903960Y-109777333D01*
X230895177Y-109772639D01*
X230887479Y-109766321D01*
X230881161Y-109758623D01*
X230876467Y-109749840D01*
X230873576Y-109740311D01*
X230872600Y-109730400D01*
X230872600Y-109230400D01*
X230873202Y-109224287D01*
X230873202Y-109205866D01*
X230873447Y-109200886D01*
X230878257Y-109152055D01*
X230878988Y-109147125D01*
X230888560Y-109099000D01*
X230889772Y-109094163D01*
X230904016Y-109047208D01*
X230905695Y-109042515D01*
X230924472Y-108997182D01*
X230926604Y-108992674D01*
X230949735Y-108949401D01*
X230952297Y-108945127D01*
X230979557Y-108904328D01*
X230982527Y-108900323D01*
X231013655Y-108862394D01*
X231017003Y-108858700D01*
X231051700Y-108824003D01*
X231055394Y-108820655D01*
X231093323Y-108789527D01*
X231097328Y-108786557D01*
X231138127Y-108759297D01*
X231142401Y-108756735D01*
X231185674Y-108733604D01*
X231190182Y-108731472D01*
X231235515Y-108712695D01*
X231240208Y-108711016D01*
X231287163Y-108696772D01*
X231292000Y-108695560D01*
X231340125Y-108685988D01*
X231345055Y-108685257D01*
X231393886Y-108680447D01*
X231398866Y-108680202D01*
X231417287Y-108680202D01*
X231423400Y-108679600D01*
X231923400Y-108679600D01*
X231929513Y-108680202D01*
X231947934Y-108680202D01*
X231952914Y-108680447D01*
X232001745Y-108685257D01*
X232006675Y-108685988D01*
X232054800Y-108695560D01*
X232059637Y-108696772D01*
X232106592Y-108711016D01*
X232111285Y-108712695D01*
X232156618Y-108731472D01*
X232161126Y-108733604D01*
X232204399Y-108756735D01*
X232208673Y-108759297D01*
X232249472Y-108786557D01*
X232253477Y-108789527D01*
X232291406Y-108820655D01*
X232295100Y-108824003D01*
X232329797Y-108858700D01*
X232333145Y-108862394D01*
X232364273Y-108900323D01*
X232367243Y-108904328D01*
X232394503Y-108945127D01*
X232397065Y-108949401D01*
X232420196Y-108992674D01*
X232422328Y-108997182D01*
X232441105Y-109042515D01*
X232442784Y-109047208D01*
X232457028Y-109094163D01*
X232458240Y-109099000D01*
X232467812Y-109147125D01*
X232468543Y-109152055D01*
X232473353Y-109200886D01*
X232473598Y-109205866D01*
X232473598Y-109224287D01*
X232474200Y-109230400D01*
X232474200Y-109730400D01*
X232473224Y-109740311D01*
G37*
G36*
X250862824Y-87261311D02*
G01*
X250859933Y-87270840D01*
X250855239Y-87279623D01*
X250848921Y-87287321D01*
X250841223Y-87293639D01*
X250832440Y-87298333D01*
X250822911Y-87301224D01*
X250813000Y-87302200D01*
X249313000Y-87302200D01*
X249303089Y-87301224D01*
X249293560Y-87298333D01*
X249284777Y-87293639D01*
X249277079Y-87287321D01*
X249270761Y-87279623D01*
X249266067Y-87270840D01*
X249263176Y-87261311D01*
X249262200Y-87251400D01*
X249262200Y-86751400D01*
X249262802Y-86745287D01*
X249262802Y-86726866D01*
X249263047Y-86721886D01*
X249267857Y-86673055D01*
X249268588Y-86668125D01*
X249278160Y-86620000D01*
X249279372Y-86615163D01*
X249293616Y-86568208D01*
X249295295Y-86563515D01*
X249314072Y-86518182D01*
X249316204Y-86513674D01*
X249339335Y-86470401D01*
X249341897Y-86466127D01*
X249369157Y-86425328D01*
X249372127Y-86421323D01*
X249403255Y-86383394D01*
X249406603Y-86379700D01*
X249441300Y-86345003D01*
X249444994Y-86341655D01*
X249482923Y-86310527D01*
X249486928Y-86307557D01*
X249527727Y-86280297D01*
X249532001Y-86277735D01*
X249575274Y-86254604D01*
X249579782Y-86252472D01*
X249625115Y-86233695D01*
X249629808Y-86232016D01*
X249676763Y-86217772D01*
X249681600Y-86216560D01*
X249729725Y-86206988D01*
X249734655Y-86206257D01*
X249783486Y-86201447D01*
X249788466Y-86201202D01*
X249806887Y-86201202D01*
X249813000Y-86200600D01*
X250313000Y-86200600D01*
X250319113Y-86201202D01*
X250337534Y-86201202D01*
X250342514Y-86201447D01*
X250391345Y-86206257D01*
X250396275Y-86206988D01*
X250444400Y-86216560D01*
X250449237Y-86217772D01*
X250496192Y-86232016D01*
X250500885Y-86233695D01*
X250546218Y-86252472D01*
X250550726Y-86254604D01*
X250593999Y-86277735D01*
X250598273Y-86280297D01*
X250639072Y-86307557D01*
X250643077Y-86310527D01*
X250681006Y-86341655D01*
X250684700Y-86345003D01*
X250719397Y-86379700D01*
X250722745Y-86383394D01*
X250753873Y-86421323D01*
X250756843Y-86425328D01*
X250784103Y-86466127D01*
X250786665Y-86470401D01*
X250809796Y-86513674D01*
X250811928Y-86518182D01*
X250830705Y-86563515D01*
X250832384Y-86568208D01*
X250846628Y-86615163D01*
X250847840Y-86620000D01*
X250857412Y-86668125D01*
X250858143Y-86673055D01*
X250862953Y-86721886D01*
X250863198Y-86726866D01*
X250863198Y-86745287D01*
X250863800Y-86751400D01*
X250863800Y-87251400D01*
X250862824Y-87261311D01*
G37*
G36*
X250863198Y-88057513D02*
G01*
X250863198Y-88075934D01*
X250862953Y-88080914D01*
X250858143Y-88129745D01*
X250857412Y-88134675D01*
X250847840Y-88182800D01*
X250846628Y-88187637D01*
X250832384Y-88234592D01*
X250830705Y-88239285D01*
X250811928Y-88284618D01*
X250809796Y-88289126D01*
X250786665Y-88332399D01*
X250784103Y-88336673D01*
X250756843Y-88377472D01*
X250753873Y-88381477D01*
X250722745Y-88419406D01*
X250719397Y-88423100D01*
X250684700Y-88457797D01*
X250681006Y-88461145D01*
X250643077Y-88492273D01*
X250639072Y-88495243D01*
X250598273Y-88522503D01*
X250593999Y-88525065D01*
X250550726Y-88548196D01*
X250546218Y-88550328D01*
X250500885Y-88569105D01*
X250496192Y-88570784D01*
X250449237Y-88585028D01*
X250444400Y-88586240D01*
X250396275Y-88595812D01*
X250391345Y-88596543D01*
X250342514Y-88601353D01*
X250337534Y-88601598D01*
X250319113Y-88601598D01*
X250313000Y-88602200D01*
X249813000Y-88602200D01*
X249806887Y-88601598D01*
X249788466Y-88601598D01*
X249783486Y-88601353D01*
X249734655Y-88596543D01*
X249729725Y-88595812D01*
X249681600Y-88586240D01*
X249676763Y-88585028D01*
X249629808Y-88570784D01*
X249625115Y-88569105D01*
X249579782Y-88550328D01*
X249575274Y-88548196D01*
X249532001Y-88525065D01*
X249527727Y-88522503D01*
X249486928Y-88495243D01*
X249482923Y-88492273D01*
X249444994Y-88461145D01*
X249441300Y-88457797D01*
X249406603Y-88423100D01*
X249403255Y-88419406D01*
X249372127Y-88381477D01*
X249369157Y-88377472D01*
X249341897Y-88336673D01*
X249339335Y-88332399D01*
X249316204Y-88289126D01*
X249314072Y-88284618D01*
X249295295Y-88239285D01*
X249293616Y-88234592D01*
X249279372Y-88187637D01*
X249278160Y-88182800D01*
X249268588Y-88134675D01*
X249267857Y-88129745D01*
X249263047Y-88080914D01*
X249262802Y-88075934D01*
X249262802Y-88057513D01*
X249262200Y-88051400D01*
X249262200Y-87551400D01*
X249263176Y-87541489D01*
X249266067Y-87531960D01*
X249270761Y-87523177D01*
X249277079Y-87515479D01*
X249284777Y-87509161D01*
X249293560Y-87504467D01*
X249303089Y-87501576D01*
X249313000Y-87500600D01*
X250813000Y-87500600D01*
X250822911Y-87501576D01*
X250832440Y-87504467D01*
X250841223Y-87509161D01*
X250848921Y-87515479D01*
X250855239Y-87523177D01*
X250859933Y-87531960D01*
X250862824Y-87541489D01*
X250863800Y-87551400D01*
X250863800Y-88051400D01*
X250863198Y-88057513D01*
G37*
G36*
G01*
X222682000Y-90370235D02*
X222682000Y-89410965D01*
G75*
G02*
X222953165Y-89139800I271165J0D01*
G01*
X223712435Y-89139800D01*
G75*
G02*
X223983600Y-89410965I0J-271165D01*
G01*
X223983600Y-90370235D01*
G75*
G02*
X223712435Y-90641400I-271165J0D01*
G01*
X222953165Y-90641400D01*
G75*
G02*
X222682000Y-90370235I0J271165D01*
G01*
G37*
G36*
G01*
X224682000Y-90370235D02*
X224682000Y-89410965D01*
G75*
G02*
X224953165Y-89139800I271165J0D01*
G01*
X225712435Y-89139800D01*
G75*
G02*
X225983600Y-89410965I0J-271165D01*
G01*
X225983600Y-90370235D01*
G75*
G02*
X225712435Y-90641400I-271165J0D01*
G01*
X224953165Y-90641400D01*
G75*
G02*
X224682000Y-90370235I0J271165D01*
G01*
G37*
G36*
G01*
X244602200Y-86992035D02*
X244602200Y-86032765D01*
G75*
G02*
X244873365Y-85761600I271165J0D01*
G01*
X245632635Y-85761600D01*
G75*
G02*
X245903800Y-86032765I0J-271165D01*
G01*
X245903800Y-86992035D01*
G75*
G02*
X245632635Y-87263200I-271165J0D01*
G01*
X244873365Y-87263200D01*
G75*
G02*
X244602200Y-86992035I0J271165D01*
G01*
G37*
G36*
G01*
X246602200Y-86992035D02*
X246602200Y-86032765D01*
G75*
G02*
X246873365Y-85761600I271165J0D01*
G01*
X247632635Y-85761600D01*
G75*
G02*
X247903800Y-86032765I0J-271165D01*
G01*
X247903800Y-86992035D01*
G75*
G02*
X247632635Y-87263200I-271165J0D01*
G01*
X246873365Y-87263200D01*
G75*
G02*
X246602200Y-86992035I0J271165D01*
G01*
G37*
G36*
G01*
X222682000Y-92783235D02*
X222682000Y-91823965D01*
G75*
G02*
X222953165Y-91552800I271165J0D01*
G01*
X223712435Y-91552800D01*
G75*
G02*
X223983600Y-91823965I0J-271165D01*
G01*
X223983600Y-92783235D01*
G75*
G02*
X223712435Y-93054400I-271165J0D01*
G01*
X222953165Y-93054400D01*
G75*
G02*
X222682000Y-92783235I0J271165D01*
G01*
G37*
G36*
G01*
X224682000Y-92783235D02*
X224682000Y-91823965D01*
G75*
G02*
X224953165Y-91552800I271165J0D01*
G01*
X225712435Y-91552800D01*
G75*
G02*
X225983600Y-91823965I0J-271165D01*
G01*
X225983600Y-92783235D01*
G75*
G02*
X225712435Y-93054400I-271165J0D01*
G01*
X224953165Y-93054400D01*
G75*
G02*
X224682000Y-92783235I0J271165D01*
G01*
G37*
G36*
G01*
X237839200Y-92046635D02*
X237839200Y-91087365D01*
G75*
G02*
X238110365Y-90816200I271165J0D01*
G01*
X238869635Y-90816200D01*
G75*
G02*
X239140800Y-91087365I0J-271165D01*
G01*
X239140800Y-92046635D01*
G75*
G02*
X238869635Y-92317800I-271165J0D01*
G01*
X238110365Y-92317800D01*
G75*
G02*
X237839200Y-92046635I0J271165D01*
G01*
G37*
G36*
G01*
X235839200Y-92046635D02*
X235839200Y-91087365D01*
G75*
G02*
X236110365Y-90816200I271165J0D01*
G01*
X236869635Y-90816200D01*
G75*
G02*
X237140800Y-91087365I0J-271165D01*
G01*
X237140800Y-92046635D01*
G75*
G02*
X236869635Y-92317800I-271165J0D01*
G01*
X236110365Y-92317800D01*
G75*
G02*
X235839200Y-92046635I0J271165D01*
G01*
G37*
D14*
X234492800Y-126593600D03*
X239492800Y-126593600D03*
X244492800Y-126593600D03*
D15*
X209742400Y-118211600D03*
G36*
G01*
X213093200Y-117411600D02*
X213093200Y-119011600D01*
G75*
G02*
X213042400Y-119062400I-50800J0D01*
G01*
X211442400Y-119062400D01*
G75*
G02*
X211391600Y-119011600I0J50800D01*
G01*
X211391600Y-117411600D01*
G75*
G02*
X211442400Y-117360800I50800J0D01*
G01*
X213042400Y-117360800D01*
G75*
G02*
X213093200Y-117411600I0J-50800D01*
G01*
G37*
G36*
G01*
X216624000Y-119011600D02*
X216624000Y-117411600D01*
G75*
G02*
X216674800Y-117360800I50800J0D01*
G01*
X218274800Y-117360800D01*
G75*
G02*
X218325600Y-117411600I0J-50800D01*
G01*
X218325600Y-119011600D01*
G75*
G02*
X218274800Y-119062400I-50800J0D01*
G01*
X216674800Y-119062400D01*
G75*
G02*
X216624000Y-119011600I0J50800D01*
G01*
G37*
X219974800Y-118211600D03*
D10*
X207772000Y-80772000D03*
M02*
