G04 #@! TF.GenerationSoftware,KiCad,Pcbnew,(5.1.8-0-10_14)*
G04 #@! TF.CreationDate,2021-08-13T20:39:07-06:00*
G04 #@! TF.ProjectId,ESP8266_Water_Sensor,45535038-3236-4365-9f57-617465725f53,rev?*
G04 #@! TF.SameCoordinates,Original*
G04 #@! TF.FileFunction,Copper,L3,Inr*
G04 #@! TF.FilePolarity,Positive*
%FSLAX46Y46*%
G04 Gerber Fmt 4.6, Leading zero omitted, Abs format (unit mm)*
G04 Created by KiCad (PCBNEW (5.1.8-0-10_14)) date 2021-08-13 20:39:07*
%MOMM*%
%LPD*%
G01*
G04 APERTURE LIST*
G04 #@! TA.AperFunction,WasherPad*
%ADD10C,2.700000*%
G04 #@! TD*
G04 #@! TA.AperFunction,ComponentPad*
%ADD11R,1.700000X1.700000*%
G04 #@! TD*
G04 #@! TA.AperFunction,ComponentPad*
%ADD12O,1.700000X1.700000*%
G04 #@! TD*
G04 #@! TA.AperFunction,ComponentPad*
%ADD13C,1.800000*%
G04 #@! TD*
G04 #@! TA.AperFunction,ComponentPad*
%ADD14R,1.800000X1.800000*%
G04 #@! TD*
G04 #@! TA.AperFunction,ComponentPad*
%ADD15C,1.950000*%
G04 #@! TD*
G04 #@! TA.AperFunction,ComponentPad*
%ADD16C,1.600000*%
G04 #@! TD*
G04 #@! TA.AperFunction,ComponentPad*
%ADD17R,1.600000X1.600000*%
G04 #@! TD*
G04 #@! TA.AperFunction,ViaPad*
%ADD18C,0.762000*%
G04 #@! TD*
G04 #@! TA.AperFunction,Conductor*
%ADD19C,0.254000*%
G04 #@! TD*
G04 #@! TA.AperFunction,Conductor*
%ADD20C,0.100000*%
G04 #@! TD*
G04 APERTURE END LIST*
D10*
X252730000Y-125730000D03*
D11*
X228142800Y-108458000D03*
D12*
X228142800Y-110998000D03*
X228142800Y-113538000D03*
X228142800Y-116078000D03*
X228142800Y-118618000D03*
X228142800Y-121158000D03*
D13*
X219884000Y-126644400D03*
D14*
X214884000Y-126644400D03*
X252984000Y-106832400D03*
D13*
X252984000Y-111832400D03*
D12*
X254965200Y-97942400D03*
X254965200Y-95402400D03*
X254965200Y-92862400D03*
X254965200Y-90322400D03*
X254965200Y-87782400D03*
D11*
X254965200Y-85242400D03*
D15*
X234492800Y-126593600D03*
X239492800Y-126593600D03*
X244492800Y-126593600D03*
D16*
X209742400Y-118211600D03*
D17*
X212242400Y-118211600D03*
X217474800Y-118211600D03*
D16*
X219974800Y-118211600D03*
D10*
X207772000Y-80772000D03*
D18*
X210007200Y-89966800D03*
X211328000Y-89966800D03*
X212598000Y-89916000D03*
X208686400Y-89966800D03*
X207365600Y-90017600D03*
X214020400Y-89916000D03*
X214071200Y-88239600D03*
X214223600Y-92303600D03*
X230331600Y-84069600D03*
X234793200Y-84069600D03*
X245287800Y-102285800D03*
X221386400Y-92303600D03*
X245253000Y-84547200D03*
X205536800Y-110642400D03*
X205740000Y-116535200D03*
X207416400Y-103428800D03*
X207365600Y-104698800D03*
X206146400Y-85953600D03*
X204927200Y-85953600D03*
X204927200Y-84531200D03*
X211632800Y-84124800D03*
X213918800Y-84124800D03*
X213969600Y-86004400D03*
X219913200Y-103479600D03*
X219862400Y-105054400D03*
X219811600Y-106883200D03*
X219710000Y-108407200D03*
X217982800Y-110032800D03*
X247802400Y-84074000D03*
X252116000Y-84069600D03*
X247977610Y-91569600D03*
X252143200Y-91569600D03*
X234994000Y-96069600D03*
X232550000Y-97879200D03*
X220624400Y-89930800D03*
X222946400Y-98262000D03*
X245313200Y-99822000D03*
X242400000Y-87495200D03*
X238988600Y-85267800D03*
X238912400Y-86588600D03*
X238937800Y-88214200D03*
X238887000Y-89712800D03*
X245135400Y-91186000D03*
X212734400Y-112455200D03*
X210210400Y-103428800D03*
X211480400Y-103428800D03*
X210159600Y-104851200D03*
X211480400Y-104851200D03*
X213156800Y-104140000D03*
X213156800Y-105562400D03*
X213156800Y-107086400D03*
X225414400Y-85430800D03*
X251917000Y-88569600D03*
X227460400Y-95888400D03*
X234879200Y-94569600D03*
X252015800Y-85569600D03*
X234594400Y-91567000D03*
D19*
X219408015Y-102595221D02*
X219265538Y-102690421D01*
X219124021Y-102831938D01*
X219012832Y-102998344D01*
X218936244Y-103183244D01*
X218897200Y-103379533D01*
X218897200Y-103579667D01*
X218936244Y-103775956D01*
X219012832Y-103960856D01*
X219124021Y-104127262D01*
X219243058Y-104246299D01*
X219214738Y-104265221D01*
X219073221Y-104406738D01*
X218962032Y-104573144D01*
X218885444Y-104758044D01*
X218846400Y-104954333D01*
X218846400Y-105154467D01*
X218885444Y-105350756D01*
X218962032Y-105535656D01*
X219073221Y-105702062D01*
X219214738Y-105843579D01*
X219381144Y-105954768D01*
X219389620Y-105958279D01*
X219330344Y-105982832D01*
X219163938Y-106094021D01*
X219022421Y-106235538D01*
X218911232Y-106401944D01*
X218834644Y-106586844D01*
X218795600Y-106783133D01*
X218795600Y-106983267D01*
X218834644Y-107179556D01*
X218911232Y-107364456D01*
X219022421Y-107530862D01*
X219090658Y-107599099D01*
X219062338Y-107618021D01*
X218920821Y-107759538D01*
X218809632Y-107925944D01*
X218733044Y-108110844D01*
X218694000Y-108307133D01*
X218694000Y-108507267D01*
X218733044Y-108703556D01*
X218809632Y-108888456D01*
X218920821Y-109054862D01*
X219062338Y-109196379D01*
X219228744Y-109307568D01*
X219413644Y-109384156D01*
X219609933Y-109423200D01*
X219810067Y-109423200D01*
X220006356Y-109384156D01*
X220191256Y-109307568D01*
X220357662Y-109196379D01*
X220499179Y-109054862D01*
X220610368Y-108888456D01*
X220686956Y-108703556D01*
X220726000Y-108507267D01*
X220726000Y-108307133D01*
X220686956Y-108110844D01*
X220610368Y-107925944D01*
X220499179Y-107759538D01*
X220430942Y-107691301D01*
X220459262Y-107672379D01*
X220600779Y-107530862D01*
X220711968Y-107364456D01*
X220788556Y-107179556D01*
X220827600Y-106983267D01*
X220827600Y-106783133D01*
X220788556Y-106586844D01*
X220711968Y-106401944D01*
X220600779Y-106235538D01*
X220459262Y-106094021D01*
X220292856Y-105982832D01*
X220284380Y-105979321D01*
X220343656Y-105954768D01*
X220510062Y-105843579D01*
X220651579Y-105702062D01*
X220762768Y-105535656D01*
X220839356Y-105350756D01*
X220878400Y-105154467D01*
X220878400Y-104954333D01*
X220839356Y-104758044D01*
X220762768Y-104573144D01*
X220651579Y-104406738D01*
X220532542Y-104287701D01*
X220560862Y-104268779D01*
X220702379Y-104127262D01*
X220797579Y-103984785D01*
X223799400Y-106986606D01*
X223799400Y-109626400D01*
X223801840Y-109651176D01*
X223809067Y-109675001D01*
X223820803Y-109696957D01*
X223836597Y-109716203D01*
X226878149Y-112757755D01*
X226826810Y-112834589D01*
X226714868Y-113104842D01*
X226657800Y-113391740D01*
X226657800Y-113684260D01*
X226714868Y-113971158D01*
X226826810Y-114241411D01*
X226989325Y-114484632D01*
X227196168Y-114691475D01*
X227370560Y-114808000D01*
X227196168Y-114924525D01*
X226989325Y-115131368D01*
X226826810Y-115374589D01*
X226714868Y-115644842D01*
X226657800Y-115931740D01*
X226657800Y-116224260D01*
X226714868Y-116511158D01*
X226826810Y-116781411D01*
X226989325Y-117024632D01*
X227196168Y-117231475D01*
X227370560Y-117348000D01*
X227196168Y-117464525D01*
X226989325Y-117671368D01*
X226826810Y-117914589D01*
X226714868Y-118184842D01*
X226657800Y-118471740D01*
X226657800Y-118764260D01*
X226714868Y-119051158D01*
X226826810Y-119321411D01*
X226989325Y-119564632D01*
X227196168Y-119771475D01*
X227370560Y-119888000D01*
X227196168Y-120004525D01*
X226989325Y-120211368D01*
X226826810Y-120454589D01*
X226714868Y-120724842D01*
X226657800Y-121011740D01*
X226657800Y-121304260D01*
X226714868Y-121591158D01*
X226826810Y-121861411D01*
X226989325Y-122104632D01*
X227196168Y-122311475D01*
X227439389Y-122473990D01*
X227709642Y-122585932D01*
X227996540Y-122643000D01*
X228289060Y-122643000D01*
X228575958Y-122585932D01*
X228846211Y-122473990D01*
X229089432Y-122311475D01*
X229296275Y-122104632D01*
X229458790Y-121861411D01*
X229570732Y-121591158D01*
X229627800Y-121304260D01*
X229627800Y-121011740D01*
X229570732Y-120724842D01*
X229458790Y-120454589D01*
X229296275Y-120211368D01*
X229089432Y-120004525D01*
X228915040Y-119888000D01*
X229089432Y-119771475D01*
X229296275Y-119564632D01*
X229458790Y-119321411D01*
X229570732Y-119051158D01*
X229627800Y-118764260D01*
X229627800Y-118471740D01*
X229570732Y-118184842D01*
X229458790Y-117914589D01*
X229296275Y-117671368D01*
X229089432Y-117464525D01*
X228915040Y-117348000D01*
X229089432Y-117231475D01*
X229296275Y-117024632D01*
X229458790Y-116781411D01*
X229570732Y-116511158D01*
X229627800Y-116224260D01*
X229627800Y-115931740D01*
X229570732Y-115644842D01*
X229458790Y-115374589D01*
X229385909Y-115265515D01*
X237159800Y-123039406D01*
X237159800Y-129654300D01*
X210705700Y-129654300D01*
X210705700Y-127544400D01*
X213345928Y-127544400D01*
X213358188Y-127668882D01*
X213394498Y-127788580D01*
X213453463Y-127898894D01*
X213532815Y-127995585D01*
X213629506Y-128074937D01*
X213739820Y-128133902D01*
X213859518Y-128170212D01*
X213984000Y-128182472D01*
X214598250Y-128179400D01*
X214757000Y-128020650D01*
X214757000Y-126771400D01*
X215011000Y-126771400D01*
X215011000Y-128020650D01*
X215169750Y-128179400D01*
X215784000Y-128182472D01*
X215908482Y-128170212D01*
X216028180Y-128133902D01*
X216138494Y-128074937D01*
X216235185Y-127995585D01*
X216314537Y-127898894D01*
X216373502Y-127788580D01*
X216409812Y-127668882D01*
X216422072Y-127544400D01*
X216419000Y-126930150D01*
X216260250Y-126771400D01*
X215011000Y-126771400D01*
X214757000Y-126771400D01*
X213507750Y-126771400D01*
X213349000Y-126930150D01*
X213345928Y-127544400D01*
X210705700Y-127544400D01*
X210705700Y-126968191D01*
X210702793Y-126938676D01*
X210702948Y-126916473D01*
X210702065Y-126907473D01*
X210629522Y-126217265D01*
X210617714Y-126159738D01*
X210606717Y-126102093D01*
X210604105Y-126093444D01*
X210604104Y-126093437D01*
X210604101Y-126093431D01*
X210496059Y-125744400D01*
X213345928Y-125744400D01*
X213349000Y-126358650D01*
X213507750Y-126517400D01*
X214757000Y-126517400D01*
X214757000Y-125268150D01*
X215011000Y-125268150D01*
X215011000Y-126517400D01*
X216260250Y-126517400D01*
X216284434Y-126493216D01*
X218349000Y-126493216D01*
X218349000Y-126795584D01*
X218407989Y-127092143D01*
X218523701Y-127371495D01*
X218691688Y-127622905D01*
X218905495Y-127836712D01*
X219156905Y-128004699D01*
X219436257Y-128120411D01*
X219732816Y-128179400D01*
X220035184Y-128179400D01*
X220331743Y-128120411D01*
X220611095Y-128004699D01*
X220862505Y-127836712D01*
X220988033Y-127711184D01*
X233554821Y-127711184D01*
X233647566Y-127973029D01*
X233932920Y-128111420D01*
X234239790Y-128191483D01*
X234556384Y-128210140D01*
X234870533Y-128166674D01*
X235170167Y-128062756D01*
X235338034Y-127973029D01*
X235430779Y-127711184D01*
X234492800Y-126773205D01*
X233554821Y-127711184D01*
X220988033Y-127711184D01*
X221076312Y-127622905D01*
X221244299Y-127371495D01*
X221360011Y-127092143D01*
X221419000Y-126795584D01*
X221419000Y-126657184D01*
X232876260Y-126657184D01*
X232919726Y-126971333D01*
X233023644Y-127270967D01*
X233113371Y-127438834D01*
X233375216Y-127531579D01*
X234313195Y-126593600D01*
X234672405Y-126593600D01*
X235610384Y-127531579D01*
X235872229Y-127438834D01*
X236010620Y-127153480D01*
X236090683Y-126846610D01*
X236109340Y-126530016D01*
X236065874Y-126215867D01*
X235961956Y-125916233D01*
X235872229Y-125748366D01*
X235610384Y-125655621D01*
X234672405Y-126593600D01*
X234313195Y-126593600D01*
X233375216Y-125655621D01*
X233113371Y-125748366D01*
X232974980Y-126033720D01*
X232894917Y-126340590D01*
X232876260Y-126657184D01*
X221419000Y-126657184D01*
X221419000Y-126493216D01*
X221360011Y-126196657D01*
X221244299Y-125917305D01*
X221076312Y-125665895D01*
X220886433Y-125476016D01*
X233554821Y-125476016D01*
X234492800Y-126413995D01*
X235430779Y-125476016D01*
X235338034Y-125214171D01*
X235052680Y-125075780D01*
X234745810Y-124995717D01*
X234429216Y-124977060D01*
X234115067Y-125020526D01*
X233815433Y-125124444D01*
X233647566Y-125214171D01*
X233554821Y-125476016D01*
X220886433Y-125476016D01*
X220862505Y-125452088D01*
X220611095Y-125284101D01*
X220331743Y-125168389D01*
X220035184Y-125109400D01*
X219732816Y-125109400D01*
X219436257Y-125168389D01*
X219156905Y-125284101D01*
X218905495Y-125452088D01*
X218691688Y-125665895D01*
X218523701Y-125917305D01*
X218407989Y-126196657D01*
X218349000Y-126493216D01*
X216284434Y-126493216D01*
X216419000Y-126358650D01*
X216422072Y-125744400D01*
X216409812Y-125619918D01*
X216373502Y-125500220D01*
X216314537Y-125389906D01*
X216235185Y-125293215D01*
X216138494Y-125213863D01*
X216028180Y-125154898D01*
X215908482Y-125118588D01*
X215784000Y-125106328D01*
X215169750Y-125109400D01*
X215011000Y-125268150D01*
X214757000Y-125268150D01*
X214598250Y-125109400D01*
X213984000Y-125106328D01*
X213859518Y-125118588D01*
X213739820Y-125154898D01*
X213629506Y-125213863D01*
X213532815Y-125293215D01*
X213453463Y-125389906D01*
X213394498Y-125500220D01*
X213358188Y-125619918D01*
X213345928Y-125744400D01*
X210496059Y-125744400D01*
X210398879Y-125430464D01*
X210376131Y-125376348D01*
X210354140Y-125321919D01*
X210349894Y-125313934D01*
X210019807Y-124703449D01*
X209986965Y-124654758D01*
X209954835Y-124605658D01*
X209949119Y-124598650D01*
X209506740Y-124063906D01*
X209465084Y-124022540D01*
X209424012Y-123980598D01*
X209417044Y-123974834D01*
X208879225Y-123536200D01*
X208830330Y-123503714D01*
X208781892Y-123470548D01*
X208773940Y-123466248D01*
X208773932Y-123466244D01*
X208161163Y-123140429D01*
X208106904Y-123118065D01*
X208052931Y-123094932D01*
X208044292Y-123092258D01*
X207379903Y-122891667D01*
X207322328Y-122880267D01*
X207264895Y-122868059D01*
X207255901Y-122867114D01*
X206565204Y-122799391D01*
X206565191Y-122799391D01*
X206533809Y-122796300D01*
X203847700Y-122796300D01*
X203847700Y-118070265D01*
X208307400Y-118070265D01*
X208307400Y-118352935D01*
X208362547Y-118630174D01*
X208470720Y-118891327D01*
X208627763Y-119126359D01*
X208827641Y-119326237D01*
X209062673Y-119483280D01*
X209323826Y-119591453D01*
X209601065Y-119646600D01*
X209883735Y-119646600D01*
X210160974Y-119591453D01*
X210422127Y-119483280D01*
X210657159Y-119326237D01*
X210823739Y-119159657D01*
X210852898Y-119255780D01*
X210911863Y-119366094D01*
X210991215Y-119462785D01*
X211087906Y-119542137D01*
X211198220Y-119601102D01*
X211317918Y-119637412D01*
X211442400Y-119649672D01*
X211956650Y-119646600D01*
X212115400Y-119487850D01*
X212115400Y-118338600D01*
X212369400Y-118338600D01*
X212369400Y-119487850D01*
X212528150Y-119646600D01*
X213042400Y-119649672D01*
X213166882Y-119637412D01*
X213286580Y-119601102D01*
X213396894Y-119542137D01*
X213493585Y-119462785D01*
X213572937Y-119366094D01*
X213631902Y-119255780D01*
X213668212Y-119136082D01*
X213680472Y-119011600D01*
X216036728Y-119011600D01*
X216048988Y-119136082D01*
X216085298Y-119255780D01*
X216144263Y-119366094D01*
X216223615Y-119462785D01*
X216320306Y-119542137D01*
X216430620Y-119601102D01*
X216550318Y-119637412D01*
X216674800Y-119649672D01*
X217189050Y-119646600D01*
X217347800Y-119487850D01*
X217347800Y-118338600D01*
X216198550Y-118338600D01*
X216039800Y-118497350D01*
X216036728Y-119011600D01*
X213680472Y-119011600D01*
X213677400Y-118497350D01*
X213518650Y-118338600D01*
X212369400Y-118338600D01*
X212115400Y-118338600D01*
X212095400Y-118338600D01*
X212095400Y-118084600D01*
X212115400Y-118084600D01*
X212115400Y-116935350D01*
X212369400Y-116935350D01*
X212369400Y-118084600D01*
X213518650Y-118084600D01*
X213677400Y-117925850D01*
X213680472Y-117411600D01*
X216036728Y-117411600D01*
X216039800Y-117925850D01*
X216198550Y-118084600D01*
X217347800Y-118084600D01*
X217347800Y-116935350D01*
X217601800Y-116935350D01*
X217601800Y-118084600D01*
X217621800Y-118084600D01*
X217621800Y-118338600D01*
X217601800Y-118338600D01*
X217601800Y-119487850D01*
X217760550Y-119646600D01*
X218274800Y-119649672D01*
X218399282Y-119637412D01*
X218518980Y-119601102D01*
X218629294Y-119542137D01*
X218725985Y-119462785D01*
X218805337Y-119366094D01*
X218864302Y-119255780D01*
X218893461Y-119159657D01*
X219060041Y-119326237D01*
X219295073Y-119483280D01*
X219556226Y-119591453D01*
X219833465Y-119646600D01*
X220116135Y-119646600D01*
X220393374Y-119591453D01*
X220654527Y-119483280D01*
X220889559Y-119326237D01*
X221089437Y-119126359D01*
X221246480Y-118891327D01*
X221354653Y-118630174D01*
X221409800Y-118352935D01*
X221409800Y-118070265D01*
X221354653Y-117793026D01*
X221246480Y-117531873D01*
X221089437Y-117296841D01*
X220889559Y-117096963D01*
X220654527Y-116939920D01*
X220393374Y-116831747D01*
X220116135Y-116776600D01*
X219833465Y-116776600D01*
X219556226Y-116831747D01*
X219295073Y-116939920D01*
X219060041Y-117096963D01*
X218893461Y-117263543D01*
X218864302Y-117167420D01*
X218805337Y-117057106D01*
X218725985Y-116960415D01*
X218629294Y-116881063D01*
X218518980Y-116822098D01*
X218399282Y-116785788D01*
X218274800Y-116773528D01*
X217760550Y-116776600D01*
X217601800Y-116935350D01*
X217347800Y-116935350D01*
X217189050Y-116776600D01*
X216674800Y-116773528D01*
X216550318Y-116785788D01*
X216430620Y-116822098D01*
X216320306Y-116881063D01*
X216223615Y-116960415D01*
X216144263Y-117057106D01*
X216085298Y-117167420D01*
X216048988Y-117287118D01*
X216036728Y-117411600D01*
X213680472Y-117411600D01*
X213668212Y-117287118D01*
X213631902Y-117167420D01*
X213572937Y-117057106D01*
X213493585Y-116960415D01*
X213396894Y-116881063D01*
X213286580Y-116822098D01*
X213166882Y-116785788D01*
X213042400Y-116773528D01*
X212528150Y-116776600D01*
X212369400Y-116935350D01*
X212115400Y-116935350D01*
X211956650Y-116776600D01*
X211442400Y-116773528D01*
X211317918Y-116785788D01*
X211198220Y-116822098D01*
X211087906Y-116881063D01*
X210991215Y-116960415D01*
X210911863Y-117057106D01*
X210852898Y-117167420D01*
X210823739Y-117263543D01*
X210657159Y-117096963D01*
X210422127Y-116939920D01*
X210160974Y-116831747D01*
X209883735Y-116776600D01*
X209601065Y-116776600D01*
X209323826Y-116831747D01*
X209062673Y-116939920D01*
X208827641Y-117096963D01*
X208627763Y-117296841D01*
X208470720Y-117531873D01*
X208362547Y-117793026D01*
X208307400Y-118070265D01*
X203847700Y-118070265D01*
X203847700Y-116435133D01*
X204724000Y-116435133D01*
X204724000Y-116635267D01*
X204763044Y-116831556D01*
X204839632Y-117016456D01*
X204950821Y-117182862D01*
X205092338Y-117324379D01*
X205258744Y-117435568D01*
X205443644Y-117512156D01*
X205639933Y-117551200D01*
X205840067Y-117551200D01*
X206036356Y-117512156D01*
X206221256Y-117435568D01*
X206387662Y-117324379D01*
X206529179Y-117182862D01*
X206640368Y-117016456D01*
X206716956Y-116831556D01*
X206756000Y-116635267D01*
X206756000Y-116435133D01*
X206716956Y-116238844D01*
X206640368Y-116053944D01*
X206529179Y-115887538D01*
X206387662Y-115746021D01*
X206221256Y-115634832D01*
X206036356Y-115558244D01*
X205840067Y-115519200D01*
X205639933Y-115519200D01*
X205443644Y-115558244D01*
X205258744Y-115634832D01*
X205092338Y-115746021D01*
X204950821Y-115887538D01*
X204839632Y-116053944D01*
X204763044Y-116238844D01*
X204724000Y-116435133D01*
X203847700Y-116435133D01*
X203847700Y-110542333D01*
X204520800Y-110542333D01*
X204520800Y-110742467D01*
X204559844Y-110938756D01*
X204636432Y-111123656D01*
X204747621Y-111290062D01*
X204889138Y-111431579D01*
X205055544Y-111542768D01*
X205240444Y-111619356D01*
X205436733Y-111658400D01*
X205636867Y-111658400D01*
X205833156Y-111619356D01*
X206018056Y-111542768D01*
X206184462Y-111431579D01*
X206325979Y-111290062D01*
X206437168Y-111123656D01*
X206513756Y-110938756D01*
X206552800Y-110742467D01*
X206552800Y-110542333D01*
X206513756Y-110346044D01*
X206437168Y-110161144D01*
X206325979Y-109994738D01*
X206263974Y-109932733D01*
X216966800Y-109932733D01*
X216966800Y-110132867D01*
X217005844Y-110329156D01*
X217082432Y-110514056D01*
X217193621Y-110680462D01*
X217335138Y-110821979D01*
X217501544Y-110933168D01*
X217686444Y-111009756D01*
X217882733Y-111048800D01*
X218082867Y-111048800D01*
X218279156Y-111009756D01*
X218464056Y-110933168D01*
X218630462Y-110821979D01*
X218771979Y-110680462D01*
X218883168Y-110514056D01*
X218959756Y-110329156D01*
X218998800Y-110132867D01*
X218998800Y-109932733D01*
X218959756Y-109736444D01*
X218883168Y-109551544D01*
X218771979Y-109385138D01*
X218630462Y-109243621D01*
X218464056Y-109132432D01*
X218279156Y-109055844D01*
X218082867Y-109016800D01*
X217882733Y-109016800D01*
X217686444Y-109055844D01*
X217501544Y-109132432D01*
X217335138Y-109243621D01*
X217193621Y-109385138D01*
X217082432Y-109551544D01*
X217005844Y-109736444D01*
X216966800Y-109932733D01*
X206263974Y-109932733D01*
X206184462Y-109853221D01*
X206018056Y-109742032D01*
X205833156Y-109665444D01*
X205636867Y-109626400D01*
X205436733Y-109626400D01*
X205240444Y-109665444D01*
X205055544Y-109742032D01*
X204889138Y-109853221D01*
X204747621Y-109994738D01*
X204636432Y-110161144D01*
X204559844Y-110346044D01*
X204520800Y-110542333D01*
X203847700Y-110542333D01*
X203847700Y-104598733D01*
X206349600Y-104598733D01*
X206349600Y-104798867D01*
X206388644Y-104995156D01*
X206465232Y-105180056D01*
X206576421Y-105346462D01*
X206717938Y-105487979D01*
X206884344Y-105599168D01*
X207069244Y-105675756D01*
X207265533Y-105714800D01*
X207465667Y-105714800D01*
X207661956Y-105675756D01*
X207846856Y-105599168D01*
X208013262Y-105487979D01*
X208154779Y-105346462D01*
X208265968Y-105180056D01*
X208342556Y-104995156D01*
X208381600Y-104798867D01*
X208381600Y-104598733D01*
X208342556Y-104402444D01*
X208265968Y-104217544D01*
X208185270Y-104096771D01*
X208205579Y-104076462D01*
X208316768Y-103910056D01*
X208393356Y-103725156D01*
X208432400Y-103528867D01*
X208432400Y-103328733D01*
X208393356Y-103132444D01*
X208316768Y-102947544D01*
X208205579Y-102781138D01*
X208064062Y-102639621D01*
X207897656Y-102528432D01*
X207712756Y-102451844D01*
X207516467Y-102412800D01*
X207316333Y-102412800D01*
X207120044Y-102451844D01*
X206935144Y-102528432D01*
X206768738Y-102639621D01*
X206627221Y-102781138D01*
X206516032Y-102947544D01*
X206439444Y-103132444D01*
X206400400Y-103328733D01*
X206400400Y-103528867D01*
X206439444Y-103725156D01*
X206516032Y-103910056D01*
X206596730Y-104030829D01*
X206576421Y-104051138D01*
X206465232Y-104217544D01*
X206388644Y-104402444D01*
X206349600Y-104598733D01*
X203847700Y-104598733D01*
X203847700Y-98729800D01*
X215542594Y-98729800D01*
X219408015Y-102595221D01*
G04 #@! TA.AperFunction,Conductor*
D20*
G36*
X219408015Y-102595221D02*
G01*
X219265538Y-102690421D01*
X219124021Y-102831938D01*
X219012832Y-102998344D01*
X218936244Y-103183244D01*
X218897200Y-103379533D01*
X218897200Y-103579667D01*
X218936244Y-103775956D01*
X219012832Y-103960856D01*
X219124021Y-104127262D01*
X219243058Y-104246299D01*
X219214738Y-104265221D01*
X219073221Y-104406738D01*
X218962032Y-104573144D01*
X218885444Y-104758044D01*
X218846400Y-104954333D01*
X218846400Y-105154467D01*
X218885444Y-105350756D01*
X218962032Y-105535656D01*
X219073221Y-105702062D01*
X219214738Y-105843579D01*
X219381144Y-105954768D01*
X219389620Y-105958279D01*
X219330344Y-105982832D01*
X219163938Y-106094021D01*
X219022421Y-106235538D01*
X218911232Y-106401944D01*
X218834644Y-106586844D01*
X218795600Y-106783133D01*
X218795600Y-106983267D01*
X218834644Y-107179556D01*
X218911232Y-107364456D01*
X219022421Y-107530862D01*
X219090658Y-107599099D01*
X219062338Y-107618021D01*
X218920821Y-107759538D01*
X218809632Y-107925944D01*
X218733044Y-108110844D01*
X218694000Y-108307133D01*
X218694000Y-108507267D01*
X218733044Y-108703556D01*
X218809632Y-108888456D01*
X218920821Y-109054862D01*
X219062338Y-109196379D01*
X219228744Y-109307568D01*
X219413644Y-109384156D01*
X219609933Y-109423200D01*
X219810067Y-109423200D01*
X220006356Y-109384156D01*
X220191256Y-109307568D01*
X220357662Y-109196379D01*
X220499179Y-109054862D01*
X220610368Y-108888456D01*
X220686956Y-108703556D01*
X220726000Y-108507267D01*
X220726000Y-108307133D01*
X220686956Y-108110844D01*
X220610368Y-107925944D01*
X220499179Y-107759538D01*
X220430942Y-107691301D01*
X220459262Y-107672379D01*
X220600779Y-107530862D01*
X220711968Y-107364456D01*
X220788556Y-107179556D01*
X220827600Y-106983267D01*
X220827600Y-106783133D01*
X220788556Y-106586844D01*
X220711968Y-106401944D01*
X220600779Y-106235538D01*
X220459262Y-106094021D01*
X220292856Y-105982832D01*
X220284380Y-105979321D01*
X220343656Y-105954768D01*
X220510062Y-105843579D01*
X220651579Y-105702062D01*
X220762768Y-105535656D01*
X220839356Y-105350756D01*
X220878400Y-105154467D01*
X220878400Y-104954333D01*
X220839356Y-104758044D01*
X220762768Y-104573144D01*
X220651579Y-104406738D01*
X220532542Y-104287701D01*
X220560862Y-104268779D01*
X220702379Y-104127262D01*
X220797579Y-103984785D01*
X223799400Y-106986606D01*
X223799400Y-109626400D01*
X223801840Y-109651176D01*
X223809067Y-109675001D01*
X223820803Y-109696957D01*
X223836597Y-109716203D01*
X226878149Y-112757755D01*
X226826810Y-112834589D01*
X226714868Y-113104842D01*
X226657800Y-113391740D01*
X226657800Y-113684260D01*
X226714868Y-113971158D01*
X226826810Y-114241411D01*
X226989325Y-114484632D01*
X227196168Y-114691475D01*
X227370560Y-114808000D01*
X227196168Y-114924525D01*
X226989325Y-115131368D01*
X226826810Y-115374589D01*
X226714868Y-115644842D01*
X226657800Y-115931740D01*
X226657800Y-116224260D01*
X226714868Y-116511158D01*
X226826810Y-116781411D01*
X226989325Y-117024632D01*
X227196168Y-117231475D01*
X227370560Y-117348000D01*
X227196168Y-117464525D01*
X226989325Y-117671368D01*
X226826810Y-117914589D01*
X226714868Y-118184842D01*
X226657800Y-118471740D01*
X226657800Y-118764260D01*
X226714868Y-119051158D01*
X226826810Y-119321411D01*
X226989325Y-119564632D01*
X227196168Y-119771475D01*
X227370560Y-119888000D01*
X227196168Y-120004525D01*
X226989325Y-120211368D01*
X226826810Y-120454589D01*
X226714868Y-120724842D01*
X226657800Y-121011740D01*
X226657800Y-121304260D01*
X226714868Y-121591158D01*
X226826810Y-121861411D01*
X226989325Y-122104632D01*
X227196168Y-122311475D01*
X227439389Y-122473990D01*
X227709642Y-122585932D01*
X227996540Y-122643000D01*
X228289060Y-122643000D01*
X228575958Y-122585932D01*
X228846211Y-122473990D01*
X229089432Y-122311475D01*
X229296275Y-122104632D01*
X229458790Y-121861411D01*
X229570732Y-121591158D01*
X229627800Y-121304260D01*
X229627800Y-121011740D01*
X229570732Y-120724842D01*
X229458790Y-120454589D01*
X229296275Y-120211368D01*
X229089432Y-120004525D01*
X228915040Y-119888000D01*
X229089432Y-119771475D01*
X229296275Y-119564632D01*
X229458790Y-119321411D01*
X229570732Y-119051158D01*
X229627800Y-118764260D01*
X229627800Y-118471740D01*
X229570732Y-118184842D01*
X229458790Y-117914589D01*
X229296275Y-117671368D01*
X229089432Y-117464525D01*
X228915040Y-117348000D01*
X229089432Y-117231475D01*
X229296275Y-117024632D01*
X229458790Y-116781411D01*
X229570732Y-116511158D01*
X229627800Y-116224260D01*
X229627800Y-115931740D01*
X229570732Y-115644842D01*
X229458790Y-115374589D01*
X229385909Y-115265515D01*
X237159800Y-123039406D01*
X237159800Y-129654300D01*
X210705700Y-129654300D01*
X210705700Y-127544400D01*
X213345928Y-127544400D01*
X213358188Y-127668882D01*
X213394498Y-127788580D01*
X213453463Y-127898894D01*
X213532815Y-127995585D01*
X213629506Y-128074937D01*
X213739820Y-128133902D01*
X213859518Y-128170212D01*
X213984000Y-128182472D01*
X214598250Y-128179400D01*
X214757000Y-128020650D01*
X214757000Y-126771400D01*
X215011000Y-126771400D01*
X215011000Y-128020650D01*
X215169750Y-128179400D01*
X215784000Y-128182472D01*
X215908482Y-128170212D01*
X216028180Y-128133902D01*
X216138494Y-128074937D01*
X216235185Y-127995585D01*
X216314537Y-127898894D01*
X216373502Y-127788580D01*
X216409812Y-127668882D01*
X216422072Y-127544400D01*
X216419000Y-126930150D01*
X216260250Y-126771400D01*
X215011000Y-126771400D01*
X214757000Y-126771400D01*
X213507750Y-126771400D01*
X213349000Y-126930150D01*
X213345928Y-127544400D01*
X210705700Y-127544400D01*
X210705700Y-126968191D01*
X210702793Y-126938676D01*
X210702948Y-126916473D01*
X210702065Y-126907473D01*
X210629522Y-126217265D01*
X210617714Y-126159738D01*
X210606717Y-126102093D01*
X210604105Y-126093444D01*
X210604104Y-126093437D01*
X210604101Y-126093431D01*
X210496059Y-125744400D01*
X213345928Y-125744400D01*
X213349000Y-126358650D01*
X213507750Y-126517400D01*
X214757000Y-126517400D01*
X214757000Y-125268150D01*
X215011000Y-125268150D01*
X215011000Y-126517400D01*
X216260250Y-126517400D01*
X216284434Y-126493216D01*
X218349000Y-126493216D01*
X218349000Y-126795584D01*
X218407989Y-127092143D01*
X218523701Y-127371495D01*
X218691688Y-127622905D01*
X218905495Y-127836712D01*
X219156905Y-128004699D01*
X219436257Y-128120411D01*
X219732816Y-128179400D01*
X220035184Y-128179400D01*
X220331743Y-128120411D01*
X220611095Y-128004699D01*
X220862505Y-127836712D01*
X220988033Y-127711184D01*
X233554821Y-127711184D01*
X233647566Y-127973029D01*
X233932920Y-128111420D01*
X234239790Y-128191483D01*
X234556384Y-128210140D01*
X234870533Y-128166674D01*
X235170167Y-128062756D01*
X235338034Y-127973029D01*
X235430779Y-127711184D01*
X234492800Y-126773205D01*
X233554821Y-127711184D01*
X220988033Y-127711184D01*
X221076312Y-127622905D01*
X221244299Y-127371495D01*
X221360011Y-127092143D01*
X221419000Y-126795584D01*
X221419000Y-126657184D01*
X232876260Y-126657184D01*
X232919726Y-126971333D01*
X233023644Y-127270967D01*
X233113371Y-127438834D01*
X233375216Y-127531579D01*
X234313195Y-126593600D01*
X234672405Y-126593600D01*
X235610384Y-127531579D01*
X235872229Y-127438834D01*
X236010620Y-127153480D01*
X236090683Y-126846610D01*
X236109340Y-126530016D01*
X236065874Y-126215867D01*
X235961956Y-125916233D01*
X235872229Y-125748366D01*
X235610384Y-125655621D01*
X234672405Y-126593600D01*
X234313195Y-126593600D01*
X233375216Y-125655621D01*
X233113371Y-125748366D01*
X232974980Y-126033720D01*
X232894917Y-126340590D01*
X232876260Y-126657184D01*
X221419000Y-126657184D01*
X221419000Y-126493216D01*
X221360011Y-126196657D01*
X221244299Y-125917305D01*
X221076312Y-125665895D01*
X220886433Y-125476016D01*
X233554821Y-125476016D01*
X234492800Y-126413995D01*
X235430779Y-125476016D01*
X235338034Y-125214171D01*
X235052680Y-125075780D01*
X234745810Y-124995717D01*
X234429216Y-124977060D01*
X234115067Y-125020526D01*
X233815433Y-125124444D01*
X233647566Y-125214171D01*
X233554821Y-125476016D01*
X220886433Y-125476016D01*
X220862505Y-125452088D01*
X220611095Y-125284101D01*
X220331743Y-125168389D01*
X220035184Y-125109400D01*
X219732816Y-125109400D01*
X219436257Y-125168389D01*
X219156905Y-125284101D01*
X218905495Y-125452088D01*
X218691688Y-125665895D01*
X218523701Y-125917305D01*
X218407989Y-126196657D01*
X218349000Y-126493216D01*
X216284434Y-126493216D01*
X216419000Y-126358650D01*
X216422072Y-125744400D01*
X216409812Y-125619918D01*
X216373502Y-125500220D01*
X216314537Y-125389906D01*
X216235185Y-125293215D01*
X216138494Y-125213863D01*
X216028180Y-125154898D01*
X215908482Y-125118588D01*
X215784000Y-125106328D01*
X215169750Y-125109400D01*
X215011000Y-125268150D01*
X214757000Y-125268150D01*
X214598250Y-125109400D01*
X213984000Y-125106328D01*
X213859518Y-125118588D01*
X213739820Y-125154898D01*
X213629506Y-125213863D01*
X213532815Y-125293215D01*
X213453463Y-125389906D01*
X213394498Y-125500220D01*
X213358188Y-125619918D01*
X213345928Y-125744400D01*
X210496059Y-125744400D01*
X210398879Y-125430464D01*
X210376131Y-125376348D01*
X210354140Y-125321919D01*
X210349894Y-125313934D01*
X210019807Y-124703449D01*
X209986965Y-124654758D01*
X209954835Y-124605658D01*
X209949119Y-124598650D01*
X209506740Y-124063906D01*
X209465084Y-124022540D01*
X209424012Y-123980598D01*
X209417044Y-123974834D01*
X208879225Y-123536200D01*
X208830330Y-123503714D01*
X208781892Y-123470548D01*
X208773940Y-123466248D01*
X208773932Y-123466244D01*
X208161163Y-123140429D01*
X208106904Y-123118065D01*
X208052931Y-123094932D01*
X208044292Y-123092258D01*
X207379903Y-122891667D01*
X207322328Y-122880267D01*
X207264895Y-122868059D01*
X207255901Y-122867114D01*
X206565204Y-122799391D01*
X206565191Y-122799391D01*
X206533809Y-122796300D01*
X203847700Y-122796300D01*
X203847700Y-118070265D01*
X208307400Y-118070265D01*
X208307400Y-118352935D01*
X208362547Y-118630174D01*
X208470720Y-118891327D01*
X208627763Y-119126359D01*
X208827641Y-119326237D01*
X209062673Y-119483280D01*
X209323826Y-119591453D01*
X209601065Y-119646600D01*
X209883735Y-119646600D01*
X210160974Y-119591453D01*
X210422127Y-119483280D01*
X210657159Y-119326237D01*
X210823739Y-119159657D01*
X210852898Y-119255780D01*
X210911863Y-119366094D01*
X210991215Y-119462785D01*
X211087906Y-119542137D01*
X211198220Y-119601102D01*
X211317918Y-119637412D01*
X211442400Y-119649672D01*
X211956650Y-119646600D01*
X212115400Y-119487850D01*
X212115400Y-118338600D01*
X212369400Y-118338600D01*
X212369400Y-119487850D01*
X212528150Y-119646600D01*
X213042400Y-119649672D01*
X213166882Y-119637412D01*
X213286580Y-119601102D01*
X213396894Y-119542137D01*
X213493585Y-119462785D01*
X213572937Y-119366094D01*
X213631902Y-119255780D01*
X213668212Y-119136082D01*
X213680472Y-119011600D01*
X216036728Y-119011600D01*
X216048988Y-119136082D01*
X216085298Y-119255780D01*
X216144263Y-119366094D01*
X216223615Y-119462785D01*
X216320306Y-119542137D01*
X216430620Y-119601102D01*
X216550318Y-119637412D01*
X216674800Y-119649672D01*
X217189050Y-119646600D01*
X217347800Y-119487850D01*
X217347800Y-118338600D01*
X216198550Y-118338600D01*
X216039800Y-118497350D01*
X216036728Y-119011600D01*
X213680472Y-119011600D01*
X213677400Y-118497350D01*
X213518650Y-118338600D01*
X212369400Y-118338600D01*
X212115400Y-118338600D01*
X212095400Y-118338600D01*
X212095400Y-118084600D01*
X212115400Y-118084600D01*
X212115400Y-116935350D01*
X212369400Y-116935350D01*
X212369400Y-118084600D01*
X213518650Y-118084600D01*
X213677400Y-117925850D01*
X213680472Y-117411600D01*
X216036728Y-117411600D01*
X216039800Y-117925850D01*
X216198550Y-118084600D01*
X217347800Y-118084600D01*
X217347800Y-116935350D01*
X217601800Y-116935350D01*
X217601800Y-118084600D01*
X217621800Y-118084600D01*
X217621800Y-118338600D01*
X217601800Y-118338600D01*
X217601800Y-119487850D01*
X217760550Y-119646600D01*
X218274800Y-119649672D01*
X218399282Y-119637412D01*
X218518980Y-119601102D01*
X218629294Y-119542137D01*
X218725985Y-119462785D01*
X218805337Y-119366094D01*
X218864302Y-119255780D01*
X218893461Y-119159657D01*
X219060041Y-119326237D01*
X219295073Y-119483280D01*
X219556226Y-119591453D01*
X219833465Y-119646600D01*
X220116135Y-119646600D01*
X220393374Y-119591453D01*
X220654527Y-119483280D01*
X220889559Y-119326237D01*
X221089437Y-119126359D01*
X221246480Y-118891327D01*
X221354653Y-118630174D01*
X221409800Y-118352935D01*
X221409800Y-118070265D01*
X221354653Y-117793026D01*
X221246480Y-117531873D01*
X221089437Y-117296841D01*
X220889559Y-117096963D01*
X220654527Y-116939920D01*
X220393374Y-116831747D01*
X220116135Y-116776600D01*
X219833465Y-116776600D01*
X219556226Y-116831747D01*
X219295073Y-116939920D01*
X219060041Y-117096963D01*
X218893461Y-117263543D01*
X218864302Y-117167420D01*
X218805337Y-117057106D01*
X218725985Y-116960415D01*
X218629294Y-116881063D01*
X218518980Y-116822098D01*
X218399282Y-116785788D01*
X218274800Y-116773528D01*
X217760550Y-116776600D01*
X217601800Y-116935350D01*
X217347800Y-116935350D01*
X217189050Y-116776600D01*
X216674800Y-116773528D01*
X216550318Y-116785788D01*
X216430620Y-116822098D01*
X216320306Y-116881063D01*
X216223615Y-116960415D01*
X216144263Y-117057106D01*
X216085298Y-117167420D01*
X216048988Y-117287118D01*
X216036728Y-117411600D01*
X213680472Y-117411600D01*
X213668212Y-117287118D01*
X213631902Y-117167420D01*
X213572937Y-117057106D01*
X213493585Y-116960415D01*
X213396894Y-116881063D01*
X213286580Y-116822098D01*
X213166882Y-116785788D01*
X213042400Y-116773528D01*
X212528150Y-116776600D01*
X212369400Y-116935350D01*
X212115400Y-116935350D01*
X211956650Y-116776600D01*
X211442400Y-116773528D01*
X211317918Y-116785788D01*
X211198220Y-116822098D01*
X211087906Y-116881063D01*
X210991215Y-116960415D01*
X210911863Y-117057106D01*
X210852898Y-117167420D01*
X210823739Y-117263543D01*
X210657159Y-117096963D01*
X210422127Y-116939920D01*
X210160974Y-116831747D01*
X209883735Y-116776600D01*
X209601065Y-116776600D01*
X209323826Y-116831747D01*
X209062673Y-116939920D01*
X208827641Y-117096963D01*
X208627763Y-117296841D01*
X208470720Y-117531873D01*
X208362547Y-117793026D01*
X208307400Y-118070265D01*
X203847700Y-118070265D01*
X203847700Y-116435133D01*
X204724000Y-116435133D01*
X204724000Y-116635267D01*
X204763044Y-116831556D01*
X204839632Y-117016456D01*
X204950821Y-117182862D01*
X205092338Y-117324379D01*
X205258744Y-117435568D01*
X205443644Y-117512156D01*
X205639933Y-117551200D01*
X205840067Y-117551200D01*
X206036356Y-117512156D01*
X206221256Y-117435568D01*
X206387662Y-117324379D01*
X206529179Y-117182862D01*
X206640368Y-117016456D01*
X206716956Y-116831556D01*
X206756000Y-116635267D01*
X206756000Y-116435133D01*
X206716956Y-116238844D01*
X206640368Y-116053944D01*
X206529179Y-115887538D01*
X206387662Y-115746021D01*
X206221256Y-115634832D01*
X206036356Y-115558244D01*
X205840067Y-115519200D01*
X205639933Y-115519200D01*
X205443644Y-115558244D01*
X205258744Y-115634832D01*
X205092338Y-115746021D01*
X204950821Y-115887538D01*
X204839632Y-116053944D01*
X204763044Y-116238844D01*
X204724000Y-116435133D01*
X203847700Y-116435133D01*
X203847700Y-110542333D01*
X204520800Y-110542333D01*
X204520800Y-110742467D01*
X204559844Y-110938756D01*
X204636432Y-111123656D01*
X204747621Y-111290062D01*
X204889138Y-111431579D01*
X205055544Y-111542768D01*
X205240444Y-111619356D01*
X205436733Y-111658400D01*
X205636867Y-111658400D01*
X205833156Y-111619356D01*
X206018056Y-111542768D01*
X206184462Y-111431579D01*
X206325979Y-111290062D01*
X206437168Y-111123656D01*
X206513756Y-110938756D01*
X206552800Y-110742467D01*
X206552800Y-110542333D01*
X206513756Y-110346044D01*
X206437168Y-110161144D01*
X206325979Y-109994738D01*
X206263974Y-109932733D01*
X216966800Y-109932733D01*
X216966800Y-110132867D01*
X217005844Y-110329156D01*
X217082432Y-110514056D01*
X217193621Y-110680462D01*
X217335138Y-110821979D01*
X217501544Y-110933168D01*
X217686444Y-111009756D01*
X217882733Y-111048800D01*
X218082867Y-111048800D01*
X218279156Y-111009756D01*
X218464056Y-110933168D01*
X218630462Y-110821979D01*
X218771979Y-110680462D01*
X218883168Y-110514056D01*
X218959756Y-110329156D01*
X218998800Y-110132867D01*
X218998800Y-109932733D01*
X218959756Y-109736444D01*
X218883168Y-109551544D01*
X218771979Y-109385138D01*
X218630462Y-109243621D01*
X218464056Y-109132432D01*
X218279156Y-109055844D01*
X218082867Y-109016800D01*
X217882733Y-109016800D01*
X217686444Y-109055844D01*
X217501544Y-109132432D01*
X217335138Y-109243621D01*
X217193621Y-109385138D01*
X217082432Y-109551544D01*
X217005844Y-109736444D01*
X216966800Y-109932733D01*
X206263974Y-109932733D01*
X206184462Y-109853221D01*
X206018056Y-109742032D01*
X205833156Y-109665444D01*
X205636867Y-109626400D01*
X205436733Y-109626400D01*
X205240444Y-109665444D01*
X205055544Y-109742032D01*
X204889138Y-109853221D01*
X204747621Y-109994738D01*
X204636432Y-110161144D01*
X204559844Y-110346044D01*
X204520800Y-110542333D01*
X203847700Y-110542333D01*
X203847700Y-104598733D01*
X206349600Y-104598733D01*
X206349600Y-104798867D01*
X206388644Y-104995156D01*
X206465232Y-105180056D01*
X206576421Y-105346462D01*
X206717938Y-105487979D01*
X206884344Y-105599168D01*
X207069244Y-105675756D01*
X207265533Y-105714800D01*
X207465667Y-105714800D01*
X207661956Y-105675756D01*
X207846856Y-105599168D01*
X208013262Y-105487979D01*
X208154779Y-105346462D01*
X208265968Y-105180056D01*
X208342556Y-104995156D01*
X208381600Y-104798867D01*
X208381600Y-104598733D01*
X208342556Y-104402444D01*
X208265968Y-104217544D01*
X208185270Y-104096771D01*
X208205579Y-104076462D01*
X208316768Y-103910056D01*
X208393356Y-103725156D01*
X208432400Y-103528867D01*
X208432400Y-103328733D01*
X208393356Y-103132444D01*
X208316768Y-102947544D01*
X208205579Y-102781138D01*
X208064062Y-102639621D01*
X207897656Y-102528432D01*
X207712756Y-102451844D01*
X207516467Y-102412800D01*
X207316333Y-102412800D01*
X207120044Y-102451844D01*
X206935144Y-102528432D01*
X206768738Y-102639621D01*
X206627221Y-102781138D01*
X206516032Y-102947544D01*
X206439444Y-103132444D01*
X206400400Y-103328733D01*
X206400400Y-103528867D01*
X206439444Y-103725156D01*
X206516032Y-103910056D01*
X206596730Y-104030829D01*
X206576421Y-104051138D01*
X206465232Y-104217544D01*
X206388644Y-104402444D01*
X206349600Y-104598733D01*
X203847700Y-104598733D01*
X203847700Y-98729800D01*
X215542594Y-98729800D01*
X219408015Y-102595221D01*
G37*
G04 #@! TD.AperFunction*
D19*
X222872300Y-83026191D02*
X222869167Y-83058000D01*
X222881673Y-83184971D01*
X222918709Y-83307063D01*
X222978852Y-83419583D01*
X223057323Y-83515200D01*
X223059792Y-83518208D01*
X223158417Y-83599148D01*
X223270937Y-83659291D01*
X223393029Y-83696327D01*
X223520000Y-83708833D01*
X223551808Y-83705700D01*
X246855244Y-83705700D01*
X246825444Y-83777644D01*
X246786400Y-83973933D01*
X246786400Y-84174067D01*
X246825444Y-84370356D01*
X246902032Y-84555256D01*
X247013221Y-84721662D01*
X247154738Y-84863179D01*
X247321144Y-84974368D01*
X247506044Y-85050956D01*
X247702333Y-85090000D01*
X247902467Y-85090000D01*
X248098756Y-85050956D01*
X248283656Y-84974368D01*
X248450062Y-84863179D01*
X248591579Y-84721662D01*
X248702768Y-84555256D01*
X248779356Y-84370356D01*
X248818400Y-84174067D01*
X248818400Y-83973933D01*
X248779356Y-83777644D01*
X248749556Y-83705700D01*
X251167022Y-83705700D01*
X251139044Y-83773244D01*
X251100000Y-83969533D01*
X251100000Y-84169667D01*
X251139044Y-84365956D01*
X251215632Y-84550856D01*
X251326821Y-84717262D01*
X251381231Y-84771672D01*
X251368138Y-84780421D01*
X251226621Y-84921938D01*
X251115432Y-85088344D01*
X251038844Y-85273244D01*
X250999800Y-85469533D01*
X250999800Y-85669667D01*
X251038844Y-85865956D01*
X251115432Y-86050856D01*
X251226621Y-86217262D01*
X251368138Y-86358779D01*
X251534544Y-86469968D01*
X251719444Y-86546556D01*
X251915733Y-86585600D01*
X252115867Y-86585600D01*
X252312156Y-86546556D01*
X252497056Y-86469968D01*
X252663462Y-86358779D01*
X252804979Y-86217262D01*
X252888409Y-86092400D01*
X253477128Y-86092400D01*
X253489388Y-86216882D01*
X253525698Y-86336580D01*
X253584663Y-86446894D01*
X253664015Y-86543585D01*
X253760706Y-86622937D01*
X253871020Y-86681902D01*
X253943580Y-86703913D01*
X253811725Y-86835768D01*
X253649210Y-87078989D01*
X253537268Y-87349242D01*
X253480200Y-87636140D01*
X253480200Y-87928660D01*
X253537268Y-88215558D01*
X253649210Y-88485811D01*
X253811725Y-88729032D01*
X254018568Y-88935875D01*
X254192960Y-89052400D01*
X254018568Y-89168925D01*
X253811725Y-89375768D01*
X253649210Y-89618989D01*
X253537268Y-89889242D01*
X253480200Y-90176140D01*
X253480200Y-90468660D01*
X253537268Y-90755558D01*
X253649210Y-91025811D01*
X253811725Y-91269032D01*
X254018568Y-91475875D01*
X254192960Y-91592400D01*
X254018568Y-91708925D01*
X253811725Y-91915768D01*
X253649210Y-92158989D01*
X253537268Y-92429242D01*
X253480200Y-92716140D01*
X253480200Y-93008660D01*
X253537268Y-93295558D01*
X253649210Y-93565811D01*
X253811725Y-93809032D01*
X254018568Y-94015875D01*
X254192960Y-94132400D01*
X254018568Y-94248925D01*
X253811725Y-94455768D01*
X253649210Y-94698989D01*
X253537268Y-94969242D01*
X253480200Y-95256140D01*
X253480200Y-95548660D01*
X253537268Y-95835558D01*
X253649210Y-96105811D01*
X253811725Y-96349032D01*
X254018568Y-96555875D01*
X254192960Y-96672400D01*
X254018568Y-96788925D01*
X253811725Y-96995768D01*
X253649210Y-97238989D01*
X253537268Y-97509242D01*
X253480200Y-97796140D01*
X253480200Y-98088660D01*
X253537268Y-98375558D01*
X253649210Y-98645811D01*
X253811725Y-98889032D01*
X254018568Y-99095875D01*
X254261789Y-99258390D01*
X254532042Y-99370332D01*
X254818940Y-99427400D01*
X255111460Y-99427400D01*
X255398358Y-99370332D01*
X255668611Y-99258390D01*
X255911832Y-99095875D01*
X256118675Y-98889032D01*
X256281190Y-98645811D01*
X256393132Y-98375558D01*
X256450200Y-98088660D01*
X256450200Y-97796140D01*
X256393132Y-97509242D01*
X256281190Y-97238989D01*
X256118675Y-96995768D01*
X255911832Y-96788925D01*
X255737440Y-96672400D01*
X255911832Y-96555875D01*
X256118675Y-96349032D01*
X256281190Y-96105811D01*
X256393132Y-95835558D01*
X256450200Y-95548660D01*
X256450200Y-95256140D01*
X256393132Y-94969242D01*
X256281190Y-94698989D01*
X256118675Y-94455768D01*
X255911832Y-94248925D01*
X255737440Y-94132400D01*
X255911832Y-94015875D01*
X256118675Y-93809032D01*
X256281190Y-93565811D01*
X256393132Y-93295558D01*
X256450200Y-93008660D01*
X256450200Y-92716140D01*
X256393132Y-92429242D01*
X256281190Y-92158989D01*
X256118675Y-91915768D01*
X255911832Y-91708925D01*
X255737440Y-91592400D01*
X255911832Y-91475875D01*
X256118675Y-91269032D01*
X256281190Y-91025811D01*
X256393132Y-90755558D01*
X256450200Y-90468660D01*
X256450200Y-90176140D01*
X256393132Y-89889242D01*
X256281190Y-89618989D01*
X256118675Y-89375768D01*
X255911832Y-89168925D01*
X255737440Y-89052400D01*
X255911832Y-88935875D01*
X256118675Y-88729032D01*
X256281190Y-88485811D01*
X256393132Y-88215558D01*
X256450200Y-87928660D01*
X256450200Y-87636140D01*
X256393132Y-87349242D01*
X256281190Y-87078989D01*
X256118675Y-86835768D01*
X255986820Y-86703913D01*
X256059380Y-86681902D01*
X256169694Y-86622937D01*
X256266385Y-86543585D01*
X256345737Y-86446894D01*
X256404702Y-86336580D01*
X256441012Y-86216882D01*
X256453272Y-86092400D01*
X256450200Y-85528150D01*
X256291450Y-85369400D01*
X255092200Y-85369400D01*
X255092200Y-85389400D01*
X254838200Y-85389400D01*
X254838200Y-85369400D01*
X253638950Y-85369400D01*
X253480200Y-85528150D01*
X253477128Y-86092400D01*
X252888409Y-86092400D01*
X252916168Y-86050856D01*
X252992756Y-85865956D01*
X253031800Y-85669667D01*
X253031800Y-85469533D01*
X252992756Y-85273244D01*
X252916168Y-85088344D01*
X252804979Y-84921938D01*
X252750569Y-84867528D01*
X252763662Y-84858779D01*
X252905179Y-84717262D01*
X253016368Y-84550856D01*
X253082002Y-84392400D01*
X253477128Y-84392400D01*
X253480200Y-84956650D01*
X253638950Y-85115400D01*
X254838200Y-85115400D01*
X254838200Y-83916150D01*
X255092200Y-83916150D01*
X255092200Y-85115400D01*
X256291450Y-85115400D01*
X256450200Y-84956650D01*
X256453272Y-84392400D01*
X256441012Y-84267918D01*
X256404702Y-84148220D01*
X256345737Y-84037906D01*
X256266385Y-83941215D01*
X256169694Y-83861863D01*
X256059380Y-83802898D01*
X255939682Y-83766588D01*
X255815200Y-83754328D01*
X255250950Y-83757400D01*
X255092200Y-83916150D01*
X254838200Y-83916150D01*
X254679450Y-83757400D01*
X254115200Y-83754328D01*
X253990718Y-83766588D01*
X253871020Y-83802898D01*
X253760706Y-83861863D01*
X253664015Y-83941215D01*
X253584663Y-84037906D01*
X253525698Y-84148220D01*
X253489388Y-84267918D01*
X253477128Y-84392400D01*
X253082002Y-84392400D01*
X253092956Y-84365956D01*
X253132000Y-84169667D01*
X253132000Y-83969533D01*
X253092956Y-83773244D01*
X253064978Y-83705700D01*
X256654300Y-83705700D01*
X256654301Y-124868330D01*
X256592629Y-124558284D01*
X256289820Y-123827237D01*
X255850208Y-123169311D01*
X255290689Y-122609792D01*
X254632763Y-122170180D01*
X253901716Y-121867371D01*
X253125640Y-121713000D01*
X252334360Y-121713000D01*
X251558284Y-121867371D01*
X250827237Y-122170180D01*
X250169311Y-122609792D01*
X249609792Y-123169311D01*
X249170180Y-123827237D01*
X248867371Y-124558284D01*
X248713000Y-125334360D01*
X248713000Y-126125640D01*
X248867371Y-126901716D01*
X249170180Y-127632763D01*
X249609792Y-128290689D01*
X250169311Y-128850208D01*
X250827237Y-129289820D01*
X251558284Y-129592629D01*
X251868325Y-129654300D01*
X239344200Y-129654300D01*
X239344200Y-128203600D01*
X239651371Y-128203600D01*
X239962420Y-128141729D01*
X240255421Y-128020363D01*
X240519115Y-127844169D01*
X240743369Y-127619915D01*
X240919563Y-127356221D01*
X241040929Y-127063220D01*
X241102800Y-126752171D01*
X241102800Y-126435029D01*
X242882800Y-126435029D01*
X242882800Y-126752171D01*
X242944671Y-127063220D01*
X243066037Y-127356221D01*
X243242231Y-127619915D01*
X243466485Y-127844169D01*
X243730179Y-128020363D01*
X244023180Y-128141729D01*
X244334229Y-128203600D01*
X244651371Y-128203600D01*
X244962420Y-128141729D01*
X245255421Y-128020363D01*
X245519115Y-127844169D01*
X245743369Y-127619915D01*
X245919563Y-127356221D01*
X246040929Y-127063220D01*
X246102800Y-126752171D01*
X246102800Y-126435029D01*
X246040929Y-126123980D01*
X245919563Y-125830979D01*
X245743369Y-125567285D01*
X245519115Y-125343031D01*
X245255421Y-125166837D01*
X244962420Y-125045471D01*
X244651371Y-124983600D01*
X244334229Y-124983600D01*
X244023180Y-125045471D01*
X243730179Y-125166837D01*
X243466485Y-125343031D01*
X243242231Y-125567285D01*
X243066037Y-125830979D01*
X242944671Y-126123980D01*
X242882800Y-126435029D01*
X241102800Y-126435029D01*
X241040929Y-126123980D01*
X240919563Y-125830979D01*
X240743369Y-125567285D01*
X240519115Y-125343031D01*
X240255421Y-125166837D01*
X239962420Y-125045471D01*
X239651371Y-124983600D01*
X239344200Y-124983600D01*
X239344200Y-122631200D01*
X239341760Y-122606424D01*
X239334533Y-122582599D01*
X239322797Y-122560643D01*
X239307003Y-122541397D01*
X228986115Y-112220509D01*
X229089432Y-112151475D01*
X229296275Y-111944632D01*
X229458790Y-111701411D01*
X229467155Y-111681216D01*
X251449000Y-111681216D01*
X251449000Y-111983584D01*
X251507989Y-112280143D01*
X251623701Y-112559495D01*
X251791688Y-112810905D01*
X252005495Y-113024712D01*
X252256905Y-113192699D01*
X252536257Y-113308411D01*
X252832816Y-113367400D01*
X253135184Y-113367400D01*
X253431743Y-113308411D01*
X253711095Y-113192699D01*
X253962505Y-113024712D01*
X254176312Y-112810905D01*
X254344299Y-112559495D01*
X254460011Y-112280143D01*
X254519000Y-111983584D01*
X254519000Y-111681216D01*
X254460011Y-111384657D01*
X254344299Y-111105305D01*
X254176312Y-110853895D01*
X253962505Y-110640088D01*
X253711095Y-110472101D01*
X253431743Y-110356389D01*
X253135184Y-110297400D01*
X252832816Y-110297400D01*
X252536257Y-110356389D01*
X252256905Y-110472101D01*
X252005495Y-110640088D01*
X251791688Y-110853895D01*
X251623701Y-111105305D01*
X251507989Y-111384657D01*
X251449000Y-111681216D01*
X229467155Y-111681216D01*
X229570732Y-111431158D01*
X229627800Y-111144260D01*
X229627800Y-110851740D01*
X229570732Y-110564842D01*
X229458790Y-110294589D01*
X229296275Y-110051368D01*
X229164420Y-109919513D01*
X229236980Y-109897502D01*
X229347294Y-109838537D01*
X229443985Y-109759185D01*
X229523337Y-109662494D01*
X229582302Y-109552180D01*
X229618612Y-109432482D01*
X229630872Y-109308000D01*
X229627800Y-108743750D01*
X229469050Y-108585000D01*
X228269800Y-108585000D01*
X228269800Y-108605000D01*
X228015800Y-108605000D01*
X228015800Y-108585000D01*
X226816550Y-108585000D01*
X226657800Y-108743750D01*
X226654728Y-109308000D01*
X226666988Y-109432482D01*
X226703298Y-109552180D01*
X226762263Y-109662494D01*
X226841615Y-109759185D01*
X226938306Y-109838537D01*
X227048620Y-109897502D01*
X227121180Y-109919513D01*
X226989325Y-110051368D01*
X226920291Y-110154685D01*
X226085400Y-109319794D01*
X226085400Y-107608000D01*
X226654728Y-107608000D01*
X226657800Y-108172250D01*
X226816550Y-108331000D01*
X228015800Y-108331000D01*
X228015800Y-107131750D01*
X228269800Y-107131750D01*
X228269800Y-108331000D01*
X229469050Y-108331000D01*
X229627800Y-108172250D01*
X229630872Y-107608000D01*
X229618612Y-107483518D01*
X229582302Y-107363820D01*
X229523337Y-107253506D01*
X229443985Y-107156815D01*
X229347294Y-107077463D01*
X229236980Y-107018498D01*
X229117282Y-106982188D01*
X228992800Y-106969928D01*
X228428550Y-106973000D01*
X228269800Y-107131750D01*
X228015800Y-107131750D01*
X227857050Y-106973000D01*
X227292800Y-106969928D01*
X227168318Y-106982188D01*
X227048620Y-107018498D01*
X226938306Y-107077463D01*
X226841615Y-107156815D01*
X226762263Y-107253506D01*
X226703298Y-107363820D01*
X226666988Y-107483518D01*
X226654728Y-107608000D01*
X226085400Y-107608000D01*
X226085400Y-106019600D01*
X226082960Y-105994824D01*
X226075733Y-105970999D01*
X226063997Y-105949043D01*
X226050340Y-105932400D01*
X251445928Y-105932400D01*
X251445928Y-107732400D01*
X251458188Y-107856882D01*
X251494498Y-107976580D01*
X251553463Y-108086894D01*
X251632815Y-108183585D01*
X251729506Y-108262937D01*
X251839820Y-108321902D01*
X251959518Y-108358212D01*
X252084000Y-108370472D01*
X253884000Y-108370472D01*
X254008482Y-108358212D01*
X254128180Y-108321902D01*
X254238494Y-108262937D01*
X254335185Y-108183585D01*
X254414537Y-108086894D01*
X254473502Y-107976580D01*
X254509812Y-107856882D01*
X254522072Y-107732400D01*
X254522072Y-105932400D01*
X254509812Y-105807918D01*
X254473502Y-105688220D01*
X254414537Y-105577906D01*
X254335185Y-105481215D01*
X254238494Y-105401863D01*
X254128180Y-105342898D01*
X254008482Y-105306588D01*
X253884000Y-105294328D01*
X252084000Y-105294328D01*
X251959518Y-105306588D01*
X251839820Y-105342898D01*
X251729506Y-105401863D01*
X251632815Y-105481215D01*
X251553463Y-105577906D01*
X251494498Y-105688220D01*
X251458188Y-105807918D01*
X251445928Y-105932400D01*
X226050340Y-105932400D01*
X226048203Y-105929797D01*
X219840339Y-99721933D01*
X244297200Y-99721933D01*
X244297200Y-99922067D01*
X244336244Y-100118356D01*
X244412832Y-100303256D01*
X244524021Y-100469662D01*
X244665538Y-100611179D01*
X244831944Y-100722368D01*
X245016844Y-100798956D01*
X245213133Y-100838000D01*
X245413267Y-100838000D01*
X245609556Y-100798956D01*
X245794456Y-100722368D01*
X245960862Y-100611179D01*
X246102379Y-100469662D01*
X246213568Y-100303256D01*
X246290156Y-100118356D01*
X246329200Y-99922067D01*
X246329200Y-99721933D01*
X246290156Y-99525644D01*
X246213568Y-99340744D01*
X246102379Y-99174338D01*
X245960862Y-99032821D01*
X245794456Y-98921632D01*
X245609556Y-98845044D01*
X245413267Y-98806000D01*
X245213133Y-98806000D01*
X245016844Y-98845044D01*
X244831944Y-98921632D01*
X244665538Y-99032821D01*
X244524021Y-99174338D01*
X244412832Y-99340744D01*
X244336244Y-99525644D01*
X244297200Y-99721933D01*
X219840339Y-99721933D01*
X218280339Y-98161933D01*
X221930400Y-98161933D01*
X221930400Y-98362067D01*
X221969444Y-98558356D01*
X222046032Y-98743256D01*
X222157221Y-98909662D01*
X222298738Y-99051179D01*
X222465144Y-99162368D01*
X222650044Y-99238956D01*
X222846333Y-99278000D01*
X223046467Y-99278000D01*
X223242756Y-99238956D01*
X223427656Y-99162368D01*
X223594062Y-99051179D01*
X223735579Y-98909662D01*
X223846768Y-98743256D01*
X223923356Y-98558356D01*
X223962400Y-98362067D01*
X223962400Y-98161933D01*
X223923356Y-97965644D01*
X223846768Y-97780744D01*
X223845692Y-97779133D01*
X231534000Y-97779133D01*
X231534000Y-97979267D01*
X231573044Y-98175556D01*
X231649632Y-98360456D01*
X231760821Y-98526862D01*
X231902338Y-98668379D01*
X232068744Y-98779568D01*
X232253644Y-98856156D01*
X232449933Y-98895200D01*
X232650067Y-98895200D01*
X232846356Y-98856156D01*
X233031256Y-98779568D01*
X233197662Y-98668379D01*
X233339179Y-98526862D01*
X233450368Y-98360456D01*
X233526956Y-98175556D01*
X233566000Y-97979267D01*
X233566000Y-97779133D01*
X233526956Y-97582844D01*
X233450368Y-97397944D01*
X233339179Y-97231538D01*
X233197662Y-97090021D01*
X233031256Y-96978832D01*
X232846356Y-96902244D01*
X232650067Y-96863200D01*
X232449933Y-96863200D01*
X232253644Y-96902244D01*
X232068744Y-96978832D01*
X231902338Y-97090021D01*
X231760821Y-97231538D01*
X231649632Y-97397944D01*
X231573044Y-97582844D01*
X231534000Y-97779133D01*
X223845692Y-97779133D01*
X223735579Y-97614338D01*
X223594062Y-97472821D01*
X223427656Y-97361632D01*
X223242756Y-97285044D01*
X223046467Y-97246000D01*
X222846333Y-97246000D01*
X222650044Y-97285044D01*
X222465144Y-97361632D01*
X222298738Y-97472821D01*
X222157221Y-97614338D01*
X222046032Y-97780744D01*
X221969444Y-97965644D01*
X221930400Y-98161933D01*
X218280339Y-98161933D01*
X216548603Y-96430197D01*
X216529357Y-96414403D01*
X216507401Y-96402667D01*
X216483576Y-96395440D01*
X216458800Y-96393000D01*
X203847700Y-96393000D01*
X203847700Y-95788333D01*
X226444400Y-95788333D01*
X226444400Y-95988467D01*
X226483444Y-96184756D01*
X226560032Y-96369656D01*
X226671221Y-96536062D01*
X226812738Y-96677579D01*
X226979144Y-96788768D01*
X227164044Y-96865356D01*
X227360333Y-96904400D01*
X227560467Y-96904400D01*
X227756756Y-96865356D01*
X227941656Y-96788768D01*
X228108062Y-96677579D01*
X228249579Y-96536062D01*
X228360768Y-96369656D01*
X228437356Y-96184756D01*
X228476400Y-95988467D01*
X228476400Y-95788333D01*
X228437356Y-95592044D01*
X228360768Y-95407144D01*
X228249579Y-95240738D01*
X228108062Y-95099221D01*
X227941656Y-94988032D01*
X227756756Y-94911444D01*
X227560467Y-94872400D01*
X227360333Y-94872400D01*
X227164044Y-94911444D01*
X226979144Y-94988032D01*
X226812738Y-95099221D01*
X226671221Y-95240738D01*
X226560032Y-95407144D01*
X226483444Y-95592044D01*
X226444400Y-95788333D01*
X203847700Y-95788333D01*
X203847700Y-94469533D01*
X233863200Y-94469533D01*
X233863200Y-94669667D01*
X233902244Y-94865956D01*
X233978832Y-95050856D01*
X234090021Y-95217262D01*
X234231538Y-95358779D01*
X234253383Y-95373376D01*
X234204821Y-95421938D01*
X234093632Y-95588344D01*
X234017044Y-95773244D01*
X233978000Y-95969533D01*
X233978000Y-96169667D01*
X234017044Y-96365956D01*
X234093632Y-96550856D01*
X234204821Y-96717262D01*
X234346338Y-96858779D01*
X234512744Y-96969968D01*
X234697644Y-97046556D01*
X234893933Y-97085600D01*
X235094067Y-97085600D01*
X235290356Y-97046556D01*
X235475256Y-96969968D01*
X235641662Y-96858779D01*
X235783179Y-96717262D01*
X235894368Y-96550856D01*
X235970956Y-96365956D01*
X236010000Y-96169667D01*
X236010000Y-95969533D01*
X235970956Y-95773244D01*
X235894368Y-95588344D01*
X235783179Y-95421938D01*
X235641662Y-95280421D01*
X235619817Y-95265824D01*
X235668379Y-95217262D01*
X235779568Y-95050856D01*
X235856156Y-94865956D01*
X235895200Y-94669667D01*
X235895200Y-94469533D01*
X235856156Y-94273244D01*
X235779568Y-94088344D01*
X235668379Y-93921938D01*
X235526862Y-93780421D01*
X235360456Y-93669232D01*
X235175556Y-93592644D01*
X234979267Y-93553600D01*
X234779133Y-93553600D01*
X234582844Y-93592644D01*
X234397944Y-93669232D01*
X234231538Y-93780421D01*
X234090021Y-93921938D01*
X233978832Y-94088344D01*
X233902244Y-94273244D01*
X233863200Y-94469533D01*
X203847700Y-94469533D01*
X203847700Y-91466933D01*
X233578400Y-91466933D01*
X233578400Y-91667067D01*
X233617444Y-91863356D01*
X233694032Y-92048256D01*
X233805221Y-92214662D01*
X233946738Y-92356179D01*
X234113144Y-92467368D01*
X234298044Y-92543956D01*
X234494333Y-92583000D01*
X234694467Y-92583000D01*
X234890756Y-92543956D01*
X235075656Y-92467368D01*
X235242062Y-92356179D01*
X235383579Y-92214662D01*
X235494768Y-92048256D01*
X235571356Y-91863356D01*
X235610400Y-91667067D01*
X235610400Y-91466933D01*
X235571356Y-91270644D01*
X235494847Y-91085933D01*
X244119400Y-91085933D01*
X244119400Y-91286067D01*
X244158444Y-91482356D01*
X244235032Y-91667256D01*
X244346221Y-91833662D01*
X244487738Y-91975179D01*
X244654144Y-92086368D01*
X244839044Y-92162956D01*
X245035333Y-92202000D01*
X245235467Y-92202000D01*
X245431756Y-92162956D01*
X245616656Y-92086368D01*
X245783062Y-91975179D01*
X245924579Y-91833662D01*
X246035768Y-91667256D01*
X246112356Y-91482356D01*
X246114906Y-91469533D01*
X246961610Y-91469533D01*
X246961610Y-91669667D01*
X247000654Y-91865956D01*
X247077242Y-92050856D01*
X247188431Y-92217262D01*
X247329948Y-92358779D01*
X247496354Y-92469968D01*
X247681254Y-92546556D01*
X247877543Y-92585600D01*
X248077677Y-92585600D01*
X248273966Y-92546556D01*
X248458866Y-92469968D01*
X248625272Y-92358779D01*
X248766789Y-92217262D01*
X248877978Y-92050856D01*
X248954566Y-91865956D01*
X248993610Y-91669667D01*
X248993610Y-91469533D01*
X251127200Y-91469533D01*
X251127200Y-91669667D01*
X251166244Y-91865956D01*
X251242832Y-92050856D01*
X251354021Y-92217262D01*
X251495538Y-92358779D01*
X251661944Y-92469968D01*
X251846844Y-92546556D01*
X252043133Y-92585600D01*
X252243267Y-92585600D01*
X252439556Y-92546556D01*
X252624456Y-92469968D01*
X252790862Y-92358779D01*
X252932379Y-92217262D01*
X253043568Y-92050856D01*
X253120156Y-91865956D01*
X253159200Y-91669667D01*
X253159200Y-91469533D01*
X253120156Y-91273244D01*
X253043568Y-91088344D01*
X252932379Y-90921938D01*
X252790862Y-90780421D01*
X252624456Y-90669232D01*
X252439556Y-90592644D01*
X252243267Y-90553600D01*
X252043133Y-90553600D01*
X251846844Y-90592644D01*
X251661944Y-90669232D01*
X251495538Y-90780421D01*
X251354021Y-90921938D01*
X251242832Y-91088344D01*
X251166244Y-91273244D01*
X251127200Y-91469533D01*
X248993610Y-91469533D01*
X248954566Y-91273244D01*
X248877978Y-91088344D01*
X248766789Y-90921938D01*
X248625272Y-90780421D01*
X248458866Y-90669232D01*
X248273966Y-90592644D01*
X248077677Y-90553600D01*
X247877543Y-90553600D01*
X247681254Y-90592644D01*
X247496354Y-90669232D01*
X247329948Y-90780421D01*
X247188431Y-90921938D01*
X247077242Y-91088344D01*
X247000654Y-91273244D01*
X246961610Y-91469533D01*
X246114906Y-91469533D01*
X246151400Y-91286067D01*
X246151400Y-91085933D01*
X246112356Y-90889644D01*
X246035768Y-90704744D01*
X245924579Y-90538338D01*
X245783062Y-90396821D01*
X245616656Y-90285632D01*
X245431756Y-90209044D01*
X245235467Y-90170000D01*
X245035333Y-90170000D01*
X244839044Y-90209044D01*
X244654144Y-90285632D01*
X244487738Y-90396821D01*
X244346221Y-90538338D01*
X244235032Y-90704744D01*
X244158444Y-90889644D01*
X244119400Y-91085933D01*
X235494847Y-91085933D01*
X235494768Y-91085744D01*
X235383579Y-90919338D01*
X235242062Y-90777821D01*
X235075656Y-90666632D01*
X234890756Y-90590044D01*
X234694467Y-90551000D01*
X234494333Y-90551000D01*
X234298044Y-90590044D01*
X234113144Y-90666632D01*
X233946738Y-90777821D01*
X233805221Y-90919338D01*
X233694032Y-91085744D01*
X233617444Y-91270644D01*
X233578400Y-91466933D01*
X203847700Y-91466933D01*
X203847700Y-89830733D01*
X219608400Y-89830733D01*
X219608400Y-90030867D01*
X219647444Y-90227156D01*
X219724032Y-90412056D01*
X219835221Y-90578462D01*
X219976738Y-90719979D01*
X220143144Y-90831168D01*
X220328044Y-90907756D01*
X220524333Y-90946800D01*
X220724467Y-90946800D01*
X220920756Y-90907756D01*
X221105656Y-90831168D01*
X221272062Y-90719979D01*
X221413579Y-90578462D01*
X221524768Y-90412056D01*
X221601356Y-90227156D01*
X221640400Y-90030867D01*
X221640400Y-89830733D01*
X221601356Y-89634444D01*
X221592364Y-89612733D01*
X237871000Y-89612733D01*
X237871000Y-89812867D01*
X237910044Y-90009156D01*
X237986632Y-90194056D01*
X238097821Y-90360462D01*
X238239338Y-90501979D01*
X238405744Y-90613168D01*
X238590644Y-90689756D01*
X238786933Y-90728800D01*
X238987067Y-90728800D01*
X239183356Y-90689756D01*
X239368256Y-90613168D01*
X239534662Y-90501979D01*
X239676179Y-90360462D01*
X239787368Y-90194056D01*
X239863956Y-90009156D01*
X239903000Y-89812867D01*
X239903000Y-89612733D01*
X239863956Y-89416444D01*
X239787368Y-89231544D01*
X239676179Y-89065138D01*
X239599941Y-88988900D01*
X239726979Y-88861862D01*
X239838168Y-88695456D01*
X239914756Y-88510556D01*
X239953800Y-88314267D01*
X239953800Y-88114133D01*
X239914756Y-87917844D01*
X239838168Y-87732944D01*
X239726979Y-87566538D01*
X239585462Y-87425021D01*
X239540732Y-87395133D01*
X241384000Y-87395133D01*
X241384000Y-87595267D01*
X241423044Y-87791556D01*
X241499632Y-87976456D01*
X241610821Y-88142862D01*
X241752338Y-88284379D01*
X241918744Y-88395568D01*
X242103644Y-88472156D01*
X242299933Y-88511200D01*
X242500067Y-88511200D01*
X242696356Y-88472156D01*
X242702688Y-88469533D01*
X250901000Y-88469533D01*
X250901000Y-88669667D01*
X250940044Y-88865956D01*
X251016632Y-89050856D01*
X251127821Y-89217262D01*
X251269338Y-89358779D01*
X251435744Y-89469968D01*
X251620644Y-89546556D01*
X251816933Y-89585600D01*
X252017067Y-89585600D01*
X252213356Y-89546556D01*
X252398256Y-89469968D01*
X252564662Y-89358779D01*
X252706179Y-89217262D01*
X252817368Y-89050856D01*
X252893956Y-88865956D01*
X252933000Y-88669667D01*
X252933000Y-88469533D01*
X252893956Y-88273244D01*
X252817368Y-88088344D01*
X252706179Y-87921938D01*
X252564662Y-87780421D01*
X252398256Y-87669232D01*
X252213356Y-87592644D01*
X252017067Y-87553600D01*
X251816933Y-87553600D01*
X251620644Y-87592644D01*
X251435744Y-87669232D01*
X251269338Y-87780421D01*
X251127821Y-87921938D01*
X251016632Y-88088344D01*
X250940044Y-88273244D01*
X250901000Y-88469533D01*
X242702688Y-88469533D01*
X242881256Y-88395568D01*
X243047662Y-88284379D01*
X243189179Y-88142862D01*
X243300368Y-87976456D01*
X243376956Y-87791556D01*
X243416000Y-87595267D01*
X243416000Y-87395133D01*
X243376956Y-87198844D01*
X243300368Y-87013944D01*
X243189179Y-86847538D01*
X243047662Y-86706021D01*
X242881256Y-86594832D01*
X242696356Y-86518244D01*
X242500067Y-86479200D01*
X242299933Y-86479200D01*
X242103644Y-86518244D01*
X241918744Y-86594832D01*
X241752338Y-86706021D01*
X241610821Y-86847538D01*
X241499632Y-87013944D01*
X241423044Y-87198844D01*
X241384000Y-87395133D01*
X239540732Y-87395133D01*
X239537411Y-87392914D01*
X239560062Y-87377779D01*
X239701579Y-87236262D01*
X239812768Y-87069856D01*
X239889356Y-86884956D01*
X239928400Y-86688667D01*
X239928400Y-86488533D01*
X239889356Y-86292244D01*
X239812768Y-86107344D01*
X239721896Y-85971345D01*
X239777779Y-85915462D01*
X239888968Y-85749056D01*
X239965556Y-85564156D01*
X240004600Y-85367867D01*
X240004600Y-85167733D01*
X239965556Y-84971444D01*
X239888968Y-84786544D01*
X239777779Y-84620138D01*
X239636262Y-84478621D01*
X239469856Y-84367432D01*
X239284956Y-84290844D01*
X239088667Y-84251800D01*
X238888533Y-84251800D01*
X238692244Y-84290844D01*
X238507344Y-84367432D01*
X238340938Y-84478621D01*
X238199421Y-84620138D01*
X238088232Y-84786544D01*
X238011644Y-84971444D01*
X237972600Y-85167733D01*
X237972600Y-85367867D01*
X238011644Y-85564156D01*
X238088232Y-85749056D01*
X238179104Y-85885055D01*
X238123221Y-85940938D01*
X238012032Y-86107344D01*
X237935444Y-86292244D01*
X237896400Y-86488533D01*
X237896400Y-86688667D01*
X237935444Y-86884956D01*
X238012032Y-87069856D01*
X238123221Y-87236262D01*
X238264738Y-87377779D01*
X238312789Y-87409886D01*
X238290138Y-87425021D01*
X238148621Y-87566538D01*
X238037432Y-87732944D01*
X237960844Y-87917844D01*
X237921800Y-88114133D01*
X237921800Y-88314267D01*
X237960844Y-88510556D01*
X238037432Y-88695456D01*
X238148621Y-88861862D01*
X238224859Y-88938100D01*
X238097821Y-89065138D01*
X237986632Y-89231544D01*
X237910044Y-89416444D01*
X237871000Y-89612733D01*
X221592364Y-89612733D01*
X221524768Y-89449544D01*
X221413579Y-89283138D01*
X221272062Y-89141621D01*
X221105656Y-89030432D01*
X220920756Y-88953844D01*
X220724467Y-88914800D01*
X220524333Y-88914800D01*
X220328044Y-88953844D01*
X220143144Y-89030432D01*
X219976738Y-89141621D01*
X219835221Y-89283138D01*
X219724032Y-89449544D01*
X219647444Y-89634444D01*
X219608400Y-89830733D01*
X203847700Y-89830733D01*
X203847700Y-81633675D01*
X203909371Y-81943716D01*
X204212180Y-82674763D01*
X204651792Y-83332689D01*
X204834303Y-83515200D01*
X204827133Y-83515200D01*
X204630844Y-83554244D01*
X204445944Y-83630832D01*
X204279538Y-83742021D01*
X204138021Y-83883538D01*
X204026832Y-84049944D01*
X203950244Y-84234844D01*
X203911200Y-84431133D01*
X203911200Y-84631267D01*
X203950244Y-84827556D01*
X204026832Y-85012456D01*
X204138021Y-85178862D01*
X204201559Y-85242400D01*
X204138021Y-85305938D01*
X204026832Y-85472344D01*
X203950244Y-85657244D01*
X203911200Y-85853533D01*
X203911200Y-86053667D01*
X203950244Y-86249956D01*
X204026832Y-86434856D01*
X204138021Y-86601262D01*
X204279538Y-86742779D01*
X204445944Y-86853968D01*
X204630844Y-86930556D01*
X204827133Y-86969600D01*
X205027267Y-86969600D01*
X205223556Y-86930556D01*
X205408456Y-86853968D01*
X205536800Y-86768211D01*
X205665144Y-86853968D01*
X205850044Y-86930556D01*
X206046333Y-86969600D01*
X206246467Y-86969600D01*
X206442756Y-86930556D01*
X206627656Y-86853968D01*
X206794062Y-86742779D01*
X206935579Y-86601262D01*
X207046768Y-86434856D01*
X207123356Y-86249956D01*
X207162400Y-86053667D01*
X207162400Y-85853533D01*
X207123356Y-85657244D01*
X207046768Y-85472344D01*
X206935579Y-85305938D01*
X206794062Y-85164421D01*
X206627656Y-85053232D01*
X206442756Y-84976644D01*
X206246467Y-84937600D01*
X206046333Y-84937600D01*
X205850044Y-84976644D01*
X205840819Y-84980465D01*
X205904156Y-84827556D01*
X205943200Y-84631267D01*
X205943200Y-84431133D01*
X205928313Y-84356290D01*
X206600284Y-84634629D01*
X207376360Y-84789000D01*
X208167640Y-84789000D01*
X208943716Y-84634629D01*
X209674763Y-84331820D01*
X210134351Y-84024733D01*
X210616800Y-84024733D01*
X210616800Y-84224867D01*
X210655844Y-84421156D01*
X210732432Y-84606056D01*
X210843621Y-84772462D01*
X210985138Y-84913979D01*
X211151544Y-85025168D01*
X211336444Y-85101756D01*
X211532733Y-85140800D01*
X211732867Y-85140800D01*
X211929156Y-85101756D01*
X212114056Y-85025168D01*
X212280462Y-84913979D01*
X212421979Y-84772462D01*
X212533168Y-84606056D01*
X212609756Y-84421156D01*
X212648800Y-84224867D01*
X212648800Y-84024733D01*
X212902800Y-84024733D01*
X212902800Y-84224867D01*
X212941844Y-84421156D01*
X213018432Y-84606056D01*
X213129621Y-84772462D01*
X213271138Y-84913979D01*
X213437544Y-85025168D01*
X213558141Y-85075121D01*
X213488344Y-85104032D01*
X213321938Y-85215221D01*
X213180421Y-85356738D01*
X213069232Y-85523144D01*
X212992644Y-85708044D01*
X212953600Y-85904333D01*
X212953600Y-86104467D01*
X212992644Y-86300756D01*
X213069232Y-86485656D01*
X213180421Y-86652062D01*
X213321938Y-86793579D01*
X213488344Y-86904768D01*
X213673244Y-86981356D01*
X213869533Y-87020400D01*
X214069667Y-87020400D01*
X214265956Y-86981356D01*
X214450856Y-86904768D01*
X214617262Y-86793579D01*
X214758779Y-86652062D01*
X214869968Y-86485656D01*
X214946556Y-86300756D01*
X214985600Y-86104467D01*
X214985600Y-85904333D01*
X214946556Y-85708044D01*
X214869968Y-85523144D01*
X214758779Y-85356738D01*
X214732774Y-85330733D01*
X224398400Y-85330733D01*
X224398400Y-85530867D01*
X224437444Y-85727156D01*
X224514032Y-85912056D01*
X224625221Y-86078462D01*
X224766738Y-86219979D01*
X224933144Y-86331168D01*
X225118044Y-86407756D01*
X225314333Y-86446800D01*
X225514467Y-86446800D01*
X225710756Y-86407756D01*
X225895656Y-86331168D01*
X226062062Y-86219979D01*
X226203579Y-86078462D01*
X226314768Y-85912056D01*
X226391356Y-85727156D01*
X226430400Y-85530867D01*
X226430400Y-85330733D01*
X226391356Y-85134444D01*
X226314768Y-84949544D01*
X226203579Y-84783138D01*
X226062062Y-84641621D01*
X225895656Y-84530432D01*
X225710756Y-84453844D01*
X225514467Y-84414800D01*
X225314333Y-84414800D01*
X225118044Y-84453844D01*
X224933144Y-84530432D01*
X224766738Y-84641621D01*
X224625221Y-84783138D01*
X224514032Y-84949544D01*
X224437444Y-85134444D01*
X224398400Y-85330733D01*
X214732774Y-85330733D01*
X214617262Y-85215221D01*
X214450856Y-85104032D01*
X214330259Y-85054079D01*
X214400056Y-85025168D01*
X214566462Y-84913979D01*
X214707979Y-84772462D01*
X214819168Y-84606056D01*
X214895756Y-84421156D01*
X214934800Y-84224867D01*
X214934800Y-84024733D01*
X214895756Y-83828444D01*
X214819168Y-83643544D01*
X214707979Y-83477138D01*
X214566462Y-83335621D01*
X214400056Y-83224432D01*
X214215156Y-83147844D01*
X214018867Y-83108800D01*
X213818733Y-83108800D01*
X213622444Y-83147844D01*
X213437544Y-83224432D01*
X213271138Y-83335621D01*
X213129621Y-83477138D01*
X213018432Y-83643544D01*
X212941844Y-83828444D01*
X212902800Y-84024733D01*
X212648800Y-84024733D01*
X212609756Y-83828444D01*
X212533168Y-83643544D01*
X212421979Y-83477138D01*
X212280462Y-83335621D01*
X212114056Y-83224432D01*
X211929156Y-83147844D01*
X211732867Y-83108800D01*
X211532733Y-83108800D01*
X211336444Y-83147844D01*
X211151544Y-83224432D01*
X210985138Y-83335621D01*
X210843621Y-83477138D01*
X210732432Y-83643544D01*
X210655844Y-83828444D01*
X210616800Y-84024733D01*
X210134351Y-84024733D01*
X210332689Y-83892208D01*
X210892208Y-83332689D01*
X211331820Y-82674763D01*
X211634629Y-81943716D01*
X211789000Y-81167640D01*
X211789000Y-80376360D01*
X211634629Y-79600284D01*
X211331820Y-78869237D01*
X210892208Y-78211311D01*
X210332689Y-77651792D01*
X209674763Y-77212180D01*
X208943716Y-76909371D01*
X208633675Y-76847700D01*
X222872301Y-76847700D01*
X222872300Y-83026191D01*
G04 #@! TA.AperFunction,Conductor*
D20*
G36*
X222872300Y-83026191D02*
G01*
X222869167Y-83058000D01*
X222881673Y-83184971D01*
X222918709Y-83307063D01*
X222978852Y-83419583D01*
X223057323Y-83515200D01*
X223059792Y-83518208D01*
X223158417Y-83599148D01*
X223270937Y-83659291D01*
X223393029Y-83696327D01*
X223520000Y-83708833D01*
X223551808Y-83705700D01*
X246855244Y-83705700D01*
X246825444Y-83777644D01*
X246786400Y-83973933D01*
X246786400Y-84174067D01*
X246825444Y-84370356D01*
X246902032Y-84555256D01*
X247013221Y-84721662D01*
X247154738Y-84863179D01*
X247321144Y-84974368D01*
X247506044Y-85050956D01*
X247702333Y-85090000D01*
X247902467Y-85090000D01*
X248098756Y-85050956D01*
X248283656Y-84974368D01*
X248450062Y-84863179D01*
X248591579Y-84721662D01*
X248702768Y-84555256D01*
X248779356Y-84370356D01*
X248818400Y-84174067D01*
X248818400Y-83973933D01*
X248779356Y-83777644D01*
X248749556Y-83705700D01*
X251167022Y-83705700D01*
X251139044Y-83773244D01*
X251100000Y-83969533D01*
X251100000Y-84169667D01*
X251139044Y-84365956D01*
X251215632Y-84550856D01*
X251326821Y-84717262D01*
X251381231Y-84771672D01*
X251368138Y-84780421D01*
X251226621Y-84921938D01*
X251115432Y-85088344D01*
X251038844Y-85273244D01*
X250999800Y-85469533D01*
X250999800Y-85669667D01*
X251038844Y-85865956D01*
X251115432Y-86050856D01*
X251226621Y-86217262D01*
X251368138Y-86358779D01*
X251534544Y-86469968D01*
X251719444Y-86546556D01*
X251915733Y-86585600D01*
X252115867Y-86585600D01*
X252312156Y-86546556D01*
X252497056Y-86469968D01*
X252663462Y-86358779D01*
X252804979Y-86217262D01*
X252888409Y-86092400D01*
X253477128Y-86092400D01*
X253489388Y-86216882D01*
X253525698Y-86336580D01*
X253584663Y-86446894D01*
X253664015Y-86543585D01*
X253760706Y-86622937D01*
X253871020Y-86681902D01*
X253943580Y-86703913D01*
X253811725Y-86835768D01*
X253649210Y-87078989D01*
X253537268Y-87349242D01*
X253480200Y-87636140D01*
X253480200Y-87928660D01*
X253537268Y-88215558D01*
X253649210Y-88485811D01*
X253811725Y-88729032D01*
X254018568Y-88935875D01*
X254192960Y-89052400D01*
X254018568Y-89168925D01*
X253811725Y-89375768D01*
X253649210Y-89618989D01*
X253537268Y-89889242D01*
X253480200Y-90176140D01*
X253480200Y-90468660D01*
X253537268Y-90755558D01*
X253649210Y-91025811D01*
X253811725Y-91269032D01*
X254018568Y-91475875D01*
X254192960Y-91592400D01*
X254018568Y-91708925D01*
X253811725Y-91915768D01*
X253649210Y-92158989D01*
X253537268Y-92429242D01*
X253480200Y-92716140D01*
X253480200Y-93008660D01*
X253537268Y-93295558D01*
X253649210Y-93565811D01*
X253811725Y-93809032D01*
X254018568Y-94015875D01*
X254192960Y-94132400D01*
X254018568Y-94248925D01*
X253811725Y-94455768D01*
X253649210Y-94698989D01*
X253537268Y-94969242D01*
X253480200Y-95256140D01*
X253480200Y-95548660D01*
X253537268Y-95835558D01*
X253649210Y-96105811D01*
X253811725Y-96349032D01*
X254018568Y-96555875D01*
X254192960Y-96672400D01*
X254018568Y-96788925D01*
X253811725Y-96995768D01*
X253649210Y-97238989D01*
X253537268Y-97509242D01*
X253480200Y-97796140D01*
X253480200Y-98088660D01*
X253537268Y-98375558D01*
X253649210Y-98645811D01*
X253811725Y-98889032D01*
X254018568Y-99095875D01*
X254261789Y-99258390D01*
X254532042Y-99370332D01*
X254818940Y-99427400D01*
X255111460Y-99427400D01*
X255398358Y-99370332D01*
X255668611Y-99258390D01*
X255911832Y-99095875D01*
X256118675Y-98889032D01*
X256281190Y-98645811D01*
X256393132Y-98375558D01*
X256450200Y-98088660D01*
X256450200Y-97796140D01*
X256393132Y-97509242D01*
X256281190Y-97238989D01*
X256118675Y-96995768D01*
X255911832Y-96788925D01*
X255737440Y-96672400D01*
X255911832Y-96555875D01*
X256118675Y-96349032D01*
X256281190Y-96105811D01*
X256393132Y-95835558D01*
X256450200Y-95548660D01*
X256450200Y-95256140D01*
X256393132Y-94969242D01*
X256281190Y-94698989D01*
X256118675Y-94455768D01*
X255911832Y-94248925D01*
X255737440Y-94132400D01*
X255911832Y-94015875D01*
X256118675Y-93809032D01*
X256281190Y-93565811D01*
X256393132Y-93295558D01*
X256450200Y-93008660D01*
X256450200Y-92716140D01*
X256393132Y-92429242D01*
X256281190Y-92158989D01*
X256118675Y-91915768D01*
X255911832Y-91708925D01*
X255737440Y-91592400D01*
X255911832Y-91475875D01*
X256118675Y-91269032D01*
X256281190Y-91025811D01*
X256393132Y-90755558D01*
X256450200Y-90468660D01*
X256450200Y-90176140D01*
X256393132Y-89889242D01*
X256281190Y-89618989D01*
X256118675Y-89375768D01*
X255911832Y-89168925D01*
X255737440Y-89052400D01*
X255911832Y-88935875D01*
X256118675Y-88729032D01*
X256281190Y-88485811D01*
X256393132Y-88215558D01*
X256450200Y-87928660D01*
X256450200Y-87636140D01*
X256393132Y-87349242D01*
X256281190Y-87078989D01*
X256118675Y-86835768D01*
X255986820Y-86703913D01*
X256059380Y-86681902D01*
X256169694Y-86622937D01*
X256266385Y-86543585D01*
X256345737Y-86446894D01*
X256404702Y-86336580D01*
X256441012Y-86216882D01*
X256453272Y-86092400D01*
X256450200Y-85528150D01*
X256291450Y-85369400D01*
X255092200Y-85369400D01*
X255092200Y-85389400D01*
X254838200Y-85389400D01*
X254838200Y-85369400D01*
X253638950Y-85369400D01*
X253480200Y-85528150D01*
X253477128Y-86092400D01*
X252888409Y-86092400D01*
X252916168Y-86050856D01*
X252992756Y-85865956D01*
X253031800Y-85669667D01*
X253031800Y-85469533D01*
X252992756Y-85273244D01*
X252916168Y-85088344D01*
X252804979Y-84921938D01*
X252750569Y-84867528D01*
X252763662Y-84858779D01*
X252905179Y-84717262D01*
X253016368Y-84550856D01*
X253082002Y-84392400D01*
X253477128Y-84392400D01*
X253480200Y-84956650D01*
X253638950Y-85115400D01*
X254838200Y-85115400D01*
X254838200Y-83916150D01*
X255092200Y-83916150D01*
X255092200Y-85115400D01*
X256291450Y-85115400D01*
X256450200Y-84956650D01*
X256453272Y-84392400D01*
X256441012Y-84267918D01*
X256404702Y-84148220D01*
X256345737Y-84037906D01*
X256266385Y-83941215D01*
X256169694Y-83861863D01*
X256059380Y-83802898D01*
X255939682Y-83766588D01*
X255815200Y-83754328D01*
X255250950Y-83757400D01*
X255092200Y-83916150D01*
X254838200Y-83916150D01*
X254679450Y-83757400D01*
X254115200Y-83754328D01*
X253990718Y-83766588D01*
X253871020Y-83802898D01*
X253760706Y-83861863D01*
X253664015Y-83941215D01*
X253584663Y-84037906D01*
X253525698Y-84148220D01*
X253489388Y-84267918D01*
X253477128Y-84392400D01*
X253082002Y-84392400D01*
X253092956Y-84365956D01*
X253132000Y-84169667D01*
X253132000Y-83969533D01*
X253092956Y-83773244D01*
X253064978Y-83705700D01*
X256654300Y-83705700D01*
X256654301Y-124868330D01*
X256592629Y-124558284D01*
X256289820Y-123827237D01*
X255850208Y-123169311D01*
X255290689Y-122609792D01*
X254632763Y-122170180D01*
X253901716Y-121867371D01*
X253125640Y-121713000D01*
X252334360Y-121713000D01*
X251558284Y-121867371D01*
X250827237Y-122170180D01*
X250169311Y-122609792D01*
X249609792Y-123169311D01*
X249170180Y-123827237D01*
X248867371Y-124558284D01*
X248713000Y-125334360D01*
X248713000Y-126125640D01*
X248867371Y-126901716D01*
X249170180Y-127632763D01*
X249609792Y-128290689D01*
X250169311Y-128850208D01*
X250827237Y-129289820D01*
X251558284Y-129592629D01*
X251868325Y-129654300D01*
X239344200Y-129654300D01*
X239344200Y-128203600D01*
X239651371Y-128203600D01*
X239962420Y-128141729D01*
X240255421Y-128020363D01*
X240519115Y-127844169D01*
X240743369Y-127619915D01*
X240919563Y-127356221D01*
X241040929Y-127063220D01*
X241102800Y-126752171D01*
X241102800Y-126435029D01*
X242882800Y-126435029D01*
X242882800Y-126752171D01*
X242944671Y-127063220D01*
X243066037Y-127356221D01*
X243242231Y-127619915D01*
X243466485Y-127844169D01*
X243730179Y-128020363D01*
X244023180Y-128141729D01*
X244334229Y-128203600D01*
X244651371Y-128203600D01*
X244962420Y-128141729D01*
X245255421Y-128020363D01*
X245519115Y-127844169D01*
X245743369Y-127619915D01*
X245919563Y-127356221D01*
X246040929Y-127063220D01*
X246102800Y-126752171D01*
X246102800Y-126435029D01*
X246040929Y-126123980D01*
X245919563Y-125830979D01*
X245743369Y-125567285D01*
X245519115Y-125343031D01*
X245255421Y-125166837D01*
X244962420Y-125045471D01*
X244651371Y-124983600D01*
X244334229Y-124983600D01*
X244023180Y-125045471D01*
X243730179Y-125166837D01*
X243466485Y-125343031D01*
X243242231Y-125567285D01*
X243066037Y-125830979D01*
X242944671Y-126123980D01*
X242882800Y-126435029D01*
X241102800Y-126435029D01*
X241040929Y-126123980D01*
X240919563Y-125830979D01*
X240743369Y-125567285D01*
X240519115Y-125343031D01*
X240255421Y-125166837D01*
X239962420Y-125045471D01*
X239651371Y-124983600D01*
X239344200Y-124983600D01*
X239344200Y-122631200D01*
X239341760Y-122606424D01*
X239334533Y-122582599D01*
X239322797Y-122560643D01*
X239307003Y-122541397D01*
X228986115Y-112220509D01*
X229089432Y-112151475D01*
X229296275Y-111944632D01*
X229458790Y-111701411D01*
X229467155Y-111681216D01*
X251449000Y-111681216D01*
X251449000Y-111983584D01*
X251507989Y-112280143D01*
X251623701Y-112559495D01*
X251791688Y-112810905D01*
X252005495Y-113024712D01*
X252256905Y-113192699D01*
X252536257Y-113308411D01*
X252832816Y-113367400D01*
X253135184Y-113367400D01*
X253431743Y-113308411D01*
X253711095Y-113192699D01*
X253962505Y-113024712D01*
X254176312Y-112810905D01*
X254344299Y-112559495D01*
X254460011Y-112280143D01*
X254519000Y-111983584D01*
X254519000Y-111681216D01*
X254460011Y-111384657D01*
X254344299Y-111105305D01*
X254176312Y-110853895D01*
X253962505Y-110640088D01*
X253711095Y-110472101D01*
X253431743Y-110356389D01*
X253135184Y-110297400D01*
X252832816Y-110297400D01*
X252536257Y-110356389D01*
X252256905Y-110472101D01*
X252005495Y-110640088D01*
X251791688Y-110853895D01*
X251623701Y-111105305D01*
X251507989Y-111384657D01*
X251449000Y-111681216D01*
X229467155Y-111681216D01*
X229570732Y-111431158D01*
X229627800Y-111144260D01*
X229627800Y-110851740D01*
X229570732Y-110564842D01*
X229458790Y-110294589D01*
X229296275Y-110051368D01*
X229164420Y-109919513D01*
X229236980Y-109897502D01*
X229347294Y-109838537D01*
X229443985Y-109759185D01*
X229523337Y-109662494D01*
X229582302Y-109552180D01*
X229618612Y-109432482D01*
X229630872Y-109308000D01*
X229627800Y-108743750D01*
X229469050Y-108585000D01*
X228269800Y-108585000D01*
X228269800Y-108605000D01*
X228015800Y-108605000D01*
X228015800Y-108585000D01*
X226816550Y-108585000D01*
X226657800Y-108743750D01*
X226654728Y-109308000D01*
X226666988Y-109432482D01*
X226703298Y-109552180D01*
X226762263Y-109662494D01*
X226841615Y-109759185D01*
X226938306Y-109838537D01*
X227048620Y-109897502D01*
X227121180Y-109919513D01*
X226989325Y-110051368D01*
X226920291Y-110154685D01*
X226085400Y-109319794D01*
X226085400Y-107608000D01*
X226654728Y-107608000D01*
X226657800Y-108172250D01*
X226816550Y-108331000D01*
X228015800Y-108331000D01*
X228015800Y-107131750D01*
X228269800Y-107131750D01*
X228269800Y-108331000D01*
X229469050Y-108331000D01*
X229627800Y-108172250D01*
X229630872Y-107608000D01*
X229618612Y-107483518D01*
X229582302Y-107363820D01*
X229523337Y-107253506D01*
X229443985Y-107156815D01*
X229347294Y-107077463D01*
X229236980Y-107018498D01*
X229117282Y-106982188D01*
X228992800Y-106969928D01*
X228428550Y-106973000D01*
X228269800Y-107131750D01*
X228015800Y-107131750D01*
X227857050Y-106973000D01*
X227292800Y-106969928D01*
X227168318Y-106982188D01*
X227048620Y-107018498D01*
X226938306Y-107077463D01*
X226841615Y-107156815D01*
X226762263Y-107253506D01*
X226703298Y-107363820D01*
X226666988Y-107483518D01*
X226654728Y-107608000D01*
X226085400Y-107608000D01*
X226085400Y-106019600D01*
X226082960Y-105994824D01*
X226075733Y-105970999D01*
X226063997Y-105949043D01*
X226050340Y-105932400D01*
X251445928Y-105932400D01*
X251445928Y-107732400D01*
X251458188Y-107856882D01*
X251494498Y-107976580D01*
X251553463Y-108086894D01*
X251632815Y-108183585D01*
X251729506Y-108262937D01*
X251839820Y-108321902D01*
X251959518Y-108358212D01*
X252084000Y-108370472D01*
X253884000Y-108370472D01*
X254008482Y-108358212D01*
X254128180Y-108321902D01*
X254238494Y-108262937D01*
X254335185Y-108183585D01*
X254414537Y-108086894D01*
X254473502Y-107976580D01*
X254509812Y-107856882D01*
X254522072Y-107732400D01*
X254522072Y-105932400D01*
X254509812Y-105807918D01*
X254473502Y-105688220D01*
X254414537Y-105577906D01*
X254335185Y-105481215D01*
X254238494Y-105401863D01*
X254128180Y-105342898D01*
X254008482Y-105306588D01*
X253884000Y-105294328D01*
X252084000Y-105294328D01*
X251959518Y-105306588D01*
X251839820Y-105342898D01*
X251729506Y-105401863D01*
X251632815Y-105481215D01*
X251553463Y-105577906D01*
X251494498Y-105688220D01*
X251458188Y-105807918D01*
X251445928Y-105932400D01*
X226050340Y-105932400D01*
X226048203Y-105929797D01*
X219840339Y-99721933D01*
X244297200Y-99721933D01*
X244297200Y-99922067D01*
X244336244Y-100118356D01*
X244412832Y-100303256D01*
X244524021Y-100469662D01*
X244665538Y-100611179D01*
X244831944Y-100722368D01*
X245016844Y-100798956D01*
X245213133Y-100838000D01*
X245413267Y-100838000D01*
X245609556Y-100798956D01*
X245794456Y-100722368D01*
X245960862Y-100611179D01*
X246102379Y-100469662D01*
X246213568Y-100303256D01*
X246290156Y-100118356D01*
X246329200Y-99922067D01*
X246329200Y-99721933D01*
X246290156Y-99525644D01*
X246213568Y-99340744D01*
X246102379Y-99174338D01*
X245960862Y-99032821D01*
X245794456Y-98921632D01*
X245609556Y-98845044D01*
X245413267Y-98806000D01*
X245213133Y-98806000D01*
X245016844Y-98845044D01*
X244831944Y-98921632D01*
X244665538Y-99032821D01*
X244524021Y-99174338D01*
X244412832Y-99340744D01*
X244336244Y-99525644D01*
X244297200Y-99721933D01*
X219840339Y-99721933D01*
X218280339Y-98161933D01*
X221930400Y-98161933D01*
X221930400Y-98362067D01*
X221969444Y-98558356D01*
X222046032Y-98743256D01*
X222157221Y-98909662D01*
X222298738Y-99051179D01*
X222465144Y-99162368D01*
X222650044Y-99238956D01*
X222846333Y-99278000D01*
X223046467Y-99278000D01*
X223242756Y-99238956D01*
X223427656Y-99162368D01*
X223594062Y-99051179D01*
X223735579Y-98909662D01*
X223846768Y-98743256D01*
X223923356Y-98558356D01*
X223962400Y-98362067D01*
X223962400Y-98161933D01*
X223923356Y-97965644D01*
X223846768Y-97780744D01*
X223845692Y-97779133D01*
X231534000Y-97779133D01*
X231534000Y-97979267D01*
X231573044Y-98175556D01*
X231649632Y-98360456D01*
X231760821Y-98526862D01*
X231902338Y-98668379D01*
X232068744Y-98779568D01*
X232253644Y-98856156D01*
X232449933Y-98895200D01*
X232650067Y-98895200D01*
X232846356Y-98856156D01*
X233031256Y-98779568D01*
X233197662Y-98668379D01*
X233339179Y-98526862D01*
X233450368Y-98360456D01*
X233526956Y-98175556D01*
X233566000Y-97979267D01*
X233566000Y-97779133D01*
X233526956Y-97582844D01*
X233450368Y-97397944D01*
X233339179Y-97231538D01*
X233197662Y-97090021D01*
X233031256Y-96978832D01*
X232846356Y-96902244D01*
X232650067Y-96863200D01*
X232449933Y-96863200D01*
X232253644Y-96902244D01*
X232068744Y-96978832D01*
X231902338Y-97090021D01*
X231760821Y-97231538D01*
X231649632Y-97397944D01*
X231573044Y-97582844D01*
X231534000Y-97779133D01*
X223845692Y-97779133D01*
X223735579Y-97614338D01*
X223594062Y-97472821D01*
X223427656Y-97361632D01*
X223242756Y-97285044D01*
X223046467Y-97246000D01*
X222846333Y-97246000D01*
X222650044Y-97285044D01*
X222465144Y-97361632D01*
X222298738Y-97472821D01*
X222157221Y-97614338D01*
X222046032Y-97780744D01*
X221969444Y-97965644D01*
X221930400Y-98161933D01*
X218280339Y-98161933D01*
X216548603Y-96430197D01*
X216529357Y-96414403D01*
X216507401Y-96402667D01*
X216483576Y-96395440D01*
X216458800Y-96393000D01*
X203847700Y-96393000D01*
X203847700Y-95788333D01*
X226444400Y-95788333D01*
X226444400Y-95988467D01*
X226483444Y-96184756D01*
X226560032Y-96369656D01*
X226671221Y-96536062D01*
X226812738Y-96677579D01*
X226979144Y-96788768D01*
X227164044Y-96865356D01*
X227360333Y-96904400D01*
X227560467Y-96904400D01*
X227756756Y-96865356D01*
X227941656Y-96788768D01*
X228108062Y-96677579D01*
X228249579Y-96536062D01*
X228360768Y-96369656D01*
X228437356Y-96184756D01*
X228476400Y-95988467D01*
X228476400Y-95788333D01*
X228437356Y-95592044D01*
X228360768Y-95407144D01*
X228249579Y-95240738D01*
X228108062Y-95099221D01*
X227941656Y-94988032D01*
X227756756Y-94911444D01*
X227560467Y-94872400D01*
X227360333Y-94872400D01*
X227164044Y-94911444D01*
X226979144Y-94988032D01*
X226812738Y-95099221D01*
X226671221Y-95240738D01*
X226560032Y-95407144D01*
X226483444Y-95592044D01*
X226444400Y-95788333D01*
X203847700Y-95788333D01*
X203847700Y-94469533D01*
X233863200Y-94469533D01*
X233863200Y-94669667D01*
X233902244Y-94865956D01*
X233978832Y-95050856D01*
X234090021Y-95217262D01*
X234231538Y-95358779D01*
X234253383Y-95373376D01*
X234204821Y-95421938D01*
X234093632Y-95588344D01*
X234017044Y-95773244D01*
X233978000Y-95969533D01*
X233978000Y-96169667D01*
X234017044Y-96365956D01*
X234093632Y-96550856D01*
X234204821Y-96717262D01*
X234346338Y-96858779D01*
X234512744Y-96969968D01*
X234697644Y-97046556D01*
X234893933Y-97085600D01*
X235094067Y-97085600D01*
X235290356Y-97046556D01*
X235475256Y-96969968D01*
X235641662Y-96858779D01*
X235783179Y-96717262D01*
X235894368Y-96550856D01*
X235970956Y-96365956D01*
X236010000Y-96169667D01*
X236010000Y-95969533D01*
X235970956Y-95773244D01*
X235894368Y-95588344D01*
X235783179Y-95421938D01*
X235641662Y-95280421D01*
X235619817Y-95265824D01*
X235668379Y-95217262D01*
X235779568Y-95050856D01*
X235856156Y-94865956D01*
X235895200Y-94669667D01*
X235895200Y-94469533D01*
X235856156Y-94273244D01*
X235779568Y-94088344D01*
X235668379Y-93921938D01*
X235526862Y-93780421D01*
X235360456Y-93669232D01*
X235175556Y-93592644D01*
X234979267Y-93553600D01*
X234779133Y-93553600D01*
X234582844Y-93592644D01*
X234397944Y-93669232D01*
X234231538Y-93780421D01*
X234090021Y-93921938D01*
X233978832Y-94088344D01*
X233902244Y-94273244D01*
X233863200Y-94469533D01*
X203847700Y-94469533D01*
X203847700Y-91466933D01*
X233578400Y-91466933D01*
X233578400Y-91667067D01*
X233617444Y-91863356D01*
X233694032Y-92048256D01*
X233805221Y-92214662D01*
X233946738Y-92356179D01*
X234113144Y-92467368D01*
X234298044Y-92543956D01*
X234494333Y-92583000D01*
X234694467Y-92583000D01*
X234890756Y-92543956D01*
X235075656Y-92467368D01*
X235242062Y-92356179D01*
X235383579Y-92214662D01*
X235494768Y-92048256D01*
X235571356Y-91863356D01*
X235610400Y-91667067D01*
X235610400Y-91466933D01*
X235571356Y-91270644D01*
X235494847Y-91085933D01*
X244119400Y-91085933D01*
X244119400Y-91286067D01*
X244158444Y-91482356D01*
X244235032Y-91667256D01*
X244346221Y-91833662D01*
X244487738Y-91975179D01*
X244654144Y-92086368D01*
X244839044Y-92162956D01*
X245035333Y-92202000D01*
X245235467Y-92202000D01*
X245431756Y-92162956D01*
X245616656Y-92086368D01*
X245783062Y-91975179D01*
X245924579Y-91833662D01*
X246035768Y-91667256D01*
X246112356Y-91482356D01*
X246114906Y-91469533D01*
X246961610Y-91469533D01*
X246961610Y-91669667D01*
X247000654Y-91865956D01*
X247077242Y-92050856D01*
X247188431Y-92217262D01*
X247329948Y-92358779D01*
X247496354Y-92469968D01*
X247681254Y-92546556D01*
X247877543Y-92585600D01*
X248077677Y-92585600D01*
X248273966Y-92546556D01*
X248458866Y-92469968D01*
X248625272Y-92358779D01*
X248766789Y-92217262D01*
X248877978Y-92050856D01*
X248954566Y-91865956D01*
X248993610Y-91669667D01*
X248993610Y-91469533D01*
X251127200Y-91469533D01*
X251127200Y-91669667D01*
X251166244Y-91865956D01*
X251242832Y-92050856D01*
X251354021Y-92217262D01*
X251495538Y-92358779D01*
X251661944Y-92469968D01*
X251846844Y-92546556D01*
X252043133Y-92585600D01*
X252243267Y-92585600D01*
X252439556Y-92546556D01*
X252624456Y-92469968D01*
X252790862Y-92358779D01*
X252932379Y-92217262D01*
X253043568Y-92050856D01*
X253120156Y-91865956D01*
X253159200Y-91669667D01*
X253159200Y-91469533D01*
X253120156Y-91273244D01*
X253043568Y-91088344D01*
X252932379Y-90921938D01*
X252790862Y-90780421D01*
X252624456Y-90669232D01*
X252439556Y-90592644D01*
X252243267Y-90553600D01*
X252043133Y-90553600D01*
X251846844Y-90592644D01*
X251661944Y-90669232D01*
X251495538Y-90780421D01*
X251354021Y-90921938D01*
X251242832Y-91088344D01*
X251166244Y-91273244D01*
X251127200Y-91469533D01*
X248993610Y-91469533D01*
X248954566Y-91273244D01*
X248877978Y-91088344D01*
X248766789Y-90921938D01*
X248625272Y-90780421D01*
X248458866Y-90669232D01*
X248273966Y-90592644D01*
X248077677Y-90553600D01*
X247877543Y-90553600D01*
X247681254Y-90592644D01*
X247496354Y-90669232D01*
X247329948Y-90780421D01*
X247188431Y-90921938D01*
X247077242Y-91088344D01*
X247000654Y-91273244D01*
X246961610Y-91469533D01*
X246114906Y-91469533D01*
X246151400Y-91286067D01*
X246151400Y-91085933D01*
X246112356Y-90889644D01*
X246035768Y-90704744D01*
X245924579Y-90538338D01*
X245783062Y-90396821D01*
X245616656Y-90285632D01*
X245431756Y-90209044D01*
X245235467Y-90170000D01*
X245035333Y-90170000D01*
X244839044Y-90209044D01*
X244654144Y-90285632D01*
X244487738Y-90396821D01*
X244346221Y-90538338D01*
X244235032Y-90704744D01*
X244158444Y-90889644D01*
X244119400Y-91085933D01*
X235494847Y-91085933D01*
X235494768Y-91085744D01*
X235383579Y-90919338D01*
X235242062Y-90777821D01*
X235075656Y-90666632D01*
X234890756Y-90590044D01*
X234694467Y-90551000D01*
X234494333Y-90551000D01*
X234298044Y-90590044D01*
X234113144Y-90666632D01*
X233946738Y-90777821D01*
X233805221Y-90919338D01*
X233694032Y-91085744D01*
X233617444Y-91270644D01*
X233578400Y-91466933D01*
X203847700Y-91466933D01*
X203847700Y-89830733D01*
X219608400Y-89830733D01*
X219608400Y-90030867D01*
X219647444Y-90227156D01*
X219724032Y-90412056D01*
X219835221Y-90578462D01*
X219976738Y-90719979D01*
X220143144Y-90831168D01*
X220328044Y-90907756D01*
X220524333Y-90946800D01*
X220724467Y-90946800D01*
X220920756Y-90907756D01*
X221105656Y-90831168D01*
X221272062Y-90719979D01*
X221413579Y-90578462D01*
X221524768Y-90412056D01*
X221601356Y-90227156D01*
X221640400Y-90030867D01*
X221640400Y-89830733D01*
X221601356Y-89634444D01*
X221592364Y-89612733D01*
X237871000Y-89612733D01*
X237871000Y-89812867D01*
X237910044Y-90009156D01*
X237986632Y-90194056D01*
X238097821Y-90360462D01*
X238239338Y-90501979D01*
X238405744Y-90613168D01*
X238590644Y-90689756D01*
X238786933Y-90728800D01*
X238987067Y-90728800D01*
X239183356Y-90689756D01*
X239368256Y-90613168D01*
X239534662Y-90501979D01*
X239676179Y-90360462D01*
X239787368Y-90194056D01*
X239863956Y-90009156D01*
X239903000Y-89812867D01*
X239903000Y-89612733D01*
X239863956Y-89416444D01*
X239787368Y-89231544D01*
X239676179Y-89065138D01*
X239599941Y-88988900D01*
X239726979Y-88861862D01*
X239838168Y-88695456D01*
X239914756Y-88510556D01*
X239953800Y-88314267D01*
X239953800Y-88114133D01*
X239914756Y-87917844D01*
X239838168Y-87732944D01*
X239726979Y-87566538D01*
X239585462Y-87425021D01*
X239540732Y-87395133D01*
X241384000Y-87395133D01*
X241384000Y-87595267D01*
X241423044Y-87791556D01*
X241499632Y-87976456D01*
X241610821Y-88142862D01*
X241752338Y-88284379D01*
X241918744Y-88395568D01*
X242103644Y-88472156D01*
X242299933Y-88511200D01*
X242500067Y-88511200D01*
X242696356Y-88472156D01*
X242702688Y-88469533D01*
X250901000Y-88469533D01*
X250901000Y-88669667D01*
X250940044Y-88865956D01*
X251016632Y-89050856D01*
X251127821Y-89217262D01*
X251269338Y-89358779D01*
X251435744Y-89469968D01*
X251620644Y-89546556D01*
X251816933Y-89585600D01*
X252017067Y-89585600D01*
X252213356Y-89546556D01*
X252398256Y-89469968D01*
X252564662Y-89358779D01*
X252706179Y-89217262D01*
X252817368Y-89050856D01*
X252893956Y-88865956D01*
X252933000Y-88669667D01*
X252933000Y-88469533D01*
X252893956Y-88273244D01*
X252817368Y-88088344D01*
X252706179Y-87921938D01*
X252564662Y-87780421D01*
X252398256Y-87669232D01*
X252213356Y-87592644D01*
X252017067Y-87553600D01*
X251816933Y-87553600D01*
X251620644Y-87592644D01*
X251435744Y-87669232D01*
X251269338Y-87780421D01*
X251127821Y-87921938D01*
X251016632Y-88088344D01*
X250940044Y-88273244D01*
X250901000Y-88469533D01*
X242702688Y-88469533D01*
X242881256Y-88395568D01*
X243047662Y-88284379D01*
X243189179Y-88142862D01*
X243300368Y-87976456D01*
X243376956Y-87791556D01*
X243416000Y-87595267D01*
X243416000Y-87395133D01*
X243376956Y-87198844D01*
X243300368Y-87013944D01*
X243189179Y-86847538D01*
X243047662Y-86706021D01*
X242881256Y-86594832D01*
X242696356Y-86518244D01*
X242500067Y-86479200D01*
X242299933Y-86479200D01*
X242103644Y-86518244D01*
X241918744Y-86594832D01*
X241752338Y-86706021D01*
X241610821Y-86847538D01*
X241499632Y-87013944D01*
X241423044Y-87198844D01*
X241384000Y-87395133D01*
X239540732Y-87395133D01*
X239537411Y-87392914D01*
X239560062Y-87377779D01*
X239701579Y-87236262D01*
X239812768Y-87069856D01*
X239889356Y-86884956D01*
X239928400Y-86688667D01*
X239928400Y-86488533D01*
X239889356Y-86292244D01*
X239812768Y-86107344D01*
X239721896Y-85971345D01*
X239777779Y-85915462D01*
X239888968Y-85749056D01*
X239965556Y-85564156D01*
X240004600Y-85367867D01*
X240004600Y-85167733D01*
X239965556Y-84971444D01*
X239888968Y-84786544D01*
X239777779Y-84620138D01*
X239636262Y-84478621D01*
X239469856Y-84367432D01*
X239284956Y-84290844D01*
X239088667Y-84251800D01*
X238888533Y-84251800D01*
X238692244Y-84290844D01*
X238507344Y-84367432D01*
X238340938Y-84478621D01*
X238199421Y-84620138D01*
X238088232Y-84786544D01*
X238011644Y-84971444D01*
X237972600Y-85167733D01*
X237972600Y-85367867D01*
X238011644Y-85564156D01*
X238088232Y-85749056D01*
X238179104Y-85885055D01*
X238123221Y-85940938D01*
X238012032Y-86107344D01*
X237935444Y-86292244D01*
X237896400Y-86488533D01*
X237896400Y-86688667D01*
X237935444Y-86884956D01*
X238012032Y-87069856D01*
X238123221Y-87236262D01*
X238264738Y-87377779D01*
X238312789Y-87409886D01*
X238290138Y-87425021D01*
X238148621Y-87566538D01*
X238037432Y-87732944D01*
X237960844Y-87917844D01*
X237921800Y-88114133D01*
X237921800Y-88314267D01*
X237960844Y-88510556D01*
X238037432Y-88695456D01*
X238148621Y-88861862D01*
X238224859Y-88938100D01*
X238097821Y-89065138D01*
X237986632Y-89231544D01*
X237910044Y-89416444D01*
X237871000Y-89612733D01*
X221592364Y-89612733D01*
X221524768Y-89449544D01*
X221413579Y-89283138D01*
X221272062Y-89141621D01*
X221105656Y-89030432D01*
X220920756Y-88953844D01*
X220724467Y-88914800D01*
X220524333Y-88914800D01*
X220328044Y-88953844D01*
X220143144Y-89030432D01*
X219976738Y-89141621D01*
X219835221Y-89283138D01*
X219724032Y-89449544D01*
X219647444Y-89634444D01*
X219608400Y-89830733D01*
X203847700Y-89830733D01*
X203847700Y-81633675D01*
X203909371Y-81943716D01*
X204212180Y-82674763D01*
X204651792Y-83332689D01*
X204834303Y-83515200D01*
X204827133Y-83515200D01*
X204630844Y-83554244D01*
X204445944Y-83630832D01*
X204279538Y-83742021D01*
X204138021Y-83883538D01*
X204026832Y-84049944D01*
X203950244Y-84234844D01*
X203911200Y-84431133D01*
X203911200Y-84631267D01*
X203950244Y-84827556D01*
X204026832Y-85012456D01*
X204138021Y-85178862D01*
X204201559Y-85242400D01*
X204138021Y-85305938D01*
X204026832Y-85472344D01*
X203950244Y-85657244D01*
X203911200Y-85853533D01*
X203911200Y-86053667D01*
X203950244Y-86249956D01*
X204026832Y-86434856D01*
X204138021Y-86601262D01*
X204279538Y-86742779D01*
X204445944Y-86853968D01*
X204630844Y-86930556D01*
X204827133Y-86969600D01*
X205027267Y-86969600D01*
X205223556Y-86930556D01*
X205408456Y-86853968D01*
X205536800Y-86768211D01*
X205665144Y-86853968D01*
X205850044Y-86930556D01*
X206046333Y-86969600D01*
X206246467Y-86969600D01*
X206442756Y-86930556D01*
X206627656Y-86853968D01*
X206794062Y-86742779D01*
X206935579Y-86601262D01*
X207046768Y-86434856D01*
X207123356Y-86249956D01*
X207162400Y-86053667D01*
X207162400Y-85853533D01*
X207123356Y-85657244D01*
X207046768Y-85472344D01*
X206935579Y-85305938D01*
X206794062Y-85164421D01*
X206627656Y-85053232D01*
X206442756Y-84976644D01*
X206246467Y-84937600D01*
X206046333Y-84937600D01*
X205850044Y-84976644D01*
X205840819Y-84980465D01*
X205904156Y-84827556D01*
X205943200Y-84631267D01*
X205943200Y-84431133D01*
X205928313Y-84356290D01*
X206600284Y-84634629D01*
X207376360Y-84789000D01*
X208167640Y-84789000D01*
X208943716Y-84634629D01*
X209674763Y-84331820D01*
X210134351Y-84024733D01*
X210616800Y-84024733D01*
X210616800Y-84224867D01*
X210655844Y-84421156D01*
X210732432Y-84606056D01*
X210843621Y-84772462D01*
X210985138Y-84913979D01*
X211151544Y-85025168D01*
X211336444Y-85101756D01*
X211532733Y-85140800D01*
X211732867Y-85140800D01*
X211929156Y-85101756D01*
X212114056Y-85025168D01*
X212280462Y-84913979D01*
X212421979Y-84772462D01*
X212533168Y-84606056D01*
X212609756Y-84421156D01*
X212648800Y-84224867D01*
X212648800Y-84024733D01*
X212902800Y-84024733D01*
X212902800Y-84224867D01*
X212941844Y-84421156D01*
X213018432Y-84606056D01*
X213129621Y-84772462D01*
X213271138Y-84913979D01*
X213437544Y-85025168D01*
X213558141Y-85075121D01*
X213488344Y-85104032D01*
X213321938Y-85215221D01*
X213180421Y-85356738D01*
X213069232Y-85523144D01*
X212992644Y-85708044D01*
X212953600Y-85904333D01*
X212953600Y-86104467D01*
X212992644Y-86300756D01*
X213069232Y-86485656D01*
X213180421Y-86652062D01*
X213321938Y-86793579D01*
X213488344Y-86904768D01*
X213673244Y-86981356D01*
X213869533Y-87020400D01*
X214069667Y-87020400D01*
X214265956Y-86981356D01*
X214450856Y-86904768D01*
X214617262Y-86793579D01*
X214758779Y-86652062D01*
X214869968Y-86485656D01*
X214946556Y-86300756D01*
X214985600Y-86104467D01*
X214985600Y-85904333D01*
X214946556Y-85708044D01*
X214869968Y-85523144D01*
X214758779Y-85356738D01*
X214732774Y-85330733D01*
X224398400Y-85330733D01*
X224398400Y-85530867D01*
X224437444Y-85727156D01*
X224514032Y-85912056D01*
X224625221Y-86078462D01*
X224766738Y-86219979D01*
X224933144Y-86331168D01*
X225118044Y-86407756D01*
X225314333Y-86446800D01*
X225514467Y-86446800D01*
X225710756Y-86407756D01*
X225895656Y-86331168D01*
X226062062Y-86219979D01*
X226203579Y-86078462D01*
X226314768Y-85912056D01*
X226391356Y-85727156D01*
X226430400Y-85530867D01*
X226430400Y-85330733D01*
X226391356Y-85134444D01*
X226314768Y-84949544D01*
X226203579Y-84783138D01*
X226062062Y-84641621D01*
X225895656Y-84530432D01*
X225710756Y-84453844D01*
X225514467Y-84414800D01*
X225314333Y-84414800D01*
X225118044Y-84453844D01*
X224933144Y-84530432D01*
X224766738Y-84641621D01*
X224625221Y-84783138D01*
X224514032Y-84949544D01*
X224437444Y-85134444D01*
X224398400Y-85330733D01*
X214732774Y-85330733D01*
X214617262Y-85215221D01*
X214450856Y-85104032D01*
X214330259Y-85054079D01*
X214400056Y-85025168D01*
X214566462Y-84913979D01*
X214707979Y-84772462D01*
X214819168Y-84606056D01*
X214895756Y-84421156D01*
X214934800Y-84224867D01*
X214934800Y-84024733D01*
X214895756Y-83828444D01*
X214819168Y-83643544D01*
X214707979Y-83477138D01*
X214566462Y-83335621D01*
X214400056Y-83224432D01*
X214215156Y-83147844D01*
X214018867Y-83108800D01*
X213818733Y-83108800D01*
X213622444Y-83147844D01*
X213437544Y-83224432D01*
X213271138Y-83335621D01*
X213129621Y-83477138D01*
X213018432Y-83643544D01*
X212941844Y-83828444D01*
X212902800Y-84024733D01*
X212648800Y-84024733D01*
X212609756Y-83828444D01*
X212533168Y-83643544D01*
X212421979Y-83477138D01*
X212280462Y-83335621D01*
X212114056Y-83224432D01*
X211929156Y-83147844D01*
X211732867Y-83108800D01*
X211532733Y-83108800D01*
X211336444Y-83147844D01*
X211151544Y-83224432D01*
X210985138Y-83335621D01*
X210843621Y-83477138D01*
X210732432Y-83643544D01*
X210655844Y-83828444D01*
X210616800Y-84024733D01*
X210134351Y-84024733D01*
X210332689Y-83892208D01*
X210892208Y-83332689D01*
X211331820Y-82674763D01*
X211634629Y-81943716D01*
X211789000Y-81167640D01*
X211789000Y-80376360D01*
X211634629Y-79600284D01*
X211331820Y-78869237D01*
X210892208Y-78211311D01*
X210332689Y-77651792D01*
X209674763Y-77212180D01*
X208943716Y-76909371D01*
X208633675Y-76847700D01*
X222872301Y-76847700D01*
X222872300Y-83026191D01*
G37*
G04 #@! TD.AperFunction*
M02*
