%FSLAX45Y45*%
G04 Gerber Fmt 4.5, Leading zero omitted, Abs format (unit mm)*
G04 Created by KiCad (PCBNEW (5.1.8-0-10_14)) date 2021-08-13 20:50:53*
%MOMM*%
%LPD*%
G01*
G04 APERTURE LIST*
%TA.AperFunction,Profile*%
%ADD10C,0.025400*%
%TD*%
%ADD11C,0.200000*%
%ADD12C,0.300000*%
G04 APERTURE END LIST*
D10*
X22352000Y-8305800D02*
X25730200Y-8305800D01*
X22352000Y-8305800D02*
X22352000Y-7620000D01*
X20650200Y-12344400D02*
X20320000Y-12344400D01*
X21005800Y-12700000D02*
X21005800Y-13030200D01*
X21005800Y-12700000D02*
G75*
G03*
X20650200Y-12344400I-355600J0D01*
G01*
X20320000Y-12344400D02*
X20320000Y-7620000D01*
X21005800Y-13030200D02*
X25730200Y-13030200D01*
X25730200Y-8305800D02*
X25730200Y-13030200D01*
X20320000Y-7620000D02*
X22352000Y-7620000D01*
D11*
X20473670Y-8434070D02*
X20511770Y-8472170D01*
X20511770Y-8434070D02*
X20473670Y-8472170D01*
X20473670Y-8576310D02*
X20511770Y-8614410D01*
X20511770Y-8576310D02*
X20473670Y-8614410D01*
X20534630Y-11045190D02*
X20572730Y-11083290D01*
X20572730Y-11045190D02*
X20534630Y-11083290D01*
X20554950Y-11634470D02*
X20593050Y-11672570D01*
X20593050Y-11634470D02*
X20554950Y-11672570D01*
X20595590Y-8576310D02*
X20633690Y-8614410D01*
X20633690Y-8576310D02*
X20595590Y-8614410D01*
X20717510Y-8982710D02*
X20755610Y-9020810D01*
X20755610Y-8982710D02*
X20717510Y-9020810D01*
X20717510Y-10450830D02*
X20755610Y-10488930D01*
X20755610Y-10450830D02*
X20717510Y-10488930D01*
X20722590Y-10323830D02*
X20760690Y-10361930D01*
X20760690Y-10323830D02*
X20722590Y-10361930D01*
X20849590Y-8977630D02*
X20887690Y-9015730D01*
X20887690Y-8977630D02*
X20849590Y-9015730D01*
X20981670Y-8977630D02*
X21019770Y-9015730D01*
X21019770Y-8977630D02*
X20981670Y-9015730D01*
X20996910Y-10466070D02*
X21035010Y-10504170D01*
X21035010Y-10466070D02*
X20996910Y-10504170D01*
X21001990Y-10323830D02*
X21040090Y-10361930D01*
X21040090Y-10323830D02*
X21001990Y-10361930D01*
X21113750Y-8977630D02*
X21151850Y-9015730D01*
X21151850Y-8977630D02*
X21113750Y-9015730D01*
X21128990Y-10323830D02*
X21167090Y-10361930D01*
X21167090Y-10323830D02*
X21128990Y-10361930D01*
X21128990Y-10466070D02*
X21167090Y-10504170D01*
X21167090Y-10466070D02*
X21128990Y-10504170D01*
X21144230Y-8393430D02*
X21182330Y-8431530D01*
X21182330Y-8393430D02*
X21144230Y-8431530D01*
X21240750Y-8972550D02*
X21278850Y-9010650D01*
X21278850Y-8972550D02*
X21240750Y-9010650D01*
X21254390Y-11226470D02*
X21292490Y-11264570D01*
X21292490Y-11226470D02*
X21254390Y-11264570D01*
X21296630Y-10394950D02*
X21334730Y-10433050D01*
X21334730Y-10394950D02*
X21296630Y-10433050D01*
X21296630Y-10537190D02*
X21334730Y-10575290D01*
X21334730Y-10537190D02*
X21296630Y-10575290D01*
X21296630Y-10689590D02*
X21334730Y-10727690D01*
X21334730Y-10689590D02*
X21296630Y-10727690D01*
X21372830Y-8393430D02*
X21410930Y-8431530D01*
X21410930Y-8393430D02*
X21372830Y-8431530D01*
X21377910Y-8581390D02*
X21416010Y-8619490D01*
X21416010Y-8581390D02*
X21377910Y-8619490D01*
X21382990Y-8972550D02*
X21421090Y-9010650D01*
X21421090Y-8972550D02*
X21382990Y-9010650D01*
X21388070Y-8804910D02*
X21426170Y-8843010D01*
X21426170Y-8804910D02*
X21388070Y-8843010D01*
X21403310Y-9211310D02*
X21441410Y-9249410D01*
X21441410Y-9211310D02*
X21403310Y-9249410D01*
X21779230Y-10984230D02*
X21817330Y-11022330D01*
X21817330Y-10984230D02*
X21779230Y-11022330D01*
X21951950Y-10821670D02*
X21990050Y-10859770D01*
X21990050Y-10821670D02*
X21951950Y-10859770D01*
X21962110Y-10669270D02*
X22000210Y-10707370D01*
X22000210Y-10669270D02*
X21962110Y-10707370D01*
X21967190Y-10486390D02*
X22005290Y-10524490D01*
X22005290Y-10486390D02*
X21967190Y-10524490D01*
X21972270Y-10328910D02*
X22010370Y-10367010D01*
X22010370Y-10328910D02*
X21972270Y-10367010D01*
X22043390Y-8974030D02*
X22081490Y-9012130D01*
X22081490Y-8974030D02*
X22043390Y-9012130D01*
X22119590Y-9211310D02*
X22157690Y-9249410D01*
X22157690Y-9211310D02*
X22119590Y-9249410D01*
X22275590Y-9807150D02*
X22313690Y-9845250D01*
X22313690Y-9807150D02*
X22275590Y-9845250D01*
X22522390Y-8524030D02*
X22560490Y-8562130D01*
X22560490Y-8524030D02*
X22522390Y-8562130D01*
X22726990Y-9569790D02*
X22765090Y-9607890D01*
X22765090Y-9569790D02*
X22726990Y-9607890D01*
X23014110Y-8387910D02*
X23052210Y-8426010D01*
X23052210Y-8387910D02*
X23014110Y-8426010D01*
X23235950Y-9768870D02*
X23274050Y-9806970D01*
X23274050Y-9768870D02*
X23235950Y-9806970D01*
X23440390Y-9137650D02*
X23478490Y-9175750D01*
X23478490Y-9137650D02*
X23440390Y-9175750D01*
X23460270Y-8387910D02*
X23498370Y-8426010D01*
X23498370Y-8387910D02*
X23460270Y-8426010D01*
X23468870Y-9437910D02*
X23506970Y-9476010D01*
X23506970Y-9437910D02*
X23468870Y-9476010D01*
X23480350Y-9587910D02*
X23518450Y-9626010D01*
X23518450Y-9587910D02*
X23480350Y-9626010D01*
X23869650Y-8952230D02*
X23907750Y-8990330D01*
X23907750Y-8952230D02*
X23869650Y-8990330D01*
X23872190Y-8639810D02*
X23910290Y-8677910D01*
X23910290Y-8639810D02*
X23872190Y-8677910D01*
X23874730Y-8802370D02*
X23912830Y-8840470D01*
X23912830Y-8802370D02*
X23874730Y-8840470D01*
X23879810Y-8507730D02*
X23917910Y-8545830D01*
X23917910Y-8507730D02*
X23879810Y-8545830D01*
X24220950Y-8730470D02*
X24259050Y-8768570D01*
X24259050Y-8730470D02*
X24220950Y-8768570D01*
X24494490Y-9099550D02*
X24532590Y-9137650D01*
X24532590Y-9099550D02*
X24494490Y-9137650D01*
X24506250Y-8435670D02*
X24544350Y-8473770D01*
X24544350Y-8435670D02*
X24506250Y-8473770D01*
X24509730Y-10209530D02*
X24547830Y-10247630D01*
X24547830Y-10209530D02*
X24509730Y-10247630D01*
X24512270Y-9963150D02*
X24550370Y-10001250D01*
X24550370Y-9963150D02*
X24512270Y-10001250D01*
X24761190Y-8388350D02*
X24799290Y-8426450D01*
X24799290Y-8388350D02*
X24761190Y-8426450D01*
X24778711Y-9137910D02*
X24816811Y-9176010D01*
X24816811Y-9137910D02*
X24778711Y-9176010D01*
X25172650Y-8837910D02*
X25210750Y-8876010D01*
X25210750Y-8837910D02*
X25172650Y-8876010D01*
X25182530Y-8537910D02*
X25220630Y-8576010D01*
X25220630Y-8537910D02*
X25182530Y-8576010D01*
X25192550Y-8387910D02*
X25230650Y-8426010D01*
X25230650Y-8387910D02*
X25192550Y-8426010D01*
X25195270Y-9137910D02*
X25233370Y-9176010D01*
X25233370Y-9137910D02*
X25195270Y-9176010D01*
X21787480Y-11821160D02*
G75*
G03*
X21787480Y-11821160I-40000J0D01*
G01*
X22037480Y-11821160D02*
G75*
G03*
X22037480Y-11821160I-40000J0D01*
G01*
X21014240Y-11821160D02*
G75*
G03*
X21014240Y-11821160I-40000J0D01*
G01*
X21264240Y-11821160D02*
G75*
G03*
X21264240Y-11821160I-40000J0D01*
G01*
X25496520Y-8474240D02*
X25496520Y-8574240D01*
X25446520Y-8524240D02*
X25546520Y-8524240D01*
X25496520Y-8728240D02*
X25496520Y-8828240D01*
X25446520Y-8778240D02*
X25546520Y-8778240D01*
X25496520Y-8982240D02*
X25496520Y-9082240D01*
X25446520Y-9032240D02*
X25546520Y-9032240D01*
X25496520Y-9236240D02*
X25496520Y-9336240D01*
X25446520Y-9286240D02*
X25546520Y-9286240D01*
X25496520Y-9490240D02*
X25496520Y-9590240D01*
X25446520Y-9540240D02*
X25546520Y-9540240D01*
X25496520Y-9744240D02*
X25496520Y-9844240D01*
X25446520Y-9794240D02*
X25546520Y-9794240D01*
X22814280Y-10795800D02*
X22814280Y-10895800D01*
X22764280Y-10845800D02*
X22864280Y-10845800D01*
X22814280Y-11049800D02*
X22814280Y-11149800D01*
X22764280Y-11099800D02*
X22864280Y-11099800D01*
X22814280Y-11303800D02*
X22814280Y-11403800D01*
X22764280Y-11353800D02*
X22864280Y-11353800D01*
X22814280Y-11557800D02*
X22814280Y-11657800D01*
X22764280Y-11607800D02*
X22864280Y-11607800D01*
X22814280Y-11811800D02*
X22814280Y-11911800D01*
X22764280Y-11861800D02*
X22864280Y-11861800D01*
X22814280Y-12065800D02*
X22814280Y-12165800D01*
X22764280Y-12115800D02*
X22864280Y-12115800D01*
X25340827Y-10725667D02*
X25340827Y-10640813D01*
X25255973Y-10640813D01*
X25255973Y-10725667D01*
X25340827Y-10725667D01*
X25340827Y-11225667D02*
X25340827Y-11140813D01*
X25255973Y-11140813D01*
X25255973Y-11225667D01*
X25340827Y-11225667D01*
X21530827Y-12706867D02*
X21530827Y-12622013D01*
X21445973Y-12622013D01*
X21445973Y-12706867D01*
X21530827Y-12706867D01*
X22030827Y-12706867D02*
X22030827Y-12622013D01*
X21945973Y-12622013D01*
X21945973Y-12706867D01*
X22030827Y-12706867D01*
X23449280Y-12724360D02*
X23514280Y-12659360D01*
X23449280Y-12594360D01*
X23384280Y-12659360D01*
X23449280Y-12724360D01*
X23949280Y-12724360D02*
X24014280Y-12659360D01*
X23949280Y-12594360D01*
X23884280Y-12659360D01*
X23949280Y-12724360D01*
X24449280Y-12724360D02*
X24514280Y-12659360D01*
X24449280Y-12594360D01*
X24384280Y-12659360D01*
X24449280Y-12724360D01*
D12*
X20605158Y-13497184D02*
X20605158Y-13197184D01*
X20676587Y-13197184D01*
X20719444Y-13211470D01*
X20748016Y-13240041D01*
X20762301Y-13268613D01*
X20776587Y-13325756D01*
X20776587Y-13368613D01*
X20762301Y-13425756D01*
X20748016Y-13454327D01*
X20719444Y-13482899D01*
X20676587Y-13497184D01*
X20605158Y-13497184D01*
X20905158Y-13497184D02*
X20905158Y-13297184D01*
X20905158Y-13354327D02*
X20919444Y-13325756D01*
X20933730Y-13311470D01*
X20962301Y-13297184D01*
X20990873Y-13297184D01*
X21090873Y-13497184D02*
X21090873Y-13297184D01*
X21090873Y-13197184D02*
X21076587Y-13211470D01*
X21090873Y-13225756D01*
X21105158Y-13211470D01*
X21090873Y-13197184D01*
X21090873Y-13225756D01*
X21276587Y-13497184D02*
X21248016Y-13482899D01*
X21233730Y-13454327D01*
X21233730Y-13197184D01*
X21433730Y-13497184D02*
X21405158Y-13482899D01*
X21390873Y-13454327D01*
X21390873Y-13197184D01*
X21776587Y-13497184D02*
X21776587Y-13197184D01*
X21876587Y-13411470D01*
X21976587Y-13197184D01*
X21976587Y-13497184D01*
X22248016Y-13497184D02*
X22248016Y-13340041D01*
X22233730Y-13311470D01*
X22205158Y-13297184D01*
X22148016Y-13297184D01*
X22119444Y-13311470D01*
X22248016Y-13482899D02*
X22219444Y-13497184D01*
X22148016Y-13497184D01*
X22119444Y-13482899D01*
X22105158Y-13454327D01*
X22105158Y-13425756D01*
X22119444Y-13397184D01*
X22148016Y-13382899D01*
X22219444Y-13382899D01*
X22248016Y-13368613D01*
X22390873Y-13297184D02*
X22390873Y-13597184D01*
X22390873Y-13311470D02*
X22419444Y-13297184D01*
X22476587Y-13297184D01*
X22505158Y-13311470D01*
X22519444Y-13325756D01*
X22533730Y-13354327D01*
X22533730Y-13440041D01*
X22519444Y-13468613D01*
X22505158Y-13482899D01*
X22476587Y-13497184D01*
X22419444Y-13497184D01*
X22390873Y-13482899D01*
X22662301Y-13468613D02*
X22676587Y-13482899D01*
X22662301Y-13497184D01*
X22648016Y-13482899D01*
X22662301Y-13468613D01*
X22662301Y-13497184D01*
X22662301Y-13311470D02*
X22676587Y-13325756D01*
X22662301Y-13340041D01*
X22648016Y-13325756D01*
X22662301Y-13311470D01*
X22662301Y-13340041D01*
X20280630Y-13972420D02*
X20318730Y-14010520D01*
X20318730Y-13972420D02*
X20280630Y-14010520D01*
X20662301Y-13827184D02*
X20690873Y-13827184D01*
X20719444Y-13841470D01*
X20733730Y-13855756D01*
X20748016Y-13884327D01*
X20762301Y-13941470D01*
X20762301Y-14012899D01*
X20748016Y-14070041D01*
X20733730Y-14098613D01*
X20719444Y-14112899D01*
X20690873Y-14127184D01*
X20662301Y-14127184D01*
X20633730Y-14112899D01*
X20619444Y-14098613D01*
X20605158Y-14070041D01*
X20590873Y-14012899D01*
X20590873Y-13941470D01*
X20605158Y-13884327D01*
X20619444Y-13855756D01*
X20633730Y-13841470D01*
X20662301Y-13827184D01*
X20890873Y-14098613D02*
X20905158Y-14112899D01*
X20890873Y-14127184D01*
X20876587Y-14112899D01*
X20890873Y-14098613D01*
X20890873Y-14127184D01*
X21005158Y-13827184D02*
X21190873Y-13827184D01*
X21090873Y-13941470D01*
X21133730Y-13941470D01*
X21162301Y-13955756D01*
X21176587Y-13970041D01*
X21190873Y-13998613D01*
X21190873Y-14070041D01*
X21176587Y-14098613D01*
X21162301Y-14112899D01*
X21133730Y-14127184D01*
X21048016Y-14127184D01*
X21019444Y-14112899D01*
X21005158Y-14098613D01*
X21362301Y-13955756D02*
X21333730Y-13941470D01*
X21319444Y-13927184D01*
X21305158Y-13898613D01*
X21305158Y-13884327D01*
X21319444Y-13855756D01*
X21333730Y-13841470D01*
X21362301Y-13827184D01*
X21419444Y-13827184D01*
X21448016Y-13841470D01*
X21462301Y-13855756D01*
X21476587Y-13884327D01*
X21476587Y-13898613D01*
X21462301Y-13927184D01*
X21448016Y-13941470D01*
X21419444Y-13955756D01*
X21362301Y-13955756D01*
X21333730Y-13970041D01*
X21319444Y-13984327D01*
X21305158Y-14012899D01*
X21305158Y-14070041D01*
X21319444Y-14098613D01*
X21333730Y-14112899D01*
X21362301Y-14127184D01*
X21419444Y-14127184D01*
X21448016Y-14112899D01*
X21462301Y-14098613D01*
X21476587Y-14070041D01*
X21476587Y-14012899D01*
X21462301Y-13984327D01*
X21448016Y-13970041D01*
X21419444Y-13955756D01*
X21605158Y-14127184D02*
X21605158Y-13927184D01*
X21605158Y-13955756D02*
X21619444Y-13941470D01*
X21648016Y-13927184D01*
X21690873Y-13927184D01*
X21719444Y-13941470D01*
X21733730Y-13970041D01*
X21733730Y-14127184D01*
X21733730Y-13970041D02*
X21748016Y-13941470D01*
X21776587Y-13927184D01*
X21819444Y-13927184D01*
X21848016Y-13941470D01*
X21862301Y-13970041D01*
X21862301Y-14127184D01*
X22005158Y-14127184D02*
X22005158Y-13927184D01*
X22005158Y-13955756D02*
X22019444Y-13941470D01*
X22048016Y-13927184D01*
X22090873Y-13927184D01*
X22119444Y-13941470D01*
X22133730Y-13970041D01*
X22133730Y-14127184D01*
X22133730Y-13970041D02*
X22148016Y-13941470D01*
X22176587Y-13927184D01*
X22219444Y-13927184D01*
X22248016Y-13941470D01*
X22262301Y-13970041D01*
X22262301Y-14127184D01*
X22848016Y-13812899D02*
X22590873Y-14198613D01*
X23233730Y-13827184D02*
X23262301Y-13827184D01*
X23290873Y-13841470D01*
X23305158Y-13855756D01*
X23319444Y-13884327D01*
X23333730Y-13941470D01*
X23333730Y-14012899D01*
X23319444Y-14070041D01*
X23305158Y-14098613D01*
X23290873Y-14112899D01*
X23262301Y-14127184D01*
X23233730Y-14127184D01*
X23205158Y-14112899D01*
X23190873Y-14098613D01*
X23176587Y-14070041D01*
X23162301Y-14012899D01*
X23162301Y-13941470D01*
X23176587Y-13884327D01*
X23190873Y-13855756D01*
X23205158Y-13841470D01*
X23233730Y-13827184D01*
X23462301Y-14098613D02*
X23476587Y-14112899D01*
X23462301Y-14127184D01*
X23448016Y-14112899D01*
X23462301Y-14098613D01*
X23462301Y-14127184D01*
X23662301Y-13827184D02*
X23690873Y-13827184D01*
X23719444Y-13841470D01*
X23733730Y-13855756D01*
X23748016Y-13884327D01*
X23762301Y-13941470D01*
X23762301Y-14012899D01*
X23748016Y-14070041D01*
X23733730Y-14098613D01*
X23719444Y-14112899D01*
X23690873Y-14127184D01*
X23662301Y-14127184D01*
X23633730Y-14112899D01*
X23619444Y-14098613D01*
X23605158Y-14070041D01*
X23590873Y-14012899D01*
X23590873Y-13941470D01*
X23605158Y-13884327D01*
X23619444Y-13855756D01*
X23633730Y-13841470D01*
X23662301Y-13827184D01*
X24048016Y-14127184D02*
X23876587Y-14127184D01*
X23962301Y-14127184D02*
X23962301Y-13827184D01*
X23933730Y-13870041D01*
X23905158Y-13898613D01*
X23876587Y-13912899D01*
X24319444Y-13827184D02*
X24176587Y-13827184D01*
X24162301Y-13970041D01*
X24176587Y-13955756D01*
X24205158Y-13941470D01*
X24276587Y-13941470D01*
X24305158Y-13955756D01*
X24319444Y-13970041D01*
X24333730Y-13998613D01*
X24333730Y-14070041D01*
X24319444Y-14098613D01*
X24305158Y-14112899D01*
X24276587Y-14127184D01*
X24205158Y-14127184D01*
X24176587Y-14112899D01*
X24162301Y-14098613D01*
X24448016Y-13827184D02*
X24448016Y-13884327D01*
X24562301Y-13827184D02*
X24562301Y-13884327D01*
X25005158Y-14241470D02*
X24990873Y-14227184D01*
X24962301Y-14184327D01*
X24948016Y-14155756D01*
X24933730Y-14112899D01*
X24919444Y-14041470D01*
X24919444Y-13984327D01*
X24933730Y-13912899D01*
X24948016Y-13870041D01*
X24962301Y-13841470D01*
X24990873Y-13798613D01*
X25005158Y-13784327D01*
X25262301Y-13827184D02*
X25119444Y-13827184D01*
X25105158Y-13970041D01*
X25119444Y-13955756D01*
X25148016Y-13941470D01*
X25219444Y-13941470D01*
X25248016Y-13955756D01*
X25262301Y-13970041D01*
X25276587Y-13998613D01*
X25276587Y-14070041D01*
X25262301Y-14098613D01*
X25248016Y-14112899D01*
X25219444Y-14127184D01*
X25148016Y-14127184D01*
X25119444Y-14112899D01*
X25105158Y-14098613D01*
X25376587Y-13827184D02*
X25576587Y-13827184D01*
X25448016Y-14127184D01*
X25919444Y-14127184D02*
X25919444Y-13827184D01*
X26048016Y-14127184D02*
X26048016Y-13970041D01*
X26033730Y-13941470D01*
X26005158Y-13927184D01*
X25962301Y-13927184D01*
X25933730Y-13941470D01*
X25919444Y-13955756D01*
X26233730Y-14127184D02*
X26205158Y-14112899D01*
X26190873Y-14098613D01*
X26176587Y-14070041D01*
X26176587Y-13984327D01*
X26190873Y-13955756D01*
X26205158Y-13941470D01*
X26233730Y-13927184D01*
X26276587Y-13927184D01*
X26305158Y-13941470D01*
X26319444Y-13955756D01*
X26333730Y-13984327D01*
X26333730Y-14070041D01*
X26319444Y-14098613D01*
X26305158Y-14112899D01*
X26276587Y-14127184D01*
X26233730Y-14127184D01*
X26505158Y-14127184D02*
X26476587Y-14112899D01*
X26462301Y-14084327D01*
X26462301Y-13827184D01*
X26733730Y-14112899D02*
X26705158Y-14127184D01*
X26648016Y-14127184D01*
X26619444Y-14112899D01*
X26605158Y-14084327D01*
X26605158Y-13970041D01*
X26619444Y-13941470D01*
X26648016Y-13927184D01*
X26705158Y-13927184D01*
X26733730Y-13941470D01*
X26748016Y-13970041D01*
X26748016Y-13998613D01*
X26605158Y-14027184D01*
X26862301Y-14112899D02*
X26890873Y-14127184D01*
X26948016Y-14127184D01*
X26976587Y-14112899D01*
X26990873Y-14084327D01*
X26990873Y-14070041D01*
X26976587Y-14041470D01*
X26948016Y-14027184D01*
X26905158Y-14027184D01*
X26876587Y-14012899D01*
X26862301Y-13984327D01*
X26862301Y-13970041D01*
X26876587Y-13941470D01*
X26905158Y-13927184D01*
X26948016Y-13927184D01*
X26976587Y-13941470D01*
X27090873Y-14241470D02*
X27105158Y-14227184D01*
X27133730Y-14184327D01*
X27148016Y-14155756D01*
X27162301Y-14112899D01*
X27176587Y-14041470D01*
X27176587Y-13984327D01*
X27162301Y-13912899D01*
X27148016Y-13870041D01*
X27133730Y-13841470D01*
X27105158Y-13798613D01*
X27090873Y-13784327D01*
X20318730Y-14387470D02*
G75*
G03*
X20318730Y-14387470I-40000J0D01*
G01*
X20662301Y-14223184D02*
X20690873Y-14223184D01*
X20719444Y-14237470D01*
X20733730Y-14251756D01*
X20748016Y-14280327D01*
X20762301Y-14337470D01*
X20762301Y-14408899D01*
X20748016Y-14466041D01*
X20733730Y-14494613D01*
X20719444Y-14508899D01*
X20690873Y-14523184D01*
X20662301Y-14523184D01*
X20633730Y-14508899D01*
X20619444Y-14494613D01*
X20605158Y-14466041D01*
X20590873Y-14408899D01*
X20590873Y-14337470D01*
X20605158Y-14280327D01*
X20619444Y-14251756D01*
X20633730Y-14237470D01*
X20662301Y-14223184D01*
X20890873Y-14494613D02*
X20905158Y-14508899D01*
X20890873Y-14523184D01*
X20876587Y-14508899D01*
X20890873Y-14494613D01*
X20890873Y-14523184D01*
X21076587Y-14351756D02*
X21048016Y-14337470D01*
X21033730Y-14323184D01*
X21019444Y-14294613D01*
X21019444Y-14280327D01*
X21033730Y-14251756D01*
X21048016Y-14237470D01*
X21076587Y-14223184D01*
X21133730Y-14223184D01*
X21162301Y-14237470D01*
X21176587Y-14251756D01*
X21190873Y-14280327D01*
X21190873Y-14294613D01*
X21176587Y-14323184D01*
X21162301Y-14337470D01*
X21133730Y-14351756D01*
X21076587Y-14351756D01*
X21048016Y-14366041D01*
X21033730Y-14380327D01*
X21019444Y-14408899D01*
X21019444Y-14466041D01*
X21033730Y-14494613D01*
X21048016Y-14508899D01*
X21076587Y-14523184D01*
X21133730Y-14523184D01*
X21162301Y-14508899D01*
X21176587Y-14494613D01*
X21190873Y-14466041D01*
X21190873Y-14408899D01*
X21176587Y-14380327D01*
X21162301Y-14366041D01*
X21133730Y-14351756D01*
X21376587Y-14223184D02*
X21405158Y-14223184D01*
X21433730Y-14237470D01*
X21448016Y-14251756D01*
X21462301Y-14280327D01*
X21476587Y-14337470D01*
X21476587Y-14408899D01*
X21462301Y-14466041D01*
X21448016Y-14494613D01*
X21433730Y-14508899D01*
X21405158Y-14523184D01*
X21376587Y-14523184D01*
X21348016Y-14508899D01*
X21333730Y-14494613D01*
X21319444Y-14466041D01*
X21305158Y-14408899D01*
X21305158Y-14337470D01*
X21319444Y-14280327D01*
X21333730Y-14251756D01*
X21348016Y-14237470D01*
X21376587Y-14223184D01*
X21605158Y-14523184D02*
X21605158Y-14323184D01*
X21605158Y-14351756D02*
X21619444Y-14337470D01*
X21648016Y-14323184D01*
X21690873Y-14323184D01*
X21719444Y-14337470D01*
X21733730Y-14366041D01*
X21733730Y-14523184D01*
X21733730Y-14366041D02*
X21748016Y-14337470D01*
X21776587Y-14323184D01*
X21819444Y-14323184D01*
X21848016Y-14337470D01*
X21862301Y-14366041D01*
X21862301Y-14523184D01*
X22005158Y-14523184D02*
X22005158Y-14323184D01*
X22005158Y-14351756D02*
X22019444Y-14337470D01*
X22048016Y-14323184D01*
X22090873Y-14323184D01*
X22119444Y-14337470D01*
X22133730Y-14366041D01*
X22133730Y-14523184D01*
X22133730Y-14366041D02*
X22148016Y-14337470D01*
X22176587Y-14323184D01*
X22219444Y-14323184D01*
X22248016Y-14337470D01*
X22262301Y-14366041D01*
X22262301Y-14523184D01*
X22848016Y-14208899D02*
X22590873Y-14594613D01*
X23233730Y-14223184D02*
X23262301Y-14223184D01*
X23290873Y-14237470D01*
X23305158Y-14251756D01*
X23319444Y-14280327D01*
X23333730Y-14337470D01*
X23333730Y-14408899D01*
X23319444Y-14466041D01*
X23305158Y-14494613D01*
X23290873Y-14508899D01*
X23262301Y-14523184D01*
X23233730Y-14523184D01*
X23205158Y-14508899D01*
X23190873Y-14494613D01*
X23176587Y-14466041D01*
X23162301Y-14408899D01*
X23162301Y-14337470D01*
X23176587Y-14280327D01*
X23190873Y-14251756D01*
X23205158Y-14237470D01*
X23233730Y-14223184D01*
X23462301Y-14494613D02*
X23476587Y-14508899D01*
X23462301Y-14523184D01*
X23448016Y-14508899D01*
X23462301Y-14494613D01*
X23462301Y-14523184D01*
X23662301Y-14223184D02*
X23690873Y-14223184D01*
X23719444Y-14237470D01*
X23733730Y-14251756D01*
X23748016Y-14280327D01*
X23762301Y-14337470D01*
X23762301Y-14408899D01*
X23748016Y-14466041D01*
X23733730Y-14494613D01*
X23719444Y-14508899D01*
X23690873Y-14523184D01*
X23662301Y-14523184D01*
X23633730Y-14508899D01*
X23619444Y-14494613D01*
X23605158Y-14466041D01*
X23590873Y-14408899D01*
X23590873Y-14337470D01*
X23605158Y-14280327D01*
X23619444Y-14251756D01*
X23633730Y-14237470D01*
X23662301Y-14223184D01*
X23862301Y-14223184D02*
X24048016Y-14223184D01*
X23948016Y-14337470D01*
X23990873Y-14337470D01*
X24019444Y-14351756D01*
X24033730Y-14366041D01*
X24048016Y-14394613D01*
X24048016Y-14466041D01*
X24033730Y-14494613D01*
X24019444Y-14508899D01*
X23990873Y-14523184D01*
X23905158Y-14523184D01*
X23876587Y-14508899D01*
X23862301Y-14494613D01*
X24333730Y-14523184D02*
X24162301Y-14523184D01*
X24248016Y-14523184D02*
X24248016Y-14223184D01*
X24219444Y-14266041D01*
X24190873Y-14294613D01*
X24162301Y-14308899D01*
X24448016Y-14223184D02*
X24448016Y-14280327D01*
X24562301Y-14223184D02*
X24562301Y-14280327D01*
X25005158Y-14637470D02*
X24990873Y-14623184D01*
X24962301Y-14580327D01*
X24948016Y-14551756D01*
X24933730Y-14508899D01*
X24919444Y-14437470D01*
X24919444Y-14380327D01*
X24933730Y-14308899D01*
X24948016Y-14266041D01*
X24962301Y-14237470D01*
X24990873Y-14194613D01*
X25005158Y-14180327D01*
X25248016Y-14323184D02*
X25248016Y-14523184D01*
X25176587Y-14208899D02*
X25105158Y-14423184D01*
X25290873Y-14423184D01*
X25633730Y-14523184D02*
X25633730Y-14223184D01*
X25762301Y-14523184D02*
X25762301Y-14366041D01*
X25748016Y-14337470D01*
X25719444Y-14323184D01*
X25676587Y-14323184D01*
X25648016Y-14337470D01*
X25633730Y-14351756D01*
X25948016Y-14523184D02*
X25919444Y-14508899D01*
X25905158Y-14494613D01*
X25890873Y-14466041D01*
X25890873Y-14380327D01*
X25905158Y-14351756D01*
X25919444Y-14337470D01*
X25948016Y-14323184D01*
X25990873Y-14323184D01*
X26019444Y-14337470D01*
X26033730Y-14351756D01*
X26048016Y-14380327D01*
X26048016Y-14466041D01*
X26033730Y-14494613D01*
X26019444Y-14508899D01*
X25990873Y-14523184D01*
X25948016Y-14523184D01*
X26219444Y-14523184D02*
X26190873Y-14508899D01*
X26176587Y-14480327D01*
X26176587Y-14223184D01*
X26448016Y-14508899D02*
X26419444Y-14523184D01*
X26362301Y-14523184D01*
X26333730Y-14508899D01*
X26319444Y-14480327D01*
X26319444Y-14366041D01*
X26333730Y-14337470D01*
X26362301Y-14323184D01*
X26419444Y-14323184D01*
X26448016Y-14337470D01*
X26462301Y-14366041D01*
X26462301Y-14394613D01*
X26319444Y-14423184D01*
X26576587Y-14508899D02*
X26605158Y-14523184D01*
X26662301Y-14523184D01*
X26690873Y-14508899D01*
X26705158Y-14480327D01*
X26705158Y-14466041D01*
X26690873Y-14437470D01*
X26662301Y-14423184D01*
X26619444Y-14423184D01*
X26590873Y-14408899D01*
X26576587Y-14380327D01*
X26576587Y-14366041D01*
X26590873Y-14337470D01*
X26619444Y-14323184D01*
X26662301Y-14323184D01*
X26690873Y-14337470D01*
X26805158Y-14637470D02*
X26819444Y-14623184D01*
X26848016Y-14580327D01*
X26862301Y-14551756D01*
X26876587Y-14508899D01*
X26890873Y-14437470D01*
X26890873Y-14380327D01*
X26876587Y-14308899D01*
X26862301Y-14266041D01*
X26848016Y-14237470D01*
X26819444Y-14194613D01*
X26805158Y-14180327D01*
X20268730Y-14733470D02*
X20268730Y-14833470D01*
X20218730Y-14783470D02*
X20318730Y-14783470D01*
X20762301Y-14919184D02*
X20590873Y-14919184D01*
X20676587Y-14919184D02*
X20676587Y-14619184D01*
X20648016Y-14662041D01*
X20619444Y-14690613D01*
X20590873Y-14704899D01*
X20890873Y-14890613D02*
X20905158Y-14904899D01*
X20890873Y-14919184D01*
X20876587Y-14904899D01*
X20890873Y-14890613D01*
X20890873Y-14919184D01*
X21090873Y-14619184D02*
X21119444Y-14619184D01*
X21148016Y-14633470D01*
X21162301Y-14647756D01*
X21176587Y-14676327D01*
X21190873Y-14733470D01*
X21190873Y-14804899D01*
X21176587Y-14862041D01*
X21162301Y-14890613D01*
X21148016Y-14904899D01*
X21119444Y-14919184D01*
X21090873Y-14919184D01*
X21062301Y-14904899D01*
X21048016Y-14890613D01*
X21033730Y-14862041D01*
X21019444Y-14804899D01*
X21019444Y-14733470D01*
X21033730Y-14676327D01*
X21048016Y-14647756D01*
X21062301Y-14633470D01*
X21090873Y-14619184D01*
X21376587Y-14619184D02*
X21405158Y-14619184D01*
X21433730Y-14633470D01*
X21448016Y-14647756D01*
X21462301Y-14676327D01*
X21476587Y-14733470D01*
X21476587Y-14804899D01*
X21462301Y-14862041D01*
X21448016Y-14890613D01*
X21433730Y-14904899D01*
X21405158Y-14919184D01*
X21376587Y-14919184D01*
X21348016Y-14904899D01*
X21333730Y-14890613D01*
X21319444Y-14862041D01*
X21305158Y-14804899D01*
X21305158Y-14733470D01*
X21319444Y-14676327D01*
X21333730Y-14647756D01*
X21348016Y-14633470D01*
X21376587Y-14619184D01*
X21605158Y-14919184D02*
X21605158Y-14719184D01*
X21605158Y-14747756D02*
X21619444Y-14733470D01*
X21648016Y-14719184D01*
X21690873Y-14719184D01*
X21719444Y-14733470D01*
X21733730Y-14762041D01*
X21733730Y-14919184D01*
X21733730Y-14762041D02*
X21748016Y-14733470D01*
X21776587Y-14719184D01*
X21819444Y-14719184D01*
X21848016Y-14733470D01*
X21862301Y-14762041D01*
X21862301Y-14919184D01*
X22005158Y-14919184D02*
X22005158Y-14719184D01*
X22005158Y-14747756D02*
X22019444Y-14733470D01*
X22048016Y-14719184D01*
X22090873Y-14719184D01*
X22119444Y-14733470D01*
X22133730Y-14762041D01*
X22133730Y-14919184D01*
X22133730Y-14762041D02*
X22148016Y-14733470D01*
X22176587Y-14719184D01*
X22219444Y-14719184D01*
X22248016Y-14733470D01*
X22262301Y-14762041D01*
X22262301Y-14919184D01*
X22848016Y-14604899D02*
X22590873Y-14990613D01*
X23233730Y-14619184D02*
X23262301Y-14619184D01*
X23290873Y-14633470D01*
X23305158Y-14647756D01*
X23319444Y-14676327D01*
X23333730Y-14733470D01*
X23333730Y-14804899D01*
X23319444Y-14862041D01*
X23305158Y-14890613D01*
X23290873Y-14904899D01*
X23262301Y-14919184D01*
X23233730Y-14919184D01*
X23205158Y-14904899D01*
X23190873Y-14890613D01*
X23176587Y-14862041D01*
X23162301Y-14804899D01*
X23162301Y-14733470D01*
X23176587Y-14676327D01*
X23190873Y-14647756D01*
X23205158Y-14633470D01*
X23233730Y-14619184D01*
X23462301Y-14890613D02*
X23476587Y-14904899D01*
X23462301Y-14919184D01*
X23448016Y-14904899D01*
X23462301Y-14890613D01*
X23462301Y-14919184D01*
X23662301Y-14619184D02*
X23690873Y-14619184D01*
X23719444Y-14633470D01*
X23733730Y-14647756D01*
X23748016Y-14676327D01*
X23762301Y-14733470D01*
X23762301Y-14804899D01*
X23748016Y-14862041D01*
X23733730Y-14890613D01*
X23719444Y-14904899D01*
X23690873Y-14919184D01*
X23662301Y-14919184D01*
X23633730Y-14904899D01*
X23619444Y-14890613D01*
X23605158Y-14862041D01*
X23590873Y-14804899D01*
X23590873Y-14733470D01*
X23605158Y-14676327D01*
X23619444Y-14647756D01*
X23633730Y-14633470D01*
X23662301Y-14619184D01*
X23862301Y-14619184D02*
X24048016Y-14619184D01*
X23948016Y-14733470D01*
X23990873Y-14733470D01*
X24019444Y-14747756D01*
X24033730Y-14762041D01*
X24048016Y-14790613D01*
X24048016Y-14862041D01*
X24033730Y-14890613D01*
X24019444Y-14904899D01*
X23990873Y-14919184D01*
X23905158Y-14919184D01*
X23876587Y-14904899D01*
X23862301Y-14890613D01*
X24190873Y-14919184D02*
X24248016Y-14919184D01*
X24276587Y-14904899D01*
X24290873Y-14890613D01*
X24319444Y-14847756D01*
X24333730Y-14790613D01*
X24333730Y-14676327D01*
X24319444Y-14647756D01*
X24305158Y-14633470D01*
X24276587Y-14619184D01*
X24219444Y-14619184D01*
X24190873Y-14633470D01*
X24176587Y-14647756D01*
X24162301Y-14676327D01*
X24162301Y-14747756D01*
X24176587Y-14776327D01*
X24190873Y-14790613D01*
X24219444Y-14804899D01*
X24276587Y-14804899D01*
X24305158Y-14790613D01*
X24319444Y-14776327D01*
X24333730Y-14747756D01*
X24448016Y-14619184D02*
X24448016Y-14676327D01*
X24562301Y-14619184D02*
X24562301Y-14676327D01*
X25005158Y-15033470D02*
X24990873Y-15019184D01*
X24962301Y-14976327D01*
X24948016Y-14947756D01*
X24933730Y-14904899D01*
X24919444Y-14833470D01*
X24919444Y-14776327D01*
X24933730Y-14704899D01*
X24948016Y-14662041D01*
X24962301Y-14633470D01*
X24990873Y-14590613D01*
X25005158Y-14576327D01*
X25276587Y-14919184D02*
X25105158Y-14919184D01*
X25190873Y-14919184D02*
X25190873Y-14619184D01*
X25162301Y-14662041D01*
X25133730Y-14690613D01*
X25105158Y-14704899D01*
X25390873Y-14647756D02*
X25405158Y-14633470D01*
X25433730Y-14619184D01*
X25505158Y-14619184D01*
X25533730Y-14633470D01*
X25548016Y-14647756D01*
X25562301Y-14676327D01*
X25562301Y-14704899D01*
X25548016Y-14747756D01*
X25376587Y-14919184D01*
X25562301Y-14919184D01*
X25919444Y-14919184D02*
X25919444Y-14619184D01*
X26048016Y-14919184D02*
X26048016Y-14762041D01*
X26033730Y-14733470D01*
X26005158Y-14719184D01*
X25962301Y-14719184D01*
X25933730Y-14733470D01*
X25919444Y-14747756D01*
X26233730Y-14919184D02*
X26205158Y-14904899D01*
X26190873Y-14890613D01*
X26176587Y-14862041D01*
X26176587Y-14776327D01*
X26190873Y-14747756D01*
X26205158Y-14733470D01*
X26233730Y-14719184D01*
X26276587Y-14719184D01*
X26305158Y-14733470D01*
X26319444Y-14747756D01*
X26333730Y-14776327D01*
X26333730Y-14862041D01*
X26319444Y-14890613D01*
X26305158Y-14904899D01*
X26276587Y-14919184D01*
X26233730Y-14919184D01*
X26505158Y-14919184D02*
X26476587Y-14904899D01*
X26462301Y-14876327D01*
X26462301Y-14619184D01*
X26733730Y-14904899D02*
X26705158Y-14919184D01*
X26648016Y-14919184D01*
X26619444Y-14904899D01*
X26605158Y-14876327D01*
X26605158Y-14762041D01*
X26619444Y-14733470D01*
X26648016Y-14719184D01*
X26705158Y-14719184D01*
X26733730Y-14733470D01*
X26748016Y-14762041D01*
X26748016Y-14790613D01*
X26605158Y-14819184D01*
X26862301Y-14904899D02*
X26890873Y-14919184D01*
X26948016Y-14919184D01*
X26976587Y-14904899D01*
X26990873Y-14876327D01*
X26990873Y-14862041D01*
X26976587Y-14833470D01*
X26948016Y-14819184D01*
X26905158Y-14819184D01*
X26876587Y-14804899D01*
X26862301Y-14776327D01*
X26862301Y-14762041D01*
X26876587Y-14733470D01*
X26905158Y-14719184D01*
X26948016Y-14719184D01*
X26976587Y-14733470D01*
X27090873Y-15033470D02*
X27105158Y-15019184D01*
X27133730Y-14976327D01*
X27148016Y-14947756D01*
X27162301Y-14904899D01*
X27176587Y-14833470D01*
X27176587Y-14776327D01*
X27162301Y-14704899D01*
X27148016Y-14662041D01*
X27133730Y-14633470D01*
X27105158Y-14590613D01*
X27090873Y-14576327D01*
X20301157Y-15221897D02*
X20301157Y-15137043D01*
X20216303Y-15137043D01*
X20216303Y-15221897D01*
X20301157Y-15221897D01*
X20762301Y-15315184D02*
X20590873Y-15315184D01*
X20676587Y-15315184D02*
X20676587Y-15015184D01*
X20648016Y-15058041D01*
X20619444Y-15086613D01*
X20590873Y-15100899D01*
X20890873Y-15286613D02*
X20905158Y-15300899D01*
X20890873Y-15315184D01*
X20876587Y-15300899D01*
X20890873Y-15286613D01*
X20890873Y-15315184D01*
X21019444Y-15043756D02*
X21033730Y-15029470D01*
X21062301Y-15015184D01*
X21133730Y-15015184D01*
X21162301Y-15029470D01*
X21176587Y-15043756D01*
X21190873Y-15072327D01*
X21190873Y-15100899D01*
X21176587Y-15143756D01*
X21005158Y-15315184D01*
X21190873Y-15315184D01*
X21376587Y-15015184D02*
X21405158Y-15015184D01*
X21433730Y-15029470D01*
X21448016Y-15043756D01*
X21462301Y-15072327D01*
X21476587Y-15129470D01*
X21476587Y-15200899D01*
X21462301Y-15258041D01*
X21448016Y-15286613D01*
X21433730Y-15300899D01*
X21405158Y-15315184D01*
X21376587Y-15315184D01*
X21348016Y-15300899D01*
X21333730Y-15286613D01*
X21319444Y-15258041D01*
X21305158Y-15200899D01*
X21305158Y-15129470D01*
X21319444Y-15072327D01*
X21333730Y-15043756D01*
X21348016Y-15029470D01*
X21376587Y-15015184D01*
X21605158Y-15315184D02*
X21605158Y-15115184D01*
X21605158Y-15143756D02*
X21619444Y-15129470D01*
X21648016Y-15115184D01*
X21690873Y-15115184D01*
X21719444Y-15129470D01*
X21733730Y-15158041D01*
X21733730Y-15315184D01*
X21733730Y-15158041D02*
X21748016Y-15129470D01*
X21776587Y-15115184D01*
X21819444Y-15115184D01*
X21848016Y-15129470D01*
X21862301Y-15158041D01*
X21862301Y-15315184D01*
X22005158Y-15315184D02*
X22005158Y-15115184D01*
X22005158Y-15143756D02*
X22019444Y-15129470D01*
X22048016Y-15115184D01*
X22090873Y-15115184D01*
X22119444Y-15129470D01*
X22133730Y-15158041D01*
X22133730Y-15315184D01*
X22133730Y-15158041D02*
X22148016Y-15129470D01*
X22176587Y-15115184D01*
X22219444Y-15115184D01*
X22248016Y-15129470D01*
X22262301Y-15158041D01*
X22262301Y-15315184D01*
X22848016Y-15000899D02*
X22590873Y-15386613D01*
X23233730Y-15015184D02*
X23262301Y-15015184D01*
X23290873Y-15029470D01*
X23305158Y-15043756D01*
X23319444Y-15072327D01*
X23333730Y-15129470D01*
X23333730Y-15200899D01*
X23319444Y-15258041D01*
X23305158Y-15286613D01*
X23290873Y-15300899D01*
X23262301Y-15315184D01*
X23233730Y-15315184D01*
X23205158Y-15300899D01*
X23190873Y-15286613D01*
X23176587Y-15258041D01*
X23162301Y-15200899D01*
X23162301Y-15129470D01*
X23176587Y-15072327D01*
X23190873Y-15043756D01*
X23205158Y-15029470D01*
X23233730Y-15015184D01*
X23462301Y-15286613D02*
X23476587Y-15300899D01*
X23462301Y-15315184D01*
X23448016Y-15300899D01*
X23462301Y-15286613D01*
X23462301Y-15315184D01*
X23662301Y-15015184D02*
X23690873Y-15015184D01*
X23719444Y-15029470D01*
X23733730Y-15043756D01*
X23748016Y-15072327D01*
X23762301Y-15129470D01*
X23762301Y-15200899D01*
X23748016Y-15258041D01*
X23733730Y-15286613D01*
X23719444Y-15300899D01*
X23690873Y-15315184D01*
X23662301Y-15315184D01*
X23633730Y-15300899D01*
X23619444Y-15286613D01*
X23605158Y-15258041D01*
X23590873Y-15200899D01*
X23590873Y-15129470D01*
X23605158Y-15072327D01*
X23619444Y-15043756D01*
X23633730Y-15029470D01*
X23662301Y-15015184D01*
X24019444Y-15115184D02*
X24019444Y-15315184D01*
X23948016Y-15000899D02*
X23876587Y-15215184D01*
X24062301Y-15215184D01*
X24148016Y-15015184D02*
X24348016Y-15015184D01*
X24219444Y-15315184D01*
X24448016Y-15015184D02*
X24448016Y-15072327D01*
X24562301Y-15015184D02*
X24562301Y-15072327D01*
X25005158Y-15429470D02*
X24990873Y-15415184D01*
X24962301Y-15372327D01*
X24948016Y-15343756D01*
X24933730Y-15300899D01*
X24919444Y-15229470D01*
X24919444Y-15172327D01*
X24933730Y-15100899D01*
X24948016Y-15058041D01*
X24962301Y-15029470D01*
X24990873Y-14986613D01*
X25005158Y-14972327D01*
X25248016Y-15115184D02*
X25248016Y-15315184D01*
X25176587Y-15000899D02*
X25105158Y-15215184D01*
X25290873Y-15215184D01*
X25633730Y-15315184D02*
X25633730Y-15015184D01*
X25762301Y-15315184D02*
X25762301Y-15158041D01*
X25748016Y-15129470D01*
X25719444Y-15115184D01*
X25676587Y-15115184D01*
X25648016Y-15129470D01*
X25633730Y-15143756D01*
X25948016Y-15315184D02*
X25919444Y-15300899D01*
X25905158Y-15286613D01*
X25890873Y-15258041D01*
X25890873Y-15172327D01*
X25905158Y-15143756D01*
X25919444Y-15129470D01*
X25948016Y-15115184D01*
X25990873Y-15115184D01*
X26019444Y-15129470D01*
X26033730Y-15143756D01*
X26048016Y-15172327D01*
X26048016Y-15258041D01*
X26033730Y-15286613D01*
X26019444Y-15300899D01*
X25990873Y-15315184D01*
X25948016Y-15315184D01*
X26219444Y-15315184D02*
X26190873Y-15300899D01*
X26176587Y-15272327D01*
X26176587Y-15015184D01*
X26448016Y-15300899D02*
X26419444Y-15315184D01*
X26362301Y-15315184D01*
X26333730Y-15300899D01*
X26319444Y-15272327D01*
X26319444Y-15158041D01*
X26333730Y-15129470D01*
X26362301Y-15115184D01*
X26419444Y-15115184D01*
X26448016Y-15129470D01*
X26462301Y-15158041D01*
X26462301Y-15186613D01*
X26319444Y-15215184D01*
X26576587Y-15300899D02*
X26605158Y-15315184D01*
X26662301Y-15315184D01*
X26690873Y-15300899D01*
X26705158Y-15272327D01*
X26705158Y-15258041D01*
X26690873Y-15229470D01*
X26662301Y-15215184D01*
X26619444Y-15215184D01*
X26590873Y-15200899D01*
X26576587Y-15172327D01*
X26576587Y-15158041D01*
X26590873Y-15129470D01*
X26619444Y-15115184D01*
X26662301Y-15115184D01*
X26690873Y-15129470D01*
X26805158Y-15429470D02*
X26819444Y-15415184D01*
X26848016Y-15372327D01*
X26862301Y-15343756D01*
X26876587Y-15300899D01*
X26890873Y-15229470D01*
X26890873Y-15172327D01*
X26876587Y-15100899D01*
X26862301Y-15058041D01*
X26848016Y-15029470D01*
X26819444Y-14986613D01*
X26805158Y-14972327D01*
X20253730Y-15640470D02*
X20318730Y-15575470D01*
X20253730Y-15510470D01*
X20188730Y-15575470D01*
X20253730Y-15640470D01*
X20762301Y-15711184D02*
X20590873Y-15711184D01*
X20676587Y-15711184D02*
X20676587Y-15411184D01*
X20648016Y-15454041D01*
X20619444Y-15482613D01*
X20590873Y-15496899D01*
X20890873Y-15682613D02*
X20905158Y-15696899D01*
X20890873Y-15711184D01*
X20876587Y-15696899D01*
X20890873Y-15682613D01*
X20890873Y-15711184D01*
X21005158Y-15411184D02*
X21190873Y-15411184D01*
X21090873Y-15525470D01*
X21133730Y-15525470D01*
X21162301Y-15539756D01*
X21176587Y-15554041D01*
X21190873Y-15582613D01*
X21190873Y-15654041D01*
X21176587Y-15682613D01*
X21162301Y-15696899D01*
X21133730Y-15711184D01*
X21048016Y-15711184D01*
X21019444Y-15696899D01*
X21005158Y-15682613D01*
X21376587Y-15411184D02*
X21405158Y-15411184D01*
X21433730Y-15425470D01*
X21448016Y-15439756D01*
X21462301Y-15468327D01*
X21476587Y-15525470D01*
X21476587Y-15596899D01*
X21462301Y-15654041D01*
X21448016Y-15682613D01*
X21433730Y-15696899D01*
X21405158Y-15711184D01*
X21376587Y-15711184D01*
X21348016Y-15696899D01*
X21333730Y-15682613D01*
X21319444Y-15654041D01*
X21305158Y-15596899D01*
X21305158Y-15525470D01*
X21319444Y-15468327D01*
X21333730Y-15439756D01*
X21348016Y-15425470D01*
X21376587Y-15411184D01*
X21605158Y-15711184D02*
X21605158Y-15511184D01*
X21605158Y-15539756D02*
X21619444Y-15525470D01*
X21648016Y-15511184D01*
X21690873Y-15511184D01*
X21719444Y-15525470D01*
X21733730Y-15554041D01*
X21733730Y-15711184D01*
X21733730Y-15554041D02*
X21748016Y-15525470D01*
X21776587Y-15511184D01*
X21819444Y-15511184D01*
X21848016Y-15525470D01*
X21862301Y-15554041D01*
X21862301Y-15711184D01*
X22005158Y-15711184D02*
X22005158Y-15511184D01*
X22005158Y-15539756D02*
X22019444Y-15525470D01*
X22048016Y-15511184D01*
X22090873Y-15511184D01*
X22119444Y-15525470D01*
X22133730Y-15554041D01*
X22133730Y-15711184D01*
X22133730Y-15554041D02*
X22148016Y-15525470D01*
X22176587Y-15511184D01*
X22219444Y-15511184D01*
X22248016Y-15525470D01*
X22262301Y-15554041D01*
X22262301Y-15711184D01*
X22848016Y-15396899D02*
X22590873Y-15782613D01*
X23233730Y-15411184D02*
X23262301Y-15411184D01*
X23290873Y-15425470D01*
X23305158Y-15439756D01*
X23319444Y-15468327D01*
X23333730Y-15525470D01*
X23333730Y-15596899D01*
X23319444Y-15654041D01*
X23305158Y-15682613D01*
X23290873Y-15696899D01*
X23262301Y-15711184D01*
X23233730Y-15711184D01*
X23205158Y-15696899D01*
X23190873Y-15682613D01*
X23176587Y-15654041D01*
X23162301Y-15596899D01*
X23162301Y-15525470D01*
X23176587Y-15468327D01*
X23190873Y-15439756D01*
X23205158Y-15425470D01*
X23233730Y-15411184D01*
X23462301Y-15682613D02*
X23476587Y-15696899D01*
X23462301Y-15711184D01*
X23448016Y-15696899D01*
X23462301Y-15682613D01*
X23462301Y-15711184D01*
X23662301Y-15411184D02*
X23690873Y-15411184D01*
X23719444Y-15425470D01*
X23733730Y-15439756D01*
X23748016Y-15468327D01*
X23762301Y-15525470D01*
X23762301Y-15596899D01*
X23748016Y-15654041D01*
X23733730Y-15682613D01*
X23719444Y-15696899D01*
X23690873Y-15711184D01*
X23662301Y-15711184D01*
X23633730Y-15696899D01*
X23619444Y-15682613D01*
X23605158Y-15654041D01*
X23590873Y-15596899D01*
X23590873Y-15525470D01*
X23605158Y-15468327D01*
X23619444Y-15439756D01*
X23633730Y-15425470D01*
X23662301Y-15411184D01*
X24033730Y-15411184D02*
X23890873Y-15411184D01*
X23876587Y-15554041D01*
X23890873Y-15539756D01*
X23919444Y-15525470D01*
X23990873Y-15525470D01*
X24019444Y-15539756D01*
X24033730Y-15554041D01*
X24048016Y-15582613D01*
X24048016Y-15654041D01*
X24033730Y-15682613D01*
X24019444Y-15696899D01*
X23990873Y-15711184D01*
X23919444Y-15711184D01*
X23890873Y-15696899D01*
X23876587Y-15682613D01*
X24333730Y-15711184D02*
X24162301Y-15711184D01*
X24248016Y-15711184D02*
X24248016Y-15411184D01*
X24219444Y-15454041D01*
X24190873Y-15482613D01*
X24162301Y-15496899D01*
X24448016Y-15411184D02*
X24448016Y-15468327D01*
X24562301Y-15411184D02*
X24562301Y-15468327D01*
X25005158Y-15825470D02*
X24990873Y-15811184D01*
X24962301Y-15768327D01*
X24948016Y-15739756D01*
X24933730Y-15696899D01*
X24919444Y-15625470D01*
X24919444Y-15568327D01*
X24933730Y-15496899D01*
X24948016Y-15454041D01*
X24962301Y-15425470D01*
X24990873Y-15382613D01*
X25005158Y-15368327D01*
X25090873Y-15411184D02*
X25276587Y-15411184D01*
X25176587Y-15525470D01*
X25219444Y-15525470D01*
X25248016Y-15539756D01*
X25262301Y-15554041D01*
X25276587Y-15582613D01*
X25276587Y-15654041D01*
X25262301Y-15682613D01*
X25248016Y-15696899D01*
X25219444Y-15711184D01*
X25133730Y-15711184D01*
X25105158Y-15696899D01*
X25090873Y-15682613D01*
X25633730Y-15711184D02*
X25633730Y-15411184D01*
X25762301Y-15711184D02*
X25762301Y-15554041D01*
X25748016Y-15525470D01*
X25719444Y-15511184D01*
X25676587Y-15511184D01*
X25648016Y-15525470D01*
X25633730Y-15539756D01*
X25948016Y-15711184D02*
X25919444Y-15696899D01*
X25905158Y-15682613D01*
X25890873Y-15654041D01*
X25890873Y-15568327D01*
X25905158Y-15539756D01*
X25919444Y-15525470D01*
X25948016Y-15511184D01*
X25990873Y-15511184D01*
X26019444Y-15525470D01*
X26033730Y-15539756D01*
X26048016Y-15568327D01*
X26048016Y-15654041D01*
X26033730Y-15682613D01*
X26019444Y-15696899D01*
X25990873Y-15711184D01*
X25948016Y-15711184D01*
X26219444Y-15711184D02*
X26190873Y-15696899D01*
X26176587Y-15668327D01*
X26176587Y-15411184D01*
X26448016Y-15696899D02*
X26419444Y-15711184D01*
X26362301Y-15711184D01*
X26333730Y-15696899D01*
X26319444Y-15668327D01*
X26319444Y-15554041D01*
X26333730Y-15525470D01*
X26362301Y-15511184D01*
X26419444Y-15511184D01*
X26448016Y-15525470D01*
X26462301Y-15554041D01*
X26462301Y-15582613D01*
X26319444Y-15611184D01*
X26576587Y-15696899D02*
X26605158Y-15711184D01*
X26662301Y-15711184D01*
X26690873Y-15696899D01*
X26705158Y-15668327D01*
X26705158Y-15654041D01*
X26690873Y-15625470D01*
X26662301Y-15611184D01*
X26619444Y-15611184D01*
X26590873Y-15596899D01*
X26576587Y-15568327D01*
X26576587Y-15554041D01*
X26590873Y-15525470D01*
X26619444Y-15511184D01*
X26662301Y-15511184D01*
X26690873Y-15525470D01*
X26805158Y-15825470D02*
X26819444Y-15811184D01*
X26848016Y-15768327D01*
X26862301Y-15739756D01*
X26876587Y-15696899D01*
X26890873Y-15625470D01*
X26890873Y-15568327D01*
X26876587Y-15496899D01*
X26862301Y-15454041D01*
X26848016Y-15425470D01*
X26819444Y-15382613D01*
X26805158Y-15368327D01*
M02*
