G04 #@! TF.GenerationSoftware,KiCad,Pcbnew,(5.1.8-0-10_14)*
G04 #@! TF.CreationDate,2021-08-13T20:50:48-06:00*
G04 #@! TF.ProjectId,ESP8266_Water_Sensor,45535038-3236-4365-9f57-617465725f53,rev?*
G04 #@! TF.SameCoordinates,Original*
G04 #@! TF.FileFunction,Legend,Top*
G04 #@! TF.FilePolarity,Positive*
%FSLAX46Y46*%
G04 Gerber Fmt 4.6, Leading zero omitted, Abs format (unit mm)*
G04 Created by KiCad (PCBNEW (5.1.8-0-10_14)) date 2021-08-13 20:50:48*
%MOMM*%
%LPD*%
G01*
G04 APERTURE LIST*
%ADD10C,0.100000*%
%ADD11C,0.200000*%
%ADD12C,0.120000*%
%ADD13C,0.254000*%
%ADD14C,0.150000*%
%ADD15C,3.716000*%
%ADD16O,1.801600X1.801600*%
%ADD17C,1.901600*%
%ADD18C,2.051600*%
%ADD19C,1.701600*%
G04 APERTURE END LIST*
D10*
X232300000Y-76969600D02*
X250300000Y-76969600D01*
X250300000Y-76969600D02*
X250300000Y-76969600D01*
X250300000Y-76969600D02*
X232300000Y-76969600D01*
X232300000Y-76969600D02*
X232300000Y-76969600D01*
X250300000Y-96969600D02*
X232300000Y-96969600D01*
X232300000Y-96969600D02*
X232300000Y-96969600D01*
X232300000Y-96969600D02*
X250300000Y-96969600D01*
X250300000Y-96969600D02*
X250300000Y-96969600D01*
X232300000Y-82969600D02*
X232300000Y-82969600D01*
X232300000Y-82969600D02*
X232300000Y-76969600D01*
X232300000Y-76969600D02*
X232300000Y-76969600D01*
X232300000Y-76969600D02*
X232300000Y-82969600D01*
X250300000Y-76969600D02*
X250300000Y-76969600D01*
X250300000Y-76969600D02*
X250300000Y-82969600D01*
X250300000Y-82969600D02*
X250300000Y-82969600D01*
X250300000Y-82969600D02*
X250300000Y-76969600D01*
D11*
X230600000Y-84069600D02*
X230600000Y-84069600D01*
X230800000Y-84069600D02*
X230800000Y-84069600D01*
X230600000Y-84069600D02*
X230600000Y-84069600D01*
X230800000Y-84069600D02*
G75*
G02*
X230600000Y-84069600I-100000J0D01*
G01*
X230600000Y-84069600D02*
G75*
G02*
X230800000Y-84069600I100000J0D01*
G01*
X230800000Y-84069600D02*
G75*
G02*
X230600000Y-84069600I-100000J0D01*
G01*
D12*
X208862600Y-87332452D02*
X208862600Y-86809948D01*
X207392600Y-87332452D02*
X207392600Y-86809948D01*
X213793400Y-100438852D02*
X213793400Y-99916348D01*
X215263400Y-100438852D02*
X215263400Y-99916348D01*
X215892748Y-108024600D02*
X216415252Y-108024600D01*
X215892748Y-106554600D02*
X216415252Y-106554600D01*
X214601248Y-110717000D02*
X215123752Y-110717000D01*
X214601248Y-109247000D02*
X215123752Y-109247000D01*
X208862600Y-111346348D02*
X208862600Y-111868852D01*
X207392600Y-111346348D02*
X207392600Y-111868852D01*
X248470052Y-99087000D02*
X247947548Y-99087000D01*
X248470052Y-100557000D02*
X247947548Y-100557000D01*
X226812800Y-122488000D02*
X229472800Y-122488000D01*
X226812800Y-109728000D02*
X226812800Y-122488000D01*
X229472800Y-109728000D02*
X229472800Y-122488000D01*
X226812800Y-109728000D02*
X229472800Y-109728000D01*
X226812800Y-108458000D02*
X226812800Y-107128000D01*
X226812800Y-107128000D02*
X228142800Y-107128000D01*
D11*
X212384000Y-122544400D02*
X212384000Y-126644400D01*
X222484000Y-122544400D02*
X212384000Y-122544400D01*
X222484000Y-130144400D02*
X222484000Y-122544400D01*
X214884000Y-130144400D02*
X222484000Y-130144400D01*
X249484000Y-106832400D02*
X249484000Y-114432400D01*
X249484000Y-114432400D02*
X257084000Y-114432400D01*
X257084000Y-114432400D02*
X257084000Y-104332400D01*
X257084000Y-104332400D02*
X252984000Y-104332400D01*
D12*
X253635200Y-83912400D02*
X254965200Y-83912400D01*
X253635200Y-85242400D02*
X253635200Y-83912400D01*
X253635200Y-86512400D02*
X256295200Y-86512400D01*
X256295200Y-86512400D02*
X256295200Y-99272400D01*
X253635200Y-86512400D02*
X253635200Y-99272400D01*
X253635200Y-99272400D02*
X256295200Y-99272400D01*
D10*
X213007200Y-91686400D02*
X213007200Y-97686400D01*
X207007200Y-91686400D02*
X207007200Y-97686400D01*
X210007200Y-91186400D02*
X210007200Y-91186400D01*
X210007200Y-91086400D02*
X210007200Y-91086400D01*
X210007200Y-91086400D02*
G75*
G03*
X210007200Y-91186400I0J-50000D01*
G01*
X210007200Y-91186400D02*
G75*
G03*
X210007200Y-91086400I0J50000D01*
G01*
D12*
X204700200Y-100610936D02*
X204700200Y-101065064D01*
X206170200Y-100610936D02*
X206170200Y-101065064D01*
X204801800Y-107875336D02*
X204801800Y-108329464D01*
X206271800Y-107875336D02*
X206271800Y-108329464D01*
X209932600Y-111682264D02*
X209932600Y-111228136D01*
X211402600Y-111682264D02*
X211402600Y-111228136D01*
X205005000Y-113615736D02*
X205005000Y-114069864D01*
X206475000Y-113615736D02*
X206475000Y-114069864D01*
X247956336Y-101550800D02*
X248410464Y-101550800D01*
X247956336Y-103020800D02*
X248410464Y-103020800D01*
D11*
X216810400Y-93912000D02*
X216810400Y-93912000D01*
X216810400Y-93712000D02*
X216810400Y-93712000D01*
D10*
X219910400Y-99012000D02*
X219910400Y-93012000D01*
X225910400Y-99012000D02*
X219910400Y-99012000D01*
X225910400Y-93012000D02*
X225910400Y-99012000D01*
X219910400Y-93012000D02*
X225910400Y-93012000D01*
D11*
X216810400Y-93712000D02*
G75*
G03*
X216810400Y-93912000I0J-100000D01*
G01*
X216810400Y-93912000D02*
G75*
G03*
X216810400Y-93712000I0J100000D01*
G01*
D10*
X219910400Y-84680800D02*
X225910400Y-84680800D01*
X225910400Y-84680800D02*
X225910400Y-90680800D01*
X225910400Y-90680800D02*
X219910400Y-90680800D01*
X219910400Y-90680800D02*
X219910400Y-84680800D01*
D11*
X216810400Y-85380800D02*
X216810400Y-85380800D01*
X216810400Y-85580800D02*
X216810400Y-85580800D01*
X216810400Y-85580800D02*
G75*
G03*
X216810400Y-85380800I0J100000D01*
G01*
X216810400Y-85380800D02*
G75*
G03*
X216810400Y-85580800I0J-100000D01*
G01*
X212076200Y-102489200D02*
X212076200Y-105689200D01*
X212076200Y-105689200D02*
X207176200Y-105689200D01*
X207176200Y-105689200D02*
X207176200Y-102489200D01*
X207176200Y-102489200D02*
X212076200Y-102489200D01*
X212206200Y-100639200D02*
X212206200Y-102139200D01*
D12*
X212367800Y-87332452D02*
X212367800Y-86809948D01*
X210897800Y-87332452D02*
X210897800Y-86809948D01*
X216045148Y-103811400D02*
X216567652Y-103811400D01*
X216045148Y-105281400D02*
X216567652Y-105281400D01*
D10*
X231992800Y-122593600D02*
X246992800Y-122593600D01*
X246992800Y-122593600D02*
X246992800Y-130093600D01*
X246992800Y-130093600D02*
X231992800Y-130093600D01*
X231992800Y-130093600D02*
X231992800Y-122593600D01*
D11*
X230992800Y-126593600D02*
X230992800Y-126593600D01*
X230792800Y-126593600D02*
X230792800Y-126593600D01*
X230792800Y-126593600D02*
G75*
G02*
X230992800Y-126593600I100000J0D01*
G01*
X230992800Y-126593600D02*
G75*
G02*
X230792800Y-126593600I-100000J0D01*
G01*
D12*
X214262400Y-118211600D02*
G75*
G03*
X214262400Y-118211600I-3270000J0D01*
G01*
X210992400Y-121441600D02*
X210992400Y-114981600D01*
X210952400Y-121441600D02*
X210952400Y-114981600D01*
X210912400Y-121441600D02*
X210912400Y-114981600D01*
X210872400Y-121439600D02*
X210872400Y-114983600D01*
X210832400Y-121438600D02*
X210832400Y-114984600D01*
X210792400Y-121435600D02*
X210792400Y-114987600D01*
X210752400Y-121433600D02*
X210752400Y-119251600D01*
X210752400Y-117171600D02*
X210752400Y-114989600D01*
X210712400Y-121429600D02*
X210712400Y-119251600D01*
X210712400Y-117171600D02*
X210712400Y-114993600D01*
X210672400Y-121426600D02*
X210672400Y-119251600D01*
X210672400Y-117171600D02*
X210672400Y-114996600D01*
X210632400Y-121422600D02*
X210632400Y-119251600D01*
X210632400Y-117171600D02*
X210632400Y-115000600D01*
X210592400Y-121417600D02*
X210592400Y-119251600D01*
X210592400Y-117171600D02*
X210592400Y-115005600D01*
X210552400Y-121412600D02*
X210552400Y-119251600D01*
X210552400Y-117171600D02*
X210552400Y-115010600D01*
X210512400Y-121406600D02*
X210512400Y-119251600D01*
X210512400Y-117171600D02*
X210512400Y-115016600D01*
X210472400Y-121400600D02*
X210472400Y-119251600D01*
X210472400Y-117171600D02*
X210472400Y-115022600D01*
X210432400Y-121393600D02*
X210432400Y-119251600D01*
X210432400Y-117171600D02*
X210432400Y-115029600D01*
X210392400Y-121386600D02*
X210392400Y-119251600D01*
X210392400Y-117171600D02*
X210392400Y-115036600D01*
X210352400Y-121378600D02*
X210352400Y-119251600D01*
X210352400Y-117171600D02*
X210352400Y-115044600D01*
X210312400Y-121370600D02*
X210312400Y-119251600D01*
X210312400Y-117171600D02*
X210312400Y-115052600D01*
X210271400Y-121361600D02*
X210271400Y-119251600D01*
X210271400Y-117171600D02*
X210271400Y-115061600D01*
X210231400Y-121352600D02*
X210231400Y-119251600D01*
X210231400Y-117171600D02*
X210231400Y-115070600D01*
X210191400Y-121342600D02*
X210191400Y-119251600D01*
X210191400Y-117171600D02*
X210191400Y-115080600D01*
X210151400Y-121332600D02*
X210151400Y-119251600D01*
X210151400Y-117171600D02*
X210151400Y-115090600D01*
X210111400Y-121321600D02*
X210111400Y-119251600D01*
X210111400Y-117171600D02*
X210111400Y-115101600D01*
X210071400Y-121309600D02*
X210071400Y-119251600D01*
X210071400Y-117171600D02*
X210071400Y-115113600D01*
X210031400Y-121297600D02*
X210031400Y-119251600D01*
X210031400Y-117171600D02*
X210031400Y-115125600D01*
X209991400Y-121285600D02*
X209991400Y-119251600D01*
X209991400Y-117171600D02*
X209991400Y-115137600D01*
X209951400Y-121272600D02*
X209951400Y-119251600D01*
X209951400Y-117171600D02*
X209951400Y-115150600D01*
X209911400Y-121258600D02*
X209911400Y-119251600D01*
X209911400Y-117171600D02*
X209911400Y-115164600D01*
X209871400Y-121244600D02*
X209871400Y-119251600D01*
X209871400Y-117171600D02*
X209871400Y-115178600D01*
X209831400Y-121229600D02*
X209831400Y-119251600D01*
X209831400Y-117171600D02*
X209831400Y-115193600D01*
X209791400Y-121213600D02*
X209791400Y-119251600D01*
X209791400Y-117171600D02*
X209791400Y-115209600D01*
X209751400Y-121197600D02*
X209751400Y-119251600D01*
X209751400Y-117171600D02*
X209751400Y-115225600D01*
X209711400Y-121181600D02*
X209711400Y-119251600D01*
X209711400Y-117171600D02*
X209711400Y-115241600D01*
X209671400Y-121163600D02*
X209671400Y-119251600D01*
X209671400Y-117171600D02*
X209671400Y-115259600D01*
X209631400Y-121145600D02*
X209631400Y-119251600D01*
X209631400Y-117171600D02*
X209631400Y-115277600D01*
X209591400Y-121127600D02*
X209591400Y-119251600D01*
X209591400Y-117171600D02*
X209591400Y-115295600D01*
X209551400Y-121107600D02*
X209551400Y-119251600D01*
X209551400Y-117171600D02*
X209551400Y-115315600D01*
X209511400Y-121087600D02*
X209511400Y-119251600D01*
X209511400Y-117171600D02*
X209511400Y-115335600D01*
X209471400Y-121067600D02*
X209471400Y-119251600D01*
X209471400Y-117171600D02*
X209471400Y-115355600D01*
X209431400Y-121045600D02*
X209431400Y-119251600D01*
X209431400Y-117171600D02*
X209431400Y-115377600D01*
X209391400Y-121023600D02*
X209391400Y-119251600D01*
X209391400Y-117171600D02*
X209391400Y-115399600D01*
X209351400Y-121001600D02*
X209351400Y-119251600D01*
X209351400Y-117171600D02*
X209351400Y-115421600D01*
X209311400Y-120977600D02*
X209311400Y-119251600D01*
X209311400Y-117171600D02*
X209311400Y-115445600D01*
X209271400Y-120953600D02*
X209271400Y-119251600D01*
X209271400Y-117171600D02*
X209271400Y-115469600D01*
X209231400Y-120927600D02*
X209231400Y-119251600D01*
X209231400Y-117171600D02*
X209231400Y-115495600D01*
X209191400Y-120901600D02*
X209191400Y-119251600D01*
X209191400Y-117171600D02*
X209191400Y-115521600D01*
X209151400Y-120875600D02*
X209151400Y-119251600D01*
X209151400Y-117171600D02*
X209151400Y-115547600D01*
X209111400Y-120847600D02*
X209111400Y-119251600D01*
X209111400Y-117171600D02*
X209111400Y-115575600D01*
X209071400Y-120818600D02*
X209071400Y-119251600D01*
X209071400Y-117171600D02*
X209071400Y-115604600D01*
X209031400Y-120789600D02*
X209031400Y-119251600D01*
X209031400Y-117171600D02*
X209031400Y-115633600D01*
X208991400Y-120759600D02*
X208991400Y-119251600D01*
X208991400Y-117171600D02*
X208991400Y-115663600D01*
X208951400Y-120727600D02*
X208951400Y-119251600D01*
X208951400Y-117171600D02*
X208951400Y-115695600D01*
X208911400Y-120695600D02*
X208911400Y-119251600D01*
X208911400Y-117171600D02*
X208911400Y-115727600D01*
X208871400Y-120661600D02*
X208871400Y-119251600D01*
X208871400Y-117171600D02*
X208871400Y-115761600D01*
X208831400Y-120627600D02*
X208831400Y-119251600D01*
X208831400Y-117171600D02*
X208831400Y-115795600D01*
X208791400Y-120591600D02*
X208791400Y-119251600D01*
X208791400Y-117171600D02*
X208791400Y-115831600D01*
X208751400Y-120554600D02*
X208751400Y-119251600D01*
X208751400Y-117171600D02*
X208751400Y-115868600D01*
X208711400Y-120516600D02*
X208711400Y-119251600D01*
X208711400Y-117171600D02*
X208711400Y-115906600D01*
X208671400Y-120476600D02*
X208671400Y-115946600D01*
X208631400Y-120435600D02*
X208631400Y-115987600D01*
X208591400Y-120393600D02*
X208591400Y-116029600D01*
X208551400Y-120348600D02*
X208551400Y-116074600D01*
X208511400Y-120303600D02*
X208511400Y-116119600D01*
X208471400Y-120255600D02*
X208471400Y-116167600D01*
X208431400Y-120206600D02*
X208431400Y-116216600D01*
X208391400Y-120155600D02*
X208391400Y-116267600D01*
X208351400Y-120101600D02*
X208351400Y-116321600D01*
X208311400Y-120045600D02*
X208311400Y-116377600D01*
X208271400Y-119987600D02*
X208271400Y-116435600D01*
X208231400Y-119925600D02*
X208231400Y-116497600D01*
X208191400Y-119861600D02*
X208191400Y-116561600D01*
X208151400Y-119792600D02*
X208151400Y-116630600D01*
X208111400Y-119720600D02*
X208111400Y-116702600D01*
X208071400Y-119643600D02*
X208071400Y-116779600D01*
X208031400Y-119561600D02*
X208031400Y-116861600D01*
X207991400Y-119473600D02*
X207991400Y-116949600D01*
X207951400Y-119376600D02*
X207951400Y-117046600D01*
X207911400Y-119270600D02*
X207911400Y-117152600D01*
X207871400Y-119151600D02*
X207871400Y-117271600D01*
X207831400Y-119013600D02*
X207831400Y-117409600D01*
X207791400Y-118844600D02*
X207791400Y-117578600D01*
X207751400Y-118613600D02*
X207751400Y-117809600D01*
X214492641Y-120050600D02*
X213862641Y-120050600D01*
X214177641Y-120365600D02*
X214177641Y-119735600D01*
X215539559Y-116057600D02*
X215539559Y-116687600D01*
X215224559Y-116372600D02*
X215854559Y-116372600D01*
X221965800Y-117809600D02*
X221965800Y-118613600D01*
X221925800Y-117578600D02*
X221925800Y-118844600D01*
X221885800Y-117409600D02*
X221885800Y-119013600D01*
X221845800Y-117271600D02*
X221845800Y-119151600D01*
X221805800Y-117152600D02*
X221805800Y-119270600D01*
X221765800Y-117046600D02*
X221765800Y-119376600D01*
X221725800Y-116949600D02*
X221725800Y-119473600D01*
X221685800Y-116861600D02*
X221685800Y-119561600D01*
X221645800Y-116779600D02*
X221645800Y-119643600D01*
X221605800Y-116702600D02*
X221605800Y-119720600D01*
X221565800Y-116630600D02*
X221565800Y-119792600D01*
X221525800Y-116561600D02*
X221525800Y-119861600D01*
X221485800Y-116497600D02*
X221485800Y-119925600D01*
X221445800Y-116435600D02*
X221445800Y-119987600D01*
X221405800Y-116377600D02*
X221405800Y-120045600D01*
X221365800Y-116321600D02*
X221365800Y-120101600D01*
X221325800Y-116267600D02*
X221325800Y-120155600D01*
X221285800Y-116216600D02*
X221285800Y-120206600D01*
X221245800Y-116167600D02*
X221245800Y-120255600D01*
X221205800Y-116119600D02*
X221205800Y-120303600D01*
X221165800Y-116074600D02*
X221165800Y-120348600D01*
X221125800Y-116029600D02*
X221125800Y-120393600D01*
X221085800Y-115987600D02*
X221085800Y-120435600D01*
X221045800Y-115946600D02*
X221045800Y-120476600D01*
X221005800Y-119251600D02*
X221005800Y-120516600D01*
X221005800Y-115906600D02*
X221005800Y-117171600D01*
X220965800Y-119251600D02*
X220965800Y-120554600D01*
X220965800Y-115868600D02*
X220965800Y-117171600D01*
X220925800Y-119251600D02*
X220925800Y-120591600D01*
X220925800Y-115831600D02*
X220925800Y-117171600D01*
X220885800Y-119251600D02*
X220885800Y-120627600D01*
X220885800Y-115795600D02*
X220885800Y-117171600D01*
X220845800Y-119251600D02*
X220845800Y-120661600D01*
X220845800Y-115761600D02*
X220845800Y-117171600D01*
X220805800Y-119251600D02*
X220805800Y-120695600D01*
X220805800Y-115727600D02*
X220805800Y-117171600D01*
X220765800Y-119251600D02*
X220765800Y-120727600D01*
X220765800Y-115695600D02*
X220765800Y-117171600D01*
X220725800Y-119251600D02*
X220725800Y-120759600D01*
X220725800Y-115663600D02*
X220725800Y-117171600D01*
X220685800Y-119251600D02*
X220685800Y-120789600D01*
X220685800Y-115633600D02*
X220685800Y-117171600D01*
X220645800Y-119251600D02*
X220645800Y-120818600D01*
X220645800Y-115604600D02*
X220645800Y-117171600D01*
X220605800Y-119251600D02*
X220605800Y-120847600D01*
X220605800Y-115575600D02*
X220605800Y-117171600D01*
X220565800Y-119251600D02*
X220565800Y-120875600D01*
X220565800Y-115547600D02*
X220565800Y-117171600D01*
X220525800Y-119251600D02*
X220525800Y-120901600D01*
X220525800Y-115521600D02*
X220525800Y-117171600D01*
X220485800Y-119251600D02*
X220485800Y-120927600D01*
X220485800Y-115495600D02*
X220485800Y-117171600D01*
X220445800Y-119251600D02*
X220445800Y-120953600D01*
X220445800Y-115469600D02*
X220445800Y-117171600D01*
X220405800Y-119251600D02*
X220405800Y-120977600D01*
X220405800Y-115445600D02*
X220405800Y-117171600D01*
X220365800Y-119251600D02*
X220365800Y-121001600D01*
X220365800Y-115421600D02*
X220365800Y-117171600D01*
X220325800Y-119251600D02*
X220325800Y-121023600D01*
X220325800Y-115399600D02*
X220325800Y-117171600D01*
X220285800Y-119251600D02*
X220285800Y-121045600D01*
X220285800Y-115377600D02*
X220285800Y-117171600D01*
X220245800Y-119251600D02*
X220245800Y-121067600D01*
X220245800Y-115355600D02*
X220245800Y-117171600D01*
X220205800Y-119251600D02*
X220205800Y-121087600D01*
X220205800Y-115335600D02*
X220205800Y-117171600D01*
X220165800Y-119251600D02*
X220165800Y-121107600D01*
X220165800Y-115315600D02*
X220165800Y-117171600D01*
X220125800Y-119251600D02*
X220125800Y-121127600D01*
X220125800Y-115295600D02*
X220125800Y-117171600D01*
X220085800Y-119251600D02*
X220085800Y-121145600D01*
X220085800Y-115277600D02*
X220085800Y-117171600D01*
X220045800Y-119251600D02*
X220045800Y-121163600D01*
X220045800Y-115259600D02*
X220045800Y-117171600D01*
X220005800Y-119251600D02*
X220005800Y-121181600D01*
X220005800Y-115241600D02*
X220005800Y-117171600D01*
X219965800Y-119251600D02*
X219965800Y-121197600D01*
X219965800Y-115225600D02*
X219965800Y-117171600D01*
X219925800Y-119251600D02*
X219925800Y-121213600D01*
X219925800Y-115209600D02*
X219925800Y-117171600D01*
X219885800Y-119251600D02*
X219885800Y-121229600D01*
X219885800Y-115193600D02*
X219885800Y-117171600D01*
X219845800Y-119251600D02*
X219845800Y-121244600D01*
X219845800Y-115178600D02*
X219845800Y-117171600D01*
X219805800Y-119251600D02*
X219805800Y-121258600D01*
X219805800Y-115164600D02*
X219805800Y-117171600D01*
X219765800Y-119251600D02*
X219765800Y-121272600D01*
X219765800Y-115150600D02*
X219765800Y-117171600D01*
X219725800Y-119251600D02*
X219725800Y-121285600D01*
X219725800Y-115137600D02*
X219725800Y-117171600D01*
X219685800Y-119251600D02*
X219685800Y-121297600D01*
X219685800Y-115125600D02*
X219685800Y-117171600D01*
X219645800Y-119251600D02*
X219645800Y-121309600D01*
X219645800Y-115113600D02*
X219645800Y-117171600D01*
X219605800Y-119251600D02*
X219605800Y-121321600D01*
X219605800Y-115101600D02*
X219605800Y-117171600D01*
X219565800Y-119251600D02*
X219565800Y-121332600D01*
X219565800Y-115090600D02*
X219565800Y-117171600D01*
X219525800Y-119251600D02*
X219525800Y-121342600D01*
X219525800Y-115080600D02*
X219525800Y-117171600D01*
X219485800Y-119251600D02*
X219485800Y-121352600D01*
X219485800Y-115070600D02*
X219485800Y-117171600D01*
X219445800Y-119251600D02*
X219445800Y-121361600D01*
X219445800Y-115061600D02*
X219445800Y-117171600D01*
X219404800Y-119251600D02*
X219404800Y-121370600D01*
X219404800Y-115052600D02*
X219404800Y-117171600D01*
X219364800Y-119251600D02*
X219364800Y-121378600D01*
X219364800Y-115044600D02*
X219364800Y-117171600D01*
X219324800Y-119251600D02*
X219324800Y-121386600D01*
X219324800Y-115036600D02*
X219324800Y-117171600D01*
X219284800Y-119251600D02*
X219284800Y-121393600D01*
X219284800Y-115029600D02*
X219284800Y-117171600D01*
X219244800Y-119251600D02*
X219244800Y-121400600D01*
X219244800Y-115022600D02*
X219244800Y-117171600D01*
X219204800Y-119251600D02*
X219204800Y-121406600D01*
X219204800Y-115016600D02*
X219204800Y-117171600D01*
X219164800Y-119251600D02*
X219164800Y-121412600D01*
X219164800Y-115010600D02*
X219164800Y-117171600D01*
X219124800Y-119251600D02*
X219124800Y-121417600D01*
X219124800Y-115005600D02*
X219124800Y-117171600D01*
X219084800Y-119251600D02*
X219084800Y-121422600D01*
X219084800Y-115000600D02*
X219084800Y-117171600D01*
X219044800Y-119251600D02*
X219044800Y-121426600D01*
X219044800Y-114996600D02*
X219044800Y-117171600D01*
X219004800Y-119251600D02*
X219004800Y-121429600D01*
X219004800Y-114993600D02*
X219004800Y-117171600D01*
X218964800Y-119251600D02*
X218964800Y-121433600D01*
X218964800Y-114989600D02*
X218964800Y-117171600D01*
X218924800Y-114987600D02*
X218924800Y-121435600D01*
X218884800Y-114984600D02*
X218884800Y-121438600D01*
X218844800Y-114983600D02*
X218844800Y-121439600D01*
X218804800Y-114981600D02*
X218804800Y-121441600D01*
X218764800Y-114981600D02*
X218764800Y-121441600D01*
X218724800Y-114981600D02*
X218724800Y-121441600D01*
X221994800Y-118211600D02*
G75*
G03*
X221994800Y-118211600I-3270000J0D01*
G01*
D13*
X239782380Y-86274123D02*
X239782380Y-87302219D01*
X239842857Y-87423171D01*
X239903333Y-87483647D01*
X240024285Y-87544123D01*
X240266190Y-87544123D01*
X240387142Y-87483647D01*
X240447619Y-87423171D01*
X240508095Y-87302219D01*
X240508095Y-86274123D01*
X241778095Y-87544123D02*
X241052380Y-87544123D01*
X241415238Y-87544123D02*
X241415238Y-86274123D01*
X241294285Y-86455552D01*
X241173333Y-86576504D01*
X241052380Y-86636980D01*
D14*
X206804742Y-87237866D02*
X206852361Y-87285485D01*
X206899980Y-87428342D01*
X206899980Y-87523580D01*
X206852361Y-87666438D01*
X206757123Y-87761676D01*
X206661885Y-87809295D01*
X206471409Y-87856914D01*
X206328552Y-87856914D01*
X206138076Y-87809295D01*
X206042838Y-87761676D01*
X205947600Y-87666438D01*
X205899980Y-87523580D01*
X205899980Y-87428342D01*
X205947600Y-87285485D01*
X205995219Y-87237866D01*
X205995219Y-86856914D02*
X205947600Y-86809295D01*
X205899980Y-86714057D01*
X205899980Y-86475961D01*
X205947600Y-86380723D01*
X205995219Y-86333104D01*
X206090457Y-86285485D01*
X206185695Y-86285485D01*
X206328552Y-86333104D01*
X206899980Y-86904533D01*
X206899980Y-86285485D01*
X216688942Y-101072066D02*
X216736561Y-101119685D01*
X216784180Y-101262542D01*
X216784180Y-101357780D01*
X216736561Y-101500638D01*
X216641323Y-101595876D01*
X216546085Y-101643495D01*
X216355609Y-101691114D01*
X216212752Y-101691114D01*
X216022276Y-101643495D01*
X215927038Y-101595876D01*
X215831800Y-101500638D01*
X215784180Y-101357780D01*
X215784180Y-101262542D01*
X215831800Y-101119685D01*
X215879419Y-101072066D01*
X215784180Y-100738733D02*
X215784180Y-100119685D01*
X216165133Y-100453019D01*
X216165133Y-100310161D01*
X216212752Y-100214923D01*
X216260371Y-100167304D01*
X216355609Y-100119685D01*
X216593704Y-100119685D01*
X216688942Y-100167304D01*
X216736561Y-100214923D01*
X216784180Y-100310161D01*
X216784180Y-100595876D01*
X216736561Y-100691114D01*
X216688942Y-100738733D01*
X219314733Y-107722942D02*
X219267114Y-107770561D01*
X219124257Y-107818180D01*
X219029019Y-107818180D01*
X218886161Y-107770561D01*
X218790923Y-107675323D01*
X218743304Y-107580085D01*
X218695685Y-107389609D01*
X218695685Y-107246752D01*
X218743304Y-107056276D01*
X218790923Y-106961038D01*
X218886161Y-106865800D01*
X219029019Y-106818180D01*
X219124257Y-106818180D01*
X219267114Y-106865800D01*
X219314733Y-106913419D01*
X220219495Y-106818180D02*
X219743304Y-106818180D01*
X219695685Y-107294371D01*
X219743304Y-107246752D01*
X219838542Y-107199133D01*
X220076638Y-107199133D01*
X220171876Y-107246752D01*
X220219495Y-107294371D01*
X220267114Y-107389609D01*
X220267114Y-107627704D01*
X220219495Y-107722942D01*
X220171876Y-107770561D01*
X220076638Y-107818180D01*
X219838542Y-107818180D01*
X219743304Y-107770561D01*
X219695685Y-107722942D01*
X215225333Y-112320342D02*
X215177714Y-112367961D01*
X215034857Y-112415580D01*
X214939619Y-112415580D01*
X214796761Y-112367961D01*
X214701523Y-112272723D01*
X214653904Y-112177485D01*
X214606285Y-111987009D01*
X214606285Y-111844152D01*
X214653904Y-111653676D01*
X214701523Y-111558438D01*
X214796761Y-111463200D01*
X214939619Y-111415580D01*
X215034857Y-111415580D01*
X215177714Y-111463200D01*
X215225333Y-111510819D01*
X216082476Y-111415580D02*
X215892000Y-111415580D01*
X215796761Y-111463200D01*
X215749142Y-111510819D01*
X215653904Y-111653676D01*
X215606285Y-111844152D01*
X215606285Y-112225104D01*
X215653904Y-112320342D01*
X215701523Y-112367961D01*
X215796761Y-112415580D01*
X215987238Y-112415580D01*
X216082476Y-112367961D01*
X216130095Y-112320342D01*
X216177714Y-112225104D01*
X216177714Y-111987009D01*
X216130095Y-111891771D01*
X216082476Y-111844152D01*
X215987238Y-111796533D01*
X215796761Y-111796533D01*
X215701523Y-111844152D01*
X215653904Y-111891771D01*
X215606285Y-111987009D01*
X208459342Y-109081866D02*
X208506961Y-109129485D01*
X208554580Y-109272342D01*
X208554580Y-109367580D01*
X208506961Y-109510438D01*
X208411723Y-109605676D01*
X208316485Y-109653295D01*
X208126009Y-109700914D01*
X207983152Y-109700914D01*
X207792676Y-109653295D01*
X207697438Y-109605676D01*
X207602200Y-109510438D01*
X207554580Y-109367580D01*
X207554580Y-109272342D01*
X207602200Y-109129485D01*
X207649819Y-109081866D01*
X207554580Y-108748533D02*
X207554580Y-108081866D01*
X208554580Y-108510438D01*
X247540542Y-98020142D02*
X247492923Y-98067761D01*
X247350066Y-98115380D01*
X247254828Y-98115380D01*
X247111971Y-98067761D01*
X247016733Y-97972523D01*
X246969114Y-97877285D01*
X246921495Y-97686809D01*
X246921495Y-97543952D01*
X246969114Y-97353476D01*
X247016733Y-97258238D01*
X247111971Y-97163000D01*
X247254828Y-97115380D01*
X247350066Y-97115380D01*
X247492923Y-97163000D01*
X247540542Y-97210619D01*
X248492923Y-98115380D02*
X247921495Y-98115380D01*
X248207209Y-98115380D02*
X248207209Y-97115380D01*
X248111971Y-97258238D01*
X248016733Y-97353476D01*
X247921495Y-97401095D01*
X248873876Y-97210619D02*
X248921495Y-97163000D01*
X249016733Y-97115380D01*
X249254828Y-97115380D01*
X249350066Y-97163000D01*
X249397685Y-97210619D01*
X249445304Y-97305857D01*
X249445304Y-97401095D01*
X249397685Y-97543952D01*
X248826257Y-98115380D01*
X249445304Y-98115380D01*
X227809466Y-105580380D02*
X227809466Y-106294666D01*
X227761847Y-106437523D01*
X227666609Y-106532761D01*
X227523752Y-106580380D01*
X227428514Y-106580380D01*
X228809466Y-106580380D02*
X228238038Y-106580380D01*
X228523752Y-106580380D02*
X228523752Y-105580380D01*
X228428514Y-105723238D01*
X228333276Y-105818476D01*
X228238038Y-105866095D01*
D13*
X223053123Y-126991533D02*
X223960266Y-126991533D01*
X224141695Y-127052009D01*
X224262647Y-127172961D01*
X224323123Y-127354390D01*
X224323123Y-127475342D01*
X223174076Y-126447247D02*
X223113600Y-126386771D01*
X223053123Y-126265819D01*
X223053123Y-125963438D01*
X223113600Y-125842485D01*
X223174076Y-125782009D01*
X223295028Y-125721533D01*
X223415980Y-125721533D01*
X223597409Y-125782009D01*
X224323123Y-126507723D01*
X224323123Y-125721533D01*
X252687666Y-101945923D02*
X252687666Y-102853066D01*
X252627190Y-103034495D01*
X252506238Y-103155447D01*
X252324809Y-103215923D01*
X252203857Y-103215923D01*
X253836714Y-102369257D02*
X253836714Y-103215923D01*
X253534333Y-101885447D02*
X253231952Y-102792590D01*
X254018142Y-102792590D01*
D14*
X254530266Y-99782380D02*
X254530266Y-100496666D01*
X254482647Y-100639523D01*
X254387409Y-100734761D01*
X254244552Y-100782380D01*
X254149314Y-100782380D01*
X255482647Y-99782380D02*
X255006457Y-99782380D01*
X254958838Y-100258571D01*
X255006457Y-100210952D01*
X255101695Y-100163333D01*
X255339790Y-100163333D01*
X255435028Y-100210952D01*
X255482647Y-100258571D01*
X255530266Y-100353809D01*
X255530266Y-100591904D01*
X255482647Y-100687142D01*
X255435028Y-100734761D01*
X255339790Y-100782380D01*
X255101695Y-100782380D01*
X255006457Y-100734761D01*
X254958838Y-100687142D01*
D13*
X210581723Y-94673066D02*
X210581723Y-95277828D01*
X209311723Y-95277828D01*
X210581723Y-93584495D02*
X210581723Y-94310209D01*
X210581723Y-93947352D02*
X209311723Y-93947352D01*
X209493152Y-94068304D01*
X209614104Y-94189257D01*
X209674580Y-94310209D01*
D14*
X205862180Y-98134466D02*
X205385990Y-98467800D01*
X205862180Y-98705895D02*
X204862180Y-98705895D01*
X204862180Y-98324942D01*
X204909800Y-98229704D01*
X204957419Y-98182085D01*
X205052657Y-98134466D01*
X205195514Y-98134466D01*
X205290752Y-98182085D01*
X205338371Y-98229704D01*
X205385990Y-98324942D01*
X205385990Y-98705895D01*
X205862180Y-97182085D02*
X205862180Y-97753514D01*
X205862180Y-97467800D02*
X204862180Y-97467800D01*
X205005038Y-97563038D01*
X205100276Y-97658276D01*
X205147895Y-97753514D01*
X205938380Y-105652866D02*
X205462190Y-105986200D01*
X205938380Y-106224295D02*
X204938380Y-106224295D01*
X204938380Y-105843342D01*
X204986000Y-105748104D01*
X205033619Y-105700485D01*
X205128857Y-105652866D01*
X205271714Y-105652866D01*
X205366952Y-105700485D01*
X205414571Y-105748104D01*
X205462190Y-105843342D01*
X205462190Y-106224295D01*
X205033619Y-105271914D02*
X204986000Y-105224295D01*
X204938380Y-105129057D01*
X204938380Y-104890961D01*
X204986000Y-104795723D01*
X205033619Y-104748104D01*
X205128857Y-104700485D01*
X205224095Y-104700485D01*
X205366952Y-104748104D01*
X205938380Y-105319533D01*
X205938380Y-104700485D01*
X212897980Y-111510866D02*
X212421790Y-111844200D01*
X212897980Y-112082295D02*
X211897980Y-112082295D01*
X211897980Y-111701342D01*
X211945600Y-111606104D01*
X211993219Y-111558485D01*
X212088457Y-111510866D01*
X212231314Y-111510866D01*
X212326552Y-111558485D01*
X212374171Y-111606104D01*
X212421790Y-111701342D01*
X212421790Y-112082295D01*
X211897980Y-111177533D02*
X211897980Y-110558485D01*
X212278933Y-110891819D01*
X212278933Y-110748961D01*
X212326552Y-110653723D01*
X212374171Y-110606104D01*
X212469409Y-110558485D01*
X212707504Y-110558485D01*
X212802742Y-110606104D01*
X212850361Y-110653723D01*
X212897980Y-110748961D01*
X212897980Y-111034676D01*
X212850361Y-111129914D01*
X212802742Y-111177533D01*
X208046580Y-115127066D02*
X207570390Y-115460400D01*
X208046580Y-115698495D02*
X207046580Y-115698495D01*
X207046580Y-115317542D01*
X207094200Y-115222304D01*
X207141819Y-115174685D01*
X207237057Y-115127066D01*
X207379914Y-115127066D01*
X207475152Y-115174685D01*
X207522771Y-115222304D01*
X207570390Y-115317542D01*
X207570390Y-115698495D01*
X207379914Y-114269923D02*
X208046580Y-114269923D01*
X206998961Y-114508019D02*
X207713247Y-114746114D01*
X207713247Y-114127066D01*
X247616742Y-104846380D02*
X247283409Y-104370190D01*
X247045314Y-104846380D02*
X247045314Y-103846380D01*
X247426266Y-103846380D01*
X247521504Y-103894000D01*
X247569123Y-103941619D01*
X247616742Y-104036857D01*
X247616742Y-104179714D01*
X247569123Y-104274952D01*
X247521504Y-104322571D01*
X247426266Y-104370190D01*
X247045314Y-104370190D01*
X248569123Y-104846380D02*
X247997695Y-104846380D01*
X248283409Y-104846380D02*
X248283409Y-103846380D01*
X248188171Y-103989238D01*
X248092933Y-104084476D01*
X247997695Y-104132095D01*
X249521504Y-104846380D02*
X248950076Y-104846380D01*
X249235790Y-104846380D02*
X249235790Y-103846380D01*
X249140552Y-103989238D01*
X249045314Y-104084476D01*
X248950076Y-104132095D01*
D13*
X221642780Y-96526047D02*
X221824209Y-96586523D01*
X222126590Y-96586523D01*
X222247542Y-96526047D01*
X222308019Y-96465571D01*
X222368495Y-96344619D01*
X222368495Y-96223666D01*
X222308019Y-96102714D01*
X222247542Y-96042238D01*
X222126590Y-95981761D01*
X221884685Y-95921285D01*
X221763733Y-95860809D01*
X221703257Y-95800333D01*
X221642780Y-95679380D01*
X221642780Y-95558428D01*
X221703257Y-95437476D01*
X221763733Y-95377000D01*
X221884685Y-95316523D01*
X222187066Y-95316523D01*
X222368495Y-95377000D01*
X223578019Y-96586523D02*
X222852304Y-96586523D01*
X223215161Y-96586523D02*
X223215161Y-95316523D01*
X223094209Y-95497952D01*
X222973257Y-95618904D01*
X222852304Y-95679380D01*
X221642780Y-88194847D02*
X221824209Y-88255323D01*
X222126590Y-88255323D01*
X222247542Y-88194847D01*
X222308019Y-88134371D01*
X222368495Y-88013419D01*
X222368495Y-87892466D01*
X222308019Y-87771514D01*
X222247542Y-87711038D01*
X222126590Y-87650561D01*
X221884685Y-87590085D01*
X221763733Y-87529609D01*
X221703257Y-87469133D01*
X221642780Y-87348180D01*
X221642780Y-87227228D01*
X221703257Y-87106276D01*
X221763733Y-87045800D01*
X221884685Y-86985323D01*
X222187066Y-86985323D01*
X222368495Y-87045800D01*
X222852304Y-87106276D02*
X222912780Y-87045800D01*
X223033733Y-86985323D01*
X223336114Y-86985323D01*
X223457066Y-87045800D01*
X223517542Y-87106276D01*
X223578019Y-87227228D01*
X223578019Y-87348180D01*
X223517542Y-87529609D01*
X222791828Y-88255323D01*
X223578019Y-88255323D01*
X208930723Y-105056819D02*
X209958819Y-105056819D01*
X210079771Y-104996342D01*
X210140247Y-104935866D01*
X210200723Y-104814914D01*
X210200723Y-104573009D01*
X210140247Y-104452057D01*
X210079771Y-104391580D01*
X209958819Y-104331104D01*
X208930723Y-104331104D01*
X209051676Y-103786819D02*
X208991200Y-103726342D01*
X208930723Y-103605390D01*
X208930723Y-103303009D01*
X208991200Y-103182057D01*
X209051676Y-103121580D01*
X209172628Y-103061104D01*
X209293580Y-103061104D01*
X209475009Y-103121580D01*
X210200723Y-103847295D01*
X210200723Y-103061104D01*
D14*
X210309942Y-87714057D02*
X210357561Y-87761676D01*
X210405180Y-87904533D01*
X210405180Y-87999771D01*
X210357561Y-88142628D01*
X210262323Y-88237866D01*
X210167085Y-88285485D01*
X209976609Y-88333104D01*
X209833752Y-88333104D01*
X209643276Y-88285485D01*
X209548038Y-88237866D01*
X209452800Y-88142628D01*
X209405180Y-87999771D01*
X209405180Y-87904533D01*
X209452800Y-87761676D01*
X209500419Y-87714057D01*
X210405180Y-86761676D02*
X210405180Y-87333104D01*
X210405180Y-87047390D02*
X209405180Y-87047390D01*
X209548038Y-87142628D01*
X209643276Y-87237866D01*
X209690895Y-87333104D01*
X210405180Y-85809295D02*
X210405180Y-86380723D01*
X210405180Y-86095009D02*
X209405180Y-86095009D01*
X209548038Y-86190247D01*
X209643276Y-86285485D01*
X209690895Y-86380723D01*
X215612742Y-103303342D02*
X215565123Y-103350961D01*
X215422266Y-103398580D01*
X215327028Y-103398580D01*
X215184171Y-103350961D01*
X215088933Y-103255723D01*
X215041314Y-103160485D01*
X214993695Y-102970009D01*
X214993695Y-102827152D01*
X215041314Y-102636676D01*
X215088933Y-102541438D01*
X215184171Y-102446200D01*
X215327028Y-102398580D01*
X215422266Y-102398580D01*
X215565123Y-102446200D01*
X215612742Y-102493819D01*
X216565123Y-103398580D02*
X215993695Y-103398580D01*
X216279409Y-103398580D02*
X216279409Y-102398580D01*
X216184171Y-102541438D01*
X216088933Y-102636676D01*
X215993695Y-102684295D01*
X216898457Y-102398580D02*
X217517504Y-102398580D01*
X217184171Y-102779533D01*
X217327028Y-102779533D01*
X217422266Y-102827152D01*
X217469885Y-102874771D01*
X217517504Y-102970009D01*
X217517504Y-103208104D01*
X217469885Y-103303342D01*
X217422266Y-103350961D01*
X217327028Y-103398580D01*
X217041314Y-103398580D01*
X216946076Y-103350961D01*
X216898457Y-103303342D01*
D13*
X239149466Y-120564123D02*
X239149466Y-121471266D01*
X239088990Y-121652695D01*
X238968038Y-121773647D01*
X238786609Y-121834123D01*
X238665657Y-121834123D01*
X239633276Y-120564123D02*
X240419466Y-120564123D01*
X239996133Y-121047933D01*
X240177561Y-121047933D01*
X240298514Y-121108409D01*
X240358990Y-121168885D01*
X240419466Y-121289838D01*
X240419466Y-121592219D01*
X240358990Y-121713171D01*
X240298514Y-121773647D01*
X240177561Y-121834123D01*
X239814704Y-121834123D01*
X239693752Y-121773647D01*
X239633276Y-121713171D01*
D14*
X206138542Y-121261142D02*
X206090923Y-121308761D01*
X205948066Y-121356380D01*
X205852828Y-121356380D01*
X205709971Y-121308761D01*
X205614733Y-121213523D01*
X205567114Y-121118285D01*
X205519495Y-120927809D01*
X205519495Y-120784952D01*
X205567114Y-120594476D01*
X205614733Y-120499238D01*
X205709971Y-120404000D01*
X205852828Y-120356380D01*
X205948066Y-120356380D01*
X206090923Y-120404000D01*
X206138542Y-120451619D01*
X207090923Y-121356380D02*
X206519495Y-121356380D01*
X206805209Y-121356380D02*
X206805209Y-120356380D01*
X206709971Y-120499238D01*
X206614733Y-120594476D01*
X206519495Y-120642095D01*
X207948066Y-120689714D02*
X207948066Y-121356380D01*
X207709971Y-120308761D02*
X207471876Y-121023047D01*
X208090923Y-121023047D01*
X222724742Y-116790742D02*
X222677123Y-116838361D01*
X222534266Y-116885980D01*
X222439028Y-116885980D01*
X222296171Y-116838361D01*
X222200933Y-116743123D01*
X222153314Y-116647885D01*
X222105695Y-116457409D01*
X222105695Y-116314552D01*
X222153314Y-116124076D01*
X222200933Y-116028838D01*
X222296171Y-115933600D01*
X222439028Y-115885980D01*
X222534266Y-115885980D01*
X222677123Y-115933600D01*
X222724742Y-115981219D01*
X223677123Y-116885980D02*
X223105695Y-116885980D01*
X223391409Y-116885980D02*
X223391409Y-115885980D01*
X223296171Y-116028838D01*
X223200933Y-116124076D01*
X223105695Y-116171695D01*
X224581885Y-115885980D02*
X224105695Y-115885980D01*
X224058076Y-116362171D01*
X224105695Y-116314552D01*
X224200933Y-116266933D01*
X224439028Y-116266933D01*
X224534266Y-116314552D01*
X224581885Y-116362171D01*
X224629504Y-116457409D01*
X224629504Y-116695504D01*
X224581885Y-116790742D01*
X224534266Y-116838361D01*
X224439028Y-116885980D01*
X224200933Y-116885980D01*
X224105695Y-116838361D01*
X224058076Y-116790742D01*
%LPC*%
D15*
X252730000Y-125730000D03*
G36*
G01*
X233300000Y-84570400D02*
X231800000Y-84570400D01*
G75*
G02*
X231749200Y-84519600I0J50800D01*
G01*
X231749200Y-83619600D01*
G75*
G02*
X231800000Y-83568800I50800J0D01*
G01*
X233300000Y-83568800D01*
G75*
G02*
X233350800Y-83619600I0J-50800D01*
G01*
X233350800Y-84519600D01*
G75*
G02*
X233300000Y-84570400I-50800J0D01*
G01*
G37*
G36*
G01*
X233300000Y-86070400D02*
X231800000Y-86070400D01*
G75*
G02*
X231749200Y-86019600I0J50800D01*
G01*
X231749200Y-85119600D01*
G75*
G02*
X231800000Y-85068800I50800J0D01*
G01*
X233300000Y-85068800D01*
G75*
G02*
X233350800Y-85119600I0J-50800D01*
G01*
X233350800Y-86019600D01*
G75*
G02*
X233300000Y-86070400I-50800J0D01*
G01*
G37*
G36*
G01*
X233300000Y-87570400D02*
X231800000Y-87570400D01*
G75*
G02*
X231749200Y-87519600I0J50800D01*
G01*
X231749200Y-86619600D01*
G75*
G02*
X231800000Y-86568800I50800J0D01*
G01*
X233300000Y-86568800D01*
G75*
G02*
X233350800Y-86619600I0J-50800D01*
G01*
X233350800Y-87519600D01*
G75*
G02*
X233300000Y-87570400I-50800J0D01*
G01*
G37*
G36*
G01*
X233300000Y-89070400D02*
X231800000Y-89070400D01*
G75*
G02*
X231749200Y-89019600I0J50800D01*
G01*
X231749200Y-88119600D01*
G75*
G02*
X231800000Y-88068800I50800J0D01*
G01*
X233300000Y-88068800D01*
G75*
G02*
X233350800Y-88119600I0J-50800D01*
G01*
X233350800Y-89019600D01*
G75*
G02*
X233300000Y-89070400I-50800J0D01*
G01*
G37*
G36*
G01*
X233300000Y-90570400D02*
X231800000Y-90570400D01*
G75*
G02*
X231749200Y-90519600I0J50800D01*
G01*
X231749200Y-89619600D01*
G75*
G02*
X231800000Y-89568800I50800J0D01*
G01*
X233300000Y-89568800D01*
G75*
G02*
X233350800Y-89619600I0J-50800D01*
G01*
X233350800Y-90519600D01*
G75*
G02*
X233300000Y-90570400I-50800J0D01*
G01*
G37*
G36*
G01*
X233300000Y-92070400D02*
X231800000Y-92070400D01*
G75*
G02*
X231749200Y-92019600I0J50800D01*
G01*
X231749200Y-91119600D01*
G75*
G02*
X231800000Y-91068800I50800J0D01*
G01*
X233300000Y-91068800D01*
G75*
G02*
X233350800Y-91119600I0J-50800D01*
G01*
X233350800Y-92019600D01*
G75*
G02*
X233300000Y-92070400I-50800J0D01*
G01*
G37*
G36*
G01*
X233300000Y-93570400D02*
X231800000Y-93570400D01*
G75*
G02*
X231749200Y-93519600I0J50800D01*
G01*
X231749200Y-92619600D01*
G75*
G02*
X231800000Y-92568800I50800J0D01*
G01*
X233300000Y-92568800D01*
G75*
G02*
X233350800Y-92619600I0J-50800D01*
G01*
X233350800Y-93519600D01*
G75*
G02*
X233300000Y-93570400I-50800J0D01*
G01*
G37*
G36*
G01*
X233300000Y-95070400D02*
X231800000Y-95070400D01*
G75*
G02*
X231749200Y-95019600I0J50800D01*
G01*
X231749200Y-94119600D01*
G75*
G02*
X231800000Y-94068800I50800J0D01*
G01*
X233300000Y-94068800D01*
G75*
G02*
X233350800Y-94119600I0J-50800D01*
G01*
X233350800Y-95019600D01*
G75*
G02*
X233300000Y-95070400I-50800J0D01*
G01*
G37*
G36*
G01*
X233300000Y-96570400D02*
X231800000Y-96570400D01*
G75*
G02*
X231749200Y-96519600I0J50800D01*
G01*
X231749200Y-95619600D01*
G75*
G02*
X231800000Y-95568800I50800J0D01*
G01*
X233300000Y-95568800D01*
G75*
G02*
X233350800Y-95619600I0J-50800D01*
G01*
X233350800Y-96519600D01*
G75*
G02*
X233300000Y-96570400I-50800J0D01*
G01*
G37*
G36*
G01*
X250800000Y-96570400D02*
X249300000Y-96570400D01*
G75*
G02*
X249249200Y-96519600I0J50800D01*
G01*
X249249200Y-95619600D01*
G75*
G02*
X249300000Y-95568800I50800J0D01*
G01*
X250800000Y-95568800D01*
G75*
G02*
X250850800Y-95619600I0J-50800D01*
G01*
X250850800Y-96519600D01*
G75*
G02*
X250800000Y-96570400I-50800J0D01*
G01*
G37*
G36*
G01*
X250800000Y-95070400D02*
X249300000Y-95070400D01*
G75*
G02*
X249249200Y-95019600I0J50800D01*
G01*
X249249200Y-94119600D01*
G75*
G02*
X249300000Y-94068800I50800J0D01*
G01*
X250800000Y-94068800D01*
G75*
G02*
X250850800Y-94119600I0J-50800D01*
G01*
X250850800Y-95019600D01*
G75*
G02*
X250800000Y-95070400I-50800J0D01*
G01*
G37*
G36*
G01*
X250800000Y-93570400D02*
X249300000Y-93570400D01*
G75*
G02*
X249249200Y-93519600I0J50800D01*
G01*
X249249200Y-92619600D01*
G75*
G02*
X249300000Y-92568800I50800J0D01*
G01*
X250800000Y-92568800D01*
G75*
G02*
X250850800Y-92619600I0J-50800D01*
G01*
X250850800Y-93519600D01*
G75*
G02*
X250800000Y-93570400I-50800J0D01*
G01*
G37*
G36*
G01*
X250800000Y-92070400D02*
X249300000Y-92070400D01*
G75*
G02*
X249249200Y-92019600I0J50800D01*
G01*
X249249200Y-91119600D01*
G75*
G02*
X249300000Y-91068800I50800J0D01*
G01*
X250800000Y-91068800D01*
G75*
G02*
X250850800Y-91119600I0J-50800D01*
G01*
X250850800Y-92019600D01*
G75*
G02*
X250800000Y-92070400I-50800J0D01*
G01*
G37*
G36*
G01*
X250800000Y-90570400D02*
X249300000Y-90570400D01*
G75*
G02*
X249249200Y-90519600I0J50800D01*
G01*
X249249200Y-89619600D01*
G75*
G02*
X249300000Y-89568800I50800J0D01*
G01*
X250800000Y-89568800D01*
G75*
G02*
X250850800Y-89619600I0J-50800D01*
G01*
X250850800Y-90519600D01*
G75*
G02*
X250800000Y-90570400I-50800J0D01*
G01*
G37*
G36*
G01*
X250800000Y-89070400D02*
X249300000Y-89070400D01*
G75*
G02*
X249249200Y-89019600I0J50800D01*
G01*
X249249200Y-88119600D01*
G75*
G02*
X249300000Y-88068800I50800J0D01*
G01*
X250800000Y-88068800D01*
G75*
G02*
X250850800Y-88119600I0J-50800D01*
G01*
X250850800Y-89019600D01*
G75*
G02*
X250800000Y-89070400I-50800J0D01*
G01*
G37*
G36*
G01*
X250800000Y-87570400D02*
X249300000Y-87570400D01*
G75*
G02*
X249249200Y-87519600I0J50800D01*
G01*
X249249200Y-86619600D01*
G75*
G02*
X249300000Y-86568800I50800J0D01*
G01*
X250800000Y-86568800D01*
G75*
G02*
X250850800Y-86619600I0J-50800D01*
G01*
X250850800Y-87519600D01*
G75*
G02*
X250800000Y-87570400I-50800J0D01*
G01*
G37*
G36*
G01*
X250800000Y-86070400D02*
X249300000Y-86070400D01*
G75*
G02*
X249249200Y-86019600I0J50800D01*
G01*
X249249200Y-85119600D01*
G75*
G02*
X249300000Y-85068800I50800J0D01*
G01*
X250800000Y-85068800D01*
G75*
G02*
X250850800Y-85119600I0J-50800D01*
G01*
X250850800Y-86019600D01*
G75*
G02*
X250800000Y-86070400I-50800J0D01*
G01*
G37*
G36*
G01*
X250800000Y-84570400D02*
X249300000Y-84570400D01*
G75*
G02*
X249249200Y-84519600I0J50800D01*
G01*
X249249200Y-83619600D01*
G75*
G02*
X249300000Y-83568800I50800J0D01*
G01*
X250800000Y-83568800D01*
G75*
G02*
X250850800Y-83619600I0J-50800D01*
G01*
X250850800Y-84519600D01*
G75*
G02*
X250800000Y-84570400I-50800J0D01*
G01*
G37*
G36*
G01*
X244400000Y-92730400D02*
X240400000Y-92730400D01*
G75*
G02*
X240349200Y-92679600I0J50800D01*
G01*
X240349200Y-88679600D01*
G75*
G02*
X240400000Y-88628800I50800J0D01*
G01*
X244400000Y-88628800D01*
G75*
G02*
X244450800Y-88679600I0J-50800D01*
G01*
X244450800Y-92679600D01*
G75*
G02*
X244400000Y-92730400I-50800J0D01*
G01*
G37*
G36*
G01*
X208631783Y-86672000D02*
X207623417Y-86672000D01*
G75*
G02*
X207351800Y-86400383I0J271617D01*
G01*
X207351800Y-85667017D01*
G75*
G02*
X207623417Y-85395400I271617J0D01*
G01*
X208631783Y-85395400D01*
G75*
G02*
X208903400Y-85667017I0J-271617D01*
G01*
X208903400Y-86400383D01*
G75*
G02*
X208631783Y-86672000I-271617J0D01*
G01*
G37*
G36*
G01*
X208631783Y-88747000D02*
X207623417Y-88747000D01*
G75*
G02*
X207351800Y-88475383I0J271617D01*
G01*
X207351800Y-87742017D01*
G75*
G02*
X207623417Y-87470400I271617J0D01*
G01*
X208631783Y-87470400D01*
G75*
G02*
X208903400Y-87742017I0J-271617D01*
G01*
X208903400Y-88475383D01*
G75*
G02*
X208631783Y-88747000I-271617J0D01*
G01*
G37*
G36*
G01*
X215032583Y-101853400D02*
X214024217Y-101853400D01*
G75*
G02*
X213752600Y-101581783I0J271617D01*
G01*
X213752600Y-100848417D01*
G75*
G02*
X214024217Y-100576800I271617J0D01*
G01*
X215032583Y-100576800D01*
G75*
G02*
X215304200Y-100848417I0J-271617D01*
G01*
X215304200Y-101581783D01*
G75*
G02*
X215032583Y-101853400I-271617J0D01*
G01*
G37*
G36*
G01*
X215032583Y-99778400D02*
X214024217Y-99778400D01*
G75*
G02*
X213752600Y-99506783I0J271617D01*
G01*
X213752600Y-98773417D01*
G75*
G02*
X214024217Y-98501800I271617J0D01*
G01*
X215032583Y-98501800D01*
G75*
G02*
X215304200Y-98773417I0J-271617D01*
G01*
X215304200Y-99506783D01*
G75*
G02*
X215032583Y-99778400I-271617J0D01*
G01*
G37*
G36*
G01*
X216553200Y-107793783D02*
X216553200Y-106785417D01*
G75*
G02*
X216824817Y-106513800I271617J0D01*
G01*
X217558183Y-106513800D01*
G75*
G02*
X217829800Y-106785417I0J-271617D01*
G01*
X217829800Y-107793783D01*
G75*
G02*
X217558183Y-108065400I-271617J0D01*
G01*
X216824817Y-108065400D01*
G75*
G02*
X216553200Y-107793783I0J271617D01*
G01*
G37*
G36*
G01*
X214478200Y-107793783D02*
X214478200Y-106785417D01*
G75*
G02*
X214749817Y-106513800I271617J0D01*
G01*
X215483183Y-106513800D01*
G75*
G02*
X215754800Y-106785417I0J-271617D01*
G01*
X215754800Y-107793783D01*
G75*
G02*
X215483183Y-108065400I-271617J0D01*
G01*
X214749817Y-108065400D01*
G75*
G02*
X214478200Y-107793783I0J271617D01*
G01*
G37*
G36*
G01*
X215261700Y-110486183D02*
X215261700Y-109477817D01*
G75*
G02*
X215533317Y-109206200I271617J0D01*
G01*
X216266683Y-109206200D01*
G75*
G02*
X216538300Y-109477817I0J-271617D01*
G01*
X216538300Y-110486183D01*
G75*
G02*
X216266683Y-110757800I-271617J0D01*
G01*
X215533317Y-110757800D01*
G75*
G02*
X215261700Y-110486183I0J271617D01*
G01*
G37*
G36*
G01*
X213186700Y-110486183D02*
X213186700Y-109477817D01*
G75*
G02*
X213458317Y-109206200I271617J0D01*
G01*
X214191683Y-109206200D01*
G75*
G02*
X214463300Y-109477817I0J-271617D01*
G01*
X214463300Y-110486183D01*
G75*
G02*
X214191683Y-110757800I-271617J0D01*
G01*
X213458317Y-110757800D01*
G75*
G02*
X213186700Y-110486183I0J271617D01*
G01*
G37*
G36*
G01*
X207623417Y-109931800D02*
X208631783Y-109931800D01*
G75*
G02*
X208903400Y-110203417I0J-271617D01*
G01*
X208903400Y-110936783D01*
G75*
G02*
X208631783Y-111208400I-271617J0D01*
G01*
X207623417Y-111208400D01*
G75*
G02*
X207351800Y-110936783I0J271617D01*
G01*
X207351800Y-110203417D01*
G75*
G02*
X207623417Y-109931800I271617J0D01*
G01*
G37*
G36*
G01*
X207623417Y-112006800D02*
X208631783Y-112006800D01*
G75*
G02*
X208903400Y-112278417I0J-271617D01*
G01*
X208903400Y-113011783D01*
G75*
G02*
X208631783Y-113283400I-271617J0D01*
G01*
X207623417Y-113283400D01*
G75*
G02*
X207351800Y-113011783I0J271617D01*
G01*
X207351800Y-112278417D01*
G75*
G02*
X207623417Y-112006800I271617J0D01*
G01*
G37*
G36*
G01*
X247809600Y-99317817D02*
X247809600Y-100326183D01*
G75*
G02*
X247537983Y-100597800I-271617J0D01*
G01*
X246804617Y-100597800D01*
G75*
G02*
X246533000Y-100326183I0J271617D01*
G01*
X246533000Y-99317817D01*
G75*
G02*
X246804617Y-99046200I271617J0D01*
G01*
X247537983Y-99046200D01*
G75*
G02*
X247809600Y-99317817I0J-271617D01*
G01*
G37*
G36*
G01*
X249884600Y-99317817D02*
X249884600Y-100326183D01*
G75*
G02*
X249612983Y-100597800I-271617J0D01*
G01*
X248879617Y-100597800D01*
G75*
G02*
X248608000Y-100326183I0J271617D01*
G01*
X248608000Y-99317817D01*
G75*
G02*
X248879617Y-99046200I271617J0D01*
G01*
X249612983Y-99046200D01*
G75*
G02*
X249884600Y-99317817I0J-271617D01*
G01*
G37*
G36*
G01*
X227242000Y-109308000D02*
X227242000Y-107608000D01*
G75*
G02*
X227292800Y-107557200I50800J0D01*
G01*
X228992800Y-107557200D01*
G75*
G02*
X229043600Y-107608000I0J-50800D01*
G01*
X229043600Y-109308000D01*
G75*
G02*
X228992800Y-109358800I-50800J0D01*
G01*
X227292800Y-109358800D01*
G75*
G02*
X227242000Y-109308000I0J50800D01*
G01*
G37*
D16*
X228142800Y-110998000D03*
X228142800Y-113538000D03*
X228142800Y-116078000D03*
X228142800Y-118618000D03*
X228142800Y-121158000D03*
D17*
X219884000Y-126644400D03*
G36*
G01*
X213933200Y-127544400D02*
X213933200Y-125744400D01*
G75*
G02*
X213984000Y-125693600I50800J0D01*
G01*
X215784000Y-125693600D01*
G75*
G02*
X215834800Y-125744400I0J-50800D01*
G01*
X215834800Y-127544400D01*
G75*
G02*
X215784000Y-127595200I-50800J0D01*
G01*
X213984000Y-127595200D01*
G75*
G02*
X213933200Y-127544400I0J50800D01*
G01*
G37*
G36*
G01*
X252084000Y-105881600D02*
X253884000Y-105881600D01*
G75*
G02*
X253934800Y-105932400I0J-50800D01*
G01*
X253934800Y-107732400D01*
G75*
G02*
X253884000Y-107783200I-50800J0D01*
G01*
X252084000Y-107783200D01*
G75*
G02*
X252033200Y-107732400I0J50800D01*
G01*
X252033200Y-105932400D01*
G75*
G02*
X252084000Y-105881600I50800J0D01*
G01*
G37*
X252984000Y-111832400D03*
D16*
X254965200Y-97942400D03*
X254965200Y-95402400D03*
X254965200Y-92862400D03*
X254965200Y-90322400D03*
X254965200Y-87782400D03*
G36*
G01*
X254064400Y-86092400D02*
X254064400Y-84392400D01*
G75*
G02*
X254115200Y-84341600I50800J0D01*
G01*
X255815200Y-84341600D01*
G75*
G02*
X255866000Y-84392400I0J-50800D01*
G01*
X255866000Y-86092400D01*
G75*
G02*
X255815200Y-86143200I-50800J0D01*
G01*
X254115200Y-86143200D01*
G75*
G02*
X254064400Y-86092400I0J50800D01*
G01*
G37*
G36*
G01*
X207106400Y-93136400D02*
X207106400Y-91536400D01*
G75*
G02*
X207157200Y-91485600I50800J0D01*
G01*
X212857200Y-91485600D01*
G75*
G02*
X212908000Y-91536400I0J-50800D01*
G01*
X212908000Y-93136400D01*
G75*
G02*
X212857200Y-93187200I-50800J0D01*
G01*
X207157200Y-93187200D01*
G75*
G02*
X207106400Y-93136400I0J50800D01*
G01*
G37*
G36*
G01*
X207106400Y-97836400D02*
X207106400Y-96236400D01*
G75*
G02*
X207157200Y-96185600I50800J0D01*
G01*
X212857200Y-96185600D01*
G75*
G02*
X212908000Y-96236400I0J-50800D01*
G01*
X212908000Y-97836400D01*
G75*
G02*
X212857200Y-97887200I-50800J0D01*
G01*
X207157200Y-97887200D01*
G75*
G02*
X207106400Y-97836400I0J50800D01*
G01*
G37*
G36*
G01*
X204955565Y-101187200D02*
X205914835Y-101187200D01*
G75*
G02*
X206186000Y-101458365I0J-271165D01*
G01*
X206186000Y-102217635D01*
G75*
G02*
X205914835Y-102488800I-271165J0D01*
G01*
X204955565Y-102488800D01*
G75*
G02*
X204684400Y-102217635I0J271165D01*
G01*
X204684400Y-101458365D01*
G75*
G02*
X204955565Y-101187200I271165J0D01*
G01*
G37*
G36*
G01*
X204955565Y-99187200D02*
X205914835Y-99187200D01*
G75*
G02*
X206186000Y-99458365I0J-271165D01*
G01*
X206186000Y-100217635D01*
G75*
G02*
X205914835Y-100488800I-271165J0D01*
G01*
X204955565Y-100488800D01*
G75*
G02*
X204684400Y-100217635I0J271165D01*
G01*
X204684400Y-99458365D01*
G75*
G02*
X204955565Y-99187200I271165J0D01*
G01*
G37*
G36*
G01*
X205057165Y-108451600D02*
X206016435Y-108451600D01*
G75*
G02*
X206287600Y-108722765I0J-271165D01*
G01*
X206287600Y-109482035D01*
G75*
G02*
X206016435Y-109753200I-271165J0D01*
G01*
X205057165Y-109753200D01*
G75*
G02*
X204786000Y-109482035I0J271165D01*
G01*
X204786000Y-108722765D01*
G75*
G02*
X205057165Y-108451600I271165J0D01*
G01*
G37*
G36*
G01*
X205057165Y-106451600D02*
X206016435Y-106451600D01*
G75*
G02*
X206287600Y-106722765I0J-271165D01*
G01*
X206287600Y-107482035D01*
G75*
G02*
X206016435Y-107753200I-271165J0D01*
G01*
X205057165Y-107753200D01*
G75*
G02*
X204786000Y-107482035I0J271165D01*
G01*
X204786000Y-106722765D01*
G75*
G02*
X205057165Y-106451600I271165J0D01*
G01*
G37*
G36*
G01*
X211147235Y-113106000D02*
X210187965Y-113106000D01*
G75*
G02*
X209916800Y-112834835I0J271165D01*
G01*
X209916800Y-112075565D01*
G75*
G02*
X210187965Y-111804400I271165J0D01*
G01*
X211147235Y-111804400D01*
G75*
G02*
X211418400Y-112075565I0J-271165D01*
G01*
X211418400Y-112834835D01*
G75*
G02*
X211147235Y-113106000I-271165J0D01*
G01*
G37*
G36*
G01*
X211147235Y-111106000D02*
X210187965Y-111106000D01*
G75*
G02*
X209916800Y-110834835I0J271165D01*
G01*
X209916800Y-110075565D01*
G75*
G02*
X210187965Y-109804400I271165J0D01*
G01*
X211147235Y-109804400D01*
G75*
G02*
X211418400Y-110075565I0J-271165D01*
G01*
X211418400Y-110834835D01*
G75*
G02*
X211147235Y-111106000I-271165J0D01*
G01*
G37*
G36*
G01*
X205260365Y-114192000D02*
X206219635Y-114192000D01*
G75*
G02*
X206490800Y-114463165I0J-271165D01*
G01*
X206490800Y-115222435D01*
G75*
G02*
X206219635Y-115493600I-271165J0D01*
G01*
X205260365Y-115493600D01*
G75*
G02*
X204989200Y-115222435I0J271165D01*
G01*
X204989200Y-114463165D01*
G75*
G02*
X205260365Y-114192000I271165J0D01*
G01*
G37*
G36*
G01*
X205260365Y-112192000D02*
X206219635Y-112192000D01*
G75*
G02*
X206490800Y-112463165I0J-271165D01*
G01*
X206490800Y-113222435D01*
G75*
G02*
X206219635Y-113493600I-271165J0D01*
G01*
X205260365Y-113493600D01*
G75*
G02*
X204989200Y-113222435I0J271165D01*
G01*
X204989200Y-112463165D01*
G75*
G02*
X205260365Y-112192000I271165J0D01*
G01*
G37*
G36*
G01*
X246532600Y-102765435D02*
X246532600Y-101806165D01*
G75*
G02*
X246803765Y-101535000I271165J0D01*
G01*
X247563035Y-101535000D01*
G75*
G02*
X247834200Y-101806165I0J-271165D01*
G01*
X247834200Y-102765435D01*
G75*
G02*
X247563035Y-103036600I-271165J0D01*
G01*
X246803765Y-103036600D01*
G75*
G02*
X246532600Y-102765435I0J271165D01*
G01*
G37*
G36*
G01*
X248532600Y-102765435D02*
X248532600Y-101806165D01*
G75*
G02*
X248803765Y-101535000I271165J0D01*
G01*
X249563035Y-101535000D01*
G75*
G02*
X249834200Y-101806165I0J-271165D01*
G01*
X249834200Y-102765435D01*
G75*
G02*
X249563035Y-103036600I-271165J0D01*
G01*
X248803765Y-103036600D01*
G75*
G02*
X248532600Y-102765435I0J271165D01*
G01*
G37*
G36*
G01*
X228510400Y-99012800D02*
X226410400Y-99012800D01*
G75*
G02*
X226359600Y-98962000I0J50800D01*
G01*
X226359600Y-97562000D01*
G75*
G02*
X226410400Y-97511200I50800J0D01*
G01*
X228510400Y-97511200D01*
G75*
G02*
X228561200Y-97562000I0J-50800D01*
G01*
X228561200Y-98962000D01*
G75*
G02*
X228510400Y-99012800I-50800J0D01*
G01*
G37*
G36*
G01*
X219410400Y-99012800D02*
X217310400Y-99012800D01*
G75*
G02*
X217259600Y-98962000I0J50800D01*
G01*
X217259600Y-97562000D01*
G75*
G02*
X217310400Y-97511200I50800J0D01*
G01*
X219410400Y-97511200D01*
G75*
G02*
X219461200Y-97562000I0J-50800D01*
G01*
X219461200Y-98962000D01*
G75*
G02*
X219410400Y-99012800I-50800J0D01*
G01*
G37*
G36*
G01*
X228510400Y-94512800D02*
X226410400Y-94512800D01*
G75*
G02*
X226359600Y-94462000I0J50800D01*
G01*
X226359600Y-93062000D01*
G75*
G02*
X226410400Y-93011200I50800J0D01*
G01*
X228510400Y-93011200D01*
G75*
G02*
X228561200Y-93062000I0J-50800D01*
G01*
X228561200Y-94462000D01*
G75*
G02*
X228510400Y-94512800I-50800J0D01*
G01*
G37*
G36*
G01*
X219410400Y-94512800D02*
X217310400Y-94512800D01*
G75*
G02*
X217259600Y-94462000I0J50800D01*
G01*
X217259600Y-93062000D01*
G75*
G02*
X217310400Y-93011200I50800J0D01*
G01*
X219410400Y-93011200D01*
G75*
G02*
X219461200Y-93062000I0J-50800D01*
G01*
X219461200Y-94462000D01*
G75*
G02*
X219410400Y-94512800I-50800J0D01*
G01*
G37*
G36*
G01*
X219410400Y-86181600D02*
X217310400Y-86181600D01*
G75*
G02*
X217259600Y-86130800I0J50800D01*
G01*
X217259600Y-84730800D01*
G75*
G02*
X217310400Y-84680000I50800J0D01*
G01*
X219410400Y-84680000D01*
G75*
G02*
X219461200Y-84730800I0J-50800D01*
G01*
X219461200Y-86130800D01*
G75*
G02*
X219410400Y-86181600I-50800J0D01*
G01*
G37*
G36*
G01*
X228510400Y-86181600D02*
X226410400Y-86181600D01*
G75*
G02*
X226359600Y-86130800I0J50800D01*
G01*
X226359600Y-84730800D01*
G75*
G02*
X226410400Y-84680000I50800J0D01*
G01*
X228510400Y-84680000D01*
G75*
G02*
X228561200Y-84730800I0J-50800D01*
G01*
X228561200Y-86130800D01*
G75*
G02*
X228510400Y-86181600I-50800J0D01*
G01*
G37*
G36*
G01*
X219410400Y-90681600D02*
X217310400Y-90681600D01*
G75*
G02*
X217259600Y-90630800I0J50800D01*
G01*
X217259600Y-89230800D01*
G75*
G02*
X217310400Y-89180000I50800J0D01*
G01*
X219410400Y-89180000D01*
G75*
G02*
X219461200Y-89230800I0J-50800D01*
G01*
X219461200Y-90630800D01*
G75*
G02*
X219410400Y-90681600I-50800J0D01*
G01*
G37*
G36*
G01*
X228510400Y-90681600D02*
X226410400Y-90681600D01*
G75*
G02*
X226359600Y-90630800I0J50800D01*
G01*
X226359600Y-89230800D01*
G75*
G02*
X226410400Y-89180000I50800J0D01*
G01*
X228510400Y-89180000D01*
G75*
G02*
X228561200Y-89230800I0J-50800D01*
G01*
X228561200Y-90630800D01*
G75*
G02*
X228510400Y-90681600I-50800J0D01*
G01*
G37*
G36*
G01*
X211155400Y-102139200D02*
X211155400Y-100639200D01*
G75*
G02*
X211206200Y-100588400I50800J0D01*
G01*
X211856200Y-100588400D01*
G75*
G02*
X211907000Y-100639200I0J-50800D01*
G01*
X211907000Y-102139200D01*
G75*
G02*
X211856200Y-102190000I-50800J0D01*
G01*
X211206200Y-102190000D01*
G75*
G02*
X211155400Y-102139200I0J50800D01*
G01*
G37*
G36*
G01*
X209885400Y-102139200D02*
X209885400Y-100639200D01*
G75*
G02*
X209936200Y-100588400I50800J0D01*
G01*
X210586200Y-100588400D01*
G75*
G02*
X210637000Y-100639200I0J-50800D01*
G01*
X210637000Y-102139200D01*
G75*
G02*
X210586200Y-102190000I-50800J0D01*
G01*
X209936200Y-102190000D01*
G75*
G02*
X209885400Y-102139200I0J50800D01*
G01*
G37*
G36*
G01*
X208615400Y-102139200D02*
X208615400Y-100639200D01*
G75*
G02*
X208666200Y-100588400I50800J0D01*
G01*
X209316200Y-100588400D01*
G75*
G02*
X209367000Y-100639200I0J-50800D01*
G01*
X209367000Y-102139200D01*
G75*
G02*
X209316200Y-102190000I-50800J0D01*
G01*
X208666200Y-102190000D01*
G75*
G02*
X208615400Y-102139200I0J50800D01*
G01*
G37*
G36*
G01*
X207345400Y-102139200D02*
X207345400Y-100639200D01*
G75*
G02*
X207396200Y-100588400I50800J0D01*
G01*
X208046200Y-100588400D01*
G75*
G02*
X208097000Y-100639200I0J-50800D01*
G01*
X208097000Y-102139200D01*
G75*
G02*
X208046200Y-102190000I-50800J0D01*
G01*
X207396200Y-102190000D01*
G75*
G02*
X207345400Y-102139200I0J50800D01*
G01*
G37*
G36*
G01*
X207345400Y-107539200D02*
X207345400Y-106039200D01*
G75*
G02*
X207396200Y-105988400I50800J0D01*
G01*
X208046200Y-105988400D01*
G75*
G02*
X208097000Y-106039200I0J-50800D01*
G01*
X208097000Y-107539200D01*
G75*
G02*
X208046200Y-107590000I-50800J0D01*
G01*
X207396200Y-107590000D01*
G75*
G02*
X207345400Y-107539200I0J50800D01*
G01*
G37*
G36*
G01*
X208615400Y-107539200D02*
X208615400Y-106039200D01*
G75*
G02*
X208666200Y-105988400I50800J0D01*
G01*
X209316200Y-105988400D01*
G75*
G02*
X209367000Y-106039200I0J-50800D01*
G01*
X209367000Y-107539200D01*
G75*
G02*
X209316200Y-107590000I-50800J0D01*
G01*
X208666200Y-107590000D01*
G75*
G02*
X208615400Y-107539200I0J50800D01*
G01*
G37*
G36*
G01*
X209885400Y-107539200D02*
X209885400Y-106039200D01*
G75*
G02*
X209936200Y-105988400I50800J0D01*
G01*
X210586200Y-105988400D01*
G75*
G02*
X210637000Y-106039200I0J-50800D01*
G01*
X210637000Y-107539200D01*
G75*
G02*
X210586200Y-107590000I-50800J0D01*
G01*
X209936200Y-107590000D01*
G75*
G02*
X209885400Y-107539200I0J50800D01*
G01*
G37*
G36*
G01*
X211155400Y-107539200D02*
X211155400Y-106039200D01*
G75*
G02*
X211206200Y-105988400I50800J0D01*
G01*
X211856200Y-105988400D01*
G75*
G02*
X211907000Y-106039200I0J-50800D01*
G01*
X211907000Y-107539200D01*
G75*
G02*
X211856200Y-107590000I-50800J0D01*
G01*
X211206200Y-107590000D01*
G75*
G02*
X211155400Y-107539200I0J50800D01*
G01*
G37*
G36*
G01*
X212136983Y-86672000D02*
X211128617Y-86672000D01*
G75*
G02*
X210857000Y-86400383I0J271617D01*
G01*
X210857000Y-85667017D01*
G75*
G02*
X211128617Y-85395400I271617J0D01*
G01*
X212136983Y-85395400D01*
G75*
G02*
X212408600Y-85667017I0J-271617D01*
G01*
X212408600Y-86400383D01*
G75*
G02*
X212136983Y-86672000I-271617J0D01*
G01*
G37*
G36*
G01*
X212136983Y-88747000D02*
X211128617Y-88747000D01*
G75*
G02*
X210857000Y-88475383I0J271617D01*
G01*
X210857000Y-87742017D01*
G75*
G02*
X211128617Y-87470400I271617J0D01*
G01*
X212136983Y-87470400D01*
G75*
G02*
X212408600Y-87742017I0J-271617D01*
G01*
X212408600Y-88475383D01*
G75*
G02*
X212136983Y-88747000I-271617J0D01*
G01*
G37*
G36*
G01*
X214630600Y-105050583D02*
X214630600Y-104042217D01*
G75*
G02*
X214902217Y-103770600I271617J0D01*
G01*
X215635583Y-103770600D01*
G75*
G02*
X215907200Y-104042217I0J-271617D01*
G01*
X215907200Y-105050583D01*
G75*
G02*
X215635583Y-105322200I-271617J0D01*
G01*
X214902217Y-105322200D01*
G75*
G02*
X214630600Y-105050583I0J271617D01*
G01*
G37*
G36*
G01*
X216705600Y-105050583D02*
X216705600Y-104042217D01*
G75*
G02*
X216977217Y-103770600I271617J0D01*
G01*
X217710583Y-103770600D01*
G75*
G02*
X217982200Y-104042217I0J-271617D01*
G01*
X217982200Y-105050583D01*
G75*
G02*
X217710583Y-105322200I-271617J0D01*
G01*
X216977217Y-105322200D01*
G75*
G02*
X216705600Y-105050583I0J271617D01*
G01*
G37*
D18*
X234492800Y-126593600D03*
X239492800Y-126593600D03*
X244492800Y-126593600D03*
D19*
X209742400Y-118211600D03*
G36*
G01*
X213093200Y-117411600D02*
X213093200Y-119011600D01*
G75*
G02*
X213042400Y-119062400I-50800J0D01*
G01*
X211442400Y-119062400D01*
G75*
G02*
X211391600Y-119011600I0J50800D01*
G01*
X211391600Y-117411600D01*
G75*
G02*
X211442400Y-117360800I50800J0D01*
G01*
X213042400Y-117360800D01*
G75*
G02*
X213093200Y-117411600I0J-50800D01*
G01*
G37*
G36*
G01*
X216624000Y-119011600D02*
X216624000Y-117411600D01*
G75*
G02*
X216674800Y-117360800I50800J0D01*
G01*
X218274800Y-117360800D01*
G75*
G02*
X218325600Y-117411600I0J-50800D01*
G01*
X218325600Y-119011600D01*
G75*
G02*
X218274800Y-119062400I-50800J0D01*
G01*
X216674800Y-119062400D01*
G75*
G02*
X216624000Y-119011600I0J50800D01*
G01*
G37*
X219974800Y-118211600D03*
D15*
X207772000Y-80772000D03*
M02*
